*
G04 Job   : X:\EvmBoards\TPA3110D2\TPA3110D2EVM\PCB_Layout\TPA3110D2EVM.pcb*
G04 User  : DTA0209011:a0209011*
G04 Layer : BottomCopper.gbr*
G04 Date  : Thu Mar 12 13:10:41 2009*
G04 Mentor Graphics Example Gerber Output Definition*
%ICAS*%
%MOIN*%
%FSLAX24Y24*%
%OFA0.0000B0.0000*%
G90*
G74*
%AMVB_RECTANGLE*
21,1,$1,$2,0,0,$3*
%
%ADD12C,0.00394*%
%ADD13C,0.00591*%
%ADD11C,0.00984*%
%ADD10C,0.01000*%
%ADD15C,0.01181*%
%ADD19C,0.01300*%
%ADD18C,0.01400*%
%ADD14C,0.01969*%
%ADD71C,0.02500*%
%ADD17C,0.02953*%
%ADD70C,0.03000*%
%ADD20C,0.04000*%
%ADD26C,0.06400*%
%ADD16C,0.06890*%
%ADD30C,0.07000*%
%ADD27C,0.07500*%
%ADD29C,0.13900*%
%ADD72C,0.19000*%
%ADD28C,0.37000*%
%ADD25VB_RECTANGLE,0.06400X0.06400X180.00000*%
%ADD31VB_RECTANGLE,0.07000X0.07000X270.00000*%
%ADD73VB_RECTANGLE,0.03400X0.02300X0.00000*%
%ADD22VB_RECTANGLE,0.07100X0.07900X0.00000*%
%ADD21VB_RECTANGLE,0.07100X0.07900X270.00000*%
%ADD24VB_RECTANGLE,0.11811X0.15748X0.00000*%
%ADD23VB_RECTANGLE,0.11811X0.15748X270.00000*%
%ADD32VB_RECTANGLE,0.14000X0.07000X270.00000*%
G01*
G54D10*
X31496D01*
Y33465*
X0*
Y0*
X12348Y14932D03*
Y15232D03*
Y15532D03*
Y15832D03*
Y16132D03*
Y16432D03*
Y16732D03*
Y17032D03*
Y17332D03*
Y17632D03*
Y17932D03*
Y18232D03*
Y18532D03*
X12648Y14932D03*
Y15232D03*
Y15532D03*
Y15832D03*
Y16132D03*
Y16432D03*
Y16732D03*
Y17032D03*
Y17332D03*
Y17632D03*
Y17932D03*
Y18232D03*
Y18532D03*
X12948Y14932D03*
Y15232D03*
Y15532D03*
Y15832D03*
Y16132D03*
Y16432D03*
Y16732D03*
Y17032D03*
Y17332D03*
Y17632D03*
Y17932D03*
Y18232D03*
Y18532D03*
G54D11*
X-443Y-12352D02*
X55364D01*
Y36171*
X-443*
Y-12352*
X148Y148D02*
X31348D01*
Y33317*
X148*
Y148*
X177Y33317D02*
Y148D01*
X266D02*
Y4720D01*
Y11649D02*
Y18173D01*
Y27743D02*
Y33317D01*
X354Y4631D02*
Y148D01*
Y12522D02*
Y11737D01*
Y18080D02*
Y12754D01*
Y33317D02*
Y27836D01*
X443Y148D02*
Y4542D01*
Y11826D02*
Y12397D01*
Y12879D02*
Y17991D01*
Y27924D02*
Y33317D01*
X531Y4453D02*
Y148D01*
Y12343D02*
Y11915D01*
Y17797D02*
Y12932D01*
Y33317D02*
Y28013D01*
X620Y148D02*
Y4365D01*
Y12003D02*
Y12322D01*
Y12954D02*
Y17673D01*
Y28102D02*
Y33317D01*
X709Y4276D02*
Y148D01*
Y12326D02*
Y12183D01*
Y17619D02*
Y12950D01*
Y19595D02*
Y18338D01*
Y33317D02*
Y28190D01*
X797Y148D02*
Y4188D01*
Y12919D02*
Y17597D01*
Y18249D02*
Y19421D01*
Y28279D02*
Y33317D01*
X886Y4099D02*
Y148D01*
Y17602D02*
Y12904D01*
Y19276D02*
Y18225D01*
Y24088D02*
Y20031D01*
Y27263D02*
Y25125D01*
Y33317D02*
Y28367D01*
X974Y148D02*
Y4011D01*
Y5277D02*
Y8239D01*
Y9477D02*
Y10953D01*
Y12904D02*
Y17633D01*
Y18194D02*
Y19217D01*
Y19942D02*
Y23987D01*
Y25225D02*
Y27351D01*
Y28456D02*
Y33317D01*
X1063Y3922D02*
Y148D01*
Y8164D02*
Y5189D01*
Y11041D02*
Y9552D01*
Y17702D02*
Y12904D01*
Y19193D02*
Y18125D01*
Y23912D02*
Y19853D01*
Y27440D02*
Y25300D01*
Y33317D02*
Y28544D01*
X1152Y148D02*
Y3833D01*
Y5100D02*
Y8107D01*
Y9610D02*
Y11130D01*
Y12904D02*
Y19194D01*
Y19821D02*
Y23855D01*
Y25358D02*
Y27528D01*
Y28633D02*
Y33317D01*
X1240Y3745D02*
Y148D01*
Y8064D02*
Y5012D01*
Y11219D02*
Y9653D01*
Y19222D02*
Y12904D01*
Y23812D02*
Y19794D01*
Y27617D02*
Y25401D01*
Y33317D02*
Y28722D01*
X1329Y148D02*
Y3656D01*
Y4923D02*
Y8032D01*
Y9685D02*
Y11307D01*
Y12894D02*
Y19286D01*
Y19730D02*
Y23780D01*
Y25433D02*
Y27706D01*
Y28810D02*
Y33317D01*
X1417Y3568D02*
Y148D01*
Y8010D02*
Y4834D01*
Y11396D02*
Y9706D01*
Y19469D02*
Y12852D01*
Y23758D02*
Y19547D01*
Y27794D02*
Y25454D01*
Y33317D02*
Y28899D01*
X1506Y148D02*
Y3479D01*
Y4746D02*
Y7999D01*
Y9718D02*
Y11484D01*
Y12768D02*
Y23747D01*
Y25466D02*
Y27883D01*
Y28987D02*
Y33317D01*
X1594Y3390D02*
Y148D01*
Y7996D02*
Y4657D01*
Y11578D02*
Y9720D01*
Y23744D02*
Y12674D01*
Y27971D02*
Y25468D01*
Y33317D02*
Y29076D01*
X1683Y148D02*
Y3302D01*
Y4569D02*
Y8003D01*
Y9714D02*
Y23751D01*
Y25462D02*
Y28060D01*
Y29164D02*
Y33317D01*
X1772Y3213D02*
Y148D01*
Y8019D02*
Y4480D01*
Y23767D02*
Y9698D01*
Y28148D02*
Y25446D01*
Y33317D02*
Y29253D01*
X1860Y148D02*
Y3125D01*
Y4392D02*
Y8045D01*
Y9672D02*
Y23793D01*
Y25420D02*
Y28237D01*
Y29342D02*
Y33317D01*
X1949Y3036D02*
Y148D01*
Y8081D02*
Y4303D01*
Y23829D02*
Y9635D01*
Y28326D02*
Y25383D01*
Y33317D02*
Y29430D01*
X2037Y148D02*
Y2948D01*
Y4214D02*
Y8131D01*
Y9586D02*
Y23879D01*
Y25334D02*
Y28414D01*
Y29519D02*
Y33317D01*
X2126Y2859D02*
Y148D01*
Y8195D02*
Y4126D01*
Y23943D02*
Y9521D01*
Y28503D02*
Y25269D01*
Y33317D02*
Y29607D01*
X2215Y148D02*
Y2770D01*
Y4037D02*
Y7106D01*
Y7658D02*
Y8280D01*
Y9436D02*
Y10059D01*
Y10611D02*
Y22854D01*
Y23406D02*
Y24028D01*
Y25184D02*
Y25807D01*
Y26359D02*
Y28591D01*
Y29696D02*
Y33317D01*
X2303Y2700D02*
Y148D01*
Y6920D02*
Y3949D01*
Y8397D02*
Y7844D01*
Y9873D02*
Y9320D01*
Y22668D02*
Y10796D01*
Y24145D02*
Y23592D01*
Y25621D02*
Y25068D01*
Y28680D02*
Y26544D01*
Y33317D02*
Y29785D01*
X2392Y148D02*
Y2677D01*
Y3860D02*
Y6804D01*
Y7960D02*
Y8582D01*
Y9134D02*
Y9756D01*
Y10913D02*
Y22552D01*
Y23708D02*
Y24330D01*
Y24882D02*
Y25504D01*
Y26661D02*
Y28769D01*
Y29873D02*
Y33317D01*
X2480Y2677D02*
Y148D01*
Y6719D02*
Y3809D01*
Y9671D02*
Y8045D01*
Y22467D02*
Y10998D01*
Y25420D02*
Y23793D01*
Y28857D02*
Y26746D01*
Y33317D02*
Y29962D01*
X2569Y148D02*
Y2677D01*
Y3809D02*
Y6654D01*
Y8110D02*
Y9607D01*
Y11062D02*
Y11650D01*
Y12465D02*
Y21148D01*
Y21963D02*
Y22402D01*
Y23858D02*
Y25355D01*
Y26810D02*
Y28946D01*
Y30050D02*
Y33317D01*
X2657Y2677D02*
Y148D01*
Y6605D02*
Y3809D01*
Y9558D02*
Y8159D01*
Y11579D02*
Y11112D01*
Y21077D02*
Y12535D01*
Y22353D02*
Y22033D01*
Y25306D02*
Y23907D01*
Y29034D02*
Y26860D01*
Y33317D02*
Y30139D01*
X2746Y148D02*
Y2677D01*
Y3809D02*
Y6568D01*
Y8196D02*
Y9521D01*
Y11148D02*
Y11570D01*
Y12544D02*
Y21068D01*
Y22042D02*
Y22316D01*
Y23944D02*
Y25269D01*
Y26896D02*
Y29123D01*
Y30227D02*
Y33317D01*
X2835Y2677D02*
Y148D01*
Y6542D02*
Y3809D01*
Y9495D02*
Y8221D01*
Y11570D02*
Y11174D01*
Y21068D02*
Y12544D01*
Y22290D02*
Y22042D01*
Y25243D02*
Y23969D01*
Y29211D02*
Y26922D01*
Y33317D02*
Y30316D01*
X2923Y148D02*
Y2677D01*
Y3809D02*
Y6526D01*
Y8237D02*
Y9479D01*
Y11190D02*
Y11570D01*
Y12544D02*
Y21068D01*
Y22042D02*
Y22274D01*
Y23985D02*
Y25227D01*
Y26938D02*
Y29300D01*
Y30405D02*
Y33317D01*
X3012Y2677D02*
Y148D01*
Y6520D02*
Y3809D01*
Y9473D02*
Y8244D01*
Y11570D02*
Y11197D01*
Y21068D02*
Y12544D01*
Y22268D02*
Y22042D01*
Y25221D02*
Y23992D01*
Y29389D02*
Y26945D01*
Y33317D02*
Y30493D01*
X3100Y148D02*
Y1700D01*
Y2107D02*
Y2470D01*
Y3809D02*
Y6522D01*
Y8241D02*
Y9475D01*
Y11194D02*
Y11570D01*
Y12544D02*
Y21068D01*
Y22042D02*
Y22270D01*
Y23989D02*
Y25223D01*
Y26942D02*
Y29477D01*
Y30582D02*
Y30866D01*
Y31733D02*
Y33317D01*
X3189Y1569D02*
Y148D01*
Y2420D02*
Y2238D01*
Y6534D02*
Y3809D01*
Y9487D02*
Y8230D01*
Y11570D02*
Y11182D01*
Y21068D02*
Y12544D01*
Y22282D02*
Y22042D01*
Y25235D02*
Y23978D01*
Y29566D02*
Y26930D01*
Y30815D02*
Y30670D01*
Y33317D02*
Y31783D01*
X3278Y148D02*
Y1495D01*
Y2312D02*
Y2416D01*
Y3809D02*
Y6555D01*
Y8208D02*
Y9508D01*
Y11161D02*
Y11570D01*
Y12544D02*
Y21068D01*
Y22042D02*
Y22303D01*
Y23956D02*
Y25256D01*
Y26909D02*
Y29654D01*
Y30759D02*
Y30812D01*
Y31787D02*
Y33317D01*
X3351Y11570D02*
G03X3519Y11737J167D01*
G01Y12377*
G03X3351Y12544I168*
G01X2711*
G03X2544Y12377J167*
G01Y11737*
G03X2711Y11570I167*
G01X3351*
Y21068D02*
G03X3519Y21235J167D01*
G01Y21875*
G03X3351Y22042I168*
G01X2711*
G03X2544Y21875J167*
G01Y21235*
G03X2711Y21068I167*
G01X3351*
X3366Y1450D02*
Y148D01*
Y2416D02*
Y2358D01*
Y6587D02*
Y3809D01*
Y9540D02*
Y8177D01*
Y11570D02*
Y11129D01*
Y21068D02*
Y12544D01*
Y22335D02*
Y22042D01*
Y25288D02*
Y23925D01*
Y29743D02*
Y26877D01*
Y33317D02*
Y31787D01*
X3455Y148D02*
Y1424D01*
Y3809D02*
Y6631D01*
Y8133D02*
Y9583D01*
Y11086D02*
Y11605D01*
Y12509D02*
Y21103D01*
Y22007D02*
Y22379D01*
Y23881D02*
Y25331D01*
Y26834D02*
Y29832D01*
Y31787D02*
Y33317D01*
X3543Y1416D02*
Y148D01*
Y6688D02*
Y3809D01*
Y9641D02*
Y8076D01*
Y22436D02*
Y11029D01*
Y25389D02*
Y23824D01*
Y29920D02*
Y26777D01*
Y31299D02*
Y30719D01*
X443Y27618*
Y18297*
X827Y17913*
X3543Y33317D02*
Y31787D01*
X3632Y148D02*
Y1424D01*
Y3809D02*
Y6763D01*
Y8001D02*
Y9716D01*
Y10954D02*
Y22511D01*
Y23749D02*
Y25464D01*
Y26702D02*
Y30009D01*
Y31787D02*
Y33317D01*
X3720Y1450D02*
Y148D01*
Y2416D02*
Y2358D01*
Y6863D02*
Y3809D01*
Y9816D02*
Y7900D01*
Y22611D02*
Y10853D01*
Y25564D02*
Y23648D01*
Y30097D02*
Y26601D01*
Y33317D02*
Y31787D01*
X3809Y148D02*
Y1495D01*
Y2312D02*
Y2416D01*
Y3809D02*
Y7009D01*
Y7755D02*
Y9962D01*
Y10707D02*
Y22757D01*
Y23503D02*
Y25710D01*
Y26456D02*
Y30186D01*
Y31787D02*
Y33317D01*
X3894Y7382D02*
G03X3031Y8244I863D01*
X2169Y7382J862*
X3031Y6520I862*
X3894Y7382J862*
G01Y10335D02*
G03X3031Y11197I863D01*
X2169Y10335J862*
X3031Y9472I862*
X3894Y10335J863*
G01Y23130D02*
G03X3031Y23992I863D01*
X2169Y23130J862*
X3031Y22268I862*
X3894Y23130J862*
G01Y26083D02*
G03X3031Y26945I863D01*
X2169Y26083J862*
X3031Y25220I862*
X3894Y26083J863*
G01X3898Y1569D02*
Y148D01*
Y2420D02*
Y2238D01*
Y30274D02*
Y3809D01*
Y33317D02*
Y31783D01*
X3986Y148D02*
Y1700D01*
Y2107D02*
Y2470D01*
Y3809D02*
Y30363D01*
Y31733D02*
Y33317D01*
X4031Y1904D02*
G03X3543Y2391I488D01*
X3056Y1904J487*
X3543Y1416I487*
X4031Y1904J488*
G01X4075Y3278D02*
Y148D01*
Y30452D02*
Y3809D01*
Y33317D02*
Y31064D01*
X4163Y148D02*
Y3278D01*
Y3809D02*
Y30540D01*
Y31153D02*
Y33317D01*
X4252Y3278D02*
Y148D01*
Y30629D02*
Y3809D01*
Y33317D02*
Y31241D01*
X4341Y148D02*
Y3278D01*
Y3809D02*
Y30717D01*
Y31330D02*
Y33317D01*
X4429Y3278D02*
Y148D01*
Y30806D02*
Y3809D01*
Y33317D02*
Y31418D01*
X4518Y148D02*
Y3278D01*
Y3809D02*
Y30895D01*
Y31492D02*
Y33317D01*
X4606Y3278D02*
Y148D01*
Y30983D02*
Y3809D01*
Y33317D02*
Y31516D01*
X4669Y3278D02*
G03X4843Y3226I174J265D01*
X5160Y3543J317*
X4843Y3861I317*
X4669Y3809J318*
G01X2443*
X974Y5277*
Y8239*
G03X1575Y7996I601J619*
X2437Y8858J862*
X1575Y9721I862*
X974Y9477J863*
G01Y10953*
X1566Y11544*
G03X1644Y11732I188J188*
G01Y12520*
G03X1566Y12708I266*
G01X1448Y12825*
G03X1260Y12904I188J187*
G01X823*
G03X650Y12955I173J266*
X332Y12638J317*
X650Y12320I318*
X823Y12372J318*
G01X917*
G03X687Y12070I87J305*
G01X273Y11656*
G03X207Y11496I160J160*
G01Y4872*
G03X273Y4712I226*
G01X2242Y2743*
G03X2402Y2677I160J161*
G01X3056*
Y2584*
G03X3223Y2416I167*
G01X3863*
G03X4031Y2584J168*
G01Y3224*
G03X4022Y3278I168*
G01X4669*
X4695Y148D02*
Y3262D01*
Y3824D02*
Y31072D01*
Y31516D02*
Y33317D01*
X4783Y3232D02*
Y148D01*
Y31083D02*
Y3855D01*
Y33317D02*
Y31516D01*
X4872Y148D02*
Y3227D01*
Y3859D02*
Y31083D01*
Y31516D02*
Y33317D01*
X4961Y3249D02*
Y148D01*
Y31083D02*
Y3838D01*
Y33317D02*
Y31516D01*
X5049Y148D02*
Y3303D01*
Y3784D02*
Y31083D01*
Y31516D02*
Y33317D01*
X5138Y3427D02*
Y148D01*
Y31083D02*
Y3660D01*
Y33317D02*
Y31516D01*
X5226Y148D02*
Y31083D01*
Y31516D02*
Y33317D01*
X5315Y10218D02*
Y148D01*
Y31083D02*
Y10451D01*
Y33317D02*
Y31516D01*
X5404Y148D02*
Y10094D01*
Y10575D02*
Y31083D01*
Y31516D02*
Y33317D01*
X5492Y10040D02*
Y148D01*
Y31083D02*
Y10629D01*
Y33317D02*
Y31516D01*
X5581Y148D02*
Y10019D01*
Y10651D02*
Y31083D01*
Y31516D02*
Y33317D01*
X5669Y10023D02*
Y148D01*
Y31083D02*
Y10646D01*
Y33317D02*
Y31516D01*
X5758Y148D02*
Y10054D01*
Y10616D02*
Y31083D01*
Y31516D02*
Y33317D01*
X5846Y10069D02*
Y148D01*
Y31083D02*
Y10612D01*
Y33317D02*
Y31516D01*
X5935Y148D02*
Y10069D01*
Y10701D02*
Y31083D01*
Y31516D02*
Y33317D01*
X6024Y10081D02*
Y148D01*
Y31083D02*
Y10789D01*
Y33317D02*
Y31516D01*
X6112Y148D02*
Y10128D01*
Y10948D02*
Y31083D01*
Y31516D02*
Y33317D01*
X6201Y10215D02*
Y148D01*
Y31083D02*
Y11024D01*
Y33317D02*
Y31516D01*
X6289Y148D02*
Y2439D01*
Y3369D02*
Y10303D01*
Y11058D02*
Y30834D01*
Y31764D02*
Y33317D01*
X6378Y2416D02*
Y148D01*
Y10392D02*
Y3391D01*
Y30812D02*
Y11065D01*
Y33317D02*
Y31787D01*
X6424Y10437D02*
G03X6676Y10748I66J311D01*
X6358Y11065I318*
X6048Y10813J317*
G01X5835Y10600*
X5784*
G03X5610Y10652I174J265*
X5293Y10335J317*
X5610Y10017I317*
X5784Y10069J318*
G01X5945*
G03X6133Y10147J266*
G01X6424Y10437*
X6467Y148D02*
Y2416D01*
Y3391D02*
Y10450D01*
Y11046D02*
Y30812D01*
Y31787D02*
Y33317D01*
X6555Y2416D02*
Y148D01*
Y5411D02*
Y3391D01*
Y10499D02*
Y5907D01*
Y27557D02*
Y10997D01*
Y30812D02*
Y28053D01*
Y33317D02*
Y31787D01*
X6644Y148D02*
Y2416D01*
Y3391D02*
Y5286D01*
Y6032D02*
Y10609D01*
Y10887D02*
Y27432D01*
Y28178D02*
Y30812D01*
Y31787D02*
Y33317D01*
X6693Y31299D02*
X4616D01*
X620Y27303*
Y19990*
X1102Y19508*
X6732Y2416D02*
Y148D01*
Y5211D02*
Y3391D01*
Y27357D02*
Y6108D01*
Y30812D02*
Y28253D01*
Y33317D02*
Y31787D01*
X6821Y148D02*
Y2416D01*
Y3391D02*
Y5162D01*
Y6157D02*
Y27308D01*
Y28302D02*
Y30812D01*
Y31787D02*
Y33317D01*
X6909Y2416D02*
Y148D01*
Y5132D02*
Y3391D01*
Y27278D02*
Y6186D01*
Y30812D02*
Y28332D01*
Y33317D02*
Y31787D01*
X6998Y148D02*
Y2416D01*
Y3391D02*
Y5119D01*
Y6200D02*
Y27264D01*
Y28346D02*
Y30812D01*
Y31787D02*
Y33317D01*
X7013Y2416D02*
G03X7180Y2584J168D01*
G01Y3224*
G03X7013Y3391I167*
G01X6373*
G03X6206Y3224J167*
G01Y2584*
G03X6373Y2416I167*
G01X7013*
Y30812D02*
G03X7180Y30979J167D01*
G01Y31619*
G03X7013Y31787I167*
G01X6373*
G03X6206Y31619J168*
G01Y31516*
X4616*
G03X4463Y31452J217*
G01X4031Y31020*
Y31619*
G03X3863Y31787I168*
G01X3223*
G03X3056Y31619J168*
G01Y30979*
G03X3223Y30812I167*
G01X3327*
Y30808*
X290Y27771*
G03X226Y27618I153J153*
G01Y18297*
G03X290Y18144I217*
G01X510Y17924*
G03X509Y17913I317J11*
X827Y17596I318*
X1144Y17913J317*
X827Y18231I317*
X816J318*
G01X659Y18387*
Y19645*
X785Y19519*
G03Y19508I317J11*
X1102Y19191I317*
X1420Y19508J317*
X1102Y19825I318*
X1091J317*
G01X837Y20080*
Y24161*
G03X1575Y23744I738J445*
X2437Y24606J862*
X1575Y25469I862*
X837Y25052J863*
G01Y27213*
X4706Y31083*
X6206*
Y30979*
G03X6373Y30812I167*
G01X7013*
X7087Y2433D02*
Y148D01*
Y5119D02*
Y3374D01*
Y27265D02*
Y6200D01*
Y30829D02*
Y28345D01*
Y33317D02*
Y31769D01*
X7175Y148D02*
Y2543D01*
Y3264D02*
Y5135D01*
Y6184D02*
Y27281D01*
Y28330D02*
Y30938D01*
Y31660D02*
Y33317D01*
X7264Y5167D02*
Y148D01*
Y27312D02*
Y6152D01*
Y33317D02*
Y28298D01*
X7352Y148D02*
Y5218D01*
Y6101D02*
Y27364D01*
Y28247D02*
Y33317D01*
X7441Y5297D02*
Y148D01*
Y27443D02*
Y6022D01*
Y33317D02*
Y28167D01*
X7530Y148D02*
Y5432D01*
Y5887D02*
Y27577D01*
Y28033D02*
Y33317D01*
X7580Y5659D02*
G03X7037Y6202I543D01*
X6495Y5659J543*
X7037Y5117I542*
X7580Y5659J542*
G01Y27805D02*
G03X7037Y28347I543D01*
X6495Y27805J542*
X7037Y27263I542*
X7580Y27805J542*
G01X7618Y33317D02*
Y148D01*
X7707D02*
Y33317D01*
X7795D02*
Y148D01*
X7884D02*
Y33317D01*
X7972D02*
Y148D01*
X8061D02*
Y33317D01*
X8150D02*
Y148D01*
X8238D02*
Y33317D01*
X8327D02*
Y148D01*
X8415D02*
Y33317D01*
X8504D02*
Y148D01*
X8593D02*
Y33317D01*
X8681D02*
Y148D01*
X8770D02*
Y33317D01*
X8858D02*
Y148D01*
X8947D02*
Y33317D01*
X9035D02*
Y148D01*
X9124D02*
Y33317D01*
X9213D02*
Y148D01*
X9301D02*
Y33317D01*
X9390Y30877D02*
Y148D01*
Y32119D02*
Y31721D01*
Y33317D02*
Y32479D01*
X9478Y148D02*
Y27522D01*
Y28088D02*
Y30818D01*
Y31781D02*
Y31975D01*
Y32623D02*
Y33317D01*
X9567Y27412D02*
Y148D01*
Y30812D02*
Y28198D01*
Y31897D02*
Y31787D01*
Y33317D02*
Y32701D01*
X9656Y148D02*
Y27344D01*
Y28266D02*
Y30812D01*
Y31787D02*
Y31849D01*
Y32749D02*
Y33317D01*
X9744Y27300D02*
Y148D01*
Y30812D02*
Y28310D01*
Y33317D02*
Y32776D01*
X9833Y148D02*
Y27274D01*
Y28337D02*
Y30812D01*
Y32786D02*
Y33317D01*
X9921Y27263D02*
Y148D01*
Y30812D02*
Y28347D01*
Y33317D02*
Y32780D01*
X10010Y148D02*
Y27267D01*
Y28343D02*
Y30812D01*
Y31787D02*
Y31842D01*
Y32757D02*
Y33317D01*
X10098Y27286D02*
Y148D01*
Y30812D02*
Y28324D01*
Y31884D02*
Y31787D01*
Y33317D02*
Y32714D01*
X10163Y30812D02*
G03X10330Y30979J167D01*
G01Y31619*
G03X10163Y31787I167*
G01X9523*
G03X9355Y31619J168*
G01Y30979*
G03X9523Y30812I168*
G01X10163*
X10187Y148D02*
Y27322D01*
Y28288D02*
Y30814D01*
Y31785D02*
Y31955D01*
Y32644D02*
Y33317D01*
X10276Y27378D02*
Y148D01*
Y30856D02*
Y28232D01*
Y32076D02*
Y31743D01*
Y33317D02*
Y32523D01*
X10330Y32299D02*
G03X9843Y32787I487D01*
X9355Y32299J488*
X9843Y31812I488*
X10330Y32299J487*
G01X10364Y148D02*
Y27466D01*
Y28144D02*
Y33317D01*
X10453Y27626D02*
Y148D01*
Y33317D02*
Y27984D01*
X10483Y27805D02*
G03X9941Y28347I542D01*
X9399Y27805J542*
X9941Y27263I542*
X10483Y27805J542*
G01X10541Y148D02*
Y33317D01*
X10630D02*
Y148D01*
X10719D02*
Y33317D01*
X10807D02*
Y148D01*
X10896D02*
Y33317D01*
X10984D02*
Y148D01*
X11073D02*
Y33317D01*
X11161D02*
Y148D01*
X11250D02*
Y33317D01*
X11339D02*
Y148D01*
X11427D02*
Y33317D01*
X11516D02*
Y148D01*
X11604D02*
Y33317D01*
X11693D02*
Y148D01*
X11781D02*
Y33317D01*
X11870D02*
Y148D01*
X11959D02*
Y33317D01*
X12047D02*
Y148D01*
X12136D02*
Y33317D01*
X12224D02*
Y148D01*
X12313D02*
Y33317D01*
X12402D02*
Y148D01*
X12490D02*
Y33317D01*
X12579D02*
Y148D01*
X12667D02*
Y33317D01*
X12756D02*
Y148D01*
X12844D02*
Y33317D01*
X12933D02*
Y148D01*
X13022D02*
Y33317D01*
X13110D02*
Y148D01*
X13199D02*
Y33317D01*
X13287D02*
Y148D01*
X13376D02*
Y33317D01*
X13465D02*
Y148D01*
X13553D02*
Y33317D01*
X13642D02*
Y148D01*
X13730D02*
Y33317D01*
X13819D02*
Y148D01*
X13907D02*
Y33317D01*
X13996D02*
Y148D01*
X14085D02*
Y33317D01*
X14173Y15780D02*
Y148D01*
Y17276D02*
Y16189D01*
Y33317D02*
Y17685D01*
X14262Y148D02*
Y15710D01*
Y16557D02*
Y16879D01*
Y17754D02*
Y33317D01*
X14350Y15702D02*
Y148D01*
Y16780D02*
Y16655D01*
Y33317D02*
Y17763D01*
X14439Y148D02*
Y15702D01*
Y17763D02*
Y33317D01*
X14528Y15702D02*
Y148D01*
Y33317D02*
Y17763D01*
X14616Y148D02*
Y14492D01*
Y15214D02*
Y15702D01*
Y17763D02*
Y18250D01*
Y18973D02*
Y33317D01*
X14705Y14402D02*
Y148D01*
Y15690D02*
Y15284D01*
Y18181D02*
Y17775D01*
Y33317D02*
Y19062D01*
X14793Y148D02*
Y14361D01*
Y15292D02*
Y15679D01*
Y17785D02*
Y18172D01*
Y19104D02*
Y33317D01*
X14882Y14348D02*
Y148D01*
Y15679D02*
Y15292D01*
Y18172D02*
Y17785D01*
Y33317D02*
Y19117D01*
X14945Y15984D02*
X15223D01*
X14945Y17480D02*
X15223D01*
X14970Y148D02*
Y14361D01*
Y15292D02*
Y15679D01*
Y17785D02*
Y18172D01*
Y19104D02*
Y33317D01*
X15059Y13898D02*
Y148D01*
Y15679D02*
Y15292D01*
Y18172D02*
Y17785D01*
Y33317D02*
Y19567D01*
X15148Y148D02*
Y13799D01*
Y15314D02*
Y15679D01*
Y17785D02*
Y18151D01*
Y19666D02*
Y33317D01*
X15236Y13710D02*
Y148D01*
Y15615D02*
Y15325D01*
Y16570D02*
Y15886D01*
Y17579D02*
Y16894D01*
Y18140D02*
Y17849D01*
Y33317D02*
Y19754D01*
X15325Y148D02*
Y13622D01*
Y13928D02*
Y14787D01*
Y15325D02*
Y15549D01*
Y15819D02*
Y16634D01*
Y16850D02*
Y17645D01*
Y17916D02*
Y18140D01*
Y18678D02*
Y19537D01*
Y19843D02*
Y33317D01*
X15387Y15010D02*
Y14787D01*
Y15010D02*
X15666Y14961D01*
X15387Y18455D02*
Y18678D01*
Y18455D02*
X15666Y18504D01*
X15413Y13533D02*
Y148D01*
Y14787D02*
Y13839D01*
Y15482D02*
Y15325D01*
Y16634D02*
Y15753D01*
Y17712D02*
Y16850D01*
Y18140D02*
Y17982D01*
Y19625D02*
Y18678D01*
Y33317D02*
Y19932D01*
X15502Y148D02*
Y13444D01*
Y13751D02*
Y14787D01*
Y15325D02*
Y15416D01*
Y15687D02*
Y16634D01*
Y16850D02*
Y17778D01*
Y18049D02*
Y18140D01*
Y18678D02*
Y19714D01*
Y20020D02*
Y33317D01*
X15591Y13356D02*
Y148D01*
Y14792D02*
Y13662D01*
Y16623D02*
Y15620D01*
Y17844D02*
Y16850D01*
Y19802D02*
Y18673D01*
Y33317D02*
Y20109D01*
X15679Y148D02*
Y13267D01*
Y13574D02*
Y14960D01*
Y15554D02*
Y16540D01*
Y16925D02*
Y17911D01*
Y18505D02*
Y19891D01*
Y20197D02*
Y33317D01*
X15768Y13189D02*
Y148D01*
Y14871D02*
Y13485D01*
Y16535D02*
Y15487D01*
Y17977D02*
Y16929D01*
Y19980D02*
Y18593D01*
Y33317D02*
Y20276D01*
X15856Y148D02*
Y13169D01*
Y13396D02*
Y14783D01*
Y15089D02*
Y15150D01*
Y15421D02*
Y16535D01*
Y16929D02*
Y18044D01*
Y18314D02*
Y18376D01*
Y18682D02*
Y20068D01*
Y20295D02*
Y33317D01*
X15945Y13169D02*
Y148D01*
Y14764D02*
Y13386D01*
Y15084D02*
Y15000D01*
Y16535D02*
Y15354D01*
Y18110D02*
Y16929D01*
Y18464D02*
Y18381D01*
Y20079D02*
Y18701D01*
Y33317D02*
Y20295D01*
X16033Y148D02*
Y13169D01*
Y13386D02*
Y14764D01*
Y15288D02*
Y16535D01*
Y16929D02*
Y18177D01*
Y18701D02*
Y20079D01*
Y20295D02*
Y33317D01*
X16122Y13169D02*
Y148D01*
Y14764D02*
Y13386D01*
Y16535D02*
Y15221D01*
Y18243D02*
Y16929D01*
Y20079D02*
Y18701D01*
Y33317D02*
Y20295D01*
X16211Y148D02*
Y13169D01*
Y13386D02*
Y14764D01*
Y15157D02*
Y16535D01*
Y16929D02*
Y18307D01*
Y18701D02*
Y20079D01*
Y20295D02*
Y33317D01*
X16299Y13169D02*
Y148D01*
Y14764D02*
Y13386D01*
Y16535D02*
Y15157D01*
Y18307D02*
Y16929D01*
Y20079D02*
Y18701D01*
Y33317D02*
Y20295D01*
X16388Y148D02*
Y13169D01*
Y13386D02*
Y14764D01*
Y15157D02*
Y16535D01*
Y16929D02*
Y18307D01*
Y18701D02*
Y20079D01*
Y20295D02*
Y33317D01*
X16476Y13169D02*
Y148D01*
Y14764D02*
Y13386D01*
Y16535D02*
Y15157D01*
Y18307D02*
Y16929D01*
Y20079D02*
Y18701D01*
Y33317D02*
Y20295D01*
X16565Y148D02*
Y13169D01*
Y13386D02*
Y14764D01*
Y15157D02*
Y16535D01*
Y16929D02*
Y18307D01*
Y18701D02*
Y20079D01*
Y20295D02*
Y33317D01*
X16654Y13169D02*
Y148D01*
Y14764D02*
Y13386D01*
Y16535D02*
Y15157D01*
Y18307D02*
Y16929D01*
Y20079D02*
Y18701D01*
Y33317D02*
Y20295D01*
X16742Y148D02*
Y13169D01*
Y13386D02*
Y14764D01*
Y15157D02*
Y16535D01*
Y16929D02*
Y18307D01*
Y18701D02*
Y20079D01*
Y20295D02*
Y33317D01*
X16831Y13169D02*
Y148D01*
Y14764D02*
Y13386D01*
Y16535D02*
Y15157D01*
Y18307D02*
Y16929D01*
Y20079D02*
Y18701D01*
Y33317D02*
Y20295D01*
X16919Y148D02*
Y13169D01*
Y13386D02*
Y14764D01*
Y15157D02*
Y16535D01*
Y16929D02*
Y18307D01*
Y18701D02*
Y20079D01*
Y20295D02*
Y33317D01*
X16929Y13386D02*
X15867D01*
X15256Y13997*
Y14787*
X15557*
G03X15666Y14895J108*
G01Y14973*
X15861Y14778*
G03X15896Y14764I35J35*
G01X16929*
Y13386*
Y15157D02*
X16207D01*
X15236Y15886*
G03X15223Y15893I29J40*
G01Y16099*
G03X15168Y16194I108*
G01X15248Y16634*
X15580*
X15664Y16550*
G03X15699Y16535I35J35*
G01X16929*
Y15157*
Y16929D02*
X15699D01*
G03X15664Y16915J49*
G01X15600Y16850*
X15244*
X15168Y17271*
G03X15223Y17365I53J94*
G01Y17572*
G03X15236Y17579I16J46*
G01X16207Y18307*
X16929*
Y16929*
Y18701D02*
X15896D01*
G03X15861Y18686J49*
G01X15666Y18491*
Y18570*
G03X15557Y18678I109*
G01X15256*
Y19468*
X15867Y20079*
X16929*
Y18701*
X17008Y13172D02*
Y148D01*
Y33317D02*
Y20293D01*
X17057Y18504D02*
G03X17146Y18652I79J148D01*
G01Y20128*
G03X16978Y20295I168*
G01X15846*
G03X15728Y20246J167*
G01X15088Y19607*
G03X15039Y19488I119J119*
G01Y19075*
G03X14882Y19117I157J276*
X14565Y18799J318*
X14606Y18642I317*
X14590Y18570I151J72*
G01Y18340*
G03X14757Y18172I167*
G01X15097*
G03X15107Y18173J168*
X15207Y18140I100J134*
G01X15551*
G03X15669Y18189J167*
G01X15965Y18484*
X16083*
X15151Y17785*
X14764*
G03X14677Y17761J167*
X14655Y17763I22J166*
G01X14315*
G03X14147Y17595J168*
G01Y17365*
G03X14222Y17226I168*
G01Y17018*
G03X14301Y16830I266*
G01X14389Y16741*
G03X14414Y16719I188J188*
G01X14301Y16605*
G03X14222Y16417I187J188*
G01Y16239*
G03X14147Y16099I93J140*
G01Y15869*
G03X14315Y15702I168*
G01X14655*
G03X14677Y15703J167*
X14764Y15679I87J143*
G01X15151*
X16083Y14980*
X15965*
X15669Y15276*
G03X15551Y15325I118J119*
G01X15207*
G03X15107Y15292J168*
X15097I10J167*
G01X14757*
G03X14590Y15125J167*
G01Y14895*
G03X14606Y14823I167*
X14565Y14665I276J158*
X14882Y14348I317*
X15039Y14390J317*
G01Y13976*
G03X15088Y13858I168*
G01X15728Y13218*
G03X15846Y13169I118J119*
G01X16978*
G03X17146Y13337J168*
G01Y14813*
G03X17057Y14961I168*
X17146Y15108I79J147*
G01Y16585*
G03X17057Y16732I168*
X17146Y16880I79J148*
G01Y18356*
G03X17057Y18504I168*
G01X17096Y148D02*
Y13218D01*
Y14932D02*
Y14990D01*
Y16703D02*
Y16761D01*
Y18475D02*
Y18533D01*
Y20246D02*
Y33317D01*
X17185D02*
Y148D01*
X17274D02*
Y33317D01*
X17362D02*
Y148D01*
X17451D02*
Y33317D01*
X17539D02*
Y148D01*
X17628D02*
Y33317D01*
X17717Y2512D02*
Y148D01*
Y30071D02*
Y3394D01*
Y33317D02*
Y30953D01*
X17805Y148D02*
Y2221D01*
Y3685D02*
Y29780D01*
Y31244D02*
Y33317D01*
X17894Y2025D02*
Y148D01*
Y29584D02*
Y3880D01*
Y33317D02*
Y31440D01*
X17982Y148D02*
Y1871D01*
Y4035D02*
Y29430D01*
Y31594D02*
Y33317D01*
X18071Y1743D02*
Y148D01*
Y13195D02*
Y4163D01*
Y29302D02*
Y20270D01*
Y33317D02*
Y31722D01*
X18159Y148D02*
Y1633D01*
Y4273D02*
Y13169D01*
Y20295D02*
Y29192D01*
Y31832D02*
Y33317D01*
X18248Y1537D02*
Y148D01*
Y13169D02*
Y4369D01*
Y14764D02*
Y13386D01*
Y16535D02*
Y15157D01*
Y18307D02*
Y16929D01*
Y20079D02*
Y18701D01*
Y29096D02*
Y20295D01*
Y33317D02*
Y31928D01*
X18337Y148D02*
Y1452D01*
Y4453D02*
Y13169D01*
Y13386D02*
Y14764D01*
Y15157D02*
Y16535D01*
Y16929D02*
Y18307D01*
Y18701D02*
Y20079D01*
Y20295D02*
Y29011D01*
Y32012D02*
Y33317D01*
X18425Y1377D02*
Y148D01*
Y13169D02*
Y4528D01*
Y14764D02*
Y13386D01*
Y16535D02*
Y15157D01*
Y18307D02*
Y16929D01*
Y20079D02*
Y18701D01*
Y28936D02*
Y20295D01*
Y33317D02*
Y32087D01*
X18514Y148D02*
Y1310D01*
Y4595D02*
Y13169D01*
Y13386D02*
Y14764D01*
Y15157D02*
Y16535D01*
Y16929D02*
Y18307D01*
Y18701D02*
Y20079D01*
Y20295D02*
Y28869D01*
Y32154D02*
Y33317D01*
X18602Y1251D02*
Y148D01*
Y13169D02*
Y4655D01*
Y14764D02*
Y13386D01*
Y16535D02*
Y15157D01*
Y18307D02*
Y16929D01*
Y20079D02*
Y18701D01*
Y28810D02*
Y20295D01*
Y33317D02*
Y32214D01*
X18691Y148D02*
Y1197D01*
Y4708D02*
Y13169D01*
Y13386D02*
Y14764D01*
Y15157D02*
Y16535D01*
Y16929D02*
Y18307D01*
Y18701D02*
Y20079D01*
Y20295D02*
Y28756D01*
Y32267D02*
Y33317D01*
X18780Y1150D02*
Y148D01*
Y6250D02*
Y4755D01*
Y9557D02*
Y7668D01*
Y13169D02*
Y10975D01*
Y14764D02*
Y13386D01*
Y16535D02*
Y15157D01*
Y18307D02*
Y16929D01*
Y20079D02*
Y18701D01*
Y22490D02*
Y20295D01*
Y25797D02*
Y23908D01*
Y28709D02*
Y27215D01*
Y33317D02*
Y32314D01*
X18868Y148D02*
Y1108D01*
Y4797D02*
Y6203D01*
Y7714D02*
Y9511D01*
Y11021D02*
Y13169D01*
Y13386D02*
Y14764D01*
Y15157D02*
Y16535D01*
Y16929D02*
Y18307D01*
Y18701D02*
Y20079D01*
Y20295D02*
Y22444D01*
Y23954D02*
Y25751D01*
Y27261D02*
Y28667D01*
Y32356D02*
Y33317D01*
X18957Y1072D02*
Y148D01*
Y6201D02*
Y4834D01*
Y9508D02*
Y7717D01*
Y13169D02*
Y11024D01*
Y14734D02*
Y13386D01*
Y16535D02*
Y15188D01*
Y18277D02*
Y16929D01*
Y20079D02*
Y18731D01*
Y22441D02*
Y20295D01*
Y25748D02*
Y23957D01*
Y28631D02*
Y27264D01*
Y33317D02*
Y32393D01*
X19045Y148D02*
Y1040D01*
Y4866D02*
Y6201D01*
Y7717D02*
Y9508D01*
Y11024D02*
Y13169D01*
Y13386D02*
Y14645D01*
Y15276D02*
Y16535D01*
Y16929D02*
Y18188D01*
Y18820D02*
Y20079D01*
Y20295D02*
Y22441D01*
Y23957D02*
Y25748D01*
Y27264D02*
Y28599D01*
Y32425D02*
Y33317D01*
X19134Y1012D02*
Y148D01*
Y6201D02*
Y4893D01*
Y8847D02*
Y8377D01*
Y13169D02*
Y11024D01*
Y14556D02*
Y13386D01*
Y15059D02*
Y14863D01*
Y16535D02*
Y15365D01*
Y18100D02*
Y16929D01*
Y18602D02*
Y18406D01*
Y20079D02*
Y18908D01*
Y22441D02*
Y20295D01*
Y25087D02*
Y24617D01*
Y28571D02*
Y27264D01*
Y33317D02*
Y32452D01*
X19222Y148D02*
Y989D01*
Y8470D02*
Y8754D01*
Y11024D02*
Y13169D01*
Y13386D02*
Y14468D01*
Y14774D02*
Y15147D01*
Y15453D02*
Y16535D01*
Y16929D02*
Y18011D01*
Y18317D02*
Y18691D01*
Y18997D02*
Y20079D01*
Y20295D02*
Y22441D01*
Y24710D02*
Y24994D01*
Y32475D02*
Y33317D01*
X19311Y970D02*
Y148D01*
Y8740D02*
Y8485D01*
Y13169D02*
Y11024D01*
Y14379D02*
Y13386D01*
Y15236D02*
Y14685D01*
Y16535D02*
Y15542D01*
Y17923D02*
Y16929D01*
Y18779D02*
Y18229D01*
Y20079D02*
Y19085D01*
Y22441D02*
Y20295D01*
Y24980D02*
Y24725D01*
Y33317D02*
Y32494D01*
X19400Y148D02*
Y956D01*
Y8485D02*
Y8740D01*
Y11024D02*
Y13169D01*
Y13386D02*
Y14291D01*
Y14597D02*
Y15324D01*
Y15631D02*
Y16535D01*
Y16929D02*
Y17834D01*
Y18140D02*
Y18868D01*
Y19174D02*
Y20079D01*
Y20295D02*
Y22441D01*
Y24725D02*
Y24980D01*
Y32509D02*
Y33317D01*
X19439Y13386D02*
X18209D01*
Y14764*
X18926*
X19439Y14251*
Y13386*
Y15670D02*
X18926Y15157D01*
X18209*
Y16535*
X19439*
Y15670*
Y16929D02*
X18209D01*
Y18307*
X18926*
X19439Y17795*
Y16929*
Y19213D02*
X18926Y18701D01*
X18209*
Y20079*
X19439*
Y19213*
X19488Y945D02*
Y148D01*
Y8740D02*
Y8485D01*
Y13169D02*
Y11024D01*
Y15413D02*
Y14508D01*
Y18956D02*
Y18052D01*
Y22441D02*
Y20295D01*
Y24980D02*
Y24725D01*
Y33317D02*
Y32520D01*
X19577Y148D02*
Y938D01*
Y8485D02*
Y8740D01*
Y11024D02*
Y13195D01*
Y14420D02*
Y15502D01*
Y17963D02*
Y19045D01*
Y20270D02*
Y22441D01*
Y24725D02*
Y24980D01*
Y32526D02*
Y33317D01*
X19607Y19075D02*
G03X19656Y19193I119J118D01*
G01Y20128*
G03X19488Y20295I168*
G01X18159*
G03X17992Y20128J167*
G01Y18652*
G03X18081Y18504I167*
X17992Y18356I78J148*
G01Y16880*
G03X18081Y16732I167*
X17992Y16585I78J147*
G01Y15108*
G03X18081Y14961I167*
X17992Y14813I78J148*
G01Y13337*
G03X18159Y13169I167*
G01X19488*
G03X19656Y13337J168*
G01Y14272*
G03X19607Y14390I168*
G01X19065Y14931*
G03X19026Y14961I118J118*
X19065Y14990I79J147*
G01X19607Y15531*
G03X19656Y15650I119J119*
G01Y16585*
G03X19567Y16732I168*
X19656Y16880I79J148*
G01Y17815*
G03X19607Y17933I168*
G01X19065Y18475*
G03X19026Y18504I118J119*
X19065Y18533I79J148*
G01X19607Y19075*
X19665Y936D02*
Y148D01*
Y8740D02*
Y8485D01*
Y22441D02*
Y11024D01*
Y24980D02*
Y24725D01*
Y33317D02*
Y32529D01*
X19754Y148D02*
Y937D01*
Y8485D02*
Y8740D01*
Y11024D02*
Y22441D01*
Y24725D02*
Y24980D01*
Y32528D02*
Y33317D01*
X19843Y942D02*
Y148D01*
Y8740D02*
Y8485D01*
Y22441D02*
Y11024D01*
Y24980D02*
Y24725D01*
Y33317D02*
Y32523D01*
X19931Y148D02*
Y950D01*
Y8485D02*
Y8740D01*
Y11049D02*
Y22406D01*
Y24725D02*
Y24980D01*
Y32514D02*
Y33317D01*
X20020Y963D02*
Y148D01*
Y8740D02*
Y8485D01*
Y22318D02*
Y11137D01*
Y24980D02*
Y24725D01*
Y33317D02*
Y32501D01*
X20108Y148D02*
Y980D01*
Y8482D02*
Y8742D01*
Y11226D02*
Y22229D01*
Y24722D02*
Y24982D01*
Y32484D02*
Y33317D01*
X20197Y1001D02*
Y148D01*
Y5205D02*
Y4904D01*
Y8787D02*
Y8437D01*
Y22140D02*
Y11314D01*
Y25028D02*
Y24677D01*
Y27351D02*
Y27264D01*
Y28560D02*
Y28260D01*
Y33317D02*
Y32463D01*
X20285Y148D02*
Y1027D01*
Y4879D02*
Y5344D01*
Y5974D02*
Y6201D01*
Y7717D02*
Y9508D01*
Y11403D02*
Y22052D01*
Y23957D02*
Y25748D01*
Y27264D02*
Y27490D01*
Y28120D02*
Y28586D01*
Y32438D02*
Y33317D01*
X20374Y1057D02*
Y148D01*
Y5344D02*
Y4849D01*
Y6201D02*
Y5974D01*
Y9508D02*
Y7717D01*
Y21963D02*
Y11492D01*
Y25748D02*
Y23957D01*
Y27490D02*
Y27264D01*
Y28616D02*
Y28120D01*
Y33317D02*
Y32408D01*
X20463Y148D02*
Y1091D01*
Y4814D02*
Y5344D01*
Y5974D02*
Y6201D01*
Y7717D02*
Y9508D01*
Y11580D02*
Y21875D01*
Y23957D02*
Y25748D01*
Y27264D02*
Y27490D01*
Y28120D02*
Y28650D01*
Y32373D02*
Y33317D01*
X20502Y21374D02*
G03X21014Y20862I512D01*
X21526Y21374J512*
G01Y22047*
G03X21376Y22409I512*
G01X20640Y23145*
Y23789*
G03X20472Y23957I168*
G01X20247*
Y24557*
G03X20080Y24725I167*
G01X19290*
G03X19123Y24557J168*
G01Y23957*
X18898*
G03X18730Y23789J168*
G01Y22608*
G03X18898Y22441I168*
G01X19896*
X20502Y21835*
Y21374*
X20551Y1131D02*
Y148D01*
Y5344D02*
Y4775D01*
Y6220D02*
Y5974D01*
Y9528D02*
Y7697D01*
Y12699D02*
Y12325D01*
Y14229D02*
Y13514D01*
Y14987D02*
Y14692D01*
Y17772D02*
Y15934D01*
Y18530D02*
Y18236D01*
Y19966D02*
Y19478D01*
Y21155D02*
Y20782D01*
Y25768D02*
Y23937D01*
Y27490D02*
Y27244D01*
Y28690D02*
Y28120D01*
Y33317D02*
Y32334D01*
X20640Y148D02*
Y1176D01*
Y4730D02*
Y5344D01*
Y5974D02*
Y10310D01*
Y12456D02*
Y12628D01*
Y13585D02*
Y14103D01*
Y14818D02*
Y14945D01*
Y15976D02*
Y17647D01*
Y18361D02*
Y18488D01*
Y19520D02*
Y19896D01*
Y20852D02*
Y21025D01*
Y23145D02*
Y27490D01*
Y28120D02*
Y28735D01*
Y32289D02*
Y33317D01*
X20728Y1226D02*
Y148D01*
Y5344D02*
Y4679D01*
Y10398D02*
Y5974D01*
Y12619D02*
Y12531D01*
Y14029D02*
Y13594D01*
Y14943D02*
Y14892D01*
Y17572D02*
Y15978D01*
Y18487D02*
Y18435D01*
Y19887D02*
Y19521D01*
Y20949D02*
Y20861D01*
Y27490D02*
Y23056D01*
Y28785D02*
Y28120D01*
Y33317D02*
Y32238D01*
X20817Y148D02*
Y1283D01*
Y4623D02*
Y5344D01*
Y5974D02*
Y10487D01*
Y13594D02*
Y13982D01*
Y15978D02*
Y17526D01*
Y19521D02*
Y19887D01*
Y22968D02*
Y27490D01*
Y28120D02*
Y28842D01*
Y32182D02*
Y33317D01*
X20906Y1347D02*
Y148D01*
Y5344D02*
Y4559D01*
Y10575D02*
Y5974D01*
Y13955D02*
Y13594D01*
Y17498D02*
Y15978D01*
Y19887D02*
Y19521D01*
Y27490D02*
Y22879D01*
Y28906D02*
Y28120D01*
Y33317D02*
Y32118D01*
X20994Y148D02*
Y1418D01*
Y4488D02*
Y5344D01*
Y5974D02*
Y10664D01*
Y13594D02*
Y13944D01*
Y15978D02*
Y17487D01*
Y19521D02*
Y19887D01*
Y22791D02*
Y27490D01*
Y28120D02*
Y28977D01*
Y32047D02*
Y33317D01*
X21083Y1498D02*
Y148D01*
Y5344D02*
Y4407D01*
Y10753D02*
Y5974D01*
Y13948D02*
Y13594D01*
Y17491D02*
Y15978D01*
Y19887D02*
Y19521D01*
Y27490D02*
Y22702D01*
Y29057D02*
Y28120D01*
Y33317D02*
Y31967D01*
X21171Y148D02*
Y1589D01*
Y4317D02*
Y5344D01*
Y5974D02*
Y10841D01*
Y13594D02*
Y13968D01*
Y15978D02*
Y17511D01*
Y19521D02*
Y19887D01*
Y22614D02*
Y27490D01*
Y28120D02*
Y29148D01*
Y31876D02*
Y33317D01*
X21260Y1692D02*
Y148D01*
Y5344D02*
Y4214D01*
Y10930D02*
Y5974D01*
Y12619D02*
Y12555D01*
Y14006D02*
Y13594D01*
Y17549D02*
Y15978D01*
Y19887D02*
Y19521D01*
Y20925D02*
Y20861D01*
Y27490D02*
Y22525D01*
Y29251D02*
Y28120D01*
Y33317D02*
Y31773D01*
X21334Y12619D02*
G03X21501Y12786J167D01*
G01Y13426*
G03X21334Y13594I167*
G01X20694*
G03X20526Y13426J168*
G01Y12786*
G03X20694Y12619I168*
G01X21334*
Y19887D02*
G03X21501Y20054J167D01*
G01Y20694*
G03X21334Y20861I167*
G01X20694*
G03X20526Y20694J167*
G01Y20054*
G03X20694Y19887I168*
G01X21334*
X21348Y148D02*
Y1811D01*
Y4094D02*
Y5344D01*
Y5974D02*
Y11018D01*
Y12494D02*
Y12620D01*
Y13593D02*
Y14066D01*
Y14855D02*
Y14943D01*
Y15978D02*
Y17609D01*
Y18398D02*
Y18487D01*
Y19521D02*
Y19887D01*
Y20861D02*
Y20987D01*
Y22436D02*
Y27490D01*
Y28120D02*
Y29370D01*
Y31653D02*
Y33317D01*
X21364Y14943D02*
G03X21531Y15111J168D01*
G01Y15811*
G03X21364Y15978I167*
G01X20664*
G03X20496Y15811J167*
G01Y15111*
G03X20664Y14943I168*
G01X20828*
G03X20496Y14461I186J482*
X21014Y13943I518*
X21531Y14461J518*
X21200Y14943I517*
G01X21364*
Y18487D02*
G03X21531Y18654J167D01*
G01Y19354*
G03X21364Y19521I167*
G01X20664*
G03X20496Y19354J167*
G01Y18654*
G03X20664Y18487I168*
G01X20828*
G03X20496Y18004I186J483*
X21014Y17487I518*
X21531Y18004J517*
X21200Y18487I517*
G01X21364*
X21376Y11045D02*
G03X21526Y11407I362J362D01*
G01Y12106*
G03X21014Y12618I512*
X20502Y12106J512*
G01Y11619*
X19906Y11024*
X18898*
G03X18730Y10856J168*
G01Y9675*
G03X18898Y9508I168*
G01X19123*
Y8907*
G03X19290Y8740I167*
G01X20080*
G03X20247Y8907J167*
G01Y9508*
X20472*
G03X20640Y9675J167*
G01Y10310*
X21376Y11045*
X21437Y1953D02*
Y148D01*
Y5344D02*
Y3953D01*
Y11120D02*
Y5974D01*
Y12655D02*
Y12394D01*
Y14163D02*
Y13558D01*
Y14960D02*
Y14758D01*
Y17706D02*
Y15961D01*
Y18503D02*
Y18301D01*
Y19922D02*
Y19504D01*
Y21086D02*
Y20826D01*
Y27490D02*
Y22335D01*
Y29512D02*
Y28120D01*
Y33317D02*
Y31512D01*
X21526Y148D02*
Y2127D01*
Y3779D02*
Y5344D01*
Y5974D02*
Y14385D01*
Y14536D02*
Y15068D01*
Y15853D02*
Y17929D01*
Y18079D02*
Y18611D01*
Y19397D02*
Y27490D01*
Y28120D02*
Y29686D01*
Y31338D02*
Y33317D01*
X21614Y2363D02*
Y148D01*
Y5344D02*
Y3543D01*
Y27490D02*
Y5974D01*
Y29922D02*
Y28120D01*
Y33317D02*
Y31102D01*
X21703Y148D02*
Y5344D01*
Y5974D02*
Y27490D01*
Y28120D02*
Y33317D01*
X21791Y5344D02*
Y148D01*
Y27490D02*
Y5974D01*
Y33317D02*
Y28120D01*
X21880Y148D02*
Y5344D01*
Y5974D02*
Y27490D01*
Y28120D02*
Y33317D01*
X21901Y5344D02*
G03X22343Y5117I442J315D01*
X22885Y5659J542*
X22343Y6202I542*
X21901Y5974J543*
G01X20208*
Y6054*
G03X20197Y6113I168*
G01Y6201*
X20472*
G03X20640Y6368J167*
G01Y7549*
G03X20472Y7717I168*
G01X20247*
Y8317*
G03X20080Y8485I167*
G01X19290*
G03X19123Y8317J168*
G01Y7717*
X18898*
G03X18730Y7549J168*
G01Y6368*
G03X18898Y6201I168*
G01X19174*
Y6113*
G03X19163Y6054I156J59*
G01Y5264*
G03X19173Y5207I167*
G01Y4904*
G03X17668Y2953I512J1951*
X19685Y935I2017*
X21702Y2953J2018*
X20197Y4904I2017*
G01Y5205*
G03X20208Y5264I157J59*
G01Y5344*
X21901*
Y27490D02*
G03X22343Y27263I442J315D01*
X22885Y27805J542*
X22343Y28347I542*
X21901Y28120J542*
G01X20208*
Y28200*
G03X20197Y28260I168*
G01Y28560*
G03X21702Y30512I512J1952*
X19685Y32529I2017*
X17668Y30512J2017*
X19173Y28560I2017*
G01Y28257*
G03X19163Y28200I157J57*
G01Y27410*
G03X19173Y27353I167*
G01Y27264*
X18898*
G03X18730Y27096J168*
G01Y25915*
G03X18898Y25748I168*
G01X19123*
Y25147*
G03X19290Y24980I167*
G01X20080*
G03X20247Y25147J167*
G01Y25748*
X20472*
G03X20640Y25915J167*
G01Y27096*
G03X20472Y27264I168*
G01X20197*
Y27351*
G03X20208Y27410I157J59*
G01Y27490*
X21901*
X21969Y5267D02*
Y148D01*
Y27412D02*
Y6052D01*
Y33317D02*
Y28198D01*
X22057Y148D02*
Y5198D01*
Y6121D02*
Y27344D01*
Y28266D02*
Y33317D01*
X22146Y5154D02*
Y148D01*
Y27300D02*
Y6165D01*
Y33317D02*
Y28310D01*
X22234Y148D02*
Y5128D01*
Y6191D02*
Y27274D01*
Y28337D02*
Y33317D01*
X22323Y5117D02*
Y148D01*
Y27263D02*
Y6201D01*
Y33317D02*
Y28347D01*
X22411Y148D02*
Y5122D01*
Y6197D02*
Y27267D01*
Y28343D02*
Y33317D01*
X22500Y5140D02*
Y148D01*
Y11834D02*
Y6178D01*
Y12663D02*
Y12379D01*
Y19931D02*
Y13550D01*
Y21105D02*
Y20817D01*
Y27286D02*
Y21651D01*
Y33317D02*
Y28324D01*
X22589Y148D02*
Y5176D01*
Y6143D02*
Y11727D01*
Y12485D02*
Y12621D01*
Y13592D02*
Y19888D01*
Y20860D02*
Y20999D01*
Y21757D02*
Y27322D01*
Y28288D02*
Y33317D01*
X22677Y5233D02*
Y148D01*
Y11638D02*
Y6086D01*
Y12619D02*
Y12550D01*
Y19887D02*
Y13594D01*
Y20935D02*
Y20861D01*
Y27378D02*
Y21846D01*
Y33317D02*
Y28232D01*
X22766Y148D02*
Y5320D01*
Y5999D02*
Y11550D01*
Y13594D02*
Y19887D01*
Y21934D02*
Y27466D01*
Y28144D02*
Y33317D01*
X22854Y5480D02*
Y148D01*
Y11461D02*
Y5839D01*
Y19887D02*
Y13594D01*
Y27626D02*
Y22023D01*
Y33317D02*
Y27984D01*
X22933Y21374D02*
Y21378D01*
X22943Y148D02*
Y11373D01*
Y13594D02*
Y19887D01*
Y22112D02*
Y33317D01*
X23031Y11284D02*
Y148D01*
Y19887D02*
Y13594D01*
Y33317D02*
Y22200D01*
X23120Y148D02*
Y7668D01*
Y9458D02*
Y11195D01*
Y13594D02*
Y19887D01*
Y22289D02*
Y24006D01*
Y25797D02*
Y33317D01*
X23209Y7613D02*
Y148D01*
Y11107D02*
Y9513D01*
Y12619D02*
Y12538D01*
Y19887D02*
Y13594D01*
Y20947D02*
Y20861D01*
Y23952D02*
Y22377D01*
Y33317D02*
Y25852D01*
X23253Y12619D02*
G03X23420Y12786J167D01*
G01Y13426*
G03X23253Y13594I167*
G01X22613*
G03X22446Y13426J168*
G01Y12786*
G03X22613Y12619I167*
G01X23253*
Y19887D02*
G03X23420Y20054J167D01*
G01Y20694*
G03X23253Y20861I167*
G01X22613*
G03X22446Y20694J167*
G01Y20054*
G03X22613Y19887I167*
G01X23253*
X23297Y148D02*
Y7608D01*
Y9518D02*
Y11018D01*
Y12466D02*
Y12625D01*
Y13588D02*
Y19893D01*
Y20855D02*
Y21018D01*
Y22466D02*
Y23947D01*
Y25856D02*
Y33317D01*
X23386Y7608D02*
Y148D01*
Y12684D02*
Y12377D01*
Y19952D02*
Y13528D01*
Y21107D02*
Y20796D01*
Y33317D02*
Y25856D01*
X23474Y148D02*
Y7608D01*
Y12289D02*
Y21195D01*
Y25856D02*
Y33317D01*
X23563Y7608D02*
Y148D01*
Y21284D02*
Y12200D01*
Y33317D02*
Y25856D01*
X23652Y148D02*
Y7608D01*
Y12112D02*
Y21373D01*
Y25856D02*
Y33317D01*
X23740Y7608D02*
Y148D01*
Y21461D02*
Y12023D01*
Y33317D02*
Y25856D01*
X23829Y148D02*
Y7608D01*
Y11934D02*
Y21550D01*
Y25856D02*
Y33317D01*
X23917Y7608D02*
Y148D01*
Y21638D02*
Y11846D01*
Y33317D02*
Y25856D01*
X24006Y148D02*
Y7608D01*
Y11757D02*
Y21727D01*
Y25856D02*
Y33317D01*
X24094Y7608D02*
Y148D01*
Y21816D02*
Y11669D01*
Y33317D02*
Y25856D01*
X24183Y148D02*
Y7608D01*
Y11580D02*
Y21904D01*
Y25856D02*
Y33317D01*
X24272Y7608D02*
Y148D01*
Y22011D02*
Y11474D01*
Y33317D02*
Y25856D01*
X24360Y148D02*
Y7608D01*
Y9518D02*
Y23947D01*
Y25856D02*
Y33317D01*
X24449Y7609D02*
Y148D01*
Y23948D02*
Y9517D01*
Y33317D02*
Y25855D01*
X24537Y148D02*
Y7648D01*
Y9478D02*
Y23987D01*
Y25817D02*
Y33317D01*
X24626Y8001D02*
Y148D01*
Y24339D02*
Y9125D01*
Y33317D02*
Y25464D01*
X24715Y148D02*
Y8001D01*
Y9125D02*
Y24339D01*
Y25464D02*
Y33317D01*
X24803Y8001D02*
Y148D01*
Y24339D02*
Y9125D01*
Y33317D02*
Y25464D01*
X24892Y148D02*
Y8001D01*
Y9125D02*
Y24339D01*
Y25464D02*
Y33317D01*
X24980Y8001D02*
Y148D01*
Y24339D02*
Y9125D01*
Y33317D02*
Y25464D01*
X25069Y148D02*
Y8001D01*
Y9125D02*
Y24339D01*
Y25464D02*
Y33317D01*
X25157Y2758D02*
Y148D01*
Y8001D02*
Y3148D01*
Y20277D02*
Y9125D01*
Y24339D02*
Y20667D01*
Y30317D02*
Y25464D01*
Y33317D02*
Y30707D01*
X25197Y8001D02*
G03X25364Y8168J167D01*
G01Y8958*
G03X25197Y9125I167*
G01X24596*
Y9350*
G03X24429Y9518I167*
G01X24350*
Y11201*
G03X24200Y11563I511*
G01X23295Y12468*
G03X22933Y12618I362J362*
X22421Y12106J512*
X22571Y11744I512*
G01X23327Y10989*
Y9518*
X23248*
G03X23081Y9350J168*
G01Y7776*
G03X23248Y7608I167*
G01X24429*
G03X24596Y7776J168*
G01Y8001*
X25197*
Y24339D02*
G03X25364Y24507J168D01*
G01Y25297*
G03X25197Y25464I167*
G01X24596*
Y25689*
G03X24429Y25856I167*
G01X23248*
G03X23081Y25689J167*
G01Y24114*
G03X23248Y23947I167*
G01X23327*
Y22495*
X22571Y21740*
G03X22421Y21378I362J362*
X22933Y20866I512*
X23295Y21016J512*
G01X24200Y21921*
G03X24350Y22283I361J362*
G01Y23947*
X24429*
G03X24596Y24114J167*
G01Y24339*
X25197*
X25246Y148D02*
Y2332D01*
Y3574D02*
Y8008D01*
Y9118D02*
Y19851D01*
Y21094D02*
Y24347D01*
Y25457D02*
Y29891D01*
Y31133D02*
Y33317D01*
X25335Y2105D02*
Y148D01*
Y8073D02*
Y3800D01*
Y19625D02*
Y9053D01*
Y24411D02*
Y21320D01*
Y29664D02*
Y25392D01*
Y33317D02*
Y31359D01*
X25423Y148D02*
Y1936D01*
Y3970D02*
Y19455D01*
Y21490D02*
Y29495D01*
Y31529D02*
Y33317D01*
X25512Y1797D02*
Y148D01*
Y19317D02*
Y4108D01*
Y29356D02*
Y21628D01*
Y33317D02*
Y31667D01*
X25600Y148D02*
Y1680D01*
Y4226D02*
Y19199D01*
Y21745D02*
Y29239D01*
Y31785D02*
Y33317D01*
X25689Y1578D02*
Y148D01*
Y8032D02*
Y4327D01*
Y19098D02*
Y9094D01*
Y24371D02*
Y21847D01*
Y29137D02*
Y25432D01*
Y33317D02*
Y31887D01*
X25778Y148D02*
Y1489D01*
Y4417D02*
Y8001D01*
Y9125D02*
Y19008D01*
Y21937D02*
Y24340D01*
Y25464D02*
Y29048D01*
Y31976D02*
Y33317D01*
X25866Y1410D02*
Y148D01*
Y8001D02*
Y4496D01*
Y18929D02*
Y9125D01*
Y24339D02*
Y22016D01*
Y28969D02*
Y25464D01*
Y33317D02*
Y32055D01*
X25955Y148D02*
Y1339D01*
Y4566D02*
Y8001D01*
Y9125D02*
Y18859D01*
Y22086D02*
Y24339D01*
Y25464D02*
Y28898D01*
Y32125D02*
Y33317D01*
X26043Y1276D02*
Y148D01*
Y8001D02*
Y4629D01*
Y18796D02*
Y9125D01*
Y24339D02*
Y22149D01*
Y28835D02*
Y25464D01*
Y33317D02*
Y32188D01*
X26132Y148D02*
Y1220D01*
Y4685D02*
Y8001D01*
Y9125D02*
Y18740D01*
Y22205D02*
Y24339D01*
Y25464D02*
Y28779D01*
Y32244D02*
Y33317D01*
X26220Y1170D02*
Y148D01*
Y8001D02*
Y4735D01*
Y18690D02*
Y9125D01*
Y24339D02*
Y22255D01*
Y28729D02*
Y25464D01*
Y33317D02*
Y32294D01*
X26309Y148D02*
Y1126D01*
Y4779D02*
Y8001D01*
Y9125D02*
Y18646D01*
Y22299D02*
Y24339D01*
Y25464D02*
Y28685D01*
Y32338D02*
Y33317D01*
X26398Y1087D02*
Y148D01*
Y7719D02*
Y4818D01*
Y18607D02*
Y9407D01*
Y24058D02*
Y22338D01*
Y28646D02*
Y25746D01*
Y33317D02*
Y32377D01*
X26486Y148D02*
Y1053D01*
Y4852D02*
Y7623D01*
Y9503D02*
Y18573D01*
Y22372D02*
Y23962D01*
Y25841D02*
Y28612D01*
Y32411D02*
Y33317D01*
X26575Y1024D02*
Y148D01*
Y7608D02*
Y4882D01*
Y18543D02*
Y9518D01*
Y23947D02*
Y22401D01*
Y28583D02*
Y25856D01*
Y33317D02*
Y32441D01*
X26663Y148D02*
Y999D01*
Y9518D02*
Y18519D01*
Y22426D02*
Y23947D01*
Y32466D02*
Y33317D01*
X26752Y978D02*
Y148D01*
Y18498D02*
Y9518D01*
Y23947D02*
Y22447D01*
Y33317D02*
Y32486D01*
X26841Y148D02*
Y962D01*
Y9518D02*
Y18481D01*
Y22463D02*
Y23947D01*
Y32503D02*
Y33317D01*
X26929Y949D02*
Y148D01*
Y18469D02*
Y9518D01*
Y23947D02*
Y22476D01*
Y33317D02*
Y32515D01*
X27018Y148D02*
Y941D01*
Y9518D02*
Y18461D01*
Y22484D02*
Y23947D01*
Y32524D02*
Y33317D01*
X27106Y936D02*
Y148D01*
Y18456D02*
Y9518D01*
Y23947D02*
Y22489D01*
Y33317D02*
Y32528D01*
X27195Y148D02*
Y936D01*
Y9518D02*
Y18455D01*
Y22490D02*
Y23947D01*
Y32529D02*
Y33317D01*
X27283Y939D02*
Y148D01*
Y18459D02*
Y9518D01*
Y23947D02*
Y22486D01*
Y33317D02*
Y32526D01*
X27372Y148D02*
Y946D01*
Y9518D02*
Y18466D01*
Y22479D02*
Y23947D01*
Y32519D02*
Y33317D01*
X27461Y957D02*
Y148D01*
Y18477D02*
Y9518D01*
Y23947D02*
Y22468D01*
Y33317D02*
Y32507D01*
X27549Y148D02*
Y972D01*
Y9518D02*
Y18492D01*
Y22453D02*
Y23947D01*
Y32492D02*
Y33317D01*
X27638Y992D02*
Y148D01*
Y18511D02*
Y9518D01*
Y23947D02*
Y22434D01*
Y33317D02*
Y32473D01*
X27726Y148D02*
Y1015D01*
Y4890D02*
Y5344D01*
Y5974D02*
Y7608D01*
Y9518D02*
Y18535D01*
Y22410D02*
Y23947D01*
Y25856D02*
Y27490D01*
Y28120D02*
Y28574D01*
Y32450D02*
Y33317D01*
X27815Y1043D02*
Y148D01*
Y5344D02*
Y4863D01*
Y7628D02*
Y5974D01*
Y18563D02*
Y9498D01*
Y23967D02*
Y22382D01*
Y27490D02*
Y25837D01*
Y28602D02*
Y28120D01*
Y33317D02*
Y32422D01*
X27904Y148D02*
Y1075D01*
Y4830D02*
Y5344D01*
Y5974D02*
Y18595D01*
Y22350D02*
Y27490D01*
Y28120D02*
Y28634D01*
Y32389D02*
Y33317D01*
X27992Y1113D02*
Y148D01*
Y5344D02*
Y4793D01*
Y18632D02*
Y5974D01*
Y27490D02*
Y22313D01*
Y28672D02*
Y28120D01*
Y33317D02*
Y32352D01*
X28081Y148D02*
Y1155D01*
Y4750D02*
Y5344D01*
Y5974D02*
Y18675D01*
Y22270D02*
Y27490D01*
Y28120D02*
Y28714D01*
Y32310D02*
Y33317D01*
X28169Y1203D02*
Y148D01*
Y5344D02*
Y4703D01*
Y18723D02*
Y5974D01*
Y27490D02*
Y22222D01*
Y28762D02*
Y28120D01*
Y33317D02*
Y32262D01*
X28258Y148D02*
Y1257D01*
Y4649D02*
Y5344D01*
Y5974D02*
Y18777D01*
Y22168D02*
Y27490D01*
Y28120D02*
Y28816D01*
Y32208D02*
Y33317D01*
X28346Y1317D02*
Y148D01*
Y5344D02*
Y4588D01*
Y18837D02*
Y5974D01*
Y27490D02*
Y22108D01*
Y28876D02*
Y28120D01*
Y33317D02*
Y32147D01*
X28435Y148D02*
Y1385D01*
Y4520D02*
Y5344D01*
Y5974D02*
Y18905D01*
Y22040D02*
Y27490D01*
Y28120D02*
Y28944D01*
Y32079D02*
Y33317D01*
X28524Y1461D02*
Y148D01*
Y5344D02*
Y4444D01*
Y18981D02*
Y5974D01*
Y27490D02*
Y21964D01*
Y29020D02*
Y28120D01*
Y33317D02*
Y32003D01*
X28612Y148D02*
Y1547D01*
Y4359D02*
Y5344D01*
Y5974D02*
Y19067D01*
Y21878D02*
Y27490D01*
Y28120D02*
Y29106D01*
Y31918D02*
Y33317D01*
X28701Y1644D02*
Y148D01*
Y5344D02*
Y4261D01*
Y19164D02*
Y5974D01*
Y27490D02*
Y21781D01*
Y29203D02*
Y28120D01*
Y33317D02*
Y31820D01*
X28789Y148D02*
Y1756D01*
Y4149D02*
Y5344D01*
Y5974D02*
Y19276D01*
Y21669D02*
Y27490D01*
Y28120D02*
Y29315D01*
Y31709D02*
Y33317D01*
X28878Y1887D02*
Y148D01*
Y5344D02*
Y4019D01*
Y19406D02*
Y5974D01*
Y27490D02*
Y21539D01*
Y29446D02*
Y28120D01*
Y33317D02*
Y31578D01*
X28967Y148D02*
Y2044D01*
Y3861D02*
Y5344D01*
Y5974D02*
Y19564D01*
Y21381D02*
Y27490D01*
Y28120D02*
Y29603D01*
Y31420D02*
Y33317D01*
X29055Y2247D02*
Y148D01*
Y5344D02*
Y3659D01*
Y19766D02*
Y5974D01*
Y27490D02*
Y21178D01*
Y29806D02*
Y28120D01*
Y33317D02*
Y31218D01*
X29144Y148D02*
Y2558D01*
Y3347D02*
Y5344D01*
Y5974D02*
Y20078D01*
Y20867D02*
Y27490D01*
Y28120D02*
Y30117D01*
Y30906D02*
Y33317D01*
X29183Y20472D02*
G03X27165Y22490I2018D01*
X25148Y20472J2018*
X27165Y18455I2017*
X29183Y20472J2017*
G01X29232Y5344D02*
Y148D01*
Y27490D02*
Y5974D01*
Y33317D02*
Y28120D01*
X29283Y27490D02*
G03X29724Y27263I441J315D01*
X30267Y27805J542*
X29724Y28347I543*
X29283Y28120J542*
G01X27688*
Y28200*
G03X27677Y28260I167*
G01Y28560*
G03X29183Y30512I512J1952*
X27165Y32529I2018*
X25148Y30512J2017*
X26654Y28560I2017*
G01Y28257*
G03X26643Y28200I157J57*
G01Y27410*
G03X26654Y27352I168*
G01Y25856*
X26555*
G03X26388Y25689J167*
G01Y25464*
X25787*
G03X25620Y25297J167*
G01Y24507*
G03X25787Y24339I167*
G01X26388*
Y24114*
G03X26555Y23947I167*
G01X27736*
G03X27904Y24114J167*
G01Y25689*
G03X27736Y25856I168*
G01X27678*
Y27352*
G03X27688Y27410I157J58*
G01Y27490*
X29283*
X29321Y148D02*
Y5344D01*
Y5974D02*
Y27443D01*
Y28167D02*
Y33317D01*
X29381Y5344D02*
G03X29823Y5117I442J315D01*
X30365Y5659J542*
X29823Y6202I542*
X29381Y5974J543*
G01X27688*
Y6054*
G03X27678Y6113I167*
G01Y7608*
X27736*
G03X27904Y7776J168*
G01Y9350*
G03X27736Y9518I168*
G01X26555*
G03X26388Y9350J168*
G01Y9125*
X25787*
G03X25620Y8958J167*
G01Y8168*
G03X25787Y8001I167*
G01X26388*
Y7776*
G03X26555Y7608I167*
G01X26654*
Y6113*
G03X26643Y6054I157J59*
G01Y5264*
G03X26654Y5207I168*
G01Y4904*
G03X25148Y2953I511J1951*
X27165Y935I2017*
X29183Y2953J2018*
X27677Y4904I2018*
G01Y5205*
G03X27688Y5264I156J59*
G01Y5344*
X29381*
X29409Y5308D02*
Y148D01*
Y27364D02*
Y6010D01*
Y33317D02*
Y28247D01*
X29498Y148D02*
Y5225D01*
Y6094D02*
Y27312D01*
Y28298D02*
Y33317D01*
X29587Y5171D02*
Y148D01*
Y27281D02*
Y6148D01*
Y33317D02*
Y28330D01*
X29675Y148D02*
Y5138D01*
Y6181D02*
Y27265D01*
Y28345D02*
Y33317D01*
X29764Y5120D02*
Y148D01*
Y27264D02*
Y6199D01*
Y33317D02*
Y28346D01*
X29852Y148D02*
Y5118D01*
Y6201D02*
Y27278D01*
Y28332D02*
Y33317D01*
X29941Y5130D02*
Y148D01*
Y27308D02*
Y6189D01*
Y33317D02*
Y28302D01*
X30030Y148D02*
Y5158D01*
Y6161D02*
Y27357D01*
Y28253D02*
Y33317D01*
X30118Y5205D02*
Y148D01*
Y27432D02*
Y6114D01*
Y33317D02*
Y28178D01*
X30207Y148D02*
Y5276D01*
Y6043D02*
Y27557D01*
Y28053D02*
Y33317D01*
X30295Y5393D02*
Y148D01*
Y33317D02*
Y5926D01*
X30384Y148D02*
Y33317D01*
X30472D02*
Y148D01*
X30561D02*
Y33317D01*
X30650D02*
Y148D01*
X30738D02*
Y33317D01*
X30827D02*
Y148D01*
X30915D02*
Y33317D01*
X31004D02*
Y148D01*
X31093D02*
Y33317D01*
X31181D02*
Y148D01*
X31270D02*
Y33317D01*
G54D12*
X5187Y-1073D02*
X5076Y-775D01*
X4967Y-1073*
X5187*
X5487Y-1392D02*
X5309D01*
X5239Y-1209*
X4917*
X4850Y-1392*
X4678*
X4991Y-587*
X5165*
X5487Y-1392*
X5572Y-587D02*
X5735D01*
Y-1023*
Y-1047*
Y-1070*
Y-1090*
X5736Y-1108*
X5737Y-1124*
X5738Y-1137*
X5739Y-1148*
X5741Y-1157*
X5744Y-1169*
X5748Y-1180*
X5753Y-1191*
X5758Y-1202*
X5765Y-1211*
X5772Y-1220*
X5781Y-1228*
X5791Y-1236*
X5801Y-1243*
X5812Y-1250*
X5824Y-1254*
X5836Y-1259*
X5850Y-1262*
X5865Y-1265*
X5880*
X5897Y-1266*
X5914Y-1265*
X5930*
X5944Y-1262*
X5957Y-1259*
X5970Y-1255*
X5982Y-1250*
X5992Y-1245*
X6001Y-1238*
X6009Y-1231*
X6017Y-1223*
X6024Y-1215*
X6029Y-1206*
X6034Y-1198*
X6038Y-1188*
X6041Y-1179*
X6043Y-1169*
X6045Y-1157*
X6046Y-1145*
X6048Y-1130*
X6049Y-1114*
X6050Y-1096*
Y-1076*
Y-1055*
Y-1031*
Y-587*
X6213*
Y-1009*
Y-1045*
Y-1077*
X6212Y-1106*
X6210Y-1133*
X6208Y-1157*
X6206Y-1180*
X6203Y-1198*
X6200Y-1214*
X6192Y-1243*
X6182Y-1269*
X6168Y-1294*
X6152Y-1316*
X6132Y-1335*
X6110Y-1353*
X6085Y-1368*
X6057Y-1381*
X6042Y-1387*
X6025Y-1392*
X6007Y-1396*
X5989Y-1399*
X5969Y-1402*
X5948Y-1404*
X5925Y-1406*
X5902*
X5874*
X5848Y-1404*
X5824Y-1402*
X5801Y-1399*
X5780Y-1395*
X5761Y-1391*
X5743Y-1385*
X5728Y-1379*
X5699Y-1365*
X5674Y-1348*
X5652Y-1330*
X5633Y-1309*
X5617Y-1288*
X5605Y-1266*
X5594Y-1243*
X5587Y-1220*
X5583Y-1202*
X5580Y-1182*
X5578Y-1159*
X5576Y-1135*
X5574Y-1108*
X5572Y-1080*
Y-1049*
Y-1017*
Y-587*
X6384D02*
X6682D01*
X6706*
X6729*
X6750Y-589*
X6770Y-591*
X6789Y-593*
X6806Y-595*
X6821Y-598*
X6835Y-602*
X6853Y-608*
X6869Y-614*
X6885Y-622*
X6901Y-631*
X6916Y-641*
X6930Y-652*
X6943Y-664*
X6957Y-676*
X6980Y-705*
X7001Y-735*
X7019Y-769*
X7034Y-807*
X7039Y-827*
X7045Y-847*
X7050Y-870*
X7054Y-893*
X7056Y-917*
X7058Y-943*
X7060Y-969*
Y-997*
Y-1021*
X7058Y-1045*
X7057Y-1068*
X7054Y-1090*
X7050Y-1111*
X7046Y-1131*
X7041Y-1150*
X7035Y-1169*
X7027Y-1190*
X7018Y-1210*
X7009Y-1230*
X6998Y-1248*
X6987Y-1265*
X6976Y-1282*
X6962Y-1297*
X6949Y-1311*
X6938Y-1321*
X6926Y-1331*
X6913Y-1339*
X6899Y-1347*
X6884Y-1355*
X6869Y-1362*
X6852Y-1369*
X6835Y-1375*
X6820Y-1379*
X6806Y-1383*
X6789Y-1386*
X6772Y-1388*
X6753Y-1390*
X6733Y-1391*
X6713Y-1392*
X6691*
X6384*
Y-587*
X6547Y-723D02*
Y-1256D01*
X6669*
X6685*
X6701Y-1255*
X6715*
X6728Y-1254*
X6739Y-1253*
X6750Y-1252*
X6759Y-1250*
X6767Y-1248*
X6787Y-1243*
X6803Y-1235*
X6819Y-1226*
X6833Y-1215*
X6839Y-1209*
X6846Y-1201*
X6851Y-1193*
X6857Y-1183*
X6862Y-1173*
X6867Y-1162*
X6872Y-1150*
X6876Y-1137*
X6880Y-1123*
X6883Y-1108*
X6886Y-1091*
X6888Y-1073*
X6890Y-1054*
X6891Y-1034*
X6892Y-1013*
Y-990*
Y-967*
X6891Y-946*
X6890Y-926*
X6888Y-907*
X6886Y-890*
X6883Y-874*
X6880Y-860*
X6876Y-846*
X6867Y-823*
X6856Y-802*
X6843Y-784*
X6829Y-769*
X6813Y-756*
X6796Y-745*
X6776Y-737*
X6754Y-731*
X6745Y-729*
X6733Y-728*
X6719Y-726*
X6704Y-725*
X6686Y-724*
X6666*
X6644Y-723*
X6620*
X6547*
X7193Y-1392D02*
Y-587D01*
X7356*
Y-1392*
X7193*
X7477Y-994D02*
X7478Y-965D01*
X7480Y-935*
X7483Y-908*
X7487Y-881*
X7491Y-856*
X7498Y-832*
X7506Y-809*
X7514Y-788*
X7529Y-758*
X7546Y-730*
X7567Y-703*
X7589Y-678*
X7601Y-666*
X7613Y-655*
X7626Y-645*
X7639Y-635*
X7665Y-619*
X7693Y-605*
X7713Y-598*
X7732Y-591*
X7753Y-586*
X7774Y-581*
X7796Y-578*
X7819Y-576*
X7843Y-574*
X7867Y-573*
X7889Y-574*
X7910Y-575*
X7931Y-577*
X7952Y-580*
X7972Y-584*
X7991Y-589*
X8009Y-594*
X8028Y-601*
X8045Y-608*
X8062Y-617*
X8078Y-625*
X8094Y-635*
X8109Y-646*
X8124Y-657*
X8139Y-670*
X8152Y-683*
X8165Y-698*
X8177Y-713*
X8188Y-728*
X8199Y-744*
X8209Y-761*
X8217Y-779*
X8225Y-797*
X8232Y-816*
X8239Y-835*
X8244Y-855*
X8249Y-876*
X8253Y-898*
X8255Y-920*
X8257Y-943*
X8259Y-966*
Y-991*
Y-1014*
X8257Y-1038*
X8255Y-1061*
X8253Y-1083*
X8249Y-1104*
X8244Y-1124*
X8239Y-1145*
X8232Y-1165*
X8225Y-1183*
X8217Y-1201*
X8209Y-1218*
X8199Y-1235*
X8189Y-1251*
X8178Y-1267*
X8166Y-1281*
X8153Y-1295*
X8139Y-1309*
X8125Y-1321*
X8111Y-1333*
X8095Y-1343*
X8080Y-1354*
X8063Y-1362*
X8046Y-1371*
X8029Y-1378*
X8011Y-1384*
X7992Y-1390*
X7973Y-1394*
X7954Y-1398*
X7933Y-1402*
X7913Y-1404*
X7891Y-1405*
X7869Y-1406*
X7847Y-1405*
X7825Y-1404*
X7805Y-1402*
X7784Y-1398*
X7764Y-1394*
X7745Y-1390*
X7726Y-1384*
X7708Y-1378*
X7691Y-1371*
X7673Y-1363*
X7657Y-1354*
X7641Y-1344*
X7626Y-1333*
X7611Y-1322*
X7597Y-1309*
X7583Y-1296*
X7570Y-1282*
X7558Y-1268*
X7547Y-1252*
X7537Y-1236*
X7528Y-1220*
X7519Y-1202*
X7511Y-1184*
X7504Y-1166*
X7498Y-1146*
X7492Y-1127*
X7487Y-1106*
X7483Y-1085*
X7481Y-1064*
X7479Y-1041*
X7478Y-1018*
X7477Y-994*
X7645Y-989D02*
X7646Y-1022D01*
X7649Y-1053*
X7654Y-1082*
X7661Y-1109*
X7669Y-1134*
X7680Y-1157*
X7694Y-1177*
X7708Y-1196*
X7724Y-1213*
X7742Y-1227*
X7761Y-1239*
X7780Y-1249*
X7801Y-1257*
X7822Y-1261*
X7845Y-1265*
X7869Y-1266*
X7893Y-1265*
X7916Y-1262*
X7937Y-1257*
X7957Y-1249*
X7977Y-1239*
X7995Y-1227*
X8013Y-1213*
X8029Y-1196*
X8043Y-1178*
X8056Y-1157*
X8067Y-1134*
X8076Y-1109*
X8083Y-1082*
X8087Y-1052*
X8091Y-1020*
Y-987*
Y-954*
X8087Y-922*
X8083Y-893*
X8076Y-866*
X8068Y-842*
X8057Y-819*
X8045Y-798*
X8031Y-780*
X8015Y-765*
X7998Y-751*
X7980Y-739*
X7960Y-730*
X7939Y-722*
X7917Y-717*
X7894Y-713*
X7869*
X7844*
X7821Y-717*
X7799Y-722*
X7778Y-730*
X7758Y-739*
X7740Y-751*
X7723Y-765*
X7706Y-781*
X7692Y-800*
X7680Y-820*
X7669Y-843*
X7661Y-868*
X7654Y-894*
X7649Y-924*
X7646Y-955*
X7645Y-989*
X9126Y-1073D02*
X9015Y-775D01*
X8906Y-1073*
X9126*
X9425Y-1392D02*
X9248D01*
X9178Y-1209*
X8856*
X8789Y-1392*
X8617*
X8930Y-587*
X9103*
X9425Y-1392*
X9512D02*
Y-587D01*
X9669*
X10002Y-1128*
Y-587*
X10152*
Y-1392*
X9990*
X9662Y-862*
Y-1392*
X9512*
X9770Y34044D02*
Y35048D01*
X9411*
Y35252*
X10372*
Y35048*
X10014*
Y34044*
X9770*
X10323Y-587D02*
X10620D01*
X10645*
X10668*
X10689Y-589*
X10709Y-591*
X10728Y-593*
X10744Y-595*
X10760Y-598*
X10773Y-602*
X10791Y-608*
X10808Y-614*
X10824Y-622*
X10839Y-631*
X10854Y-641*
X10869Y-652*
X10882Y-664*
X10895Y-676*
X10919Y-705*
X10939Y-735*
X10957Y-769*
X10972Y-807*
X10978Y-827*
X10983Y-847*
X10988Y-870*
X10992Y-893*
X10994Y-917*
X10997Y-943*
X10998Y-969*
Y-997*
Y-1021*
X10997Y-1045*
X10995Y-1068*
X10992Y-1090*
X10989Y-1111*
X10984Y-1131*
X10980Y-1150*
X10974Y-1169*
X10965Y-1190*
X10957Y-1210*
X10947Y-1230*
X10937Y-1248*
X10926Y-1265*
X10914Y-1282*
X10901Y-1297*
X10887Y-1311*
X10876Y-1321*
X10865Y-1331*
X10851Y-1339*
X10838Y-1347*
X10823Y-1355*
X10807Y-1362*
X10791Y-1369*
X10773Y-1375*
X10759Y-1379*
X10744Y-1383*
X10728Y-1386*
X10710Y-1388*
X10691Y-1390*
X10672Y-1391*
X10651Y-1392*
X10629*
X10323*
Y-587*
X10486Y-723D02*
Y-1256D01*
X10607*
X10624*
X10639Y-1255*
X10654*
X10666Y-1254*
X10678Y-1253*
X10688Y-1252*
X10698Y-1250*
X10706Y-1248*
X10725Y-1243*
X10742Y-1235*
X10757Y-1226*
X10772Y-1215*
X10778Y-1209*
X10784Y-1201*
X10790Y-1193*
X10795Y-1183*
X10801Y-1173*
X10806Y-1162*
X10810Y-1150*
X10814Y-1137*
X10818Y-1123*
X10821Y-1108*
X10824Y-1091*
X10827Y-1073*
X10828Y-1054*
X10830Y-1034*
X10831Y-1013*
Y-990*
Y-967*
X10830Y-946*
X10828Y-926*
X10827Y-907*
X10824Y-890*
X10821Y-874*
X10818Y-860*
X10814Y-846*
X10806Y-823*
X10794Y-802*
X10782Y-784*
X10768Y-769*
X10752Y-756*
X10735Y-745*
X10714Y-737*
X10693Y-731*
X10683Y-729*
X10672Y-728*
X10657Y-726*
X10643Y-725*
X10624Y-724*
X10605*
X10583Y-723*
X10559*
X10486*
X10528Y34044D02*
Y35252D01*
X10919*
X10946*
X10972*
X10997Y35251*
X11020*
X11043Y35250*
X11063*
X11083Y35248*
X11102Y35247*
X11120Y35246*
X11136Y35245*
X11150Y35244*
X11165Y35241*
X11178Y35240*
X11189Y35238*
X11199Y35235*
X11208Y35234*
X11233Y35226*
X11258Y35217*
X11281Y35205*
X11304Y35191*
X11324Y35175*
X11344Y35157*
X11364Y35137*
X11382Y35115*
X11398Y35091*
X11413Y35067*
X11424Y35039*
X11434Y35011*
X11442Y34981*
X11447Y34950*
X11450Y34915*
X11452Y34880*
Y34853*
X11449Y34827*
X11446Y34802*
X11442Y34778*
X11436Y34755*
X11429Y34733*
X11421Y34712*
X11411Y34693*
X11390Y34657*
X11365Y34626*
X11338Y34598*
X11309Y34574*
X11278Y34554*
X11246Y34539*
X11215Y34526*
X11183Y34517*
X11160Y34513*
X11135Y34509*
X11107Y34507*
X11076Y34504*
X11044Y34502*
X11009Y34501*
X10971Y34500*
X10931*
X10772*
Y34044*
X10528*
X10772Y35048D02*
Y34704D01*
X10905*
X10939*
X10971Y34705*
X10999Y34706*
X11025Y34709*
X11048Y34711*
X11067Y34715*
X11083Y34718*
X11097Y34723*
X11120Y34733*
X11140Y34748*
X11157Y34763*
X11173Y34782*
X11185Y34803*
X11193Y34826*
X11199Y34850*
X11200Y34876*
Y34893*
X11198Y34908*
X11194Y34922*
X11191Y34937*
X11185Y34950*
X11179Y34963*
X11170Y34974*
X11161Y34985*
X11141Y35005*
X11119Y35020*
X11093Y35032*
X11064Y35039*
X11052Y35042*
X11037Y35043*
X11019Y35044*
X10999Y35045*
X10976Y35046*
X10950*
X10921Y35048*
X10889*
X10772*
X11444Y-1392D02*
Y-587D01*
X11607*
Y-1392*
X11444*
X11760D02*
Y-587D01*
X12004*
X12149Y-1136*
X12292Y-587*
X12536*
Y-1392*
X12386*
Y-758*
X12226Y-1392*
X12069*
X11911Y-758*
X11910Y-1392*
X11760*
X12294Y34522D02*
X12127Y34970D01*
X11963Y34522*
X12294*
X12743Y34044D02*
X12477D01*
X12372Y34318*
X11889*
X11788Y34044*
X11530*
X12000Y35252*
X12259*
X12743Y34044*
X12812Y34365D02*
X13037Y34392D01*
X13040Y34371*
X13044Y34352*
X13050Y34333*
X13057Y34317*
X13064Y34301*
X13073Y34286*
X13083Y34273*
X13094Y34261*
X13106Y34250*
X13119Y34241*
X13132Y34234*
X13146Y34227*
X13161Y34222*
X13176Y34219*
X13191Y34217*
X13208Y34216*
X13226Y34217*
X13242Y34220*
X13259Y34223*
X13274Y34229*
X13289Y34237*
X13304Y34247*
X13317Y34257*
X13330Y34270*
X13340Y34285*
X13351Y34300*
X13359Y34317*
X13366Y34334*
X13371Y34353*
X13374Y34373*
X13377Y34394*
X13378Y34417*
X13377Y34438*
X13376Y34458*
X13371Y34477*
X13366Y34495*
X13360Y34511*
X13352Y34527*
X13343Y34541*
X13331Y34555*
X13319Y34567*
X13306Y34578*
X13293Y34586*
X13279Y34593*
X13265Y34599*
X13249Y34602*
X13234Y34605*
X13217Y34606*
X13194Y34605*
X13169Y34601*
X13141Y34596*
X13111Y34588*
X13137Y34777*
X13159*
X13181Y34778*
X13201Y34782*
X13220Y34785*
X13236Y34791*
X13253Y34800*
X13267Y34808*
X13280Y34817*
X13292Y34829*
X13301Y34841*
X13311Y34854*
X13318Y34868*
X13322Y34883*
X13326Y34899*
X13328Y34915*
X13330Y34933*
X13327Y34961*
X13320Y34987*
X13309Y35011*
X13293Y35030*
X13274Y35046*
X13250Y35057*
X13226Y35064*
X13196Y35067*
X13182Y35065*
X13168Y35064*
X13155Y35061*
X13142Y35056*
X13129Y35050*
X13117Y35043*
X13106Y35035*
X13094Y35025*
X13076Y35002*
X13061Y34974*
X13051Y34941*
X13044Y34905*
X12830Y34941*
X12836Y34967*
X12843Y34993*
X12850Y35017*
X12858Y35039*
X12867Y35061*
X12876Y35081*
X12887Y35100*
X12897Y35116*
X12922Y35147*
X12952Y35174*
X12985Y35199*
X13022Y35219*
X13064Y35235*
X13107Y35247*
X13155Y35254*
X13203Y35257*
X13244Y35256*
X13285Y35250*
X13321Y35241*
X13357Y35230*
X13390Y35214*
X13422Y35195*
X13450Y35173*
X13477Y35148*
X13497Y35126*
X13515Y35102*
X13529Y35078*
X13541Y35054*
X13550Y35028*
X13557Y35002*
X13561Y34974*
X13562Y34947*
X13561Y34927*
X13560Y34908*
X13556Y34889*
X13552Y34872*
X13546Y34854*
X13537Y34836*
X13529Y34820*
X13519Y34804*
X13507Y34788*
X13494Y34774*
X13480Y34758*
X13464Y34744*
X13448Y34731*
X13429Y34718*
X13409Y34705*
X13389Y34693*
X13413Y34686*
X13437Y34678*
X13459Y34669*
X13481Y34657*
X13501Y34644*
X13520Y34628*
X13537Y34612*
X13554Y34593*
X13568Y34574*
X13581Y34553*
X13592Y34530*
X13600Y34508*
X13607Y34484*
X13612Y34459*
X13614Y34433*
X13615Y34406*
X13613Y34367*
X13608Y34330*
X13599Y34294*
X13586Y34259*
X13570Y34226*
X13550Y34195*
X13527Y34164*
X13500Y34136*
X13469Y34109*
X13437Y34086*
X13404Y34067*
X13369Y34052*
X13332Y34039*
X13293Y34031*
X13252Y34025*
X13210Y34024*
X13170Y34025*
X13131Y34030*
X13094Y34037*
X13059Y34047*
X13026Y34060*
X12995Y34077*
X12966Y34096*
X12937Y34118*
X12911Y34143*
X12889Y34169*
X12869Y34197*
X12852Y34227*
X12838Y34259*
X12826Y34292*
X12818Y34327*
X12812Y34365*
X13126Y-1073D02*
X13015Y-775D01*
X12906Y-1073*
X13126*
X13425Y-1392D02*
X13248D01*
X13178Y-1209*
X12856*
X12789Y-1392*
X12617*
X12930Y-587*
X13103*
X13425Y-1392*
X13886Y-1097D02*
Y-961D01*
X14236*
Y-1280*
X14223Y-1293*
X14208Y-1305*
X14191Y-1316*
X14174Y-1328*
X14154Y-1338*
X14134Y-1348*
X14112Y-1358*
X14088Y-1368*
X14064Y-1376*
X14039Y-1384*
X14015Y-1391*
X13991Y-1396*
X13966Y-1400*
X13941Y-1403*
X13917Y-1405*
X13891Y-1406*
X13861Y-1405*
X13831Y-1402*
X13802Y-1398*
X13773Y-1392*
X13746Y-1385*
X13720Y-1376*
X13695Y-1365*
X13671Y-1353*
X13649Y-1339*
X13628Y-1324*
X13607Y-1306*
X13589Y-1288*
X13572Y-1269*
X13557Y-1247*
X13543Y-1225*
X13530Y-1201*
X13519Y-1176*
X13509Y-1150*
X13502Y-1124*
X13494Y-1098*
X13489Y-1071*
X13486Y-1043*
X13483Y-1016*
Y-987*
Y-956*
X13486Y-926*
X13490Y-896*
X13496Y-868*
X13503Y-840*
X13513Y-814*
X13523Y-788*
X13535Y-763*
X13550Y-739*
X13565Y-717*
X13582Y-696*
X13601Y-677*
X13620Y-659*
X13643Y-643*
X13665Y-627*
X13690Y-613*
X13710Y-604*
X13731Y-596*
X13754Y-589*
X13777Y-583*
X13802Y-579*
X13828Y-576*
X13854Y-574*
X13883Y-573*
X13920Y-574*
X13954Y-577*
X13987Y-582*
X14017Y-589*
X14045Y-598*
X14071Y-609*
X14095Y-622*
X14117Y-636*
X14138Y-653*
X14156Y-671*
X14172Y-691*
X14187Y-712*
X14199Y-735*
X14210Y-758*
X14219Y-784*
X14226Y-811*
X14065Y-841*
X14060Y-827*
X14054Y-813*
X14047Y-800*
X14040Y-788*
X14031Y-776*
X14022Y-766*
X14012Y-756*
X14001Y-747*
X13988Y-739*
X13976Y-732*
X13962Y-726*
X13947Y-721*
X13932Y-717*
X13917Y-715*
X13900Y-713*
X13883*
X13857*
X13832Y-717*
X13809Y-722*
X13787Y-730*
X13767Y-739*
X13747Y-750*
X13730Y-765*
X13713Y-780*
X13698Y-798*
X13686Y-818*
X13675Y-840*
X13666Y-864*
X13659Y-890*
X13654Y-918*
X13651Y-948*
X13650Y-980*
X13651Y-1015*
X13654Y-1047*
X13659Y-1077*
X13666Y-1106*
X13676Y-1131*
X13687Y-1154*
X13699Y-1176*
X13714Y-1194*
X13731Y-1212*
X13749Y-1226*
X13768Y-1239*
X13787Y-1248*
X13809Y-1256*
X13832Y-1261*
X13856Y-1265*
X13881Y-1266*
X13906Y-1265*
X13932Y-1261*
X13957Y-1255*
X13983Y-1246*
X14009Y-1236*
X14031Y-1224*
X14053Y-1212*
X14072Y-1198*
Y-1097*
X13886*
X14351Y34044D02*
X14120D01*
Y34917*
X14088Y34887*
X14054Y34861*
X14018Y34836*
X13981Y34813*
X13944Y34791*
X13904Y34772*
X13863Y34756*
X13821Y34741*
Y34951*
X13843Y34959*
X13867Y34969*
X13891Y34980*
X13915Y34993*
X13940Y35009*
X13966Y35025*
X13991Y35043*
X14018Y35063*
X14043Y35084*
X14067Y35107*
X14088Y35129*
X14108Y35153*
X14124Y35178*
X14140Y35204*
X14153Y35230*
X14163Y35257*
X14351*
Y34044*
X14382Y-1392D02*
Y-587D01*
X14545*
Y-1392*
X14382*
X14700D02*
Y-587D01*
X14857*
X15190Y-1128*
Y-587*
X15340*
Y-1392*
X15178*
X14850Y-862*
Y-1392*
X14700*
X15290Y34044D02*
X15059D01*
Y34917*
X15027Y34887*
X14993Y34861*
X14957Y34836*
X14920Y34813*
X14883Y34791*
X14843Y34772*
X14802Y34756*
X14760Y34741*
Y34951*
X14782Y34959*
X14806Y34969*
X14830Y34980*
X14854Y34993*
X14879Y35009*
X14905Y35025*
X14930Y35043*
X14957Y35063*
X14982Y35084*
X15006Y35107*
X15027Y35129*
X15047Y35153*
X15063Y35178*
X15079Y35204*
X15092Y35230*
X15102Y35257*
X15290*
Y34044*
X15887Y-1097D02*
Y-961D01*
X16237*
Y-1280*
X16224Y-1293*
X16209Y-1305*
X16192Y-1316*
X16175Y-1328*
X16155Y-1338*
X16135Y-1348*
X16113Y-1358*
X16089Y-1368*
X16065Y-1376*
X16040Y-1384*
X16016Y-1391*
X15991Y-1396*
X15967Y-1400*
X15942Y-1403*
X15917Y-1405*
X15892Y-1406*
X15861Y-1405*
X15831Y-1402*
X15802Y-1398*
X15774Y-1392*
X15747Y-1385*
X15721Y-1376*
X15696Y-1365*
X15672Y-1353*
X15650Y-1339*
X15628Y-1324*
X15608Y-1306*
X15590Y-1288*
X15572Y-1269*
X15557Y-1247*
X15543Y-1225*
X15531Y-1201*
X15520Y-1176*
X15510Y-1150*
X15502Y-1124*
X15495Y-1098*
X15490Y-1071*
X15487Y-1043*
X15484Y-1016*
X15483Y-987*
X15484Y-956*
X15487Y-926*
X15491Y-896*
X15497Y-868*
X15504Y-840*
X15513Y-814*
X15524Y-788*
X15536Y-763*
X15550Y-739*
X15565Y-717*
X15583Y-696*
X15602Y-677*
X15621Y-659*
X15643Y-643*
X15666Y-627*
X15691Y-613*
X15711Y-604*
X15731Y-596*
X15754Y-589*
X15778Y-583*
X15802Y-579*
X15828Y-576*
X15855Y-574*
X15883Y-573*
X15920Y-574*
X15954Y-577*
X15987Y-582*
X16017Y-589*
X16046Y-598*
X16072Y-609*
X16096Y-622*
X16118Y-636*
X16139Y-653*
X16157Y-671*
X16173Y-691*
X16187Y-712*
X16200Y-735*
X16211Y-758*
X16220Y-784*
X16227Y-811*
X16065Y-841*
X16061Y-827*
X16055Y-813*
X16048Y-800*
X16041Y-788*
X16032Y-776*
X16023Y-766*
X16013Y-756*
X16002Y-747*
X15989Y-739*
X15976Y-732*
X15963Y-726*
X15948Y-721*
X15933Y-717*
X15917Y-715*
X15901Y-713*
X15883*
X15857*
X15833Y-717*
X15810Y-722*
X15788Y-730*
X15768Y-739*
X15748Y-750*
X15731Y-765*
X15714Y-780*
X15699Y-798*
X15687Y-818*
X15676Y-840*
X15667Y-864*
X15660Y-890*
X15655Y-918*
X15652Y-948*
X15651Y-980*
X15652Y-1015*
X15655Y-1047*
X15660Y-1077*
X15667Y-1106*
X15676Y-1131*
X15687Y-1154*
X15700Y-1176*
X15715Y-1194*
X15731Y-1212*
X15750Y-1226*
X15769Y-1239*
X15788Y-1248*
X15810Y-1256*
X15833Y-1261*
X15857Y-1265*
X15882Y-1266*
X15907Y-1265*
X15933Y-1261*
X15958Y-1255*
X15984Y-1246*
X16009Y-1236*
X16032Y-1224*
X16054Y-1212*
X16072Y-1198*
Y-1097*
X15887*
X16030Y35064D02*
X16008Y35063D01*
X15989Y35057*
X15970Y35049*
X15954Y35037*
X15946Y35030*
X15939Y35022*
X15931Y35011*
X15924Y35000*
X15919Y34987*
X15913Y34973*
X15907Y34958*
X15902Y34941*
X15897Y34918*
X15891Y34889*
X15888Y34857*
X15884Y34821*
X15882Y34782*
X15880Y34738*
X15878Y34691*
Y34640*
Y34588*
X15880Y34542*
X15882Y34500*
X15884Y34461*
X15887Y34426*
X15890Y34396*
X15895Y34370*
X15900Y34348*
X15906Y34330*
X15911Y34312*
X15917Y34296*
X15924Y34282*
X15931Y34269*
X15939Y34259*
X15946Y34249*
X15954Y34242*
X15970Y34230*
X15989Y34222*
X16008Y34217*
X16030Y34216*
X16050Y34217*
X16069Y34223*
X16087Y34231*
X16104Y34243*
X16112Y34250*
X16120Y34259*
X16128Y34269*
X16133Y34280*
X16139Y34293*
X16145Y34307*
X16151Y34322*
X16156Y34339*
X16161Y34363*
X16167Y34391*
X16170Y34423*
X16174Y34458*
X16176Y34497*
X16178Y34541*
X16180Y34588*
Y34640*
Y34691*
X16178Y34737*
X16176Y34780*
X16174Y34819*
X16171Y34853*
X16168Y34883*
X16163Y34909*
X16158Y34931*
X16152Y34950*
X16146Y34967*
X16141Y34984*
X16133Y34997*
X16126Y35010*
X16119Y35020*
X16112Y35030*
X16104Y35037*
X16087Y35049*
X16069Y35057*
X16050Y35063*
X16030Y35064*
Y35257D02*
X16072Y35254D01*
X16112Y35248*
X16150Y35239*
X16185Y35225*
X16219Y35208*
X16249Y35186*
X16278Y35161*
X16304Y35131*
X16318Y35113*
X16332Y35091*
X16344Y35069*
X16356Y35045*
X16366Y35019*
X16376Y34993*
X16384Y34964*
X16392Y34934*
X16399Y34902*
X16405Y34869*
X16410Y34835*
X16415Y34800*
X16418Y34762*
X16419Y34723*
X16422Y34681*
Y34640*
Y34598*
X16419Y34557*
X16417Y34517*
X16415Y34481*
X16410Y34444*
X16405Y34410*
X16399Y34377*
X16392Y34345*
X16384Y34315*
X16376Y34287*
X16365Y34260*
X16354Y34234*
X16344Y34210*
X16331Y34188*
X16318Y34167*
X16302Y34148*
X16278Y34118*
X16249Y34093*
X16219Y34072*
X16185Y34054*
X16150Y34041*
X16112Y34031*
X16072Y34026*
X16030Y34024*
X15986Y34026*
X15944Y34032*
X15907Y34043*
X15870Y34058*
X15835Y34077*
X15803Y34099*
X15772Y34128*
X15745Y34159*
X15731Y34177*
X15719Y34196*
X15707Y34217*
X15698Y34240*
X15687Y34265*
X15679Y34291*
X15670Y34318*
X15663Y34347*
X15657Y34379*
X15652Y34411*
X15647Y34445*
X15643Y34482*
X15640Y34520*
X15637Y34559*
X15636Y34600*
Y34643*
Y34684*
X15639Y34724*
X15641Y34763*
X15643Y34801*
X15648Y34836*
X15653Y34870*
X15659Y34904*
X15666Y34935*
X15674Y34965*
X15682Y34993*
X15693Y35020*
X15704Y35046*
X15714Y35070*
X15727Y35093*
X15740Y35114*
X15756Y35133*
X15780Y35162*
X15809Y35187*
X15839Y35208*
X15872Y35226*
X15908Y35239*
X15946Y35248*
X15986Y35254*
X16030Y35257*
X16626Y35252D02*
X17072D01*
X17109*
X17143Y35251*
X17175Y35248*
X17205Y35246*
X17233Y35243*
X17258Y35239*
X17281Y35234*
X17302Y35228*
X17329Y35220*
X17354Y35211*
X17377Y35199*
X17401Y35186*
X17423Y35170*
X17444Y35154*
X17465Y35136*
X17485Y35117*
X17520Y35075*
X17551Y35029*
X17578Y34978*
X17600Y34921*
X17609Y34892*
X17617Y34861*
X17624Y34827*
X17630Y34793*
X17633Y34756*
X17637Y34718*
X17639Y34678*
Y34637*
Y34600*
X17637Y34565*
X17635Y34530*
X17630Y34497*
X17625Y34465*
X17618Y34436*
X17611Y34406*
X17603Y34379*
X17590Y34347*
X17577Y34317*
X17563Y34287*
X17547Y34260*
X17531Y34234*
X17513Y34209*
X17493Y34187*
X17473Y34165*
X17456Y34150*
X17439Y34136*
X17419Y34123*
X17398Y34111*
X17376Y34099*
X17352Y34089*
X17328Y34078*
X17302Y34070*
X17280Y34064*
X17258Y34058*
X17233Y34053*
X17207Y34050*
X17179Y34047*
X17149Y34045*
X17119Y34044*
X17085*
X16626*
Y35252*
X16701Y-1392D02*
Y-587D01*
X16961*
X16980*
X16997*
X17013*
X17029*
X17044Y-588*
X17057*
X17071Y-589*
X17083Y-590*
X17095Y-591*
X17106*
X17116Y-592*
X17125Y-594*
X17134*
X17142Y-596*
X17148Y-598*
X17154*
X17171Y-604*
X17187Y-610*
X17203Y-618*
X17218Y-628*
X17231Y-638*
X17245Y-650*
X17258Y-663*
X17270Y-678*
X17281Y-694*
X17291Y-710*
X17298Y-728*
X17305Y-747*
X17310Y-767*
X17313Y-788*
X17316Y-811*
X17317Y-835*
Y-853*
X17315Y-870*
X17313Y-887*
X17310Y-902*
X17306Y-918*
X17302Y-932*
X17296Y-946*
X17290Y-959*
X17276Y-983*
X17259Y-1004*
X17241Y-1023*
X17221Y-1039*
X17201Y-1052*
X17180Y-1062*
X17159Y-1071*
X17138Y-1076*
X17122Y-1080*
X17106Y-1082*
X17087Y-1083*
X17066Y-1085*
X17045Y-1087*
X17021*
X16996Y-1088*
X16969*
X16864*
Y-1392*
X16701*
X16864Y-723D02*
Y-952D01*
X16952*
X16975*
X16996Y-951*
X17015Y-950*
X17032Y-949*
X17047Y-947*
X17060Y-945*
X17071Y-943*
X17080Y-939*
X17095Y-932*
X17109Y-923*
X17120Y-913*
X17131Y-900*
X17139Y-886*
X17144Y-871*
X17148Y-854*
X17149Y-837*
Y-826*
X17147Y-816*
X17145Y-806*
X17143Y-797*
X17139Y-788*
X17135Y-780*
X17129Y-772*
X17123Y-765*
X17109Y-751*
X17094Y-741*
X17077Y-733*
X17058Y-728*
X17050Y-727*
X17040Y-726*
X17028Y-725*
X17015Y-724*
X16999*
X16982*
X16963Y-723*
X16942*
X16864*
X16870Y35048D02*
Y34248D01*
X17052*
X17077*
X17101Y34249*
X17122*
X17141Y34250*
X17159Y34253*
X17174Y34254*
X17188Y34256*
X17200Y34260*
X17230Y34268*
X17254Y34280*
X17278Y34293*
X17299Y34309*
X17309Y34319*
X17318Y34331*
X17326Y34343*
X17335Y34357*
X17343Y34372*
X17350Y34389*
X17357Y34406*
X17363Y34426*
X17369Y34448*
X17374Y34470*
X17378Y34495*
X17382Y34522*
X17384Y34550*
X17387Y34581*
X17388Y34613*
Y34647*
Y34681*
X17387Y34713*
X17384Y34743*
X17382Y34771*
X17378Y34797*
X17374Y34821*
X17369Y34842*
X17363Y34862*
X17350Y34898*
X17333Y34928*
X17315Y34956*
X17293Y34979*
X17270Y34998*
X17244Y35015*
X17213Y35026*
X17181Y35036*
X17167Y35038*
X17149Y35041*
X17128Y35043*
X17106Y35044*
X17078Y35046*
X17049*
X17016Y35048*
X16980*
X16870*
X17451Y-1392D02*
Y-587D01*
X17793*
X17824*
X17854Y-588*
X17880Y-590*
X17905Y-592*
X17927Y-595*
X17947Y-599*
X17965Y-603*
X17981Y-609*
X17995Y-614*
X18009Y-621*
X18021Y-629*
X18033Y-639*
X18045Y-649*
X18055Y-660*
X18065Y-672*
X18074Y-686*
X18083Y-700*
X18090Y-714*
X18096Y-729*
X18101Y-745*
X18105Y-761*
X18107Y-778*
X18109Y-795*
Y-813*
Y-835*
X18106Y-856*
X18102Y-876*
X18096Y-895*
X18089Y-913*
X18080Y-931*
X18069Y-947*
X18057Y-962*
X18043Y-976*
X18027Y-989*
X18009Y-1001*
X17990Y-1010*
X17969Y-1019*
X17947Y-1026*
X17923Y-1032*
X17898Y-1037*
X17923Y-1053*
X17946Y-1069*
X17966Y-1087*
X17984Y-1105*
X17993Y-1114*
X18003Y-1126*
X18013Y-1140*
X18024Y-1155*
X18036Y-1172*
X18049Y-1191*
X18062Y-1213*
X18076Y-1235*
X18175Y-1392*
X17980*
X17864Y-1217*
X17848Y-1194*
X17835Y-1174*
X17822Y-1156*
X17811Y-1140*
X17801Y-1127*
X17792Y-1115*
X17784Y-1106*
X17778Y-1098*
X17766Y-1087*
X17754Y-1078*
X17742Y-1071*
X17729Y-1065*
X17722Y-1063*
X17714Y-1061*
X17706Y-1060*
X17695Y-1058*
X17685Y-1057*
X17673*
X17661Y-1056*
X17647*
X17614*
Y-1392*
X17451*
X17614Y-928D02*
X17734D01*
X17762*
X17787Y-927*
X17809Y-926*
X17829Y-925*
X17846Y-924*
X17860Y-922*
X17871Y-920*
X17880Y-918*
X17894Y-912*
X17906Y-904*
X17917Y-894*
X17925Y-883*
X17932Y-871*
X17938Y-857*
X17941Y-840*
X17942Y-823*
X17940Y-804*
X17936Y-787*
X17930Y-771*
X17920Y-757*
X17908Y-746*
X17894Y-737*
X17878Y-730*
X17859Y-726*
X17853Y-725*
X17844Y-724*
X17833*
X17820*
X17804*
X17785Y-723*
X17764*
X17741*
X17614*
Y-928*
X18230Y-994D02*
X18231Y-965D01*
X18232Y-935*
X18235Y-908*
X18239Y-881*
X18244Y-856*
X18250Y-832*
X18258Y-809*
X18267Y-788*
X18282Y-758*
X18299Y-730*
X18320Y-703*
X18342Y-678*
X18354Y-666*
X18366Y-655*
X18379Y-645*
X18391Y-635*
X18418Y-619*
X18446Y-605*
X18465Y-598*
X18485Y-591*
X18506Y-586*
X18527Y-581*
X18549Y-578*
X18572Y-576*
X18595Y-574*
X18620Y-573*
X18642Y-574*
X18663Y-575*
X18684Y-577*
X18705Y-580*
X18724Y-584*
X18743Y-589*
X18762Y-594*
X18780Y-601*
X18798Y-608*
X18815Y-617*
X18831Y-625*
X18847Y-635*
X18862Y-646*
X18877Y-657*
X18891Y-670*
X18905Y-683*
X18918Y-698*
X18930Y-713*
X18941Y-728*
X18952Y-744*
X18961Y-761*
X18970Y-779*
X18978Y-797*
X18985Y-816*
X18991Y-835*
X18997Y-855*
X19002Y-876*
X19006Y-898*
X19008Y-920*
X19010Y-943*
X19012Y-966*
Y-991*
Y-1014*
X19010Y-1038*
X19008Y-1061*
X19006Y-1083*
X19002Y-1104*
X18997Y-1124*
X18991Y-1145*
X18985Y-1165*
X18978Y-1183*
X18970Y-1201*
X18961Y-1218*
X18952Y-1235*
X18942Y-1251*
X18931Y-1267*
X18919Y-1281*
X18906Y-1295*
X18892Y-1309*
X18878Y-1321*
X18864Y-1333*
X18848Y-1343*
X18832Y-1354*
X18816Y-1362*
X18799Y-1371*
X18782Y-1378*
X18764Y-1384*
X18745Y-1390*
X18726Y-1394*
X18706Y-1398*
X18686Y-1402*
X18665Y-1404*
X18644Y-1405*
X18622Y-1406*
X18600Y-1405*
X18578Y-1404*
X18557Y-1402*
X18537Y-1398*
X18517Y-1394*
X18498Y-1390*
X18479Y-1384*
X18461Y-1378*
X18443Y-1371*
X18426Y-1363*
X18409Y-1354*
X18394Y-1344*
X18379Y-1333*
X18364Y-1322*
X18350Y-1309*
X18336Y-1296*
X18323Y-1282*
X18311Y-1268*
X18300Y-1252*
X18290Y-1236*
X18280Y-1220*
X18272Y-1202*
X18264Y-1184*
X18257Y-1166*
X18250Y-1146*
X18245Y-1127*
X18240Y-1106*
X18236Y-1085*
X18234Y-1064*
X18231Y-1041*
Y-1018*
X18230Y-994*
X18398Y-989D02*
Y-1022D01*
X18402Y-1053*
X18406Y-1082*
X18413Y-1109*
X18422Y-1134*
X18433Y-1157*
X18446Y-1177*
X18461Y-1196*
X18477Y-1213*
X18494Y-1227*
X18513Y-1239*
X18533Y-1249*
X18554Y-1257*
X18575Y-1261*
X18598Y-1265*
X18622Y-1266*
X18646Y-1265*
X18669Y-1262*
X18690Y-1257*
X18710Y-1249*
X18730Y-1239*
X18748Y-1227*
X18765Y-1213*
X18782Y-1196*
X18796Y-1178*
X18809Y-1157*
X18820Y-1134*
X18828Y-1109*
X18835Y-1082*
X18840Y-1052*
X18843Y-1020*
X18844Y-987*
X18843Y-954*
X18840Y-922*
X18835Y-893*
X18829Y-866*
X18820Y-842*
X18810Y-819*
X18798Y-798*
X18783Y-780*
X18768Y-765*
X18750Y-751*
X18732Y-739*
X18713Y-730*
X18691Y-722*
X18669Y-717*
X18646Y-713*
X18622*
X18597*
X18574Y-717*
X18552Y-722*
X18531Y-730*
X18511Y-739*
X18493Y-751*
X18476Y-765*
X18459Y-781*
X18445Y-800*
X18432Y-820*
X18422Y-843*
X18413Y-868*
X18406Y-894*
X18402Y-924*
X18398Y-955*
Y-989*
X18577Y34259D02*
Y34044D01*
X17766*
X17770Y34074*
X17775Y34104*
X17783Y34133*
X17792Y34162*
X17802Y34191*
X17815Y34220*
X17830Y34247*
X17845Y34275*
X17864Y34304*
X17886Y34333*
X17912Y34366*
X17943Y34402*
X17977Y34439*
X18016Y34478*
X18059Y34520*
X18105Y34565*
X18143Y34599*
X18176Y34631*
X18205Y34660*
X18231Y34686*
X18254Y34710*
X18271Y34730*
X18285Y34748*
X18297Y34762*
X18308Y34780*
X18317Y34797*
X18326Y34815*
X18333Y34833*
X18337Y34850*
X18342Y34868*
X18343Y34886*
X18344Y34904*
X18343Y34922*
X18342Y34940*
X18339Y34957*
X18334Y34972*
X18328Y34986*
X18321Y34999*
X18313Y35011*
X18303Y35023*
X18293Y35032*
X18281Y35041*
X18268Y35048*
X18254Y35054*
X18238Y35058*
X18223Y35062*
X18206Y35063*
X18187Y35064*
X18171Y35063*
X18153Y35062*
X18138Y35058*
X18122Y35054*
X18109Y35046*
X18096Y35039*
X18083Y35031*
X18073Y35020*
X18062Y35009*
X18054Y34994*
X18046Y34979*
X18039Y34963*
X18034Y34943*
X18029Y34922*
X18026Y34900*
X18023Y34875*
X17793Y34899*
X17800Y34945*
X17808Y34987*
X17821Y35026*
X17835Y35063*
X17853Y35095*
X17873Y35124*
X17897Y35150*
X17923Y35173*
X17950Y35193*
X17980Y35209*
X18011Y35224*
X18044Y35235*
X18080Y35245*
X18117Y35252*
X18154Y35256*
X18194Y35257*
X18237Y35256*
X18278Y35251*
X18317Y35243*
X18354Y35232*
X18388Y35219*
X18419Y35202*
X18448Y35182*
X18476Y35160*
X18499Y35135*
X18519Y35109*
X18537Y35081*
X18551Y35052*
X18563Y35022*
X18571Y34989*
X18576Y34956*
X18577Y34920*
X18575Y34880*
X18570Y34841*
X18561Y34802*
X18548Y34765*
X18531Y34728*
X18510Y34690*
X18485Y34651*
X18456Y34611*
X18444Y34596*
X18430Y34581*
X18414Y34563*
X18396Y34546*
X18376Y34526*
X18354Y34503*
X18330Y34481*
X18303Y34456*
X18277Y34432*
X18254Y34410*
X18232Y34391*
X18213Y34373*
X18198Y34357*
X18184Y34344*
X18173Y34332*
X18165Y34322*
X18151Y34306*
X18138Y34291*
X18127Y34274*
X18117Y34259*
X18577*
X18786Y34044D02*
Y35252D01*
X19680*
Y35048*
X19031*
Y34780*
X19635*
Y34575*
X19031*
Y34248*
X19704*
Y34044*
X18786*
X19138Y-587D02*
X19435D01*
X19460*
X19483*
X19504Y-589*
X19524Y-591*
X19543Y-593*
X19559Y-595*
X19575Y-598*
X19588Y-602*
X19606Y-608*
X19623Y-614*
X19639Y-622*
X19654Y-631*
X19669Y-641*
X19683Y-652*
X19697Y-664*
X19710Y-676*
X19734Y-705*
X19754Y-735*
X19772Y-769*
X19787Y-807*
X19793Y-827*
X19798Y-847*
X19803Y-870*
X19807Y-893*
X19809Y-917*
X19812Y-943*
X19813Y-969*
Y-997*
Y-1021*
X19812Y-1045*
X19810Y-1068*
X19807Y-1090*
X19804Y-1111*
X19799Y-1131*
X19794Y-1150*
X19789Y-1169*
X19780Y-1190*
X19772Y-1210*
X19762Y-1230*
X19752Y-1248*
X19741Y-1265*
X19729Y-1282*
X19716Y-1297*
X19702Y-1311*
X19691Y-1321*
X19680Y-1331*
X19666Y-1339*
X19653Y-1347*
X19638Y-1355*
X19622Y-1362*
X19606Y-1369*
X19588Y-1375*
X19574Y-1379*
X19559Y-1383*
X19543Y-1386*
X19525Y-1388*
X19506Y-1390*
X19487Y-1391*
X19466Y-1392*
X19444*
X19138*
Y-587*
X19301Y-723D02*
Y-1256D01*
X19422*
X19439*
X19454Y-1255*
X19469*
X19481Y-1254*
X19493Y-1253*
X19503Y-1252*
X19513Y-1250*
X19520Y-1248*
X19540Y-1243*
X19557Y-1235*
X19572Y-1226*
X19587Y-1215*
X19593Y-1209*
X19599Y-1201*
X19605Y-1193*
X19610Y-1183*
X19616Y-1173*
X19620Y-1162*
X19625Y-1150*
X19629Y-1137*
X19633Y-1123*
X19636Y-1108*
X19639Y-1091*
X19642Y-1073*
X19643Y-1054*
X19645Y-1034*
X19646Y-1013*
Y-990*
Y-967*
X19645Y-946*
X19643Y-926*
X19642Y-907*
X19639Y-890*
X19636Y-874*
X19633Y-860*
X19629Y-846*
X19620Y-823*
X19609Y-802*
X19597Y-784*
X19583Y-769*
X19567Y-756*
X19550Y-745*
X19529Y-737*
X19508Y-731*
X19498Y-729*
X19487Y-728*
X19472Y-726*
X19457Y-725*
X19439Y-724*
X19420*
X19398Y-723*
X19374*
X19301*
X19950Y-587D02*
X20113D01*
Y-1023*
Y-1047*
X20114Y-1070*
Y-1090*
X20115Y-1108*
X20116Y-1124*
X20117Y-1137*
X20118Y-1148*
X20120Y-1157*
X20123Y-1169*
X20127Y-1180*
X20131Y-1191*
X20137Y-1202*
X20143Y-1211*
X20151Y-1220*
X20160Y-1228*
X20169Y-1236*
X20180Y-1243*
X20191Y-1250*
X20202Y-1254*
X20215Y-1259*
X20229Y-1262*
X20244Y-1265*
X20259*
X20276Y-1266*
X20293Y-1265*
X20309*
X20323Y-1262*
X20336Y-1259*
X20349Y-1255*
X20361Y-1250*
X20371Y-1245*
X20380Y-1238*
X20388Y-1231*
X20396Y-1223*
X20402Y-1215*
X20408Y-1206*
X20413Y-1198*
X20417Y-1188*
X20420Y-1179*
X20422Y-1169*
X20424Y-1157*
X20425Y-1145*
X20427Y-1130*
X20428Y-1114*
Y-1096*
Y-1076*
X20429Y-1055*
Y-1031*
Y-587*
X20592*
Y-1009*
Y-1045*
X20591Y-1077*
Y-1106*
X20589Y-1133*
X20587Y-1157*
X20585Y-1180*
X20582Y-1198*
X20579Y-1214*
X20571Y-1243*
X20561Y-1269*
X20546Y-1294*
X20531Y-1316*
X20511Y-1335*
X20489Y-1353*
X20464Y-1368*
X20435Y-1381*
X20420Y-1387*
X20404Y-1392*
X20386Y-1396*
X20368Y-1399*
X20347Y-1402*
X20327Y-1404*
X20304Y-1406*
X20281*
X20253*
X20227Y-1404*
X20202Y-1402*
X20180Y-1399*
X20158Y-1395*
X20139Y-1391*
X20122Y-1385*
X20106Y-1379*
X20078Y-1365*
X20053Y-1348*
X20031Y-1330*
X20012Y-1309*
X19996Y-1288*
X19983Y-1266*
X19973Y-1243*
X19966Y-1220*
X19962Y-1202*
X19959Y-1182*
X19957Y-1159*
X19954Y-1135*
X19953Y-1108*
X19951Y-1080*
X19950Y-1049*
Y-1017*
Y-587*
X20219Y34044D02*
X19788Y35252D01*
X20052*
X20358Y34358*
X20652Y35252*
X20912*
X20482Y34044*
X20219*
X21034D02*
Y35252D01*
X21400*
X21617Y34428*
X21832Y35252*
X22198*
Y34044*
X21973*
Y34994*
X21733Y34044*
X21498*
X21261Y34994*
X21259Y34044*
X21034*
X21280Y-1094D02*
X21437Y-1145D01*
X21428Y-1177*
X21416Y-1207*
X21403Y-1235*
X21389Y-1260*
X21373Y-1283*
X21356Y-1305*
X21337Y-1324*
X21317Y-1342*
X21294Y-1357*
X21272Y-1369*
X21246Y-1380*
X21220Y-1390*
X21194Y-1397*
X21165Y-1402*
X21134Y-1405*
X21102Y-1406*
X21083Y-1405*
X21063Y-1404*
X21044Y-1402*
X21026Y-1398*
X21008Y-1394*
X20991Y-1390*
X20973Y-1384*
X20957Y-1378*
X20940Y-1371*
X20924Y-1363*
X20909Y-1354*
X20894Y-1344*
X20880Y-1333*
X20865Y-1322*
X20852Y-1309*
X20839Y-1296*
X20826Y-1282*
X20814Y-1268*
X20804Y-1252*
X20794Y-1236*
X20784Y-1220*
X20776Y-1202*
X20769Y-1185*
X20761Y-1166*
X20755Y-1147*
X20750Y-1128*
X20746Y-1107*
X20742Y-1087*
X20739Y-1065*
X20737Y-1043*
X20736Y-1020*
X20735Y-997*
X20736Y-972*
X20737Y-948*
X20739Y-924*
X20742Y-902*
X20746Y-880*
X20750Y-858*
X20755Y-838*
X20761Y-818*
X20769Y-799*
X20776Y-780*
X20784Y-763*
X20794Y-746*
X20804Y-729*
X20815Y-713*
X20827Y-698*
X20839Y-684*
X20853Y-671*
X20866Y-658*
X20880Y-646*
X20895Y-636*
X20910Y-626*
X20926Y-617*
X20943Y-609*
X20959Y-601*
X20976Y-594*
X20994Y-589*
X21013Y-584*
X21031Y-580*
X21051Y-577*
X21071Y-575*
X21091Y-574*
X21113Y-573*
X21148Y-575*
X21183Y-579*
X21215Y-586*
X21246Y-595*
X21276Y-608*
X21302Y-623*
X21328Y-640*
X21352Y-661*
X21365Y-675*
X21378Y-690*
X21390Y-706*
X21400Y-724*
X21410Y-743*
X21419Y-764*
X21428Y-786*
X21435Y-809*
X21274Y-848*
X21270Y-833*
X21265Y-818*
X21259Y-805*
X21252Y-792*
X21244Y-780*
X21235Y-769*
X21225Y-758*
X21214Y-749*
X21203Y-740*
X21191Y-733*
X21178Y-727*
X21165Y-722*
X21150Y-718*
X21135Y-715*
X21120Y-713*
X21104*
X21083*
X21061Y-717*
X21042Y-722*
X21023Y-728*
X21006Y-738*
X20989Y-749*
X20973Y-761*
X20959Y-777*
X20946Y-794*
X20935Y-814*
X20925Y-836*
X20917Y-861*
X20911Y-888*
X20906Y-917*
X20904Y-950*
X20903Y-984*
X20904Y-1021*
X20906Y-1055*
X20911Y-1087*
X20917Y-1115*
X20924Y-1141*
X20934Y-1164*
X20945Y-1184*
X20958Y-1202*
X20972Y-1217*
X20987Y-1230*
X21004Y-1241*
X21021Y-1250*
X21039Y-1257*
X21059Y-1262*
X21080Y-1265*
X21101Y-1266*
X21117Y-1265*
X21132Y-1264*
X21147Y-1261*
X21161Y-1256*
X21175Y-1250*
X21188Y-1243*
X21201Y-1235*
X21213Y-1225*
X21224Y-1213*
X21234Y-1201*
X21244Y-1187*
X21253Y-1172*
X21261Y-1154*
X21268Y-1136*
X21274Y-1116*
X21280Y-1094*
X21759Y-1392D02*
Y-723D01*
X21520*
Y-587*
X22161*
Y-723*
X21922*
Y-1392*
X21759*
X22951Y-1097D02*
Y-961D01*
X23302*
Y-1280*
X23288Y-1293*
X23273Y-1305*
X23257Y-1316*
X23239Y-1328*
X23220Y-1338*
X23199Y-1348*
X23177Y-1358*
X23154Y-1368*
X23129Y-1376*
X23105Y-1384*
X23080Y-1391*
X23056Y-1396*
X23031Y-1400*
X23006Y-1403*
X22982Y-1405*
X22957Y-1406*
X22926Y-1405*
X22896Y-1402*
X22867Y-1398*
X22839Y-1392*
X22812Y-1385*
X22786Y-1376*
X22761Y-1365*
X22736Y-1353*
X22714Y-1339*
X22693Y-1324*
X22672Y-1306*
X22654Y-1288*
X22637Y-1269*
X22622Y-1247*
X22608Y-1225*
X22595Y-1201*
X22584Y-1176*
X22575Y-1150*
X22567Y-1124*
X22560Y-1098*
X22554Y-1071*
X22551Y-1043*
X22549Y-1016*
X22548Y-987*
X22549Y-956*
X22551Y-926*
X22555Y-896*
X22561Y-868*
X22569Y-840*
X22578Y-814*
X22588Y-788*
X22601Y-763*
X22615Y-739*
X22630Y-717*
X22647Y-696*
X22666Y-677*
X22686Y-659*
X22708Y-643*
X22731Y-627*
X22755Y-613*
X22776Y-604*
X22796Y-596*
X22819Y-589*
X22843Y-583*
X22867Y-579*
X22893Y-576*
X22920Y-574*
X22948Y-573*
X22985Y-574*
X23019Y-577*
X23052Y-582*
X23082Y-589*
X23110Y-598*
X23136Y-609*
X23161Y-622*
X23183Y-636*
X23203Y-653*
X23221Y-671*
X23238Y-691*
X23252Y-712*
X23265Y-735*
X23276Y-758*
X23284Y-784*
X23291Y-811*
X23130Y-841*
X23125Y-827*
X23120Y-813*
X23113Y-800*
X23106Y-788*
X23097Y-776*
X23087Y-766*
X23077Y-756*
X23066Y-747*
X23054Y-739*
X23041Y-732*
X23028Y-726*
X23013Y-721*
X22998Y-717*
X22982Y-715*
X22965Y-713*
X22948*
X22922*
X22898Y-717*
X22875Y-722*
X22853Y-730*
X22832Y-739*
X22813Y-750*
X22795Y-765*
X22779Y-780*
X22764Y-798*
X22751Y-818*
X22740Y-840*
X22731Y-864*
X22724Y-890*
X22720Y-918*
X22717Y-948*
X22716Y-980*
X22717Y-1015*
X22720Y-1047*
X22724Y-1077*
X22731Y-1106*
X22741Y-1131*
X22752Y-1154*
X22765Y-1176*
X22780Y-1194*
X22796Y-1212*
X22814Y-1226*
X22833Y-1239*
X22853Y-1248*
X22875Y-1256*
X22898Y-1261*
X22921Y-1265*
X22946Y-1266*
X22972Y-1265*
X22998Y-1261*
X23023Y-1255*
X23049Y-1246*
X23074Y-1236*
X23097Y-1224*
X23118Y-1212*
X23137Y-1198*
Y-1097*
X22951*
X23453Y-1392D02*
Y-587D01*
X23794*
X23826*
X23855Y-588*
X23882Y-590*
X23906Y-592*
X23928Y-595*
X23949Y-599*
X23967Y-603*
X23983Y-609*
X23997Y-614*
X24010Y-621*
X24023Y-629*
X24035Y-639*
X24046Y-649*
X24057Y-660*
X24067Y-672*
X24076Y-686*
X24084Y-700*
X24091Y-714*
X24098Y-729*
X24102Y-745*
X24106Y-761*
X24109Y-778*
X24110Y-795*
X24111Y-813*
X24110Y-835*
X24108Y-856*
X24104Y-876*
X24098Y-895*
X24091Y-913*
X24081Y-931*
X24070Y-947*
X24058Y-962*
X24044Y-976*
X24028Y-989*
X24010Y-1001*
X23991Y-1010*
X23971Y-1019*
X23949Y-1026*
X23924Y-1032*
X23899Y-1037*
X23924Y-1053*
X23947Y-1069*
X23968Y-1087*
X23986Y-1105*
X23994Y-1114*
X24005Y-1126*
X24015Y-1140*
X24026Y-1155*
X24038Y-1172*
X24050Y-1191*
X24064Y-1213*
X24078Y-1235*
X24176Y-1392*
X23982*
X23865Y-1217*
X23850Y-1194*
X23836Y-1174*
X23824Y-1156*
X23813Y-1140*
X23802Y-1127*
X23794Y-1115*
X23786Y-1106*
X23780Y-1098*
X23768Y-1087*
X23756Y-1078*
X23743Y-1071*
X23731Y-1065*
X23724Y-1063*
X23716Y-1061*
X23707Y-1060*
X23697Y-1058*
X23687Y-1057*
X23675*
X23662Y-1056*
X23649*
X23616*
Y-1392*
X23453*
X23616Y-928D02*
X23735D01*
X23764*
X23788Y-927*
X23811Y-926*
X23831Y-925*
X23847Y-924*
X23861Y-922*
X23872Y-920*
X23881Y-918*
X23895Y-912*
X23907Y-904*
X23918Y-894*
X23927Y-883*
X23934Y-871*
X23939Y-857*
X23943Y-840*
Y-823*
X23942Y-804*
X23938Y-787*
X23931Y-771*
X23922Y-757*
X23909Y-746*
X23895Y-737*
X23880Y-730*
X23861Y-726*
X23854Y-725*
X23846Y-724*
X23835*
X23821*
X23806*
X23787Y-723*
X23765*
X23743*
X23616*
Y-928*
X24231Y-994D02*
X24232Y-965D01*
X24234Y-935*
X24237Y-908*
X24241Y-881*
X24246Y-856*
X24252Y-832*
X24260Y-809*
X24269Y-788*
X24283Y-758*
X24301Y-730*
X24321Y-703*
X24343Y-678*
X24355Y-666*
X24368Y-655*
X24380Y-645*
X24393Y-635*
X24420Y-619*
X24447Y-605*
X24467Y-598*
X24487Y-591*
X24507Y-586*
X24528Y-581*
X24550Y-578*
X24573Y-576*
X24597Y-574*
X24621Y-573*
X24643Y-574*
X24665Y-575*
X24686Y-577*
X24706Y-580*
X24726Y-584*
X24745Y-589*
X24764Y-594*
X24782Y-601*
X24799Y-608*
X24817Y-617*
X24832Y-625*
X24849Y-635*
X24864Y-646*
X24879Y-657*
X24893Y-670*
X24906Y-683*
X24920Y-698*
X24931Y-713*
X24943Y-728*
X24954Y-744*
X24963Y-761*
X24972Y-779*
X24980Y-797*
X24987Y-816*
X24993Y-835*
X24998Y-855*
X25003Y-876*
X25007Y-898*
X25009Y-920*
X25012Y-943*
X25013Y-966*
Y-991*
Y-1014*
X25012Y-1038*
X25009Y-1061*
X25007Y-1083*
X25003Y-1104*
X24998Y-1124*
X24993Y-1145*
X24987Y-1165*
X24980Y-1183*
X24972Y-1201*
X24963Y-1218*
X24954Y-1235*
X24943Y-1251*
X24932Y-1267*
X24920Y-1281*
X24907Y-1295*
X24894Y-1309*
X24880Y-1321*
X24865Y-1333*
X24850Y-1343*
X24834Y-1354*
X24817Y-1362*
X24801Y-1371*
X24783Y-1378*
X24765Y-1384*
X24746Y-1390*
X24728Y-1394*
X24708Y-1398*
X24687Y-1402*
X24667Y-1404*
X24646Y-1405*
X24624Y-1406*
X24602Y-1405*
X24580Y-1404*
X24559Y-1402*
X24539Y-1398*
X24518Y-1394*
X24499Y-1390*
X24480Y-1384*
X24462Y-1378*
X24445Y-1371*
X24428Y-1363*
X24411Y-1354*
X24395Y-1344*
X24380Y-1333*
X24365Y-1322*
X24351Y-1309*
X24338Y-1296*
X24324Y-1282*
X24313Y-1268*
X24302Y-1252*
X24291Y-1236*
X24282Y-1220*
X24273Y-1202*
X24265Y-1184*
X24258Y-1166*
X24252Y-1146*
X24246Y-1127*
X24242Y-1106*
X24238Y-1085*
X24235Y-1064*
X24233Y-1041*
X24232Y-1018*
X24231Y-994*
X24399Y-989D02*
X24400Y-1022D01*
X24403Y-1053*
X24408Y-1082*
X24415Y-1109*
X24424Y-1134*
X24435Y-1157*
X24448Y-1177*
X24462Y-1196*
X24479Y-1213*
X24496Y-1227*
X24515Y-1239*
X24535Y-1249*
X24555Y-1257*
X24576Y-1261*
X24599Y-1265*
X24624Y-1266*
X24647Y-1265*
X24670Y-1262*
X24691Y-1257*
X24712Y-1249*
X24731Y-1239*
X24750Y-1227*
X24767Y-1213*
X24783Y-1196*
X24798Y-1178*
X24810Y-1157*
X24821Y-1134*
X24830Y-1109*
X24837Y-1082*
X24842Y-1052*
X24845Y-1020*
X24846Y-987*
X24845Y-954*
X24842Y-922*
X24837Y-893*
X24831Y-866*
X24822Y-842*
X24812Y-819*
X24799Y-798*
X24785Y-780*
X24769Y-765*
X24752Y-751*
X24734Y-739*
X24714Y-730*
X24693Y-722*
X24671Y-717*
X24648Y-713*
X24624*
X24598*
X24576Y-717*
X24554Y-722*
X24532Y-730*
X24513Y-739*
X24494Y-751*
X24477Y-765*
X24461Y-781*
X24446Y-800*
X24434Y-820*
X24424Y-843*
X24415Y-868*
X24408Y-894*
X24403Y-924*
X24400Y-955*
X24399Y-989*
X25139Y-587D02*
X25302D01*
Y-1023*
Y-1047*
X25303Y-1070*
Y-1090*
X25304Y-1108*
X25305Y-1124*
X25306Y-1137*
X25307Y-1148*
X25309Y-1157*
X25312Y-1169*
X25316Y-1180*
X25320Y-1191*
X25326Y-1202*
X25332Y-1211*
X25340Y-1220*
X25349Y-1228*
X25358Y-1236*
X25369Y-1243*
X25380Y-1250*
X25391Y-1254*
X25404Y-1259*
X25418Y-1262*
X25433Y-1265*
X25448*
X25465Y-1266*
X25482Y-1265*
X25498*
X25512Y-1262*
X25525Y-1259*
X25538Y-1255*
X25550Y-1250*
X25560Y-1245*
X25569Y-1238*
X25577Y-1231*
X25585Y-1223*
X25591Y-1215*
X25597Y-1206*
X25602Y-1198*
X25606Y-1188*
X25609Y-1179*
X25611Y-1169*
X25613Y-1157*
X25614Y-1145*
X25616Y-1130*
X25617Y-1114*
Y-1096*
Y-1076*
X25618Y-1055*
Y-1031*
Y-587*
X25781*
Y-1009*
Y-1045*
X25780Y-1077*
Y-1106*
X25778Y-1133*
X25776Y-1157*
X25774Y-1180*
X25771Y-1198*
X25768Y-1214*
X25760Y-1243*
X25750Y-1269*
X25735Y-1294*
X25720Y-1316*
X25700Y-1335*
X25678Y-1353*
X25653Y-1368*
X25624Y-1381*
X25609Y-1387*
X25593Y-1392*
X25575Y-1396*
X25557Y-1399*
X25536Y-1402*
X25516Y-1404*
X25493Y-1406*
X25470*
X25442*
X25416Y-1404*
X25391Y-1402*
X25369Y-1399*
X25347Y-1395*
X25328Y-1391*
X25311Y-1385*
X25295Y-1379*
X25267Y-1365*
X25242Y-1348*
X25220Y-1330*
X25201Y-1309*
X25185Y-1288*
X25172Y-1266*
X25162Y-1243*
X25155Y-1220*
X25151Y-1202*
X25148Y-1182*
X25146Y-1159*
X25143Y-1135*
X25142Y-1108*
X25140Y-1080*
X25139Y-1049*
Y-1017*
Y-587*
X25954Y-1392D02*
Y-587D01*
X26214*
X26232*
X26250*
X26266*
X26282*
X26297Y-588*
X26310*
X26324Y-589*
X26336Y-590*
X26348Y-591*
X26359*
X26369Y-592*
X26378Y-594*
X26387*
X26394Y-596*
X26401Y-598*
X26407*
X26424Y-604*
X26440Y-610*
X26456Y-618*
X26471Y-628*
X26484Y-638*
X26498Y-650*
X26511Y-663*
X26523Y-678*
X26534Y-694*
X26543Y-710*
X26551Y-728*
X26557Y-747*
X26563Y-767*
X26566Y-788*
X26569Y-811*
Y-835*
Y-853*
X26568Y-870*
X26565Y-887*
X26563Y-902*
X26559Y-918*
X26554Y-932*
X26549Y-946*
X26543Y-959*
X26528Y-983*
X26512Y-1004*
X26494Y-1023*
X26474Y-1039*
X26454Y-1052*
X26432Y-1062*
X26412Y-1071*
X26391Y-1076*
X26375Y-1080*
X26358Y-1082*
X26339Y-1083*
X26319Y-1085*
X26298Y-1087*
X26274*
X26249Y-1088*
X26222*
X26117*
Y-1392*
X25954*
X26117Y-723D02*
Y-952D01*
X26205*
X26228*
X26249Y-951*
X26268Y-950*
X26285Y-949*
X26300Y-947*
X26313Y-945*
X26324Y-943*
X26333Y-939*
X26348Y-932*
X26361Y-923*
X26373Y-913*
X26383Y-900*
X26391Y-886*
X26397Y-871*
X26401Y-854*
X26402Y-837*
Y-826*
X26400Y-816*
X26398Y-806*
X26395Y-797*
X26391Y-788*
X26387Y-780*
X26382Y-772*
X26376Y-765*
X26362Y-751*
X26347Y-741*
X26330Y-733*
X26311Y-728*
X26303Y-727*
X26293Y-726*
X26281Y-725*
X26268Y-724*
X26252*
X26235*
X26216Y-723*
X26194*
X26117*
X32887Y22149D02*
X33128D01*
X33146*
X33162Y22148*
X33177Y22147*
X33191*
X33204Y22146*
X33216Y22145*
X33226Y22144*
X33235Y22143*
X33252Y22139*
X33269Y22133*
X33284Y22126*
X33298Y22118*
X33312Y22107*
X33324Y22095*
X33335Y22082*
X33345Y22067*
X33353Y22051*
X33359Y22034*
X33362Y22016*
X33363Y21997*
Y21986*
X33362Y21976*
X33360Y21966*
X33357Y21956*
X33355Y21947*
X33350Y21937*
X33346Y21928*
X33340Y21919*
X33328Y21902*
X33314Y21888*
X33297Y21876*
X33279Y21866*
X33292Y21862*
X33304Y21856*
X33316Y21851*
X33327Y21844*
X33337Y21837*
X33347Y21829*
X33356Y21820*
X33363Y21811*
X33370Y21801*
X33376Y21791*
X33381Y21780*
X33386Y21769*
X33389Y21757*
X33391Y21745*
X33392Y21733*
X33393Y21720*
Y21710*
X33392Y21699*
X33390Y21689*
X33388Y21679*
X33385Y21669*
X33382Y21659*
X33378Y21650*
X33374Y21640*
X33363Y21621*
X33351Y21605*
X33337Y21590*
X33321Y21577*
X33304Y21567*
X33284Y21559*
X33263Y21552*
X33239Y21549*
X33235Y21548*
X33231*
X33225Y21547*
X33219*
X33212*
X33205Y21546*
X33196*
X33187*
X33178*
X33168*
X33157Y21545*
X33145*
X33133*
X33120Y21544*
X33106*
X33092*
X32887*
Y22149*
X33009Y21808D02*
Y21647D01*
X33122*
X33138*
X33152*
X33165*
X33176*
X33186Y21648*
X33194*
X33200Y21650*
X33206*
X33219Y21654*
X33231Y21659*
X33241Y21666*
X33250Y21674*
X33258Y21685*
X33263Y21697*
X33266Y21710*
X33267Y21726*
Y21739*
X33264Y21751*
X33259Y21762*
X33254Y21772*
X33246Y21781*
X33238Y21788*
X33228Y21795*
X33216Y21800*
X33209Y21802*
X33200Y21804*
X33189Y21805*
X33176Y21806*
X33162Y21807*
X33145Y21808*
X33128*
X33108*
X33009*
Y22048D02*
Y21909D01*
X33089*
X33106*
X33121*
X33135*
X33147*
X33157*
X33166Y21910*
X33173Y21911*
X33177*
X33192Y21914*
X33206Y21918*
X33217Y21924*
X33227Y21932*
X33235Y21942*
X33240Y21953*
X33244Y21966*
X33245Y21980*
X33244Y21993*
X33241Y22005*
X33236Y22016*
X33229Y22025*
X33220Y22033*
X33210Y22039*
X33197Y22044*
X33183Y22046*
X33178*
X33170Y22047*
X33160Y22048*
X33148*
X33134*
X33118*
X33099*
X33079*
X33009*
X33471Y21843D02*
Y21865D01*
X33473Y21887*
X33475Y21908*
X33478Y21928*
X33481Y21947*
X33486Y21964*
X33492Y21981*
X33499Y21997*
X33510Y22020*
X33523Y22041*
X33538Y22061*
X33555Y22080*
X33564Y22089*
X33573Y22097*
X33582Y22105*
X33592Y22112*
X33612Y22124*
X33633Y22135*
X33647Y22140*
X33662Y22145*
X33678Y22149*
X33694Y22153*
X33710Y22155*
X33727Y22157*
X33745Y22158*
X33763Y22159*
X33780Y22158*
X33796Y22157*
X33812Y22156*
X33827Y22153*
X33842Y22150*
X33856Y22147*
X33870Y22143*
X33884Y22138*
X33897Y22133*
X33910Y22126*
X33921Y22120*
X33934Y22112*
X33945Y22104*
X33956Y22095*
X33967Y22086*
X33977Y22076*
X33987Y22065*
X33996Y22054*
X34004Y22042*
X34012Y22031*
X34019Y22018*
X34026Y22005*
X34032Y21991*
X34037Y21977*
X34042Y21962*
X34046Y21947*
X34050Y21931*
X34053Y21915*
X34054Y21899*
X34056Y21882*
X34057Y21864*
Y21846*
Y21828*
X34056Y21810*
X34054Y21793*
X34053Y21777*
X34050Y21761*
X34046Y21745*
X34042Y21730*
X34037Y21715*
X34032Y21702*
X34026Y21688*
X34019Y21675*
X34012Y21662*
X34005Y21650*
X33996Y21638*
X33988Y21628*
X33978Y21617*
X33968Y21607*
X33957Y21598*
X33946Y21589*
X33934Y21581*
X33923Y21573*
X33910Y21567*
X33898Y21560*
X33885Y21555*
X33871Y21550*
X33857Y21546*
X33843Y21543*
X33828Y21540*
X33813Y21537*
X33797Y21536*
X33781Y21535*
X33765Y21534*
X33748Y21535*
X33732Y21536*
X33717Y21537*
X33701Y21540*
X33686Y21543*
X33672Y21546*
X33657Y21550*
X33644Y21555*
X33631Y21560*
X33618Y21566*
X33606Y21573*
X33594Y21581*
X33582Y21589*
X33571Y21597*
X33561Y21606*
X33551Y21617*
X33541Y21627*
X33532Y21638*
X33523Y21650*
X33516Y21661*
X33509Y21674*
X33502Y21687*
X33496Y21700*
X33491Y21714*
X33486Y21729*
X33482Y21744*
X33479Y21759*
X33476Y21775*
X33474Y21791*
X33472Y21808*
X33471Y21825*
Y21843*
X33597Y21847D02*
Y21822D01*
X33600Y21799*
X33603Y21777*
X33608Y21757*
X33615Y21738*
X33623Y21721*
X33633Y21706*
X33644Y21692*
X33656Y21679*
X33669Y21669*
X33683Y21660*
X33698Y21652*
X33714Y21646*
X33730Y21643*
X33747Y21640*
X33765Y21639*
X33783Y21640*
X33800Y21642*
X33816Y21646*
X33831Y21652*
X33846Y21660*
X33859Y21669*
X33872Y21679*
X33885Y21692*
X33895Y21705*
X33905Y21721*
X33913Y21738*
X33920Y21757*
X33925Y21777*
X33929Y21800*
X33931Y21823*
Y21849*
Y21873*
X33929Y21897*
X33925Y21919*
X33920Y21939*
X33914Y21957*
X33906Y21974*
X33897Y21990*
X33886Y22003*
X33874Y22015*
X33861Y22025*
X33848Y22034*
X33833Y22041*
X33817Y22047*
X33800Y22051*
X33783Y22054*
X33765*
X33746*
X33729Y22051*
X33712Y22047*
X33696Y22041*
X33682Y22034*
X33668Y22025*
X33655Y22015*
X33643Y22003*
X33632Y21989*
X33623Y21973*
X33615Y21957*
X33608Y21938*
X33603Y21918*
X33600Y21896*
X33597Y21872*
Y21847*
X34289Y21544D02*
Y22046D01*
X34110*
Y22149*
X34591*
Y22046*
X34412*
Y21544*
X34289*
X34805D02*
Y22046D01*
X34625*
Y22149*
X35106*
Y22046*
X34927*
Y21544*
X34805*
X35159Y21843D02*
Y21865D01*
X35160Y21887*
X35163Y21908*
X35166Y21928*
X35169Y21947*
X35174Y21964*
X35180Y21981*
X35186Y21997*
X35198Y22020*
X35211Y22041*
X35226Y22061*
X35243Y22080*
X35251Y22089*
X35261Y22097*
X35270Y22105*
X35280Y22112*
X35300Y22124*
X35320Y22135*
X35335Y22140*
X35350Y22145*
X35365Y22149*
X35381Y22153*
X35398Y22155*
X35415Y22157*
X35433Y22158*
X35451Y22159*
X35468Y22158*
X35483Y22157*
X35499Y22156*
X35515Y22153*
X35530Y22150*
X35544Y22147*
X35558Y22143*
X35571Y22138*
X35584Y22133*
X35597Y22126*
X35609Y22120*
X35622Y22112*
X35633Y22104*
X35644Y22095*
X35655Y22086*
X35665Y22076*
X35675Y22065*
X35684Y22054*
X35692Y22042*
X35700Y22031*
X35707Y22018*
X35714Y22005*
X35720Y21991*
X35725Y21977*
X35730Y21962*
X35734Y21947*
X35737Y21931*
X35740Y21915*
X35742Y21899*
X35744Y21882*
X35745Y21864*
Y21846*
Y21828*
X35744Y21810*
X35742Y21793*
X35740Y21777*
X35737Y21761*
X35734Y21745*
X35730Y21730*
X35725Y21715*
X35720Y21702*
X35714Y21688*
X35707Y21675*
X35700Y21662*
X35693Y21650*
X35684Y21638*
X35675Y21628*
X35665Y21617*
X35655Y21607*
X35645Y21598*
X35634Y21589*
X35622Y21581*
X35610Y21573*
X35598Y21567*
X35586Y21560*
X35573Y21555*
X35559Y21550*
X35545Y21546*
X35531Y21543*
X35516Y21540*
X35501Y21537*
X35485Y21536*
X35469Y21535*
X35453Y21534*
X35436Y21535*
X35420Y21536*
X35404Y21537*
X35389Y21540*
X35374Y21543*
X35359Y21546*
X35345Y21550*
X35332Y21555*
X35319Y21560*
X35306Y21566*
X35293Y21573*
X35281Y21581*
X35270Y21589*
X35259Y21597*
X35248Y21606*
X35238Y21617*
X35228Y21627*
X35219Y21638*
X35211Y21650*
X35204Y21661*
X35196Y21674*
X35190Y21687*
X35184Y21700*
X35179Y21714*
X35174Y21729*
X35170Y21744*
X35166Y21759*
X35163Y21775*
X35162Y21791*
X35160Y21808*
X35159Y21825*
Y21843*
X35284Y21847D02*
X35285Y21822D01*
X35287Y21799*
X35291Y21777*
X35296Y21757*
X35303Y21738*
X35311Y21721*
X35321Y21706*
X35332Y21692*
X35344Y21679*
X35357Y21669*
X35371Y21660*
X35386Y21652*
X35401Y21646*
X35417Y21643*
X35434Y21640*
X35453Y21639*
X35470Y21640*
X35488Y21642*
X35504Y21646*
X35519Y21652*
X35534Y21660*
X35547Y21669*
X35560Y21679*
X35573Y21692*
X35583Y21705*
X35593Y21721*
X35601Y21738*
X35607Y21757*
X35613Y21777*
X35616Y21800*
X35619Y21823*
Y21849*
Y21873*
X35616Y21897*
X35613Y21919*
X35608Y21939*
X35602Y21957*
X35594Y21974*
X35584Y21990*
X35574Y22003*
X35562Y22015*
X35549Y22025*
X35535Y22034*
X35521Y22041*
X35505Y22047*
X35488Y22051*
X35471Y22054*
X35453*
X35434*
X35417Y22051*
X35400Y22047*
X35384Y22041*
X35369Y22034*
X35356Y22025*
X35343Y22015*
X35331Y22003*
X35320Y21989*
X35310Y21973*
X35303Y21957*
X35296Y21938*
X35291Y21918*
X35287Y21896*
X35285Y21872*
X35284Y21847*
X35839Y21544D02*
Y22149D01*
X36022*
X36131Y21736*
X36238Y22149*
X36421*
Y21544*
X36308*
Y22020*
X36189Y21544*
X36071*
X35952Y22020*
Y21544*
X35839*
X37164Y21768D02*
X37282Y21730D01*
X37275Y21706*
X37266Y21683*
X37257Y21663*
X37246Y21644*
X37234Y21626*
X37221Y21610*
X37207Y21595*
X37192Y21582*
X37175Y21571*
X37158Y21562*
X37139Y21553*
X37120Y21546*
X37100Y21541*
X37078Y21537*
X37055Y21535*
X37031Y21534*
X37017Y21535*
X37002Y21536*
X36988Y21537*
X36974Y21540*
X36960Y21543*
X36947Y21546*
X36934Y21550*
X36922Y21555*
X36910Y21560*
X36898Y21566*
X36886Y21573*
X36875Y21581*
X36864Y21589*
X36854Y21597*
X36844Y21606*
X36833Y21617*
X36824Y21627*
X36815Y21638*
X36807Y21650*
X36800Y21661*
X36793Y21674*
X36786Y21687*
X36781Y21700*
X36776Y21714*
X36771Y21728*
X36767Y21743*
X36764Y21758*
X36761Y21774*
X36759Y21790*
X36757Y21807*
Y21824*
X36756Y21841*
X36757Y21860*
Y21878*
X36759Y21895*
X36761Y21912*
X36764Y21929*
X36767Y21945*
X36771Y21960*
X36776Y21975*
X36781Y21989*
X36787Y22003*
X36793Y22016*
X36800Y22029*
X36807Y22042*
X36816Y22054*
X36825Y22065*
X36834Y22075*
X36844Y22085*
X36854Y22095*
X36865Y22104*
X36876Y22111*
X36887Y22119*
X36899Y22126*
X36911Y22132*
X36924Y22138*
X36937Y22143*
X36950Y22147*
X36964Y22150*
X36978Y22153*
X36993Y22156*
X37008Y22157*
X37023Y22158*
X37039Y22159*
X37066Y22157*
X37092Y22155*
X37116Y22149*
X37139Y22142*
X37161Y22133*
X37181Y22121*
X37201Y22108*
X37219Y22093*
X37229Y22082*
X37238Y22071*
X37247Y22059*
X37255Y22046*
X37262Y22031*
X37269Y22016*
X37275Y21999*
X37281Y21981*
X37160Y21953*
X37157Y21964*
X37153Y21975*
X37149Y21985*
X37144Y21994*
X37138Y22003*
X37131Y22012*
X37123Y22020*
X37115Y22027*
X37107Y22033*
X37097Y22039*
X37088Y22044*
X37078Y22047*
X37067Y22050*
X37056Y22052*
X37045Y22054*
X37032*
X37017*
X37001Y22051*
X36986Y22047*
X36972Y22042*
X36959Y22035*
X36946Y22027*
X36934Y22018*
X36924Y22006*
X36914Y21993*
X36906Y21978*
X36898Y21961*
X36893Y21943*
X36888Y21922*
X36884Y21901*
X36882Y21876*
Y21850*
Y21823*
X36884Y21797*
X36888Y21774*
X36893Y21752*
X36898Y21733*
X36905Y21716*
X36913Y21700*
X36923Y21687*
X36934Y21676*
X36945Y21666*
X36957Y21658*
X36970Y21651*
X36984Y21645*
X36999Y21642*
X37014Y21640*
X37030Y21639*
X37042Y21640*
X37054Y21641*
X37065Y21643*
X37076Y21647*
X37086Y21651*
X37096Y21656*
X37105Y21663*
X37114Y21670*
X37122Y21679*
X37130Y21688*
X37138Y21698*
X37144Y21710*
X37150Y21723*
X37155Y21736*
X37160Y21752*
X37164Y21768*
X37362Y21843D02*
X37363Y21865D01*
X37364Y21887*
X37366Y21908*
X37369Y21928*
X37373Y21947*
X37377Y21964*
X37383Y21981*
X37390Y21997*
X37401Y22020*
X37414Y22041*
X37429Y22061*
X37446Y22080*
X37455Y22089*
X37464Y22097*
X37474Y22105*
X37483Y22112*
X37503Y22124*
X37524Y22135*
X37539Y22140*
X37553Y22145*
X37569Y22149*
X37585Y22153*
X37601Y22155*
X37618Y22157*
X37636Y22158*
X37654Y22159*
X37671Y22158*
X37687Y22157*
X37703Y22156*
X37718Y22153*
X37733Y22150*
X37747Y22147*
X37761Y22143*
X37775Y22138*
X37788Y22133*
X37801Y22126*
X37813Y22120*
X37825Y22112*
X37836Y22104*
X37847Y22095*
X37858Y22086*
X37868Y22076*
X37878Y22065*
X37887Y22054*
X37895Y22042*
X37904Y22031*
X37911Y22018*
X37917Y22005*
X37923Y21991*
X37928Y21977*
X37933Y21962*
X37937Y21947*
X37941Y21931*
X37944Y21915*
X37945Y21899*
X37947Y21882*
X37948Y21864*
Y21846*
Y21828*
X37947Y21810*
X37945Y21793*
X37944Y21777*
X37941Y21761*
X37937Y21745*
X37933Y21730*
X37928Y21715*
X37923Y21702*
X37917Y21688*
X37911Y21675*
X37904Y21662*
X37896Y21650*
X37888Y21638*
X37879Y21628*
X37869Y21617*
X37859Y21607*
X37848Y21598*
X37837Y21589*
X37826Y21581*
X37814Y21573*
X37801Y21567*
X37789Y21560*
X37776Y21555*
X37762Y21550*
X37748Y21546*
X37734Y21543*
X37719Y21540*
X37704Y21537*
X37689Y21536*
X37673Y21535*
X37656Y21534*
X37640Y21535*
X37623Y21536*
X37608Y21537*
X37592Y21540*
X37577Y21543*
X37563Y21546*
X37549Y21550*
X37535Y21555*
X37522Y21560*
X37509Y21566*
X37497Y21573*
X37485Y21581*
X37474Y21589*
X37462Y21597*
X37452Y21606*
X37442Y21617*
X37432Y21627*
X37423Y21638*
X37415Y21650*
X37407Y21661*
X37400Y21674*
X37393Y21687*
X37387Y21700*
X37382Y21714*
X37377Y21729*
X37373Y21744*
X37370Y21759*
X37367Y21775*
X37365Y21791*
X37363Y21808*
Y21825*
X37362Y21843*
X37488Y21847D02*
Y21822D01*
X37491Y21799*
X37494Y21777*
X37500Y21757*
X37506Y21738*
X37514Y21721*
X37524Y21706*
X37535Y21692*
X37547Y21679*
X37560Y21669*
X37575Y21660*
X37589Y21652*
X37605Y21646*
X37621Y21643*
X37638Y21640*
X37656Y21639*
X37674Y21640*
X37691Y21642*
X37707Y21646*
X37722Y21652*
X37737Y21660*
X37751Y21669*
X37764Y21679*
X37776Y21692*
X37787Y21705*
X37796Y21721*
X37804Y21738*
X37811Y21757*
X37816Y21777*
X37820Y21800*
X37822Y21823*
X37823Y21849*
X37822Y21873*
X37820Y21897*
X37816Y21919*
X37811Y21939*
X37805Y21957*
X37797Y21974*
X37788Y21990*
X37777Y22003*
X37765Y22015*
X37752Y22025*
X37739Y22034*
X37724Y22041*
X37708Y22047*
X37692Y22051*
X37674Y22054*
X37656*
X37637*
X37620Y22051*
X37604Y22047*
X37588Y22041*
X37573Y22034*
X37559Y22025*
X37546Y22015*
X37534Y22003*
X37523Y21989*
X37514Y21973*
X37506Y21957*
X37500Y21938*
X37494Y21918*
X37491Y21896*
X37488Y21872*
Y21847*
X38044Y21544D02*
Y22149D01*
X38240*
X38253*
X38266*
X38279Y22148*
X38290*
X38302Y22147*
X38312*
X38322*
X38331Y22146*
X38340*
X38348Y22145*
X38355Y22144*
X38362Y22143*
X38369*
X38375Y22142*
X38380Y22140*
X38384*
X38397Y22136*
X38409Y22131*
X38421Y22125*
X38432Y22118*
X38442Y22110*
X38452Y22101*
X38462Y22091*
X38471Y22080*
X38479Y22068*
X38486Y22056*
X38492Y22042*
X38497Y22028*
X38501Y22013*
X38504Y21997*
X38505Y21980*
X38506Y21963*
Y21949*
X38505Y21936*
X38503Y21924*
X38501Y21912*
X38498Y21900*
X38495Y21889*
X38491Y21879*
X38486Y21869*
X38475Y21851*
X38463Y21836*
X38449Y21821*
X38434Y21810*
X38419Y21800*
X38403Y21792*
X38388Y21785*
X38372Y21781*
X38360Y21779*
X38348Y21777*
X38333Y21776*
X38318Y21775*
X38302Y21774*
X38284Y21773*
X38266Y21772*
X38245*
X38166*
Y21544*
X38044*
X38166Y22046D02*
Y21875D01*
X38232*
X38250*
X38266*
X38280Y21876*
X38293Y21877*
X38304Y21878*
X38313Y21880*
X38322Y21882*
X38329Y21884*
X38340Y21889*
X38350Y21896*
X38359Y21904*
X38367Y21914*
X38372Y21924*
X38377Y21935*
X38380Y21948*
Y21961*
Y21969*
X38379Y21977*
X38377Y21984*
X38375Y21991*
X38372Y21997*
X38369Y22004*
X38365Y22010*
X38361Y22015*
X38351Y22025*
X38339Y22033*
X38326Y22039*
X38312Y22042*
X38306Y22044*
X38299*
X38290Y22045*
X38280*
X38268Y22046*
X38255*
X38241*
X38225*
X38166*
X38607Y21544D02*
Y22149D01*
X38802*
X38816*
X38829*
X38841Y22148*
X38853*
X38864Y22147*
X38874*
X38884*
X38894Y22146*
X38903*
X38911Y22145*
X38918Y22144*
X38925Y22143*
X38932*
X38938Y22142*
X38942Y22140*
X38947*
X38959Y22136*
X38972Y22131*
X38984Y22125*
X38995Y22118*
X39005Y22110*
X39015Y22101*
X39025Y22091*
X39034Y22080*
X39042Y22068*
X39049Y22056*
X39055Y22042*
X39060Y22028*
X39064Y22013*
X39066Y21997*
X39068Y21980*
X39069Y21963*
Y21949*
X39068Y21936*
X39066Y21924*
X39064Y21912*
X39061Y21900*
X39057Y21889*
X39053Y21879*
X39049Y21869*
X39038Y21851*
X39026Y21836*
X39012Y21821*
X38997Y21810*
X38982Y21800*
X38966Y21792*
X38951Y21785*
X38935Y21781*
X38923Y21779*
X38910Y21777*
X38896Y21776*
X38881Y21775*
X38865Y21774*
X38847Y21773*
X38828Y21772*
X38808*
X38729*
Y21544*
X38607*
X38729Y22046D02*
Y21875D01*
X38795*
X38812*
X38828*
X38843Y21876*
X38856Y21877*
X38867Y21878*
X38876Y21880*
X38884Y21882*
X38892Y21884*
X38903Y21889*
X38913Y21896*
X38922Y21904*
X38929Y21914*
X38935Y21924*
X38939Y21935*
X38942Y21948*
X38943Y21961*
Y21969*
X38942Y21977*
X38940Y21984*
X38938Y21991*
X38935Y21997*
X38932Y22004*
X38928Y22010*
X38923Y22015*
X38913Y22025*
X38902Y22033*
X38889Y22039*
X38875Y22042*
X38869Y22044*
X38861*
X38853Y22045*
X38843*
X38831Y22046*
X38818*
X38804*
X38788*
X38729*
X39170Y21544D02*
Y22149D01*
X39617*
Y22046*
X39292*
Y21912*
X39594*
Y21810*
X39292*
Y21647*
X39629*
Y21544*
X39170*
X39732D02*
Y22149D01*
X39989*
X40012*
X40034Y22147*
X40054Y22146*
X40073Y22144*
X40089Y22142*
X40105Y22139*
X40118Y22136*
X40130Y22132*
X40141Y22128*
X40151Y22123*
X40160Y22117*
X40169Y22110*
X40178Y22102*
X40185Y22094*
X40193Y22084*
X40200Y22074*
X40206Y22064*
X40211Y22053*
X40216Y22042*
X40220Y22030*
X40223Y22018*
X40224Y22005*
X40226Y21992*
Y21979*
Y21963*
X40224Y21947*
X40221Y21931*
X40216Y21917*
X40211Y21904*
X40204Y21891*
X40195Y21878*
X40187Y21867*
X40176Y21856*
X40164Y21847*
X40151Y21838*
X40136Y21831*
X40121Y21824*
X40105Y21819*
X40086Y21814*
X40067Y21811*
X40086Y21799*
X40103Y21787*
X40119Y21774*
X40132Y21760*
X40139Y21753*
X40146Y21744*
X40154Y21733*
X40162Y21722*
X40171Y21709*
X40181Y21695*
X40191Y21679*
X40201Y21662*
X40275Y21544*
X40129*
X40042Y21676*
X40030Y21693*
X40020Y21708*
X40011Y21722*
X40002Y21733*
X39995Y21744*
X39988Y21752*
X39982Y21759*
X39978Y21765*
X39969Y21773*
X39960Y21780*
X39950Y21785*
X39941Y21790*
X39936Y21791*
X39930Y21793*
X39923Y21794*
X39916Y21795*
X39908*
X39899Y21796*
X39890Y21797*
X39880*
X39855*
Y21544*
X39732*
X39855Y21893D02*
X39944D01*
X39966*
X39984Y21894*
X40001*
X40016Y21895*
X40028Y21896*
X40039Y21897*
X40047Y21899*
X40054Y21900*
X40064Y21905*
X40073Y21911*
X40081Y21918*
X40088Y21926*
X40093Y21935*
X40097Y21946*
X40100Y21958*
Y21971*
X40099Y21986*
X40096Y21999*
X40092Y22010*
X40084Y22020*
X40075Y22029*
X40064Y22036*
X40053Y22041*
X40038Y22044*
X40034Y22045*
X40027*
X40019Y22046*
X40009*
X39997*
X39983*
X39967*
X39950*
X39855*
Y21893*
G54D13*
X33162Y13102D02*
X33156Y13153D01*
X33140Y13194*
X33112Y13219*
X33071Y13231*
Y13260*
X33502*
Y13231*
X33461Y13216*
X33433Y13191*
X33414Y13153*
X33408Y13102*
Y12107*
X33414Y12057*
X33433Y12019*
X33461Y11991*
X33502Y11978*
Y11950*
X33071*
Y11978*
X33093Y11981*
X33112Y11991*
X33128Y12000*
X33140Y12016*
X33150Y12035*
X33156Y12057*
X33159Y12079*
X33162Y12107*
Y13102*
X34510Y14983D02*
X34743D01*
X34551Y14132*
X34324*
X34510Y14983*
X34529Y11937D02*
X34491D01*
X33824Y12646*
Y12107*
X33827Y12057*
X33846Y12019*
X33874Y11991*
X33912Y11978*
Y11950*
X33603*
Y11978*
X33641Y11994*
X33669Y12019*
X33685Y12060*
X33691Y12107*
Y12781*
X33685Y12831*
X33669Y12866*
X33641Y12894*
X33603Y12910*
Y12935*
X33887*
X34397Y12378*
Y12778*
X34391Y12828*
X34375Y12866*
X34346Y12894*
X34309Y12910*
Y12935*
X34617*
Y12910*
X34580Y12894*
X34551Y12866*
X34532Y12828*
X34529Y12778*
Y11937*
X34671Y15301D02*
X34699D01*
X34724Y15294*
X34746Y15285*
X34765Y15269*
X34778Y15254*
X34787Y15231*
X34794Y15206*
X34797Y15178*
X34794Y15146*
X34787Y15121*
X34778Y15099*
X34765Y15080*
X34746Y15068*
X34724Y15058*
X34699Y15052*
X34671Y15049*
X34639Y15052*
X34614Y15058*
X34592Y15068*
X34573Y15080*
X34557Y15099*
X34548Y15121*
X34542Y15146*
X34539Y15178*
X34542Y15206*
X34548Y15231*
X34557Y15254*
X34573Y15269*
X34592Y15285*
X34614Y15294*
X34639Y15301*
X34671*
X34872Y15083D02*
X34951D01*
X35024Y15080*
X35093Y15077*
X35153Y15071*
X35206Y15065*
X35254Y15055*
X35298Y15046*
X35332Y15033*
X35329Y14986*
Y14945*
X35326Y14907*
Y14879*
X35323Y14854*
Y14835*
Y14822*
Y14816*
Y14759*
X35329Y14709*
X35339Y14668*
X35351Y14630*
X35370Y14598*
X35392Y14576*
X35417Y14557*
X35449Y14545*
X35458Y14444*
Y14343*
X35452Y14271*
X35443Y14205*
X35433Y14142*
X35420Y14088*
X35339Y14057*
X35260Y14028*
X35200Y14000*
X35140Y13965*
X35077Y13931*
X35017Y13890*
X34957Y13843*
X34907Y13798*
X34863Y13748*
X34828Y13701*
X34800Y13650*
X34781Y13600*
X34769Y13550*
X34765Y13499*
X34769Y13436*
X34778Y13376*
X34791Y13326*
X34809Y13279*
X34772Y13257*
X34728Y13244*
X34683Y13241*
X34633*
X34576Y13247*
X34517Y13263*
X34463Y13288*
X34413Y13323*
X34362Y13367*
X34315Y13420*
X34268Y13480*
X34227Y13553*
X34145Y13723*
X34063Y13893*
X34041Y13931*
X34019Y13965*
X33997Y13994*
X33975Y14019*
X33953Y14038*
X33931Y14050*
X33906Y14057*
X33880Y14060*
X33846Y14057*
X33811Y14041*
X33776Y14016*
X33745Y13981*
X33713Y13943*
X33682Y13918*
X33654Y13902*
X33625Y13899*
X33603*
X33584Y13906*
X33562Y13915*
X33543Y13931*
X33524Y13946*
X33506Y13969*
X33487Y13994*
X33468Y14025*
X33452Y14060*
X33430Y14104*
X33405Y14157*
X33373Y14217*
X33367Y14230*
X33357Y14243*
X33342Y14261*
X33323Y14283*
X33301Y14306*
X33276Y14334*
X33244Y14365*
X33213Y14400*
X33184Y14428*
X33159Y14457*
X33137Y14485*
X33118Y14517*
X33106Y14548*
X33093Y14580*
X33087Y14611*
X33080Y14646*
X33704*
Y15531*
X34290*
Y15159*
X34312Y15140*
X34340Y15128*
X34381Y15115*
X34428Y15106*
X34365Y14809*
X34176*
X34113Y14545*
X34302*
X34236Y14220*
X34224Y14154*
X34217Y14094*
Y14044*
X34227Y13997*
X34239Y13959*
X34258Y13928*
X34280Y13899*
X34306Y13874*
X34334Y13858*
X34369Y13846*
X34409Y13836*
X34450*
X34526Y13839*
X34605Y13852*
X34687Y13871*
X34769Y13899*
X34828Y14129*
X34809Y14126*
X34787Y14123*
X34759Y14120*
X34724*
X34696Y14126*
X34677Y14139*
X34671Y14164*
X34674Y14198*
X34753Y14545*
X34942*
X34998Y14809*
X34809*
X34872Y15083*
X35093Y12954D02*
X35150Y12951D01*
X35203Y12945*
X35260Y12932*
X35313Y12917*
X35329*
X35335Y12923*
X35345Y12942*
X35351Y12948*
X35367Y12954*
X35439Y12715*
X35411Y12706*
X35383Y12737*
X35351Y12762*
X35320Y12784*
X35282Y12803*
X35241Y12819*
X35200Y12828*
X35156Y12835*
X35106*
X35061*
X35020Y12828*
X34986Y12819*
X34957Y12806*
X34935Y12787*
X34923Y12769*
X34913Y12743*
X34910Y12715*
Y12696*
X34920Y12680*
X34932Y12665*
X34948Y12649*
X34970Y12633*
X34998Y12620*
X35030Y12608*
X35068Y12598*
X35124Y12580*
X35175Y12564*
X35222Y12548*
X35260Y12535*
X35294Y12526*
X35323Y12513*
X35342Y12507*
X35357Y12498*
X35395Y12476*
X35427Y12450*
X35455Y12422*
X35477Y12391*
X35493Y12359*
X35506Y12321*
X35515Y12283*
Y12243*
Y12205*
X35509Y12170*
X35502Y12139*
X35490Y12110*
X35474Y12082*
X35455Y12057*
X35436Y12035*
X35411Y12013*
X35383Y11997*
X35351Y11981*
X35317Y11969*
X35279Y11956*
X35238Y11946*
X35194Y11943*
X35146Y11937*
X35093*
X35030Y11940*
X34964Y11946*
X34894Y11956*
X34822Y11972*
X34813Y11975*
X34803Y11972*
X34797Y11962*
X34791Y11950*
X34781Y11943*
X34762Y11937*
X34658Y12224*
X34690Y12236*
X34728Y12195*
X34769Y12157*
X34809Y12126*
X34857Y12101*
X34907Y12079*
X34961Y12066*
X35017Y12057*
X35077Y12054*
X35128Y12057*
X35172Y12063*
X35206Y12072*
X35238Y12088*
X35260Y12107*
X35279Y12129*
X35288Y12157*
X35291Y12189*
X35288Y12211*
X35282Y12230*
X35269Y12249*
X35254Y12268*
X35231Y12283*
X35206Y12299*
X35175Y12312*
X35140Y12324*
X35077Y12343*
X35024Y12359*
X34976Y12375*
X34939Y12387*
X34907Y12400*
X34882Y12406*
X34866Y12413*
X34857Y12419*
X34819Y12441*
X34787Y12463*
X34762Y12491*
X34740Y12520*
X34724Y12554*
X34712Y12589*
X34706Y12627*
X34702Y12665*
X34706Y12696*
X34709Y12728*
X34718Y12756*
X34731Y12784*
X34750Y12809*
X34769Y12831*
X34794Y12854*
X34819Y12876*
X34882Y12910*
X34945Y12935*
X35017Y12948*
X35093Y12954*
X35855Y12740D02*
X35852Y12775D01*
X35843Y12800*
X35827Y12813*
X35805Y12819*
X35742*
X35691Y12813*
X35654Y12809*
X35622Y12800*
X35600Y12787*
X35572Y12765*
X35543Y12737*
X35512Y12702*
X35483Y12709*
X35562Y12935*
X36375*
X36450Y12709*
X36428Y12702*
X36397Y12737*
X36365Y12765*
X36340Y12787*
X36318Y12800*
X36290Y12809*
X36252Y12813*
X36202Y12819*
X36142*
X36117Y12813*
X36098Y12800*
X36085Y12775*
X36082Y12740*
Y12107*
X36088Y12057*
X36104Y12019*
X36132Y11991*
X36173Y11978*
Y11950*
X35767*
Y11978*
X35808Y11994*
X35833Y12022*
X35852Y12060*
X35855Y12107*
Y12740*
X36712Y13417D02*
Y13389D01*
X36718Y13364*
X36724Y13342*
X36734Y13326*
X36750Y13310*
X36765Y13298*
X36784Y13291*
X36806Y13285*
Y13260*
X36378*
Y13285*
X36397Y13291*
X36416Y13298*
X36428Y13310*
X36441Y13326*
X36450Y13342*
X36457Y13364*
X36463Y13389*
Y13417*
Y14365*
X36457Y14391*
X36441Y14406*
X36413Y14416*
X36375Y14422*
X36331*
X36293Y14419*
X36258*
X36227*
X36198Y14416*
X36173Y14413*
X36154Y14409*
X36135Y14406*
X36098Y14397*
X36060Y14381*
X36028Y14359*
X36000Y14331*
X35978Y14340*
X36054Y14570*
X37124*
X37200Y14340*
X37172Y14331*
X37146Y14359*
X37115Y14381*
X37080Y14397*
X37043Y14406*
X37027Y14409*
X37005Y14413*
X36980Y14416*
X36951Y14419*
X36920*
X36885*
X36847Y14422*
X36806*
X36765Y14416*
X36734Y14406*
X36718Y14391*
X36712Y14365*
Y13417*
X36765Y12494D02*
X36904D01*
X36961Y12498*
X37008Y12504*
X37049Y12517*
X37083Y12535*
X37109Y12561*
X37128Y12589*
X37137Y12624*
X37143Y12661*
X37140Y12699*
X37131Y12731*
X37112Y12756*
X37090Y12778*
X37061Y12797*
X37027Y12809*
X36983Y12816*
X36935Y12819*
X36838*
X36806Y12813*
X36781Y12800*
X36769Y12775*
X36765Y12740*
Y12494*
X36967Y13260D02*
Y13285D01*
X37008Y13301*
X37033Y13329*
X37052Y13370*
X37055Y13420*
Y14091*
X37052Y14142*
X37033Y14180*
X37008Y14205*
X36967Y14217*
Y14246*
X37735*
X37808Y14038*
X37783Y14025*
X37764Y14047*
X37739Y14069*
X37710Y14088*
X37682Y14101*
X37650Y14113*
X37616Y14123*
X37578Y14126*
X37537Y14129*
X37348*
X37317Y14123*
X37294Y14110*
X37282Y14088*
X37276Y14057*
Y13839*
X37531*
X37559*
X37584Y13843*
X37606Y13849*
X37625Y13858*
X37638Y13868*
X37650Y13880*
X37657Y13896*
X37663Y13912*
X37688*
Y13647*
X37663*
X37657Y13663*
X37650Y13676*
X37638Y13688*
X37625Y13698*
X37606Y13704*
X37584Y13710*
X37559Y13713*
X37531*
X37276*
Y13452*
X37279Y13427*
X37282Y13408*
X37288Y13395*
X37294Y13389*
X37317Y13380*
X37348Y13376*
X37581*
X37625Y13380*
X37663Y13383*
X37701Y13392*
X37735Y13402*
X37767Y13417*
X37795Y13436*
X37820Y13455*
X37843Y13480*
X37865Y13471*
X37789Y13260*
X36967*
X36998Y12935D02*
X37083Y12932D01*
X37159Y12920*
X37222Y12901*
X37276Y12872*
X37313Y12838*
X37342Y12794*
X37361Y12743*
X37367Y12683*
X37361Y12636*
X37348Y12592*
X37329Y12554*
X37298Y12520*
X37260Y12491*
X37216Y12466*
X37159Y12447*
X37096Y12431*
X37131Y12416*
X37162Y12394*
X37194Y12369*
X37228Y12340*
X37257Y12306*
X37288Y12268*
X37320Y12224*
X37348Y12173*
X37373Y12132*
X37398Y12098*
X37420Y12066*
X37443Y12041*
X37465Y12022*
X37487Y12006*
X37506Y11997*
X37524*
Y11972*
X37493Y11959*
X37461Y11950*
X37427Y11943*
X37392*
X37354*
X37317Y11950*
X37285Y11959*
X37250Y11969*
X37222Y11984*
X37194Y12006*
X37169Y12028*
X37146Y12054*
X37115Y12113*
X37087Y12170*
X37058Y12220*
X37033Y12268*
X37017Y12296*
X36998Y12318*
X36983Y12334*
X36964Y12350*
X36942Y12362*
X36923Y12372*
X36901Y12375*
X36879Y12378*
X36765*
Y12107*
X36769Y12057*
X36787Y12019*
X36816Y11991*
X36854Y11978*
Y11950*
X36457*
Y11978*
X36494Y11991*
X36523Y12019*
X36539Y12057*
X36545Y12107*
Y12778*
X36539Y12828*
X36523Y12866*
X36494Y12894*
X36457Y12910*
Y12935*
X36998*
X38293Y13735D02*
X38009Y14110D01*
X37975Y14154*
X37937Y14186*
X37902Y14208*
X37865Y14217*
Y14246*
X38324*
Y14217*
X38299Y14214*
X38280Y14202*
X38271Y14186*
X38265Y14164*
X38271Y14135*
X38290Y14104*
X38422Y13906*
X38583Y14123*
X38595Y14139*
X38602Y14157*
X38605Y14170*
X38602Y14186*
X38595Y14198*
X38586Y14208*
X38570Y14214*
X38551Y14217*
Y14246*
X38917*
Y14217*
X38869Y14205*
X38828Y14186*
X38787Y14154*
X38750Y14113*
X38513Y13795*
X38791Y13392*
X38825Y13351*
X38863Y13313*
X38872Y13326*
X38882Y13339*
X38894Y13357*
X38907Y13380*
X38923Y13405*
X38939Y13430*
X38954Y13461*
X38973Y13496*
X39291Y14246*
X39477*
X39833Y13398*
X39855Y13354*
X39883Y13323*
X39918Y13298*
X39959Y13285*
Y13257*
X39531*
Y13285*
X39562Y13288*
X39581Y13301*
X39594Y13320*
X39600Y13348*
X39594Y13373*
X39584Y13405*
X39531Y13537*
X39121*
X39065Y13398*
X39058Y13373*
X39055Y13348*
X39061Y13320*
X39074Y13301*
X39096Y13288*
X39128Y13285*
Y13257*
X38488*
Y13285*
X38517Y13288*
X38535Y13298*
X38548Y13317*
X38551Y13339*
X38548Y13370*
X38529Y13405*
X38378Y13613*
X38208Y13386*
X38192Y13354*
X38186Y13329*
X38189Y13310*
X38198Y13294*
X38214Y13288*
X38239Y13285*
Y13257*
X37865*
Y13285*
X37915Y13298*
X37962Y13323*
X38003Y13357*
X38047Y13408*
X38293Y13735*
X38400Y12277D02*
X38397Y12233D01*
X38391Y12189*
X38378Y12151*
X38362Y12113*
X38340Y12079*
X38315Y12050*
X38283Y12022*
X38249Y12000*
X38189Y11969*
X38123Y11950*
X38054Y11937*
X37975Y11934*
X37893Y11937*
X37817Y11950*
X37748Y11969*
X37685Y12000*
X37647Y12022*
X37616Y12050*
X37591Y12082*
X37569Y12113*
X37550Y12151*
X37537Y12189*
X37531Y12233*
X37528Y12277*
Y12778*
X37521Y12828*
X37506Y12869*
X37477Y12894*
X37439Y12910*
Y12935*
X37839*
Y12910*
X37798Y12894*
X37770Y12869*
X37754Y12828*
X37748Y12778*
Y12277*
X37751Y12227*
X37764Y12180*
X37786Y12142*
X37811Y12110*
X37849Y12085*
X37893Y12069*
X37943Y12057*
X38003Y12054*
X38066Y12057*
X38120Y12069*
X38167Y12085*
X38205Y12110*
X38233Y12142*
X38252Y12180*
X38265Y12227*
X38271Y12277*
Y12778*
X38265Y12828*
X38246Y12866*
X38217Y12894*
X38180Y12910*
Y12935*
X38488*
Y12910*
X38450Y12894*
X38422Y12866*
X38403Y12828*
X38400Y12778*
Y12277*
X39329Y14054D02*
X39172Y13654D01*
X39487*
X39329Y14054*
X39729Y12107D02*
X39735Y12057D01*
X39754Y12016*
X39783Y11991*
X39824Y11975*
Y11950*
X39417*
Y11975*
X39439Y11981*
X39458Y11987*
X39474Y12000*
X39487Y12016*
X39496Y12031*
X39502Y12054*
X39509Y12079*
Y12107*
Y12580*
X39150Y11931*
X39128*
X38759Y12595*
Y12107*
X38765Y12057*
X38781Y12016*
X38813Y11991*
X38854Y11975*
Y11950*
X38545*
Y11975*
X38564Y11981*
X38583Y11987*
X38595Y12000*
X38608Y12016*
X38617Y12031*
X38624Y12054*
X38627Y12079*
X38630Y12107*
Y12778*
X38624Y12828*
X38608Y12866*
X38583Y12894*
X38545Y12907*
Y12935*
X38857*
X39184Y12287*
X39550Y12935*
X39820*
Y12907*
X39780Y12894*
X39751Y12866*
X39735Y12828*
X39729Y12778*
Y12107*
X39934Y11950D02*
Y11975D01*
X39953Y11981*
X39972Y11991*
X39987Y12003*
X40000Y12019*
X40016Y12060*
X40022Y12110*
Y12778*
X40016Y12828*
X40000Y12866*
X39972Y12894*
X39934Y12907*
Y12935*
X40699*
X40778Y12724*
X40750Y12712*
X40728Y12737*
X40706Y12759*
X40677Y12778*
X40649Y12791*
X40617Y12803*
X40583Y12809*
X40548Y12816*
X40507Y12819*
X40315*
X40283Y12813*
X40265Y12797*
X40252Y12775*
X40246Y12740*
Y12529*
X40498*
X40526*
X40551Y12535*
X40570Y12539*
X40589Y12548*
X40605Y12557*
X40614Y12570*
X40624Y12586*
X40627Y12602*
X40655*
Y12331*
X40627*
X40624Y12346*
X40614Y12362*
X40605Y12375*
X40589Y12384*
X40570Y12394*
X40551Y12400*
X40526Y12403*
X40498*
X40246*
Y12142*
X40249Y12120*
X40252Y12101*
X40255Y12088*
X40261Y12079*
X40283Y12069*
X40315Y12066*
X40548*
X40589*
X40630Y12072*
X40668Y12079*
X40702Y12091*
X40734Y12104*
X40762Y12123*
X40787Y12145*
X40809Y12170*
X40831Y12161*
X40759Y11950*
X39934*
X40372Y14258D02*
X40431Y14255D01*
X40488Y14249*
X40542Y14236*
X40598Y14220*
X40611*
X40617Y14230*
X40624Y14246*
X40630*
X40646Y14252*
X40721Y14019*
X40696Y14009*
X40668Y14041*
X40633Y14066*
X40598Y14088*
X40561Y14107*
X40523Y14123*
X40479Y14132*
X40435Y14139*
X40384Y14142*
X40340Y14139*
X40299Y14132*
X40265Y14123*
X40239Y14110*
X40217Y14094*
X40202Y14072*
X40192Y14047*
X40189Y14019*
X40192Y14003*
X40198Y13984*
X40211Y13969*
X40227Y13953*
X40249Y13940*
X40277Y13924*
X40309Y13915*
X40346Y13902*
X40403Y13887*
X40454Y13871*
X40498Y13855*
X40535Y13843*
X40570Y13830*
X40598Y13820*
X40620Y13811*
X40639Y13805*
X40674Y13780*
X40706Y13754*
X40734Y13726*
X40756Y13694*
X40772Y13663*
X40784Y13625*
X40794Y13587*
Y13546*
Y13509*
X40787Y13474*
X40781Y13443*
X40769Y13411*
X40753Y13386*
X40737Y13361*
X40715Y13339*
X40690Y13317*
X40661Y13298*
X40630Y13282*
X40595Y13269*
X40557Y13260*
X40517Y13250*
X40472Y13244*
X40422Y13241*
X40372*
X40302Y13244*
X40236Y13250*
X40170Y13260*
X40101Y13276*
X40091Y13279*
X40082Y13276*
X40076Y13266*
X40072Y13254*
X40069Y13250*
X40063Y13247*
X40054Y13244*
X40038Y13241*
X39937Y13528*
X39965Y13540*
X40003Y13499*
X40044Y13461*
X40088Y13430*
X40135Y13402*
X40186Y13383*
X40239Y13367*
X40296Y13361*
X40353Y13357*
X40403*
X40447Y13364*
X40485Y13376*
X40517Y13392*
X40539Y13411*
X40557Y13433*
X40567Y13461*
X40570Y13493*
X40567Y13515*
X40561Y13534*
X40548Y13553*
X40532Y13572*
X40510Y13587*
X40485Y13603*
X40454Y13616*
X40416Y13628*
X40356Y13647*
X40302Y13663*
X40255Y13679*
X40214Y13691*
X40183Y13704*
X40161Y13710*
X40142Y13717*
X40132Y13723*
X40098Y13742*
X40066Y13767*
X40041Y13795*
X40019Y13824*
X40003Y13855*
X39991Y13890*
X39984Y13928*
X39981Y13969*
X39984Y14000*
X39987Y14031*
X39997Y14060*
X40009Y14085*
X40025Y14110*
X40047Y14135*
X40069Y14157*
X40098Y14180*
X40157Y14214*
X40224Y14236*
X40296Y14252*
X40372Y14258*
X41783Y11937D02*
X41748D01*
X41083Y12646*
Y12107*
X41090Y12057*
X41106Y12016*
X41134Y11991*
X41172Y11975*
Y11950*
X40863*
Y11975*
X40882Y11981*
X40901Y11987*
X40917Y12000*
X40929Y12016*
X40939Y12031*
X40948Y12054*
X40951Y12079*
Y12107*
Y12781*
X40948Y12828*
X40929Y12866*
X40901Y12891*
X40863Y12907*
Y12935*
X41146*
X41654Y12378*
Y12778*
X41647Y12828*
X41631Y12866*
X41603Y12891*
X41565Y12907*
Y12935*
X41877*
Y12907*
X41836Y12891*
X41808Y12866*
X41789Y12828*
X41783Y12778*
Y11937*
X42252Y12740D02*
X42249Y12775D01*
X42236Y12797*
X42217Y12813*
X42192Y12819*
X42132Y12816*
X42085Y12813*
X42044Y12806*
X42016Y12800*
X41991Y12787*
X41962Y12765*
X41934Y12737*
X41899Y12702*
X41877Y12709*
X41956Y12935*
X42769*
X42844Y12709*
X42822Y12702*
X42791Y12737*
X42759Y12765*
X42734Y12787*
X42709Y12800*
X42680Y12806*
X42643Y12813*
X42592Y12816*
X42535Y12819*
X42507Y12813*
X42488Y12797*
X42476Y12775*
X42472Y12740*
Y12107*
X42479Y12057*
X42494Y12019*
X42526Y11994*
X42567Y11975*
Y11950*
X42161*
Y11975*
X42202Y11994*
X42230Y12019*
X42246Y12057*
X42252Y12107*
Y12740*
X43276Y12951D02*
X43332D01*
X43389Y12945*
X43446Y12932*
X43499Y12917*
X43512*
X43518Y12923*
X43524Y12932*
X43528Y12942*
X43537Y12948*
X43550Y12951*
X43622Y12712*
X43597Y12706*
X43569Y12737*
X43537Y12762*
X43502Y12784*
X43465Y12803*
X43427Y12816*
X43383Y12828*
X43339Y12831*
X43288Y12835*
X43244*
X43203Y12828*
X43169Y12819*
X43140Y12803*
X43118Y12787*
X43106Y12765*
X43096Y12740*
X43093Y12712*
Y12696*
X43102Y12677*
X43115Y12661*
X43131Y12649*
X43153Y12633*
X43181Y12620*
X43213Y12608*
X43250Y12595*
X43307Y12580*
X43357Y12564*
X43402Y12548*
X43443Y12535*
X43477Y12523*
X43502Y12513*
X43524Y12504*
X43540Y12498*
X43578Y12476*
X43609Y12450*
X43638Y12422*
X43660Y12391*
X43676Y12356*
X43688Y12321*
X43694Y12283*
X43698Y12243*
Y12205*
X43691Y12170*
X43685Y12139*
X43672Y12107*
X43657Y12082*
X43638Y12057*
X43619Y12031*
X43594Y12013*
X43565Y11994*
X43534Y11978*
X43499Y11965*
X43461Y11956*
X43420Y11946*
X43376Y11940*
X43326Y11937*
X43276*
X43213*
X43146Y11943*
X43077Y11956*
X43008Y11972*
X42998*
X42989Y11969*
X42980Y11962*
X42976Y11950*
X42964Y11943*
X42945Y11937*
X42841Y12224*
X42872Y12236*
X42910Y12192*
X42951Y12154*
X42992Y12123*
X43039Y12098*
X43090Y12079*
X43143Y12063*
X43200Y12057*
X43260Y12054*
X43310*
X43354Y12060*
X43389Y12072*
X43420Y12085*
X43443Y12104*
X43461Y12129*
X43471Y12157*
X43474Y12189*
X43471Y12208*
X43465Y12230*
X43452Y12249*
X43436Y12265*
X43414Y12280*
X43389Y12296*
X43357Y12309*
X43323Y12321*
X43263Y12340*
X43209Y12359*
X43162Y12372*
X43124Y12387*
X43093Y12397*
X43068Y12406*
X43049Y12413*
X43039Y12416*
X43002Y12438*
X42970Y12463*
X42945Y12488*
X42923Y12520*
X42907Y12551*
X42894Y12586*
X42888Y12624*
X42885Y12665*
X42888Y12696*
X42891Y12728*
X42901Y12756*
X42913Y12781*
X42932Y12806*
X42951Y12831*
X42976Y12854*
X43002Y12872*
X43065Y12907*
X43131Y12932*
X43200Y12948*
X43276Y12951*
G54D14*
X4843Y3543D02*
X2333D01*
X709Y5167*
Y11063*
X1378Y11732*
Y12520*
X1260Y12638*
X650*
X6358Y10748D02*
X5945Y10335D01*
X5610*
X14485Y15984D02*
X14488D01*
Y16417*
X14606Y16535*
X14862*
X14485Y17480D02*
X14488D01*
Y17018*
X14577Y16929*
X14862*
X14882Y14665D02*
Y14964D01*
X14927Y15010*
X14882Y18799D02*
Y18500D01*
X14927Y18455*
G54D15*
X3543Y2904D02*
X2402D01*
X433Y4872*
Y11496*
X1004Y12067*
G54D16*
X19685Y6959D02*
Y6958D01*
Y5659*
Y7962D02*
Y6959D01*
Y9262D02*
Y10266D01*
Y24202D02*
Y23199D01*
Y25502D02*
Y26506D01*
Y27805D02*
Y30512D01*
Y27805D02*
Y26506D01*
Y5659D02*
Y2953D01*
X21014Y12106D02*
Y11407D01*
X19872Y10266*
X19685*
X21014Y21374D02*
Y22047D01*
X19862Y23199*
X19685*
X22933Y21378D02*
X23839Y22283D01*
Y24902*
Y8563D02*
Y11201D01*
X22933Y12106*
X23839Y8563D02*
X24842D01*
X23839Y24902D02*
X24842D01*
X26142Y8563D02*
X27146D01*
X26142Y24902D02*
X27146D01*
Y8563D02*
X27166Y8543D01*
Y5659*
X27146Y24902D02*
X27166Y24922D01*
Y27805*
X27165D02*
Y30512D01*
X27166Y5659D02*
X27165D01*
Y2953*
G54D17*
X19685Y5659D02*
X22343D01*
X19685Y27805D02*
X22343D01*
X27166Y5659D02*
X29823D01*
X27166Y27805D02*
X29724D01*
G54D18*
X669Y2559D03*
X728Y16752D03*
X1240Y30512D03*
X1713Y21122D03*
X2106Y6161D03*
X2303Y27480D03*
X2559Y15354D03*
X2618Y984D03*
X3287Y4823D03*
X3406Y24587D03*
X3425Y8819D03*
X4134Y21083D03*
X4193Y16772D03*
X4744Y11949D03*
X4980Y29311D03*
X5059Y32244D03*
X5079Y1713D03*
Y13760D03*
X5728Y24980D03*
X5846Y6476D03*
X6063Y20610D03*
X7185Y9449D03*
X7559Y12854D03*
X7795Y10945D03*
X7913Y32087D03*
X7992Y15886D03*
X8110Y21024D03*
X8563Y787D03*
X8681Y25748D03*
X9016Y6398D03*
X9193Y23563D03*
X9508Y12343D03*
X10118Y10335D03*
X10689Y5689D03*
X10709Y25079D03*
X11122Y14350D03*
X11181Y21063D03*
X11201Y32402D03*
X11240Y11654D03*
X11555Y13406D03*
X11673Y22126D03*
X11909Y709D03*
X12205Y28898D03*
X12303Y8366D03*
X12638Y13957D03*
Y14449D03*
Y19055D03*
Y19587D03*
Y20315D03*
X12776Y25453D03*
X13248Y23366D03*
X13366Y21831D03*
X13386Y10098D03*
X13583Y13976D03*
X13602Y19488D03*
Y20472D03*
X14350Y32500D03*
X14744Y10827D03*
X14764Y9311D03*
Y24016D03*
X14862Y22756D03*
X15039Y15591D03*
Y17894D03*
X15079Y7618D03*
X15157Y25728D03*
X15413Y15394D03*
Y18071D03*
X16161Y5768D03*
X16319Y28031D03*
X16654Y7894D03*
X17047Y945D03*
Y27697D03*
X17067Y32382D03*
X17559Y11220D03*
Y12362D03*
Y18406D03*
X17579Y15059D03*
X17618Y22303D03*
X17874Y21102D03*
X18346Y6378D03*
X18386Y27087D03*
X18661Y24882D03*
X18681Y8563D03*
Y21535D03*
X18799Y12087D03*
X19508Y21811D03*
X19547Y20846D03*
X19587Y11555D03*
X19941Y12972D03*
X20492Y16752D03*
X22028D03*
X22264Y24823D03*
X22520Y7854D03*
X23307Y689D03*
X23366Y2972D03*
X23465Y30531D03*
X23563Y32402D03*
X23661Y27854D03*
X24016Y5709D03*
X24173Y20689D03*
X24272Y13799D03*
Y16614D03*
X24370Y11516D03*
X25531Y24291D03*
X25571Y9094D03*
X25787Y6378D03*
X25846Y27106D03*
X26831Y16457D03*
X28622Y23937D03*
X28799Y610D03*
Y16535D03*
X28819Y25984D03*
X29272Y7913D03*
X30453Y19429D03*
X30512Y2972D03*
X30591Y21969D03*
X30630Y10256D03*
G54D19*
X8622Y16575D03*
X8898Y15807D03*
X29390Y28878D03*
G54D20*
X15413Y14055D03*
Y14567D03*
Y15984D03*
Y16457D03*
Y17028D03*
Y17500D03*
Y18917D03*
Y19390D03*
X19252Y13602D03*
Y14114D03*
Y15827D03*
Y16358D03*
Y17106D03*
Y17579D03*
Y19409D03*
Y19882D03*
G54D21*
X19685Y7962D03*
Y9262D03*
Y24202D03*
Y25502D03*
G54D22*
X18385Y5659D03*
Y27805D03*
X19685Y5659D03*
Y27805D03*
X24842Y8563D03*
Y24902D03*
X25866Y5659D03*
Y27805D03*
X26142Y8563D03*
Y24902D03*
X27166Y5659D03*
Y27805D03*
G54D23*
X19685Y6959D03*
Y10266D03*
Y23199D03*
Y26506D03*
G54D24*
X23839Y8563D03*
Y24902D03*
X27146Y8563D03*
Y24902D03*
G54D25*
X3031Y12057D03*
Y21555D03*
X3543Y2904D03*
Y31299D03*
X6693Y2904D03*
Y31299D03*
X9843D03*
X21014Y13106D03*
Y20374D03*
X22933Y13106D03*
Y20374D03*
G54D26*
X3031Y13057D03*
Y20555D03*
X3543Y1904D03*
Y32299D03*
X6693Y1904D03*
Y32299D03*
X9843D03*
X21014Y12106D03*
Y21374D03*
X22933Y12106D03*
Y21374D03*
G54D27*
X6742Y15846D03*
X7037Y5659D03*
Y27805D03*
X9941D03*
X14321Y5659D03*
Y27805D03*
X22343Y5659D03*
Y27805D03*
X29724D03*
X29823Y5659D03*
G54D28*
X19685Y2953D03*
Y30512D03*
X27165Y2953D03*
Y30512D03*
Y12992D03*
Y20472D03*
G54D29*
X1575Y8858D03*
Y24606D03*
X3031Y7382D03*
Y10335D03*
Y23130D03*
Y26083D03*
G54D30*
X21014Y14461D03*
Y18004D03*
G54D31*
Y15461D03*
Y19004D03*
G54D32*
X16585Y14075D03*
Y15846D03*
Y17618D03*
Y19390D03*
X18553Y14075D03*
Y15846D03*
Y17618D03*
Y19390D03*
G54D70*
X650Y12638D03*
X827Y17913D03*
X1004Y12067D03*
X1102Y19508D03*
X4843Y3543D03*
X5610Y10335D03*
X6358Y10748D03*
X14882Y14665D03*
Y18799D03*
G54D71*
X14862Y16535D03*
Y16929D03*
G54D72*
X1181Y1181D03*
Y32283D03*
X30315Y1181D03*
Y32283D03*
G54D73*
X14485Y15984D03*
Y17480D03*
X14927Y15010D03*
Y18455D03*
X14945Y15984D03*
Y17480D03*
X15387Y15010D03*
Y18455D03*
M02*
