; Version : LOCAL
; Job     : X:\EvmBoards\TPA3110D2\TPA3110D2EVM\PCB_Layout\TPA3110D2EVM.pcb
; User    : DTA0209011:a0209011
; Date    : Thu Mar 12 10:53:39 2009
; Format  : 2.4 / Absolute / Inch / Trailing
; Contents: Thru / Drill / Plated
M48
INCH,LZ
FMAT,2
ICI,OFF
T06C0.0100
T07C0.0140
T02C0.0350
T05C0.0400
T01C0.0400
T04C0.1150
T03C0.1700
%
M72
G90
G93X0Y0
T06
X004843Y003543
X006358Y010748
X00561Y010335
X001004Y012067
X00065Y012638
X012638Y013957
X014882Y014665
X012948Y014932
X012648
X012638Y014449
X012348Y014932
X008898Y015807
X012348Y015232
Y015532
Y015832
X012648Y015232
Y015532
Y015832
X012948Y015232
Y015532
Y015832
X014862Y016535
Y016929
X012948Y016132
Y016432
Y016732
X012648Y016132
Y016432
Y016732
X012348Y016132
Y016432
Y016732
X008622Y016575
X000827Y017913
X012348Y017032
Y017332
Y017632
Y017932
X012648Y017032
Y017332
Y017632
Y017932
X012948Y017032
Y017332
Y017632
Y017932
X014882Y018799
X012948Y018232
Y018532
X012648Y018232
Y018532
X012348Y018232
Y018532
X001102Y019508
X012638Y019055
Y019587
X02939Y028878
T07
X028799Y00061
X023307Y000689
X017047Y000945
X011909Y000709
X008563Y000787
X002618Y000984
X005079Y001713
X030512Y002972
X023366
X000669Y002559
X003287Y004823
X010689Y005689
X016161Y005768
X024016Y005709
X025787Y006378
X018346
X009016Y006398
X005846Y006476
X002106Y006161
X015079Y007618
X016654Y007894
X02252Y007854
X029272Y007913
X018681Y008563
X012303Y008366
X003425Y008819
X007185Y009449
X014764Y009311
X025571Y009094
X03063Y010256
X014744Y010827
X013386Y010098
X010118Y010335
X007795Y010945
X004744Y011949
X01124Y011654
X017559Y01122
X019587Y011555
X02437Y011516
X019941Y012972
X018799Y012087
X017559Y012362
X009508Y012343
X007559Y012854
X005079Y01376
X011555Y013406
X013583Y013976
X019252Y013602
X024272Y013799
X019252Y014114
X015413Y014055
Y014567
X011122Y01435
X002559Y015354
X007992Y015886
X015039Y015591
X015413Y015394
Y015984
X017579Y015059
X019252Y015827
X028799Y016535
X026831Y016457
X024272Y016614
X022028Y016752
X020492
X019252Y016358
X015413Y016457
X004193Y016772
X000728Y016752
X015039Y017894
X015413Y017028
Y0175
X019252Y017106
Y017579
X017559Y018406
X015413Y018071
Y018917
X013602Y019488
X015413Y01939
X019252Y019409
Y019882
X030453Y019429
X024173Y020689
X019547Y020846
X013602Y020472
X012638Y020315
X006063Y02061
X001713Y021122
X004134Y021083
X00811Y021024
X011181Y021063
X013366Y021831
X017874Y021102
X018681Y021535
X019508Y021811
X030591Y021969
X017618Y022303
X014862Y022756
X011673Y022126
X009193Y023563
X013248Y023366
X028622Y023937
X025531Y024291
X022264Y024823
X018661Y024882
X014764Y024016
X005728Y02498
X003406Y024587
X008681Y025748
X010709Y025079
X012776Y025453
X015157Y025728
X028819Y025984
X002303Y02748
X017047Y027697
X018386Y027087
X023661Y027854
X025846Y027106
X016319Y028031
X012205Y028898
X00498Y029311
X023465Y030531
X00124Y030512
X023563Y032402
X017067Y032382
X01435Y0325
X011201Y032402
X007913Y032087
X005059Y032244
T02
X007037Y005659
X014321
X022343
X029823
X006742Y015846
X007037Y027805
X009941
X014321
X022343
X029724
T01
X003543Y001904
X006693
Y002904
X003543
X022933Y012106
X021014
X003031Y012057
Y013057
X021014Y013106
X022933
Y020374
X021014
X003031Y020555
Y021555
X021014Y021374
X022933
X003543Y031299
X006693
X009843
Y032299
X006693
X003543
T05
X021014Y014461
Y015461
Y018004
Y019004
T04
X001181Y001181
X030315
X003031Y007382
X001575Y008858
X003031Y010335
Y02313
X001575Y024606
X003031Y026083
X030315Y032283
X001181
T03
X027165Y002953
X019685
X027165Y012992
Y020472
Y030512
X019685
T00
M30
