*
G04 Job   : X:\EvmBoards\TPA3110D2\TPA3110D2EVM\PCB_Layout\TPA3110D2EVM.pcb*
G04 User  : DTA0209011:a0209011*
G04 Layer : TopCopper.gdr*
G04 Date  : Thu Mar 12 13:10:40 2009*
G04 Mentor Graphics Example Gerber Output Definition*
%ICAS*%
%MOIN*%
%FSLAX24Y24*%
%OFA0.0000B0.0000*%
G90*
G74*
%AMVB_RECTANGLE*
21,1,$1,$2,0,0,$3*
%
%AMVB_Custom_1.2x1.2mm Chamfer*
4,1,5,0.0000,0.0000,0.0472,0.0000,0.0472,0.0354,0.0354,0.0472,0.0000,0.0472,0.0000,0.0000,$1*
%
%ADD12C,0.00394*%
%ADD13C,0.00591*%
%ADD11C,0.00984*%
%ADD10C,0.01000*%
%ADD15C,0.01181*%
%ADD70C,0.01300*%
%ADD18C,0.01378*%
%ADD19C,0.01400*%
%ADD17C,0.01969*%
%ADD20C,0.02500*%
%ADD14C,0.02953*%
%ADD71C,0.03000*%
%ADD21C,0.04000*%
%ADD24C,0.06400*%
%ADD16C,0.06890*%
%ADD34C,0.07000*%
%ADD72C,0.07500*%
%ADD30C,0.13900*%
%ADD31C,0.19000*%
%ADD73C,0.37000*%
%ADD23VB_RECTANGLE,0.06400X0.06400X180.00000*%
%ADD35VB_RECTANGLE,0.07000X0.07000X270.00000*%
%ADD37VB_RECTANGLE,0.01200X0.06000X90.00000*%
%ADD32VB_RECTANGLE,0.03937X0.14567X270.00000*%
%ADD25VB_RECTANGLE,0.04000X0.03500X0.00000*%
%ADD29VB_RECTANGLE,0.04000X0.03500X270.00000*%
%ADD22VB_RECTANGLE,0.05000X0.06000X270.00000*%
%ADD26VB_RECTANGLE,0.06299X0.05906X180.00000*%
%ADD38VB_RECTANGLE,0.07100X0.07900X270.00000*%
%ADD36VB_RECTANGLE,0.09843X0.19685X0.00000*%
%ADD33VB_RECTANGLE,0.14000X0.07000X270.00000*%
%ADD27VB_Custom_1.2x1.2mm Chamfer,180.00000*%
%ADD28VB_Custom_1.2x1.2mm Chamfer,270.00000*%
G01*
G54D10*
X31496D01*
Y33465*
X0*
Y0*
X12348Y14932D03*
Y15232D03*
Y15532D03*
Y15832D03*
Y16132D03*
Y16432D03*
Y16732D03*
Y17032D03*
Y17332D03*
Y17632D03*
Y17932D03*
Y18232D03*
Y18532D03*
X12648Y14932D03*
Y15232D03*
Y15532D03*
Y15832D03*
Y16132D03*
Y16432D03*
Y16732D03*
Y17032D03*
Y17332D03*
Y17632D03*
Y17932D03*
Y18232D03*
Y18532D03*
X12948Y14932D03*
Y15232D03*
Y15532D03*
Y15832D03*
Y16132D03*
Y16432D03*
Y16732D03*
Y17032D03*
Y17332D03*
Y17632D03*
Y17932D03*
Y18232D03*
Y18532D03*
G54D11*
X-443Y-12352D02*
X55364D01*
Y36171*
X-443*
Y-12352*
X148Y148D02*
X31348D01*
Y33317*
X148*
Y148*
X177Y33317D02*
Y148D01*
X266D02*
Y3359D01*
Y11149D02*
Y19393D01*
Y27595D02*
Y33317D01*
X354Y3233D02*
Y148D01*
Y12522D02*
Y11275D01*
Y19299D02*
Y12754D01*
Y33317D02*
Y27690D01*
X443Y148D02*
Y3144D01*
Y11363D02*
Y12397D01*
Y15118D02*
Y19210D01*
Y27778D02*
Y33317D01*
X531Y3056D02*
Y148D01*
Y12343D02*
Y11452D01*
Y17797D02*
Y15209D01*
Y19122D02*
Y18030D01*
Y33317D02*
Y27867D01*
X620Y148D02*
Y2968D01*
Y11541D02*
Y12322D01*
Y15297D02*
Y17673D01*
Y18154D02*
Y19033D01*
Y27955D02*
Y33317D01*
X709Y2921D02*
Y148D01*
Y10989D02*
Y3519D01*
Y11951D02*
Y11629D01*
Y12326D02*
Y12183D01*
Y17619D02*
Y15386D01*
Y18944D02*
Y18208D01*
Y33317D02*
Y28044D01*
X797Y148D02*
Y2913D01*
Y3430D02*
Y8485D01*
Y9231D02*
Y11077D01*
Y11718D02*
Y11826D01*
Y15474D02*
Y17597D01*
Y18229D02*
Y18856D01*
Y28132D02*
Y33317D01*
X827Y17913D02*
X8435D01*
X8720Y17628*
X9518*
X9803Y17913*
X9824*
X886Y2913D02*
Y148D01*
Y8340D02*
Y3366D01*
Y11166D02*
Y9377D01*
Y12426D02*
Y12361D01*
Y17602D02*
Y15563D01*
Y18767D02*
Y18225D01*
Y24088D02*
Y19740D01*
Y27330D02*
Y25125D01*
Y33317D02*
Y28221D01*
X974Y148D02*
Y2913D01*
Y3366D02*
Y4503D01*
Y4808D02*
Y8239D01*
Y9477D02*
Y11255D01*
Y12383D02*
Y14900D01*
Y15651D02*
Y17633D01*
Y18194D02*
Y18679D01*
Y19798D02*
Y23987D01*
Y25225D02*
Y27419D01*
Y28310D02*
Y33317D01*
X1004Y12067D02*
X1014D01*
X1063Y2913D02*
Y148D01*
Y4035D02*
Y3366D01*
Y5091D02*
Y4868D01*
Y8164D02*
Y5675D01*
Y11343D02*
Y9552D01*
Y14988D02*
Y12436D01*
Y17697D02*
Y15740D01*
Y18590D02*
Y18130D01*
Y23912D02*
Y19823D01*
Y27507D02*
Y25300D01*
Y33317D02*
Y28398D01*
X1102Y19508D02*
X1722Y18888D01*
X7411*
X7638Y19114*
X8012*
X8228Y19331*
X9469*
X9803Y18996*
X9824*
X1152Y148D02*
Y2913D01*
Y3366D02*
Y4016D01*
Y4882D02*
Y5024D01*
Y5742D02*
Y8107D01*
Y9610D02*
Y11432D01*
Y12525D02*
Y15077D01*
Y15829D02*
Y17697D01*
Y18130D02*
Y18501D01*
Y19821D02*
Y23855D01*
Y25358D02*
Y27596D01*
Y28487D02*
Y33317D01*
X1240Y2913D02*
Y148D01*
Y4016D02*
Y3366D01*
Y8064D02*
Y5750D01*
Y11520D02*
Y9653D01*
Y15166D02*
Y14403D01*
Y17697D02*
Y15917D01*
Y18413D02*
Y18130D01*
Y23812D02*
Y19794D01*
Y27685D02*
Y25401D01*
Y33317D02*
Y28575D01*
X1329Y148D02*
Y2737D01*
Y3543D02*
Y4016D01*
Y5750D02*
Y8032D01*
Y10691D02*
Y11609D01*
Y14493D02*
Y15254D01*
Y16006D02*
Y17697D01*
Y18130D02*
Y18325D01*
Y19730D02*
Y23780D01*
Y25433D02*
Y27773D01*
Y28664D02*
Y33317D01*
X1417Y2682D02*
Y148D01*
Y4016D02*
Y3598D01*
Y8010D02*
Y5750D01*
Y11698D02*
Y10809D01*
Y15343D02*
Y14582D01*
Y17697D02*
Y16094D01*
Y18271D02*
Y18130D01*
Y23758D02*
Y19547D01*
Y27862D02*
Y25454D01*
Y33317D02*
Y28753D01*
X1506Y148D02*
Y2677D01*
Y3602D02*
Y4016D01*
Y5750D02*
Y7999D01*
Y10897D02*
Y11786D01*
Y14671D02*
Y15431D01*
Y16183D02*
Y17697D01*
Y18130D02*
Y18249D01*
Y19411D02*
Y23747D01*
Y25466D02*
Y27950D01*
Y28841D02*
Y33317D01*
X1594Y2677D02*
Y148D01*
Y4048D02*
Y3602D01*
Y7996D02*
Y5745D01*
Y11875D02*
Y10986D01*
Y15520D02*
Y14759D01*
Y17697D02*
Y16271D01*
Y18248D02*
Y18130D01*
Y23744D02*
Y19322D01*
Y28039D02*
Y25468D01*
Y33317D02*
Y28930D01*
X1683Y148D02*
Y2677D01*
Y3602D02*
Y4133D01*
Y4808D02*
Y5078D01*
Y5688D02*
Y8003D01*
Y11075D02*
Y11963D01*
Y14839D02*
Y15608D01*
Y16360D02*
Y17697D01*
Y18130D02*
Y18248D01*
Y19233D02*
Y23751D01*
Y25462D02*
Y28127D01*
Y29018D02*
Y33317D01*
X1772Y2677D02*
Y148D01*
Y4245D02*
Y3602D01*
Y8019D02*
Y4712D01*
Y12052D02*
Y11163D01*
Y15697D02*
Y14870D01*
Y17697D02*
Y16447D01*
Y18248D02*
Y18130D01*
Y23767D02*
Y19145D01*
Y28216D02*
Y25446D01*
Y33317D02*
Y29107D01*
X1860Y148D02*
Y2677D01*
Y3602D02*
Y4133D01*
Y4808D02*
Y8045D01*
Y9672D02*
Y10500D01*
Y11252D02*
Y12140D01*
Y14872D02*
Y15786D01*
Y16494D02*
Y17697D01*
Y18130D02*
Y18248D01*
Y19104D02*
Y23793D01*
Y25420D02*
Y28305D01*
Y29195D02*
Y33317D01*
X1949Y2652D02*
Y148D01*
Y4048D02*
Y3602D01*
Y8081D02*
Y4823D01*
Y10589D02*
Y9635D01*
Y14011D02*
Y11340D01*
Y15874D02*
Y14872D01*
Y17697D02*
Y16506D01*
Y18248D02*
Y18130D01*
Y23829D02*
Y19104D01*
Y28393D02*
Y25383D01*
Y33317D02*
Y29284D01*
X2037Y148D02*
Y2564D01*
Y3602D02*
Y4016D01*
Y4823D02*
Y8020D01*
Y9586D02*
Y10677D01*
Y11429D02*
Y14099D01*
Y14872D02*
Y15963D01*
Y16506D02*
Y17697D01*
Y18130D02*
Y18248D01*
Y19104D02*
Y23758D01*
Y25334D02*
Y28482D01*
Y29373D02*
Y33317D01*
X2126Y2475D02*
Y148D01*
Y4016D02*
Y3598D01*
Y7931D02*
Y4823D01*
Y10766D02*
Y9521D01*
Y14188D02*
Y11518D01*
Y15974D02*
Y14872D01*
Y17697D02*
Y16506D01*
Y18248D02*
Y18130D01*
Y23669D02*
Y19104D01*
Y28570D02*
Y25269D01*
Y33317D02*
Y29461D01*
X2215Y148D02*
Y2387D01*
Y3543D02*
Y3928D01*
Y4823D02*
Y7106D01*
Y7658D02*
Y7843D01*
Y9436D02*
Y10059D01*
Y10611D02*
Y10854D01*
Y11606D02*
Y14203D01*
Y14872D02*
Y15974D01*
Y16506D02*
Y17697D01*
Y18130D02*
Y18248D01*
Y19104D02*
Y22854D01*
Y23406D02*
Y23581D01*
Y25184D02*
Y25807D01*
Y26359D02*
Y28659D01*
Y29550D02*
Y33317D01*
X2303Y2298D02*
Y148D01*
Y3833D02*
Y2938D01*
Y6920D02*
Y4859D01*
Y9873D02*
Y9320D01*
Y10943D02*
Y10796D01*
Y14203D02*
Y11695D01*
Y15974D02*
Y14872D01*
Y17697D02*
Y16506D01*
Y18248D02*
Y18130D01*
Y22668D02*
Y19104D01*
Y25621D02*
Y25068D01*
Y28747D02*
Y26544D01*
Y33317D02*
Y32974D01*
X2392Y148D02*
Y2209D01*
Y2850D02*
Y3745D01*
Y4882D02*
Y6804D01*
Y8417D02*
Y8582D01*
Y9134D02*
Y9756D01*
Y10913D02*
Y11032D01*
Y11783D02*
Y14203D01*
Y14872D02*
Y15974D01*
Y16506D02*
Y17697D01*
Y18130D02*
Y18248D01*
Y19104D02*
Y22552D01*
Y24155D02*
Y24330D01*
Y24882D02*
Y25504D01*
Y26661D02*
Y28836D01*
Y33064D02*
Y33317D01*
X2480Y2121D02*
Y148D01*
Y3656D02*
Y2761D01*
Y6719D02*
Y4868D01*
Y9671D02*
Y8329D01*
Y11120D02*
Y10998D01*
Y14203D02*
Y11872D01*
Y15974D02*
Y14872D01*
Y17697D02*
Y16506D01*
Y18248D02*
Y18130D01*
Y22467D02*
Y19104D01*
Y25420D02*
Y24067D01*
Y28925D02*
Y26746D01*
Y33317D02*
Y33152D01*
X2569Y148D02*
Y2032D01*
Y2673D02*
Y3568D01*
Y4808D02*
Y6654D01*
Y8240D02*
Y9607D01*
Y11062D02*
Y11209D01*
Y12465D02*
Y14203D01*
Y14872D02*
Y15974D01*
Y16506D02*
Y17697D01*
Y18130D02*
Y18248D01*
Y19104D02*
Y21148D01*
Y21963D02*
Y22402D01*
Y23978D02*
Y25355D01*
Y26810D02*
Y29013D01*
Y33233D02*
Y33317D01*
X2657Y1944D02*
Y148D01*
Y3479D02*
Y2584D01*
Y6605D02*
Y4119D01*
Y9558D02*
Y8159D01*
Y11297D02*
Y11112D01*
Y14203D02*
Y12535D01*
Y15974D02*
Y14872D01*
Y17697D02*
Y16506D01*
Y18248D02*
Y18130D01*
Y21077D02*
Y19104D01*
Y22353D02*
Y22033D01*
Y25306D02*
Y23907D01*
Y29102D02*
Y26860D01*
X2746Y148D02*
Y1855D01*
Y2495D02*
Y3390D01*
Y4031D02*
Y6568D01*
Y8196D02*
Y9521D01*
Y11148D02*
Y11386D01*
Y12544D02*
Y14203D01*
Y14872D02*
Y15974D01*
Y16506D02*
Y17697D01*
Y18130D02*
Y18248D01*
Y19104D02*
Y21068D01*
Y22042D02*
Y22316D01*
Y23944D02*
Y25269D01*
Y26896D02*
Y29190D01*
X2835Y1766D02*
Y148D01*
Y3302D02*
Y2407D01*
Y6542D02*
Y3942D01*
Y9495D02*
Y8221D01*
Y11475D02*
Y11174D01*
Y14203D02*
Y12544D01*
Y15974D02*
Y14872D01*
Y17697D02*
Y16506D01*
Y18248D02*
Y18130D01*
Y21068D02*
Y19104D01*
Y25243D02*
Y23969D01*
Y29320D02*
Y26922D01*
X2923Y148D02*
Y1696D01*
Y2318D02*
Y3213D01*
Y3854D02*
Y6526D01*
Y8237D02*
Y9479D01*
Y11190D02*
Y11563D01*
Y12544D02*
Y14203D01*
Y14872D02*
Y15974D01*
Y16506D02*
Y17697D01*
Y18130D02*
Y18248D01*
Y19104D02*
Y21068D01*
Y23985D02*
Y25227D01*
Y26938D02*
Y32657D01*
X3012Y1673D02*
Y148D01*
Y3125D02*
Y2230D01*
Y6520D02*
Y3765D01*
Y9473D02*
Y8244D01*
Y11570D02*
Y11197D01*
Y14203D02*
Y12544D01*
Y15974D02*
Y14872D01*
Y17697D02*
Y16506D01*
Y18248D02*
Y18130D01*
Y21068D02*
Y19104D01*
Y25221D02*
Y23992D01*
Y32657D02*
Y26945D01*
X3100Y148D02*
Y1673D01*
Y2141D02*
Y2470D01*
Y3676D02*
Y6522D01*
Y8241D02*
Y9475D01*
Y11194D02*
Y11570D01*
Y12544D02*
Y14203D01*
Y14872D02*
Y15974D01*
Y16506D02*
Y17697D01*
Y18130D02*
Y18248D01*
Y19104D02*
Y21068D01*
Y23989D02*
Y25223D01*
Y26942D02*
Y30866D01*
Y31733D02*
Y32657D01*
X3189Y1569D02*
Y148D01*
Y2420D02*
Y2238D01*
Y6534D02*
Y3588D01*
Y9487D02*
Y8230D01*
Y11570D02*
Y11182D01*
Y14203D02*
Y12544D01*
Y15974D02*
Y14872D01*
Y17697D02*
Y16506D01*
Y18248D02*
Y18130D01*
Y21068D02*
Y19104D01*
Y25235D02*
Y23978D01*
Y30815D02*
Y26930D01*
Y32657D02*
Y31783D01*
X3278Y148D02*
Y1495D01*
Y2312D02*
Y2416D01*
Y3499D02*
Y6555D01*
Y8208D02*
Y9508D01*
Y11161D02*
Y11570D01*
Y12544D02*
Y14203D01*
Y14872D02*
Y15974D01*
Y16506D02*
Y17697D01*
Y18130D02*
Y18248D01*
Y19104D02*
Y21068D01*
Y23956D02*
Y25256D01*
Y26909D02*
Y30812D01*
Y31787D02*
Y32657D01*
X3366Y1450D02*
Y148D01*
Y2416D02*
Y2358D01*
Y6587D02*
Y3411D01*
Y9540D02*
Y8177D01*
Y11570D02*
Y11129D01*
Y14203D02*
Y12544D01*
Y15974D02*
Y14872D01*
Y17697D02*
Y16506D01*
Y18248D02*
Y18130D01*
Y21068D02*
Y19104D01*
Y22335D02*
Y22042D01*
Y25288D02*
Y23925D01*
Y30812D02*
Y26877D01*
Y32657D02*
Y31787D01*
X3455Y148D02*
Y1424D01*
Y3391D02*
Y6631D01*
Y8133D02*
Y9583D01*
Y11086D02*
Y11605D01*
Y12509D02*
Y14203D01*
Y14872D02*
Y15974D01*
Y16506D02*
Y17697D01*
Y18130D02*
Y18248D01*
Y19104D02*
Y21103D01*
Y22007D02*
Y22379D01*
Y23881D02*
Y25331D01*
Y26834D02*
Y30812D01*
Y31787D02*
Y32657D01*
X3543Y1416D02*
Y148D01*
Y6688D02*
Y3391D01*
Y9641D02*
Y8076D01*
Y14203D02*
Y11029D01*
Y15974D02*
Y14872D01*
Y17697D02*
Y16506D01*
Y18248D02*
Y18130D01*
Y22436D02*
Y19104D01*
Y25389D02*
Y23824D01*
Y30812D02*
Y26777D01*
Y32657D02*
Y31787D01*
X3632Y148D02*
Y1424D01*
Y3391D02*
Y6763D01*
Y8001D02*
Y9716D01*
Y10954D02*
Y14203D01*
Y14872D02*
Y15974D01*
Y16506D02*
Y17697D01*
Y18130D02*
Y18248D01*
Y19104D02*
Y22511D01*
Y23749D02*
Y25464D01*
Y26702D02*
Y30812D01*
Y31787D02*
Y32657D01*
X3720Y1450D02*
Y148D01*
Y2416D02*
Y2358D01*
Y6863D02*
Y3391D01*
Y9816D02*
Y7900D01*
Y14203D02*
Y10853D01*
Y15974D02*
Y14872D01*
Y17697D02*
Y16506D01*
Y18248D02*
Y18130D01*
Y22611D02*
Y19104D01*
Y25564D02*
Y23648D01*
Y30812D02*
Y26601D01*
Y32657D02*
Y31787D01*
X3809Y148D02*
Y1495D01*
Y2312D02*
Y2416D01*
Y3391D02*
Y7009D01*
Y7755D02*
Y9962D01*
Y10707D02*
Y14203D01*
Y14872D02*
Y15974D01*
Y16506D02*
Y17697D01*
Y18130D02*
Y18248D01*
Y19104D02*
Y22757D01*
Y23503D02*
Y25710D01*
Y26456D02*
Y30812D01*
Y31787D02*
Y32657D01*
X3863Y30812D02*
G03X4031Y30979J167D01*
G01Y31619*
G03X3863Y31787I168*
G01X3223*
G03X3056Y31619J168*
G01Y30979*
G03X3223Y30812I167*
G01X3863*
X3898Y1569D02*
Y148D01*
Y2420D02*
Y2238D01*
Y7116D02*
Y3387D01*
Y10069D02*
Y7648D01*
Y14203D02*
Y10600D01*
Y15974D02*
Y14872D01*
Y17697D02*
Y16506D01*
Y18248D02*
Y18130D01*
Y22864D02*
Y19104D01*
Y25856D02*
Y23396D01*
Y30815D02*
Y26309D01*
Y32657D02*
Y31783D01*
X3986Y148D02*
Y1673D01*
Y2141D02*
Y2470D01*
Y3337D02*
Y7116D01*
Y7648D02*
Y10069D01*
Y10600D02*
Y14203D01*
Y14872D02*
Y15974D01*
Y16506D02*
Y17697D01*
Y18130D02*
Y18248D01*
Y19104D02*
Y22864D01*
Y23396D02*
Y25856D01*
Y26309D02*
Y30866D01*
Y31733D02*
Y32657D01*
X4075Y1673D02*
Y148D01*
Y7057D02*
Y5023D01*
Y10010D02*
Y7707D01*
Y14203D02*
Y10659D01*
Y15974D02*
Y14872D01*
Y17697D02*
Y16506D01*
Y18248D02*
Y18130D01*
Y22805D02*
Y19104D01*
Y25758D02*
Y23455D01*
Y32657D02*
Y26407D01*
X4163Y148D02*
Y1696D01*
Y5113D02*
Y7040D01*
Y7724D02*
Y9992D01*
Y10677D02*
Y14203D01*
Y14872D02*
Y15974D01*
Y16506D02*
Y17697D01*
Y18130D02*
Y18248D01*
Y19104D02*
Y22788D01*
Y23472D02*
Y25740D01*
Y26425D02*
Y32657D01*
X4252Y1766D02*
Y148D01*
Y7040D02*
Y5202D01*
Y9992D02*
Y7724D01*
Y14203D02*
Y10677D01*
Y15974D02*
Y14872D01*
Y17697D02*
Y16506D01*
Y18248D02*
Y18130D01*
Y22788D02*
Y19104D01*
Y25740D02*
Y23472D01*
Y32657D02*
Y26425D01*
X4341Y148D02*
Y1855D01*
Y5291D02*
Y7040D01*
Y7724D02*
Y9992D01*
Y10677D02*
Y14203D01*
Y14872D02*
Y15974D01*
Y16506D02*
Y17697D01*
Y18130D02*
Y18248D01*
Y19104D02*
Y22788D01*
Y23472D02*
Y25740D01*
Y26425D02*
Y32657D01*
X4429Y1946D02*
Y148D01*
Y7040D02*
Y5379D01*
Y9992D02*
Y7724D01*
Y14203D02*
Y10677D01*
Y15974D02*
Y14872D01*
Y17697D02*
Y16506D01*
Y18248D02*
Y18130D01*
Y22788D02*
Y19104D01*
Y25740D02*
Y23472D01*
Y32657D02*
Y26425D01*
X4518Y148D02*
Y2616D01*
Y3191D02*
Y4827D01*
Y5468D02*
Y7040D01*
Y7724D02*
Y9992D01*
Y10677D02*
Y14203D01*
Y14872D02*
Y15974D01*
Y16506D02*
Y17697D01*
Y18130D02*
Y18248D01*
Y19104D02*
Y22788D01*
Y23472D02*
Y25740D01*
Y26425D02*
Y32657D01*
X4549Y7040D02*
G03X4717Y7207J167D01*
G01Y7557*
G03X4549Y7724I168*
G01X4149*
G03X4009Y7648J167*
G01X3852*
G03X3031Y8244I821J266*
X2652Y8156J862*
G01X2343Y8466*
G03X2437Y8858I768J392*
X1841Y9679I862*
G01Y10480*
X2930Y11570*
X3351*
G03X3519Y11737J167*
G01Y12377*
G03X3351Y12544I168*
G01X2711*
G03X2544Y12377J167*
G01Y11936*
X1387Y10779*
G03X1309Y10591I188J188*
G01Y9679*
G03X712Y8858I266J821*
X1575Y7996I863*
X1967Y8090J862*
G01X2270Y7787*
G03X2169Y7382I761J405*
X3031Y6520I862*
X3852Y7116J862*
G01X4009*
G03X4149Y7040I140J91*
G01X4549*
Y9992D02*
G03X4717Y10160J168D01*
G01Y10510*
G03X4549Y10677I168*
G01X4149*
G03X4009Y10600J167*
G01X3852*
G03X3031Y11197I821J265*
X2169Y10335J862*
X3031Y9472I862*
X3852Y10069J863*
G01X4009*
G03X4149Y9992I140J91*
G01X4549*
Y25740D02*
G03X4717Y25908J168D01*
G01Y26258*
G03X4549Y26425I168*
G01X4149*
G03X3990Y26309J167*
G01X3864*
G03X3031Y26945I833J226*
X2169Y26083J862*
X3031Y25220I862*
X3864Y25856J863*
G01X3990*
G03X4149Y25740I159J52*
G01X4549*
X4606Y2565D02*
Y148D01*
Y4916D02*
Y3755D01*
Y7050D02*
Y5556D01*
Y10002D02*
Y7714D01*
Y14203D02*
Y10667D01*
Y15974D02*
Y14872D01*
Y17697D02*
Y16506D01*
Y18248D02*
Y18130D01*
Y22798D02*
Y19104D01*
Y25750D02*
Y23462D01*
Y32657D02*
Y26415D01*
X4695Y148D02*
Y2561D01*
Y3824D02*
Y5005D01*
Y5645D02*
Y7124D01*
Y7640D02*
Y10077D01*
Y10592D02*
Y14203D01*
Y14872D02*
Y15974D01*
Y16506D02*
Y17697D01*
Y18130D02*
Y18248D01*
Y19104D02*
Y22872D01*
Y23388D02*
Y25825D01*
Y26340D02*
Y32657D01*
X4783Y2561D02*
Y148D01*
Y5093D02*
Y3855D01*
Y7086D02*
Y5734D01*
Y10039D02*
Y7678D01*
Y14203D02*
Y10630D01*
Y15974D02*
Y14872D01*
Y17697D02*
Y16506D01*
Y18248D02*
Y18130D01*
Y22834D02*
Y19104D01*
Y25787D02*
Y23426D01*
Y32657D02*
Y26378D01*
X4843Y2904D02*
X4842D01*
X4872Y148D02*
Y2561D01*
Y3859D02*
Y5182D01*
Y5822D02*
Y7042D01*
Y7722D02*
Y9995D01*
Y10675D02*
Y14203D01*
Y14872D02*
Y15974D01*
Y16506D02*
Y17697D01*
Y18130D02*
Y18248D01*
Y19104D02*
Y22790D01*
Y23470D02*
Y25743D01*
Y26423D02*
Y32657D01*
X4961Y2561D02*
Y148D01*
Y5270D02*
Y3838D01*
Y7040D02*
Y5875D01*
Y9992D02*
Y7724D01*
Y14203D02*
Y10677D01*
Y15974D02*
Y14872D01*
Y17697D02*
Y16506D01*
Y18248D02*
Y18130D01*
Y20044D02*
Y19104D01*
Y23735D02*
Y23472D01*
Y32657D02*
Y26425D01*
X5049Y148D02*
Y2561D01*
Y3784D02*
Y5359D01*
Y5886D02*
Y7040D01*
Y7724D02*
Y9992D01*
Y10677D02*
Y14203D01*
Y14872D02*
Y15974D01*
Y16506D02*
Y17697D01*
Y18130D02*
Y18248D01*
Y19104D02*
Y19955D01*
Y23472D02*
Y23646D01*
Y26425D02*
Y32657D01*
X5138Y2592D02*
Y148D01*
Y3427D02*
Y3215D01*
Y5433D02*
Y3660D01*
Y7040D02*
Y5886D01*
Y9992D02*
Y7724D01*
Y14203D02*
Y10677D01*
Y15974D02*
Y14872D01*
Y17697D02*
Y16577D01*
Y18248D02*
Y18130D01*
Y19867D02*
Y19104D01*
Y23558D02*
Y23472D01*
Y32657D02*
Y26425D01*
X5226Y148D02*
Y2702D01*
Y3105D02*
Y5433D01*
Y5886D02*
Y7040D01*
Y7724D02*
Y9992D01*
Y10677D02*
Y14203D01*
Y14872D02*
Y15979D01*
Y16665D02*
Y17697D01*
Y18130D02*
Y18248D01*
Y19104D02*
Y19778D01*
Y26425D02*
Y32657D01*
X5315Y2580D02*
Y148D01*
Y5433D02*
Y3227D01*
Y7040D02*
Y5886D01*
Y9993D02*
Y7723D01*
Y14203D02*
Y10676D01*
Y16013D02*
Y14872D01*
Y17697D02*
Y16754D01*
Y18248D02*
Y18130D01*
Y19690D02*
Y19104D01*
Y32657D02*
Y26424D01*
X5404Y148D02*
Y2561D01*
Y3246D02*
Y5433D01*
Y5886D02*
Y7076D01*
Y7688D02*
Y10029D01*
Y10641D02*
Y14203D01*
Y14872D02*
Y16091D01*
Y16842D02*
Y17697D01*
Y18130D02*
Y18248D01*
Y19104D02*
Y19601D01*
Y23932D02*
Y25777D01*
Y26389D02*
Y32657D01*
X5492Y2561D02*
Y148D01*
Y5433D02*
Y3246D01*
Y7156D02*
Y5886D01*
Y10040D02*
Y7608D01*
Y14203D02*
Y10629D01*
Y16179D02*
Y14872D01*
Y17697D02*
Y16931D01*
Y18248D02*
Y18130D01*
Y19513D02*
Y19104D01*
Y32657D02*
Y23844D01*
X5581Y148D02*
Y2561D01*
Y3246D02*
Y5433D01*
Y5886D02*
Y7156D01*
Y7608D02*
Y10019D01*
Y10651D02*
Y14203D01*
Y14872D02*
Y16268D01*
Y17020D02*
Y17697D01*
Y18130D02*
Y18248D01*
Y19104D02*
Y19424D01*
Y20448D02*
Y22623D01*
Y23755D02*
Y32657D01*
X5669Y2561D02*
Y148D01*
Y5433D02*
Y3246D01*
Y7156D02*
Y5886D01*
Y10023D02*
Y7692D01*
Y14203D02*
Y10646D01*
Y16356D02*
Y14872D01*
Y17697D02*
Y17108D01*
Y18248D02*
Y18130D01*
Y19365D02*
Y19104D01*
Y22711D02*
Y20360D01*
Y32657D02*
Y23667D01*
X5758Y148D02*
Y2561D01*
Y3246D02*
Y5433D01*
Y5886D02*
Y7170D01*
Y7781D02*
Y10054D01*
Y10616D02*
Y14203D01*
Y14872D02*
Y16445D01*
Y17197D02*
Y17697D01*
Y18130D02*
Y18248D01*
Y19104D02*
Y19350D01*
Y20271D02*
Y32657D01*
X5846Y2570D02*
Y148D01*
Y5433D02*
Y3237D01*
Y7229D02*
Y5886D01*
Y14203D02*
Y13478D01*
Y16534D02*
Y14872D01*
Y17697D02*
Y17285D01*
Y18248D02*
Y18130D01*
Y19350D02*
Y19104D01*
Y32657D02*
Y20182D01*
X5935Y148D02*
Y2643D01*
Y3165D02*
Y5433D01*
Y5886D02*
Y7318D01*
Y13568D02*
Y14203D01*
Y14872D02*
Y16622D01*
Y17374D02*
Y17697D01*
Y18130D02*
Y18248D01*
Y19104D02*
Y19350D01*
Y20094D02*
Y32657D01*
X6024Y2677D02*
Y148D01*
Y5433D02*
Y3130D01*
Y7406D02*
Y5886D01*
Y14203D02*
Y13657D01*
Y16711D02*
Y14872D01*
Y17697D02*
Y17462D01*
Y18248D02*
Y18130D01*
Y19350D02*
Y19104D01*
Y32657D02*
Y20069D01*
X6112Y148D02*
Y2677D01*
Y3130D02*
Y5433D01*
Y5886D02*
Y7259D01*
Y13745D02*
Y14203D01*
Y14872D02*
Y16799D01*
Y17514D02*
Y17697D01*
Y18130D02*
Y18248D01*
Y19104D02*
Y19350D01*
Y20069D02*
Y32657D01*
X6201Y2677D02*
Y148D01*
Y5433D02*
Y3130D01*
Y7170D02*
Y5886D01*
Y14203D02*
Y13834D01*
Y16888D02*
Y14872D01*
Y17697D02*
Y17530D01*
Y18248D02*
Y18130D01*
Y19350D02*
Y19104D01*
Y32657D02*
Y20069D01*
X6289Y148D02*
Y2439D01*
Y3369D02*
Y5433D01*
Y5886D02*
Y7081D01*
Y13923D02*
Y14203D01*
Y14872D02*
Y16977D01*
Y17530D02*
Y17697D01*
Y18130D02*
Y18248D01*
Y19104D02*
Y19350D01*
Y20069D02*
Y21253D01*
Y27330D02*
Y30834D01*
Y31764D02*
Y32657D01*
X6378Y2416D02*
Y148D01*
Y5433D02*
Y3391D01*
Y6993D02*
Y5886D01*
Y14203D02*
Y14011D01*
Y16998D02*
Y14872D01*
Y17697D02*
Y17530D01*
Y18248D02*
Y18130D01*
Y19350D02*
Y19104D01*
Y21127D02*
Y20069D01*
Y30812D02*
Y27456D01*
Y32657D02*
Y31787D01*
X6467Y148D02*
Y2416D01*
Y3391D02*
Y5433D01*
Y5886D02*
Y6904D01*
Y14100D02*
Y14203D01*
Y14872D02*
Y16998D01*
Y17530D02*
Y17697D01*
Y18130D02*
Y18248D01*
Y19104D02*
Y19350D01*
Y20069D02*
Y21038D01*
Y27545D02*
Y30812D01*
Y31787D02*
Y32657D01*
X6555Y2416D02*
Y148D01*
Y5411D02*
Y4543D01*
Y6816D02*
Y5907D01*
Y10167D02*
Y7456D01*
Y16998D02*
Y14872D01*
Y17697D02*
Y17530D01*
Y18248D02*
Y18130D01*
Y19350D02*
Y19104D01*
Y20950D02*
Y20069D01*
Y30812D02*
Y28053D01*
Y32657D02*
Y31787D01*
X6644Y148D02*
Y2416D01*
Y4631D02*
Y5286D01*
Y6032D02*
Y6727D01*
Y7367D02*
Y10168D01*
Y14872D02*
Y16998D01*
Y17530D02*
Y17697D01*
Y18130D02*
Y18248D01*
Y19104D02*
Y19350D01*
Y20069D02*
Y20861D01*
Y28178D02*
Y30812D01*
Y31787D02*
Y32657D01*
X6732Y2416D02*
Y148D01*
Y5211D02*
Y4720D01*
Y6639D02*
Y6108D01*
Y10195D02*
Y7279D01*
Y16998D02*
Y14872D01*
Y17697D02*
Y17530D01*
Y18248D02*
Y18130D01*
Y19350D02*
Y19104D01*
Y20772D02*
Y20069D01*
Y30812D02*
Y28253D01*
Y32657D02*
Y31787D01*
X6821Y148D02*
Y2416D01*
Y4808D02*
Y5162D01*
Y6157D02*
Y6550D01*
Y7190D02*
Y10270D01*
Y14872D02*
Y16998D01*
Y17530D02*
Y17697D01*
Y18130D02*
Y18248D01*
Y19104D02*
Y19350D01*
Y20069D02*
Y20684D01*
Y28302D02*
Y30812D01*
Y31787D02*
Y32657D01*
X6909Y2416D02*
Y148D01*
Y5132D02*
Y4897D01*
Y6461D02*
Y6186D01*
Y10380D02*
Y7102D01*
Y16998D02*
Y14872D01*
Y17697D02*
Y17530D01*
Y18248D02*
Y18130D01*
Y19350D02*
Y19104D01*
Y20595D02*
Y20069D01*
Y30812D02*
Y28332D01*
Y32657D02*
Y31787D01*
X6998Y148D02*
Y2416D01*
Y3391D02*
Y4345D01*
Y4986D02*
Y5119D01*
Y6200D02*
Y6373D01*
Y7013D02*
Y12967D01*
Y14872D02*
Y16998D01*
Y17530D02*
Y17697D01*
Y18130D02*
Y18248D01*
Y19104D02*
Y19350D01*
Y20069D02*
Y20507D01*
Y28346D02*
Y30812D01*
Y31787D02*
Y32657D01*
X7013Y30812D02*
G03X7180Y30979J167D01*
G01Y31619*
G03X7013Y31787I167*
G01X6373*
G03X6206Y31619J168*
G01Y30979*
G03X6373Y30812I167*
G01X7013*
X7087Y2433D02*
Y148D01*
Y4434D02*
Y3374D01*
Y6284D02*
Y6200D01*
Y13056D02*
Y6924D01*
Y16998D02*
Y14872D01*
Y17697D02*
Y17530D01*
Y18248D02*
Y18130D01*
Y19350D02*
Y19104D01*
Y20418D02*
Y20069D01*
Y26540D02*
Y21511D01*
Y30829D02*
Y28345D01*
Y32657D02*
Y31769D01*
X7175Y148D02*
Y2543D01*
Y3264D02*
Y4522D01*
Y6836D02*
Y13144D01*
Y14872D02*
Y16998D01*
Y17530D02*
Y17697D01*
Y18130D02*
Y18248D01*
Y19104D02*
Y19350D01*
Y20069D02*
Y20329D01*
Y21423D02*
Y26629D01*
Y28330D02*
Y30938D01*
Y31660D02*
Y32657D01*
X7191Y6179D02*
G03X7037Y6202I154J520D01*
X6545Y5886J543*
G01X5030*
G03X4869Y5820J227*
G01X4092Y5042*
G03X4026Y4882I160J160*
G01Y3264*
G03X3863Y3391I163J40*
G01X3386*
X2628Y4149*
Y4656*
G03X2402Y4882I226*
X2249Y4823J226*
G01X1929*
G03X1772Y4712J167*
X1614Y4823I158J56*
G01X1604*
Y5024*
G03X1720Y5183I51J159*
G01Y5583*
G03X1553Y5750I167*
G01X1203*
G03X1036Y5583J167*
G01Y5183*
G03X1152Y5024I167*
G01Y4882*
X1142*
G03X915Y4656J226*
X974Y4503I227*
G01Y4183*
G03X1142Y4016I168*
G01X1496*
G03X1614Y4065J167*
G01X1732Y4183*
G03X1772Y4245I118J118*
X1811Y4183I157J56*
G01X1929Y4065*
G03X2047Y4016I118J118*
G01X2179*
G03X2242Y3895I223J39*
G01X3056Y3081*
Y2584*
G03X3223Y2416I167*
G01X3863*
G03X4026Y2543J168*
G01Y2180*
X3975Y2130*
G03X3543Y2391I432J226*
X3112Y2130J487*
G01X2254Y2987*
Y3435*
G03X2087Y3602I167*
G01X1457*
G03X1289Y3435J167*
G01Y3366*
X861*
X709Y3519*
Y10989*
X1873Y12153*
G03X1939Y12313I160J160*
G01Y14001*
X2141Y14203*
X6570*
X5864Y13497*
G03X5797Y13337I160J160*
G01Y10591*
G03X5610Y10652I187J256*
X5439Y10602J317*
X5299Y10677I140J92*
G01X4899*
G03X4732Y10510J167*
G01Y10160*
G03X4899Y9992I167*
G01X5299*
G03X5439Y10067J168*
X5610Y10017I171J268*
X5797Y10078J318*
G01Y7820*
X5585Y7608*
X5459*
G03X5299Y7724I160J51*
G01X4899*
G03X4732Y7557J167*
G01Y7207*
G03X4899Y7040I167*
G01X5299*
G03X5459Y7156J167*
G01X5679*
G03X5839Y7222J226*
G01X6026Y7409*
G03X6090Y7281I224J32*
G01X7191Y6179*
X7264Y4611D02*
Y148D01*
Y13233D02*
Y6747D01*
Y16998D02*
Y14872D01*
Y17697D02*
Y17530D01*
Y18248D02*
Y18130D01*
Y19350D02*
Y19104D01*
Y20241D02*
Y20069D01*
Y26717D02*
Y21334D01*
Y32657D02*
Y28342D01*
X7352Y148D02*
Y4700D01*
Y6659D02*
Y13322D01*
Y14872D02*
Y16998D01*
Y17530D02*
Y17697D01*
Y18130D02*
Y18248D01*
Y19135D02*
Y19350D01*
Y20069D02*
Y20152D01*
Y21245D02*
Y26806D01*
Y28417D02*
Y32657D01*
X7441Y4788D02*
Y148D01*
Y13410D02*
Y6570D01*
Y16998D02*
Y14872D01*
Y17697D02*
Y17530D01*
Y18248D02*
Y18130D01*
Y19350D02*
Y19224D01*
Y26894D02*
Y21157D01*
Y32657D02*
Y28444D01*
X7530Y148D02*
Y4877D01*
Y6482D02*
Y13445D01*
Y14872D02*
Y16827D01*
Y21068D02*
Y26983D01*
Y28445D02*
Y32657D01*
X7618Y4965D02*
Y148D01*
Y13445D02*
Y6393D01*
Y16751D02*
Y14872D01*
Y27072D02*
Y20980D01*
Y32657D02*
Y28445D01*
X7707Y148D02*
Y5054D01*
Y6304D02*
Y13445D01*
Y14872D02*
Y16741D01*
Y20891D02*
Y27160D01*
Y28445D02*
Y32657D01*
X7795Y5142D02*
Y148D01*
Y13445D02*
Y6216D01*
Y16741D02*
Y14872D01*
Y27249D02*
Y20827D01*
Y32657D02*
Y28445D01*
X7884Y148D02*
Y13445D01*
Y14872D02*
Y16741D01*
Y20827D02*
Y27337D01*
Y28445D02*
Y32657D01*
X7972Y13445D02*
Y148D01*
Y16741D02*
Y14872D01*
Y27426D02*
Y20827D01*
Y32657D02*
Y28445D01*
X8061Y148D02*
Y13445D01*
Y14872D02*
Y16741D01*
Y20827D02*
Y27514D01*
Y28445D02*
Y32657D01*
X8150Y13445D02*
Y148D01*
Y16741D02*
Y14872D01*
Y27579D02*
Y20827D01*
Y32657D02*
Y28445D01*
X8238Y148D02*
Y13445D01*
Y14872D02*
Y16741D01*
Y20827D02*
Y27579D01*
Y28445D02*
Y32657D01*
X8327Y13445D02*
Y148D01*
Y16741D02*
Y14872D01*
Y27579D02*
Y20827D01*
Y32657D02*
Y28445D01*
X8415Y148D02*
Y13445D01*
Y14872D02*
Y16741D01*
Y20827D02*
Y27579D01*
Y28445D02*
Y32657D01*
X8504Y13445D02*
Y148D01*
Y16745D02*
Y14872D01*
Y27579D02*
Y20827D01*
Y32657D02*
Y28445D01*
X8593Y148D02*
Y13445D01*
Y14872D02*
Y16799D01*
Y20827D02*
Y27579D01*
Y28445D02*
Y32657D01*
X8681Y13445D02*
Y148D01*
Y17043D02*
Y14872D01*
Y27579D02*
Y20827D01*
Y32657D02*
Y28445D01*
X8770Y148D02*
Y13445D01*
Y14872D02*
Y17084D01*
Y20827D02*
Y27579D01*
Y28445D02*
Y32657D01*
X8858Y13445D02*
Y148D01*
Y17165D02*
Y14887D01*
Y27579D02*
Y20827D01*
Y32657D02*
Y28445D01*
X8947Y148D02*
Y13445D01*
Y14976D02*
Y17165D01*
Y20827D02*
Y27579D01*
Y28445D02*
Y32657D01*
X9035Y13445D02*
Y148D01*
Y17165D02*
Y15064D01*
Y27579D02*
Y20827D01*
Y32657D02*
Y28445D01*
X9124Y148D02*
Y13445D01*
Y15153D02*
Y17165D01*
Y20827D02*
Y27579D01*
Y31899D02*
Y32657D01*
X9213Y13445D02*
Y148D01*
Y17165D02*
Y15241D01*
Y27579D02*
Y20827D01*
Y32657D02*
Y31989D01*
X9301Y148D02*
Y13445D01*
Y16058D02*
Y17160D01*
Y20827D02*
Y27579D01*
Y32078D02*
Y32657D01*
X9390Y13445D02*
Y148D01*
Y17072D02*
Y16147D01*
Y27579D02*
Y20827D01*
Y32657D02*
Y32479D01*
X9478Y148D02*
Y13445D01*
Y16498D02*
Y16721D01*
Y20827D02*
Y27522D01*
X9567Y13456D02*
Y148D01*
Y16646D02*
Y16573D01*
Y27412D02*
Y20827D01*
X9656Y148D02*
Y13509D01*
Y16582D02*
Y16636D01*
Y20827D02*
Y27344D01*
X9744Y13597D02*
Y148D01*
Y16636D02*
Y16582D01*
Y27300D02*
Y20827D01*
X9833Y148D02*
Y13686D01*
Y16582D02*
Y16636D01*
Y20827D02*
Y27274D01*
X9921Y13774D02*
Y148D01*
Y16636D02*
Y16582D01*
Y27263D02*
Y20827D01*
X10010Y148D02*
Y13863D01*
Y16582D02*
Y16636D01*
Y20827D02*
Y27267D01*
Y31787D02*
Y31842D01*
X10098Y13952D02*
Y148D01*
Y16654D02*
Y16565D01*
Y27286D02*
Y20827D01*
Y30812D02*
Y29329D01*
Y31884D02*
Y31787D01*
X10187Y148D02*
Y14040D01*
Y16467D02*
Y16648D01*
Y20827D02*
Y27322D01*
Y28288D02*
Y28646D01*
Y29326D02*
Y30814D01*
Y31785D02*
Y31955D01*
X10276Y14129D02*
Y148D01*
Y16634D02*
Y16472D01*
Y20014D02*
Y19956D01*
Y27378D02*
Y20827D01*
Y28691D02*
Y28232D01*
Y30856D02*
Y29282D01*
Y32076D02*
Y31743D01*
Y32657D02*
Y32523D01*
X10364Y148D02*
Y14217D01*
Y16547D02*
Y16634D01*
Y19867D02*
Y19926D01*
Y20827D02*
Y27466D01*
Y28144D02*
Y28729D01*
Y29244D02*
Y31073D01*
Y31526D02*
Y32657D01*
X10453Y14306D02*
Y148D01*
Y16634D02*
Y16574D01*
Y19837D02*
Y19779D01*
Y27626D02*
Y20823D01*
Y28654D02*
Y27984D01*
Y31073D02*
Y29319D01*
Y32657D02*
Y31526D01*
X10541Y148D02*
Y14394D01*
Y16575D02*
Y16634D01*
Y19690D02*
Y19749D01*
Y20787D02*
Y28644D01*
Y31560D02*
Y32657D01*
X10630Y14483D02*
Y148D01*
Y16634D02*
Y16575D01*
Y19660D02*
Y19602D01*
Y28644D02*
Y20704D01*
Y32657D02*
Y31649D01*
X10689Y18219D02*
X11024Y17884D01*
X11457*
X10719Y148D02*
Y14572D01*
Y16575D02*
Y16634D01*
Y19513D02*
Y19572D01*
Y20615D02*
Y28644D01*
Y31737D02*
Y32657D01*
X10728Y19503D02*
X10229Y20003D01*
G03X10069Y20069I160J160*
G01X5960*
X5561Y20468*
Y22603*
X5672Y22714*
G03X5738Y22874I160J160*
G01Y23504*
G03X5672Y23664I226*
G01X5325Y24011*
Y25742*
G03X5467Y25908I26J166*
G01Y26258*
G03X5299Y26425I168*
G01X4899*
G03X4732Y26258J167*
G01Y25908*
G03X4872Y25743I167*
G01Y23917*
G03X4938Y23757I226*
G01X5223Y23472*
X4899*
G03X4732Y23305J167*
G01Y22955*
G03X4872Y22790I167*
G01Y20226*
G03X4938Y20066I226*
G01X5588Y19417*
G03X5748Y19350I160J160*
G01X7942*
X7922Y19331*
X7638*
G03X7485Y19267J217*
G01X7322Y19104*
X1812*
X1419Y19497*
G03X1420Y19508I317J11*
X1102Y19825I318*
X847Y19697J317*
G01X837Y19707*
Y24161*
G03X1575Y23744I738J445*
X1960Y23835J862*
G01X2267Y23529*
G03X2169Y23130I764J399*
X2766Y22310I862*
G01Y22042*
X2711*
G03X2544Y21875J167*
G01Y21235*
G03X2711Y21068I167*
G01X3351*
G03X3519Y21235J167*
G01Y21875*
G03X3351Y22042I168*
G01X3297*
Y22310*
G03X3852Y22864I266J820*
G01X4009*
G03X4149Y22788I140J91*
G01X4549*
G03X4717Y22955J167*
G01Y23305*
G03X4549Y23472I168*
G01X4149*
G03X4009Y23396J167*
G01X3852*
G03X3031Y23992I821J266*
X2646Y23901J862*
G01X2339Y24208*
G03X2437Y24606I764J398*
X1575Y25469I862*
X837Y25052J863*
G01Y27281*
X2762Y29206*
G03X2854Y29429I223J223*
G01Y32635*
X2877Y32657*
X9512*
G03X9355Y32299I331J358*
X9377Y32154I488*
G01X9141Y31918*
G03X9075Y31758I160J160*
G01Y28445*
X7461*
G03X7301Y28379J226*
G01X7233Y28311*
G03X7037Y28347I196J506*
X6495Y27805J542*
X6532Y27610I542*
G01X6346Y27424*
G03X6280Y27264I160J160*
G01Y21319*
G03X6346Y21159I226*
G01X7369Y20135*
G03X7530Y20069I161J160*
G01X10221*
X10728Y19562*
Y19503*
X10807Y14660D02*
Y148D01*
Y16634D02*
Y16575D01*
Y28644D02*
Y20527D01*
Y32657D02*
Y31826D01*
X10896Y148D02*
Y14749D01*
Y16575D02*
Y16634D01*
Y20438D02*
Y28644D01*
Y31915D02*
Y32657D01*
X10984Y14837D02*
Y148D01*
Y16634D02*
Y16575D01*
Y28661D02*
Y20350D01*
Y30989D02*
Y29311D01*
Y32657D02*
Y32003D01*
X11073Y148D02*
Y14843D01*
Y16575D02*
Y16634D01*
Y20261D02*
Y28774D01*
Y29198D02*
Y31077D01*
Y32056D02*
Y32657D01*
X11161Y14842D02*
Y148D01*
Y16633D02*
Y16576D01*
Y31152D02*
Y20173D01*
Y32657D02*
Y32067D01*
X11250Y148D02*
Y14842D01*
Y16576D02*
Y16633D01*
Y20084D02*
Y31152D01*
Y32067D02*
Y32657D01*
X11339Y14842D02*
Y148D01*
Y16633D02*
Y16576D01*
Y31152D02*
Y19995D01*
Y32657D02*
Y32067D01*
X11427Y148D02*
Y14842D01*
Y16576D02*
Y16633D01*
Y19895D02*
Y31152D01*
Y32235D02*
Y32657D01*
X11457Y17116D02*
X10472D01*
X11516Y14842D02*
Y148D01*
Y16633D02*
Y16576D01*
Y31152D02*
Y18844D01*
Y32657D02*
Y32258D01*
X11604Y148D02*
Y14842D01*
Y16576D02*
Y16633D01*
Y18755D02*
Y31152D01*
Y32258D02*
Y32657D01*
X11693Y14842D02*
Y148D01*
Y16633D02*
Y16576D01*
Y31152D02*
Y18623D01*
Y32657D02*
Y32258D01*
X11781Y148D02*
Y14843D01*
Y16574D02*
Y16635D01*
Y18621D02*
Y31152D01*
Y32258D02*
Y32657D01*
X11870Y14886D02*
Y148D01*
Y16677D02*
Y16531D01*
Y31152D02*
Y18579D01*
Y32657D02*
Y32258D01*
X11910Y16220D02*
G03X11924Y16288I153J68D01*
G01Y16408*
G03X11757Y16576I167*
G01X11157*
G03X11139Y16575J168*
G01X10473*
X10472*
G03X10312Y16508J227*
G01X10270Y16467*
X10183*
G03X10024Y16582I159J52*
G01X9624*
G03X9456Y16415J167*
G01Y16214*
X9289Y16046*
G03X9222Y15886I160J160*
G01Y15251*
X8843Y14872*
X1801*
G03X1641Y14806J226*
G01X1257Y14422*
G03X1191Y14262I160J160*
G01Y12564*
X1011Y12384*
G03X1004I7J317*
X687Y12067J317*
X862Y11783I317*
G01X322Y11243*
G03X256Y11083I160J160*
G01Y3425*
G03X322Y3265I226*
G01X608Y2980*
G03X768Y2913I160J160*
G01X1289*
Y2844*
G03X1457Y2677I168*
G01X1924*
X2862Y1740*
G03X3022Y1673I160J160*
G01X3114*
G03X3543Y1416I429J231*
X3973Y1673J488*
G01X4065*
G03X4225Y1740J227*
G01X4412Y1927*
G03X4478Y2087I160J160*
G01Y2692*
G03X4642Y2561I164J37*
G01X5042*
G03X5209Y2729J168*
G01Y3079*
G03X5108Y3232I167*
G01Y3370*
G03X5160Y3543I265J173*
X4843Y3861I317*
X4525Y3543J318*
X4577Y3370I318*
G01Y3233*
G03X4478Y3116I65J154*
G01Y4788*
X5123Y5433*
X6545*
G03X7037Y5117I492J226*
X7139Y5127J542*
G01X6533Y4520*
G03X6467Y4360I160J160*
G01Y3391*
X6373*
G03X6206Y3224J167*
G01Y3130*
X5951*
G03X5792Y3246I159J51*
G01X5392*
G03X5224Y3079J167*
G01Y2729*
G03X5392Y2561I168*
G01X5792*
G03X5951Y2677J168*
G01X6206*
Y2584*
G03X6373Y2416I167*
G01X7013*
G03X7180Y2584J168*
G01Y3224*
G03X7013Y3391I167*
G01X6919*
Y4266*
X7818Y5165*
G03X7884Y5325I161J160*
G01Y6033*
G03X7818Y6194I227*
G01X6476Y7535*
Y10167*
X6624*
G03X6784Y10234J227*
G01X6863Y10312*
G03X6929Y10472I160J160*
G01Y12898*
X7476Y13445*
X9498*
G03X9658Y13511J226*
G01X10989Y14843*
X11139*
G03X11157Y14842I18J166*
G01X11757*
G03X11924Y15009J167*
G01Y15129*
G03X11910Y15197I167*
X11924Y15265I153J68*
G01Y15385*
G03X11910Y15453I167*
X11924Y15521I153J68*
G01Y15641*
G03X11910Y15709I167*
X11924Y15777I153J68*
G01Y15897*
G03X11910Y15965I167*
X11924Y16033I153J68*
G01Y16153*
G03X11910Y16220I167*
G01X11959Y148D02*
Y31152D01*
Y32258D02*
Y32657D01*
X12047Y31152D02*
Y148D01*
Y32657D02*
Y32258D01*
X12136Y148D02*
Y31152D01*
Y32256D02*
Y32657D01*
X12224Y31152D02*
Y148D01*
Y32657D02*
Y32214D01*
X12313Y148D02*
Y31152D01*
Y31688D02*
Y32657D01*
X12382Y31757D02*
X12278Y31654D01*
Y32091*
G03X12111Y32258I167*
G01X11511*
G03X11344Y32091J167*
G01Y32067*
X11142*
G03X10982Y32001J226*
G01X10507Y31526*
X10330*
Y31619*
G03X10163Y31787I167*
G01X9650*
X9697Y31834*
G03X9843Y31812I146J465*
X10330Y32299J487*
X10173Y32657I487*
G01X12382*
Y31757*
X12402Y31166D02*
Y148D01*
X12490D02*
Y31225D01*
X12579Y31314D02*
Y148D01*
X12667D02*
Y31402D01*
X12756Y31491D02*
Y148D01*
X12844D02*
Y32657D01*
X12933D02*
Y148D01*
X13022D02*
Y32657D01*
X13110D02*
Y148D01*
X13199D02*
Y32657D01*
X13287D02*
Y148D01*
X13376D02*
Y14855D01*
Y15680D02*
Y15737D01*
Y15936D02*
Y16249D01*
Y16448D02*
Y16505D01*
Y16704D02*
Y16761D01*
Y16960D02*
Y17017D01*
Y17216D02*
Y17528D01*
Y17727D02*
Y17784D01*
Y18610D02*
Y32657D01*
X13465Y14744D02*
Y148D01*
Y16138D02*
Y16047D01*
Y17418D02*
Y17326D01*
Y32657D02*
Y18721D01*
X13553Y148D02*
Y14655D01*
Y16064D02*
Y16121D01*
Y17343D02*
Y17401D01*
Y18809D02*
Y32657D01*
X13642Y14567D02*
Y148D01*
Y14873D02*
Y15353D01*
Y16121D02*
Y16064D01*
Y17401D02*
Y17343D01*
Y18111D02*
Y18592D01*
Y32657D02*
Y18898D01*
X13730Y148D02*
Y14478D01*
Y15353D02*
Y14784D01*
Y16064D02*
Y16121D01*
Y17343D02*
Y17401D01*
Y18680D02*
Y18111D01*
Y18987D02*
Y32657D01*
X13819Y14390D02*
Y148D01*
Y14696D02*
Y15353D01*
Y18111D02*
Y18769D01*
Y32657D02*
Y19075D01*
X13839Y15581D02*
X14252D01*
X14439Y15394*
Y15108*
X14882Y14665*
X13839Y17884D02*
X14272D01*
X14380Y17992*
Y18297*
X14882Y18799*
X13907Y148D02*
Y14301D01*
Y15353D02*
Y14625D01*
Y18839D02*
Y18111D01*
Y19164D02*
Y32657D01*
X13996Y11605D02*
Y148D01*
Y14519D02*
Y15353D01*
Y18111D02*
Y18946D01*
Y32657D02*
Y21860D01*
X14085Y148D02*
Y11550D01*
Y15353D02*
Y14430D01*
Y19035D02*
Y18111D01*
Y21915D02*
Y32657D01*
X14173Y11545D02*
Y148D01*
Y11762D02*
Y14929D01*
Y18536D02*
Y21703D01*
Y32657D02*
Y21919D01*
X14262Y148D02*
Y11545D01*
Y14813D02*
Y11762D01*
Y21703D02*
Y18652D01*
Y21919D02*
Y32657D01*
X14350Y11545D02*
Y148D01*
Y11762D02*
Y14697D01*
Y18768D02*
Y21703D01*
Y32657D02*
Y21919D01*
X14439Y148D02*
Y11545D01*
Y14581D02*
Y11762D01*
Y16035D02*
Y16103D01*
Y21703D02*
Y18884D01*
Y21919D02*
Y32657D01*
X14528Y11545D02*
Y148D01*
Y11762D02*
Y14465D01*
Y15611D02*
Y15669D01*
Y16022D02*
Y15954D01*
Y19000D02*
Y21703D01*
Y32657D02*
Y21919D01*
X14616Y148D02*
Y11545D01*
Y14349D02*
Y11762D01*
Y15580D02*
Y15518D01*
Y15886D02*
Y15988D01*
Y17478D02*
Y17569D01*
Y17885D02*
Y18227D01*
Y21703D02*
Y19116D01*
Y21919D02*
Y32657D01*
X14705Y11545D02*
Y148D01*
Y11762D02*
Y14232D01*
Y15149D02*
Y15491D01*
Y15942D02*
Y15798D01*
Y17658D02*
Y17523D01*
Y18316D02*
Y17973D01*
Y19232D02*
Y21703D01*
Y32657D02*
Y21919D01*
X14793Y148D02*
Y11545D01*
Y14116D02*
Y11762D01*
Y15403D02*
Y15060D01*
Y15709D02*
Y15878D01*
Y16240D02*
Y16145D01*
Y17319D02*
Y17224D01*
Y17587D02*
Y17755D01*
Y18062D02*
Y18404D01*
Y21703D02*
Y19348D01*
Y21919D02*
Y32657D01*
X14882Y11545D02*
Y148D01*
Y11762D02*
Y14000D01*
Y14983D02*
Y15314D01*
Y15813D02*
Y15620D01*
Y16081D02*
Y16240D01*
Y17224D02*
Y17384D01*
Y17844D02*
Y17651D01*
Y18482D02*
Y18150D01*
Y19464D02*
Y21703D01*
Y32657D02*
Y21919D01*
X14911Y11762D02*
X14173D01*
Y14321*
G03X14159Y14356I49*
G01X13957Y14558*
G03X13863Y14651I156J62*
G01X13583Y14932*
Y15353*
X14124*
Y15010*
G03X14134Y14980I49*
G01X14911Y13962*
Y11762*
Y19503D02*
X14134Y18485D01*
G03X14124Y18455I39J30*
G01Y18111*
X13583*
Y18533*
X13863Y18813*
G03X13957Y18907I62J156*
G01X14159Y19109*
G03X14173Y19144I35J35*
G01Y21703*
X14911*
Y19503*
X14970Y148D02*
Y11546D01*
Y15226D02*
Y14970D01*
Y15532D02*
Y15749D01*
Y16264D02*
Y16016D01*
Y17448D02*
Y17201D01*
Y17716D02*
Y17933D01*
Y18239D02*
Y18495D01*
Y21919D02*
Y32657D01*
X15059Y11577D02*
Y148D01*
Y14331D02*
Y14402D01*
Y14929D02*
Y15137D01*
Y15684D02*
Y15443D01*
Y15952D02*
Y16319D01*
Y17145D02*
Y17513D01*
Y18021D02*
Y17780D01*
Y18536D02*
Y18327D01*
Y19134D02*
Y19062D01*
Y32657D02*
Y21887D01*
X15148Y148D02*
Y13719D01*
Y14492D02*
Y14169D01*
Y15055D02*
Y14839D01*
Y15355D02*
Y15620D01*
Y16456D02*
Y15888D01*
Y17577D02*
Y17009D01*
Y17845D02*
Y18110D01*
Y18410D02*
Y18626D01*
Y18973D02*
Y19296D01*
Y19746D02*
Y32657D01*
X15236Y13557D02*
Y148D01*
Y14008D02*
Y14992D01*
Y15582D02*
Y15266D01*
Y15823D02*
Y16545D01*
Y16920D02*
Y17641D01*
Y18198D02*
Y17883D01*
Y19457D02*
Y18473D01*
Y32657D02*
Y19907D01*
X15325Y148D02*
Y13476D01*
Y14928D02*
Y13846D01*
Y15194D02*
Y15581D01*
Y16614D02*
Y15797D01*
Y17667D02*
Y16831D01*
Y17884D02*
Y18270D01*
Y18536D02*
Y19619D01*
Y19988D02*
Y32657D01*
X15413Y13465D02*
Y148D01*
Y13684D02*
Y14865D01*
Y15581D02*
Y15131D01*
Y15797D02*
Y16614D01*
Y16831D02*
Y17667D01*
Y18333D02*
Y17884D01*
Y19780D02*
Y18600D01*
Y32657D02*
Y20000D01*
X15502Y148D02*
Y13465D01*
Y14802D02*
Y13681D01*
Y15068D02*
Y15581D01*
Y16614D02*
Y15797D01*
Y17667D02*
Y16831D01*
Y17884D02*
Y18397D01*
Y18663D02*
Y19783D01*
Y20000D02*
Y32657D01*
X15591Y13465D02*
Y148D01*
Y13681D02*
Y14738D01*
Y15581D02*
Y15005D01*
Y15797D02*
Y16614D01*
Y16831D02*
Y17667D01*
Y18460D02*
Y17884D01*
Y19783D02*
Y18726D01*
Y32657D02*
Y20000D01*
X15679Y148D02*
Y9773D01*
Y10404D02*
Y13465D01*
Y14675D02*
Y13681D01*
Y14941D02*
Y15581D01*
Y16614D02*
Y15797D01*
Y17667D02*
Y16831D01*
Y17884D02*
Y18523D01*
Y18789D02*
Y19783D01*
Y20000D02*
Y23061D01*
Y23691D02*
Y32657D01*
X15768Y9727D02*
Y148D01*
Y13465D02*
Y10450D01*
Y13681D02*
Y14612D01*
Y15581D02*
Y14878D01*
Y15797D02*
Y16614D01*
Y16831D02*
Y17667D01*
Y18587D02*
Y17884D01*
Y19783D02*
Y18853D01*
Y23014D02*
Y20000D01*
Y32657D02*
Y23738D01*
X15856Y148D02*
Y9724D01*
Y10453D02*
Y13465D01*
Y14549D02*
Y13681D01*
Y14815D02*
Y15581D01*
Y16614D02*
Y15797D01*
Y17667D02*
Y16831D01*
Y17884D02*
Y18650D01*
Y18916D02*
Y19783D01*
Y20000D02*
Y23012D01*
Y23740D02*
Y32657D01*
X15945Y9724D02*
Y148D01*
Y13465D02*
Y10453D01*
Y13681D02*
Y14485D01*
Y15581D02*
Y14751D01*
Y15797D02*
Y16614D01*
Y16831D02*
Y17667D01*
Y18713D02*
Y17884D01*
Y19783D02*
Y18979D01*
Y23012D02*
Y20000D01*
Y32657D02*
Y23740D01*
X16033Y148D02*
Y9724D01*
Y13221D02*
Y13465D01*
Y14422D02*
Y13681D01*
Y14688D02*
Y15581D01*
Y16614D02*
Y15797D01*
Y17667D02*
Y16831D01*
Y17884D02*
Y18776D01*
Y19042D02*
Y19783D01*
Y20000D02*
Y20244D01*
Y23740D02*
Y32657D01*
X16093Y19085D02*
X15129Y18396D01*
G03X15123Y18391I28J40*
G01X14518Y17786*
Y17824*
X14533Y17839*
G03X14596Y17992I153J153*
G01Y18208*
X14871Y18482*
G03X14882I11J317*
X15199Y18799J317*
X15030Y19080I317*
G01X15415Y19783*
X16093*
Y19085*
X16122Y9724D02*
Y148D01*
Y13465D02*
Y13306D01*
Y13681D02*
Y14359D01*
Y15581D02*
Y14625D01*
Y15797D02*
Y16614D01*
Y16831D02*
Y17667D01*
Y18840D02*
Y17884D01*
Y20159D02*
Y20000D01*
Y32657D02*
Y23740D01*
X16142Y13681D02*
X15415D01*
X15030Y14384*
G03X15199Y14665I148J281*
X14882Y14983I317*
X14871Y14982J318*
G01X14656Y15198*
Y15394*
G03X14592Y15547I217*
G01X14518Y15621*
Y15678*
X15123Y15073*
G03X15129Y15068I34J35*
G01X16142Y14345*
Y13681*
Y15797D02*
X15272D01*
X14764Y16167*
Y16240*
X14911*
G03X14946Y16255J49*
G01X14947Y16256*
G03X15142Y16450I85J279*
G01X15306Y16614*
X16142*
Y15797*
Y16831D02*
X15326D01*
X15142Y17014*
G03X14947Y17209I280J85*
G01X14946Y17210*
G03X14911Y17224I35J35*
G01X14764*
Y17298*
X15272Y17667*
X16142*
Y16831*
X16211Y148D02*
Y9685D01*
Y13318D02*
Y13466D01*
Y14562D02*
Y15582D01*
Y17883D02*
Y18903D01*
Y19985D02*
Y20146D01*
Y23779D02*
Y32657D01*
X16299Y9630D02*
Y148D01*
Y13504D02*
Y13318D01*
Y15620D02*
Y14498D01*
Y19003D02*
Y17844D01*
Y20146D02*
Y19889D01*
Y32657D02*
Y23835D01*
X16388Y148D02*
Y9596D01*
Y13318D02*
Y13543D01*
Y14114D02*
Y16004D01*
Y16575D02*
Y16890D01*
Y17461D02*
Y19312D01*
Y19960D02*
Y20146D01*
Y23869D02*
Y32657D01*
X16476Y9579D02*
Y148D01*
Y13491D02*
Y13318D01*
Y15951D02*
Y14167D01*
Y16837D02*
Y16628D01*
Y19294D02*
Y17513D01*
Y20146D02*
Y19978D01*
Y32657D02*
Y23885D01*
X16565Y148D02*
Y9577D01*
Y13318D02*
Y13486D01*
Y14171D02*
Y15947D01*
Y16632D02*
Y16833D01*
Y17518D02*
Y19294D01*
Y19978D02*
Y20146D01*
Y23888D02*
Y32657D01*
X16654Y9577D02*
Y148D01*
Y13486D02*
Y13318D01*
Y15947D02*
Y14171D01*
Y16833D02*
Y16632D01*
Y19294D02*
Y17518D01*
Y20146D02*
Y19978D01*
Y32657D02*
Y23888D01*
X16742Y148D02*
Y9577D01*
Y13318D02*
Y13486D01*
Y14171D02*
Y15947D01*
Y16632D02*
Y16833D01*
Y17518D02*
Y19294D01*
Y19978D02*
Y20146D01*
Y23888D02*
Y32657D01*
X16831Y9577D02*
Y148D01*
Y13486D02*
Y13318D01*
Y15947D02*
Y14171D01*
Y16833D02*
Y16632D01*
Y19294D02*
Y17518D01*
Y20146D02*
Y19978D01*
Y32657D02*
Y23888D01*
X16919Y148D02*
Y9577D01*
Y13315D02*
Y13487D01*
Y14171D02*
Y15947D01*
Y16632D02*
Y16833D01*
Y17517D02*
Y19303D01*
Y19969D02*
Y20150D01*
Y23888D02*
Y32657D01*
X17008Y9577D02*
Y148D01*
Y13514D02*
Y13265D01*
Y15974D02*
Y14144D01*
Y16860D02*
Y16604D01*
Y19321D02*
Y17490D01*
Y20200D02*
Y19951D01*
Y32657D02*
Y23888D01*
X17096Y148D02*
Y9577D01*
Y10600D02*
Y13514D01*
Y14144D02*
Y15974D01*
Y16604D02*
Y16860D01*
Y17490D02*
Y19321D01*
Y19951D02*
Y22864D01*
Y23888D02*
Y32657D01*
X17185Y9577D02*
Y148D01*
Y13434D02*
Y10600D01*
Y15895D02*
Y14224D01*
Y16780D02*
Y16684D01*
Y19241D02*
Y17570D01*
Y22864D02*
Y20031D01*
Y32657D02*
Y23888D01*
X17274Y148D02*
Y9577D01*
Y10600D02*
Y13411D01*
Y14246D02*
Y15872D01*
Y16707D02*
Y16758D01*
Y17593D02*
Y19219D01*
Y20053D02*
Y22864D01*
Y23888D02*
Y32657D01*
X17362Y9577D02*
Y148D01*
Y13411D02*
Y10600D01*
Y15872D02*
Y14246D01*
Y16758D02*
Y16707D01*
Y19219D02*
Y17593D01*
Y22864D02*
Y20053D01*
Y32657D02*
Y23888D01*
X17451Y148D02*
Y9577D01*
Y10600D02*
Y13411D01*
Y14246D02*
Y15872D01*
Y16707D02*
Y16758D01*
Y17593D02*
Y19219D01*
Y20053D02*
Y22864D01*
Y23888D02*
Y32657D01*
X17539Y9577D02*
Y148D01*
Y13411D02*
Y10600D01*
Y15872D02*
Y14246D01*
Y16758D02*
Y16707D01*
Y19219D02*
Y17593D01*
Y22864D02*
Y20053D01*
Y32657D02*
Y23888D01*
X17628Y148D02*
Y9577D01*
Y10600D02*
Y13411D01*
Y14246D02*
Y15872D01*
Y16707D02*
Y16758D01*
Y17593D02*
Y19219D01*
Y20053D02*
Y22864D01*
Y23888D02*
Y32657D01*
X17717Y2512D02*
Y148D01*
Y9577D02*
Y3394D01*
Y13411D02*
Y10600D01*
Y15872D02*
Y14246D01*
Y16758D02*
Y16707D01*
Y19219D02*
Y17593D01*
Y22864D02*
Y20053D01*
Y30071D02*
Y23888D01*
Y32657D02*
Y30953D01*
X17805Y148D02*
Y2221D01*
Y3685D02*
Y9577D01*
Y10600D02*
Y13411D01*
Y14246D02*
Y15872D01*
Y16707D02*
Y16758D01*
Y17593D02*
Y19219D01*
Y20053D02*
Y22864D01*
Y23888D02*
Y29780D01*
Y31244D02*
Y32657D01*
X17869Y13411D02*
G03X18036Y13579J168D01*
G01Y14079*
G03X17869Y14246I167*
G01X17269*
G03X17115Y14144J167*
G01X17005*
G03X16914Y14171I91J140*
G01X16514*
G03X16358Y14066J167*
G01Y14370*
G03X16288Y14506I167*
G01X15266Y15236*
X14587Y15916*
G03X14528Y15954I118J119*
G01X14478Y16003*
G03X14311Y16073I167J166*
G01X13839*
G03X13774Y16064J236*
G01X13539*
G03X13371Y15897J167*
G01Y15777*
G03X13386Y15709I168*
X13371Y15641I153J68*
G01Y15521*
G03X13379Y15469I168*
X13366Y15404I154J65*
G01Y14912*
G03X13415Y14793I167*
G01X13957Y14252*
Y11713*
G03X14124Y11545I167*
G01X14961*
G03X15128Y11713J168*
G01Y13755*
X15239Y13551*
G03X15386Y13465I147J81*
G01X16191*
G03X16355Y13600J167*
X16514Y13486I159J54*
G01X16914*
G03X17005Y13514J168*
G01X17115*
G03X17269Y13411I154J65*
G01X17869*
Y16758D02*
G03X18036Y16925J167D01*
G01Y17425*
G03X17869Y17593I167*
G01X17269*
G03X17115Y17490J168*
G01X17005*
G03X16914Y17518I91J140*
G01X16514*
G03X16358Y17412J168*
G01Y17717*
G03X16191Y17884I167*
G01X15256*
G03X15157Y17852J167*
G01X14647Y17480*
X14646*
G03X14478Y17411J236*
G01X14420Y17352*
X13839*
G03X13774Y17343J236*
G01X13539*
G03X13371Y17176J167*
G01Y17056*
G03X13386Y16988I168*
X13371Y16920I153J68*
G01Y16800*
G03X13386Y16732I168*
X13371Y16664I153J68*
G01Y16544*
G03X13386Y16476I168*
X13371Y16408I153J68*
G01Y16288*
G03X13539Y16121I168*
G01X13774*
G03X13839Y16112I65J227*
G01X14430*
X14488Y16054*
G03X14646Y15984I168J166*
G01X15157Y15613*
G03X15256Y15581I99J135*
G01X16191*
G03X16358Y15748J167*
G01Y16052*
G03X16514Y15947I156J62*
G01X16914*
G03X17005Y15974J167*
G01X17115*
G03X17269Y15872I154J65*
G01X17869*
G03X18036Y16039J167*
G01Y16539*
G03X17869Y16707I167*
G01X17269*
G03X17115Y16604J168*
G01X17005*
G03X16914Y16632I91J140*
G01X16514*
G03X16358Y16527J168*
G01Y16683*
G03X16351Y16732I167*
X16358Y16781I160J49*
G01Y16938*
G03X16514Y16833I156J62*
G01X16914*
G03X17005Y16860J167*
G01X17115*
G03X17269Y16758I154J65*
G01X17869*
Y19219D02*
G03X18036Y19386J167D01*
G01Y19886*
G03X17869Y20053I167*
G01X17269*
G03X17115Y19951J167*
G01X16956*
G03X16864Y19978I92J140*
G01X16464*
G03X16306Y19865J167*
X16142Y20000I164J32*
G01X15386*
G03X15239Y19913J167*
G01X15128Y19710*
Y21752*
G03X14961Y21919I167*
G01X14124*
G03X13957Y21752J167*
G01Y19213*
X13415Y18671*
G03X13366Y18553I118J118*
G01Y18061*
G03X13379Y17996I167*
X13371Y17944I160J52*
G01Y17824*
G03X13386Y17756I168*
X13371Y17688I153J68*
G01Y17568*
G03X13539Y17401I168*
G01X13774*
G03X13839Y17392I65J227*
G01X14341*
G03X14508Y17461J236*
G01X14744Y17697*
G03X14778Y17740I167J167*
G01X15266Y18228*
X16239Y18923*
G03X16309Y19059I97J136*
G01Y19399*
G03X16464Y19294I155J62*
G01X16864*
G03X16956Y19321J167*
G01X17115*
G03X17269Y19219I154J65*
G01X17869*
X17894Y2025D02*
Y148D01*
Y9577D02*
Y3880D01*
Y13413D02*
Y10600D01*
Y15874D02*
Y14244D01*
Y16760D02*
Y16705D01*
Y19220D02*
Y17591D01*
Y22864D02*
Y20051D01*
Y29584D02*
Y23888D01*
Y32657D02*
Y31440D01*
X17982Y148D02*
Y1871D01*
Y4035D02*
Y9577D01*
Y10600D02*
Y13456D01*
Y14202D02*
Y15916D01*
Y16662D02*
Y16802D01*
Y17548D02*
Y19263D01*
Y20009D02*
Y22864D01*
Y23888D02*
Y29430D01*
Y31594D02*
Y32657D01*
X18071Y1743D02*
Y148D01*
Y9577D02*
Y4163D01*
Y22864D02*
Y10600D01*
Y29302D02*
Y23888D01*
Y32657D02*
Y31722D01*
X18159Y148D02*
Y1633D01*
Y4273D02*
Y9577D01*
Y10600D02*
Y22864D01*
Y23888D02*
Y29192D01*
Y31832D02*
Y32657D01*
X18248Y1537D02*
Y148D01*
Y9577D02*
Y4369D01*
Y22864D02*
Y10600D01*
Y29096D02*
Y23888D01*
Y32657D02*
Y31928D01*
X18337Y148D02*
Y1452D01*
Y4453D02*
Y9577D01*
Y10600D02*
Y22864D01*
Y23888D02*
Y29011D01*
Y32012D02*
Y32657D01*
X18425Y1377D02*
Y148D01*
Y9577D02*
Y4528D01*
Y22864D02*
Y10600D01*
Y28936D02*
Y23888D01*
Y32657D02*
Y32087D01*
X18514Y148D02*
Y1310D01*
Y4595D02*
Y9577D01*
Y10600D02*
Y22864D01*
Y23888D02*
Y28869D01*
Y32154D02*
Y32657D01*
X18602Y1251D02*
Y148D01*
Y9577D02*
Y4655D01*
Y22864D02*
Y10600D01*
Y28810D02*
Y23888D01*
Y32657D02*
Y32214D01*
X18691Y148D02*
Y1197D01*
Y4708D02*
Y9577D01*
Y10600D02*
Y22864D01*
Y23888D02*
Y28756D01*
Y32267D02*
Y32657D01*
X18780Y1150D02*
Y148D01*
Y9577D02*
Y4755D01*
Y22864D02*
Y10600D01*
Y28709D02*
Y23888D01*
Y32657D02*
Y32314D01*
X18868Y148D02*
Y1108D01*
Y4797D02*
Y9577D01*
Y10600D02*
Y13278D01*
Y14921D02*
Y15000D01*
Y16692D02*
Y16772D01*
Y18464D02*
Y18544D01*
Y20236D02*
Y22864D01*
Y23888D02*
Y28667D01*
Y32356D02*
Y32657D01*
X18957Y1072D02*
Y148D01*
Y9577D02*
Y4834D01*
Y13223D02*
Y10600D01*
Y22864D02*
Y20291D01*
Y28631D02*
Y23888D01*
Y32657D02*
Y32393D01*
X19045Y148D02*
Y1040D01*
Y4866D02*
Y9577D01*
Y10600D02*
Y13219D01*
Y14764D02*
Y13435D01*
Y16535D02*
Y15157D01*
Y18307D02*
Y16929D01*
Y20079D02*
Y18701D01*
Y20295D02*
Y22864D01*
Y23888D02*
Y28599D01*
Y32425D02*
Y32657D01*
X19134Y1012D02*
Y148D01*
Y9577D02*
Y4893D01*
Y13219D02*
Y10600D01*
Y13435D02*
Y14764D01*
Y15157D02*
Y16535D01*
Y16929D02*
Y18307D01*
Y18701D02*
Y20079D01*
Y22864D02*
Y20295D01*
Y28571D02*
Y23888D01*
Y32657D02*
Y32452D01*
X19222Y148D02*
Y989D01*
Y4916D02*
Y9577D01*
Y10600D02*
Y13219D01*
Y14764D02*
Y13435D01*
Y16535D02*
Y15157D01*
Y18307D02*
Y16929D01*
Y20079D02*
Y18701D01*
Y20295D02*
Y22864D01*
Y23888D02*
Y28548D01*
Y32475D02*
Y32657D01*
X19311Y970D02*
Y148D01*
Y9577D02*
Y4935D01*
Y13219D02*
Y10600D01*
Y13435D02*
Y14764D01*
Y15157D02*
Y16535D01*
Y16929D02*
Y18307D01*
Y18701D02*
Y20079D01*
Y22864D02*
Y20295D01*
Y28529D02*
Y23888D01*
Y32657D02*
Y32494D01*
X19400Y148D02*
Y956D01*
Y4950D02*
Y9577D01*
Y10600D02*
Y13219D01*
Y14764D02*
Y13435D01*
Y16535D02*
Y15157D01*
Y18307D02*
Y16929D01*
Y20079D02*
Y18701D01*
Y20295D02*
Y22864D01*
Y23888D02*
Y28515D01*
Y32509D02*
Y32657D01*
X19488Y945D02*
Y148D01*
Y9577D02*
Y4960D01*
Y13219D02*
Y10600D01*
Y13435D02*
Y14764D01*
Y15157D02*
Y16466D01*
Y16950D02*
Y18307D01*
Y18701D02*
Y20058D01*
Y22864D02*
Y20295D01*
Y28504D02*
Y23888D01*
Y32657D02*
Y32520D01*
X19577Y148D02*
Y938D01*
Y4967D02*
Y9577D01*
Y10600D02*
Y13223D01*
Y14764D02*
Y13495D01*
Y16377D02*
Y15157D01*
Y16683D02*
Y16738D01*
Y18307D02*
Y17038D01*
Y19970D02*
Y18701D01*
Y20270D02*
Y22864D01*
Y23888D02*
Y28497D01*
Y32526D02*
Y32657D01*
X19665Y936D02*
Y148D01*
Y9577D02*
Y4970D01*
Y13277D02*
Y10600D01*
Y13583D02*
Y14764D01*
Y15157D02*
Y16289D01*
Y16820D02*
Y16595D01*
Y17127D02*
Y18307D01*
Y18701D02*
Y19881D01*
Y22864D02*
Y20187D01*
Y28495D02*
Y23888D01*
Y32657D02*
Y32529D01*
X19754Y148D02*
Y937D01*
Y4969D02*
Y9577D01*
Y10600D02*
Y13366D01*
Y14764D02*
Y13672D01*
Y16200D02*
Y15157D01*
Y16506D02*
Y16909D01*
Y18307D02*
Y17215D01*
Y19793D02*
Y18701D01*
Y20099D02*
Y22864D01*
Y23888D02*
Y28496D01*
Y32528D02*
Y32657D01*
X19843Y942D02*
Y148D01*
Y9577D02*
Y4964D01*
Y13454D02*
Y10600D01*
Y13761D02*
Y14764D01*
Y15157D02*
Y16112D01*
Y16998D02*
Y16418D01*
Y17304D02*
Y18307D01*
Y18701D02*
Y19704D01*
Y22864D02*
Y20010D01*
Y28501D02*
Y23888D01*
Y32657D02*
Y32523D01*
X19931Y148D02*
Y950D01*
Y4955D02*
Y9577D01*
Y10600D02*
Y13543D01*
Y14764D02*
Y13849D01*
Y16023D02*
Y15157D01*
Y16329D02*
Y17086D01*
Y18307D02*
Y17392D01*
Y19615D02*
Y18701D01*
Y19922D02*
Y22864D01*
Y23888D02*
Y28510D01*
Y32514D02*
Y32657D01*
X20020Y963D02*
Y148D01*
Y9577D02*
Y4942D01*
Y13631D02*
Y10600D01*
Y13938D02*
Y14764D01*
Y15157D02*
Y15934D01*
Y17175D02*
Y16241D01*
Y17481D02*
Y18307D01*
Y18701D02*
Y19527D01*
Y22864D02*
Y19833D01*
Y28522D02*
Y23888D01*
Y32657D02*
Y32501D01*
X20108Y148D02*
Y980D01*
Y4925D02*
Y9577D01*
Y10600D02*
Y13720D01*
Y14764D02*
Y14026D01*
Y15846D02*
Y15157D01*
Y16152D02*
Y17263D01*
Y18307D02*
Y17570D01*
Y19438D02*
Y18701D01*
Y19745D02*
Y22864D01*
Y23888D02*
Y28539D01*
Y32484D02*
Y32657D01*
X20197Y1001D02*
Y148D01*
Y9577D02*
Y4904D01*
Y13809D02*
Y10600D01*
Y14114D02*
Y14764D01*
Y15157D02*
Y15797D01*
Y17352D02*
Y16063D01*
Y17657D02*
Y18307D01*
Y18701D02*
Y19350D01*
Y22864D02*
Y19656D01*
Y28560D02*
Y23888D01*
Y32657D02*
Y32463D01*
X20285Y148D02*
Y1027D01*
Y4879D02*
Y9577D01*
Y10600D02*
Y13897D01*
Y14764D02*
Y14124D01*
Y15797D02*
Y15157D01*
Y16014D02*
Y17441D01*
Y18307D02*
Y17667D01*
Y19341D02*
Y18701D01*
Y19567D02*
Y22864D01*
Y23888D02*
Y28586D01*
Y32438D02*
Y32657D01*
X20374Y1057D02*
Y148D01*
Y9577D02*
Y4849D01*
Y13907D02*
Y10600D01*
Y14124D02*
Y14764D01*
Y15157D02*
Y15797D01*
Y17451D02*
Y16014D01*
Y17667D02*
Y18307D01*
Y18701D02*
Y19341D01*
Y22864D02*
Y19557D01*
Y28616D02*
Y23888D01*
Y32657D02*
Y32408D01*
X20463Y148D02*
Y1091D01*
Y4814D02*
Y9577D01*
Y10600D02*
Y13907D01*
Y14764D02*
Y14124D01*
Y15797D02*
Y15157D01*
Y16014D02*
Y17451D01*
Y18307D02*
Y17667D01*
Y19341D02*
Y18701D01*
Y19557D02*
Y22864D01*
Y23888D02*
Y28650D01*
Y32373D02*
Y32657D01*
X20551Y1131D02*
Y148D01*
Y9577D02*
Y4775D01*
Y11953D02*
Y10600D01*
Y12628D02*
Y12260D01*
Y14124D02*
Y14764D01*
Y15157D02*
Y15797D01*
Y17451D02*
Y16014D01*
Y17667D02*
Y18307D01*
Y18701D02*
Y19341D01*
Y21221D02*
Y20837D01*
Y22864D02*
Y21527D01*
Y28690D02*
Y23888D01*
Y32657D02*
Y32334D01*
X20640Y148D02*
Y1176D01*
Y4730D02*
Y9577D01*
Y10600D02*
Y11794D01*
Y12419D02*
Y12581D01*
Y14764D02*
Y14124D01*
Y15797D02*
Y15157D01*
Y16014D02*
Y17451D01*
Y18307D02*
Y17667D01*
Y19341D02*
Y18701D01*
Y20883D02*
Y21062D01*
Y21686D02*
Y22864D01*
Y23888D02*
Y28735D01*
Y32289D02*
Y32657D01*
X20728Y1226D02*
Y148D01*
Y9577D02*
Y4679D01*
Y11711D02*
Y10600D01*
Y12579D02*
Y12501D01*
Y12795D02*
Y14764D01*
Y15157D02*
Y15797D01*
Y17451D02*
Y16014D01*
Y17667D02*
Y18307D01*
Y18701D02*
Y20669D01*
Y20979D02*
Y20886D01*
Y22864D02*
Y21769D01*
Y28785D02*
Y23888D01*
Y32657D02*
Y32238D01*
X20817Y148D02*
Y1283D01*
Y4623D02*
Y9577D01*
Y10600D02*
Y11661D01*
Y14764D02*
Y12795D01*
Y15797D02*
Y15157D01*
Y16014D02*
Y17451D01*
Y18307D02*
Y17667D01*
Y20669D02*
Y18701D01*
Y21820D02*
Y22864D01*
Y23888D02*
Y28842D01*
Y32182D02*
Y32657D01*
X20906Y1347D02*
Y148D01*
Y9577D02*
Y4559D01*
Y11631D02*
Y10600D01*
Y12795D02*
Y14764D01*
Y15157D02*
Y15797D01*
Y17451D02*
Y16014D01*
Y17667D02*
Y18307D01*
Y18701D02*
Y20669D01*
Y22864D02*
Y21849D01*
Y28906D02*
Y23888D01*
Y32657D02*
Y32118D01*
X20994Y148D02*
Y1418D01*
Y4488D02*
Y9577D01*
Y10600D02*
Y11619D01*
Y14764D02*
Y12795D01*
Y15797D02*
Y15157D01*
Y16014D02*
Y17451D01*
Y18307D02*
Y17667D01*
Y20669D02*
Y18701D01*
Y21861D02*
Y22864D01*
Y23888D02*
Y28977D01*
Y32047D02*
Y32657D01*
X21083Y1498D02*
Y148D01*
Y9577D02*
Y4407D01*
Y11624D02*
Y10600D01*
Y12795D02*
Y14764D01*
Y15157D02*
Y15797D01*
Y17451D02*
Y16014D01*
Y17667D02*
Y18307D01*
Y18701D02*
Y20669D01*
Y22864D02*
Y21856D01*
Y29057D02*
Y23888D01*
Y32657D02*
Y31967D01*
X21171Y148D02*
Y1589D01*
Y4317D02*
Y9577D01*
Y10600D02*
Y11645D01*
Y14764D02*
Y12795D01*
Y15797D02*
Y15157D01*
Y16014D02*
Y17451D01*
Y18307D02*
Y17667D01*
Y20669D02*
Y18701D01*
Y21835D02*
Y22864D01*
Y23888D02*
Y29148D01*
Y31876D02*
Y32657D01*
X21260Y1692D02*
Y148D01*
Y9577D02*
Y4214D01*
Y11686D02*
Y10600D01*
Y12579D02*
Y12527D01*
Y12795D02*
Y14764D01*
Y15157D02*
Y15797D01*
Y17451D02*
Y16014D01*
Y17667D02*
Y18307D01*
Y18701D02*
Y20669D01*
Y20953D02*
Y20886D01*
Y22864D02*
Y21795D01*
Y29251D02*
Y23888D01*
Y32657D02*
Y31773D01*
X21309Y12795D02*
X20719D01*
Y14075*
G03X20669Y14124I50*
G01X20226*
G03X20192Y14110J49*
G01X19517Y13435*
X19045*
Y14764*
X21309*
Y12795*
Y18701D02*
X19045D01*
Y20079*
X19468*
X20192Y19355*
G03X20226Y19341I34J35*
G01X20669*
G03X20719Y19390J49*
G01Y20669*
X21309*
Y18701*
X21348Y148D02*
Y1811D01*
Y4094D02*
Y9577D01*
Y10600D02*
Y11752D01*
Y12461D02*
Y12579D01*
Y15797D02*
Y15157D01*
Y16014D02*
Y17451D01*
Y18307D02*
Y17667D01*
Y20886D02*
Y21020D01*
Y21728D02*
Y22864D01*
Y23888D02*
Y29370D01*
Y31653D02*
Y32657D01*
X21437Y1953D02*
Y148D01*
Y9577D02*
Y3953D01*
Y11865D02*
Y10600D01*
Y12598D02*
Y12348D01*
Y15157D02*
Y15797D01*
Y17451D02*
Y16014D01*
Y17667D02*
Y18307D01*
Y21132D02*
Y20866D01*
Y22864D02*
Y21616D01*
Y29512D02*
Y23888D01*
Y32657D02*
Y31512D01*
X21501Y21374D02*
G03X21014Y21861I487D01*
X20526Y21374J487*
X21014Y20887I488*
X21501Y21374J487*
G01X21526Y148D02*
Y2127D01*
Y3779D02*
Y9577D01*
Y10600D02*
Y14385D01*
Y14536D02*
Y14852D01*
Y15797D02*
Y15153D01*
Y16014D02*
Y17451D01*
Y18311D02*
Y17667D01*
Y19397D02*
Y22864D01*
Y23888D02*
Y29686D01*
Y31338D02*
Y32657D01*
X21614Y2363D02*
Y148D01*
Y9577D02*
Y3543D01*
Y14763D02*
Y10600D01*
Y15070D02*
Y15797D01*
Y17451D02*
Y16014D01*
Y17667D02*
Y18395D01*
Y22864D02*
Y18701D01*
Y29922D02*
Y23888D01*
Y32657D02*
Y31102D01*
X21702Y2953D02*
G03X19685Y4970I2017D01*
X17668Y2953J2017*
X19685Y935I2017*
X21702Y2953J2018*
G01Y30512D02*
G03X19685Y32529I2017D01*
X17668Y30512J2017*
X19685Y28494I2017*
X21702Y30512J2018*
G01X21703Y148D02*
Y9577D01*
Y10600D02*
Y14675D01*
Y15777D02*
Y14981D01*
Y16014D02*
Y17451D01*
Y18484D02*
Y17688D01*
Y18790D02*
Y22864D01*
Y23888D02*
Y32657D01*
X21791Y9577D02*
Y148D01*
Y14586D02*
Y10600D01*
Y14892D02*
Y15688D01*
Y17476D02*
Y15988D01*
Y17776D02*
Y18572D01*
Y22864D02*
Y18878D01*
Y32657D02*
Y23888D01*
X21880Y148D02*
Y5376D01*
Y5942D02*
Y9577D01*
Y10600D02*
Y14498D01*
Y15600D02*
Y14804D01*
Y15906D02*
Y17559D01*
Y18661D02*
Y17865D01*
Y18967D02*
Y22864D01*
Y23888D02*
Y27522D01*
Y28088D02*
Y32657D01*
X21969Y5267D02*
Y148D01*
Y9577D02*
Y6052D01*
Y14409D02*
Y10600D01*
Y14715D02*
Y15511D01*
Y17647D02*
Y15817D01*
Y17953D02*
Y18749D01*
Y22864D02*
Y19056D01*
Y27412D02*
Y23888D01*
Y32657D02*
Y28198D01*
X22057Y148D02*
Y5198D01*
Y6121D02*
Y9577D01*
Y10600D02*
Y14320D01*
Y15423D02*
Y14627D01*
Y15729D02*
Y17736D01*
Y18838D02*
Y18042D01*
Y19144D02*
Y22864D01*
Y23888D02*
Y27344D01*
Y28266D02*
Y32657D01*
X22146Y5154D02*
Y148D01*
Y9577D02*
Y6165D01*
Y14232D02*
Y10600D01*
Y14538D02*
Y15334D01*
Y17824D02*
Y15640D01*
Y18131D02*
Y18926D01*
Y22864D02*
Y19233D01*
Y27300D02*
Y23888D01*
Y32657D02*
Y28310D01*
X22234Y148D02*
Y5128D01*
Y6191D02*
Y9577D01*
Y10600D02*
Y14143D01*
Y15245D02*
Y14450D01*
Y15552D02*
Y17913D01*
Y19015D02*
Y18219D01*
Y19321D02*
Y22864D01*
Y23888D02*
Y27274D01*
Y28337D02*
Y32657D01*
X22323Y5117D02*
Y148D01*
Y9577D02*
Y6201D01*
Y14055D02*
Y10600D01*
Y14361D02*
Y15157D01*
Y18002D02*
Y15463D01*
Y18308D02*
Y19104D01*
Y22864D02*
Y19410D01*
Y27263D02*
Y23888D01*
Y32657D02*
Y28347D01*
X22411Y148D02*
Y5122D01*
Y6197D02*
Y9577D01*
Y10600D02*
Y13966D01*
Y15068D02*
Y14272D01*
Y15374D02*
Y18090D01*
Y19192D02*
Y18396D01*
Y19498D02*
Y22864D01*
Y23888D02*
Y27267D01*
Y28343D02*
Y32657D01*
X22500Y5140D02*
Y148D01*
Y9577D02*
Y6178D01*
Y11883D02*
Y10600D01*
Y12604D02*
Y12330D01*
Y14184D02*
Y14980D01*
Y18179D02*
Y15286D01*
Y18485D02*
Y19281D01*
Y21151D02*
Y20860D01*
Y22864D02*
Y21597D01*
Y27286D02*
Y23888D01*
Y32657D02*
Y28324D01*
X22589Y148D02*
Y5176D01*
Y6143D02*
Y9577D01*
Y10600D02*
Y11762D01*
Y12451D02*
Y12579D01*
Y14891D02*
Y14095D01*
Y15197D02*
Y18267D01*
Y19369D02*
Y18574D01*
Y20886D02*
Y21029D01*
Y21719D02*
Y22864D01*
Y23888D02*
Y27322D01*
Y28288D02*
Y32657D01*
X22677Y5233D02*
Y148D01*
Y9577D02*
Y6086D01*
Y11692D02*
Y10600D01*
Y12579D02*
Y12521D01*
Y12795D02*
Y14802D01*
Y18356D02*
Y15109D01*
Y18662D02*
Y20669D01*
Y20959D02*
Y20886D01*
Y22864D02*
Y21789D01*
Y27378D02*
Y23888D01*
Y32657D02*
Y28232D01*
X22766Y148D02*
Y5320D01*
Y5999D02*
Y9577D01*
Y10600D02*
Y11649D01*
Y14714D02*
Y12795D01*
Y15020D02*
Y18444D01*
Y20669D02*
Y18751D01*
Y21832D02*
Y22864D01*
Y23888D02*
Y27466D01*
Y28144D02*
Y32657D01*
X22854Y5480D02*
Y148D01*
Y9577D02*
Y5839D01*
Y11625D02*
Y10600D01*
Y12795D02*
Y14625D01*
Y18533D02*
Y14932D01*
Y18839D02*
Y20669D01*
Y22864D02*
Y21855D01*
Y27626D02*
Y23888D01*
Y32657D02*
Y27984D01*
X22885Y5659D02*
G03X22343Y6202I542D01*
X21800Y5659J543*
X22343Y5117I543*
X22885Y5659J542*
G01Y27805D02*
G03X22343Y28347I542D01*
X21800Y27805J542*
X22343Y27263I543*
X22885Y27805J542*
G01X22943Y148D02*
Y9577D01*
Y10600D02*
Y11619D01*
Y14537D02*
Y12795D01*
Y14843D02*
Y18622D01*
Y20669D02*
Y18928D01*
Y21861D02*
Y22864D01*
Y23888D02*
Y32657D01*
X23031Y9577D02*
Y148D01*
Y11629D02*
Y10600D01*
Y12795D02*
Y14448D01*
Y18710D02*
Y14754D01*
Y19016D02*
Y20669D01*
Y22864D02*
Y21851D01*
Y32657D02*
Y23888D01*
X23120Y148D02*
Y9577D01*
Y10600D02*
Y11656D01*
Y14360D02*
Y12795D01*
Y14666D02*
Y18799D01*
Y20669D02*
Y19105D01*
Y21824D02*
Y22864D01*
Y23888D02*
Y32657D01*
X23209Y9577D02*
Y148D01*
Y11704D02*
Y10600D01*
Y12579D02*
Y12508D01*
Y12795D02*
Y14271D01*
Y18887D02*
Y14577D01*
Y19194D02*
Y20669D01*
Y20972D02*
Y20886D01*
Y22864D02*
Y21776D01*
Y32657D02*
Y23888D01*
X23228Y12795D02*
X22638D01*
Y14026*
G03X22623Y14060I49*
G01X21541Y15143*
G03X21506Y15157I35J35*
G01X19045*
Y16535*
X19419*
X20142Y15812*
G03X20177Y15797I35J34*
G01X21682*
X23228Y14251*
Y12795*
Y19213D02*
X21682Y17667D01*
X20226*
G03X20192Y17653J49*
G01X19468Y16929*
X19045*
Y18307*
X21506*
G03X21541Y18322J49*
G01X22623Y19404*
G03X22638Y19439I34J35*
G01Y20669*
X23228*
Y19213*
X23297Y148D02*
Y9577D01*
Y10600D02*
Y11782D01*
Y12430D02*
Y12580D01*
Y14489D02*
Y18976D01*
Y20885D02*
Y21050D01*
Y21698D02*
Y22864D01*
Y23888D02*
Y32657D01*
X23386Y9577D02*
Y148D01*
Y11926D02*
Y10600D01*
Y12618D02*
Y12287D01*
Y19065D02*
Y14400D01*
Y21194D02*
Y20846D01*
Y22864D02*
Y21554D01*
Y32657D02*
Y23888D01*
X23396Y19075D02*
G03X23445Y19193I118J118D01*
G01Y20719*
G03X23278Y20886I167*
G01X22589*
G03X22421Y20719J167*
G01Y19508*
X21526Y18613*
G03X21531Y18654I162J41*
G01Y19354*
G03X21526Y19397I167*
G01Y20719*
G03X21358Y20886I168*
G01X20669*
G03X20502Y20719J167*
G01Y19557*
X20296*
X19607Y20246*
G03X19488Y20295I119J118*
G01X18996*
G03X18829Y20128J167*
G01Y18652*
G03X18917Y18504I167*
X18829Y18356I79J148*
G01Y16880*
G03X18917Y16732I167*
X18829Y16585I79J147*
G01Y15108*
G03X18917Y14961I167*
X18829Y14813I79J148*
G01Y13386*
G03X18996Y13219I167*
G01X19537*
G03X19656Y13268J167*
G01X20296Y13907*
X20502*
Y12746*
G03X20669Y12579I167*
G01X20894*
G03X20526Y12106I120J473*
X21014Y11619I488*
X21501Y12106J487*
X21133Y12579I487*
G01X21358*
G03X21526Y12746J167*
G01Y14385*
G03X21531Y14461I512J76*
X21526Y14536I517*
G01Y14813*
G03X21519Y14858I168*
G01X22421Y13956*
Y12746*
G03X22589Y12579I168*
G01X22814*
G03X22446Y12106I119J473*
X22933Y11619I487*
X23420Y12106J487*
X23053Y12579I487*
G01X23278*
G03X23445Y12746J167*
G01Y14272*
G03X23396Y14390I167*
G01X21821Y15965*
G03X21703Y16014I118J119*
G01X20246*
X19557Y16703*
G03X19537Y16720I118J118*
X19607Y16762I49J160*
G01X20296Y17451*
X21703*
G03X21821Y17500J167*
G01X23396Y19075*
X23420Y21374D02*
G03X22933Y21861I487D01*
X22446Y21374J487*
X22933Y20887I487*
X23420Y21374J487*
G01X23474Y148D02*
Y9577D01*
Y10600D02*
Y22864D01*
Y23888D02*
Y32657D01*
X23563Y9577D02*
Y148D01*
Y22864D02*
Y10600D01*
Y32657D02*
Y23888D01*
X23652Y148D02*
Y9577D01*
Y10600D02*
Y22864D01*
Y23888D02*
Y32657D01*
X23740Y9577D02*
Y148D01*
Y22864D02*
Y10600D01*
Y32657D02*
Y23888D01*
X23829Y148D02*
Y9577D01*
Y10600D02*
Y22864D01*
Y23888D02*
Y32657D01*
X23917Y9577D02*
Y148D01*
Y22864D02*
Y10600D01*
Y32657D02*
Y23888D01*
X24006Y148D02*
Y9577D01*
Y10600D02*
Y22864D01*
Y23888D02*
Y32657D01*
X24094Y9577D02*
Y148D01*
Y22819D02*
Y10600D01*
Y32657D02*
Y23888D01*
X24183Y148D02*
Y9577D01*
Y10600D02*
Y22731D01*
Y23888D02*
Y32657D01*
X24272Y9577D02*
Y148D01*
Y22642D02*
Y10600D01*
Y32657D02*
Y23888D01*
X24360Y148D02*
Y9577D01*
Y10600D02*
Y22554D01*
Y23878D02*
Y32657D01*
X24449Y9577D02*
Y148D01*
Y22465D02*
Y10600D01*
Y32657D02*
Y23852D01*
X24537Y148D02*
Y9577D01*
Y10600D02*
Y22377D01*
Y23807D02*
Y32657D01*
X24626Y9577D02*
Y148D01*
Y22288D02*
Y10600D01*
Y32657D02*
Y23736D01*
X24715Y148D02*
Y9577D01*
Y10600D02*
Y22199D01*
Y23647D02*
Y32657D01*
X24803Y9577D02*
Y148D01*
Y22111D02*
Y10600D01*
Y32657D02*
Y23558D01*
X24892Y148D02*
Y9577D01*
Y10600D02*
Y22022D01*
Y23470D02*
Y32657D01*
X24980Y9577D02*
Y148D01*
Y21934D02*
Y10600D01*
Y32657D02*
Y23381D01*
X25069Y148D02*
Y9577D01*
Y10600D02*
Y21845D01*
Y23293D02*
Y32657D01*
X25157Y2758D02*
Y148D01*
Y9577D02*
Y3148D01*
Y20277D02*
Y10600D01*
Y21757D02*
Y20667D01*
Y30317D02*
Y23204D01*
Y32657D02*
Y30707D01*
X25246Y148D02*
Y2332D01*
Y3574D02*
Y9577D01*
Y10600D02*
Y19851D01*
Y21094D02*
Y21668D01*
Y23116D02*
Y29891D01*
Y31133D02*
Y32657D01*
X25335Y2105D02*
Y148D01*
Y9577D02*
Y3800D01*
Y19625D02*
Y10600D01*
Y21579D02*
Y21320D01*
Y29664D02*
Y23027D01*
Y32657D02*
Y31359D01*
X25423Y148D02*
Y1936D01*
Y3970D02*
Y9577D01*
Y10600D02*
Y19455D01*
Y22938D02*
Y29495D01*
Y31529D02*
Y32657D01*
X25512Y1797D02*
Y148D01*
Y9577D02*
Y4108D01*
Y19317D02*
Y10600D01*
Y29356D02*
Y22850D01*
Y32657D02*
Y31667D01*
X25600Y148D02*
Y1680D01*
Y4226D02*
Y9577D01*
Y10600D02*
Y19199D01*
Y22761D02*
Y29239D01*
Y31785D02*
Y32657D01*
X25689Y1578D02*
Y148D01*
Y9577D02*
Y4327D01*
Y19098D02*
Y10600D01*
Y29137D02*
Y22673D01*
Y32657D02*
Y31887D01*
X25778Y148D02*
Y1489D01*
Y4417D02*
Y9577D01*
Y10600D02*
Y19008D01*
Y22584D02*
Y29048D01*
Y31976D02*
Y32657D01*
X25866Y1410D02*
Y148D01*
Y9577D02*
Y4496D01*
Y18929D02*
Y10600D01*
Y28969D02*
Y22495D01*
Y32657D02*
Y32055D01*
X25955Y148D02*
Y1339D01*
Y4566D02*
Y9577D01*
Y10600D02*
Y18859D01*
Y22407D02*
Y28898D01*
Y32125D02*
Y32657D01*
X26043Y1276D02*
Y148D01*
Y9577D02*
Y4629D01*
Y18796D02*
Y10600D01*
Y28835D02*
Y22318D01*
Y32657D02*
Y32188D01*
X26132Y148D02*
Y1220D01*
Y4685D02*
Y9577D01*
Y10600D02*
Y18740D01*
Y22230D02*
Y28779D01*
Y32244D02*
Y32657D01*
X26220Y1170D02*
Y148D01*
Y9577D02*
Y4735D01*
Y18690D02*
Y10600D01*
Y28729D02*
Y22255D01*
Y32657D02*
Y32294D01*
X26309Y148D02*
Y1126D01*
Y4779D02*
Y9577D01*
Y10600D02*
Y18646D01*
Y22299D02*
Y28685D01*
Y32338D02*
Y32657D01*
X26398Y1087D02*
Y148D01*
Y9577D02*
Y4818D01*
Y18607D02*
Y10600D01*
Y28646D02*
Y22338D01*
Y32657D02*
Y32377D01*
X26486Y148D02*
Y1053D01*
Y4852D02*
Y9577D01*
Y10600D02*
Y18573D01*
Y22372D02*
Y28612D01*
Y32411D02*
Y32657D01*
X26575Y1024D02*
Y148D01*
Y9577D02*
Y4882D01*
Y18543D02*
Y10600D01*
Y28583D02*
Y22401D01*
Y32657D02*
Y32441D01*
X26663Y148D02*
Y999D01*
Y4907D02*
Y9577D01*
Y10600D02*
Y18519D01*
Y22426D02*
Y28558D01*
Y32466D02*
Y32657D01*
X26752Y978D02*
Y148D01*
Y9577D02*
Y4927D01*
Y18498D02*
Y10600D01*
Y28537D02*
Y22447D01*
Y32657D02*
Y32486D01*
X26841Y148D02*
Y962D01*
Y4944D02*
Y9577D01*
Y10600D02*
Y18481D01*
Y22463D02*
Y28521D01*
Y32503D02*
Y32657D01*
X26929Y949D02*
Y148D01*
Y9577D02*
Y4956D01*
Y18469D02*
Y10600D01*
Y28508D02*
Y22476D01*
Y32657D02*
Y32515D01*
X27018Y148D02*
Y941D01*
Y4965D02*
Y9577D01*
Y10600D02*
Y18461D01*
Y22484D02*
Y28500D01*
Y32524D02*
Y32657D01*
X27106Y936D02*
Y148D01*
Y9577D02*
Y4969D01*
Y18456D02*
Y10600D01*
Y28495D02*
Y22489D01*
Y32657D02*
Y32528D01*
X27165Y20472D02*
X27195Y148*
Y936D01*
Y4970D02*
Y9577D01*
Y10600D02*
Y18455D01*
Y22490D02*
Y28495D01*
Y32529D02*
Y32657D01*
X27283Y939D02*
Y148D01*
Y9577D02*
Y4967D01*
Y18459D02*
Y10600D01*
Y28498D02*
Y22486D01*
Y32657D02*
Y32526D01*
X27372Y148D02*
Y946D01*
Y4959D02*
Y9577D01*
Y10600D02*
Y18466D01*
Y22479D02*
Y28505D01*
Y32519D02*
Y32657D01*
X27461Y957D02*
Y148D01*
Y9577D02*
Y4948D01*
Y18477D02*
Y10600D01*
Y28516D02*
Y22468D01*
Y32657D02*
Y32507D01*
X27549Y148D02*
Y972D01*
Y4933D02*
Y9577D01*
Y10600D02*
Y18492D01*
Y22453D02*
Y28531D01*
Y32492D02*
Y32657D01*
X27638Y992D02*
Y148D01*
Y9577D02*
Y4914D01*
Y18511D02*
Y10600D01*
Y28551D02*
Y22434D01*
Y32657D02*
Y32473D01*
X27726Y148D02*
Y1015D01*
Y4890D02*
Y9577D01*
Y10600D02*
Y18535D01*
Y22410D02*
Y28574D01*
Y32450D02*
Y32625D01*
X27815Y1043D02*
Y148D01*
Y9577D02*
Y4863D01*
Y18563D02*
Y10600D01*
Y28602D02*
Y22382D01*
Y32537D02*
Y32422D01*
X27904Y148D02*
Y1075D01*
Y4830D02*
Y9577D01*
Y10600D02*
Y18595D01*
Y22350D02*
Y28634D01*
Y32389D02*
Y32448D01*
X27992Y1113D02*
Y148D01*
Y9577D02*
Y4793D01*
Y18632D02*
Y10600D01*
Y28672D02*
Y22313D01*
Y33317D02*
Y33239D01*
X28081Y148D02*
Y1155D01*
Y4750D02*
Y9577D01*
Y10675D02*
Y18675D01*
Y22270D02*
Y28714D01*
Y33162D02*
Y33317D01*
X28169Y1203D02*
Y148D01*
Y9577D02*
Y4703D01*
Y18723D02*
Y10763D01*
Y28762D02*
Y22222D01*
Y33317D02*
Y33073D01*
X28258Y148D02*
Y1257D01*
Y4649D02*
Y9578D01*
Y10852D02*
Y18656D01*
Y22168D02*
Y28816D01*
Y32985D02*
Y33317D01*
X28346Y1317D02*
Y148D01*
Y9593D02*
Y4588D01*
Y18568D02*
Y10940D01*
Y28876D02*
Y22108D01*
Y33317D02*
Y32896D01*
X28435Y148D02*
Y1385D01*
Y4520D02*
Y9625D01*
Y11029D02*
Y18479D01*
Y22188D02*
Y28944D01*
Y32808D02*
Y33317D01*
X28524Y1461D02*
Y148D01*
Y9678D02*
Y4444D01*
Y18390D02*
Y11118D01*
Y29020D02*
Y22276D01*
Y33317D02*
Y32719D01*
X28612Y148D02*
Y1547D01*
Y4359D02*
Y9758D01*
Y11206D02*
Y18302D01*
Y22365D02*
Y29106D01*
Y32630D02*
Y33317D01*
X28701Y1644D02*
Y148D01*
Y9847D02*
Y4261D01*
Y18213D02*
Y11295D01*
Y29203D02*
Y22453D01*
Y33317D02*
Y32542D01*
X28789Y148D02*
Y1756D01*
Y4149D02*
Y9936D01*
Y11383D02*
Y18125D01*
Y22542D02*
Y29315D01*
Y32453D02*
Y33317D01*
X28878Y1887D02*
Y148D01*
Y10024D02*
Y4019D01*
Y18036D02*
Y11472D01*
Y21740D02*
Y21539D01*
Y29446D02*
Y22630D01*
Y33317D02*
Y32365D01*
X28967Y148D02*
Y2044D01*
Y3861D02*
Y10113D01*
Y11560D02*
Y17947D01*
Y19395D02*
Y19564D01*
Y21381D02*
Y21828D01*
Y22719D02*
Y29603D01*
Y32276D02*
Y33317D01*
X29055Y2247D02*
Y148D01*
Y10201D02*
Y3659D01*
Y17859D02*
Y11649D01*
Y19766D02*
Y19306D01*
Y21917D02*
Y21178D01*
Y29806D02*
Y22808D01*
Y31297D02*
Y31218D01*
Y33317D02*
Y32188D01*
X29144Y148D02*
Y2558D01*
Y3347D02*
Y10290D01*
Y11738D02*
Y17770D01*
Y19218D02*
Y20078D01*
Y20867D02*
Y22005D01*
Y22896D02*
Y30117D01*
Y30906D02*
Y31208D01*
Y32099D02*
Y33317D01*
X29183Y2953D02*
G03X27165Y4970I2018D01*
X25148Y2953J2017*
X27165Y935I2017*
X29183Y2953J2018*
G01X29232Y10379D02*
Y148D01*
Y17682D02*
Y11826D01*
Y22094D02*
Y19129D01*
Y27577D02*
Y22985D01*
Y31120D02*
Y28033D01*
Y33317D02*
Y32010D01*
X29321Y148D02*
Y5454D01*
Y5865D02*
Y10467D01*
Y11915D02*
Y17593D01*
Y19041D02*
Y22183D01*
Y23073D02*
Y27443D01*
Y28167D02*
Y31031D01*
Y31922D02*
Y33317D01*
X29409Y5308D02*
Y148D01*
Y10556D02*
Y6010D01*
Y17505D02*
Y12003D01*
Y22271D02*
Y18952D01*
Y27364D02*
Y23162D01*
Y30942D02*
Y28247D01*
Y33317D02*
Y31833D01*
X29498Y148D02*
Y5225D01*
Y6094D02*
Y10644D01*
Y12092D02*
Y17416D01*
Y18864D02*
Y22360D01*
Y23251D02*
Y27312D01*
Y28298D02*
Y30854D01*
Y31745D02*
Y33317D01*
X29587Y5171D02*
Y148D01*
Y10733D02*
Y6148D01*
Y17327D02*
Y12181D01*
Y22448D02*
Y18775D01*
Y27281D02*
Y23339D01*
Y30765D02*
Y28330D01*
Y33317D02*
Y31656D01*
X29675Y148D02*
Y5138D01*
Y6181D02*
Y10821D01*
Y12269D02*
Y17239D01*
Y18686D02*
Y22537D01*
Y23428D02*
Y27265D01*
Y28345D02*
Y30677D01*
Y31567D02*
Y33317D01*
X29764Y5120D02*
Y148D01*
Y10910D02*
Y6199D01*
Y22625D02*
Y18598D01*
Y27264D02*
Y23516D01*
Y30588D02*
Y28346D01*
Y33317D02*
Y31479D01*
X29852Y148D02*
Y5118D01*
Y6201D02*
Y10999D01*
Y18509D02*
Y22714D01*
Y23605D02*
Y27278D01*
Y28332D02*
Y30499D01*
Y31390D02*
Y33317D01*
X29941Y5130D02*
Y148D01*
Y11087D02*
Y6189D01*
Y22803D02*
Y18421D01*
Y27308D02*
Y23693D01*
Y30411D02*
Y28302D01*
Y33317D02*
Y31302D01*
X30030Y148D02*
Y5158D01*
Y6161D02*
Y11176D01*
Y18332D02*
Y22891D01*
Y23782D02*
Y27357D01*
Y28253D02*
Y30322D01*
Y31213D02*
Y33317D01*
X30118Y5205D02*
Y148D01*
Y11264D02*
Y6114D01*
Y22980D02*
Y18243D01*
Y27432D02*
Y23871D01*
Y30234D02*
Y28178D01*
Y33317D02*
Y31125D01*
X30207Y148D02*
Y5276D01*
Y6043D02*
Y11353D01*
Y18155D02*
Y23068D01*
Y23959D02*
Y27557D01*
Y28053D02*
Y30145D01*
Y31036D02*
Y33317D01*
X30267Y27805D02*
G03X29724Y28347I543D01*
X29182Y27805J542*
X29724Y27263I542*
X30267Y27805J542*
G01X30295Y5393D02*
Y148D01*
Y11442D02*
Y5926D01*
Y23157D02*
Y18066D01*
Y30057D02*
Y24048D01*
Y33317D02*
Y30947D01*
X30365Y5659D02*
G03X29823Y6202I542D01*
X29281Y5659J543*
X29823Y5117I542*
X30365Y5659J542*
G01X30384Y148D02*
Y11530D01*
Y17978D02*
Y23246D01*
Y30859D02*
Y33317D01*
X30472Y11619D02*
Y148D01*
Y23334D02*
Y17889D01*
Y33317D02*
Y30770D01*
X30561Y148D02*
Y11707D01*
Y17801D02*
Y23423D01*
Y30682D02*
Y33317D01*
X30650Y11820D02*
Y148D01*
Y23511D02*
Y17688D01*
Y33317D02*
Y30593D01*
X30738Y148D02*
Y23600D01*
Y30504D02*
Y33317D01*
X30827Y23688D02*
Y148D01*
Y33317D02*
Y30416D01*
X30915Y148D02*
Y23788D01*
Y30317D02*
Y33317D01*
X30965Y23957D02*
Y30148D01*
G03X30872Y30370I315*
G01X28048Y33195*
G03X27825Y33287I223J223*
G01X2746*
G03X2523Y33195J315*
G01X2317Y32988*
G03X2224Y32766I222J222*
G01Y29560*
X299Y27634*
G03X207Y27411I223J223*
G01Y19577*
G03X299Y19354I315*
G01X1313Y18340*
G03X1535Y18248I222J223*
G01X1536*
X7509*
Y18208*
G03X7528Y18130I167*
G01X1059*
G03X827Y18231I232J217*
X509Y17913J318*
X827Y17596I318*
X1059Y17697J317*
G01X7528*
G03X7509Y17618I148J79*
G01Y17530*
X6201*
G03X6013Y17451J266*
G01X5067Y16506*
X1939*
G03X1751Y16428J266*
G01X462Y15139*
G03X384Y14951I188J188*
G01Y12811*
G03X332Y12638I266J173*
X650Y12320I318*
X967Y12638J318*
X915Y12811I317*
G01Y14841*
X2049Y15974*
X5177*
G03X5365Y16052J266*
G01X6311Y16998*
X7509*
Y16908*
G03X7676Y16741I167*
G01X8466*
G03X8633Y16908J167*
G01Y17037*
G03X8792Y17104I1J227*
G01X8854Y17165*
X9296*
X9456Y17005*
Y16803*
G03X9624Y16636I168*
G01X10024*
G03X10133Y16677J167*
X10266Y16634I133J183*
G01X11139*
G03X11157Y16633I18J166*
G01X11757*
G03X11924Y16800J167*
G01Y16920*
G03X11910Y16988I167*
X11924Y17056I153J68*
G01Y17176*
G03X11910Y17244I167*
X11924Y17312I153J68*
G01Y17432*
G03X11910Y17500I167*
X11924Y17568I153J68*
G01Y17688*
G03X11910Y17756I167*
X11924Y17824I153J68*
G01Y17944*
G03X11910Y18012I167*
X11924Y18080I153J68*
G01Y18200*
G03X11910Y18268I167*
X11924Y18336I153J68*
G01Y18456*
G03X11757Y18623I167*
G01X11679*
G03X11617Y18743I222J40*
G01X11457Y18903*
Y19783*
G03X11390Y19944I227*
G01X10573Y20760*
G03X10413Y20827I160J160*
G01X7771*
X7047Y21550*
Y26501*
X8125Y27579*
X9448*
G03X9941Y27263I493J226*
X10483Y27805J542*
X10167Y28298I542*
G01Y28644*
G03X10327Y28811I7J167*
G01Y29161*
G03X10160Y29329I167*
G01X10069*
Y30812*
X10163*
G03X10330Y30979J167*
G01Y31073*
X10487*
G03X10483Y31034I223J39*
G01Y29326*
G03X10342Y29161I27J165*
G01Y28811*
G03X10510Y28644I168*
G01X10910*
G03X11077Y28811J167*
G01Y29161*
G03X10936Y29326I167*
G01Y30941*
X11147Y31152*
X12323*
G03X12483Y31218J226*
G01X12768Y31503*
G03X12835Y31663I160J160*
G01Y32657*
X27694*
X28006Y32345*
G03X27165Y32529I841J1833*
X25148Y30512J2017*
X27165Y28494I2017*
X29183Y30512J2018*
X28999Y31353I2018*
G01X30335Y30017*
Y24087*
X28352Y22104*
G03X27165Y22490I1187J1632*
X26147Y22214J2018*
G01X24624Y23738*
G03X24262Y23888I362J362*
G01X16526*
G03X16166Y23740J512*
G01X15797*
G03X15630Y23573J167*
G01Y23179*
G03X15797Y23012I167*
G01X16024*
Y21756*
G03X16018Y21714I161J42*
G01Y20314*
G03X16185Y20146I167*
G01X16885*
G03X17053Y20314J168*
G01Y21714*
G03X17047Y21756I168*
G01Y22864*
X24050*
X25424Y21490*
G03X25148Y20472I1741J1018*
X27165Y18455I2017*
X28183Y18731J2017*
G01X29695Y17219*
Y12289*
X28007Y10600*
X17047*
Y11708*
G03X17053Y11751I162J43*
G01Y13151*
G03X16885Y13318I168*
G01X16185*
G03X16018Y13151J167*
G01Y11751*
G03X16024Y11708I167*
G01Y10453*
X15797*
G03X15630Y10285J168*
G01Y9892*
G03X15797Y9724I167*
G01X16166*
G03X16526Y9577I360J365*
G01X28219*
G03X28581Y9727J512*
G01X30568Y11715*
G03X30719Y12077I361J362*
G01Y17431*
G03X30568Y17793I512*
G01X28907Y19455*
G03X29183Y20472I1742J1017*
X28797Y21659I2018*
G01X30872Y23734*
G03X30965Y23957I222J223*
G01X31004Y33317D02*
Y148D01*
X31093D02*
Y33317D01*
X31181D02*
Y148D01*
X31270D02*
Y33317D01*
G54D12*
X5187Y-1073D02*
X5076Y-775D01*
X4967Y-1073*
X5187*
X5487Y-1392D02*
X5309D01*
X5239Y-1209*
X4917*
X4850Y-1392*
X4678*
X4991Y-587*
X5165*
X5487Y-1392*
X5572Y-587D02*
X5735D01*
Y-1023*
Y-1047*
Y-1070*
Y-1090*
X5736Y-1108*
X5737Y-1124*
X5738Y-1137*
X5739Y-1148*
X5741Y-1157*
X5744Y-1169*
X5748Y-1180*
X5753Y-1191*
X5758Y-1202*
X5765Y-1211*
X5772Y-1220*
X5781Y-1228*
X5791Y-1236*
X5801Y-1243*
X5812Y-1250*
X5824Y-1254*
X5836Y-1259*
X5850Y-1262*
X5865Y-1265*
X5880*
X5897Y-1266*
X5914Y-1265*
X5930*
X5944Y-1262*
X5957Y-1259*
X5970Y-1255*
X5982Y-1250*
X5992Y-1245*
X6001Y-1238*
X6009Y-1231*
X6017Y-1223*
X6024Y-1215*
X6029Y-1206*
X6034Y-1198*
X6038Y-1188*
X6041Y-1179*
X6043Y-1169*
X6045Y-1157*
X6046Y-1145*
X6048Y-1130*
X6049Y-1114*
X6050Y-1096*
Y-1076*
Y-1055*
Y-1031*
Y-587*
X6213*
Y-1009*
Y-1045*
Y-1077*
X6212Y-1106*
X6210Y-1133*
X6208Y-1157*
X6206Y-1180*
X6203Y-1198*
X6200Y-1214*
X6192Y-1243*
X6182Y-1269*
X6168Y-1294*
X6152Y-1316*
X6132Y-1335*
X6110Y-1353*
X6085Y-1368*
X6057Y-1381*
X6042Y-1387*
X6025Y-1392*
X6007Y-1396*
X5989Y-1399*
X5969Y-1402*
X5948Y-1404*
X5925Y-1406*
X5902*
X5874*
X5848Y-1404*
X5824Y-1402*
X5801Y-1399*
X5780Y-1395*
X5761Y-1391*
X5743Y-1385*
X5728Y-1379*
X5699Y-1365*
X5674Y-1348*
X5652Y-1330*
X5633Y-1309*
X5617Y-1288*
X5605Y-1266*
X5594Y-1243*
X5587Y-1220*
X5583Y-1202*
X5580Y-1182*
X5578Y-1159*
X5576Y-1135*
X5574Y-1108*
X5572Y-1080*
Y-1049*
Y-1017*
Y-587*
X6384D02*
X6682D01*
X6706*
X6729*
X6750Y-589*
X6770Y-591*
X6789Y-593*
X6806Y-595*
X6821Y-598*
X6835Y-602*
X6853Y-608*
X6869Y-614*
X6885Y-622*
X6901Y-631*
X6916Y-641*
X6930Y-652*
X6943Y-664*
X6957Y-676*
X6980Y-705*
X7001Y-735*
X7019Y-769*
X7034Y-807*
X7039Y-827*
X7045Y-847*
X7050Y-870*
X7054Y-893*
X7056Y-917*
X7058Y-943*
X7060Y-969*
Y-997*
Y-1021*
X7058Y-1045*
X7057Y-1068*
X7054Y-1090*
X7050Y-1111*
X7046Y-1131*
X7041Y-1150*
X7035Y-1169*
X7027Y-1190*
X7018Y-1210*
X7009Y-1230*
X6998Y-1248*
X6987Y-1265*
X6976Y-1282*
X6962Y-1297*
X6949Y-1311*
X6938Y-1321*
X6926Y-1331*
X6913Y-1339*
X6899Y-1347*
X6884Y-1355*
X6869Y-1362*
X6852Y-1369*
X6835Y-1375*
X6820Y-1379*
X6806Y-1383*
X6789Y-1386*
X6772Y-1388*
X6753Y-1390*
X6733Y-1391*
X6713Y-1392*
X6691*
X6384*
Y-587*
X6547Y-723D02*
Y-1256D01*
X6669*
X6685*
X6701Y-1255*
X6715*
X6728Y-1254*
X6739Y-1253*
X6750Y-1252*
X6759Y-1250*
X6767Y-1248*
X6787Y-1243*
X6803Y-1235*
X6819Y-1226*
X6833Y-1215*
X6839Y-1209*
X6846Y-1201*
X6851Y-1193*
X6857Y-1183*
X6862Y-1173*
X6867Y-1162*
X6872Y-1150*
X6876Y-1137*
X6880Y-1123*
X6883Y-1108*
X6886Y-1091*
X6888Y-1073*
X6890Y-1054*
X6891Y-1034*
X6892Y-1013*
Y-990*
Y-967*
X6891Y-946*
X6890Y-926*
X6888Y-907*
X6886Y-890*
X6883Y-874*
X6880Y-860*
X6876Y-846*
X6867Y-823*
X6856Y-802*
X6843Y-784*
X6829Y-769*
X6813Y-756*
X6796Y-745*
X6776Y-737*
X6754Y-731*
X6745Y-729*
X6733Y-728*
X6719Y-726*
X6704Y-725*
X6686Y-724*
X6666*
X6644Y-723*
X6620*
X6547*
X7193Y-1392D02*
Y-587D01*
X7356*
Y-1392*
X7193*
X7477Y-994D02*
X7478Y-965D01*
X7480Y-935*
X7483Y-908*
X7487Y-881*
X7491Y-856*
X7498Y-832*
X7506Y-809*
X7514Y-788*
X7529Y-758*
X7546Y-730*
X7567Y-703*
X7589Y-678*
X7601Y-666*
X7613Y-655*
X7626Y-645*
X7639Y-635*
X7665Y-619*
X7693Y-605*
X7713Y-598*
X7732Y-591*
X7753Y-586*
X7774Y-581*
X7796Y-578*
X7819Y-576*
X7843Y-574*
X7867Y-573*
X7889Y-574*
X7910Y-575*
X7931Y-577*
X7952Y-580*
X7972Y-584*
X7991Y-589*
X8009Y-594*
X8028Y-601*
X8045Y-608*
X8062Y-617*
X8078Y-625*
X8094Y-635*
X8109Y-646*
X8124Y-657*
X8139Y-670*
X8152Y-683*
X8165Y-698*
X8177Y-713*
X8188Y-728*
X8199Y-744*
X8209Y-761*
X8217Y-779*
X8225Y-797*
X8232Y-816*
X8239Y-835*
X8244Y-855*
X8249Y-876*
X8253Y-898*
X8255Y-920*
X8257Y-943*
X8259Y-966*
Y-991*
Y-1014*
X8257Y-1038*
X8255Y-1061*
X8253Y-1083*
X8249Y-1104*
X8244Y-1124*
X8239Y-1145*
X8232Y-1165*
X8225Y-1183*
X8217Y-1201*
X8209Y-1218*
X8199Y-1235*
X8189Y-1251*
X8178Y-1267*
X8166Y-1281*
X8153Y-1295*
X8139Y-1309*
X8125Y-1321*
X8111Y-1333*
X8095Y-1343*
X8080Y-1354*
X8063Y-1362*
X8046Y-1371*
X8029Y-1378*
X8011Y-1384*
X7992Y-1390*
X7973Y-1394*
X7954Y-1398*
X7933Y-1402*
X7913Y-1404*
X7891Y-1405*
X7869Y-1406*
X7847Y-1405*
X7825Y-1404*
X7805Y-1402*
X7784Y-1398*
X7764Y-1394*
X7745Y-1390*
X7726Y-1384*
X7708Y-1378*
X7691Y-1371*
X7673Y-1363*
X7657Y-1354*
X7641Y-1344*
X7626Y-1333*
X7611Y-1322*
X7597Y-1309*
X7583Y-1296*
X7570Y-1282*
X7558Y-1268*
X7547Y-1252*
X7537Y-1236*
X7528Y-1220*
X7519Y-1202*
X7511Y-1184*
X7504Y-1166*
X7498Y-1146*
X7492Y-1127*
X7487Y-1106*
X7483Y-1085*
X7481Y-1064*
X7479Y-1041*
X7478Y-1018*
X7477Y-994*
X7645Y-989D02*
X7646Y-1022D01*
X7649Y-1053*
X7654Y-1082*
X7661Y-1109*
X7669Y-1134*
X7680Y-1157*
X7694Y-1177*
X7708Y-1196*
X7724Y-1213*
X7742Y-1227*
X7761Y-1239*
X7780Y-1249*
X7801Y-1257*
X7822Y-1261*
X7845Y-1265*
X7869Y-1266*
X7893Y-1265*
X7916Y-1262*
X7937Y-1257*
X7957Y-1249*
X7977Y-1239*
X7995Y-1227*
X8013Y-1213*
X8029Y-1196*
X8043Y-1178*
X8056Y-1157*
X8067Y-1134*
X8076Y-1109*
X8083Y-1082*
X8087Y-1052*
X8091Y-1020*
Y-987*
Y-954*
X8087Y-922*
X8083Y-893*
X8076Y-866*
X8068Y-842*
X8057Y-819*
X8045Y-798*
X8031Y-780*
X8015Y-765*
X7998Y-751*
X7980Y-739*
X7960Y-730*
X7939Y-722*
X7917Y-717*
X7894Y-713*
X7869*
X7844*
X7821Y-717*
X7799Y-722*
X7778Y-730*
X7758Y-739*
X7740Y-751*
X7723Y-765*
X7706Y-781*
X7692Y-800*
X7680Y-820*
X7669Y-843*
X7661Y-868*
X7654Y-894*
X7649Y-924*
X7646Y-955*
X7645Y-989*
X9126Y-1073D02*
X9015Y-775D01*
X8906Y-1073*
X9126*
X9425Y-1392D02*
X9248D01*
X9178Y-1209*
X8856*
X8789Y-1392*
X8617*
X8930Y-587*
X9103*
X9425Y-1392*
X9512D02*
Y-587D01*
X9669*
X10002Y-1128*
Y-587*
X10152*
Y-1392*
X9990*
X9662Y-862*
Y-1392*
X9512*
X9770Y34044D02*
Y35048D01*
X9411*
Y35252*
X10372*
Y35048*
X10014*
Y34044*
X9770*
X10323Y-587D02*
X10620D01*
X10645*
X10668*
X10689Y-589*
X10709Y-591*
X10728Y-593*
X10744Y-595*
X10760Y-598*
X10773Y-602*
X10791Y-608*
X10808Y-614*
X10824Y-622*
X10839Y-631*
X10854Y-641*
X10869Y-652*
X10882Y-664*
X10895Y-676*
X10919Y-705*
X10939Y-735*
X10957Y-769*
X10972Y-807*
X10978Y-827*
X10983Y-847*
X10988Y-870*
X10992Y-893*
X10994Y-917*
X10997Y-943*
X10998Y-969*
Y-997*
Y-1021*
X10997Y-1045*
X10995Y-1068*
X10992Y-1090*
X10989Y-1111*
X10984Y-1131*
X10980Y-1150*
X10974Y-1169*
X10965Y-1190*
X10957Y-1210*
X10947Y-1230*
X10937Y-1248*
X10926Y-1265*
X10914Y-1282*
X10901Y-1297*
X10887Y-1311*
X10876Y-1321*
X10865Y-1331*
X10851Y-1339*
X10838Y-1347*
X10823Y-1355*
X10807Y-1362*
X10791Y-1369*
X10773Y-1375*
X10759Y-1379*
X10744Y-1383*
X10728Y-1386*
X10710Y-1388*
X10691Y-1390*
X10672Y-1391*
X10651Y-1392*
X10629*
X10323*
Y-587*
X10486Y-723D02*
Y-1256D01*
X10607*
X10624*
X10639Y-1255*
X10654*
X10666Y-1254*
X10678Y-1253*
X10688Y-1252*
X10698Y-1250*
X10706Y-1248*
X10725Y-1243*
X10742Y-1235*
X10757Y-1226*
X10772Y-1215*
X10778Y-1209*
X10784Y-1201*
X10790Y-1193*
X10795Y-1183*
X10801Y-1173*
X10806Y-1162*
X10810Y-1150*
X10814Y-1137*
X10818Y-1123*
X10821Y-1108*
X10824Y-1091*
X10827Y-1073*
X10828Y-1054*
X10830Y-1034*
X10831Y-1013*
Y-990*
Y-967*
X10830Y-946*
X10828Y-926*
X10827Y-907*
X10824Y-890*
X10821Y-874*
X10818Y-860*
X10814Y-846*
X10806Y-823*
X10794Y-802*
X10782Y-784*
X10768Y-769*
X10752Y-756*
X10735Y-745*
X10714Y-737*
X10693Y-731*
X10683Y-729*
X10672Y-728*
X10657Y-726*
X10643Y-725*
X10624Y-724*
X10605*
X10583Y-723*
X10559*
X10486*
X10528Y34044D02*
Y35252D01*
X10919*
X10946*
X10972*
X10997Y35251*
X11020*
X11043Y35250*
X11063*
X11083Y35248*
X11102Y35247*
X11120Y35246*
X11136Y35245*
X11150Y35244*
X11165Y35241*
X11178Y35240*
X11189Y35238*
X11199Y35235*
X11208Y35234*
X11233Y35226*
X11258Y35217*
X11281Y35205*
X11304Y35191*
X11324Y35175*
X11344Y35157*
X11364Y35137*
X11382Y35115*
X11398Y35091*
X11413Y35067*
X11424Y35039*
X11434Y35011*
X11442Y34981*
X11447Y34950*
X11450Y34915*
X11452Y34880*
Y34853*
X11449Y34827*
X11446Y34802*
X11442Y34778*
X11436Y34755*
X11429Y34733*
X11421Y34712*
X11411Y34693*
X11390Y34657*
X11365Y34626*
X11338Y34598*
X11309Y34574*
X11278Y34554*
X11246Y34539*
X11215Y34526*
X11183Y34517*
X11160Y34513*
X11135Y34509*
X11107Y34507*
X11076Y34504*
X11044Y34502*
X11009Y34501*
X10971Y34500*
X10931*
X10772*
Y34044*
X10528*
X10772Y35048D02*
Y34704D01*
X10905*
X10939*
X10971Y34705*
X10999Y34706*
X11025Y34709*
X11048Y34711*
X11067Y34715*
X11083Y34718*
X11097Y34723*
X11120Y34733*
X11140Y34748*
X11157Y34763*
X11173Y34782*
X11185Y34803*
X11193Y34826*
X11199Y34850*
X11200Y34876*
Y34893*
X11198Y34908*
X11194Y34922*
X11191Y34937*
X11185Y34950*
X11179Y34963*
X11170Y34974*
X11161Y34985*
X11141Y35005*
X11119Y35020*
X11093Y35032*
X11064Y35039*
X11052Y35042*
X11037Y35043*
X11019Y35044*
X10999Y35045*
X10976Y35046*
X10950*
X10921Y35048*
X10889*
X10772*
X11444Y-1392D02*
Y-587D01*
X11607*
Y-1392*
X11444*
X11760D02*
Y-587D01*
X12004*
X12149Y-1136*
X12292Y-587*
X12536*
Y-1392*
X12386*
Y-758*
X12226Y-1392*
X12069*
X11911Y-758*
X11910Y-1392*
X11760*
X12294Y34522D02*
X12127Y34970D01*
X11963Y34522*
X12294*
X12743Y34044D02*
X12477D01*
X12372Y34318*
X11889*
X11788Y34044*
X11530*
X12000Y35252*
X12259*
X12743Y34044*
X12812Y34365D02*
X13037Y34392D01*
X13040Y34371*
X13044Y34352*
X13050Y34333*
X13057Y34317*
X13064Y34301*
X13073Y34286*
X13083Y34273*
X13094Y34261*
X13106Y34250*
X13119Y34241*
X13132Y34234*
X13146Y34227*
X13161Y34222*
X13176Y34219*
X13191Y34217*
X13208Y34216*
X13226Y34217*
X13242Y34220*
X13259Y34223*
X13274Y34229*
X13289Y34237*
X13304Y34247*
X13317Y34257*
X13330Y34270*
X13340Y34285*
X13351Y34300*
X13359Y34317*
X13366Y34334*
X13371Y34353*
X13374Y34373*
X13377Y34394*
X13378Y34417*
X13377Y34438*
X13376Y34458*
X13371Y34477*
X13366Y34495*
X13360Y34511*
X13352Y34527*
X13343Y34541*
X13331Y34555*
X13319Y34567*
X13306Y34578*
X13293Y34586*
X13279Y34593*
X13265Y34599*
X13249Y34602*
X13234Y34605*
X13217Y34606*
X13194Y34605*
X13169Y34601*
X13141Y34596*
X13111Y34588*
X13137Y34777*
X13159*
X13181Y34778*
X13201Y34782*
X13220Y34785*
X13236Y34791*
X13253Y34800*
X13267Y34808*
X13280Y34817*
X13292Y34829*
X13301Y34841*
X13311Y34854*
X13318Y34868*
X13322Y34883*
X13326Y34899*
X13328Y34915*
X13330Y34933*
X13327Y34961*
X13320Y34987*
X13309Y35011*
X13293Y35030*
X13274Y35046*
X13250Y35057*
X13226Y35064*
X13196Y35067*
X13182Y35065*
X13168Y35064*
X13155Y35061*
X13142Y35056*
X13129Y35050*
X13117Y35043*
X13106Y35035*
X13094Y35025*
X13076Y35002*
X13061Y34974*
X13051Y34941*
X13044Y34905*
X12830Y34941*
X12836Y34967*
X12843Y34993*
X12850Y35017*
X12858Y35039*
X12867Y35061*
X12876Y35081*
X12887Y35100*
X12897Y35116*
X12922Y35147*
X12952Y35174*
X12985Y35199*
X13022Y35219*
X13064Y35235*
X13107Y35247*
X13155Y35254*
X13203Y35257*
X13244Y35256*
X13285Y35250*
X13321Y35241*
X13357Y35230*
X13390Y35214*
X13422Y35195*
X13450Y35173*
X13477Y35148*
X13497Y35126*
X13515Y35102*
X13529Y35078*
X13541Y35054*
X13550Y35028*
X13557Y35002*
X13561Y34974*
X13562Y34947*
X13561Y34927*
X13560Y34908*
X13556Y34889*
X13552Y34872*
X13546Y34854*
X13537Y34836*
X13529Y34820*
X13519Y34804*
X13507Y34788*
X13494Y34774*
X13480Y34758*
X13464Y34744*
X13448Y34731*
X13429Y34718*
X13409Y34705*
X13389Y34693*
X13413Y34686*
X13437Y34678*
X13459Y34669*
X13481Y34657*
X13501Y34644*
X13520Y34628*
X13537Y34612*
X13554Y34593*
X13568Y34574*
X13581Y34553*
X13592Y34530*
X13600Y34508*
X13607Y34484*
X13612Y34459*
X13614Y34433*
X13615Y34406*
X13613Y34367*
X13608Y34330*
X13599Y34294*
X13586Y34259*
X13570Y34226*
X13550Y34195*
X13527Y34164*
X13500Y34136*
X13469Y34109*
X13437Y34086*
X13404Y34067*
X13369Y34052*
X13332Y34039*
X13293Y34031*
X13252Y34025*
X13210Y34024*
X13170Y34025*
X13131Y34030*
X13094Y34037*
X13059Y34047*
X13026Y34060*
X12995Y34077*
X12966Y34096*
X12937Y34118*
X12911Y34143*
X12889Y34169*
X12869Y34197*
X12852Y34227*
X12838Y34259*
X12826Y34292*
X12818Y34327*
X12812Y34365*
X13126Y-1073D02*
X13015Y-775D01*
X12906Y-1073*
X13126*
X13425Y-1392D02*
X13248D01*
X13178Y-1209*
X12856*
X12789Y-1392*
X12617*
X12930Y-587*
X13103*
X13425Y-1392*
X13886Y-1097D02*
Y-961D01*
X14236*
Y-1280*
X14223Y-1293*
X14208Y-1305*
X14191Y-1316*
X14174Y-1328*
X14154Y-1338*
X14134Y-1348*
X14112Y-1358*
X14088Y-1368*
X14064Y-1376*
X14039Y-1384*
X14015Y-1391*
X13991Y-1396*
X13966Y-1400*
X13941Y-1403*
X13917Y-1405*
X13891Y-1406*
X13861Y-1405*
X13831Y-1402*
X13802Y-1398*
X13773Y-1392*
X13746Y-1385*
X13720Y-1376*
X13695Y-1365*
X13671Y-1353*
X13649Y-1339*
X13628Y-1324*
X13607Y-1306*
X13589Y-1288*
X13572Y-1269*
X13557Y-1247*
X13543Y-1225*
X13530Y-1201*
X13519Y-1176*
X13509Y-1150*
X13502Y-1124*
X13494Y-1098*
X13489Y-1071*
X13486Y-1043*
X13483Y-1016*
Y-987*
Y-956*
X13486Y-926*
X13490Y-896*
X13496Y-868*
X13503Y-840*
X13513Y-814*
X13523Y-788*
X13535Y-763*
X13550Y-739*
X13565Y-717*
X13582Y-696*
X13601Y-677*
X13620Y-659*
X13643Y-643*
X13665Y-627*
X13690Y-613*
X13710Y-604*
X13731Y-596*
X13754Y-589*
X13777Y-583*
X13802Y-579*
X13828Y-576*
X13854Y-574*
X13883Y-573*
X13920Y-574*
X13954Y-577*
X13987Y-582*
X14017Y-589*
X14045Y-598*
X14071Y-609*
X14095Y-622*
X14117Y-636*
X14138Y-653*
X14156Y-671*
X14172Y-691*
X14187Y-712*
X14199Y-735*
X14210Y-758*
X14219Y-784*
X14226Y-811*
X14065Y-841*
X14060Y-827*
X14054Y-813*
X14047Y-800*
X14040Y-788*
X14031Y-776*
X14022Y-766*
X14012Y-756*
X14001Y-747*
X13988Y-739*
X13976Y-732*
X13962Y-726*
X13947Y-721*
X13932Y-717*
X13917Y-715*
X13900Y-713*
X13883*
X13857*
X13832Y-717*
X13809Y-722*
X13787Y-730*
X13767Y-739*
X13747Y-750*
X13730Y-765*
X13713Y-780*
X13698Y-798*
X13686Y-818*
X13675Y-840*
X13666Y-864*
X13659Y-890*
X13654Y-918*
X13651Y-948*
X13650Y-980*
X13651Y-1015*
X13654Y-1047*
X13659Y-1077*
X13666Y-1106*
X13676Y-1131*
X13687Y-1154*
X13699Y-1176*
X13714Y-1194*
X13731Y-1212*
X13749Y-1226*
X13768Y-1239*
X13787Y-1248*
X13809Y-1256*
X13832Y-1261*
X13856Y-1265*
X13881Y-1266*
X13906Y-1265*
X13932Y-1261*
X13957Y-1255*
X13983Y-1246*
X14009Y-1236*
X14031Y-1224*
X14053Y-1212*
X14072Y-1198*
Y-1097*
X13886*
X14351Y34044D02*
X14120D01*
Y34917*
X14088Y34887*
X14054Y34861*
X14018Y34836*
X13981Y34813*
X13944Y34791*
X13904Y34772*
X13863Y34756*
X13821Y34741*
Y34951*
X13843Y34959*
X13867Y34969*
X13891Y34980*
X13915Y34993*
X13940Y35009*
X13966Y35025*
X13991Y35043*
X14018Y35063*
X14043Y35084*
X14067Y35107*
X14088Y35129*
X14108Y35153*
X14124Y35178*
X14140Y35204*
X14153Y35230*
X14163Y35257*
X14351*
Y34044*
X14382Y-1392D02*
Y-587D01*
X14545*
Y-1392*
X14382*
X14700D02*
Y-587D01*
X14857*
X15190Y-1128*
Y-587*
X15340*
Y-1392*
X15178*
X14850Y-862*
Y-1392*
X14700*
X15290Y34044D02*
X15059D01*
Y34917*
X15027Y34887*
X14993Y34861*
X14957Y34836*
X14920Y34813*
X14883Y34791*
X14843Y34772*
X14802Y34756*
X14760Y34741*
Y34951*
X14782Y34959*
X14806Y34969*
X14830Y34980*
X14854Y34993*
X14879Y35009*
X14905Y35025*
X14930Y35043*
X14957Y35063*
X14982Y35084*
X15006Y35107*
X15027Y35129*
X15047Y35153*
X15063Y35178*
X15079Y35204*
X15092Y35230*
X15102Y35257*
X15290*
Y34044*
X15887Y-1097D02*
Y-961D01*
X16237*
Y-1280*
X16224Y-1293*
X16209Y-1305*
X16192Y-1316*
X16175Y-1328*
X16155Y-1338*
X16135Y-1348*
X16113Y-1358*
X16089Y-1368*
X16065Y-1376*
X16040Y-1384*
X16016Y-1391*
X15991Y-1396*
X15967Y-1400*
X15942Y-1403*
X15917Y-1405*
X15892Y-1406*
X15861Y-1405*
X15831Y-1402*
X15802Y-1398*
X15774Y-1392*
X15747Y-1385*
X15721Y-1376*
X15696Y-1365*
X15672Y-1353*
X15650Y-1339*
X15628Y-1324*
X15608Y-1306*
X15590Y-1288*
X15572Y-1269*
X15557Y-1247*
X15543Y-1225*
X15531Y-1201*
X15520Y-1176*
X15510Y-1150*
X15502Y-1124*
X15495Y-1098*
X15490Y-1071*
X15487Y-1043*
X15484Y-1016*
X15483Y-987*
X15484Y-956*
X15487Y-926*
X15491Y-896*
X15497Y-868*
X15504Y-840*
X15513Y-814*
X15524Y-788*
X15536Y-763*
X15550Y-739*
X15565Y-717*
X15583Y-696*
X15602Y-677*
X15621Y-659*
X15643Y-643*
X15666Y-627*
X15691Y-613*
X15711Y-604*
X15731Y-596*
X15754Y-589*
X15778Y-583*
X15802Y-579*
X15828Y-576*
X15855Y-574*
X15883Y-573*
X15920Y-574*
X15954Y-577*
X15987Y-582*
X16017Y-589*
X16046Y-598*
X16072Y-609*
X16096Y-622*
X16118Y-636*
X16139Y-653*
X16157Y-671*
X16173Y-691*
X16187Y-712*
X16200Y-735*
X16211Y-758*
X16220Y-784*
X16227Y-811*
X16065Y-841*
X16061Y-827*
X16055Y-813*
X16048Y-800*
X16041Y-788*
X16032Y-776*
X16023Y-766*
X16013Y-756*
X16002Y-747*
X15989Y-739*
X15976Y-732*
X15963Y-726*
X15948Y-721*
X15933Y-717*
X15917Y-715*
X15901Y-713*
X15883*
X15857*
X15833Y-717*
X15810Y-722*
X15788Y-730*
X15768Y-739*
X15748Y-750*
X15731Y-765*
X15714Y-780*
X15699Y-798*
X15687Y-818*
X15676Y-840*
X15667Y-864*
X15660Y-890*
X15655Y-918*
X15652Y-948*
X15651Y-980*
X15652Y-1015*
X15655Y-1047*
X15660Y-1077*
X15667Y-1106*
X15676Y-1131*
X15687Y-1154*
X15700Y-1176*
X15715Y-1194*
X15731Y-1212*
X15750Y-1226*
X15769Y-1239*
X15788Y-1248*
X15810Y-1256*
X15833Y-1261*
X15857Y-1265*
X15882Y-1266*
X15907Y-1265*
X15933Y-1261*
X15958Y-1255*
X15984Y-1246*
X16009Y-1236*
X16032Y-1224*
X16054Y-1212*
X16072Y-1198*
Y-1097*
X15887*
X16030Y35064D02*
X16008Y35063D01*
X15989Y35057*
X15970Y35049*
X15954Y35037*
X15946Y35030*
X15939Y35022*
X15931Y35011*
X15924Y35000*
X15919Y34987*
X15913Y34973*
X15907Y34958*
X15902Y34941*
X15897Y34918*
X15891Y34889*
X15888Y34857*
X15884Y34821*
X15882Y34782*
X15880Y34738*
X15878Y34691*
Y34640*
Y34588*
X15880Y34542*
X15882Y34500*
X15884Y34461*
X15887Y34426*
X15890Y34396*
X15895Y34370*
X15900Y34348*
X15906Y34330*
X15911Y34312*
X15917Y34296*
X15924Y34282*
X15931Y34269*
X15939Y34259*
X15946Y34249*
X15954Y34242*
X15970Y34230*
X15989Y34222*
X16008Y34217*
X16030Y34216*
X16050Y34217*
X16069Y34223*
X16087Y34231*
X16104Y34243*
X16112Y34250*
X16120Y34259*
X16128Y34269*
X16133Y34280*
X16139Y34293*
X16145Y34307*
X16151Y34322*
X16156Y34339*
X16161Y34363*
X16167Y34391*
X16170Y34423*
X16174Y34458*
X16176Y34497*
X16178Y34541*
X16180Y34588*
Y34640*
Y34691*
X16178Y34737*
X16176Y34780*
X16174Y34819*
X16171Y34853*
X16168Y34883*
X16163Y34909*
X16158Y34931*
X16152Y34950*
X16146Y34967*
X16141Y34984*
X16133Y34997*
X16126Y35010*
X16119Y35020*
X16112Y35030*
X16104Y35037*
X16087Y35049*
X16069Y35057*
X16050Y35063*
X16030Y35064*
Y35257D02*
X16072Y35254D01*
X16112Y35248*
X16150Y35239*
X16185Y35225*
X16219Y35208*
X16249Y35186*
X16278Y35161*
X16304Y35131*
X16318Y35113*
X16332Y35091*
X16344Y35069*
X16356Y35045*
X16366Y35019*
X16376Y34993*
X16384Y34964*
X16392Y34934*
X16399Y34902*
X16405Y34869*
X16410Y34835*
X16415Y34800*
X16418Y34762*
X16419Y34723*
X16422Y34681*
Y34640*
Y34598*
X16419Y34557*
X16417Y34517*
X16415Y34481*
X16410Y34444*
X16405Y34410*
X16399Y34377*
X16392Y34345*
X16384Y34315*
X16376Y34287*
X16365Y34260*
X16354Y34234*
X16344Y34210*
X16331Y34188*
X16318Y34167*
X16302Y34148*
X16278Y34118*
X16249Y34093*
X16219Y34072*
X16185Y34054*
X16150Y34041*
X16112Y34031*
X16072Y34026*
X16030Y34024*
X15986Y34026*
X15944Y34032*
X15907Y34043*
X15870Y34058*
X15835Y34077*
X15803Y34099*
X15772Y34128*
X15745Y34159*
X15731Y34177*
X15719Y34196*
X15707Y34217*
X15698Y34240*
X15687Y34265*
X15679Y34291*
X15670Y34318*
X15663Y34347*
X15657Y34379*
X15652Y34411*
X15647Y34445*
X15643Y34482*
X15640Y34520*
X15637Y34559*
X15636Y34600*
Y34643*
Y34684*
X15639Y34724*
X15641Y34763*
X15643Y34801*
X15648Y34836*
X15653Y34870*
X15659Y34904*
X15666Y34935*
X15674Y34965*
X15682Y34993*
X15693Y35020*
X15704Y35046*
X15714Y35070*
X15727Y35093*
X15740Y35114*
X15756Y35133*
X15780Y35162*
X15809Y35187*
X15839Y35208*
X15872Y35226*
X15908Y35239*
X15946Y35248*
X15986Y35254*
X16030Y35257*
X16626Y35252D02*
X17072D01*
X17109*
X17143Y35251*
X17175Y35248*
X17205Y35246*
X17233Y35243*
X17258Y35239*
X17281Y35234*
X17302Y35228*
X17329Y35220*
X17354Y35211*
X17377Y35199*
X17401Y35186*
X17423Y35170*
X17444Y35154*
X17465Y35136*
X17485Y35117*
X17520Y35075*
X17551Y35029*
X17578Y34978*
X17600Y34921*
X17609Y34892*
X17617Y34861*
X17624Y34827*
X17630Y34793*
X17633Y34756*
X17637Y34718*
X17639Y34678*
Y34637*
Y34600*
X17637Y34565*
X17635Y34530*
X17630Y34497*
X17625Y34465*
X17618Y34436*
X17611Y34406*
X17603Y34379*
X17590Y34347*
X17577Y34317*
X17563Y34287*
X17547Y34260*
X17531Y34234*
X17513Y34209*
X17493Y34187*
X17473Y34165*
X17456Y34150*
X17439Y34136*
X17419Y34123*
X17398Y34111*
X17376Y34099*
X17352Y34089*
X17328Y34078*
X17302Y34070*
X17280Y34064*
X17258Y34058*
X17233Y34053*
X17207Y34050*
X17179Y34047*
X17149Y34045*
X17119Y34044*
X17085*
X16626*
Y35252*
X16701Y-1392D02*
Y-587D01*
X16961*
X16980*
X16997*
X17013*
X17029*
X17044Y-588*
X17057*
X17071Y-589*
X17083Y-590*
X17095Y-591*
X17106*
X17116Y-592*
X17125Y-594*
X17134*
X17142Y-596*
X17148Y-598*
X17154*
X17171Y-604*
X17187Y-610*
X17203Y-618*
X17218Y-628*
X17231Y-638*
X17245Y-650*
X17258Y-663*
X17270Y-678*
X17281Y-694*
X17291Y-710*
X17298Y-728*
X17305Y-747*
X17310Y-767*
X17313Y-788*
X17316Y-811*
X17317Y-835*
Y-853*
X17315Y-870*
X17313Y-887*
X17310Y-902*
X17306Y-918*
X17302Y-932*
X17296Y-946*
X17290Y-959*
X17276Y-983*
X17259Y-1004*
X17241Y-1023*
X17221Y-1039*
X17201Y-1052*
X17180Y-1062*
X17159Y-1071*
X17138Y-1076*
X17122Y-1080*
X17106Y-1082*
X17087Y-1083*
X17066Y-1085*
X17045Y-1087*
X17021*
X16996Y-1088*
X16969*
X16864*
Y-1392*
X16701*
X16864Y-723D02*
Y-952D01*
X16952*
X16975*
X16996Y-951*
X17015Y-950*
X17032Y-949*
X17047Y-947*
X17060Y-945*
X17071Y-943*
X17080Y-939*
X17095Y-932*
X17109Y-923*
X17120Y-913*
X17131Y-900*
X17139Y-886*
X17144Y-871*
X17148Y-854*
X17149Y-837*
Y-826*
X17147Y-816*
X17145Y-806*
X17143Y-797*
X17139Y-788*
X17135Y-780*
X17129Y-772*
X17123Y-765*
X17109Y-751*
X17094Y-741*
X17077Y-733*
X17058Y-728*
X17050Y-727*
X17040Y-726*
X17028Y-725*
X17015Y-724*
X16999*
X16982*
X16963Y-723*
X16942*
X16864*
X16870Y35048D02*
Y34248D01*
X17052*
X17077*
X17101Y34249*
X17122*
X17141Y34250*
X17159Y34253*
X17174Y34254*
X17188Y34256*
X17200Y34260*
X17230Y34268*
X17254Y34280*
X17278Y34293*
X17299Y34309*
X17309Y34319*
X17318Y34331*
X17326Y34343*
X17335Y34357*
X17343Y34372*
X17350Y34389*
X17357Y34406*
X17363Y34426*
X17369Y34448*
X17374Y34470*
X17378Y34495*
X17382Y34522*
X17384Y34550*
X17387Y34581*
X17388Y34613*
Y34647*
Y34681*
X17387Y34713*
X17384Y34743*
X17382Y34771*
X17378Y34797*
X17374Y34821*
X17369Y34842*
X17363Y34862*
X17350Y34898*
X17333Y34928*
X17315Y34956*
X17293Y34979*
X17270Y34998*
X17244Y35015*
X17213Y35026*
X17181Y35036*
X17167Y35038*
X17149Y35041*
X17128Y35043*
X17106Y35044*
X17078Y35046*
X17049*
X17016Y35048*
X16980*
X16870*
X17451Y-1392D02*
Y-587D01*
X17793*
X17824*
X17854Y-588*
X17880Y-590*
X17905Y-592*
X17927Y-595*
X17947Y-599*
X17965Y-603*
X17981Y-609*
X17995Y-614*
X18009Y-621*
X18021Y-629*
X18033Y-639*
X18045Y-649*
X18055Y-660*
X18065Y-672*
X18074Y-686*
X18083Y-700*
X18090Y-714*
X18096Y-729*
X18101Y-745*
X18105Y-761*
X18107Y-778*
X18109Y-795*
Y-813*
Y-835*
X18106Y-856*
X18102Y-876*
X18096Y-895*
X18089Y-913*
X18080Y-931*
X18069Y-947*
X18057Y-962*
X18043Y-976*
X18027Y-989*
X18009Y-1001*
X17990Y-1010*
X17969Y-1019*
X17947Y-1026*
X17923Y-1032*
X17898Y-1037*
X17923Y-1053*
X17946Y-1069*
X17966Y-1087*
X17984Y-1105*
X17993Y-1114*
X18003Y-1126*
X18013Y-1140*
X18024Y-1155*
X18036Y-1172*
X18049Y-1191*
X18062Y-1213*
X18076Y-1235*
X18175Y-1392*
X17980*
X17864Y-1217*
X17848Y-1194*
X17835Y-1174*
X17822Y-1156*
X17811Y-1140*
X17801Y-1127*
X17792Y-1115*
X17784Y-1106*
X17778Y-1098*
X17766Y-1087*
X17754Y-1078*
X17742Y-1071*
X17729Y-1065*
X17722Y-1063*
X17714Y-1061*
X17706Y-1060*
X17695Y-1058*
X17685Y-1057*
X17673*
X17661Y-1056*
X17647*
X17614*
Y-1392*
X17451*
X17614Y-928D02*
X17734D01*
X17762*
X17787Y-927*
X17809Y-926*
X17829Y-925*
X17846Y-924*
X17860Y-922*
X17871Y-920*
X17880Y-918*
X17894Y-912*
X17906Y-904*
X17917Y-894*
X17925Y-883*
X17932Y-871*
X17938Y-857*
X17941Y-840*
X17942Y-823*
X17940Y-804*
X17936Y-787*
X17930Y-771*
X17920Y-757*
X17908Y-746*
X17894Y-737*
X17878Y-730*
X17859Y-726*
X17853Y-725*
X17844Y-724*
X17833*
X17820*
X17804*
X17785Y-723*
X17764*
X17741*
X17614*
Y-928*
X18230Y-994D02*
X18231Y-965D01*
X18232Y-935*
X18235Y-908*
X18239Y-881*
X18244Y-856*
X18250Y-832*
X18258Y-809*
X18267Y-788*
X18282Y-758*
X18299Y-730*
X18320Y-703*
X18342Y-678*
X18354Y-666*
X18366Y-655*
X18379Y-645*
X18391Y-635*
X18418Y-619*
X18446Y-605*
X18465Y-598*
X18485Y-591*
X18506Y-586*
X18527Y-581*
X18549Y-578*
X18572Y-576*
X18595Y-574*
X18620Y-573*
X18642Y-574*
X18663Y-575*
X18684Y-577*
X18705Y-580*
X18724Y-584*
X18743Y-589*
X18762Y-594*
X18780Y-601*
X18798Y-608*
X18815Y-617*
X18831Y-625*
X18847Y-635*
X18862Y-646*
X18877Y-657*
X18891Y-670*
X18905Y-683*
X18918Y-698*
X18930Y-713*
X18941Y-728*
X18952Y-744*
X18961Y-761*
X18970Y-779*
X18978Y-797*
X18985Y-816*
X18991Y-835*
X18997Y-855*
X19002Y-876*
X19006Y-898*
X19008Y-920*
X19010Y-943*
X19012Y-966*
Y-991*
Y-1014*
X19010Y-1038*
X19008Y-1061*
X19006Y-1083*
X19002Y-1104*
X18997Y-1124*
X18991Y-1145*
X18985Y-1165*
X18978Y-1183*
X18970Y-1201*
X18961Y-1218*
X18952Y-1235*
X18942Y-1251*
X18931Y-1267*
X18919Y-1281*
X18906Y-1295*
X18892Y-1309*
X18878Y-1321*
X18864Y-1333*
X18848Y-1343*
X18832Y-1354*
X18816Y-1362*
X18799Y-1371*
X18782Y-1378*
X18764Y-1384*
X18745Y-1390*
X18726Y-1394*
X18706Y-1398*
X18686Y-1402*
X18665Y-1404*
X18644Y-1405*
X18622Y-1406*
X18600Y-1405*
X18578Y-1404*
X18557Y-1402*
X18537Y-1398*
X18517Y-1394*
X18498Y-1390*
X18479Y-1384*
X18461Y-1378*
X18443Y-1371*
X18426Y-1363*
X18409Y-1354*
X18394Y-1344*
X18379Y-1333*
X18364Y-1322*
X18350Y-1309*
X18336Y-1296*
X18323Y-1282*
X18311Y-1268*
X18300Y-1252*
X18290Y-1236*
X18280Y-1220*
X18272Y-1202*
X18264Y-1184*
X18257Y-1166*
X18250Y-1146*
X18245Y-1127*
X18240Y-1106*
X18236Y-1085*
X18234Y-1064*
X18231Y-1041*
Y-1018*
X18230Y-994*
X18398Y-989D02*
Y-1022D01*
X18402Y-1053*
X18406Y-1082*
X18413Y-1109*
X18422Y-1134*
X18433Y-1157*
X18446Y-1177*
X18461Y-1196*
X18477Y-1213*
X18494Y-1227*
X18513Y-1239*
X18533Y-1249*
X18554Y-1257*
X18575Y-1261*
X18598Y-1265*
X18622Y-1266*
X18646Y-1265*
X18669Y-1262*
X18690Y-1257*
X18710Y-1249*
X18730Y-1239*
X18748Y-1227*
X18765Y-1213*
X18782Y-1196*
X18796Y-1178*
X18809Y-1157*
X18820Y-1134*
X18828Y-1109*
X18835Y-1082*
X18840Y-1052*
X18843Y-1020*
X18844Y-987*
X18843Y-954*
X18840Y-922*
X18835Y-893*
X18829Y-866*
X18820Y-842*
X18810Y-819*
X18798Y-798*
X18783Y-780*
X18768Y-765*
X18750Y-751*
X18732Y-739*
X18713Y-730*
X18691Y-722*
X18669Y-717*
X18646Y-713*
X18622*
X18597*
X18574Y-717*
X18552Y-722*
X18531Y-730*
X18511Y-739*
X18493Y-751*
X18476Y-765*
X18459Y-781*
X18445Y-800*
X18432Y-820*
X18422Y-843*
X18413Y-868*
X18406Y-894*
X18402Y-924*
X18398Y-955*
Y-989*
X18577Y34259D02*
Y34044D01*
X17766*
X17770Y34074*
X17775Y34104*
X17783Y34133*
X17792Y34162*
X17802Y34191*
X17815Y34220*
X17830Y34247*
X17845Y34275*
X17864Y34304*
X17886Y34333*
X17912Y34366*
X17943Y34402*
X17977Y34439*
X18016Y34478*
X18059Y34520*
X18105Y34565*
X18143Y34599*
X18176Y34631*
X18205Y34660*
X18231Y34686*
X18254Y34710*
X18271Y34730*
X18285Y34748*
X18297Y34762*
X18308Y34780*
X18317Y34797*
X18326Y34815*
X18333Y34833*
X18337Y34850*
X18342Y34868*
X18343Y34886*
X18344Y34904*
X18343Y34922*
X18342Y34940*
X18339Y34957*
X18334Y34972*
X18328Y34986*
X18321Y34999*
X18313Y35011*
X18303Y35023*
X18293Y35032*
X18281Y35041*
X18268Y35048*
X18254Y35054*
X18238Y35058*
X18223Y35062*
X18206Y35063*
X18187Y35064*
X18171Y35063*
X18153Y35062*
X18138Y35058*
X18122Y35054*
X18109Y35046*
X18096Y35039*
X18083Y35031*
X18073Y35020*
X18062Y35009*
X18054Y34994*
X18046Y34979*
X18039Y34963*
X18034Y34943*
X18029Y34922*
X18026Y34900*
X18023Y34875*
X17793Y34899*
X17800Y34945*
X17808Y34987*
X17821Y35026*
X17835Y35063*
X17853Y35095*
X17873Y35124*
X17897Y35150*
X17923Y35173*
X17950Y35193*
X17980Y35209*
X18011Y35224*
X18044Y35235*
X18080Y35245*
X18117Y35252*
X18154Y35256*
X18194Y35257*
X18237Y35256*
X18278Y35251*
X18317Y35243*
X18354Y35232*
X18388Y35219*
X18419Y35202*
X18448Y35182*
X18476Y35160*
X18499Y35135*
X18519Y35109*
X18537Y35081*
X18551Y35052*
X18563Y35022*
X18571Y34989*
X18576Y34956*
X18577Y34920*
X18575Y34880*
X18570Y34841*
X18561Y34802*
X18548Y34765*
X18531Y34728*
X18510Y34690*
X18485Y34651*
X18456Y34611*
X18444Y34596*
X18430Y34581*
X18414Y34563*
X18396Y34546*
X18376Y34526*
X18354Y34503*
X18330Y34481*
X18303Y34456*
X18277Y34432*
X18254Y34410*
X18232Y34391*
X18213Y34373*
X18198Y34357*
X18184Y34344*
X18173Y34332*
X18165Y34322*
X18151Y34306*
X18138Y34291*
X18127Y34274*
X18117Y34259*
X18577*
X18786Y34044D02*
Y35252D01*
X19680*
Y35048*
X19031*
Y34780*
X19635*
Y34575*
X19031*
Y34248*
X19704*
Y34044*
X18786*
X19138Y-587D02*
X19435D01*
X19460*
X19483*
X19504Y-589*
X19524Y-591*
X19543Y-593*
X19559Y-595*
X19575Y-598*
X19588Y-602*
X19606Y-608*
X19623Y-614*
X19639Y-622*
X19654Y-631*
X19669Y-641*
X19683Y-652*
X19697Y-664*
X19710Y-676*
X19734Y-705*
X19754Y-735*
X19772Y-769*
X19787Y-807*
X19793Y-827*
X19798Y-847*
X19803Y-870*
X19807Y-893*
X19809Y-917*
X19812Y-943*
X19813Y-969*
Y-997*
Y-1021*
X19812Y-1045*
X19810Y-1068*
X19807Y-1090*
X19804Y-1111*
X19799Y-1131*
X19794Y-1150*
X19789Y-1169*
X19780Y-1190*
X19772Y-1210*
X19762Y-1230*
X19752Y-1248*
X19741Y-1265*
X19729Y-1282*
X19716Y-1297*
X19702Y-1311*
X19691Y-1321*
X19680Y-1331*
X19666Y-1339*
X19653Y-1347*
X19638Y-1355*
X19622Y-1362*
X19606Y-1369*
X19588Y-1375*
X19574Y-1379*
X19559Y-1383*
X19543Y-1386*
X19525Y-1388*
X19506Y-1390*
X19487Y-1391*
X19466Y-1392*
X19444*
X19138*
Y-587*
X19301Y-723D02*
Y-1256D01*
X19422*
X19439*
X19454Y-1255*
X19469*
X19481Y-1254*
X19493Y-1253*
X19503Y-1252*
X19513Y-1250*
X19520Y-1248*
X19540Y-1243*
X19557Y-1235*
X19572Y-1226*
X19587Y-1215*
X19593Y-1209*
X19599Y-1201*
X19605Y-1193*
X19610Y-1183*
X19616Y-1173*
X19620Y-1162*
X19625Y-1150*
X19629Y-1137*
X19633Y-1123*
X19636Y-1108*
X19639Y-1091*
X19642Y-1073*
X19643Y-1054*
X19645Y-1034*
X19646Y-1013*
Y-990*
Y-967*
X19645Y-946*
X19643Y-926*
X19642Y-907*
X19639Y-890*
X19636Y-874*
X19633Y-860*
X19629Y-846*
X19620Y-823*
X19609Y-802*
X19597Y-784*
X19583Y-769*
X19567Y-756*
X19550Y-745*
X19529Y-737*
X19508Y-731*
X19498Y-729*
X19487Y-728*
X19472Y-726*
X19457Y-725*
X19439Y-724*
X19420*
X19398Y-723*
X19374*
X19301*
X19950Y-587D02*
X20113D01*
Y-1023*
Y-1047*
X20114Y-1070*
Y-1090*
X20115Y-1108*
X20116Y-1124*
X20117Y-1137*
X20118Y-1148*
X20120Y-1157*
X20123Y-1169*
X20127Y-1180*
X20131Y-1191*
X20137Y-1202*
X20143Y-1211*
X20151Y-1220*
X20160Y-1228*
X20169Y-1236*
X20180Y-1243*
X20191Y-1250*
X20202Y-1254*
X20215Y-1259*
X20229Y-1262*
X20244Y-1265*
X20259*
X20276Y-1266*
X20293Y-1265*
X20309*
X20323Y-1262*
X20336Y-1259*
X20349Y-1255*
X20361Y-1250*
X20371Y-1245*
X20380Y-1238*
X20388Y-1231*
X20396Y-1223*
X20402Y-1215*
X20408Y-1206*
X20413Y-1198*
X20417Y-1188*
X20420Y-1179*
X20422Y-1169*
X20424Y-1157*
X20425Y-1145*
X20427Y-1130*
X20428Y-1114*
Y-1096*
Y-1076*
X20429Y-1055*
Y-1031*
Y-587*
X20592*
Y-1009*
Y-1045*
X20591Y-1077*
Y-1106*
X20589Y-1133*
X20587Y-1157*
X20585Y-1180*
X20582Y-1198*
X20579Y-1214*
X20571Y-1243*
X20561Y-1269*
X20546Y-1294*
X20531Y-1316*
X20511Y-1335*
X20489Y-1353*
X20464Y-1368*
X20435Y-1381*
X20420Y-1387*
X20404Y-1392*
X20386Y-1396*
X20368Y-1399*
X20347Y-1402*
X20327Y-1404*
X20304Y-1406*
X20281*
X20253*
X20227Y-1404*
X20202Y-1402*
X20180Y-1399*
X20158Y-1395*
X20139Y-1391*
X20122Y-1385*
X20106Y-1379*
X20078Y-1365*
X20053Y-1348*
X20031Y-1330*
X20012Y-1309*
X19996Y-1288*
X19983Y-1266*
X19973Y-1243*
X19966Y-1220*
X19962Y-1202*
X19959Y-1182*
X19957Y-1159*
X19954Y-1135*
X19953Y-1108*
X19951Y-1080*
X19950Y-1049*
Y-1017*
Y-587*
X20219Y34044D02*
X19788Y35252D01*
X20052*
X20358Y34358*
X20652Y35252*
X20912*
X20482Y34044*
X20219*
X21034D02*
Y35252D01*
X21400*
X21617Y34428*
X21832Y35252*
X22198*
Y34044*
X21973*
Y34994*
X21733Y34044*
X21498*
X21261Y34994*
X21259Y34044*
X21034*
X21280Y-1094D02*
X21437Y-1145D01*
X21428Y-1177*
X21416Y-1207*
X21403Y-1235*
X21389Y-1260*
X21373Y-1283*
X21356Y-1305*
X21337Y-1324*
X21317Y-1342*
X21294Y-1357*
X21272Y-1369*
X21246Y-1380*
X21220Y-1390*
X21194Y-1397*
X21165Y-1402*
X21134Y-1405*
X21102Y-1406*
X21083Y-1405*
X21063Y-1404*
X21044Y-1402*
X21026Y-1398*
X21008Y-1394*
X20991Y-1390*
X20973Y-1384*
X20957Y-1378*
X20940Y-1371*
X20924Y-1363*
X20909Y-1354*
X20894Y-1344*
X20880Y-1333*
X20865Y-1322*
X20852Y-1309*
X20839Y-1296*
X20826Y-1282*
X20814Y-1268*
X20804Y-1252*
X20794Y-1236*
X20784Y-1220*
X20776Y-1202*
X20769Y-1185*
X20761Y-1166*
X20755Y-1147*
X20750Y-1128*
X20746Y-1107*
X20742Y-1087*
X20739Y-1065*
X20737Y-1043*
X20736Y-1020*
X20735Y-997*
X20736Y-972*
X20737Y-948*
X20739Y-924*
X20742Y-902*
X20746Y-880*
X20750Y-858*
X20755Y-838*
X20761Y-818*
X20769Y-799*
X20776Y-780*
X20784Y-763*
X20794Y-746*
X20804Y-729*
X20815Y-713*
X20827Y-698*
X20839Y-684*
X20853Y-671*
X20866Y-658*
X20880Y-646*
X20895Y-636*
X20910Y-626*
X20926Y-617*
X20943Y-609*
X20959Y-601*
X20976Y-594*
X20994Y-589*
X21013Y-584*
X21031Y-580*
X21051Y-577*
X21071Y-575*
X21091Y-574*
X21113Y-573*
X21148Y-575*
X21183Y-579*
X21215Y-586*
X21246Y-595*
X21276Y-608*
X21302Y-623*
X21328Y-640*
X21352Y-661*
X21365Y-675*
X21378Y-690*
X21390Y-706*
X21400Y-724*
X21410Y-743*
X21419Y-764*
X21428Y-786*
X21435Y-809*
X21274Y-848*
X21270Y-833*
X21265Y-818*
X21259Y-805*
X21252Y-792*
X21244Y-780*
X21235Y-769*
X21225Y-758*
X21214Y-749*
X21203Y-740*
X21191Y-733*
X21178Y-727*
X21165Y-722*
X21150Y-718*
X21135Y-715*
X21120Y-713*
X21104*
X21083*
X21061Y-717*
X21042Y-722*
X21023Y-728*
X21006Y-738*
X20989Y-749*
X20973Y-761*
X20959Y-777*
X20946Y-794*
X20935Y-814*
X20925Y-836*
X20917Y-861*
X20911Y-888*
X20906Y-917*
X20904Y-950*
X20903Y-984*
X20904Y-1021*
X20906Y-1055*
X20911Y-1087*
X20917Y-1115*
X20924Y-1141*
X20934Y-1164*
X20945Y-1184*
X20958Y-1202*
X20972Y-1217*
X20987Y-1230*
X21004Y-1241*
X21021Y-1250*
X21039Y-1257*
X21059Y-1262*
X21080Y-1265*
X21101Y-1266*
X21117Y-1265*
X21132Y-1264*
X21147Y-1261*
X21161Y-1256*
X21175Y-1250*
X21188Y-1243*
X21201Y-1235*
X21213Y-1225*
X21224Y-1213*
X21234Y-1201*
X21244Y-1187*
X21253Y-1172*
X21261Y-1154*
X21268Y-1136*
X21274Y-1116*
X21280Y-1094*
X21759Y-1392D02*
Y-723D01*
X21520*
Y-587*
X22161*
Y-723*
X21922*
Y-1392*
X21759*
X22951Y-1097D02*
Y-961D01*
X23302*
Y-1280*
X23288Y-1293*
X23273Y-1305*
X23257Y-1316*
X23239Y-1328*
X23220Y-1338*
X23199Y-1348*
X23177Y-1358*
X23154Y-1368*
X23129Y-1376*
X23105Y-1384*
X23080Y-1391*
X23056Y-1396*
X23031Y-1400*
X23006Y-1403*
X22982Y-1405*
X22957Y-1406*
X22926Y-1405*
X22896Y-1402*
X22867Y-1398*
X22839Y-1392*
X22812Y-1385*
X22786Y-1376*
X22761Y-1365*
X22736Y-1353*
X22714Y-1339*
X22693Y-1324*
X22672Y-1306*
X22654Y-1288*
X22637Y-1269*
X22622Y-1247*
X22608Y-1225*
X22595Y-1201*
X22584Y-1176*
X22575Y-1150*
X22567Y-1124*
X22560Y-1098*
X22554Y-1071*
X22551Y-1043*
X22549Y-1016*
X22548Y-987*
X22549Y-956*
X22551Y-926*
X22555Y-896*
X22561Y-868*
X22569Y-840*
X22578Y-814*
X22588Y-788*
X22601Y-763*
X22615Y-739*
X22630Y-717*
X22647Y-696*
X22666Y-677*
X22686Y-659*
X22708Y-643*
X22731Y-627*
X22755Y-613*
X22776Y-604*
X22796Y-596*
X22819Y-589*
X22843Y-583*
X22867Y-579*
X22893Y-576*
X22920Y-574*
X22948Y-573*
X22985Y-574*
X23019Y-577*
X23052Y-582*
X23082Y-589*
X23110Y-598*
X23136Y-609*
X23161Y-622*
X23183Y-636*
X23203Y-653*
X23221Y-671*
X23238Y-691*
X23252Y-712*
X23265Y-735*
X23276Y-758*
X23284Y-784*
X23291Y-811*
X23130Y-841*
X23125Y-827*
X23120Y-813*
X23113Y-800*
X23106Y-788*
X23097Y-776*
X23087Y-766*
X23077Y-756*
X23066Y-747*
X23054Y-739*
X23041Y-732*
X23028Y-726*
X23013Y-721*
X22998Y-717*
X22982Y-715*
X22965Y-713*
X22948*
X22922*
X22898Y-717*
X22875Y-722*
X22853Y-730*
X22832Y-739*
X22813Y-750*
X22795Y-765*
X22779Y-780*
X22764Y-798*
X22751Y-818*
X22740Y-840*
X22731Y-864*
X22724Y-890*
X22720Y-918*
X22717Y-948*
X22716Y-980*
X22717Y-1015*
X22720Y-1047*
X22724Y-1077*
X22731Y-1106*
X22741Y-1131*
X22752Y-1154*
X22765Y-1176*
X22780Y-1194*
X22796Y-1212*
X22814Y-1226*
X22833Y-1239*
X22853Y-1248*
X22875Y-1256*
X22898Y-1261*
X22921Y-1265*
X22946Y-1266*
X22972Y-1265*
X22998Y-1261*
X23023Y-1255*
X23049Y-1246*
X23074Y-1236*
X23097Y-1224*
X23118Y-1212*
X23137Y-1198*
Y-1097*
X22951*
X23453Y-1392D02*
Y-587D01*
X23794*
X23826*
X23855Y-588*
X23882Y-590*
X23906Y-592*
X23928Y-595*
X23949Y-599*
X23967Y-603*
X23983Y-609*
X23997Y-614*
X24010Y-621*
X24023Y-629*
X24035Y-639*
X24046Y-649*
X24057Y-660*
X24067Y-672*
X24076Y-686*
X24084Y-700*
X24091Y-714*
X24098Y-729*
X24102Y-745*
X24106Y-761*
X24109Y-778*
X24110Y-795*
X24111Y-813*
X24110Y-835*
X24108Y-856*
X24104Y-876*
X24098Y-895*
X24091Y-913*
X24081Y-931*
X24070Y-947*
X24058Y-962*
X24044Y-976*
X24028Y-989*
X24010Y-1001*
X23991Y-1010*
X23971Y-1019*
X23949Y-1026*
X23924Y-1032*
X23899Y-1037*
X23924Y-1053*
X23947Y-1069*
X23968Y-1087*
X23986Y-1105*
X23994Y-1114*
X24005Y-1126*
X24015Y-1140*
X24026Y-1155*
X24038Y-1172*
X24050Y-1191*
X24064Y-1213*
X24078Y-1235*
X24176Y-1392*
X23982*
X23865Y-1217*
X23850Y-1194*
X23836Y-1174*
X23824Y-1156*
X23813Y-1140*
X23802Y-1127*
X23794Y-1115*
X23786Y-1106*
X23780Y-1098*
X23768Y-1087*
X23756Y-1078*
X23743Y-1071*
X23731Y-1065*
X23724Y-1063*
X23716Y-1061*
X23707Y-1060*
X23697Y-1058*
X23687Y-1057*
X23675*
X23662Y-1056*
X23649*
X23616*
Y-1392*
X23453*
X23616Y-928D02*
X23735D01*
X23764*
X23788Y-927*
X23811Y-926*
X23831Y-925*
X23847Y-924*
X23861Y-922*
X23872Y-920*
X23881Y-918*
X23895Y-912*
X23907Y-904*
X23918Y-894*
X23927Y-883*
X23934Y-871*
X23939Y-857*
X23943Y-840*
Y-823*
X23942Y-804*
X23938Y-787*
X23931Y-771*
X23922Y-757*
X23909Y-746*
X23895Y-737*
X23880Y-730*
X23861Y-726*
X23854Y-725*
X23846Y-724*
X23835*
X23821*
X23806*
X23787Y-723*
X23765*
X23743*
X23616*
Y-928*
X24231Y-994D02*
X24232Y-965D01*
X24234Y-935*
X24237Y-908*
X24241Y-881*
X24246Y-856*
X24252Y-832*
X24260Y-809*
X24269Y-788*
X24283Y-758*
X24301Y-730*
X24321Y-703*
X24343Y-678*
X24355Y-666*
X24368Y-655*
X24380Y-645*
X24393Y-635*
X24420Y-619*
X24447Y-605*
X24467Y-598*
X24487Y-591*
X24507Y-586*
X24528Y-581*
X24550Y-578*
X24573Y-576*
X24597Y-574*
X24621Y-573*
X24643Y-574*
X24665Y-575*
X24686Y-577*
X24706Y-580*
X24726Y-584*
X24745Y-589*
X24764Y-594*
X24782Y-601*
X24799Y-608*
X24817Y-617*
X24832Y-625*
X24849Y-635*
X24864Y-646*
X24879Y-657*
X24893Y-670*
X24906Y-683*
X24920Y-698*
X24931Y-713*
X24943Y-728*
X24954Y-744*
X24963Y-761*
X24972Y-779*
X24980Y-797*
X24987Y-816*
X24993Y-835*
X24998Y-855*
X25003Y-876*
X25007Y-898*
X25009Y-920*
X25012Y-943*
X25013Y-966*
Y-991*
Y-1014*
X25012Y-1038*
X25009Y-1061*
X25007Y-1083*
X25003Y-1104*
X24998Y-1124*
X24993Y-1145*
X24987Y-1165*
X24980Y-1183*
X24972Y-1201*
X24963Y-1218*
X24954Y-1235*
X24943Y-1251*
X24932Y-1267*
X24920Y-1281*
X24907Y-1295*
X24894Y-1309*
X24880Y-1321*
X24865Y-1333*
X24850Y-1343*
X24834Y-1354*
X24817Y-1362*
X24801Y-1371*
X24783Y-1378*
X24765Y-1384*
X24746Y-1390*
X24728Y-1394*
X24708Y-1398*
X24687Y-1402*
X24667Y-1404*
X24646Y-1405*
X24624Y-1406*
X24602Y-1405*
X24580Y-1404*
X24559Y-1402*
X24539Y-1398*
X24518Y-1394*
X24499Y-1390*
X24480Y-1384*
X24462Y-1378*
X24445Y-1371*
X24428Y-1363*
X24411Y-1354*
X24395Y-1344*
X24380Y-1333*
X24365Y-1322*
X24351Y-1309*
X24338Y-1296*
X24324Y-1282*
X24313Y-1268*
X24302Y-1252*
X24291Y-1236*
X24282Y-1220*
X24273Y-1202*
X24265Y-1184*
X24258Y-1166*
X24252Y-1146*
X24246Y-1127*
X24242Y-1106*
X24238Y-1085*
X24235Y-1064*
X24233Y-1041*
X24232Y-1018*
X24231Y-994*
X24399Y-989D02*
X24400Y-1022D01*
X24403Y-1053*
X24408Y-1082*
X24415Y-1109*
X24424Y-1134*
X24435Y-1157*
X24448Y-1177*
X24462Y-1196*
X24479Y-1213*
X24496Y-1227*
X24515Y-1239*
X24535Y-1249*
X24555Y-1257*
X24576Y-1261*
X24599Y-1265*
X24624Y-1266*
X24647Y-1265*
X24670Y-1262*
X24691Y-1257*
X24712Y-1249*
X24731Y-1239*
X24750Y-1227*
X24767Y-1213*
X24783Y-1196*
X24798Y-1178*
X24810Y-1157*
X24821Y-1134*
X24830Y-1109*
X24837Y-1082*
X24842Y-1052*
X24845Y-1020*
X24846Y-987*
X24845Y-954*
X24842Y-922*
X24837Y-893*
X24831Y-866*
X24822Y-842*
X24812Y-819*
X24799Y-798*
X24785Y-780*
X24769Y-765*
X24752Y-751*
X24734Y-739*
X24714Y-730*
X24693Y-722*
X24671Y-717*
X24648Y-713*
X24624*
X24598*
X24576Y-717*
X24554Y-722*
X24532Y-730*
X24513Y-739*
X24494Y-751*
X24477Y-765*
X24461Y-781*
X24446Y-800*
X24434Y-820*
X24424Y-843*
X24415Y-868*
X24408Y-894*
X24403Y-924*
X24400Y-955*
X24399Y-989*
X25139Y-587D02*
X25302D01*
Y-1023*
Y-1047*
X25303Y-1070*
Y-1090*
X25304Y-1108*
X25305Y-1124*
X25306Y-1137*
X25307Y-1148*
X25309Y-1157*
X25312Y-1169*
X25316Y-1180*
X25320Y-1191*
X25326Y-1202*
X25332Y-1211*
X25340Y-1220*
X25349Y-1228*
X25358Y-1236*
X25369Y-1243*
X25380Y-1250*
X25391Y-1254*
X25404Y-1259*
X25418Y-1262*
X25433Y-1265*
X25448*
X25465Y-1266*
X25482Y-1265*
X25498*
X25512Y-1262*
X25525Y-1259*
X25538Y-1255*
X25550Y-1250*
X25560Y-1245*
X25569Y-1238*
X25577Y-1231*
X25585Y-1223*
X25591Y-1215*
X25597Y-1206*
X25602Y-1198*
X25606Y-1188*
X25609Y-1179*
X25611Y-1169*
X25613Y-1157*
X25614Y-1145*
X25616Y-1130*
X25617Y-1114*
Y-1096*
Y-1076*
X25618Y-1055*
Y-1031*
Y-587*
X25781*
Y-1009*
Y-1045*
X25780Y-1077*
Y-1106*
X25778Y-1133*
X25776Y-1157*
X25774Y-1180*
X25771Y-1198*
X25768Y-1214*
X25760Y-1243*
X25750Y-1269*
X25735Y-1294*
X25720Y-1316*
X25700Y-1335*
X25678Y-1353*
X25653Y-1368*
X25624Y-1381*
X25609Y-1387*
X25593Y-1392*
X25575Y-1396*
X25557Y-1399*
X25536Y-1402*
X25516Y-1404*
X25493Y-1406*
X25470*
X25442*
X25416Y-1404*
X25391Y-1402*
X25369Y-1399*
X25347Y-1395*
X25328Y-1391*
X25311Y-1385*
X25295Y-1379*
X25267Y-1365*
X25242Y-1348*
X25220Y-1330*
X25201Y-1309*
X25185Y-1288*
X25172Y-1266*
X25162Y-1243*
X25155Y-1220*
X25151Y-1202*
X25148Y-1182*
X25146Y-1159*
X25143Y-1135*
X25142Y-1108*
X25140Y-1080*
X25139Y-1049*
Y-1017*
Y-587*
X25954Y-1392D02*
Y-587D01*
X26214*
X26232*
X26250*
X26266*
X26282*
X26297Y-588*
X26310*
X26324Y-589*
X26336Y-590*
X26348Y-591*
X26359*
X26369Y-592*
X26378Y-594*
X26387*
X26394Y-596*
X26401Y-598*
X26407*
X26424Y-604*
X26440Y-610*
X26456Y-618*
X26471Y-628*
X26484Y-638*
X26498Y-650*
X26511Y-663*
X26523Y-678*
X26534Y-694*
X26543Y-710*
X26551Y-728*
X26557Y-747*
X26563Y-767*
X26566Y-788*
X26569Y-811*
Y-835*
Y-853*
X26568Y-870*
X26565Y-887*
X26563Y-902*
X26559Y-918*
X26554Y-932*
X26549Y-946*
X26543Y-959*
X26528Y-983*
X26512Y-1004*
X26494Y-1023*
X26474Y-1039*
X26454Y-1052*
X26432Y-1062*
X26412Y-1071*
X26391Y-1076*
X26375Y-1080*
X26358Y-1082*
X26339Y-1083*
X26319Y-1085*
X26298Y-1087*
X26274*
X26249Y-1088*
X26222*
X26117*
Y-1392*
X25954*
X26117Y-723D02*
Y-952D01*
X26205*
X26228*
X26249Y-951*
X26268Y-950*
X26285Y-949*
X26300Y-947*
X26313Y-945*
X26324Y-943*
X26333Y-939*
X26348Y-932*
X26361Y-923*
X26373Y-913*
X26383Y-900*
X26391Y-886*
X26397Y-871*
X26401Y-854*
X26402Y-837*
Y-826*
X26400Y-816*
X26398Y-806*
X26395Y-797*
X26391Y-788*
X26387Y-780*
X26382Y-772*
X26376Y-765*
X26362Y-751*
X26347Y-741*
X26330Y-733*
X26311Y-728*
X26303Y-727*
X26293Y-726*
X26281Y-725*
X26268Y-724*
X26252*
X26235*
X26216Y-723*
X26194*
X26117*
X33023Y22381D02*
Y22883D01*
X32844*
Y22985*
X33324*
Y22883*
X33145*
Y22381*
X33023*
X33377Y22679D02*
X33378Y22702D01*
X33379Y22724*
X33381Y22744*
X33384Y22764*
X33388Y22783*
X33392Y22801*
X33398Y22818*
X33405Y22834*
X33416Y22856*
X33429Y22878*
X33444Y22898*
X33461Y22917*
X33470Y22926*
X33479Y22934*
X33489Y22942*
X33498Y22949*
X33518Y22961*
X33539Y22972*
X33554Y22977*
X33568Y22982*
X33584Y22986*
X33600Y22989*
X33616Y22992*
X33633Y22994*
X33651Y22995*
X33669*
X33686*
X33702Y22994*
X33718Y22992*
X33733Y22990*
X33748Y22987*
X33762Y22983*
X33776Y22979*
X33790Y22975*
X33803Y22969*
X33816Y22963*
X33828Y22956*
X33840Y22949*
X33851Y22940*
X33862Y22932*
X33873Y22923*
X33883Y22913*
X33893Y22902*
X33902Y22891*
X33910Y22879*
X33919Y22867*
X33926Y22854*
X33932Y22841*
X33938Y22828*
X33943Y22813*
X33948Y22799*
X33952Y22784*
X33956Y22768*
X33959Y22752*
X33960Y22735*
X33962Y22718*
X33963Y22701*
Y22682*
Y22665*
X33962Y22647*
X33960Y22630*
X33959Y22613*
X33956Y22597*
X33952Y22582*
X33948Y22567*
X33943Y22552*
X33938Y22538*
X33932Y22525*
X33926Y22512*
X33919Y22499*
X33911Y22487*
X33903Y22475*
X33894Y22464*
X33884Y22454*
X33874Y22444*
X33863Y22434*
X33852Y22425*
X33841Y22418*
X33829Y22410*
X33816Y22404*
X33804Y22397*
X33791Y22392*
X33777Y22387*
X33763Y22383*
X33749Y22379*
X33734Y22376*
X33719Y22374*
X33704Y22372*
X33688*
X33671Y22371*
X33655Y22372*
X33638*
X33623Y22374*
X33607Y22376*
X33592Y22379*
X33578Y22383*
X33564Y22387*
X33550Y22392*
X33537Y22397*
X33524Y22403*
X33512Y22410*
X33500Y22417*
X33489Y22425*
X33477Y22434*
X33467Y22443*
X33457Y22453*
X33447Y22464*
X33438Y22474*
X33430Y22486*
X33422Y22498*
X33415Y22510*
X33408Y22523*
X33402Y22537*
X33397Y22551*
X33392Y22565*
X33388Y22580*
X33385Y22595*
X33382Y22611*
X33380Y22627*
X33378Y22644*
Y22662*
X33377Y22679*
X33503Y22683D02*
Y22659D01*
X33506Y22636*
X33509Y22614*
X33515Y22594*
X33521Y22575*
X33529Y22558*
X33539Y22542*
X33550Y22528*
X33562Y22516*
X33575Y22505*
X33590Y22496*
X33604Y22489*
X33620Y22483*
X33636Y22479*
X33653Y22476*
X33671*
X33689*
X33706Y22479*
X33722Y22483*
X33737Y22489*
X33752Y22496*
X33766Y22505*
X33779Y22516*
X33791Y22528*
X33802Y22542*
X33811Y22558*
X33819Y22575*
X33826Y22594*
X33831Y22614*
X33835Y22636*
X33837Y22660*
X33838Y22685*
X33837Y22710*
X33835Y22734*
X33831Y22756*
X33826Y22776*
X33820Y22794*
X33812Y22811*
X33803Y22826*
X33792Y22840*
X33780Y22852*
X33767Y22862*
X33754Y22871*
X33739Y22878*
X33723Y22884*
X33706Y22888*
X33689Y22890*
X33671Y22891*
X33652Y22890*
X33635Y22887*
X33619Y22884*
X33603Y22878*
X33588Y22871*
X33574Y22862*
X33561Y22851*
X33549Y22839*
X33538Y22825*
X33529Y22810*
X33521Y22793*
X33515Y22774*
X33509Y22754*
X33506Y22732*
X33503Y22709*
Y22683*
X34059Y22381D02*
Y22985D01*
X34255*
X34268*
X34281*
X34294*
X34305*
X34317Y22984*
X34327*
X34337Y22983*
X34346*
X34355Y22982*
X34363*
X34370Y22981*
X34377Y22980*
X34384Y22979*
X34390Y22978*
X34394Y22977*
X34399Y22976*
X34412Y22972*
X34424Y22968*
X34436Y22962*
X34447Y22955*
X34457Y22947*
X34467Y22938*
X34477Y22928*
X34486Y22917*
X34494Y22905*
X34501Y22893*
X34507Y22879*
X34512Y22865*
X34516Y22850*
X34519Y22834*
X34520Y22817*
X34521Y22799*
Y22786*
X34520Y22773*
X34518Y22760*
X34516Y22748*
X34513Y22737*
X34510Y22726*
X34506Y22715*
X34501Y22706*
X34490Y22688*
X34478Y22672*
X34464Y22658*
X34449Y22646*
X34434Y22636*
X34418Y22629*
X34403Y22622*
X34387Y22618*
X34375Y22616*
X34363Y22614*
X34348Y22613*
X34333Y22611*
X34317Y22610*
X34299*
X34281Y22609*
X34260*
X34181*
Y22381*
X34059*
X34181Y22883D02*
Y22711D01*
X34247*
X34265*
X34281Y22712*
X34295*
X34308Y22714*
X34319Y22715*
X34328Y22717*
X34337Y22718*
X34344Y22721*
X34355Y22726*
X34365Y22733*
X34374Y22741*
X34381Y22750*
X34387Y22761*
X34392Y22772*
X34394Y22784*
X34395Y22797*
Y22806*
X34394Y22813*
X34392Y22820*
X34390Y22828*
X34387Y22834*
X34384Y22841*
X34380Y22846*
X34376Y22852*
X34366Y22862*
X34354Y22869*
X34341Y22875*
X34327Y22879*
X34321Y22880*
X34314Y22881*
X34305*
X34295Y22882*
X34283*
X34270*
X34256Y22883*
X34240*
X34181*
X35243Y22604D02*
X35361Y22567D01*
X35354Y22542*
X35345Y22520*
X35335Y22499*
X35325Y22480*
X35313Y22463*
X35300Y22447*
X35286Y22432*
X35270Y22419*
X35254Y22408*
X35237Y22398*
X35218Y22390*
X35198Y22383*
X35178Y22378*
X35156Y22374*
X35133Y22372*
X35110Y22371*
X35095Y22372*
X35080*
X35066Y22374*
X35052Y22376*
X35039Y22379*
X35026Y22383*
X35013Y22387*
X35000Y22392*
X34988Y22397*
X34976Y22403*
X34964Y22410*
X34953Y22417*
X34943Y22425*
X34932Y22434*
X34922Y22443*
X34912Y22453*
X34902Y22464*
X34894Y22474*
X34886Y22486*
X34878Y22498*
X34871Y22510*
X34865Y22523*
X34859Y22536*
X34854Y22551*
X34849Y22565*
X34845Y22580*
X34842Y22595*
X34839Y22610*
X34837Y22627*
X34836Y22643*
X34835Y22660*
X34834Y22678*
X34835Y22696*
X34836Y22714*
X34837Y22732*
X34839Y22749*
X34842Y22766*
X34846Y22781*
X34849Y22797*
X34854Y22812*
X34859Y22826*
X34865Y22840*
X34871Y22853*
X34878Y22866*
X34886Y22878*
X34894Y22890*
X34903Y22901*
X34912Y22912*
X34922Y22922*
X34932Y22931*
X34943Y22940*
X34954Y22948*
X34966Y22956*
X34977Y22963*
X34990Y22969*
X35002Y22975*
X35015Y22979*
X35029Y22983*
X35042Y22987*
X35056Y22990*
X35071Y22992*
X35086Y22994*
X35101Y22995*
X35117*
X35144Y22994*
X35170Y22991*
X35194Y22986*
X35218Y22979*
X35240Y22969*
X35260Y22958*
X35279Y22945*
X35297Y22930*
X35307Y22919*
X35316Y22908*
X35325Y22895*
X35333Y22882*
X35341Y22868*
X35347Y22852*
X35354Y22836*
X35359Y22818*
X35238Y22789*
X35235Y22800*
X35231Y22812*
X35227Y22822*
X35222Y22831*
X35216Y22840*
X35209Y22849*
X35202Y22856*
X35194Y22864*
X35185Y22870*
X35176Y22875*
X35166Y22880*
X35156Y22884*
X35146Y22887*
X35134Y22889*
X35123Y22890*
X35111Y22891*
X35095Y22890*
X35079Y22888*
X35064Y22884*
X35050Y22879*
X35037Y22872*
X35025Y22864*
X35013Y22854*
X35002Y22842*
X34992Y22830*
X34984Y22815*
X34977Y22798*
X34971Y22780*
X34966Y22759*
X34963Y22737*
X34961Y22713*
X34960Y22687*
X34961Y22659*
X34963Y22634*
X34966Y22610*
X34971Y22589*
X34976Y22569*
X34983Y22552*
X34992Y22537*
X35002Y22524*
X35012Y22513*
X35023Y22503*
X35036Y22494*
X35049Y22487*
X35062Y22482*
X35077Y22479*
X35093Y22476*
X35108*
X35120*
X35132Y22477*
X35143Y22480*
X35154Y22483*
X35164Y22487*
X35174Y22493*
X35183Y22499*
X35192Y22506*
X35201Y22515*
X35208Y22525*
X35216Y22535*
X35222Y22546*
X35228Y22559*
X35234Y22573*
X35238Y22588*
X35243Y22604*
X35440Y22679D02*
X35441Y22702D01*
X35442Y22724*
X35444Y22744*
X35447Y22764*
X35451Y22783*
X35456Y22801*
X35462Y22818*
X35468Y22834*
X35479Y22856*
X35492Y22878*
X35508Y22898*
X35524Y22917*
X35533Y22926*
X35543Y22934*
X35552Y22942*
X35561Y22949*
X35581Y22961*
X35602Y22972*
X35617Y22977*
X35632Y22982*
X35647Y22986*
X35663Y22989*
X35680Y22992*
X35697Y22994*
X35714Y22995*
X35733*
X35749*
X35765Y22994*
X35781Y22992*
X35796Y22990*
X35811Y22987*
X35825Y22983*
X35840Y22979*
X35853Y22975*
X35866Y22969*
X35879Y22963*
X35891Y22956*
X35903Y22949*
X35915Y22940*
X35926Y22932*
X35936Y22923*
X35946Y22913*
X35956Y22902*
X35965Y22891*
X35974Y22879*
X35982Y22867*
X35989Y22854*
X35995Y22841*
X36001Y22828*
X36007Y22813*
X36011Y22799*
X36016Y22784*
X36019Y22768*
X36022Y22752*
X36024Y22735*
X36026Y22718*
X36027Y22701*
Y22682*
Y22665*
X36026Y22647*
X36024Y22630*
X36022Y22613*
X36019Y22597*
X36016Y22582*
X36011Y22567*
X36007Y22552*
X36001Y22538*
X35995Y22525*
X35989Y22512*
X35982Y22499*
X35974Y22487*
X35966Y22475*
X35957Y22464*
X35947Y22454*
X35937Y22444*
X35926Y22434*
X35916Y22425*
X35904Y22418*
X35892Y22410*
X35880Y22404*
X35867Y22397*
X35854Y22392*
X35841Y22387*
X35827Y22383*
X35812Y22379*
X35798Y22376*
X35782Y22374*
X35767Y22372*
X35751*
X35734Y22371*
X35718Y22372*
X35701*
X35686Y22374*
X35671Y22376*
X35655Y22379*
X35641Y22383*
X35627Y22387*
X35613Y22392*
X35600Y22397*
X35587Y22403*
X35575Y22410*
X35563Y22417*
X35552Y22425*
X35541Y22434*
X35530Y22443*
X35520Y22453*
X35510Y22464*
X35501Y22474*
X35493Y22486*
X35485Y22498*
X35478Y22510*
X35472Y22523*
X35466Y22537*
X35460Y22551*
X35456Y22565*
X35452Y22580*
X35448Y22595*
X35445Y22611*
X35443Y22627*
X35442Y22644*
X35441Y22662*
X35440Y22679*
X35566Y22683D02*
X35567Y22659D01*
X35569Y22636*
X35573Y22614*
X35578Y22594*
X35584Y22575*
X35593Y22558*
X35603Y22542*
X35613Y22528*
X35626Y22516*
X35639Y22505*
X35653Y22496*
X35668Y22489*
X35683Y22483*
X35699Y22479*
X35716Y22476*
X35734*
X35752*
X35769Y22479*
X35785Y22483*
X35801Y22489*
X35815Y22496*
X35829Y22505*
X35842Y22516*
X35854Y22528*
X35865Y22542*
X35874Y22558*
X35883Y22575*
X35889Y22594*
X35894Y22614*
X35898Y22636*
X35900Y22660*
X35901Y22685*
X35900Y22710*
X35898Y22734*
X35894Y22756*
X35890Y22776*
X35883Y22794*
X35876Y22811*
X35866Y22826*
X35856Y22840*
X35844Y22852*
X35831Y22862*
X35817Y22871*
X35802Y22878*
X35786Y22884*
X35770Y22888*
X35753Y22890*
X35734Y22891*
X35716Y22890*
X35698Y22887*
X35682Y22884*
X35666Y22878*
X35651Y22871*
X35638Y22862*
X35625Y22851*
X35612Y22839*
X35602Y22825*
X35592Y22810*
X35584Y22793*
X35578Y22774*
X35573Y22754*
X35569Y22732*
X35567Y22709*
X35566Y22683*
X36122Y22381D02*
Y22985D01*
X36318*
X36331*
X36344*
X36357*
X36369*
X36380Y22984*
X36390*
X36400Y22983*
X36409*
X36418Y22982*
X36427*
X36434Y22981*
X36441Y22980*
X36447Y22979*
X36453Y22978*
X36458Y22977*
X36463Y22976*
X36475Y22972*
X36487Y22968*
X36499Y22962*
X36510Y22955*
X36520Y22947*
X36531Y22938*
X36541Y22928*
X36549Y22917*
X36558Y22905*
X36565Y22893*
X36571Y22879*
X36575Y22865*
X36580Y22850*
X36582Y22834*
X36584Y22817*
Y22799*
Y22786*
X36583Y22773*
X36581Y22760*
X36580Y22748*
X36577Y22737*
X36573Y22726*
X36569Y22715*
X36564Y22706*
X36554Y22688*
X36541Y22672*
X36528Y22658*
X36513Y22646*
X36497Y22636*
X36481Y22629*
X36466Y22622*
X36450Y22618*
X36438Y22616*
X36426Y22614*
X36412Y22613*
X36396Y22611*
X36381Y22610*
X36363*
X36344Y22609*
X36324*
X36245*
Y22381*
X36122*
X36245Y22883D02*
Y22711D01*
X36311*
X36328*
X36344Y22712*
X36358*
X36371Y22714*
X36382Y22715*
X36392Y22717*
X36400Y22718*
X36407Y22721*
X36418Y22726*
X36428Y22733*
X36437Y22741*
X36445Y22750*
X36451Y22761*
X36455Y22772*
X36458Y22784*
Y22797*
Y22806*
X36457Y22813*
X36456Y22820*
X36454Y22828*
X36451Y22834*
X36448Y22841*
X36444Y22846*
X36439Y22852*
X36429Y22862*
X36418Y22869*
X36405Y22875*
X36391Y22879*
X36385Y22880*
X36377Y22881*
X36368*
X36358Y22882*
X36346*
X36333*
X36319Y22883*
X36303*
X36245*
X36685Y22381D02*
Y22985D01*
X36881*
X36894*
X36907*
X36920*
X36931*
X36943Y22984*
X36953*
X36963Y22983*
X36972*
X36981Y22982*
X36989*
X36996Y22981*
X37004Y22980*
X37010Y22979*
X37016Y22978*
X37021Y22977*
X37025Y22976*
X37038Y22972*
X37050Y22968*
X37062Y22962*
X37073Y22955*
X37083Y22947*
X37093Y22938*
X37103Y22928*
X37112Y22917*
X37120Y22905*
X37128Y22893*
X37133Y22879*
X37138Y22865*
X37142Y22850*
X37145Y22834*
X37146Y22817*
X37147Y22799*
Y22786*
X37146Y22773*
X37144Y22760*
X37142Y22748*
X37139Y22737*
X37136Y22726*
X37132Y22715*
X37127Y22706*
X37116Y22688*
X37104Y22672*
X37090Y22658*
X37076Y22646*
X37060Y22636*
X37044Y22629*
X37029Y22622*
X37013Y22618*
X37001Y22616*
X36989Y22614*
X36975Y22613*
X36959Y22611*
X36943Y22610*
X36926*
X36907Y22609*
X36887*
X36807*
Y22381*
X36685*
X36807Y22883D02*
Y22711D01*
X36874*
X36891*
X36907Y22712*
X36921*
X36934Y22714*
X36945Y22715*
X36955Y22717*
X36963Y22718*
X36970Y22721*
X36981Y22726*
X36991Y22733*
X37000Y22741*
X37008Y22750*
X37014Y22761*
X37018Y22772*
X37021Y22784*
Y22797*
Y22806*
X37020Y22813*
X37018Y22820*
X37017Y22828*
X37014Y22834*
X37011Y22841*
X37006Y22846*
X37002Y22852*
X36992Y22862*
X36981Y22869*
X36968Y22875*
X36953Y22879*
X36947Y22880*
X36940Y22881*
X36931*
X36921Y22882*
X36909*
X36896*
X36882Y22883*
X36866*
X36807*
X37248Y22381D02*
Y22985D01*
X37695*
Y22883*
X37370*
Y22749*
X37673*
Y22647*
X37370*
Y22483*
X37707*
Y22381*
X37248*
X37811D02*
Y22985D01*
X38067*
X38091*
X38113Y22984*
X38133Y22983*
X38151Y22981*
X38168Y22979*
X38183Y22976*
X38196Y22973*
X38208Y22969*
X38219Y22965*
X38229Y22959*
X38238Y22953*
X38247Y22946*
X38256Y22939*
X38264Y22930*
X38271Y22921*
X38278Y22911*
X38284Y22900*
X38290Y22890*
X38294Y22878*
X38298Y22867*
X38301Y22854*
X38303Y22842*
X38304Y22829*
X38305Y22816*
X38304Y22799*
X38302Y22783*
X38299Y22768*
X38294Y22754*
X38289Y22740*
X38282Y22727*
X38274Y22715*
X38265Y22704*
X38254Y22693*
X38243Y22683*
X38229Y22675*
X38215Y22668*
X38199Y22661*
X38183Y22656*
X38165Y22651*
X38146Y22647*
X38165Y22636*
X38182Y22623*
X38197Y22610*
X38211Y22597*
X38217Y22590*
X38225Y22581*
X38232Y22570*
X38241Y22559*
X38250Y22546*
X38259Y22532*
X38269Y22516*
X38280Y22499*
X38354Y22381*
X38208*
X38120Y22513*
X38108Y22529*
X38098Y22545*
X38089Y22558*
X38081Y22570*
X38073Y22580*
X38067Y22589*
X38061Y22596*
X38056Y22601*
X38047Y22610*
X38038Y22617*
X38029Y22622*
X38019Y22626*
X38014Y22628*
X38008Y22629*
X38002Y22630*
X37994Y22631*
X37986Y22632*
X37977Y22633*
X37968*
X37958*
X37933*
Y22381*
X37811*
X37933Y22730D02*
X38023D01*
X38044*
X38062*
X38080Y22731*
X38094*
X38107Y22732*
X38117Y22734*
X38126Y22735*
X38132Y22737*
X38143Y22741*
X38152Y22747*
X38160Y22754*
X38166Y22763*
X38172Y22772*
X38176Y22783*
X38178Y22795*
X38179Y22808*
X38178Y22822*
X38175Y22835*
X38170Y22847*
X38163Y22857*
X38153Y22866*
X38143Y22872*
X38131Y22878*
X38117Y22881*
X38112*
X38106Y22882*
X38097*
X38087*
X38075*
X38061Y22883*
X38045*
X38028*
X37933*
Y22730*
G54D13*
X33162Y13102D02*
X33156Y13153D01*
X33140Y13194*
X33112Y13219*
X33071Y13231*
Y13260*
X33502*
Y13231*
X33461Y13216*
X33433Y13191*
X33414Y13153*
X33408Y13102*
Y12107*
X33414Y12057*
X33433Y12019*
X33461Y11991*
X33502Y11978*
Y11950*
X33071*
Y11978*
X33093Y11981*
X33112Y11991*
X33128Y12000*
X33140Y12016*
X33150Y12035*
X33156Y12057*
X33159Y12079*
X33162Y12107*
Y13102*
X34510Y14983D02*
X34743D01*
X34551Y14132*
X34324*
X34510Y14983*
X34529Y11937D02*
X34491D01*
X33824Y12646*
Y12107*
X33827Y12057*
X33846Y12019*
X33874Y11991*
X33912Y11978*
Y11950*
X33603*
Y11978*
X33641Y11994*
X33669Y12019*
X33685Y12060*
X33691Y12107*
Y12781*
X33685Y12831*
X33669Y12866*
X33641Y12894*
X33603Y12910*
Y12935*
X33887*
X34397Y12378*
Y12778*
X34391Y12828*
X34375Y12866*
X34346Y12894*
X34309Y12910*
Y12935*
X34617*
Y12910*
X34580Y12894*
X34551Y12866*
X34532Y12828*
X34529Y12778*
Y11937*
X34671Y15301D02*
X34699D01*
X34724Y15294*
X34746Y15285*
X34765Y15269*
X34778Y15254*
X34787Y15231*
X34794Y15206*
X34797Y15178*
X34794Y15146*
X34787Y15121*
X34778Y15099*
X34765Y15080*
X34746Y15068*
X34724Y15058*
X34699Y15052*
X34671Y15049*
X34639Y15052*
X34614Y15058*
X34592Y15068*
X34573Y15080*
X34557Y15099*
X34548Y15121*
X34542Y15146*
X34539Y15178*
X34542Y15206*
X34548Y15231*
X34557Y15254*
X34573Y15269*
X34592Y15285*
X34614Y15294*
X34639Y15301*
X34671*
X34872Y15083D02*
X34951D01*
X35024Y15080*
X35093Y15077*
X35153Y15071*
X35206Y15065*
X35254Y15055*
X35298Y15046*
X35332Y15033*
X35329Y14986*
Y14945*
X35326Y14907*
Y14879*
X35323Y14854*
Y14835*
Y14822*
Y14816*
Y14759*
X35329Y14709*
X35339Y14668*
X35351Y14630*
X35370Y14598*
X35392Y14576*
X35417Y14557*
X35449Y14545*
X35458Y14444*
Y14343*
X35452Y14271*
X35443Y14205*
X35433Y14142*
X35420Y14088*
X35339Y14057*
X35260Y14028*
X35200Y14000*
X35140Y13965*
X35077Y13931*
X35017Y13890*
X34957Y13843*
X34907Y13798*
X34863Y13748*
X34828Y13701*
X34800Y13650*
X34781Y13600*
X34769Y13550*
X34765Y13499*
X34769Y13436*
X34778Y13376*
X34791Y13326*
X34809Y13279*
X34772Y13257*
X34728Y13244*
X34683Y13241*
X34633*
X34576Y13247*
X34517Y13263*
X34463Y13288*
X34413Y13323*
X34362Y13367*
X34315Y13420*
X34268Y13480*
X34227Y13553*
X34145Y13723*
X34063Y13893*
X34041Y13931*
X34019Y13965*
X33997Y13994*
X33975Y14019*
X33953Y14038*
X33931Y14050*
X33906Y14057*
X33880Y14060*
X33846Y14057*
X33811Y14041*
X33776Y14016*
X33745Y13981*
X33713Y13943*
X33682Y13918*
X33654Y13902*
X33625Y13899*
X33603*
X33584Y13906*
X33562Y13915*
X33543Y13931*
X33524Y13946*
X33506Y13969*
X33487Y13994*
X33468Y14025*
X33452Y14060*
X33430Y14104*
X33405Y14157*
X33373Y14217*
X33367Y14230*
X33357Y14243*
X33342Y14261*
X33323Y14283*
X33301Y14306*
X33276Y14334*
X33244Y14365*
X33213Y14400*
X33184Y14428*
X33159Y14457*
X33137Y14485*
X33118Y14517*
X33106Y14548*
X33093Y14580*
X33087Y14611*
X33080Y14646*
X33704*
Y15531*
X34290*
Y15159*
X34312Y15140*
X34340Y15128*
X34381Y15115*
X34428Y15106*
X34365Y14809*
X34176*
X34113Y14545*
X34302*
X34236Y14220*
X34224Y14154*
X34217Y14094*
Y14044*
X34227Y13997*
X34239Y13959*
X34258Y13928*
X34280Y13899*
X34306Y13874*
X34334Y13858*
X34369Y13846*
X34409Y13836*
X34450*
X34526Y13839*
X34605Y13852*
X34687Y13871*
X34769Y13899*
X34828Y14129*
X34809Y14126*
X34787Y14123*
X34759Y14120*
X34724*
X34696Y14126*
X34677Y14139*
X34671Y14164*
X34674Y14198*
X34753Y14545*
X34942*
X34998Y14809*
X34809*
X34872Y15083*
X35093Y12954D02*
X35150Y12951D01*
X35203Y12945*
X35260Y12932*
X35313Y12917*
X35329*
X35335Y12923*
X35345Y12942*
X35351Y12948*
X35367Y12954*
X35439Y12715*
X35411Y12706*
X35383Y12737*
X35351Y12762*
X35320Y12784*
X35282Y12803*
X35241Y12819*
X35200Y12828*
X35156Y12835*
X35106*
X35061*
X35020Y12828*
X34986Y12819*
X34957Y12806*
X34935Y12787*
X34923Y12769*
X34913Y12743*
X34910Y12715*
Y12696*
X34920Y12680*
X34932Y12665*
X34948Y12649*
X34970Y12633*
X34998Y12620*
X35030Y12608*
X35068Y12598*
X35124Y12580*
X35175Y12564*
X35222Y12548*
X35260Y12535*
X35294Y12526*
X35323Y12513*
X35342Y12507*
X35357Y12498*
X35395Y12476*
X35427Y12450*
X35455Y12422*
X35477Y12391*
X35493Y12359*
X35506Y12321*
X35515Y12283*
Y12243*
Y12205*
X35509Y12170*
X35502Y12139*
X35490Y12110*
X35474Y12082*
X35455Y12057*
X35436Y12035*
X35411Y12013*
X35383Y11997*
X35351Y11981*
X35317Y11969*
X35279Y11956*
X35238Y11946*
X35194Y11943*
X35146Y11937*
X35093*
X35030Y11940*
X34964Y11946*
X34894Y11956*
X34822Y11972*
X34813Y11975*
X34803Y11972*
X34797Y11962*
X34791Y11950*
X34781Y11943*
X34762Y11937*
X34658Y12224*
X34690Y12236*
X34728Y12195*
X34769Y12157*
X34809Y12126*
X34857Y12101*
X34907Y12079*
X34961Y12066*
X35017Y12057*
X35077Y12054*
X35128Y12057*
X35172Y12063*
X35206Y12072*
X35238Y12088*
X35260Y12107*
X35279Y12129*
X35288Y12157*
X35291Y12189*
X35288Y12211*
X35282Y12230*
X35269Y12249*
X35254Y12268*
X35231Y12283*
X35206Y12299*
X35175Y12312*
X35140Y12324*
X35077Y12343*
X35024Y12359*
X34976Y12375*
X34939Y12387*
X34907Y12400*
X34882Y12406*
X34866Y12413*
X34857Y12419*
X34819Y12441*
X34787Y12463*
X34762Y12491*
X34740Y12520*
X34724Y12554*
X34712Y12589*
X34706Y12627*
X34702Y12665*
X34706Y12696*
X34709Y12728*
X34718Y12756*
X34731Y12784*
X34750Y12809*
X34769Y12831*
X34794Y12854*
X34819Y12876*
X34882Y12910*
X34945Y12935*
X35017Y12948*
X35093Y12954*
X35855Y12740D02*
X35852Y12775D01*
X35843Y12800*
X35827Y12813*
X35805Y12819*
X35742*
X35691Y12813*
X35654Y12809*
X35622Y12800*
X35600Y12787*
X35572Y12765*
X35543Y12737*
X35512Y12702*
X35483Y12709*
X35562Y12935*
X36375*
X36450Y12709*
X36428Y12702*
X36397Y12737*
X36365Y12765*
X36340Y12787*
X36318Y12800*
X36290Y12809*
X36252Y12813*
X36202Y12819*
X36142*
X36117Y12813*
X36098Y12800*
X36085Y12775*
X36082Y12740*
Y12107*
X36088Y12057*
X36104Y12019*
X36132Y11991*
X36173Y11978*
Y11950*
X35767*
Y11978*
X35808Y11994*
X35833Y12022*
X35852Y12060*
X35855Y12107*
Y12740*
X36712Y13417D02*
Y13389D01*
X36718Y13364*
X36724Y13342*
X36734Y13326*
X36750Y13310*
X36765Y13298*
X36784Y13291*
X36806Y13285*
Y13260*
X36378*
Y13285*
X36397Y13291*
X36416Y13298*
X36428Y13310*
X36441Y13326*
X36450Y13342*
X36457Y13364*
X36463Y13389*
Y13417*
Y14365*
X36457Y14391*
X36441Y14406*
X36413Y14416*
X36375Y14422*
X36331*
X36293Y14419*
X36258*
X36227*
X36198Y14416*
X36173Y14413*
X36154Y14409*
X36135Y14406*
X36098Y14397*
X36060Y14381*
X36028Y14359*
X36000Y14331*
X35978Y14340*
X36054Y14570*
X37124*
X37200Y14340*
X37172Y14331*
X37146Y14359*
X37115Y14381*
X37080Y14397*
X37043Y14406*
X37027Y14409*
X37005Y14413*
X36980Y14416*
X36951Y14419*
X36920*
X36885*
X36847Y14422*
X36806*
X36765Y14416*
X36734Y14406*
X36718Y14391*
X36712Y14365*
Y13417*
X36765Y12494D02*
X36904D01*
X36961Y12498*
X37008Y12504*
X37049Y12517*
X37083Y12535*
X37109Y12561*
X37128Y12589*
X37137Y12624*
X37143Y12661*
X37140Y12699*
X37131Y12731*
X37112Y12756*
X37090Y12778*
X37061Y12797*
X37027Y12809*
X36983Y12816*
X36935Y12819*
X36838*
X36806Y12813*
X36781Y12800*
X36769Y12775*
X36765Y12740*
Y12494*
X36967Y13260D02*
Y13285D01*
X37008Y13301*
X37033Y13329*
X37052Y13370*
X37055Y13420*
Y14091*
X37052Y14142*
X37033Y14180*
X37008Y14205*
X36967Y14217*
Y14246*
X37735*
X37808Y14038*
X37783Y14025*
X37764Y14047*
X37739Y14069*
X37710Y14088*
X37682Y14101*
X37650Y14113*
X37616Y14123*
X37578Y14126*
X37537Y14129*
X37348*
X37317Y14123*
X37294Y14110*
X37282Y14088*
X37276Y14057*
Y13839*
X37531*
X37559*
X37584Y13843*
X37606Y13849*
X37625Y13858*
X37638Y13868*
X37650Y13880*
X37657Y13896*
X37663Y13912*
X37688*
Y13647*
X37663*
X37657Y13663*
X37650Y13676*
X37638Y13688*
X37625Y13698*
X37606Y13704*
X37584Y13710*
X37559Y13713*
X37531*
X37276*
Y13452*
X37279Y13427*
X37282Y13408*
X37288Y13395*
X37294Y13389*
X37317Y13380*
X37348Y13376*
X37581*
X37625Y13380*
X37663Y13383*
X37701Y13392*
X37735Y13402*
X37767Y13417*
X37795Y13436*
X37820Y13455*
X37843Y13480*
X37865Y13471*
X37789Y13260*
X36967*
X36998Y12935D02*
X37083Y12932D01*
X37159Y12920*
X37222Y12901*
X37276Y12872*
X37313Y12838*
X37342Y12794*
X37361Y12743*
X37367Y12683*
X37361Y12636*
X37348Y12592*
X37329Y12554*
X37298Y12520*
X37260Y12491*
X37216Y12466*
X37159Y12447*
X37096Y12431*
X37131Y12416*
X37162Y12394*
X37194Y12369*
X37228Y12340*
X37257Y12306*
X37288Y12268*
X37320Y12224*
X37348Y12173*
X37373Y12132*
X37398Y12098*
X37420Y12066*
X37443Y12041*
X37465Y12022*
X37487Y12006*
X37506Y11997*
X37524*
Y11972*
X37493Y11959*
X37461Y11950*
X37427Y11943*
X37392*
X37354*
X37317Y11950*
X37285Y11959*
X37250Y11969*
X37222Y11984*
X37194Y12006*
X37169Y12028*
X37146Y12054*
X37115Y12113*
X37087Y12170*
X37058Y12220*
X37033Y12268*
X37017Y12296*
X36998Y12318*
X36983Y12334*
X36964Y12350*
X36942Y12362*
X36923Y12372*
X36901Y12375*
X36879Y12378*
X36765*
Y12107*
X36769Y12057*
X36787Y12019*
X36816Y11991*
X36854Y11978*
Y11950*
X36457*
Y11978*
X36494Y11991*
X36523Y12019*
X36539Y12057*
X36545Y12107*
Y12778*
X36539Y12828*
X36523Y12866*
X36494Y12894*
X36457Y12910*
Y12935*
X36998*
X38293Y13735D02*
X38009Y14110D01*
X37975Y14154*
X37937Y14186*
X37902Y14208*
X37865Y14217*
Y14246*
X38324*
Y14217*
X38299Y14214*
X38280Y14202*
X38271Y14186*
X38265Y14164*
X38271Y14135*
X38290Y14104*
X38422Y13906*
X38583Y14123*
X38595Y14139*
X38602Y14157*
X38605Y14170*
X38602Y14186*
X38595Y14198*
X38586Y14208*
X38570Y14214*
X38551Y14217*
Y14246*
X38917*
Y14217*
X38869Y14205*
X38828Y14186*
X38787Y14154*
X38750Y14113*
X38513Y13795*
X38791Y13392*
X38825Y13351*
X38863Y13313*
X38872Y13326*
X38882Y13339*
X38894Y13357*
X38907Y13380*
X38923Y13405*
X38939Y13430*
X38954Y13461*
X38973Y13496*
X39291Y14246*
X39477*
X39833Y13398*
X39855Y13354*
X39883Y13323*
X39918Y13298*
X39959Y13285*
Y13257*
X39531*
Y13285*
X39562Y13288*
X39581Y13301*
X39594Y13320*
X39600Y13348*
X39594Y13373*
X39584Y13405*
X39531Y13537*
X39121*
X39065Y13398*
X39058Y13373*
X39055Y13348*
X39061Y13320*
X39074Y13301*
X39096Y13288*
X39128Y13285*
Y13257*
X38488*
Y13285*
X38517Y13288*
X38535Y13298*
X38548Y13317*
X38551Y13339*
X38548Y13370*
X38529Y13405*
X38378Y13613*
X38208Y13386*
X38192Y13354*
X38186Y13329*
X38189Y13310*
X38198Y13294*
X38214Y13288*
X38239Y13285*
Y13257*
X37865*
Y13285*
X37915Y13298*
X37962Y13323*
X38003Y13357*
X38047Y13408*
X38293Y13735*
X38400Y12277D02*
X38397Y12233D01*
X38391Y12189*
X38378Y12151*
X38362Y12113*
X38340Y12079*
X38315Y12050*
X38283Y12022*
X38249Y12000*
X38189Y11969*
X38123Y11950*
X38054Y11937*
X37975Y11934*
X37893Y11937*
X37817Y11950*
X37748Y11969*
X37685Y12000*
X37647Y12022*
X37616Y12050*
X37591Y12082*
X37569Y12113*
X37550Y12151*
X37537Y12189*
X37531Y12233*
X37528Y12277*
Y12778*
X37521Y12828*
X37506Y12869*
X37477Y12894*
X37439Y12910*
Y12935*
X37839*
Y12910*
X37798Y12894*
X37770Y12869*
X37754Y12828*
X37748Y12778*
Y12277*
X37751Y12227*
X37764Y12180*
X37786Y12142*
X37811Y12110*
X37849Y12085*
X37893Y12069*
X37943Y12057*
X38003Y12054*
X38066Y12057*
X38120Y12069*
X38167Y12085*
X38205Y12110*
X38233Y12142*
X38252Y12180*
X38265Y12227*
X38271Y12277*
Y12778*
X38265Y12828*
X38246Y12866*
X38217Y12894*
X38180Y12910*
Y12935*
X38488*
Y12910*
X38450Y12894*
X38422Y12866*
X38403Y12828*
X38400Y12778*
Y12277*
X39329Y14054D02*
X39172Y13654D01*
X39487*
X39329Y14054*
X39729Y12107D02*
X39735Y12057D01*
X39754Y12016*
X39783Y11991*
X39824Y11975*
Y11950*
X39417*
Y11975*
X39439Y11981*
X39458Y11987*
X39474Y12000*
X39487Y12016*
X39496Y12031*
X39502Y12054*
X39509Y12079*
Y12107*
Y12580*
X39150Y11931*
X39128*
X38759Y12595*
Y12107*
X38765Y12057*
X38781Y12016*
X38813Y11991*
X38854Y11975*
Y11950*
X38545*
Y11975*
X38564Y11981*
X38583Y11987*
X38595Y12000*
X38608Y12016*
X38617Y12031*
X38624Y12054*
X38627Y12079*
X38630Y12107*
Y12778*
X38624Y12828*
X38608Y12866*
X38583Y12894*
X38545Y12907*
Y12935*
X38857*
X39184Y12287*
X39550Y12935*
X39820*
Y12907*
X39780Y12894*
X39751Y12866*
X39735Y12828*
X39729Y12778*
Y12107*
X39934Y11950D02*
Y11975D01*
X39953Y11981*
X39972Y11991*
X39987Y12003*
X40000Y12019*
X40016Y12060*
X40022Y12110*
Y12778*
X40016Y12828*
X40000Y12866*
X39972Y12894*
X39934Y12907*
Y12935*
X40699*
X40778Y12724*
X40750Y12712*
X40728Y12737*
X40706Y12759*
X40677Y12778*
X40649Y12791*
X40617Y12803*
X40583Y12809*
X40548Y12816*
X40507Y12819*
X40315*
X40283Y12813*
X40265Y12797*
X40252Y12775*
X40246Y12740*
Y12529*
X40498*
X40526*
X40551Y12535*
X40570Y12539*
X40589Y12548*
X40605Y12557*
X40614Y12570*
X40624Y12586*
X40627Y12602*
X40655*
Y12331*
X40627*
X40624Y12346*
X40614Y12362*
X40605Y12375*
X40589Y12384*
X40570Y12394*
X40551Y12400*
X40526Y12403*
X40498*
X40246*
Y12142*
X40249Y12120*
X40252Y12101*
X40255Y12088*
X40261Y12079*
X40283Y12069*
X40315Y12066*
X40548*
X40589*
X40630Y12072*
X40668Y12079*
X40702Y12091*
X40734Y12104*
X40762Y12123*
X40787Y12145*
X40809Y12170*
X40831Y12161*
X40759Y11950*
X39934*
X40372Y14258D02*
X40431Y14255D01*
X40488Y14249*
X40542Y14236*
X40598Y14220*
X40611*
X40617Y14230*
X40624Y14246*
X40630*
X40646Y14252*
X40721Y14019*
X40696Y14009*
X40668Y14041*
X40633Y14066*
X40598Y14088*
X40561Y14107*
X40523Y14123*
X40479Y14132*
X40435Y14139*
X40384Y14142*
X40340Y14139*
X40299Y14132*
X40265Y14123*
X40239Y14110*
X40217Y14094*
X40202Y14072*
X40192Y14047*
X40189Y14019*
X40192Y14003*
X40198Y13984*
X40211Y13969*
X40227Y13953*
X40249Y13940*
X40277Y13924*
X40309Y13915*
X40346Y13902*
X40403Y13887*
X40454Y13871*
X40498Y13855*
X40535Y13843*
X40570Y13830*
X40598Y13820*
X40620Y13811*
X40639Y13805*
X40674Y13780*
X40706Y13754*
X40734Y13726*
X40756Y13694*
X40772Y13663*
X40784Y13625*
X40794Y13587*
Y13546*
Y13509*
X40787Y13474*
X40781Y13443*
X40769Y13411*
X40753Y13386*
X40737Y13361*
X40715Y13339*
X40690Y13317*
X40661Y13298*
X40630Y13282*
X40595Y13269*
X40557Y13260*
X40517Y13250*
X40472Y13244*
X40422Y13241*
X40372*
X40302Y13244*
X40236Y13250*
X40170Y13260*
X40101Y13276*
X40091Y13279*
X40082Y13276*
X40076Y13266*
X40072Y13254*
X40069Y13250*
X40063Y13247*
X40054Y13244*
X40038Y13241*
X39937Y13528*
X39965Y13540*
X40003Y13499*
X40044Y13461*
X40088Y13430*
X40135Y13402*
X40186Y13383*
X40239Y13367*
X40296Y13361*
X40353Y13357*
X40403*
X40447Y13364*
X40485Y13376*
X40517Y13392*
X40539Y13411*
X40557Y13433*
X40567Y13461*
X40570Y13493*
X40567Y13515*
X40561Y13534*
X40548Y13553*
X40532Y13572*
X40510Y13587*
X40485Y13603*
X40454Y13616*
X40416Y13628*
X40356Y13647*
X40302Y13663*
X40255Y13679*
X40214Y13691*
X40183Y13704*
X40161Y13710*
X40142Y13717*
X40132Y13723*
X40098Y13742*
X40066Y13767*
X40041Y13795*
X40019Y13824*
X40003Y13855*
X39991Y13890*
X39984Y13928*
X39981Y13969*
X39984Y14000*
X39987Y14031*
X39997Y14060*
X40009Y14085*
X40025Y14110*
X40047Y14135*
X40069Y14157*
X40098Y14180*
X40157Y14214*
X40224Y14236*
X40296Y14252*
X40372Y14258*
X41783Y11937D02*
X41748D01*
X41083Y12646*
Y12107*
X41090Y12057*
X41106Y12016*
X41134Y11991*
X41172Y11975*
Y11950*
X40863*
Y11975*
X40882Y11981*
X40901Y11987*
X40917Y12000*
X40929Y12016*
X40939Y12031*
X40948Y12054*
X40951Y12079*
Y12107*
Y12781*
X40948Y12828*
X40929Y12866*
X40901Y12891*
X40863Y12907*
Y12935*
X41146*
X41654Y12378*
Y12778*
X41647Y12828*
X41631Y12866*
X41603Y12891*
X41565Y12907*
Y12935*
X41877*
Y12907*
X41836Y12891*
X41808Y12866*
X41789Y12828*
X41783Y12778*
Y11937*
X42252Y12740D02*
X42249Y12775D01*
X42236Y12797*
X42217Y12813*
X42192Y12819*
X42132Y12816*
X42085Y12813*
X42044Y12806*
X42016Y12800*
X41991Y12787*
X41962Y12765*
X41934Y12737*
X41899Y12702*
X41877Y12709*
X41956Y12935*
X42769*
X42844Y12709*
X42822Y12702*
X42791Y12737*
X42759Y12765*
X42734Y12787*
X42709Y12800*
X42680Y12806*
X42643Y12813*
X42592Y12816*
X42535Y12819*
X42507Y12813*
X42488Y12797*
X42476Y12775*
X42472Y12740*
Y12107*
X42479Y12057*
X42494Y12019*
X42526Y11994*
X42567Y11975*
Y11950*
X42161*
Y11975*
X42202Y11994*
X42230Y12019*
X42246Y12057*
X42252Y12107*
Y12740*
X43276Y12951D02*
X43332D01*
X43389Y12945*
X43446Y12932*
X43499Y12917*
X43512*
X43518Y12923*
X43524Y12932*
X43528Y12942*
X43537Y12948*
X43550Y12951*
X43622Y12712*
X43597Y12706*
X43569Y12737*
X43537Y12762*
X43502Y12784*
X43465Y12803*
X43427Y12816*
X43383Y12828*
X43339Y12831*
X43288Y12835*
X43244*
X43203Y12828*
X43169Y12819*
X43140Y12803*
X43118Y12787*
X43106Y12765*
X43096Y12740*
X43093Y12712*
Y12696*
X43102Y12677*
X43115Y12661*
X43131Y12649*
X43153Y12633*
X43181Y12620*
X43213Y12608*
X43250Y12595*
X43307Y12580*
X43357Y12564*
X43402Y12548*
X43443Y12535*
X43477Y12523*
X43502Y12513*
X43524Y12504*
X43540Y12498*
X43578Y12476*
X43609Y12450*
X43638Y12422*
X43660Y12391*
X43676Y12356*
X43688Y12321*
X43694Y12283*
X43698Y12243*
Y12205*
X43691Y12170*
X43685Y12139*
X43672Y12107*
X43657Y12082*
X43638Y12057*
X43619Y12031*
X43594Y12013*
X43565Y11994*
X43534Y11978*
X43499Y11965*
X43461Y11956*
X43420Y11946*
X43376Y11940*
X43326Y11937*
X43276*
X43213*
X43146Y11943*
X43077Y11956*
X43008Y11972*
X42998*
X42989Y11969*
X42980Y11962*
X42976Y11950*
X42964Y11943*
X42945Y11937*
X42841Y12224*
X42872Y12236*
X42910Y12192*
X42951Y12154*
X42992Y12123*
X43039Y12098*
X43090Y12079*
X43143Y12063*
X43200Y12057*
X43260Y12054*
X43310*
X43354Y12060*
X43389Y12072*
X43420Y12085*
X43443Y12104*
X43461Y12129*
X43471Y12157*
X43474Y12189*
X43471Y12208*
X43465Y12230*
X43452Y12249*
X43436Y12265*
X43414Y12280*
X43389Y12296*
X43357Y12309*
X43323Y12321*
X43263Y12340*
X43209Y12359*
X43162Y12372*
X43124Y12387*
X43093Y12397*
X43068Y12406*
X43049Y12413*
X43039Y12416*
X43002Y12438*
X42970Y12463*
X42945Y12488*
X42923Y12520*
X42907Y12551*
X42894Y12586*
X42888Y12624*
X42885Y12665*
X42888Y12696*
X42891Y12728*
X42901Y12756*
X42913Y12781*
X42932Y12806*
X42951Y12831*
X42976Y12854*
X43002Y12872*
X43065Y12907*
X43131Y12932*
X43200Y12948*
X43276Y12951*
G54D14*
X8071Y18563D02*
X1535D01*
X522Y19577*
Y27411*
X2539Y29429*
Y32766*
X2746Y32972*
X12638*
X16664Y19636D02*
X17569D01*
X16714Y16289D02*
X17569D01*
X16714Y17175D02*
X17569D01*
Y13829D02*
X16714D01*
X27165Y20472D02*
X30650Y23957D01*
Y30148*
X27825Y32972*
X12638*
G54D15*
X1014Y12067D02*
X1417Y12470D01*
Y14262*
X1801Y14646*
X8937*
X9449Y15157*
Y15886*
X9803Y16240*
X9824*
X1142Y4656D02*
X1309D01*
X1378Y4724*
Y5383*
X1772Y3140D02*
X768D01*
X482Y3425*
Y11083*
X1713Y12313*
Y14094*
X2047Y14429*
X9075*
X9685Y15039*
Y15354*
X9824*
X2402Y4656D02*
Y4055D01*
X3543Y2913*
Y2904*
X3031Y12047D02*
Y12057D01*
X3543Y1904D02*
X3539Y1900D01*
X3022*
X1781Y3140*
X1772*
X4349Y26083D02*
X3031D01*
X5099Y7382D02*
X5679D01*
X6024Y7726*
Y13337*
X6870Y14183*
X9222*
X10876Y15837*
X11457*
X5099Y26083D02*
X5098D01*
Y23917*
X5512Y23504*
Y22874*
X5335Y22697*
Y20374*
X5866Y19843*
X10069*
X10689Y19222*
Y18219*
X5592Y2904D02*
X6693D01*
Y4360*
X7657Y5325*
Y6033*
X6250Y7441*
Y10276*
X6368Y10394*
X6624*
X6703Y10472*
Y12992*
X7382Y13671*
X9498*
X10896Y15069*
X11457*
X7037Y5659D02*
X5030D01*
X4252Y4882*
Y2087*
X4065Y1900*
X3547*
X3543Y1904*
X7037Y27805D02*
Y27795D01*
X6506Y27264*
Y21319*
X7530Y20295*
X10315*
X10955Y19656*
Y18219*
X11033Y18140*
X11457*
X7037Y27805D02*
X7047D01*
X7461Y28219*
X9222*
X9301Y28297*
Y31758*
X9843Y32299*
X8071Y17264D02*
Y17263D01*
X9824Y16240D02*
X10364D01*
X10472Y16348*
X11457*
X9824Y16978D02*
X9803D01*
X9390Y17392*
X8760*
X8632Y17264*
X8071*
X9824Y18996D02*
X9852D01*
X10226Y18622*
Y17687*
X10541Y17372*
X11457*
X9941Y27805D02*
X8031D01*
X6821Y26594*
Y21457*
X7677Y20600*
X10413*
X11230Y19783*
Y18809*
X11457Y18583*
Y18396*
X9941Y27805D02*
Y28968D01*
X9960Y28986*
X9843*
Y31299*
X11457Y15581D02*
X10974D01*
X9311Y13917*
X7067*
X6358Y13209*
Y10748*
X11457Y16093D02*
X10876D01*
X10256Y15472*
X9824*
Y15354*
X11457Y16860D02*
X10266D01*
X10148Y16978*
X9824*
X11457Y17628D02*
X10787D01*
X10463Y17953*
Y18907*
X9793Y19577*
X5748*
X5098Y20226*
Y23130*
X5099*
X11811Y31841D02*
X11142D01*
X10600Y31299*
X9843*
X12638Y32972D02*
X12608Y32943D01*
Y31663*
X12323Y31378*
X11053*
X10710Y31034*
Y28986*
X14862Y16545D02*
X14646D01*
X14587Y16604*
X13839*
X14862Y16929D02*
X14646D01*
X14577Y16860*
X13839*
G54D16*
X16526Y10089D02*
X16535Y10098D01*
Y12451*
X16526Y23376D02*
X16535Y23366D01*
Y21014*
X27165Y20472D02*
X30207Y17431D01*
Y12077*
X28219Y10089*
X16526*
X27165Y20472D02*
X24262Y23376D01*
X16526*
G54D17*
X650Y12638D02*
Y14951D01*
X1939Y16240*
X5177*
X6201Y17264*
X8071*
X1575Y8858D02*
X3051Y7382D01*
X1575Y8858D02*
Y10591D01*
X3031Y12047*
X1575Y24606D02*
Y24596D01*
X3031Y23140*
Y23130*
Y21555*
X3051Y7382D02*
X3031D01*
X4349D02*
X3051D01*
X4349Y10335D02*
X3031D01*
X4349Y23130D02*
X3031D01*
X4843Y3543D02*
Y2904D01*
X5099Y10335D02*
X5610D01*
X9074Y18996D02*
X8248D01*
X8071Y18819*
Y18563*
X9074Y18996D02*
X9075D01*
Y17913*
X9074*
G54D18*
X9824D02*
X9961D01*
Y17608*
X10453Y17116*
X10472*
X13839Y15837D02*
X14311D01*
X14616Y15531*
Y15246*
X13839Y16348D02*
X14528D01*
X14656Y16220*
X14774*
X13839Y17116D02*
X14518D01*
X14646Y17244*
X14793*
X13839Y17628D02*
X14341D01*
X14577Y17864*
Y18150*
X14862Y16535D02*
Y16545D01*
G54D19*
X669Y2559D03*
X728Y16752D03*
X1240Y30512D03*
X1713Y21122D03*
X2106Y6161D03*
X2303Y27480D03*
X2559Y15354D03*
X2618Y984D03*
X3287Y4823D03*
X3406Y24587D03*
X3425Y8819D03*
X4134Y21083D03*
X4193Y16772D03*
X4744Y11949D03*
X4980Y29311D03*
X5059Y32244D03*
X5079Y1713D03*
Y13760D03*
X5728Y24980D03*
X5846Y6476D03*
X6063Y20610D03*
X7185Y9449D03*
X7559Y12854D03*
X7795Y10945D03*
X7913Y32087D03*
X7992Y15886D03*
X8110Y21024D03*
X8563Y787D03*
X8681Y25748D03*
X9016Y6398D03*
X9193Y23563D03*
X9508Y12343D03*
X10118Y10335D03*
X10689Y5689D03*
X10709Y25079D03*
X11122Y14350D03*
X11181Y21063D03*
X11201Y32402D03*
X11240Y11654D03*
X11555Y13406D03*
X11673Y22126D03*
X11909Y709D03*
X12205Y28898D03*
X12303Y8366D03*
X12638Y13957D03*
Y14449D03*
Y19055D03*
Y19587D03*
Y20315D03*
X12776Y25453D03*
X13248Y23366D03*
X13366Y21831D03*
X13386Y10098D03*
X13583Y13976D03*
X13602Y19488D03*
Y20472D03*
X14350Y32500D03*
X14744Y10827D03*
X14764Y9311D03*
Y24016D03*
X14862Y22756D03*
X15039Y15591D03*
Y17894D03*
X15079Y7618D03*
X15157Y25728D03*
X15413Y15394D03*
Y18071D03*
X16161Y5768D03*
X16319Y28031D03*
X16654Y7894D03*
X17047Y945D03*
Y27697D03*
X17067Y32382D03*
X17559Y11220D03*
Y12362D03*
Y18406D03*
X17579Y15059D03*
X17618Y22303D03*
X17874Y21102D03*
X18346Y6378D03*
X18386Y27087D03*
X18661Y24882D03*
X18681Y8563D03*
Y21535D03*
X18799Y12087D03*
X19508Y21811D03*
X19547Y20846D03*
X19587Y11555D03*
X19941Y12972D03*
X20492Y16752D03*
X22028D03*
X22264Y24823D03*
X22520Y7854D03*
X23307Y689D03*
X23366Y2972D03*
X23465Y30531D03*
X23563Y32402D03*
X23661Y27854D03*
X24016Y5709D03*
X24173Y20689D03*
X24272Y13799D03*
Y16614D03*
X24370Y11516D03*
X25531Y24291D03*
X25571Y9094D03*
X25787Y6378D03*
X25846Y27106D03*
X26831Y16457D03*
X28622Y23937D03*
X28799Y610D03*
Y16535D03*
X28819Y25984D03*
X29272Y7913D03*
X30453Y19429D03*
X30512Y2972D03*
X30591Y21969D03*
X30630Y10256D03*
G54D20*
X14862Y16535D03*
Y16929D03*
G54D21*
X15413Y14055D03*
Y14567D03*
Y15984D03*
Y16457D03*
Y17028D03*
Y17500D03*
Y18917D03*
Y19390D03*
X19252Y13602D03*
Y14114D03*
Y15827D03*
Y16358D03*
Y17106D03*
Y17579D03*
Y19409D03*
Y19882D03*
G54D22*
X11811Y31841D03*
X13386D03*
X17569Y13829D03*
Y14616D03*
Y15502D03*
Y16289D03*
Y17175D03*
Y17963D03*
Y18848D03*
Y19636D03*
G54D23*
X3031Y12057D03*
Y21555D03*
X3543Y2904D03*
Y31299D03*
X6693Y2904D03*
Y31299D03*
X9843D03*
X21014Y13106D03*
Y20374D03*
X22933Y13106D03*
Y20374D03*
G54D24*
X3031Y13057D03*
Y20555D03*
X3543Y1904D03*
Y32299D03*
X6693Y1904D03*
Y32299D03*
X9843D03*
X21014Y12106D03*
Y21374D03*
X22933Y12106D03*
Y21374D03*
G54D25*
X4349Y7382D03*
Y10335D03*
Y23130D03*
Y26083D03*
X4842Y2904D03*
X5099Y7382D03*
Y10335D03*
Y23130D03*
Y26083D03*
X5592Y2904D03*
X9074Y15354D03*
Y16240D03*
Y16978D03*
Y17913D03*
Y18996D03*
X9824Y15354D03*
Y16240D03*
Y16978D03*
Y17913D03*
Y18996D03*
X9960Y28986D03*
X10710D03*
X13601Y13632D03*
Y14321D03*
Y19144D03*
Y19833D03*
X14351Y13632D03*
Y14321D03*
Y19144D03*
Y19833D03*
X15914Y19636D03*
X15964Y13829D03*
Y16289D03*
Y17175D03*
X16664Y19636D03*
X16714Y13829D03*
Y16289D03*
Y17175D03*
X18523Y14616D03*
Y15305D03*
Y18159D03*
Y18848D03*
X19273Y14616D03*
Y15305D03*
Y18159D03*
Y18848D03*
G54D26*
X1772Y3140D03*
G54D27*
X2402Y4656D03*
G54D28*
X1142D03*
G54D29*
X1378Y5383D03*
Y6133D03*
G54D30*
X1575Y8858D03*
Y24606D03*
X3031Y7382D03*
Y10335D03*
Y23130D03*
Y26083D03*
G54D31*
X1181Y1181D03*
Y32283D03*
X30315Y1181D03*
Y32283D03*
G54D32*
X14439Y10089D03*
Y23376D03*
X16526Y10089D03*
Y23376D03*
G54D33*
X14567Y12451D03*
Y21014D03*
X16535Y12451D03*
Y21014D03*
G54D34*
X21014Y14461D03*
Y18004D03*
G54D35*
Y15461D03*
Y19004D03*
G54D36*
X12648Y16732D03*
G54D37*
X11457Y15069D03*
Y15325D03*
Y15581D03*
Y15837D03*
Y16093D03*
Y16348D03*
Y16604D03*
Y16860D03*
Y17116D03*
Y17372D03*
Y17628D03*
Y17884D03*
Y18140D03*
Y18396D03*
X13839Y15069D03*
Y15325D03*
Y15581D03*
Y15837D03*
Y16093D03*
Y16348D03*
Y16604D03*
Y16860D03*
Y17116D03*
Y17372D03*
Y17628D03*
Y17884D03*
Y18140D03*
Y18396D03*
G54D38*
X8071Y17263D03*
Y18563D03*
G54D70*
X8622Y16575D03*
X8898Y15807D03*
X29390Y28878D03*
G54D71*
X650Y12638D03*
X827Y17913D03*
X1004Y12067D03*
X1102Y19508D03*
X4843Y3543D03*
X5610Y10335D03*
X6358Y10748D03*
X14882Y14665D03*
Y18799D03*
G54D72*
X6742Y15846D03*
X7037Y5659D03*
Y27805D03*
X9941D03*
X14321Y5659D03*
Y27805D03*
X22343Y5659D03*
Y27805D03*
X29724D03*
X29823Y5659D03*
G54D73*
X19685Y2953D03*
Y30512D03*
X27165Y2953D03*
Y30512D03*
Y12992D03*
Y20472D03*
M02*
