*
G04 Job   : X:\EvmBoards\TPA3110D2\TPA3110D2EVM\PCB_Layout\TPA3110D2EVM.pcb*
G04 User  : DTA0209011:a0209011*
G04 Layer : TopSolderMask.gbr*
G04 Date  : Thu Mar 12 13:10:39 2009*
G04 Mentor Graphics Example Gerber Output Definition*
%ICAS*%
%MOIN*%
%FSLAX24Y24*%
%OFA0.0000B0.0000*%
G90*
G74*
%AMVB_RECTANGLE*
21,1,$1,$2,0,0,$3*
%
%AMVB_Custom_1.2x1.2mm Chamfer*
4,1,5,0.0000,0.0000,0.0472,0.0000,0.0472,0.0354,0.0354,0.0472,0.0000,0.0472,0.0000,0.0000,$1*
%
%ADD11C,0.00394*%
%ADD12C,0.00591*%
%ADD13C,0.00984*%
%ADD10C,0.01000*%
%ADD15C,0.01300*%
%ADD14C,0.01400*%
%ADD30C,0.02000*%
%ADD16C,0.04000*%
%ADD17C,0.05000*%
%ADD70C,0.07400*%
%ADD72C,0.07500*%
%ADD24C,0.08000*%
%ADD26C,0.14900*%
%ADD27C,0.20000*%
%ADD25C,0.37500*%
%ADD19VB_RECTANGLE,0.07400X0.07400X180.00000*%
%ADD73VB_RECTANGLE,0.07500X0.07500X270.00000*%
%ADD32VB_RECTANGLE,0.01200X0.06000X90.00000*%
%ADD28VB_RECTANGLE,0.03937X0.14567X270.00000*%
%ADD71VB_RECTANGLE,0.04000X0.03500X0.00000*%
%ADD23VB_RECTANGLE,0.04000X0.03500X270.00000*%
%ADD18VB_RECTANGLE,0.05000X0.06000X270.00000*%
%ADD20VB_RECTANGLE,0.06299X0.05906X180.00000*%
%ADD33VB_RECTANGLE,0.07100X0.07900X270.00000*%
%ADD31VB_RECTANGLE,0.09843X0.19685X0.00000*%
%ADD29VB_RECTANGLE,0.14000X0.07000X270.00000*%
%ADD21VB_Custom_1.2x1.2mm Chamfer,180.00000*%
%ADD22VB_Custom_1.2x1.2mm Chamfer,270.00000*%
G01*
G36*
X12156Y15748D02*
X13140D01*
Y17717*
X12156*
Y15748*
G37*
G54D10*
X0Y0D02*
X31496D01*
Y33465*
X0*
Y0*
G54D11*
X5187Y-1073D02*
X5076Y-775D01*
X4967Y-1073*
X5187*
X5487Y-1392D02*
X5309D01*
X5239Y-1209*
X4917*
X4850Y-1392*
X4678*
X4991Y-587*
X5165*
X5487Y-1392*
X5572Y-587D02*
X5735D01*
Y-1023*
Y-1047*
Y-1070*
Y-1090*
X5736Y-1108*
X5737Y-1124*
X5738Y-1137*
X5739Y-1148*
X5741Y-1157*
X5744Y-1169*
X5748Y-1180*
X5753Y-1191*
X5758Y-1202*
X5765Y-1211*
X5772Y-1220*
X5781Y-1228*
X5791Y-1236*
X5801Y-1243*
X5812Y-1250*
X5824Y-1254*
X5836Y-1259*
X5850Y-1262*
X5865Y-1265*
X5880*
X5897Y-1266*
X5914Y-1265*
X5930*
X5944Y-1262*
X5957Y-1259*
X5970Y-1255*
X5982Y-1250*
X5992Y-1245*
X6001Y-1238*
X6009Y-1231*
X6017Y-1223*
X6024Y-1215*
X6029Y-1206*
X6034Y-1198*
X6038Y-1188*
X6041Y-1179*
X6043Y-1169*
X6045Y-1157*
X6046Y-1145*
X6048Y-1130*
X6049Y-1114*
X6050Y-1096*
Y-1076*
Y-1055*
Y-1031*
Y-587*
X6213*
Y-1009*
Y-1045*
Y-1077*
X6212Y-1106*
X6210Y-1133*
X6208Y-1157*
X6206Y-1180*
X6203Y-1198*
X6200Y-1214*
X6192Y-1243*
X6182Y-1269*
X6168Y-1294*
X6152Y-1316*
X6132Y-1335*
X6110Y-1353*
X6085Y-1368*
X6057Y-1381*
X6042Y-1387*
X6025Y-1392*
X6007Y-1396*
X5989Y-1399*
X5969Y-1402*
X5948Y-1404*
X5925Y-1406*
X5902*
X5874*
X5848Y-1404*
X5824Y-1402*
X5801Y-1399*
X5780Y-1395*
X5761Y-1391*
X5743Y-1385*
X5728Y-1379*
X5699Y-1365*
X5674Y-1348*
X5652Y-1330*
X5633Y-1309*
X5617Y-1288*
X5605Y-1266*
X5594Y-1243*
X5587Y-1220*
X5583Y-1202*
X5580Y-1182*
X5578Y-1159*
X5576Y-1135*
X5574Y-1108*
X5572Y-1080*
Y-1049*
Y-1017*
Y-587*
X6384D02*
X6682D01*
X6706*
X6729*
X6750Y-589*
X6770Y-591*
X6789Y-593*
X6806Y-595*
X6821Y-598*
X6835Y-602*
X6853Y-608*
X6869Y-614*
X6885Y-622*
X6901Y-631*
X6916Y-641*
X6930Y-652*
X6943Y-664*
X6957Y-676*
X6980Y-705*
X7001Y-735*
X7019Y-769*
X7034Y-807*
X7039Y-827*
X7045Y-847*
X7050Y-870*
X7054Y-893*
X7056Y-917*
X7058Y-943*
X7060Y-969*
Y-997*
Y-1021*
X7058Y-1045*
X7057Y-1068*
X7054Y-1090*
X7050Y-1111*
X7046Y-1131*
X7041Y-1150*
X7035Y-1169*
X7027Y-1190*
X7018Y-1210*
X7009Y-1230*
X6998Y-1248*
X6987Y-1265*
X6976Y-1282*
X6962Y-1297*
X6949Y-1311*
X6938Y-1321*
X6926Y-1331*
X6913Y-1339*
X6899Y-1347*
X6884Y-1355*
X6869Y-1362*
X6852Y-1369*
X6835Y-1375*
X6820Y-1379*
X6806Y-1383*
X6789Y-1386*
X6772Y-1388*
X6753Y-1390*
X6733Y-1391*
X6713Y-1392*
X6691*
X6384*
Y-587*
X6547Y-723D02*
Y-1256D01*
X6669*
X6685*
X6701Y-1255*
X6715*
X6728Y-1254*
X6739Y-1253*
X6750Y-1252*
X6759Y-1250*
X6767Y-1248*
X6787Y-1243*
X6803Y-1235*
X6819Y-1226*
X6833Y-1215*
X6839Y-1209*
X6846Y-1201*
X6851Y-1193*
X6857Y-1183*
X6862Y-1173*
X6867Y-1162*
X6872Y-1150*
X6876Y-1137*
X6880Y-1123*
X6883Y-1108*
X6886Y-1091*
X6888Y-1073*
X6890Y-1054*
X6891Y-1034*
X6892Y-1013*
Y-990*
Y-967*
X6891Y-946*
X6890Y-926*
X6888Y-907*
X6886Y-890*
X6883Y-874*
X6880Y-860*
X6876Y-846*
X6867Y-823*
X6856Y-802*
X6843Y-784*
X6829Y-769*
X6813Y-756*
X6796Y-745*
X6776Y-737*
X6754Y-731*
X6745Y-729*
X6733Y-728*
X6719Y-726*
X6704Y-725*
X6686Y-724*
X6666*
X6644Y-723*
X6620*
X6547*
X7193Y-1392D02*
Y-587D01*
X7356*
Y-1392*
X7193*
X7477Y-994D02*
X7478Y-965D01*
X7480Y-935*
X7483Y-908*
X7487Y-881*
X7491Y-856*
X7498Y-832*
X7506Y-809*
X7514Y-788*
X7529Y-758*
X7546Y-730*
X7567Y-703*
X7589Y-678*
X7601Y-666*
X7613Y-655*
X7626Y-645*
X7639Y-635*
X7665Y-619*
X7693Y-605*
X7713Y-598*
X7732Y-591*
X7753Y-586*
X7774Y-581*
X7796Y-578*
X7819Y-576*
X7843Y-574*
X7867Y-573*
X7889Y-574*
X7910Y-575*
X7931Y-577*
X7952Y-580*
X7972Y-584*
X7991Y-589*
X8009Y-594*
X8028Y-601*
X8045Y-608*
X8062Y-617*
X8078Y-625*
X8094Y-635*
X8109Y-646*
X8124Y-657*
X8139Y-670*
X8152Y-683*
X8165Y-698*
X8177Y-713*
X8188Y-728*
X8199Y-744*
X8209Y-761*
X8217Y-779*
X8225Y-797*
X8232Y-816*
X8239Y-835*
X8244Y-855*
X8249Y-876*
X8253Y-898*
X8255Y-920*
X8257Y-943*
X8259Y-966*
Y-991*
Y-1014*
X8257Y-1038*
X8255Y-1061*
X8253Y-1083*
X8249Y-1104*
X8244Y-1124*
X8239Y-1145*
X8232Y-1165*
X8225Y-1183*
X8217Y-1201*
X8209Y-1218*
X8199Y-1235*
X8189Y-1251*
X8178Y-1267*
X8166Y-1281*
X8153Y-1295*
X8139Y-1309*
X8125Y-1321*
X8111Y-1333*
X8095Y-1343*
X8080Y-1354*
X8063Y-1362*
X8046Y-1371*
X8029Y-1378*
X8011Y-1384*
X7992Y-1390*
X7973Y-1394*
X7954Y-1398*
X7933Y-1402*
X7913Y-1404*
X7891Y-1405*
X7869Y-1406*
X7847Y-1405*
X7825Y-1404*
X7805Y-1402*
X7784Y-1398*
X7764Y-1394*
X7745Y-1390*
X7726Y-1384*
X7708Y-1378*
X7691Y-1371*
X7673Y-1363*
X7657Y-1354*
X7641Y-1344*
X7626Y-1333*
X7611Y-1322*
X7597Y-1309*
X7583Y-1296*
X7570Y-1282*
X7558Y-1268*
X7547Y-1252*
X7537Y-1236*
X7528Y-1220*
X7519Y-1202*
X7511Y-1184*
X7504Y-1166*
X7498Y-1146*
X7492Y-1127*
X7487Y-1106*
X7483Y-1085*
X7481Y-1064*
X7479Y-1041*
X7478Y-1018*
X7477Y-994*
X7645Y-989D02*
X7646Y-1022D01*
X7649Y-1053*
X7654Y-1082*
X7661Y-1109*
X7669Y-1134*
X7680Y-1157*
X7694Y-1177*
X7708Y-1196*
X7724Y-1213*
X7742Y-1227*
X7761Y-1239*
X7780Y-1249*
X7801Y-1257*
X7822Y-1261*
X7845Y-1265*
X7869Y-1266*
X7893Y-1265*
X7916Y-1262*
X7937Y-1257*
X7957Y-1249*
X7977Y-1239*
X7995Y-1227*
X8013Y-1213*
X8029Y-1196*
X8043Y-1178*
X8056Y-1157*
X8067Y-1134*
X8076Y-1109*
X8083Y-1082*
X8087Y-1052*
X8091Y-1020*
Y-987*
Y-954*
X8087Y-922*
X8083Y-893*
X8076Y-866*
X8068Y-842*
X8057Y-819*
X8045Y-798*
X8031Y-780*
X8015Y-765*
X7998Y-751*
X7980Y-739*
X7960Y-730*
X7939Y-722*
X7917Y-717*
X7894Y-713*
X7869*
X7844*
X7821Y-717*
X7799Y-722*
X7778Y-730*
X7758Y-739*
X7740Y-751*
X7723Y-765*
X7706Y-781*
X7692Y-800*
X7680Y-820*
X7669Y-843*
X7661Y-868*
X7654Y-894*
X7649Y-924*
X7646Y-955*
X7645Y-989*
X9126Y-1073D02*
X9015Y-775D01*
X8906Y-1073*
X9126*
X9425Y-1392D02*
X9248D01*
X9178Y-1209*
X8856*
X8789Y-1392*
X8617*
X8930Y-587*
X9103*
X9425Y-1392*
X9512D02*
Y-587D01*
X9669*
X10002Y-1128*
Y-587*
X10152*
Y-1392*
X9990*
X9662Y-862*
Y-1392*
X9512*
X9770Y34044D02*
Y35048D01*
X9411*
Y35252*
X10372*
Y35048*
X10014*
Y34044*
X9770*
X10323Y-587D02*
X10620D01*
X10645*
X10668*
X10689Y-589*
X10709Y-591*
X10728Y-593*
X10744Y-595*
X10760Y-598*
X10773Y-602*
X10791Y-608*
X10808Y-614*
X10824Y-622*
X10839Y-631*
X10854Y-641*
X10869Y-652*
X10882Y-664*
X10895Y-676*
X10919Y-705*
X10939Y-735*
X10957Y-769*
X10972Y-807*
X10978Y-827*
X10983Y-847*
X10988Y-870*
X10992Y-893*
X10994Y-917*
X10997Y-943*
X10998Y-969*
Y-997*
Y-1021*
X10997Y-1045*
X10995Y-1068*
X10992Y-1090*
X10989Y-1111*
X10984Y-1131*
X10980Y-1150*
X10974Y-1169*
X10965Y-1190*
X10957Y-1210*
X10947Y-1230*
X10937Y-1248*
X10926Y-1265*
X10914Y-1282*
X10901Y-1297*
X10887Y-1311*
X10876Y-1321*
X10865Y-1331*
X10851Y-1339*
X10838Y-1347*
X10823Y-1355*
X10807Y-1362*
X10791Y-1369*
X10773Y-1375*
X10759Y-1379*
X10744Y-1383*
X10728Y-1386*
X10710Y-1388*
X10691Y-1390*
X10672Y-1391*
X10651Y-1392*
X10629*
X10323*
Y-587*
X10486Y-723D02*
Y-1256D01*
X10607*
X10624*
X10639Y-1255*
X10654*
X10666Y-1254*
X10678Y-1253*
X10688Y-1252*
X10698Y-1250*
X10706Y-1248*
X10725Y-1243*
X10742Y-1235*
X10757Y-1226*
X10772Y-1215*
X10778Y-1209*
X10784Y-1201*
X10790Y-1193*
X10795Y-1183*
X10801Y-1173*
X10806Y-1162*
X10810Y-1150*
X10814Y-1137*
X10818Y-1123*
X10821Y-1108*
X10824Y-1091*
X10827Y-1073*
X10828Y-1054*
X10830Y-1034*
X10831Y-1013*
Y-990*
Y-967*
X10830Y-946*
X10828Y-926*
X10827Y-907*
X10824Y-890*
X10821Y-874*
X10818Y-860*
X10814Y-846*
X10806Y-823*
X10794Y-802*
X10782Y-784*
X10768Y-769*
X10752Y-756*
X10735Y-745*
X10714Y-737*
X10693Y-731*
X10683Y-729*
X10672Y-728*
X10657Y-726*
X10643Y-725*
X10624Y-724*
X10605*
X10583Y-723*
X10559*
X10486*
X10528Y34044D02*
Y35252D01*
X10919*
X10946*
X10972*
X10997Y35251*
X11020*
X11043Y35250*
X11063*
X11083Y35248*
X11102Y35247*
X11120Y35246*
X11136Y35245*
X11150Y35244*
X11165Y35241*
X11178Y35240*
X11189Y35238*
X11199Y35235*
X11208Y35234*
X11233Y35226*
X11258Y35217*
X11281Y35205*
X11304Y35191*
X11324Y35175*
X11344Y35157*
X11364Y35137*
X11382Y35115*
X11398Y35091*
X11413Y35067*
X11424Y35039*
X11434Y35011*
X11442Y34981*
X11447Y34950*
X11450Y34915*
X11452Y34880*
Y34853*
X11449Y34827*
X11446Y34802*
X11442Y34778*
X11436Y34755*
X11429Y34733*
X11421Y34712*
X11411Y34693*
X11390Y34657*
X11365Y34626*
X11338Y34598*
X11309Y34574*
X11278Y34554*
X11246Y34539*
X11215Y34526*
X11183Y34517*
X11160Y34513*
X11135Y34509*
X11107Y34507*
X11076Y34504*
X11044Y34502*
X11009Y34501*
X10971Y34500*
X10931*
X10772*
Y34044*
X10528*
X10772Y35048D02*
Y34704D01*
X10905*
X10939*
X10971Y34705*
X10999Y34706*
X11025Y34709*
X11048Y34711*
X11067Y34715*
X11083Y34718*
X11097Y34723*
X11120Y34733*
X11140Y34748*
X11157Y34763*
X11173Y34782*
X11185Y34803*
X11193Y34826*
X11199Y34850*
X11200Y34876*
Y34893*
X11198Y34908*
X11194Y34922*
X11191Y34937*
X11185Y34950*
X11179Y34963*
X11170Y34974*
X11161Y34985*
X11141Y35005*
X11119Y35020*
X11093Y35032*
X11064Y35039*
X11052Y35042*
X11037Y35043*
X11019Y35044*
X10999Y35045*
X10976Y35046*
X10950*
X10921Y35048*
X10889*
X10772*
X11444Y-1392D02*
Y-587D01*
X11607*
Y-1392*
X11444*
X11760D02*
Y-587D01*
X12004*
X12149Y-1136*
X12292Y-587*
X12536*
Y-1392*
X12386*
Y-758*
X12226Y-1392*
X12069*
X11911Y-758*
X11910Y-1392*
X11760*
X12294Y34522D02*
X12127Y34970D01*
X11963Y34522*
X12294*
X12743Y34044D02*
X12477D01*
X12372Y34318*
X11889*
X11788Y34044*
X11530*
X12000Y35252*
X12259*
X12743Y34044*
X12812Y34365D02*
X13037Y34392D01*
X13040Y34371*
X13044Y34352*
X13050Y34333*
X13057Y34317*
X13064Y34301*
X13073Y34286*
X13083Y34273*
X13094Y34261*
X13106Y34250*
X13119Y34241*
X13132Y34234*
X13146Y34227*
X13161Y34222*
X13176Y34219*
X13191Y34217*
X13208Y34216*
X13226Y34217*
X13242Y34220*
X13259Y34223*
X13274Y34229*
X13289Y34237*
X13304Y34247*
X13317Y34257*
X13330Y34270*
X13340Y34285*
X13351Y34300*
X13359Y34317*
X13366Y34334*
X13371Y34353*
X13374Y34373*
X13377Y34394*
X13378Y34417*
X13377Y34438*
X13376Y34458*
X13371Y34477*
X13366Y34495*
X13360Y34511*
X13352Y34527*
X13343Y34541*
X13331Y34555*
X13319Y34567*
X13306Y34578*
X13293Y34586*
X13279Y34593*
X13265Y34599*
X13249Y34602*
X13234Y34605*
X13217Y34606*
X13194Y34605*
X13169Y34601*
X13141Y34596*
X13111Y34588*
X13137Y34777*
X13159*
X13181Y34778*
X13201Y34782*
X13220Y34785*
X13236Y34791*
X13253Y34800*
X13267Y34808*
X13280Y34817*
X13292Y34829*
X13301Y34841*
X13311Y34854*
X13318Y34868*
X13322Y34883*
X13326Y34899*
X13328Y34915*
X13330Y34933*
X13327Y34961*
X13320Y34987*
X13309Y35011*
X13293Y35030*
X13274Y35046*
X13250Y35057*
X13226Y35064*
X13196Y35067*
X13182Y35065*
X13168Y35064*
X13155Y35061*
X13142Y35056*
X13129Y35050*
X13117Y35043*
X13106Y35035*
X13094Y35025*
X13076Y35002*
X13061Y34974*
X13051Y34941*
X13044Y34905*
X12830Y34941*
X12836Y34967*
X12843Y34993*
X12850Y35017*
X12858Y35039*
X12867Y35061*
X12876Y35081*
X12887Y35100*
X12897Y35116*
X12922Y35147*
X12952Y35174*
X12985Y35199*
X13022Y35219*
X13064Y35235*
X13107Y35247*
X13155Y35254*
X13203Y35257*
X13244Y35256*
X13285Y35250*
X13321Y35241*
X13357Y35230*
X13390Y35214*
X13422Y35195*
X13450Y35173*
X13477Y35148*
X13497Y35126*
X13515Y35102*
X13529Y35078*
X13541Y35054*
X13550Y35028*
X13557Y35002*
X13561Y34974*
X13562Y34947*
X13561Y34927*
X13560Y34908*
X13556Y34889*
X13552Y34872*
X13546Y34854*
X13537Y34836*
X13529Y34820*
X13519Y34804*
X13507Y34788*
X13494Y34774*
X13480Y34758*
X13464Y34744*
X13448Y34731*
X13429Y34718*
X13409Y34705*
X13389Y34693*
X13413Y34686*
X13437Y34678*
X13459Y34669*
X13481Y34657*
X13501Y34644*
X13520Y34628*
X13537Y34612*
X13554Y34593*
X13568Y34574*
X13581Y34553*
X13592Y34530*
X13600Y34508*
X13607Y34484*
X13612Y34459*
X13614Y34433*
X13615Y34406*
X13613Y34367*
X13608Y34330*
X13599Y34294*
X13586Y34259*
X13570Y34226*
X13550Y34195*
X13527Y34164*
X13500Y34136*
X13469Y34109*
X13437Y34086*
X13404Y34067*
X13369Y34052*
X13332Y34039*
X13293Y34031*
X13252Y34025*
X13210Y34024*
X13170Y34025*
X13131Y34030*
X13094Y34037*
X13059Y34047*
X13026Y34060*
X12995Y34077*
X12966Y34096*
X12937Y34118*
X12911Y34143*
X12889Y34169*
X12869Y34197*
X12852Y34227*
X12838Y34259*
X12826Y34292*
X12818Y34327*
X12812Y34365*
X13126Y-1073D02*
X13015Y-775D01*
X12906Y-1073*
X13126*
X13425Y-1392D02*
X13248D01*
X13178Y-1209*
X12856*
X12789Y-1392*
X12617*
X12930Y-587*
X13103*
X13425Y-1392*
X13886Y-1097D02*
Y-961D01*
X14236*
Y-1280*
X14223Y-1293*
X14208Y-1305*
X14191Y-1316*
X14174Y-1328*
X14154Y-1338*
X14134Y-1348*
X14112Y-1358*
X14088Y-1368*
X14064Y-1376*
X14039Y-1384*
X14015Y-1391*
X13991Y-1396*
X13966Y-1400*
X13941Y-1403*
X13917Y-1405*
X13891Y-1406*
X13861Y-1405*
X13831Y-1402*
X13802Y-1398*
X13773Y-1392*
X13746Y-1385*
X13720Y-1376*
X13695Y-1365*
X13671Y-1353*
X13649Y-1339*
X13628Y-1324*
X13607Y-1306*
X13589Y-1288*
X13572Y-1269*
X13557Y-1247*
X13543Y-1225*
X13530Y-1201*
X13519Y-1176*
X13509Y-1150*
X13502Y-1124*
X13494Y-1098*
X13489Y-1071*
X13486Y-1043*
X13483Y-1016*
Y-987*
Y-956*
X13486Y-926*
X13490Y-896*
X13496Y-868*
X13503Y-840*
X13513Y-814*
X13523Y-788*
X13535Y-763*
X13550Y-739*
X13565Y-717*
X13582Y-696*
X13601Y-677*
X13620Y-659*
X13643Y-643*
X13665Y-627*
X13690Y-613*
X13710Y-604*
X13731Y-596*
X13754Y-589*
X13777Y-583*
X13802Y-579*
X13828Y-576*
X13854Y-574*
X13883Y-573*
X13920Y-574*
X13954Y-577*
X13987Y-582*
X14017Y-589*
X14045Y-598*
X14071Y-609*
X14095Y-622*
X14117Y-636*
X14138Y-653*
X14156Y-671*
X14172Y-691*
X14187Y-712*
X14199Y-735*
X14210Y-758*
X14219Y-784*
X14226Y-811*
X14065Y-841*
X14060Y-827*
X14054Y-813*
X14047Y-800*
X14040Y-788*
X14031Y-776*
X14022Y-766*
X14012Y-756*
X14001Y-747*
X13988Y-739*
X13976Y-732*
X13962Y-726*
X13947Y-721*
X13932Y-717*
X13917Y-715*
X13900Y-713*
X13883*
X13857*
X13832Y-717*
X13809Y-722*
X13787Y-730*
X13767Y-739*
X13747Y-750*
X13730Y-765*
X13713Y-780*
X13698Y-798*
X13686Y-818*
X13675Y-840*
X13666Y-864*
X13659Y-890*
X13654Y-918*
X13651Y-948*
X13650Y-980*
X13651Y-1015*
X13654Y-1047*
X13659Y-1077*
X13666Y-1106*
X13676Y-1131*
X13687Y-1154*
X13699Y-1176*
X13714Y-1194*
X13731Y-1212*
X13749Y-1226*
X13768Y-1239*
X13787Y-1248*
X13809Y-1256*
X13832Y-1261*
X13856Y-1265*
X13881Y-1266*
X13906Y-1265*
X13932Y-1261*
X13957Y-1255*
X13983Y-1246*
X14009Y-1236*
X14031Y-1224*
X14053Y-1212*
X14072Y-1198*
Y-1097*
X13886*
X14351Y34044D02*
X14120D01*
Y34917*
X14088Y34887*
X14054Y34861*
X14018Y34836*
X13981Y34813*
X13944Y34791*
X13904Y34772*
X13863Y34756*
X13821Y34741*
Y34951*
X13843Y34959*
X13867Y34969*
X13891Y34980*
X13915Y34993*
X13940Y35009*
X13966Y35025*
X13991Y35043*
X14018Y35063*
X14043Y35084*
X14067Y35107*
X14088Y35129*
X14108Y35153*
X14124Y35178*
X14140Y35204*
X14153Y35230*
X14163Y35257*
X14351*
Y34044*
X14382Y-1392D02*
Y-587D01*
X14545*
Y-1392*
X14382*
X14700D02*
Y-587D01*
X14857*
X15190Y-1128*
Y-587*
X15340*
Y-1392*
X15178*
X14850Y-862*
Y-1392*
X14700*
X15290Y34044D02*
X15059D01*
Y34917*
X15027Y34887*
X14993Y34861*
X14957Y34836*
X14920Y34813*
X14883Y34791*
X14843Y34772*
X14802Y34756*
X14760Y34741*
Y34951*
X14782Y34959*
X14806Y34969*
X14830Y34980*
X14854Y34993*
X14879Y35009*
X14905Y35025*
X14930Y35043*
X14957Y35063*
X14982Y35084*
X15006Y35107*
X15027Y35129*
X15047Y35153*
X15063Y35178*
X15079Y35204*
X15092Y35230*
X15102Y35257*
X15290*
Y34044*
X15887Y-1097D02*
Y-961D01*
X16237*
Y-1280*
X16224Y-1293*
X16209Y-1305*
X16192Y-1316*
X16175Y-1328*
X16155Y-1338*
X16135Y-1348*
X16113Y-1358*
X16089Y-1368*
X16065Y-1376*
X16040Y-1384*
X16016Y-1391*
X15991Y-1396*
X15967Y-1400*
X15942Y-1403*
X15917Y-1405*
X15892Y-1406*
X15861Y-1405*
X15831Y-1402*
X15802Y-1398*
X15774Y-1392*
X15747Y-1385*
X15721Y-1376*
X15696Y-1365*
X15672Y-1353*
X15650Y-1339*
X15628Y-1324*
X15608Y-1306*
X15590Y-1288*
X15572Y-1269*
X15557Y-1247*
X15543Y-1225*
X15531Y-1201*
X15520Y-1176*
X15510Y-1150*
X15502Y-1124*
X15495Y-1098*
X15490Y-1071*
X15487Y-1043*
X15484Y-1016*
X15483Y-987*
X15484Y-956*
X15487Y-926*
X15491Y-896*
X15497Y-868*
X15504Y-840*
X15513Y-814*
X15524Y-788*
X15536Y-763*
X15550Y-739*
X15565Y-717*
X15583Y-696*
X15602Y-677*
X15621Y-659*
X15643Y-643*
X15666Y-627*
X15691Y-613*
X15711Y-604*
X15731Y-596*
X15754Y-589*
X15778Y-583*
X15802Y-579*
X15828Y-576*
X15855Y-574*
X15883Y-573*
X15920Y-574*
X15954Y-577*
X15987Y-582*
X16017Y-589*
X16046Y-598*
X16072Y-609*
X16096Y-622*
X16118Y-636*
X16139Y-653*
X16157Y-671*
X16173Y-691*
X16187Y-712*
X16200Y-735*
X16211Y-758*
X16220Y-784*
X16227Y-811*
X16065Y-841*
X16061Y-827*
X16055Y-813*
X16048Y-800*
X16041Y-788*
X16032Y-776*
X16023Y-766*
X16013Y-756*
X16002Y-747*
X15989Y-739*
X15976Y-732*
X15963Y-726*
X15948Y-721*
X15933Y-717*
X15917Y-715*
X15901Y-713*
X15883*
X15857*
X15833Y-717*
X15810Y-722*
X15788Y-730*
X15768Y-739*
X15748Y-750*
X15731Y-765*
X15714Y-780*
X15699Y-798*
X15687Y-818*
X15676Y-840*
X15667Y-864*
X15660Y-890*
X15655Y-918*
X15652Y-948*
X15651Y-980*
X15652Y-1015*
X15655Y-1047*
X15660Y-1077*
X15667Y-1106*
X15676Y-1131*
X15687Y-1154*
X15700Y-1176*
X15715Y-1194*
X15731Y-1212*
X15750Y-1226*
X15769Y-1239*
X15788Y-1248*
X15810Y-1256*
X15833Y-1261*
X15857Y-1265*
X15882Y-1266*
X15907Y-1265*
X15933Y-1261*
X15958Y-1255*
X15984Y-1246*
X16009Y-1236*
X16032Y-1224*
X16054Y-1212*
X16072Y-1198*
Y-1097*
X15887*
X16030Y35064D02*
X16008Y35063D01*
X15989Y35057*
X15970Y35049*
X15954Y35037*
X15946Y35030*
X15939Y35022*
X15931Y35011*
X15924Y35000*
X15919Y34987*
X15913Y34973*
X15907Y34958*
X15902Y34941*
X15897Y34918*
X15891Y34889*
X15888Y34857*
X15884Y34821*
X15882Y34782*
X15880Y34738*
X15878Y34691*
Y34640*
Y34588*
X15880Y34542*
X15882Y34500*
X15884Y34461*
X15887Y34426*
X15890Y34396*
X15895Y34370*
X15900Y34348*
X15906Y34330*
X15911Y34312*
X15917Y34296*
X15924Y34282*
X15931Y34269*
X15939Y34259*
X15946Y34249*
X15954Y34242*
X15970Y34230*
X15989Y34222*
X16008Y34217*
X16030Y34216*
X16050Y34217*
X16069Y34223*
X16087Y34231*
X16104Y34243*
X16112Y34250*
X16120Y34259*
X16128Y34269*
X16133Y34280*
X16139Y34293*
X16145Y34307*
X16151Y34322*
X16156Y34339*
X16161Y34363*
X16167Y34391*
X16170Y34423*
X16174Y34458*
X16176Y34497*
X16178Y34541*
X16180Y34588*
Y34640*
Y34691*
X16178Y34737*
X16176Y34780*
X16174Y34819*
X16171Y34853*
X16168Y34883*
X16163Y34909*
X16158Y34931*
X16152Y34950*
X16146Y34967*
X16141Y34984*
X16133Y34997*
X16126Y35010*
X16119Y35020*
X16112Y35030*
X16104Y35037*
X16087Y35049*
X16069Y35057*
X16050Y35063*
X16030Y35064*
Y35257D02*
X16072Y35254D01*
X16112Y35248*
X16150Y35239*
X16185Y35225*
X16219Y35208*
X16249Y35186*
X16278Y35161*
X16304Y35131*
X16318Y35113*
X16332Y35091*
X16344Y35069*
X16356Y35045*
X16366Y35019*
X16376Y34993*
X16384Y34964*
X16392Y34934*
X16399Y34902*
X16405Y34869*
X16410Y34835*
X16415Y34800*
X16418Y34762*
X16419Y34723*
X16422Y34681*
Y34640*
Y34598*
X16419Y34557*
X16417Y34517*
X16415Y34481*
X16410Y34444*
X16405Y34410*
X16399Y34377*
X16392Y34345*
X16384Y34315*
X16376Y34287*
X16365Y34260*
X16354Y34234*
X16344Y34210*
X16331Y34188*
X16318Y34167*
X16302Y34148*
X16278Y34118*
X16249Y34093*
X16219Y34072*
X16185Y34054*
X16150Y34041*
X16112Y34031*
X16072Y34026*
X16030Y34024*
X15986Y34026*
X15944Y34032*
X15907Y34043*
X15870Y34058*
X15835Y34077*
X15803Y34099*
X15772Y34128*
X15745Y34159*
X15731Y34177*
X15719Y34196*
X15707Y34217*
X15698Y34240*
X15687Y34265*
X15679Y34291*
X15670Y34318*
X15663Y34347*
X15657Y34379*
X15652Y34411*
X15647Y34445*
X15643Y34482*
X15640Y34520*
X15637Y34559*
X15636Y34600*
Y34643*
Y34684*
X15639Y34724*
X15641Y34763*
X15643Y34801*
X15648Y34836*
X15653Y34870*
X15659Y34904*
X15666Y34935*
X15674Y34965*
X15682Y34993*
X15693Y35020*
X15704Y35046*
X15714Y35070*
X15727Y35093*
X15740Y35114*
X15756Y35133*
X15780Y35162*
X15809Y35187*
X15839Y35208*
X15872Y35226*
X15908Y35239*
X15946Y35248*
X15986Y35254*
X16030Y35257*
X16626Y35252D02*
X17072D01*
X17109*
X17143Y35251*
X17175Y35248*
X17205Y35246*
X17233Y35243*
X17258Y35239*
X17281Y35234*
X17302Y35228*
X17329Y35220*
X17354Y35211*
X17377Y35199*
X17401Y35186*
X17423Y35170*
X17444Y35154*
X17465Y35136*
X17485Y35117*
X17520Y35075*
X17551Y35029*
X17578Y34978*
X17600Y34921*
X17609Y34892*
X17617Y34861*
X17624Y34827*
X17630Y34793*
X17633Y34756*
X17637Y34718*
X17639Y34678*
Y34637*
Y34600*
X17637Y34565*
X17635Y34530*
X17630Y34497*
X17625Y34465*
X17618Y34436*
X17611Y34406*
X17603Y34379*
X17590Y34347*
X17577Y34317*
X17563Y34287*
X17547Y34260*
X17531Y34234*
X17513Y34209*
X17493Y34187*
X17473Y34165*
X17456Y34150*
X17439Y34136*
X17419Y34123*
X17398Y34111*
X17376Y34099*
X17352Y34089*
X17328Y34078*
X17302Y34070*
X17280Y34064*
X17258Y34058*
X17233Y34053*
X17207Y34050*
X17179Y34047*
X17149Y34045*
X17119Y34044*
X17085*
X16626*
Y35252*
X16701Y-1392D02*
Y-587D01*
X16961*
X16980*
X16997*
X17013*
X17029*
X17044Y-588*
X17057*
X17071Y-589*
X17083Y-590*
X17095Y-591*
X17106*
X17116Y-592*
X17125Y-594*
X17134*
X17142Y-596*
X17148Y-598*
X17154*
X17171Y-604*
X17187Y-610*
X17203Y-618*
X17218Y-628*
X17231Y-638*
X17245Y-650*
X17258Y-663*
X17270Y-678*
X17281Y-694*
X17291Y-710*
X17298Y-728*
X17305Y-747*
X17310Y-767*
X17313Y-788*
X17316Y-811*
X17317Y-835*
Y-853*
X17315Y-870*
X17313Y-887*
X17310Y-902*
X17306Y-918*
X17302Y-932*
X17296Y-946*
X17290Y-959*
X17276Y-983*
X17259Y-1004*
X17241Y-1023*
X17221Y-1039*
X17201Y-1052*
X17180Y-1062*
X17159Y-1071*
X17138Y-1076*
X17122Y-1080*
X17106Y-1082*
X17087Y-1083*
X17066Y-1085*
X17045Y-1087*
X17021*
X16996Y-1088*
X16969*
X16864*
Y-1392*
X16701*
X16864Y-723D02*
Y-952D01*
X16952*
X16975*
X16996Y-951*
X17015Y-950*
X17032Y-949*
X17047Y-947*
X17060Y-945*
X17071Y-943*
X17080Y-939*
X17095Y-932*
X17109Y-923*
X17120Y-913*
X17131Y-900*
X17139Y-886*
X17144Y-871*
X17148Y-854*
X17149Y-837*
Y-826*
X17147Y-816*
X17145Y-806*
X17143Y-797*
X17139Y-788*
X17135Y-780*
X17129Y-772*
X17123Y-765*
X17109Y-751*
X17094Y-741*
X17077Y-733*
X17058Y-728*
X17050Y-727*
X17040Y-726*
X17028Y-725*
X17015Y-724*
X16999*
X16982*
X16963Y-723*
X16942*
X16864*
X16870Y35048D02*
Y34248D01*
X17052*
X17077*
X17101Y34249*
X17122*
X17141Y34250*
X17159Y34253*
X17174Y34254*
X17188Y34256*
X17200Y34260*
X17230Y34268*
X17254Y34280*
X17278Y34293*
X17299Y34309*
X17309Y34319*
X17318Y34331*
X17326Y34343*
X17335Y34357*
X17343Y34372*
X17350Y34389*
X17357Y34406*
X17363Y34426*
X17369Y34448*
X17374Y34470*
X17378Y34495*
X17382Y34522*
X17384Y34550*
X17387Y34581*
X17388Y34613*
Y34647*
Y34681*
X17387Y34713*
X17384Y34743*
X17382Y34771*
X17378Y34797*
X17374Y34821*
X17369Y34842*
X17363Y34862*
X17350Y34898*
X17333Y34928*
X17315Y34956*
X17293Y34979*
X17270Y34998*
X17244Y35015*
X17213Y35026*
X17181Y35036*
X17167Y35038*
X17149Y35041*
X17128Y35043*
X17106Y35044*
X17078Y35046*
X17049*
X17016Y35048*
X16980*
X16870*
X17451Y-1392D02*
Y-587D01*
X17793*
X17824*
X17854Y-588*
X17880Y-590*
X17905Y-592*
X17927Y-595*
X17947Y-599*
X17965Y-603*
X17981Y-609*
X17995Y-614*
X18009Y-621*
X18021Y-629*
X18033Y-639*
X18045Y-649*
X18055Y-660*
X18065Y-672*
X18074Y-686*
X18083Y-700*
X18090Y-714*
X18096Y-729*
X18101Y-745*
X18105Y-761*
X18107Y-778*
X18109Y-795*
Y-813*
Y-835*
X18106Y-856*
X18102Y-876*
X18096Y-895*
X18089Y-913*
X18080Y-931*
X18069Y-947*
X18057Y-962*
X18043Y-976*
X18027Y-989*
X18009Y-1001*
X17990Y-1010*
X17969Y-1019*
X17947Y-1026*
X17923Y-1032*
X17898Y-1037*
X17923Y-1053*
X17946Y-1069*
X17966Y-1087*
X17984Y-1105*
X17993Y-1114*
X18003Y-1126*
X18013Y-1140*
X18024Y-1155*
X18036Y-1172*
X18049Y-1191*
X18062Y-1213*
X18076Y-1235*
X18175Y-1392*
X17980*
X17864Y-1217*
X17848Y-1194*
X17835Y-1174*
X17822Y-1156*
X17811Y-1140*
X17801Y-1127*
X17792Y-1115*
X17784Y-1106*
X17778Y-1098*
X17766Y-1087*
X17754Y-1078*
X17742Y-1071*
X17729Y-1065*
X17722Y-1063*
X17714Y-1061*
X17706Y-1060*
X17695Y-1058*
X17685Y-1057*
X17673*
X17661Y-1056*
X17647*
X17614*
Y-1392*
X17451*
X17614Y-928D02*
X17734D01*
X17762*
X17787Y-927*
X17809Y-926*
X17829Y-925*
X17846Y-924*
X17860Y-922*
X17871Y-920*
X17880Y-918*
X17894Y-912*
X17906Y-904*
X17917Y-894*
X17925Y-883*
X17932Y-871*
X17938Y-857*
X17941Y-840*
X17942Y-823*
X17940Y-804*
X17936Y-787*
X17930Y-771*
X17920Y-757*
X17908Y-746*
X17894Y-737*
X17878Y-730*
X17859Y-726*
X17853Y-725*
X17844Y-724*
X17833*
X17820*
X17804*
X17785Y-723*
X17764*
X17741*
X17614*
Y-928*
X18230Y-994D02*
X18231Y-965D01*
X18232Y-935*
X18235Y-908*
X18239Y-881*
X18244Y-856*
X18250Y-832*
X18258Y-809*
X18267Y-788*
X18282Y-758*
X18299Y-730*
X18320Y-703*
X18342Y-678*
X18354Y-666*
X18366Y-655*
X18379Y-645*
X18391Y-635*
X18418Y-619*
X18446Y-605*
X18465Y-598*
X18485Y-591*
X18506Y-586*
X18527Y-581*
X18549Y-578*
X18572Y-576*
X18595Y-574*
X18620Y-573*
X18642Y-574*
X18663Y-575*
X18684Y-577*
X18705Y-580*
X18724Y-584*
X18743Y-589*
X18762Y-594*
X18780Y-601*
X18798Y-608*
X18815Y-617*
X18831Y-625*
X18847Y-635*
X18862Y-646*
X18877Y-657*
X18891Y-670*
X18905Y-683*
X18918Y-698*
X18930Y-713*
X18941Y-728*
X18952Y-744*
X18961Y-761*
X18970Y-779*
X18978Y-797*
X18985Y-816*
X18991Y-835*
X18997Y-855*
X19002Y-876*
X19006Y-898*
X19008Y-920*
X19010Y-943*
X19012Y-966*
Y-991*
Y-1014*
X19010Y-1038*
X19008Y-1061*
X19006Y-1083*
X19002Y-1104*
X18997Y-1124*
X18991Y-1145*
X18985Y-1165*
X18978Y-1183*
X18970Y-1201*
X18961Y-1218*
X18952Y-1235*
X18942Y-1251*
X18931Y-1267*
X18919Y-1281*
X18906Y-1295*
X18892Y-1309*
X18878Y-1321*
X18864Y-1333*
X18848Y-1343*
X18832Y-1354*
X18816Y-1362*
X18799Y-1371*
X18782Y-1378*
X18764Y-1384*
X18745Y-1390*
X18726Y-1394*
X18706Y-1398*
X18686Y-1402*
X18665Y-1404*
X18644Y-1405*
X18622Y-1406*
X18600Y-1405*
X18578Y-1404*
X18557Y-1402*
X18537Y-1398*
X18517Y-1394*
X18498Y-1390*
X18479Y-1384*
X18461Y-1378*
X18443Y-1371*
X18426Y-1363*
X18409Y-1354*
X18394Y-1344*
X18379Y-1333*
X18364Y-1322*
X18350Y-1309*
X18336Y-1296*
X18323Y-1282*
X18311Y-1268*
X18300Y-1252*
X18290Y-1236*
X18280Y-1220*
X18272Y-1202*
X18264Y-1184*
X18257Y-1166*
X18250Y-1146*
X18245Y-1127*
X18240Y-1106*
X18236Y-1085*
X18234Y-1064*
X18231Y-1041*
Y-1018*
X18230Y-994*
X18398Y-989D02*
Y-1022D01*
X18402Y-1053*
X18406Y-1082*
X18413Y-1109*
X18422Y-1134*
X18433Y-1157*
X18446Y-1177*
X18461Y-1196*
X18477Y-1213*
X18494Y-1227*
X18513Y-1239*
X18533Y-1249*
X18554Y-1257*
X18575Y-1261*
X18598Y-1265*
X18622Y-1266*
X18646Y-1265*
X18669Y-1262*
X18690Y-1257*
X18710Y-1249*
X18730Y-1239*
X18748Y-1227*
X18765Y-1213*
X18782Y-1196*
X18796Y-1178*
X18809Y-1157*
X18820Y-1134*
X18828Y-1109*
X18835Y-1082*
X18840Y-1052*
X18843Y-1020*
X18844Y-987*
X18843Y-954*
X18840Y-922*
X18835Y-893*
X18829Y-866*
X18820Y-842*
X18810Y-819*
X18798Y-798*
X18783Y-780*
X18768Y-765*
X18750Y-751*
X18732Y-739*
X18713Y-730*
X18691Y-722*
X18669Y-717*
X18646Y-713*
X18622*
X18597*
X18574Y-717*
X18552Y-722*
X18531Y-730*
X18511Y-739*
X18493Y-751*
X18476Y-765*
X18459Y-781*
X18445Y-800*
X18432Y-820*
X18422Y-843*
X18413Y-868*
X18406Y-894*
X18402Y-924*
X18398Y-955*
Y-989*
X18577Y34259D02*
Y34044D01*
X17766*
X17770Y34074*
X17775Y34104*
X17783Y34133*
X17792Y34162*
X17802Y34191*
X17815Y34220*
X17830Y34247*
X17845Y34275*
X17864Y34304*
X17886Y34333*
X17912Y34366*
X17943Y34402*
X17977Y34439*
X18016Y34478*
X18059Y34520*
X18105Y34565*
X18143Y34599*
X18176Y34631*
X18205Y34660*
X18231Y34686*
X18254Y34710*
X18271Y34730*
X18285Y34748*
X18297Y34762*
X18308Y34780*
X18317Y34797*
X18326Y34815*
X18333Y34833*
X18337Y34850*
X18342Y34868*
X18343Y34886*
X18344Y34904*
X18343Y34922*
X18342Y34940*
X18339Y34957*
X18334Y34972*
X18328Y34986*
X18321Y34999*
X18313Y35011*
X18303Y35023*
X18293Y35032*
X18281Y35041*
X18268Y35048*
X18254Y35054*
X18238Y35058*
X18223Y35062*
X18206Y35063*
X18187Y35064*
X18171Y35063*
X18153Y35062*
X18138Y35058*
X18122Y35054*
X18109Y35046*
X18096Y35039*
X18083Y35031*
X18073Y35020*
X18062Y35009*
X18054Y34994*
X18046Y34979*
X18039Y34963*
X18034Y34943*
X18029Y34922*
X18026Y34900*
X18023Y34875*
X17793Y34899*
X17800Y34945*
X17808Y34987*
X17821Y35026*
X17835Y35063*
X17853Y35095*
X17873Y35124*
X17897Y35150*
X17923Y35173*
X17950Y35193*
X17980Y35209*
X18011Y35224*
X18044Y35235*
X18080Y35245*
X18117Y35252*
X18154Y35256*
X18194Y35257*
X18237Y35256*
X18278Y35251*
X18317Y35243*
X18354Y35232*
X18388Y35219*
X18419Y35202*
X18448Y35182*
X18476Y35160*
X18499Y35135*
X18519Y35109*
X18537Y35081*
X18551Y35052*
X18563Y35022*
X18571Y34989*
X18576Y34956*
X18577Y34920*
X18575Y34880*
X18570Y34841*
X18561Y34802*
X18548Y34765*
X18531Y34728*
X18510Y34690*
X18485Y34651*
X18456Y34611*
X18444Y34596*
X18430Y34581*
X18414Y34563*
X18396Y34546*
X18376Y34526*
X18354Y34503*
X18330Y34481*
X18303Y34456*
X18277Y34432*
X18254Y34410*
X18232Y34391*
X18213Y34373*
X18198Y34357*
X18184Y34344*
X18173Y34332*
X18165Y34322*
X18151Y34306*
X18138Y34291*
X18127Y34274*
X18117Y34259*
X18577*
X18786Y34044D02*
Y35252D01*
X19680*
Y35048*
X19031*
Y34780*
X19635*
Y34575*
X19031*
Y34248*
X19704*
Y34044*
X18786*
X19138Y-587D02*
X19435D01*
X19460*
X19483*
X19504Y-589*
X19524Y-591*
X19543Y-593*
X19559Y-595*
X19575Y-598*
X19588Y-602*
X19606Y-608*
X19623Y-614*
X19639Y-622*
X19654Y-631*
X19669Y-641*
X19683Y-652*
X19697Y-664*
X19710Y-676*
X19734Y-705*
X19754Y-735*
X19772Y-769*
X19787Y-807*
X19793Y-827*
X19798Y-847*
X19803Y-870*
X19807Y-893*
X19809Y-917*
X19812Y-943*
X19813Y-969*
Y-997*
Y-1021*
X19812Y-1045*
X19810Y-1068*
X19807Y-1090*
X19804Y-1111*
X19799Y-1131*
X19794Y-1150*
X19789Y-1169*
X19780Y-1190*
X19772Y-1210*
X19762Y-1230*
X19752Y-1248*
X19741Y-1265*
X19729Y-1282*
X19716Y-1297*
X19702Y-1311*
X19691Y-1321*
X19680Y-1331*
X19666Y-1339*
X19653Y-1347*
X19638Y-1355*
X19622Y-1362*
X19606Y-1369*
X19588Y-1375*
X19574Y-1379*
X19559Y-1383*
X19543Y-1386*
X19525Y-1388*
X19506Y-1390*
X19487Y-1391*
X19466Y-1392*
X19444*
X19138*
Y-587*
X19301Y-723D02*
Y-1256D01*
X19422*
X19439*
X19454Y-1255*
X19469*
X19481Y-1254*
X19493Y-1253*
X19503Y-1252*
X19513Y-1250*
X19520Y-1248*
X19540Y-1243*
X19557Y-1235*
X19572Y-1226*
X19587Y-1215*
X19593Y-1209*
X19599Y-1201*
X19605Y-1193*
X19610Y-1183*
X19616Y-1173*
X19620Y-1162*
X19625Y-1150*
X19629Y-1137*
X19633Y-1123*
X19636Y-1108*
X19639Y-1091*
X19642Y-1073*
X19643Y-1054*
X19645Y-1034*
X19646Y-1013*
Y-990*
Y-967*
X19645Y-946*
X19643Y-926*
X19642Y-907*
X19639Y-890*
X19636Y-874*
X19633Y-860*
X19629Y-846*
X19620Y-823*
X19609Y-802*
X19597Y-784*
X19583Y-769*
X19567Y-756*
X19550Y-745*
X19529Y-737*
X19508Y-731*
X19498Y-729*
X19487Y-728*
X19472Y-726*
X19457Y-725*
X19439Y-724*
X19420*
X19398Y-723*
X19374*
X19301*
X19950Y-587D02*
X20113D01*
Y-1023*
Y-1047*
X20114Y-1070*
Y-1090*
X20115Y-1108*
X20116Y-1124*
X20117Y-1137*
X20118Y-1148*
X20120Y-1157*
X20123Y-1169*
X20127Y-1180*
X20131Y-1191*
X20137Y-1202*
X20143Y-1211*
X20151Y-1220*
X20160Y-1228*
X20169Y-1236*
X20180Y-1243*
X20191Y-1250*
X20202Y-1254*
X20215Y-1259*
X20229Y-1262*
X20244Y-1265*
X20259*
X20276Y-1266*
X20293Y-1265*
X20309*
X20323Y-1262*
X20336Y-1259*
X20349Y-1255*
X20361Y-1250*
X20371Y-1245*
X20380Y-1238*
X20388Y-1231*
X20396Y-1223*
X20402Y-1215*
X20408Y-1206*
X20413Y-1198*
X20417Y-1188*
X20420Y-1179*
X20422Y-1169*
X20424Y-1157*
X20425Y-1145*
X20427Y-1130*
X20428Y-1114*
Y-1096*
Y-1076*
X20429Y-1055*
Y-1031*
Y-587*
X20592*
Y-1009*
Y-1045*
X20591Y-1077*
Y-1106*
X20589Y-1133*
X20587Y-1157*
X20585Y-1180*
X20582Y-1198*
X20579Y-1214*
X20571Y-1243*
X20561Y-1269*
X20546Y-1294*
X20531Y-1316*
X20511Y-1335*
X20489Y-1353*
X20464Y-1368*
X20435Y-1381*
X20420Y-1387*
X20404Y-1392*
X20386Y-1396*
X20368Y-1399*
X20347Y-1402*
X20327Y-1404*
X20304Y-1406*
X20281*
X20253*
X20227Y-1404*
X20202Y-1402*
X20180Y-1399*
X20158Y-1395*
X20139Y-1391*
X20122Y-1385*
X20106Y-1379*
X20078Y-1365*
X20053Y-1348*
X20031Y-1330*
X20012Y-1309*
X19996Y-1288*
X19983Y-1266*
X19973Y-1243*
X19966Y-1220*
X19962Y-1202*
X19959Y-1182*
X19957Y-1159*
X19954Y-1135*
X19953Y-1108*
X19951Y-1080*
X19950Y-1049*
Y-1017*
Y-587*
X20219Y34044D02*
X19788Y35252D01*
X20052*
X20358Y34358*
X20652Y35252*
X20912*
X20482Y34044*
X20219*
X21034D02*
Y35252D01*
X21400*
X21617Y34428*
X21832Y35252*
X22198*
Y34044*
X21973*
Y34994*
X21733Y34044*
X21498*
X21261Y34994*
X21259Y34044*
X21034*
X21280Y-1094D02*
X21437Y-1145D01*
X21428Y-1177*
X21416Y-1207*
X21403Y-1235*
X21389Y-1260*
X21373Y-1283*
X21356Y-1305*
X21337Y-1324*
X21317Y-1342*
X21294Y-1357*
X21272Y-1369*
X21246Y-1380*
X21220Y-1390*
X21194Y-1397*
X21165Y-1402*
X21134Y-1405*
X21102Y-1406*
X21083Y-1405*
X21063Y-1404*
X21044Y-1402*
X21026Y-1398*
X21008Y-1394*
X20991Y-1390*
X20973Y-1384*
X20957Y-1378*
X20940Y-1371*
X20924Y-1363*
X20909Y-1354*
X20894Y-1344*
X20880Y-1333*
X20865Y-1322*
X20852Y-1309*
X20839Y-1296*
X20826Y-1282*
X20814Y-1268*
X20804Y-1252*
X20794Y-1236*
X20784Y-1220*
X20776Y-1202*
X20769Y-1185*
X20761Y-1166*
X20755Y-1147*
X20750Y-1128*
X20746Y-1107*
X20742Y-1087*
X20739Y-1065*
X20737Y-1043*
X20736Y-1020*
X20735Y-997*
X20736Y-972*
X20737Y-948*
X20739Y-924*
X20742Y-902*
X20746Y-880*
X20750Y-858*
X20755Y-838*
X20761Y-818*
X20769Y-799*
X20776Y-780*
X20784Y-763*
X20794Y-746*
X20804Y-729*
X20815Y-713*
X20827Y-698*
X20839Y-684*
X20853Y-671*
X20866Y-658*
X20880Y-646*
X20895Y-636*
X20910Y-626*
X20926Y-617*
X20943Y-609*
X20959Y-601*
X20976Y-594*
X20994Y-589*
X21013Y-584*
X21031Y-580*
X21051Y-577*
X21071Y-575*
X21091Y-574*
X21113Y-573*
X21148Y-575*
X21183Y-579*
X21215Y-586*
X21246Y-595*
X21276Y-608*
X21302Y-623*
X21328Y-640*
X21352Y-661*
X21365Y-675*
X21378Y-690*
X21390Y-706*
X21400Y-724*
X21410Y-743*
X21419Y-764*
X21428Y-786*
X21435Y-809*
X21274Y-848*
X21270Y-833*
X21265Y-818*
X21259Y-805*
X21252Y-792*
X21244Y-780*
X21235Y-769*
X21225Y-758*
X21214Y-749*
X21203Y-740*
X21191Y-733*
X21178Y-727*
X21165Y-722*
X21150Y-718*
X21135Y-715*
X21120Y-713*
X21104*
X21083*
X21061Y-717*
X21042Y-722*
X21023Y-728*
X21006Y-738*
X20989Y-749*
X20973Y-761*
X20959Y-777*
X20946Y-794*
X20935Y-814*
X20925Y-836*
X20917Y-861*
X20911Y-888*
X20906Y-917*
X20904Y-950*
X20903Y-984*
X20904Y-1021*
X20906Y-1055*
X20911Y-1087*
X20917Y-1115*
X20924Y-1141*
X20934Y-1164*
X20945Y-1184*
X20958Y-1202*
X20972Y-1217*
X20987Y-1230*
X21004Y-1241*
X21021Y-1250*
X21039Y-1257*
X21059Y-1262*
X21080Y-1265*
X21101Y-1266*
X21117Y-1265*
X21132Y-1264*
X21147Y-1261*
X21161Y-1256*
X21175Y-1250*
X21188Y-1243*
X21201Y-1235*
X21213Y-1225*
X21224Y-1213*
X21234Y-1201*
X21244Y-1187*
X21253Y-1172*
X21261Y-1154*
X21268Y-1136*
X21274Y-1116*
X21280Y-1094*
X21759Y-1392D02*
Y-723D01*
X21520*
Y-587*
X22161*
Y-723*
X21922*
Y-1392*
X21759*
X22951Y-1097D02*
Y-961D01*
X23302*
Y-1280*
X23288Y-1293*
X23273Y-1305*
X23257Y-1316*
X23239Y-1328*
X23220Y-1338*
X23199Y-1348*
X23177Y-1358*
X23154Y-1368*
X23129Y-1376*
X23105Y-1384*
X23080Y-1391*
X23056Y-1396*
X23031Y-1400*
X23006Y-1403*
X22982Y-1405*
X22957Y-1406*
X22926Y-1405*
X22896Y-1402*
X22867Y-1398*
X22839Y-1392*
X22812Y-1385*
X22786Y-1376*
X22761Y-1365*
X22736Y-1353*
X22714Y-1339*
X22693Y-1324*
X22672Y-1306*
X22654Y-1288*
X22637Y-1269*
X22622Y-1247*
X22608Y-1225*
X22595Y-1201*
X22584Y-1176*
X22575Y-1150*
X22567Y-1124*
X22560Y-1098*
X22554Y-1071*
X22551Y-1043*
X22549Y-1016*
X22548Y-987*
X22549Y-956*
X22551Y-926*
X22555Y-896*
X22561Y-868*
X22569Y-840*
X22578Y-814*
X22588Y-788*
X22601Y-763*
X22615Y-739*
X22630Y-717*
X22647Y-696*
X22666Y-677*
X22686Y-659*
X22708Y-643*
X22731Y-627*
X22755Y-613*
X22776Y-604*
X22796Y-596*
X22819Y-589*
X22843Y-583*
X22867Y-579*
X22893Y-576*
X22920Y-574*
X22948Y-573*
X22985Y-574*
X23019Y-577*
X23052Y-582*
X23082Y-589*
X23110Y-598*
X23136Y-609*
X23161Y-622*
X23183Y-636*
X23203Y-653*
X23221Y-671*
X23238Y-691*
X23252Y-712*
X23265Y-735*
X23276Y-758*
X23284Y-784*
X23291Y-811*
X23130Y-841*
X23125Y-827*
X23120Y-813*
X23113Y-800*
X23106Y-788*
X23097Y-776*
X23087Y-766*
X23077Y-756*
X23066Y-747*
X23054Y-739*
X23041Y-732*
X23028Y-726*
X23013Y-721*
X22998Y-717*
X22982Y-715*
X22965Y-713*
X22948*
X22922*
X22898Y-717*
X22875Y-722*
X22853Y-730*
X22832Y-739*
X22813Y-750*
X22795Y-765*
X22779Y-780*
X22764Y-798*
X22751Y-818*
X22740Y-840*
X22731Y-864*
X22724Y-890*
X22720Y-918*
X22717Y-948*
X22716Y-980*
X22717Y-1015*
X22720Y-1047*
X22724Y-1077*
X22731Y-1106*
X22741Y-1131*
X22752Y-1154*
X22765Y-1176*
X22780Y-1194*
X22796Y-1212*
X22814Y-1226*
X22833Y-1239*
X22853Y-1248*
X22875Y-1256*
X22898Y-1261*
X22921Y-1265*
X22946Y-1266*
X22972Y-1265*
X22998Y-1261*
X23023Y-1255*
X23049Y-1246*
X23074Y-1236*
X23097Y-1224*
X23118Y-1212*
X23137Y-1198*
Y-1097*
X22951*
X23453Y-1392D02*
Y-587D01*
X23794*
X23826*
X23855Y-588*
X23882Y-590*
X23906Y-592*
X23928Y-595*
X23949Y-599*
X23967Y-603*
X23983Y-609*
X23997Y-614*
X24010Y-621*
X24023Y-629*
X24035Y-639*
X24046Y-649*
X24057Y-660*
X24067Y-672*
X24076Y-686*
X24084Y-700*
X24091Y-714*
X24098Y-729*
X24102Y-745*
X24106Y-761*
X24109Y-778*
X24110Y-795*
X24111Y-813*
X24110Y-835*
X24108Y-856*
X24104Y-876*
X24098Y-895*
X24091Y-913*
X24081Y-931*
X24070Y-947*
X24058Y-962*
X24044Y-976*
X24028Y-989*
X24010Y-1001*
X23991Y-1010*
X23971Y-1019*
X23949Y-1026*
X23924Y-1032*
X23899Y-1037*
X23924Y-1053*
X23947Y-1069*
X23968Y-1087*
X23986Y-1105*
X23994Y-1114*
X24005Y-1126*
X24015Y-1140*
X24026Y-1155*
X24038Y-1172*
X24050Y-1191*
X24064Y-1213*
X24078Y-1235*
X24176Y-1392*
X23982*
X23865Y-1217*
X23850Y-1194*
X23836Y-1174*
X23824Y-1156*
X23813Y-1140*
X23802Y-1127*
X23794Y-1115*
X23786Y-1106*
X23780Y-1098*
X23768Y-1087*
X23756Y-1078*
X23743Y-1071*
X23731Y-1065*
X23724Y-1063*
X23716Y-1061*
X23707Y-1060*
X23697Y-1058*
X23687Y-1057*
X23675*
X23662Y-1056*
X23649*
X23616*
Y-1392*
X23453*
X23616Y-928D02*
X23735D01*
X23764*
X23788Y-927*
X23811Y-926*
X23831Y-925*
X23847Y-924*
X23861Y-922*
X23872Y-920*
X23881Y-918*
X23895Y-912*
X23907Y-904*
X23918Y-894*
X23927Y-883*
X23934Y-871*
X23939Y-857*
X23943Y-840*
Y-823*
X23942Y-804*
X23938Y-787*
X23931Y-771*
X23922Y-757*
X23909Y-746*
X23895Y-737*
X23880Y-730*
X23861Y-726*
X23854Y-725*
X23846Y-724*
X23835*
X23821*
X23806*
X23787Y-723*
X23765*
X23743*
X23616*
Y-928*
X24231Y-994D02*
X24232Y-965D01*
X24234Y-935*
X24237Y-908*
X24241Y-881*
X24246Y-856*
X24252Y-832*
X24260Y-809*
X24269Y-788*
X24283Y-758*
X24301Y-730*
X24321Y-703*
X24343Y-678*
X24355Y-666*
X24368Y-655*
X24380Y-645*
X24393Y-635*
X24420Y-619*
X24447Y-605*
X24467Y-598*
X24487Y-591*
X24507Y-586*
X24528Y-581*
X24550Y-578*
X24573Y-576*
X24597Y-574*
X24621Y-573*
X24643Y-574*
X24665Y-575*
X24686Y-577*
X24706Y-580*
X24726Y-584*
X24745Y-589*
X24764Y-594*
X24782Y-601*
X24799Y-608*
X24817Y-617*
X24832Y-625*
X24849Y-635*
X24864Y-646*
X24879Y-657*
X24893Y-670*
X24906Y-683*
X24920Y-698*
X24931Y-713*
X24943Y-728*
X24954Y-744*
X24963Y-761*
X24972Y-779*
X24980Y-797*
X24987Y-816*
X24993Y-835*
X24998Y-855*
X25003Y-876*
X25007Y-898*
X25009Y-920*
X25012Y-943*
X25013Y-966*
Y-991*
Y-1014*
X25012Y-1038*
X25009Y-1061*
X25007Y-1083*
X25003Y-1104*
X24998Y-1124*
X24993Y-1145*
X24987Y-1165*
X24980Y-1183*
X24972Y-1201*
X24963Y-1218*
X24954Y-1235*
X24943Y-1251*
X24932Y-1267*
X24920Y-1281*
X24907Y-1295*
X24894Y-1309*
X24880Y-1321*
X24865Y-1333*
X24850Y-1343*
X24834Y-1354*
X24817Y-1362*
X24801Y-1371*
X24783Y-1378*
X24765Y-1384*
X24746Y-1390*
X24728Y-1394*
X24708Y-1398*
X24687Y-1402*
X24667Y-1404*
X24646Y-1405*
X24624Y-1406*
X24602Y-1405*
X24580Y-1404*
X24559Y-1402*
X24539Y-1398*
X24518Y-1394*
X24499Y-1390*
X24480Y-1384*
X24462Y-1378*
X24445Y-1371*
X24428Y-1363*
X24411Y-1354*
X24395Y-1344*
X24380Y-1333*
X24365Y-1322*
X24351Y-1309*
X24338Y-1296*
X24324Y-1282*
X24313Y-1268*
X24302Y-1252*
X24291Y-1236*
X24282Y-1220*
X24273Y-1202*
X24265Y-1184*
X24258Y-1166*
X24252Y-1146*
X24246Y-1127*
X24242Y-1106*
X24238Y-1085*
X24235Y-1064*
X24233Y-1041*
X24232Y-1018*
X24231Y-994*
X24399Y-989D02*
X24400Y-1022D01*
X24403Y-1053*
X24408Y-1082*
X24415Y-1109*
X24424Y-1134*
X24435Y-1157*
X24448Y-1177*
X24462Y-1196*
X24479Y-1213*
X24496Y-1227*
X24515Y-1239*
X24535Y-1249*
X24555Y-1257*
X24576Y-1261*
X24599Y-1265*
X24624Y-1266*
X24647Y-1265*
X24670Y-1262*
X24691Y-1257*
X24712Y-1249*
X24731Y-1239*
X24750Y-1227*
X24767Y-1213*
X24783Y-1196*
X24798Y-1178*
X24810Y-1157*
X24821Y-1134*
X24830Y-1109*
X24837Y-1082*
X24842Y-1052*
X24845Y-1020*
X24846Y-987*
X24845Y-954*
X24842Y-922*
X24837Y-893*
X24831Y-866*
X24822Y-842*
X24812Y-819*
X24799Y-798*
X24785Y-780*
X24769Y-765*
X24752Y-751*
X24734Y-739*
X24714Y-730*
X24693Y-722*
X24671Y-717*
X24648Y-713*
X24624*
X24598*
X24576Y-717*
X24554Y-722*
X24532Y-730*
X24513Y-739*
X24494Y-751*
X24477Y-765*
X24461Y-781*
X24446Y-800*
X24434Y-820*
X24424Y-843*
X24415Y-868*
X24408Y-894*
X24403Y-924*
X24400Y-955*
X24399Y-989*
X25139Y-587D02*
X25302D01*
Y-1023*
Y-1047*
X25303Y-1070*
Y-1090*
X25304Y-1108*
X25305Y-1124*
X25306Y-1137*
X25307Y-1148*
X25309Y-1157*
X25312Y-1169*
X25316Y-1180*
X25320Y-1191*
X25326Y-1202*
X25332Y-1211*
X25340Y-1220*
X25349Y-1228*
X25358Y-1236*
X25369Y-1243*
X25380Y-1250*
X25391Y-1254*
X25404Y-1259*
X25418Y-1262*
X25433Y-1265*
X25448*
X25465Y-1266*
X25482Y-1265*
X25498*
X25512Y-1262*
X25525Y-1259*
X25538Y-1255*
X25550Y-1250*
X25560Y-1245*
X25569Y-1238*
X25577Y-1231*
X25585Y-1223*
X25591Y-1215*
X25597Y-1206*
X25602Y-1198*
X25606Y-1188*
X25609Y-1179*
X25611Y-1169*
X25613Y-1157*
X25614Y-1145*
X25616Y-1130*
X25617Y-1114*
Y-1096*
Y-1076*
X25618Y-1055*
Y-1031*
Y-587*
X25781*
Y-1009*
Y-1045*
X25780Y-1077*
Y-1106*
X25778Y-1133*
X25776Y-1157*
X25774Y-1180*
X25771Y-1198*
X25768Y-1214*
X25760Y-1243*
X25750Y-1269*
X25735Y-1294*
X25720Y-1316*
X25700Y-1335*
X25678Y-1353*
X25653Y-1368*
X25624Y-1381*
X25609Y-1387*
X25593Y-1392*
X25575Y-1396*
X25557Y-1399*
X25536Y-1402*
X25516Y-1404*
X25493Y-1406*
X25470*
X25442*
X25416Y-1404*
X25391Y-1402*
X25369Y-1399*
X25347Y-1395*
X25328Y-1391*
X25311Y-1385*
X25295Y-1379*
X25267Y-1365*
X25242Y-1348*
X25220Y-1330*
X25201Y-1309*
X25185Y-1288*
X25172Y-1266*
X25162Y-1243*
X25155Y-1220*
X25151Y-1202*
X25148Y-1182*
X25146Y-1159*
X25143Y-1135*
X25142Y-1108*
X25140Y-1080*
X25139Y-1049*
Y-1017*
Y-587*
X25954Y-1392D02*
Y-587D01*
X26214*
X26232*
X26250*
X26266*
X26282*
X26297Y-588*
X26310*
X26324Y-589*
X26336Y-590*
X26348Y-591*
X26359*
X26369Y-592*
X26378Y-594*
X26387*
X26394Y-596*
X26401Y-598*
X26407*
X26424Y-604*
X26440Y-610*
X26456Y-618*
X26471Y-628*
X26484Y-638*
X26498Y-650*
X26511Y-663*
X26523Y-678*
X26534Y-694*
X26543Y-710*
X26551Y-728*
X26557Y-747*
X26563Y-767*
X26566Y-788*
X26569Y-811*
Y-835*
Y-853*
X26568Y-870*
X26565Y-887*
X26563Y-902*
X26559Y-918*
X26554Y-932*
X26549Y-946*
X26543Y-959*
X26528Y-983*
X26512Y-1004*
X26494Y-1023*
X26474Y-1039*
X26454Y-1052*
X26432Y-1062*
X26412Y-1071*
X26391Y-1076*
X26375Y-1080*
X26358Y-1082*
X26339Y-1083*
X26319Y-1085*
X26298Y-1087*
X26274*
X26249Y-1088*
X26222*
X26117*
Y-1392*
X25954*
X26117Y-723D02*
Y-952D01*
X26205*
X26228*
X26249Y-951*
X26268Y-950*
X26285Y-949*
X26300Y-947*
X26313Y-945*
X26324Y-943*
X26333Y-939*
X26348Y-932*
X26361Y-923*
X26373Y-913*
X26383Y-900*
X26391Y-886*
X26397Y-871*
X26401Y-854*
X26402Y-837*
Y-826*
X26400Y-816*
X26398Y-806*
X26395Y-797*
X26391Y-788*
X26387Y-780*
X26382Y-772*
X26376Y-765*
X26362Y-751*
X26347Y-741*
X26330Y-733*
X26311Y-728*
X26303Y-727*
X26293Y-726*
X26281Y-725*
X26268Y-724*
X26252*
X26235*
X26216Y-723*
X26194*
X26117*
X33023Y23218D02*
Y23720D01*
X32843*
Y23822*
X33324*
Y23720*
X33145*
Y23218*
X33023*
X33377Y23516D02*
Y23538D01*
X33378Y23560*
X33381Y23581*
X33384Y23601*
X33387Y23620*
X33392Y23638*
X33398Y23655*
X33404Y23671*
X33416Y23693*
X33429Y23714*
X33444Y23734*
X33461Y23753*
X33469Y23762*
X33479Y23770*
X33488Y23778*
X33498Y23785*
X33518Y23798*
X33538Y23808*
X33553Y23814*
X33568Y23818*
X33583Y23822*
X33599Y23826*
X33616Y23828*
X33633Y23830*
X33651Y23831*
X33669Y23832*
X33686Y23831*
X33701*
X33717Y23829*
X33733Y23827*
X33748Y23824*
X33762Y23820*
X33776Y23816*
X33789Y23811*
X33802Y23806*
X33815Y23799*
X33827Y23793*
X33840Y23785*
X33851Y23777*
X33862Y23769*
X33873Y23759*
X33883Y23749*
X33893Y23739*
X33902Y23727*
X33910Y23716*
X33918Y23704*
X33925Y23691*
X33932Y23678*
X33938Y23664*
X33943Y23650*
X33948Y23635*
X33952Y23620*
X33955Y23605*
X33958Y23589*
X33960Y23572*
X33962Y23555*
X33963Y23537*
Y23519*
Y23501*
X33962Y23483*
X33960Y23466*
X33958Y23450*
X33955Y23434*
X33952Y23419*
X33948Y23403*
X33943Y23388*
X33938Y23375*
X33932Y23361*
X33925Y23348*
X33918Y23335*
X33911Y23323*
X33902Y23312*
X33893Y23301*
X33883Y23290*
X33873Y23280*
X33863Y23271*
X33852Y23262*
X33840Y23254*
X33828Y23247*
X33816Y23240*
X33804Y23234*
X33791Y23228*
X33777Y23224*
X33763Y23219*
X33749Y23216*
X33734Y23213*
X33719Y23211*
X33703Y23209*
X33687Y23208*
X33671*
X33654*
X33638Y23209*
X33622Y23211*
X33607Y23213*
X33592Y23216*
X33577Y23219*
X33563Y23224*
X33550Y23228*
X33537Y23234*
X33524Y23240*
X33511Y23247*
X33500Y23254*
X33488Y23262*
X33477Y23270*
X33466Y23280*
X33456Y23290*
X33446Y23300*
X33438Y23311*
X33429Y23323*
X33422Y23335*
X33414Y23347*
X33408Y23360*
X33402Y23374*
X33397Y23387*
X33392Y23402*
X33388Y23417*
X33384Y23432*
X33381Y23448*
X33380Y23464*
X33378Y23481*
X33377Y23498*
Y23516*
X33502Y23520D02*
X33503Y23495D01*
X33505Y23472*
X33509Y23450*
X33514Y23430*
X33521Y23411*
X33529Y23394*
X33539Y23379*
X33550Y23365*
X33562Y23352*
X33575Y23342*
X33589Y23333*
X33604Y23325*
X33619Y23319*
X33635Y23316*
X33652Y23313*
X33671Y23312*
X33688Y23313*
X33706Y23315*
X33722Y23319*
X33737Y23325*
X33752Y23333*
X33765Y23342*
X33778Y23352*
X33791Y23365*
X33801Y23378*
X33811Y23394*
X33819Y23411*
X33825Y23430*
X33831Y23450*
X33834Y23473*
X33837Y23496*
Y23522*
Y23547*
X33834Y23570*
X33831Y23592*
X33826Y23612*
X33820Y23631*
X33812Y23648*
X33802Y23663*
X33792Y23677*
X33780Y23688*
X33767Y23698*
X33753Y23707*
X33739Y23714*
X33723Y23720*
X33706Y23724*
X33689Y23727*
X33671*
X33652*
X33635Y23724*
X33618Y23720*
X33602Y23714*
X33588Y23707*
X33574Y23698*
X33561Y23688*
X33549Y23676*
X33538Y23662*
X33528Y23646*
X33521Y23630*
X33514Y23611*
X33509Y23591*
X33505Y23569*
X33503Y23545*
X33502Y23520*
X34059Y23218D02*
Y23822D01*
X34254*
X34268*
X34281*
X34293Y23821*
X34305*
X34316*
X34326*
X34336Y23820*
X34346Y23819*
X34355*
X34363Y23818*
X34370*
X34377Y23817*
X34384Y23816*
X34389Y23815*
X34394Y23814*
X34399Y23813*
X34411Y23809*
X34424Y23804*
X34436Y23798*
X34447Y23791*
X34457Y23783*
X34467Y23775*
X34477Y23765*
X34486Y23753*
X34494Y23742*
X34501Y23729*
X34507Y23716*
X34512Y23701*
X34516Y23687*
X34518Y23671*
X34520Y23654*
X34521Y23636*
Y23622*
X34519Y23609*
X34518Y23597*
X34516Y23585*
X34513Y23573*
X34509Y23563*
X34505Y23552*
X34500Y23543*
X34490Y23524*
X34477Y23509*
X34464Y23495*
X34449Y23483*
X34434Y23473*
X34418Y23465*
X34402Y23459*
X34387Y23455*
X34375Y23452*
X34362Y23450*
X34348Y23449*
X34333Y23448*
X34317Y23447*
X34299Y23446*
X34280*
X34260*
X34181*
Y23218*
X34059*
X34181Y23720D02*
Y23548D01*
X34247*
X34264*
X34280*
X34294Y23549*
X34307Y23550*
X34319Y23551*
X34328Y23553*
X34336Y23555*
X34343Y23557*
X34355Y23563*
X34365Y23570*
X34374Y23577*
X34381Y23587*
X34387Y23597*
X34391Y23609*
X34394Y23621*
X34395Y23634*
Y23642*
X34394Y23650*
X34392Y23657*
X34390Y23664*
X34387Y23671*
X34384Y23677*
X34380Y23683*
X34375Y23688*
X34365Y23698*
X34354Y23706*
X34341Y23712*
X34327Y23716*
X34321Y23717*
X34313*
X34304Y23718*
X34294Y23719*
X34283*
X34270*
X34255Y23720*
X34239*
X34181*
X34825Y23413D02*
X34943Y23425D01*
X34946Y23410*
X34950Y23397*
X34955Y23385*
X34959Y23373*
X34965Y23362*
X34972Y23353*
X34979Y23345*
X34987Y23337*
X34995Y23331*
X35004Y23325*
X35014Y23320*
X35025Y23316*
X35037Y23313*
X35049Y23311*
X35062Y23310*
X35075Y23309*
X35089Y23310*
X35102Y23311*
X35115Y23313*
X35126Y23315*
X35137Y23319*
X35147Y23323*
X35155Y23328*
X35164Y23334*
X35170Y23341*
X35177Y23347*
X35181Y23354*
X35186Y23361*
X35189Y23368*
X35191Y23377*
X35193Y23384*
Y23393*
Y23403*
X35190Y23412*
X35186Y23421*
X35181Y23429*
X35173Y23436*
X35164Y23443*
X35151Y23449*
X35137Y23455*
X35131Y23457*
X35123Y23460*
X35113Y23462*
X35102Y23465*
X35089Y23469*
X35074Y23473*
X35057Y23477*
X35040Y23482*
X35016Y23488*
X34994Y23495*
X34974Y23501*
X34956Y23509*
X34940Y23517*
X34926Y23524*
X34913Y23532*
X34902Y23541*
X34889Y23554*
X34878Y23568*
X34868Y23582*
X34861Y23597*
X34854Y23612*
X34850Y23629*
X34848Y23645*
X34847Y23663*
Y23675*
X34848Y23686*
X34850Y23697*
X34853Y23708*
X34857Y23719*
X34861Y23729*
X34867Y23739*
X34873Y23750*
X34880Y23759*
X34887Y23769*
X34896Y23777*
X34904Y23785*
X34914Y23792*
X34925Y23799*
X34936Y23805*
X34948Y23811*
X34961Y23816*
X34974Y23820*
X34988Y23824*
X35002Y23827*
X35018Y23829*
X35033Y23831*
X35050*
X35067Y23832*
X35095Y23831*
X35120Y23829*
X35144Y23825*
X35167Y23819*
X35187Y23812*
X35206Y23804*
X35223Y23794*
X35238Y23782*
X35252Y23769*
X35263Y23755*
X35274Y23740*
X35282Y23724*
X35288Y23707*
X35294Y23688*
X35297Y23669*
X35298Y23649*
X35176Y23644*
X35174Y23655*
X35171Y23665*
X35168Y23675*
X35164Y23684*
X35160Y23691*
X35154Y23698*
X35149Y23705*
X35142Y23710*
X35136Y23715*
X35128Y23719*
X35119Y23723*
X35111Y23726*
X35100Y23728*
X35089Y23730*
X35078*
X35066Y23731*
X35053Y23730*
X35040*
X35029Y23728*
X35018Y23726*
X35008Y23722*
X34999Y23719*
X34990Y23714*
X34982Y23709*
X34978Y23706*
X34974Y23701*
X34971Y23697*
X34968Y23693*
X34966Y23688*
X34964Y23682*
X34963Y23677*
Y23671*
X34964Y23661*
X34968Y23652*
X34973Y23643*
X34981Y23635*
X34988Y23630*
X34997Y23625*
X35008Y23620*
X35021Y23615*
X35036Y23610*
X35053Y23605*
X35072Y23600*
X35093Y23594*
X35115Y23589*
X35135Y23584*
X35153Y23579*
X35170Y23573*
X35186Y23567*
X35200Y23562*
X35213Y23556*
X35225Y23551*
X35245Y23538*
X35263Y23524*
X35278Y23508*
X35291Y23489*
X35297Y23479*
X35302Y23469*
X35306Y23457*
X35310Y23446*
X35312Y23433*
X35314Y23421*
X35315Y23407*
Y23393*
Y23380*
X35314Y23368*
X35311Y23355*
X35308Y23343*
X35304Y23331*
X35300Y23319*
X35294Y23307*
X35287Y23296*
X35279Y23285*
X35271Y23274*
X35262Y23265*
X35252Y23256*
X35241Y23248*
X35230Y23241*
X35218Y23234*
X35205Y23228*
X35191Y23223*
X35177Y23219*
X35162Y23215*
X35146Y23212*
X35129Y23209*
X35112Y23208*
X35093Y23207*
X35074Y23206*
X35046Y23207*
X35020Y23210*
X34995Y23214*
X34972Y23219*
X34952Y23227*
X34932Y23236*
X34914Y23247*
X34898Y23259*
X34883Y23273*
X34870Y23289*
X34859Y23306*
X34849Y23324*
X34841Y23344*
X34834Y23365*
X34828Y23388*
X34825Y23413*
X35393Y23516D02*
X35394Y23538D01*
X35395Y23560*
X35398Y23581*
X35400Y23601*
X35404Y23620*
X35409Y23638*
X35415Y23655*
X35421Y23671*
X35432Y23693*
X35445Y23714*
X35461Y23734*
X35477Y23753*
X35486Y23762*
X35496Y23770*
X35505Y23778*
X35514Y23785*
X35535Y23798*
X35555Y23808*
X35570Y23814*
X35585Y23818*
X35600Y23822*
X35616Y23826*
X35633Y23828*
X35650Y23830*
X35667Y23831*
X35686Y23832*
X35702Y23831*
X35718*
X35734Y23829*
X35750Y23827*
X35764Y23824*
X35778Y23820*
X35793Y23816*
X35806Y23811*
X35819Y23806*
X35832Y23799*
X35844Y23793*
X35856Y23785*
X35868Y23777*
X35879Y23769*
X35889Y23759*
X35900Y23749*
X35910Y23739*
X35918Y23727*
X35927Y23716*
X35935Y23704*
X35942Y23691*
X35949Y23678*
X35954Y23664*
X35960Y23650*
X35964Y23635*
X35969Y23620*
X35972Y23605*
X35975Y23589*
X35977Y23572*
X35979Y23555*
X35980Y23537*
Y23519*
Y23501*
X35979Y23483*
X35977Y23466*
X35975Y23450*
X35972Y23434*
X35969Y23419*
X35964Y23403*
X35960Y23388*
X35954Y23375*
X35949Y23361*
X35942Y23348*
X35935Y23335*
X35927Y23323*
X35919Y23312*
X35910Y23301*
X35900Y23290*
X35890Y23280*
X35879Y23271*
X35869Y23262*
X35857Y23254*
X35845Y23247*
X35833Y23240*
X35820Y23234*
X35807Y23228*
X35794Y23224*
X35780Y23219*
X35765Y23216*
X35751Y23213*
X35735Y23211*
X35720Y23209*
X35704Y23208*
X35688*
X35671*
X35654Y23209*
X35639Y23211*
X35624Y23213*
X35608Y23216*
X35594Y23219*
X35580Y23224*
X35566Y23228*
X35553Y23234*
X35540Y23240*
X35528Y23247*
X35516Y23254*
X35505Y23262*
X35494Y23270*
X35483Y23280*
X35473Y23290*
X35463Y23300*
X35454Y23311*
X35446Y23323*
X35438Y23335*
X35431Y23347*
X35425Y23360*
X35419Y23374*
X35413Y23387*
X35409Y23402*
X35405Y23417*
X35401Y23432*
X35398Y23448*
X35396Y23464*
X35395Y23481*
X35394Y23498*
X35393Y23516*
X35519Y23520D02*
X35520Y23495D01*
X35522Y23472*
X35526Y23450*
X35531Y23430*
X35538Y23411*
X35546Y23394*
X35556Y23379*
X35566Y23365*
X35579Y23352*
X35592Y23342*
X35606Y23333*
X35621Y23325*
X35636Y23319*
X35652Y23316*
X35669Y23313*
X35688Y23312*
X35705Y23313*
X35722Y23315*
X35738Y23319*
X35754Y23325*
X35768Y23333*
X35782Y23342*
X35795Y23352*
X35807Y23365*
X35818Y23378*
X35827Y23394*
X35836Y23411*
X35842Y23430*
X35848Y23450*
X35851Y23473*
X35853Y23496*
X35854Y23522*
X35853Y23547*
X35851Y23570*
X35848Y23592*
X35843Y23612*
X35836Y23631*
X35829Y23648*
X35819Y23663*
X35809Y23677*
X35797Y23688*
X35784Y23698*
X35770Y23707*
X35755Y23714*
X35739Y23720*
X35723Y23724*
X35706Y23727*
X35688*
X35669*
X35651Y23724*
X35635Y23720*
X35619Y23714*
X35604Y23707*
X35591Y23698*
X35578Y23688*
X35565Y23676*
X35555Y23662*
X35545Y23646*
X35538Y23630*
X35531Y23611*
X35526Y23591*
X35522Y23569*
X35520Y23545*
X35519Y23520*
X36078Y23218D02*
Y23817D01*
X36201*
Y23320*
X36504*
Y23218*
X36078*
X36590Y23822D02*
X36813D01*
X36831*
X36849Y23821*
X36864Y23820*
X36879Y23819*
X36893Y23817*
X36906Y23815*
X36918Y23813*
X36928Y23810*
X36941Y23806*
X36954Y23801*
X36965Y23795*
X36977Y23789*
X36988Y23781*
X36999Y23773*
X37009Y23764*
X37019Y23755*
X37037Y23733*
X37052Y23710*
X37066Y23685*
X37077Y23656*
X37081Y23642*
X37085Y23626*
X37089Y23609*
X37092Y23592*
X37094Y23574*
X37095Y23555*
X37097Y23535*
Y23514*
Y23496*
X37095Y23478*
X37094Y23461*
X37092Y23444*
X37089Y23429*
X37086Y23414*
X37082Y23399*
X37078Y23385*
X37072Y23369*
X37065Y23354*
X37058Y23339*
X37050Y23326*
X37042Y23313*
X37033Y23300*
X37023Y23289*
X37013Y23279*
X37005Y23271*
X36996Y23264*
X36986Y23257*
X36976Y23251*
X36965Y23245*
X36953Y23240*
X36941Y23235*
X36928Y23231*
X36917Y23228*
X36906Y23225*
X36893Y23222*
X36880Y23221*
X36866Y23219*
X36851Y23218*
X36836*
X36820*
X36590*
Y23822*
X36712Y23720D02*
Y23320D01*
X36803*
X36815*
X36827*
X36838*
X36847Y23321*
X36856Y23322*
X36864Y23323*
X36871Y23324*
X36877Y23326*
X36892Y23330*
X36904Y23336*
X36916Y23342*
X36926Y23351*
X36931Y23355*
X36936Y23361*
X36940Y23367*
X36944Y23374*
X36948Y23382*
X36952Y23390*
X36955Y23399*
X36958Y23409*
X36961Y23420*
X36964Y23431*
X36966Y23443*
X36968Y23457*
X36969Y23471*
X36970Y23486*
X36971Y23502*
Y23519*
Y23537*
X36970Y23553*
X36969Y23567*
X36968Y23581*
X36966Y23594*
X36964Y23606*
X36961Y23617*
X36958Y23627*
X36952Y23645*
X36944Y23660*
X36934Y23674*
X36924Y23685*
X36912Y23695*
X36899Y23703*
X36883Y23709*
X36867Y23714*
X36860Y23715*
X36851Y23716*
X36841Y23717*
X36830Y23718*
X36816Y23719*
X36801*
X36785Y23720*
X36767*
X36712*
X37200Y23218D02*
Y23822D01*
X37648*
Y23720*
X37323*
Y23586*
X37625*
Y23483*
X37323*
Y23320*
X37659*
Y23218*
X37200*
X37763D02*
Y23822D01*
X38020*
X38043*
X38065Y23821*
X38085Y23819*
X38103Y23818*
X38120Y23815*
X38135Y23812*
X38149Y23809*
X38161Y23805*
X38171Y23801*
X38181Y23796*
X38191Y23790*
X38200Y23783*
X38209Y23775*
X38216Y23767*
X38224Y23757*
X38230Y23747*
X38237Y23737*
X38242Y23726*
X38247Y23715*
X38250Y23703*
X38253Y23691*
X38255Y23678*
X38256Y23665*
X38257Y23652*
X38256Y23636*
X38255Y23620*
X38252Y23605*
X38247Y23590*
X38242Y23577*
X38235Y23564*
X38226Y23551*
X38217Y23540*
X38207Y23530*
X38195Y23520*
X38181Y23511*
X38167Y23504*
X38152Y23498*
X38135Y23492*
X38117Y23488*
X38098Y23484*
X38117Y23472*
X38134Y23460*
X38150Y23447*
X38163Y23433*
X38170Y23426*
X38177Y23417*
X38185Y23407*
X38193Y23395*
X38202Y23382*
X38212Y23368*
X38222Y23352*
X38232Y23335*
X38306Y23218*
X38160*
X38073Y23349*
X38061Y23366*
X38051Y23381*
X38041Y23395*
X38033Y23407*
X38025Y23417*
X38019Y23426*
X38013Y23433*
X38008Y23438*
X38000Y23446*
X37991Y23453*
X37981Y23459*
X37972Y23463*
X37966Y23465*
X37961Y23466*
X37954Y23467*
X37946Y23468*
X37939Y23469*
X37930*
X37920Y23470*
X37910*
X37886*
Y23218*
X37763*
X37886Y23566D02*
X37975D01*
X37997*
X38015Y23567*
X38032*
X38047Y23568*
X38059Y23569*
X38070Y23570*
X38078Y23572*
X38085Y23573*
X38095Y23578*
X38104Y23584*
X38112Y23591*
X38119Y23599*
X38124Y23609*
X38128Y23619*
X38131Y23632*
Y23645*
X38130Y23659*
X38127Y23672*
X38122Y23684*
X38115Y23694*
X38106Y23703*
X38095Y23709*
X38083Y23714*
X38069Y23717*
X38064Y23718*
X38058Y23719*
X38050*
X38040*
X38028*
X38014Y23720*
X37998*
X37981*
X37886*
Y23566*
X38371Y23218D02*
Y23822D01*
X38554*
X38663Y23410*
X38770Y23822*
X38953*
Y23218*
X38840*
Y23693*
X38721Y23218*
X38603*
X38484Y23693*
Y23218*
X38371*
X39396Y23457D02*
X39312Y23681D01*
X39230Y23457*
X39396*
X39620Y23218D02*
X39487D01*
X39435Y23355*
X39193*
X39143Y23218*
X39013*
X39249Y23822*
X39378*
X39620Y23218*
X39654Y23413D02*
X39772Y23425D01*
X39775Y23410*
X39779Y23397*
X39784Y23385*
X39788Y23373*
X39794Y23362*
X39801Y23353*
X39808Y23345*
X39815Y23337*
X39824Y23331*
X39833Y23325*
X39843Y23320*
X39854Y23316*
X39866Y23313*
X39877Y23311*
X39890Y23310*
X39904Y23309*
X39918Y23310*
X39931Y23311*
X39944Y23313*
X39955Y23315*
X39966Y23319*
X39975Y23323*
X39984Y23328*
X39993Y23334*
X39999Y23341*
X40006Y23347*
X40010Y23354*
X40014Y23361*
X40018Y23368*
X40020Y23377*
X40022Y23384*
Y23393*
Y23403*
X40019Y23412*
X40015Y23421*
X40010Y23429*
X40002Y23436*
X39993Y23443*
X39980Y23449*
X39966Y23455*
X39960Y23457*
X39952Y23460*
X39942Y23462*
X39931Y23465*
X39918Y23469*
X39903Y23473*
X39886Y23477*
X39869Y23482*
X39845Y23488*
X39823Y23495*
X39803Y23501*
X39785Y23509*
X39769Y23517*
X39755Y23524*
X39742Y23532*
X39731Y23541*
X39718Y23554*
X39707Y23568*
X39697Y23582*
X39690Y23597*
X39683Y23612*
X39679Y23629*
X39677Y23645*
X39675Y23663*
X39676Y23675*
X39677Y23686*
X39679Y23697*
X39682Y23708*
X39686Y23719*
X39690Y23729*
X39696Y23739*
X39701Y23750*
X39709Y23759*
X39716Y23769*
X39725Y23777*
X39733Y23785*
X39743Y23792*
X39754Y23799*
X39765Y23805*
X39777Y23811*
X39789Y23816*
X39803Y23820*
X39817Y23824*
X39831Y23827*
X39847Y23829*
X39862Y23831*
X39879*
X39896Y23832*
X39924Y23831*
X39949Y23829*
X39973Y23825*
X39996Y23819*
X40016Y23812*
X40035Y23804*
X40052Y23794*
X40067Y23782*
X40081Y23769*
X40092Y23755*
X40102Y23740*
X40111Y23724*
X40117Y23707*
X40123Y23688*
X40125Y23669*
X40127Y23649*
X40005Y23644*
X40003Y23655*
X40000Y23665*
X39997Y23675*
X39993Y23684*
X39988Y23691*
X39983Y23698*
X39978Y23705*
X39971Y23710*
X39965Y23715*
X39957Y23719*
X39948Y23723*
X39939Y23726*
X39929Y23728*
X39918Y23730*
X39907*
X39895Y23731*
X39882Y23730*
X39869*
X39858Y23728*
X39847Y23726*
X39837Y23722*
X39828Y23719*
X39819Y23714*
X39811Y23709*
X39807Y23706*
X39802Y23701*
X39800Y23697*
X39797Y23693*
X39795Y23688*
X39793Y23682*
X39792Y23677*
Y23671*
X39793Y23661*
X39797Y23652*
X39802Y23643*
X39810Y23635*
X39817Y23630*
X39825Y23625*
X39837Y23620*
X39850Y23615*
X39864Y23610*
X39882Y23605*
X39901Y23600*
X39922Y23594*
X39944Y23589*
X39964Y23584*
X39982Y23579*
X39999Y23573*
X40015Y23567*
X40029Y23562*
X40042Y23556*
X40053Y23551*
X40074Y23538*
X40092Y23524*
X40107Y23508*
X40120Y23489*
X40126Y23479*
X40131Y23469*
X40135Y23457*
X40138Y23446*
X40141Y23433*
X40143Y23421*
X40144Y23407*
Y23393*
Y23380*
X40143Y23368*
X40140Y23355*
X40137Y23343*
X40133Y23331*
X40128Y23319*
X40123Y23307*
X40115Y23296*
X40108Y23285*
X40100Y23274*
X40091Y23265*
X40081Y23256*
X40070Y23248*
X40059Y23241*
X40047Y23234*
X40034Y23228*
X40020Y23223*
X40006Y23219*
X39991Y23215*
X39975Y23212*
X39958Y23209*
X39941Y23208*
X39922Y23207*
X39903Y23206*
X39875Y23207*
X39849Y23210*
X39824Y23214*
X39801Y23219*
X39781Y23227*
X39761Y23236*
X39743Y23247*
X39727Y23259*
X39712Y23273*
X39699Y23289*
X39688Y23306*
X39678Y23324*
X39670Y23344*
X39663Y23365*
X39657Y23388*
X39654Y23413*
X40249Y23218D02*
Y23822D01*
X40371*
Y23554*
X40617Y23822*
X40782*
X40554Y23586*
X40794Y23218*
X40636*
X40469Y23501*
X40371Y23400*
Y23218*
X40249*
G54D12*
X33162Y13102D02*
X33156Y13153D01*
X33140Y13194*
X33112Y13219*
X33071Y13231*
Y13260*
X33502*
Y13231*
X33461Y13216*
X33433Y13191*
X33414Y13153*
X33408Y13102*
Y12107*
X33414Y12057*
X33433Y12019*
X33461Y11991*
X33502Y11978*
Y11950*
X33071*
Y11978*
X33093Y11981*
X33112Y11991*
X33128Y12000*
X33140Y12016*
X33150Y12035*
X33156Y12057*
X33159Y12079*
X33162Y12107*
Y13102*
X34510Y14983D02*
X34743D01*
X34551Y14132*
X34324*
X34510Y14983*
X34529Y11937D02*
X34491D01*
X33824Y12646*
Y12107*
X33827Y12057*
X33846Y12019*
X33874Y11991*
X33912Y11978*
Y11950*
X33603*
Y11978*
X33641Y11994*
X33669Y12019*
X33685Y12060*
X33691Y12107*
Y12781*
X33685Y12831*
X33669Y12866*
X33641Y12894*
X33603Y12910*
Y12935*
X33887*
X34397Y12378*
Y12778*
X34391Y12828*
X34375Y12866*
X34346Y12894*
X34309Y12910*
Y12935*
X34617*
Y12910*
X34580Y12894*
X34551Y12866*
X34532Y12828*
X34529Y12778*
Y11937*
X34671Y15301D02*
X34699D01*
X34724Y15294*
X34746Y15285*
X34765Y15269*
X34778Y15254*
X34787Y15231*
X34794Y15206*
X34797Y15178*
X34794Y15146*
X34787Y15121*
X34778Y15099*
X34765Y15080*
X34746Y15068*
X34724Y15058*
X34699Y15052*
X34671Y15049*
X34639Y15052*
X34614Y15058*
X34592Y15068*
X34573Y15080*
X34557Y15099*
X34548Y15121*
X34542Y15146*
X34539Y15178*
X34542Y15206*
X34548Y15231*
X34557Y15254*
X34573Y15269*
X34592Y15285*
X34614Y15294*
X34639Y15301*
X34671*
X34872Y15083D02*
X34951D01*
X35024Y15080*
X35093Y15077*
X35153Y15071*
X35206Y15065*
X35254Y15055*
X35298Y15046*
X35332Y15033*
X35329Y14986*
Y14945*
X35326Y14907*
Y14879*
X35323Y14854*
Y14835*
Y14822*
Y14816*
Y14759*
X35329Y14709*
X35339Y14668*
X35351Y14630*
X35370Y14598*
X35392Y14576*
X35417Y14557*
X35449Y14545*
X35458Y14444*
Y14343*
X35452Y14271*
X35443Y14205*
X35433Y14142*
X35420Y14088*
X35339Y14057*
X35260Y14028*
X35200Y14000*
X35140Y13965*
X35077Y13931*
X35017Y13890*
X34957Y13843*
X34907Y13798*
X34863Y13748*
X34828Y13701*
X34800Y13650*
X34781Y13600*
X34769Y13550*
X34765Y13499*
X34769Y13436*
X34778Y13376*
X34791Y13326*
X34809Y13279*
X34772Y13257*
X34728Y13244*
X34683Y13241*
X34633*
X34576Y13247*
X34517Y13263*
X34463Y13288*
X34413Y13323*
X34362Y13367*
X34315Y13420*
X34268Y13480*
X34227Y13553*
X34145Y13723*
X34063Y13893*
X34041Y13931*
X34019Y13965*
X33997Y13994*
X33975Y14019*
X33953Y14038*
X33931Y14050*
X33906Y14057*
X33880Y14060*
X33846Y14057*
X33811Y14041*
X33776Y14016*
X33745Y13981*
X33713Y13943*
X33682Y13918*
X33654Y13902*
X33625Y13899*
X33603*
X33584Y13906*
X33562Y13915*
X33543Y13931*
X33524Y13946*
X33506Y13969*
X33487Y13994*
X33468Y14025*
X33452Y14060*
X33430Y14104*
X33405Y14157*
X33373Y14217*
X33367Y14230*
X33357Y14243*
X33342Y14261*
X33323Y14283*
X33301Y14306*
X33276Y14334*
X33244Y14365*
X33213Y14400*
X33184Y14428*
X33159Y14457*
X33137Y14485*
X33118Y14517*
X33106Y14548*
X33093Y14580*
X33087Y14611*
X33080Y14646*
X33704*
Y15531*
X34290*
Y15159*
X34312Y15140*
X34340Y15128*
X34381Y15115*
X34428Y15106*
X34365Y14809*
X34176*
X34113Y14545*
X34302*
X34236Y14220*
X34224Y14154*
X34217Y14094*
Y14044*
X34227Y13997*
X34239Y13959*
X34258Y13928*
X34280Y13899*
X34306Y13874*
X34334Y13858*
X34369Y13846*
X34409Y13836*
X34450*
X34526Y13839*
X34605Y13852*
X34687Y13871*
X34769Y13899*
X34828Y14129*
X34809Y14126*
X34787Y14123*
X34759Y14120*
X34724*
X34696Y14126*
X34677Y14139*
X34671Y14164*
X34674Y14198*
X34753Y14545*
X34942*
X34998Y14809*
X34809*
X34872Y15083*
X35093Y12954D02*
X35150Y12951D01*
X35203Y12945*
X35260Y12932*
X35313Y12917*
X35329*
X35335Y12923*
X35345Y12942*
X35351Y12948*
X35367Y12954*
X35439Y12715*
X35411Y12706*
X35383Y12737*
X35351Y12762*
X35320Y12784*
X35282Y12803*
X35241Y12819*
X35200Y12828*
X35156Y12835*
X35106*
X35061*
X35020Y12828*
X34986Y12819*
X34957Y12806*
X34935Y12787*
X34923Y12769*
X34913Y12743*
X34910Y12715*
Y12696*
X34920Y12680*
X34932Y12665*
X34948Y12649*
X34970Y12633*
X34998Y12620*
X35030Y12608*
X35068Y12598*
X35124Y12580*
X35175Y12564*
X35222Y12548*
X35260Y12535*
X35294Y12526*
X35323Y12513*
X35342Y12507*
X35357Y12498*
X35395Y12476*
X35427Y12450*
X35455Y12422*
X35477Y12391*
X35493Y12359*
X35506Y12321*
X35515Y12283*
Y12243*
Y12205*
X35509Y12170*
X35502Y12139*
X35490Y12110*
X35474Y12082*
X35455Y12057*
X35436Y12035*
X35411Y12013*
X35383Y11997*
X35351Y11981*
X35317Y11969*
X35279Y11956*
X35238Y11946*
X35194Y11943*
X35146Y11937*
X35093*
X35030Y11940*
X34964Y11946*
X34894Y11956*
X34822Y11972*
X34813Y11975*
X34803Y11972*
X34797Y11962*
X34791Y11950*
X34781Y11943*
X34762Y11937*
X34658Y12224*
X34690Y12236*
X34728Y12195*
X34769Y12157*
X34809Y12126*
X34857Y12101*
X34907Y12079*
X34961Y12066*
X35017Y12057*
X35077Y12054*
X35128Y12057*
X35172Y12063*
X35206Y12072*
X35238Y12088*
X35260Y12107*
X35279Y12129*
X35288Y12157*
X35291Y12189*
X35288Y12211*
X35282Y12230*
X35269Y12249*
X35254Y12268*
X35231Y12283*
X35206Y12299*
X35175Y12312*
X35140Y12324*
X35077Y12343*
X35024Y12359*
X34976Y12375*
X34939Y12387*
X34907Y12400*
X34882Y12406*
X34866Y12413*
X34857Y12419*
X34819Y12441*
X34787Y12463*
X34762Y12491*
X34740Y12520*
X34724Y12554*
X34712Y12589*
X34706Y12627*
X34702Y12665*
X34706Y12696*
X34709Y12728*
X34718Y12756*
X34731Y12784*
X34750Y12809*
X34769Y12831*
X34794Y12854*
X34819Y12876*
X34882Y12910*
X34945Y12935*
X35017Y12948*
X35093Y12954*
X35855Y12740D02*
X35852Y12775D01*
X35843Y12800*
X35827Y12813*
X35805Y12819*
X35742*
X35691Y12813*
X35654Y12809*
X35622Y12800*
X35600Y12787*
X35572Y12765*
X35543Y12737*
X35512Y12702*
X35483Y12709*
X35562Y12935*
X36375*
X36450Y12709*
X36428Y12702*
X36397Y12737*
X36365Y12765*
X36340Y12787*
X36318Y12800*
X36290Y12809*
X36252Y12813*
X36202Y12819*
X36142*
X36117Y12813*
X36098Y12800*
X36085Y12775*
X36082Y12740*
Y12107*
X36088Y12057*
X36104Y12019*
X36132Y11991*
X36173Y11978*
Y11950*
X35767*
Y11978*
X35808Y11994*
X35833Y12022*
X35852Y12060*
X35855Y12107*
Y12740*
X36712Y13417D02*
Y13389D01*
X36718Y13364*
X36724Y13342*
X36734Y13326*
X36750Y13310*
X36765Y13298*
X36784Y13291*
X36806Y13285*
Y13260*
X36378*
Y13285*
X36397Y13291*
X36416Y13298*
X36428Y13310*
X36441Y13326*
X36450Y13342*
X36457Y13364*
X36463Y13389*
Y13417*
Y14365*
X36457Y14391*
X36441Y14406*
X36413Y14416*
X36375Y14422*
X36331*
X36293Y14419*
X36258*
X36227*
X36198Y14416*
X36173Y14413*
X36154Y14409*
X36135Y14406*
X36098Y14397*
X36060Y14381*
X36028Y14359*
X36000Y14331*
X35978Y14340*
X36054Y14570*
X37124*
X37200Y14340*
X37172Y14331*
X37146Y14359*
X37115Y14381*
X37080Y14397*
X37043Y14406*
X37027Y14409*
X37005Y14413*
X36980Y14416*
X36951Y14419*
X36920*
X36885*
X36847Y14422*
X36806*
X36765Y14416*
X36734Y14406*
X36718Y14391*
X36712Y14365*
Y13417*
X36765Y12494D02*
X36904D01*
X36961Y12498*
X37008Y12504*
X37049Y12517*
X37083Y12535*
X37109Y12561*
X37128Y12589*
X37137Y12624*
X37143Y12661*
X37140Y12699*
X37131Y12731*
X37112Y12756*
X37090Y12778*
X37061Y12797*
X37027Y12809*
X36983Y12816*
X36935Y12819*
X36838*
X36806Y12813*
X36781Y12800*
X36769Y12775*
X36765Y12740*
Y12494*
X36967Y13260D02*
Y13285D01*
X37008Y13301*
X37033Y13329*
X37052Y13370*
X37055Y13420*
Y14091*
X37052Y14142*
X37033Y14180*
X37008Y14205*
X36967Y14217*
Y14246*
X37735*
X37808Y14038*
X37783Y14025*
X37764Y14047*
X37739Y14069*
X37710Y14088*
X37682Y14101*
X37650Y14113*
X37616Y14123*
X37578Y14126*
X37537Y14129*
X37348*
X37317Y14123*
X37294Y14110*
X37282Y14088*
X37276Y14057*
Y13839*
X37531*
X37559*
X37584Y13843*
X37606Y13849*
X37625Y13858*
X37638Y13868*
X37650Y13880*
X37657Y13896*
X37663Y13912*
X37688*
Y13647*
X37663*
X37657Y13663*
X37650Y13676*
X37638Y13688*
X37625Y13698*
X37606Y13704*
X37584Y13710*
X37559Y13713*
X37531*
X37276*
Y13452*
X37279Y13427*
X37282Y13408*
X37288Y13395*
X37294Y13389*
X37317Y13380*
X37348Y13376*
X37581*
X37625Y13380*
X37663Y13383*
X37701Y13392*
X37735Y13402*
X37767Y13417*
X37795Y13436*
X37820Y13455*
X37843Y13480*
X37865Y13471*
X37789Y13260*
X36967*
X36998Y12935D02*
X37083Y12932D01*
X37159Y12920*
X37222Y12901*
X37276Y12872*
X37313Y12838*
X37342Y12794*
X37361Y12743*
X37367Y12683*
X37361Y12636*
X37348Y12592*
X37329Y12554*
X37298Y12520*
X37260Y12491*
X37216Y12466*
X37159Y12447*
X37096Y12431*
X37131Y12416*
X37162Y12394*
X37194Y12369*
X37228Y12340*
X37257Y12306*
X37288Y12268*
X37320Y12224*
X37348Y12173*
X37373Y12132*
X37398Y12098*
X37420Y12066*
X37443Y12041*
X37465Y12022*
X37487Y12006*
X37506Y11997*
X37524*
Y11972*
X37493Y11959*
X37461Y11950*
X37427Y11943*
X37392*
X37354*
X37317Y11950*
X37285Y11959*
X37250Y11969*
X37222Y11984*
X37194Y12006*
X37169Y12028*
X37146Y12054*
X37115Y12113*
X37087Y12170*
X37058Y12220*
X37033Y12268*
X37017Y12296*
X36998Y12318*
X36983Y12334*
X36964Y12350*
X36942Y12362*
X36923Y12372*
X36901Y12375*
X36879Y12378*
X36765*
Y12107*
X36769Y12057*
X36787Y12019*
X36816Y11991*
X36854Y11978*
Y11950*
X36457*
Y11978*
X36494Y11991*
X36523Y12019*
X36539Y12057*
X36545Y12107*
Y12778*
X36539Y12828*
X36523Y12866*
X36494Y12894*
X36457Y12910*
Y12935*
X36998*
X38293Y13735D02*
X38009Y14110D01*
X37975Y14154*
X37937Y14186*
X37902Y14208*
X37865Y14217*
Y14246*
X38324*
Y14217*
X38299Y14214*
X38280Y14202*
X38271Y14186*
X38265Y14164*
X38271Y14135*
X38290Y14104*
X38422Y13906*
X38583Y14123*
X38595Y14139*
X38602Y14157*
X38605Y14170*
X38602Y14186*
X38595Y14198*
X38586Y14208*
X38570Y14214*
X38551Y14217*
Y14246*
X38917*
Y14217*
X38869Y14205*
X38828Y14186*
X38787Y14154*
X38750Y14113*
X38513Y13795*
X38791Y13392*
X38825Y13351*
X38863Y13313*
X38872Y13326*
X38882Y13339*
X38894Y13357*
X38907Y13380*
X38923Y13405*
X38939Y13430*
X38954Y13461*
X38973Y13496*
X39291Y14246*
X39477*
X39833Y13398*
X39855Y13354*
X39883Y13323*
X39918Y13298*
X39959Y13285*
Y13257*
X39531*
Y13285*
X39562Y13288*
X39581Y13301*
X39594Y13320*
X39600Y13348*
X39594Y13373*
X39584Y13405*
X39531Y13537*
X39121*
X39065Y13398*
X39058Y13373*
X39055Y13348*
X39061Y13320*
X39074Y13301*
X39096Y13288*
X39128Y13285*
Y13257*
X38488*
Y13285*
X38517Y13288*
X38535Y13298*
X38548Y13317*
X38551Y13339*
X38548Y13370*
X38529Y13405*
X38378Y13613*
X38208Y13386*
X38192Y13354*
X38186Y13329*
X38189Y13310*
X38198Y13294*
X38214Y13288*
X38239Y13285*
Y13257*
X37865*
Y13285*
X37915Y13298*
X37962Y13323*
X38003Y13357*
X38047Y13408*
X38293Y13735*
X38400Y12277D02*
X38397Y12233D01*
X38391Y12189*
X38378Y12151*
X38362Y12113*
X38340Y12079*
X38315Y12050*
X38283Y12022*
X38249Y12000*
X38189Y11969*
X38123Y11950*
X38054Y11937*
X37975Y11934*
X37893Y11937*
X37817Y11950*
X37748Y11969*
X37685Y12000*
X37647Y12022*
X37616Y12050*
X37591Y12082*
X37569Y12113*
X37550Y12151*
X37537Y12189*
X37531Y12233*
X37528Y12277*
Y12778*
X37521Y12828*
X37506Y12869*
X37477Y12894*
X37439Y12910*
Y12935*
X37839*
Y12910*
X37798Y12894*
X37770Y12869*
X37754Y12828*
X37748Y12778*
Y12277*
X37751Y12227*
X37764Y12180*
X37786Y12142*
X37811Y12110*
X37849Y12085*
X37893Y12069*
X37943Y12057*
X38003Y12054*
X38066Y12057*
X38120Y12069*
X38167Y12085*
X38205Y12110*
X38233Y12142*
X38252Y12180*
X38265Y12227*
X38271Y12277*
Y12778*
X38265Y12828*
X38246Y12866*
X38217Y12894*
X38180Y12910*
Y12935*
X38488*
Y12910*
X38450Y12894*
X38422Y12866*
X38403Y12828*
X38400Y12778*
Y12277*
X39329Y14054D02*
X39172Y13654D01*
X39487*
X39329Y14054*
X39729Y12107D02*
X39735Y12057D01*
X39754Y12016*
X39783Y11991*
X39824Y11975*
Y11950*
X39417*
Y11975*
X39439Y11981*
X39458Y11987*
X39474Y12000*
X39487Y12016*
X39496Y12031*
X39502Y12054*
X39509Y12079*
Y12107*
Y12580*
X39150Y11931*
X39128*
X38759Y12595*
Y12107*
X38765Y12057*
X38781Y12016*
X38813Y11991*
X38854Y11975*
Y11950*
X38545*
Y11975*
X38564Y11981*
X38583Y11987*
X38595Y12000*
X38608Y12016*
X38617Y12031*
X38624Y12054*
X38627Y12079*
X38630Y12107*
Y12778*
X38624Y12828*
X38608Y12866*
X38583Y12894*
X38545Y12907*
Y12935*
X38857*
X39184Y12287*
X39550Y12935*
X39820*
Y12907*
X39780Y12894*
X39751Y12866*
X39735Y12828*
X39729Y12778*
Y12107*
X39934Y11950D02*
Y11975D01*
X39953Y11981*
X39972Y11991*
X39987Y12003*
X40000Y12019*
X40016Y12060*
X40022Y12110*
Y12778*
X40016Y12828*
X40000Y12866*
X39972Y12894*
X39934Y12907*
Y12935*
X40699*
X40778Y12724*
X40750Y12712*
X40728Y12737*
X40706Y12759*
X40677Y12778*
X40649Y12791*
X40617Y12803*
X40583Y12809*
X40548Y12816*
X40507Y12819*
X40315*
X40283Y12813*
X40265Y12797*
X40252Y12775*
X40246Y12740*
Y12529*
X40498*
X40526*
X40551Y12535*
X40570Y12539*
X40589Y12548*
X40605Y12557*
X40614Y12570*
X40624Y12586*
X40627Y12602*
X40655*
Y12331*
X40627*
X40624Y12346*
X40614Y12362*
X40605Y12375*
X40589Y12384*
X40570Y12394*
X40551Y12400*
X40526Y12403*
X40498*
X40246*
Y12142*
X40249Y12120*
X40252Y12101*
X40255Y12088*
X40261Y12079*
X40283Y12069*
X40315Y12066*
X40548*
X40589*
X40630Y12072*
X40668Y12079*
X40702Y12091*
X40734Y12104*
X40762Y12123*
X40787Y12145*
X40809Y12170*
X40831Y12161*
X40759Y11950*
X39934*
X40372Y14258D02*
X40431Y14255D01*
X40488Y14249*
X40542Y14236*
X40598Y14220*
X40611*
X40617Y14230*
X40624Y14246*
X40630*
X40646Y14252*
X40721Y14019*
X40696Y14009*
X40668Y14041*
X40633Y14066*
X40598Y14088*
X40561Y14107*
X40523Y14123*
X40479Y14132*
X40435Y14139*
X40384Y14142*
X40340Y14139*
X40299Y14132*
X40265Y14123*
X40239Y14110*
X40217Y14094*
X40202Y14072*
X40192Y14047*
X40189Y14019*
X40192Y14003*
X40198Y13984*
X40211Y13969*
X40227Y13953*
X40249Y13940*
X40277Y13924*
X40309Y13915*
X40346Y13902*
X40403Y13887*
X40454Y13871*
X40498Y13855*
X40535Y13843*
X40570Y13830*
X40598Y13820*
X40620Y13811*
X40639Y13805*
X40674Y13780*
X40706Y13754*
X40734Y13726*
X40756Y13694*
X40772Y13663*
X40784Y13625*
X40794Y13587*
Y13546*
Y13509*
X40787Y13474*
X40781Y13443*
X40769Y13411*
X40753Y13386*
X40737Y13361*
X40715Y13339*
X40690Y13317*
X40661Y13298*
X40630Y13282*
X40595Y13269*
X40557Y13260*
X40517Y13250*
X40472Y13244*
X40422Y13241*
X40372*
X40302Y13244*
X40236Y13250*
X40170Y13260*
X40101Y13276*
X40091Y13279*
X40082Y13276*
X40076Y13266*
X40072Y13254*
X40069Y13250*
X40063Y13247*
X40054Y13244*
X40038Y13241*
X39937Y13528*
X39965Y13540*
X40003Y13499*
X40044Y13461*
X40088Y13430*
X40135Y13402*
X40186Y13383*
X40239Y13367*
X40296Y13361*
X40353Y13357*
X40403*
X40447Y13364*
X40485Y13376*
X40517Y13392*
X40539Y13411*
X40557Y13433*
X40567Y13461*
X40570Y13493*
X40567Y13515*
X40561Y13534*
X40548Y13553*
X40532Y13572*
X40510Y13587*
X40485Y13603*
X40454Y13616*
X40416Y13628*
X40356Y13647*
X40302Y13663*
X40255Y13679*
X40214Y13691*
X40183Y13704*
X40161Y13710*
X40142Y13717*
X40132Y13723*
X40098Y13742*
X40066Y13767*
X40041Y13795*
X40019Y13824*
X40003Y13855*
X39991Y13890*
X39984Y13928*
X39981Y13969*
X39984Y14000*
X39987Y14031*
X39997Y14060*
X40009Y14085*
X40025Y14110*
X40047Y14135*
X40069Y14157*
X40098Y14180*
X40157Y14214*
X40224Y14236*
X40296Y14252*
X40372Y14258*
X41783Y11937D02*
X41748D01*
X41083Y12646*
Y12107*
X41090Y12057*
X41106Y12016*
X41134Y11991*
X41172Y11975*
Y11950*
X40863*
Y11975*
X40882Y11981*
X40901Y11987*
X40917Y12000*
X40929Y12016*
X40939Y12031*
X40948Y12054*
X40951Y12079*
Y12107*
Y12781*
X40948Y12828*
X40929Y12866*
X40901Y12891*
X40863Y12907*
Y12935*
X41146*
X41654Y12378*
Y12778*
X41647Y12828*
X41631Y12866*
X41603Y12891*
X41565Y12907*
Y12935*
X41877*
Y12907*
X41836Y12891*
X41808Y12866*
X41789Y12828*
X41783Y12778*
Y11937*
X42252Y12740D02*
X42249Y12775D01*
X42236Y12797*
X42217Y12813*
X42192Y12819*
X42132Y12816*
X42085Y12813*
X42044Y12806*
X42016Y12800*
X41991Y12787*
X41962Y12765*
X41934Y12737*
X41899Y12702*
X41877Y12709*
X41956Y12935*
X42769*
X42844Y12709*
X42822Y12702*
X42791Y12737*
X42759Y12765*
X42734Y12787*
X42709Y12800*
X42680Y12806*
X42643Y12813*
X42592Y12816*
X42535Y12819*
X42507Y12813*
X42488Y12797*
X42476Y12775*
X42472Y12740*
Y12107*
X42479Y12057*
X42494Y12019*
X42526Y11994*
X42567Y11975*
Y11950*
X42161*
Y11975*
X42202Y11994*
X42230Y12019*
X42246Y12057*
X42252Y12107*
Y12740*
X43276Y12951D02*
X43332D01*
X43389Y12945*
X43446Y12932*
X43499Y12917*
X43512*
X43518Y12923*
X43524Y12932*
X43528Y12942*
X43537Y12948*
X43550Y12951*
X43622Y12712*
X43597Y12706*
X43569Y12737*
X43537Y12762*
X43502Y12784*
X43465Y12803*
X43427Y12816*
X43383Y12828*
X43339Y12831*
X43288Y12835*
X43244*
X43203Y12828*
X43169Y12819*
X43140Y12803*
X43118Y12787*
X43106Y12765*
X43096Y12740*
X43093Y12712*
Y12696*
X43102Y12677*
X43115Y12661*
X43131Y12649*
X43153Y12633*
X43181Y12620*
X43213Y12608*
X43250Y12595*
X43307Y12580*
X43357Y12564*
X43402Y12548*
X43443Y12535*
X43477Y12523*
X43502Y12513*
X43524Y12504*
X43540Y12498*
X43578Y12476*
X43609Y12450*
X43638Y12422*
X43660Y12391*
X43676Y12356*
X43688Y12321*
X43694Y12283*
X43698Y12243*
Y12205*
X43691Y12170*
X43685Y12139*
X43672Y12107*
X43657Y12082*
X43638Y12057*
X43619Y12031*
X43594Y12013*
X43565Y11994*
X43534Y11978*
X43499Y11965*
X43461Y11956*
X43420Y11946*
X43376Y11940*
X43326Y11937*
X43276*
X43213*
X43146Y11943*
X43077Y11956*
X43008Y11972*
X42998*
X42989Y11969*
X42980Y11962*
X42976Y11950*
X42964Y11943*
X42945Y11937*
X42841Y12224*
X42872Y12236*
X42910Y12192*
X42951Y12154*
X42992Y12123*
X43039Y12098*
X43090Y12079*
X43143Y12063*
X43200Y12057*
X43260Y12054*
X43310*
X43354Y12060*
X43389Y12072*
X43420Y12085*
X43443Y12104*
X43461Y12129*
X43471Y12157*
X43474Y12189*
X43471Y12208*
X43465Y12230*
X43452Y12249*
X43436Y12265*
X43414Y12280*
X43389Y12296*
X43357Y12309*
X43323Y12321*
X43263Y12340*
X43209Y12359*
X43162Y12372*
X43124Y12387*
X43093Y12397*
X43068Y12406*
X43049Y12413*
X43039Y12416*
X43002Y12438*
X42970Y12463*
X42945Y12488*
X42923Y12520*
X42907Y12551*
X42894Y12586*
X42888Y12624*
X42885Y12665*
X42888Y12696*
X42891Y12728*
X42901Y12756*
X42913Y12781*
X42932Y12806*
X42951Y12831*
X42976Y12854*
X43002Y12872*
X43065Y12907*
X43131Y12932*
X43200Y12948*
X43276Y12951*
G54D13*
X-443Y-12352D02*
X55364D01*
Y36171*
X-443*
Y-12352*
G54D14*
X12638Y13957D03*
Y14449D03*
Y19055D03*
Y19587D03*
G54D15*
X8622Y16575D03*
X8898Y15807D03*
X29390Y28878D03*
G54D16*
X650Y12638D03*
X827Y17913D03*
X1004Y12067D03*
X1102Y19508D03*
X4843Y3543D03*
X5610Y10335D03*
X6358Y10748D03*
X14882Y14665D03*
Y18799D03*
G54D17*
X15413Y14055D03*
Y14567D03*
Y15984D03*
Y16457D03*
Y17028D03*
Y17500D03*
Y18917D03*
Y19390D03*
X19252Y13602D03*
Y14114D03*
Y15827D03*
Y16358D03*
Y17106D03*
Y17579D03*
Y19409D03*
Y19882D03*
G54D18*
X11811Y31841D03*
X13386D03*
X17569Y13829D03*
Y14616D03*
Y15502D03*
Y16289D03*
Y17175D03*
Y17963D03*
Y18848D03*
Y19636D03*
G54D19*
X3031Y12057D03*
Y21555D03*
X3543Y2904D03*
Y31299D03*
X6693Y2904D03*
Y31299D03*
X9843D03*
X21014Y13106D03*
Y20374D03*
X22933Y13106D03*
Y20374D03*
G54D20*
X1772Y3140D03*
G54D21*
X2402Y4656D03*
G54D22*
X1142D03*
G54D23*
X1378Y5383D03*
Y6133D03*
G54D24*
X6742Y15846D03*
X7037Y5659D03*
Y27805D03*
X9941D03*
X14321Y5659D03*
Y27805D03*
X22343Y5659D03*
Y27805D03*
X29724D03*
X29823Y5659D03*
G54D25*
X19685Y2953D03*
Y30512D03*
X27165Y2953D03*
Y30512D03*
Y12992D03*
Y20472D03*
G54D26*
X1575Y8858D03*
Y24606D03*
X3031Y7382D03*
Y10335D03*
Y23130D03*
Y26083D03*
G54D27*
X1181Y1181D03*
Y32283D03*
X30315Y1181D03*
Y32283D03*
G54D28*
X14439Y10089D03*
Y23376D03*
X16526Y10089D03*
Y23376D03*
G54D29*
X14567Y12451D03*
Y21014D03*
X16535Y12451D03*
Y21014D03*
G54D30*
X12348Y14932D03*
Y15232D03*
Y15532D03*
Y15832D03*
Y16132D03*
Y16432D03*
Y16732D03*
Y17032D03*
Y17332D03*
Y17632D03*
Y17932D03*
Y18232D03*
Y18532D03*
X12648Y14932D03*
Y15232D03*
Y15532D03*
Y15832D03*
Y16132D03*
Y16432D03*
Y16732D03*
Y17032D03*
Y17332D03*
Y17632D03*
Y17932D03*
Y18232D03*
Y18532D03*
X12948Y14932D03*
Y15232D03*
Y15532D03*
Y15832D03*
Y16132D03*
Y16432D03*
Y16732D03*
Y17032D03*
Y17332D03*
Y17632D03*
Y17932D03*
Y18232D03*
Y18532D03*
G54D31*
X12648Y16732D03*
G54D32*
X11457Y15069D03*
Y15325D03*
Y15581D03*
Y15837D03*
Y16093D03*
Y16348D03*
Y16604D03*
Y16860D03*
Y17116D03*
Y17372D03*
Y17628D03*
Y17884D03*
Y18140D03*
Y18396D03*
X13839Y15069D03*
Y15325D03*
Y15581D03*
Y15837D03*
Y16093D03*
Y16348D03*
Y16604D03*
Y16860D03*
Y17116D03*
Y17372D03*
Y17628D03*
Y17884D03*
Y18140D03*
Y18396D03*
G54D33*
X8071Y17263D03*
Y18563D03*
G54D70*
X3031Y13057D03*
Y20555D03*
X3543Y1904D03*
Y32299D03*
X6693Y1904D03*
Y32299D03*
X9843D03*
X21014Y12106D03*
Y21374D03*
X22933Y12106D03*
Y21374D03*
G54D71*
X4349Y7382D03*
Y10335D03*
Y23130D03*
Y26083D03*
X4842Y2904D03*
X5099Y7382D03*
Y10335D03*
Y23130D03*
Y26083D03*
X5592Y2904D03*
X9074Y15354D03*
Y16240D03*
Y16978D03*
Y17913D03*
Y18996D03*
X9824Y15354D03*
Y16240D03*
Y16978D03*
Y17913D03*
Y18996D03*
X9960Y28986D03*
X10710D03*
X13601Y13632D03*
Y14321D03*
Y19144D03*
Y19833D03*
X14351Y13632D03*
Y14321D03*
Y19144D03*
Y19833D03*
X15914Y19636D03*
X15964Y13829D03*
Y16289D03*
Y17175D03*
X16664Y19636D03*
X16714Y13829D03*
Y16289D03*
Y17175D03*
X18523Y14616D03*
Y15305D03*
Y18159D03*
Y18848D03*
X19273Y14616D03*
Y15305D03*
Y18159D03*
Y18848D03*
G54D72*
X21014Y14461D03*
Y18004D03*
G54D73*
Y15461D03*
Y19004D03*
M02*
