%TF.GenerationSoftware,KiCad,Pcbnew,8.0.6*%
%TF.CreationDate,2024-11-21T01:01:48-08:00*%
%TF.ProjectId,ECE 411 Project,45434520-3431-4312-9050-726f6a656374,r1.6*%
%TF.SameCoordinates,Original*%
%TF.FileFunction,Soldermask,Top*%
%TF.FilePolarity,Negative*%
%FSLAX46Y46*%
G04 Gerber Fmt 4.6, Leading zero omitted, Abs format (unit mm)*
G04 Created by KiCad (PCBNEW 8.0.6) date 2024-11-21 01:01:48*
%MOMM*%
%LPD*%
G01*
G04 APERTURE LIST*
G04 Aperture macros list*
%AMRoundRect*
0 Rectangle with rounded corners*
0 $1 Rounding radius*
0 $2 $3 $4 $5 $6 $7 $8 $9 X,Y pos of 4 corners*
0 Add a 4 corners polygon primitive as box body*
4,1,4,$2,$3,$4,$5,$6,$7,$8,$9,$2,$3,0*
0 Add four circle primitives for the rounded corners*
1,1,$1+$1,$2,$3*
1,1,$1+$1,$4,$5*
1,1,$1+$1,$6,$7*
1,1,$1+$1,$8,$9*
0 Add four rect primitives between the rounded corners*
20,1,$1+$1,$2,$3,$4,$5,0*
20,1,$1+$1,$4,$5,$6,$7,0*
20,1,$1+$1,$6,$7,$8,$9,0*
20,1,$1+$1,$8,$9,$2,$3,0*%
%AMFreePoly0*
4,1,9,3.862500,-0.866500,0.737500,-0.866500,0.737500,-0.450000,-0.737500,-0.450000,-0.737500,0.450000,0.737500,0.450000,0.737500,0.866500,3.862500,0.866500,3.862500,-0.866500,3.862500,-0.866500,$1*%
G04 Aperture macros list end*
%ADD10C,0.010000*%
%ADD11RoundRect,0.250000X0.475000X-0.337500X0.475000X0.337500X-0.475000X0.337500X-0.475000X-0.337500X0*%
%ADD12R,1.700000X1.700000*%
%ADD13O,1.700000X1.700000*%
%ADD14RoundRect,0.250000X-0.450000X0.350000X-0.450000X-0.350000X0.450000X-0.350000X0.450000X0.350000X0*%
%ADD15RoundRect,0.250000X0.412500X0.650000X-0.412500X0.650000X-0.412500X-0.650000X0.412500X-0.650000X0*%
%ADD16R,1.800000X1.800000*%
%ADD17C,1.800000*%
%ADD18RoundRect,0.250000X-0.475000X0.337500X-0.475000X-0.337500X0.475000X-0.337500X0.475000X0.337500X0*%
%ADD19C,4.000000*%
%ADD20RoundRect,0.250000X0.450000X-0.350000X0.450000X0.350000X-0.450000X0.350000X-0.450000X-0.350000X0*%
%ADD21RoundRect,0.250000X0.350000X0.450000X-0.350000X0.450000X-0.350000X-0.450000X0.350000X-0.450000X0*%
%ADD22RoundRect,0.250000X-0.337500X-0.475000X0.337500X-0.475000X0.337500X0.475000X-0.337500X0.475000X0*%
%ADD23R,1.600000X1.600000*%
%ADD24C,1.600000*%
%ADD25RoundRect,0.250000X-0.350000X-0.450000X0.350000X-0.450000X0.350000X0.450000X-0.350000X0.450000X0*%
%ADD26R,1.500000X1.050000*%
%ADD27O,1.500000X1.050000*%
%ADD28O,1.200000X1.600000*%
%ADD29O,1.200000X1.200000*%
%ADD30RoundRect,0.250000X0.325000X0.450000X-0.325000X0.450000X-0.325000X-0.450000X0.325000X-0.450000X0*%
%ADD31O,1.600000X1.600000*%
%ADD32RoundRect,0.225000X-0.225000X0.425000X-0.225000X-0.425000X0.225000X-0.425000X0.225000X0.425000X0*%
%ADD33FreePoly0,270.000000*%
%ADD34RoundRect,0.250000X0.337500X0.475000X-0.337500X0.475000X-0.337500X-0.475000X0.337500X-0.475000X0*%
%ADD35RoundRect,0.150000X-0.150000X0.825000X-0.150000X-0.825000X0.150000X-0.825000X0.150000X0.825000X0*%
%ADD36R,3.500000X3.500000*%
%ADD37RoundRect,0.750000X-0.750000X-1.000000X0.750000X-1.000000X0.750000X1.000000X-0.750000X1.000000X0*%
%ADD38RoundRect,0.875000X-0.875000X-0.875000X0.875000X-0.875000X0.875000X0.875000X-0.875000X0.875000X0*%
%ADD39C,2.500000*%
%ADD40R,2.200000X2.200000*%
%ADD41O,2.200000X2.200000*%
%ADD42RoundRect,0.250000X-0.650000X0.412500X-0.650000X-0.412500X0.650000X-0.412500X0.650000X0.412500X0*%
%ADD43C,4.700000*%
%ADD44C,8.600000*%
%ADD45C,1.700000*%
%ADD46R,2.200000X2.800000*%
%ADD47R,2.800000X2.800000*%
%ADD48RoundRect,0.250000X-0.412500X-0.650000X0.412500X-0.650000X0.412500X0.650000X-0.412500X0.650000X0*%
%ADD49C,2.154000*%
%ADD50C,0.800000*%
%ADD51RoundRect,0.250000X0.650000X-0.412500X0.650000X0.412500X-0.650000X0.412500X-0.650000X-0.412500X0*%
%ADD52O,3.500000X2.200000*%
%ADD53R,2.500000X1.500000*%
%ADD54O,2.500000X1.500000*%
%ADD55O,2.200000X3.500000*%
%ADD56R,1.500000X2.500000*%
%ADD57O,1.500000X2.500000*%
G04 APERTURE END LIST*
D10*
%TO.C,U9*%
X70222651Y-103595000D02*
X68482651Y-103595000D01*
X68482651Y-103155000D01*
X70222651Y-103155000D01*
X70222651Y-103595000D01*
G36*
X70222651Y-103595000D02*
G01*
X68482651Y-103595000D01*
X68482651Y-103155000D01*
X70222651Y-103155000D01*
X70222651Y-103595000D01*
G37*
X70222651Y-104245000D02*
X68482651Y-104245000D01*
X68482651Y-103805000D01*
X70222651Y-103805000D01*
X70222651Y-104245000D01*
G36*
X70222651Y-104245000D02*
G01*
X68482651Y-104245000D01*
X68482651Y-103805000D01*
X70222651Y-103805000D01*
X70222651Y-104245000D01*
G37*
X70222651Y-104895000D02*
X68482651Y-104895000D01*
X68482651Y-104455000D01*
X70222651Y-104455000D01*
X70222651Y-104895000D01*
G36*
X70222651Y-104895000D02*
G01*
X68482651Y-104895000D01*
X68482651Y-104455000D01*
X70222651Y-104455000D01*
X70222651Y-104895000D01*
G37*
X70222651Y-105545000D02*
X68482651Y-105545000D01*
X68482651Y-105105000D01*
X70222651Y-105105000D01*
X70222651Y-105545000D01*
G36*
X70222651Y-105545000D02*
G01*
X68482651Y-105545000D01*
X68482651Y-105105000D01*
X70222651Y-105105000D01*
X70222651Y-105545000D01*
G37*
X70222651Y-106195000D02*
X68482651Y-106195000D01*
X68482651Y-105755000D01*
X70222651Y-105755000D01*
X70222651Y-106195000D01*
G36*
X70222651Y-106195000D02*
G01*
X68482651Y-106195000D01*
X68482651Y-105755000D01*
X70222651Y-105755000D01*
X70222651Y-106195000D01*
G37*
X70222651Y-106845000D02*
X68482651Y-106845000D01*
X68482651Y-106405000D01*
X70222651Y-106405000D01*
X70222651Y-106845000D01*
G36*
X70222651Y-106845000D02*
G01*
X68482651Y-106845000D01*
X68482651Y-106405000D01*
X70222651Y-106405000D01*
X70222651Y-106845000D01*
G37*
X70222651Y-107495000D02*
X68482651Y-107495000D01*
X68482651Y-107055000D01*
X70222651Y-107055000D01*
X70222651Y-107495000D01*
G36*
X70222651Y-107495000D02*
G01*
X68482651Y-107495000D01*
X68482651Y-107055000D01*
X70222651Y-107055000D01*
X70222651Y-107495000D01*
G37*
X70222651Y-108145000D02*
X68482651Y-108145000D01*
X68482651Y-107705000D01*
X70222651Y-107705000D01*
X70222651Y-108145000D01*
G36*
X70222651Y-108145000D02*
G01*
X68482651Y-108145000D01*
X68482651Y-107705000D01*
X70222651Y-107705000D01*
X70222651Y-108145000D01*
G37*
X70222651Y-108795000D02*
X68482651Y-108795000D01*
X68482651Y-108355000D01*
X70222651Y-108355000D01*
X70222651Y-108795000D01*
G36*
X70222651Y-108795000D02*
G01*
X68482651Y-108795000D01*
X68482651Y-108355000D01*
X70222651Y-108355000D01*
X70222651Y-108795000D01*
G37*
X70222651Y-109445000D02*
X68482651Y-109445000D01*
X68482651Y-109005000D01*
X70222651Y-109005000D01*
X70222651Y-109445000D01*
G36*
X70222651Y-109445000D02*
G01*
X68482651Y-109445000D01*
X68482651Y-109005000D01*
X70222651Y-109005000D01*
X70222651Y-109445000D01*
G37*
X70222651Y-110095000D02*
X68482651Y-110095000D01*
X68482651Y-109655000D01*
X70222651Y-109655000D01*
X70222651Y-110095000D01*
G36*
X70222651Y-110095000D02*
G01*
X68482651Y-110095000D01*
X68482651Y-109655000D01*
X70222651Y-109655000D01*
X70222651Y-110095000D01*
G37*
X70222651Y-110745000D02*
X68482651Y-110745000D01*
X68482651Y-110305000D01*
X70222651Y-110305000D01*
X70222651Y-110745000D01*
G36*
X70222651Y-110745000D02*
G01*
X68482651Y-110745000D01*
X68482651Y-110305000D01*
X70222651Y-110305000D01*
X70222651Y-110745000D01*
G37*
X70222651Y-111395000D02*
X68482651Y-111395000D01*
X68482651Y-110955000D01*
X70222651Y-110955000D01*
X70222651Y-111395000D01*
G36*
X70222651Y-111395000D02*
G01*
X68482651Y-111395000D01*
X68482651Y-110955000D01*
X70222651Y-110955000D01*
X70222651Y-111395000D01*
G37*
X70222651Y-112045000D02*
X68482651Y-112045000D01*
X68482651Y-111605000D01*
X70222651Y-111605000D01*
X70222651Y-112045000D01*
G36*
X70222651Y-112045000D02*
G01*
X68482651Y-112045000D01*
X68482651Y-111605000D01*
X70222651Y-111605000D01*
X70222651Y-112045000D01*
G37*
X73352651Y-110830000D02*
X70952651Y-110830000D01*
X70952651Y-104370000D01*
X73352651Y-104370000D01*
X73352651Y-110830000D01*
G36*
X73352651Y-110830000D02*
G01*
X70952651Y-110830000D01*
X70952651Y-104370000D01*
X73352651Y-104370000D01*
X73352651Y-110830000D01*
G37*
X75822651Y-103595000D02*
X74082651Y-103595000D01*
X74082651Y-103155000D01*
X75822651Y-103155000D01*
X75822651Y-103595000D01*
G36*
X75822651Y-103595000D02*
G01*
X74082651Y-103595000D01*
X74082651Y-103155000D01*
X75822651Y-103155000D01*
X75822651Y-103595000D01*
G37*
X75822651Y-104245000D02*
X74082651Y-104245000D01*
X74082651Y-103805000D01*
X75822651Y-103805000D01*
X75822651Y-104245000D01*
G36*
X75822651Y-104245000D02*
G01*
X74082651Y-104245000D01*
X74082651Y-103805000D01*
X75822651Y-103805000D01*
X75822651Y-104245000D01*
G37*
X75822651Y-104895000D02*
X74082651Y-104895000D01*
X74082651Y-104455000D01*
X75822651Y-104455000D01*
X75822651Y-104895000D01*
G36*
X75822651Y-104895000D02*
G01*
X74082651Y-104895000D01*
X74082651Y-104455000D01*
X75822651Y-104455000D01*
X75822651Y-104895000D01*
G37*
X75822651Y-105545000D02*
X74082651Y-105545000D01*
X74082651Y-105105000D01*
X75822651Y-105105000D01*
X75822651Y-105545000D01*
G36*
X75822651Y-105545000D02*
G01*
X74082651Y-105545000D01*
X74082651Y-105105000D01*
X75822651Y-105105000D01*
X75822651Y-105545000D01*
G37*
X75822651Y-106195000D02*
X74082651Y-106195000D01*
X74082651Y-105755000D01*
X75822651Y-105755000D01*
X75822651Y-106195000D01*
G36*
X75822651Y-106195000D02*
G01*
X74082651Y-106195000D01*
X74082651Y-105755000D01*
X75822651Y-105755000D01*
X75822651Y-106195000D01*
G37*
X75822651Y-106845000D02*
X74082651Y-106845000D01*
X74082651Y-106405000D01*
X75822651Y-106405000D01*
X75822651Y-106845000D01*
G36*
X75822651Y-106845000D02*
G01*
X74082651Y-106845000D01*
X74082651Y-106405000D01*
X75822651Y-106405000D01*
X75822651Y-106845000D01*
G37*
X75822651Y-107495000D02*
X74082651Y-107495000D01*
X74082651Y-107055000D01*
X75822651Y-107055000D01*
X75822651Y-107495000D01*
G36*
X75822651Y-107495000D02*
G01*
X74082651Y-107495000D01*
X74082651Y-107055000D01*
X75822651Y-107055000D01*
X75822651Y-107495000D01*
G37*
X75822651Y-108145000D02*
X74082651Y-108145000D01*
X74082651Y-107705000D01*
X75822651Y-107705000D01*
X75822651Y-108145000D01*
G36*
X75822651Y-108145000D02*
G01*
X74082651Y-108145000D01*
X74082651Y-107705000D01*
X75822651Y-107705000D01*
X75822651Y-108145000D01*
G37*
X75822651Y-108795000D02*
X74082651Y-108795000D01*
X74082651Y-108355000D01*
X75822651Y-108355000D01*
X75822651Y-108795000D01*
G36*
X75822651Y-108795000D02*
G01*
X74082651Y-108795000D01*
X74082651Y-108355000D01*
X75822651Y-108355000D01*
X75822651Y-108795000D01*
G37*
X75822651Y-109445000D02*
X74082651Y-109445000D01*
X74082651Y-109005000D01*
X75822651Y-109005000D01*
X75822651Y-109445000D01*
G36*
X75822651Y-109445000D02*
G01*
X74082651Y-109445000D01*
X74082651Y-109005000D01*
X75822651Y-109005000D01*
X75822651Y-109445000D01*
G37*
X75822651Y-110095000D02*
X74082651Y-110095000D01*
X74082651Y-109655000D01*
X75822651Y-109655000D01*
X75822651Y-110095000D01*
G36*
X75822651Y-110095000D02*
G01*
X74082651Y-110095000D01*
X74082651Y-109655000D01*
X75822651Y-109655000D01*
X75822651Y-110095000D01*
G37*
X75822651Y-110745000D02*
X74082651Y-110745000D01*
X74082651Y-110305000D01*
X75822651Y-110305000D01*
X75822651Y-110745000D01*
G36*
X75822651Y-110745000D02*
G01*
X74082651Y-110745000D01*
X74082651Y-110305000D01*
X75822651Y-110305000D01*
X75822651Y-110745000D01*
G37*
X75822651Y-111395000D02*
X74082651Y-111395000D01*
X74082651Y-110955000D01*
X75822651Y-110955000D01*
X75822651Y-111395000D01*
G36*
X75822651Y-111395000D02*
G01*
X74082651Y-111395000D01*
X74082651Y-110955000D01*
X75822651Y-110955000D01*
X75822651Y-111395000D01*
G37*
X75822651Y-112045000D02*
X74082651Y-112045000D01*
X74082651Y-111605000D01*
X75822651Y-111605000D01*
X75822651Y-112045000D01*
G36*
X75822651Y-112045000D02*
G01*
X74082651Y-112045000D01*
X74082651Y-111605000D01*
X75822651Y-111605000D01*
X75822651Y-112045000D01*
G37*
%TD*%
D11*
%TO.C,C17*%
X110100000Y-69637500D03*
X110100000Y-67562500D03*
%TD*%
D12*
%TO.C,RV5*%
X86550000Y-30300000D03*
D13*
X86550000Y-32840000D03*
X86550000Y-35380000D03*
%TD*%
D14*
%TO.C,R47*%
X80162500Y-45600000D03*
X80162500Y-47600000D03*
%TD*%
D15*
%TO.C,C40*%
X90312500Y-38700000D03*
X87187500Y-38700000D03*
%TD*%
D16*
%TO.C,D3*%
X90750000Y-110000000D03*
D17*
X90750000Y-107460000D03*
%TD*%
D12*
%TO.C,SW3*%
X51500000Y-28750000D03*
D13*
X51500000Y-31290000D03*
%TD*%
D18*
%TO.C,C26*%
X69652651Y-94112500D03*
X69652651Y-96187500D03*
%TD*%
D19*
%TO.C,FUZ-CHO1*%
X95500000Y-36500000D03*
%TD*%
D20*
%TO.C,R25*%
X95800000Y-61600000D03*
X95800000Y-59600000D03*
%TD*%
D14*
%TO.C,R45*%
X71562500Y-40500000D03*
X71562500Y-42500000D03*
%TD*%
D21*
%TO.C,R21*%
X91000000Y-46400000D03*
X89000000Y-46400000D03*
%TD*%
D18*
%TO.C,C20*%
X99700000Y-82862500D03*
X99700000Y-84937500D03*
%TD*%
D22*
%TO.C,C38*%
X60462500Y-40100000D03*
X62537500Y-40100000D03*
%TD*%
D21*
%TO.C,R43*%
X76952651Y-100950000D03*
X74952651Y-100950000D03*
%TD*%
D23*
%TO.C,C42*%
X47700000Y-78400000D03*
D24*
X44200000Y-78400000D03*
%TD*%
D11*
%TO.C,C16*%
X98000000Y-72537500D03*
X98000000Y-70462500D03*
%TD*%
D14*
%TO.C,R28*%
X101000000Y-67000000D03*
X101000000Y-69000000D03*
%TD*%
D25*
%TO.C,R35*%
X102000000Y-84500000D03*
X104000000Y-84500000D03*
%TD*%
D21*
%TO.C,R5*%
X74400000Y-78400000D03*
X72400000Y-78400000D03*
%TD*%
D26*
%TO.C,Q3*%
X103160000Y-57970000D03*
D27*
X103160000Y-56700000D03*
X103160000Y-55430000D03*
%TD*%
D28*
%TO.C,Q6*%
X74892500Y-49870000D03*
D29*
X76162500Y-48600000D03*
X74892500Y-47330000D03*
%TD*%
D30*
%TO.C,D1*%
X49025000Y-73000000D03*
X46975000Y-73000000D03*
%TD*%
D14*
%TO.C,R1*%
X105750000Y-106250000D03*
X105750000Y-108250000D03*
%TD*%
D21*
%TO.C,R19*%
X98000000Y-47000000D03*
X96000000Y-47000000D03*
%TD*%
D19*
%TO.C,GND1*%
X76750000Y-120000000D03*
%TD*%
%TO.C,SPK+1*%
X47500000Y-115300000D03*
%TD*%
D23*
%TO.C,U5*%
X91200000Y-103550000D03*
D31*
X93740000Y-103550000D03*
X96280000Y-103550000D03*
X98820000Y-103550000D03*
X98820000Y-95930000D03*
X96280000Y-95930000D03*
X93740000Y-95930000D03*
X91200000Y-95930000D03*
%TD*%
D32*
%TO.C,U1*%
X65500000Y-85050000D03*
D33*
X64000000Y-85137500D03*
D32*
X62500000Y-85050000D03*
%TD*%
D34*
%TO.C,C12*%
X86287500Y-59500000D03*
X84212500Y-59500000D03*
%TD*%
D12*
%TO.C,SW2*%
X47500000Y-28750000D03*
D13*
X47500000Y-31290000D03*
%TD*%
D18*
%TO.C,C27*%
X72000000Y-115075000D03*
X72000000Y-117150000D03*
%TD*%
D35*
%TO.C,U4*%
X105655000Y-98025000D03*
X104385000Y-98025000D03*
X103115000Y-98025000D03*
X101845000Y-98025000D03*
X101845000Y-102975000D03*
X103115000Y-102975000D03*
X104385000Y-102975000D03*
X105655000Y-102975000D03*
%TD*%
D11*
%TO.C,C18*%
X103100000Y-73037500D03*
X103100000Y-70962500D03*
%TD*%
D18*
%TO.C,C7*%
X56200000Y-73962500D03*
X56200000Y-76037500D03*
%TD*%
D23*
%TO.C,C8*%
X55200000Y-88750000D03*
D24*
X58700000Y-88750000D03*
%TD*%
D25*
%TO.C,R27*%
X96500000Y-66500000D03*
X98500000Y-66500000D03*
%TD*%
D36*
%TO.C,J1*%
X42000000Y-89000000D03*
D37*
X36000000Y-89000000D03*
D38*
X39000000Y-93700000D03*
%TD*%
D25*
%TO.C,R48*%
X75662500Y-41200000D03*
X77662500Y-41200000D03*
%TD*%
D12*
%TO.C,CHTPS1*%
X74700000Y-63600000D03*
D13*
X77240000Y-63600000D03*
X79780000Y-63600000D03*
%TD*%
D19*
%TO.C,LINE_{OUT}1*%
X105000000Y-92750000D03*
%TD*%
D39*
%TO.C,L1*%
X58000000Y-111150000D03*
X58000000Y-115150000D03*
X53000000Y-111150000D03*
X53000000Y-115150000D03*
%TD*%
D34*
%TO.C,C21*%
X108837500Y-87100000D03*
X106762500Y-87100000D03*
%TD*%
D12*
%TO.C,RV3*%
X96650000Y-89475000D03*
D13*
X99190000Y-89475000D03*
%TD*%
D26*
%TO.C,Q4*%
X108160000Y-74770000D03*
D27*
X108160000Y-73500000D03*
X108160000Y-72230000D03*
%TD*%
D23*
%TO.C,U3*%
X92010000Y-68595000D03*
D24*
X89470000Y-68595000D03*
X86930000Y-68595000D03*
X84390000Y-68595000D03*
X84390000Y-76215000D03*
X86930000Y-76215000D03*
X89470000Y-76215000D03*
X92010000Y-76215000D03*
%TD*%
D11*
%TO.C,C15*%
X99100000Y-61637500D03*
X99100000Y-59562500D03*
%TD*%
D21*
%TO.C,R18*%
X102500000Y-49000000D03*
X100500000Y-49000000D03*
%TD*%
D22*
%TO.C,C39*%
X79525000Y-39700000D03*
X81600000Y-39700000D03*
%TD*%
D40*
%TO.C,D2*%
X52100000Y-74000000D03*
D41*
X52100000Y-84160000D03*
%TD*%
D22*
%TO.C,C36*%
X52962500Y-119550000D03*
X55037500Y-119550000D03*
%TD*%
D42*
%TO.C,C2*%
X110000000Y-93437500D03*
X110000000Y-96562500D03*
%TD*%
D22*
%TO.C,C33*%
X78915151Y-103750000D03*
X80990151Y-103750000D03*
%TD*%
D43*
%TO.C,M4*%
X114500000Y-28700000D03*
D44*
X114500000Y-28700000D03*
%TD*%
D12*
%TO.C,J7*%
X92750000Y-42275000D03*
D13*
X90210000Y-42275000D03*
%TD*%
D19*
%TO.C,V9*%
X116000000Y-51250000D03*
%TD*%
D16*
%TO.C,D4*%
X79250000Y-85750000D03*
D17*
X76710000Y-85750000D03*
%TD*%
D14*
%TO.C,R30*%
X107800000Y-64100000D03*
X107800000Y-66100000D03*
%TD*%
D12*
%TO.C,SW5*%
X59500000Y-28750000D03*
D13*
X59500000Y-31290000D03*
%TD*%
D18*
%TO.C,C13*%
X88300000Y-60700000D03*
X88300000Y-62775000D03*
%TD*%
D14*
%TO.C,R40*%
X78952651Y-107950000D03*
X78952651Y-109950000D03*
%TD*%
D45*
%TO.C,J4*%
X35700000Y-66300000D03*
X42700000Y-66300000D03*
D46*
X34600000Y-70000000D03*
D47*
X44000000Y-70000000D03*
D46*
X36600000Y-62600000D03*
%TD*%
D48*
%TO.C,C4*%
X62437500Y-91000000D03*
X65562500Y-91000000D03*
%TD*%
D14*
%TO.C,R32*%
X110500000Y-77300000D03*
X110500000Y-79300000D03*
%TD*%
%TO.C,R16*%
X104750000Y-36250000D03*
X104750000Y-38250000D03*
%TD*%
D19*
%TO.C,SPK-1*%
X47250000Y-97000000D03*
%TD*%
D12*
%TO.C,RV2*%
X111000000Y-39500000D03*
D13*
X111000000Y-42040000D03*
%TD*%
D20*
%TO.C,R39*%
X86000000Y-103000000D03*
X86000000Y-101000000D03*
%TD*%
D49*
%TO.C,J3*%
X46150000Y-103830000D03*
X37950000Y-103830000D03*
X46150000Y-108830000D03*
X37950000Y-108830000D03*
%TD*%
D25*
%TO.C,R4*%
X72400000Y-76400000D03*
X74400000Y-76400000D03*
%TD*%
D39*
%TO.C,L2*%
X58000000Y-100650000D03*
X58000000Y-104650000D03*
X53000000Y-100650000D03*
X53000000Y-104650000D03*
%TD*%
D18*
%TO.C,C1*%
X107000000Y-31962500D03*
X107000000Y-34037500D03*
%TD*%
D23*
%TO.C,C24*%
X65900000Y-96700000D03*
D24*
X62400000Y-96700000D03*
%TD*%
D12*
%TO.C,OLED1*%
X59500000Y-62500000D03*
D13*
X62040000Y-62500000D03*
X64580000Y-62500000D03*
X67120000Y-62500000D03*
%TD*%
D43*
%TO.C,M4*%
X36700000Y-118600000D03*
D44*
X36700000Y-118600000D03*
%TD*%
D23*
%TO.C,C22*%
X73150000Y-68400000D03*
D24*
X73150000Y-70900000D03*
%TD*%
D26*
%TO.C,Q2*%
X101250000Y-39250000D03*
D27*
X101250000Y-37980000D03*
X101250000Y-36710000D03*
%TD*%
D12*
%TO.C,J5*%
X77750000Y-97500000D03*
D13*
X80290000Y-97500000D03*
%TD*%
D11*
%TO.C,C41*%
X106400000Y-62037500D03*
X106400000Y-59962500D03*
%TD*%
D22*
%TO.C,C35*%
X63815151Y-104650000D03*
X65890151Y-104650000D03*
%TD*%
D12*
%TO.C,SW6*%
X63500000Y-28750000D03*
D13*
X63500000Y-31290000D03*
%TD*%
D23*
%TO.C,V3207D1*%
X93870000Y-49380000D03*
D24*
X91330000Y-49380000D03*
X88790000Y-49380000D03*
X86250000Y-49380000D03*
X86250000Y-57000000D03*
X88790000Y-57000000D03*
X91330000Y-57000000D03*
X93870000Y-57000000D03*
%TD*%
D50*
%TO.C,U9*%
X73152651Y-111600000D03*
X73152651Y-110450000D03*
X73152651Y-109300000D03*
X73152651Y-108150000D03*
X73152651Y-107000000D03*
X73152651Y-105850000D03*
X73152651Y-104700000D03*
X73152651Y-103550000D03*
X72152651Y-111600000D03*
X72152651Y-110450000D03*
X72152651Y-109300000D03*
X72152651Y-108150000D03*
X72152651Y-107000000D03*
X72152651Y-105850000D03*
X72152651Y-104700000D03*
X72152651Y-103550000D03*
X71152651Y-111600000D03*
X71152651Y-110450000D03*
X71152651Y-109300000D03*
X71152651Y-108150000D03*
X71152651Y-107000000D03*
X71152651Y-105850000D03*
X71152651Y-104700000D03*
X71152651Y-103550000D03*
%TD*%
D12*
%TO.C,J6*%
X79225000Y-70550000D03*
D13*
X79225000Y-73090000D03*
%TD*%
D18*
%TO.C,C29*%
X72152651Y-94112500D03*
X72152651Y-96187500D03*
%TD*%
D12*
%TO.C,J2*%
X63000000Y-67000000D03*
D13*
X65540000Y-67000000D03*
%TD*%
D34*
%TO.C,C43*%
X48037500Y-84000000D03*
X45962500Y-84000000D03*
%TD*%
D19*
%TO.C,GENOUT1*%
X116000000Y-42750000D03*
%TD*%
D22*
%TO.C,C37*%
X52962500Y-96250000D03*
X55037500Y-96250000D03*
%TD*%
D51*
%TO.C,C6*%
X71000000Y-84562500D03*
X71000000Y-81437500D03*
%TD*%
D21*
%TO.C,R12*%
X83000000Y-26000000D03*
X81000000Y-26000000D03*
%TD*%
D14*
%TO.C,R17*%
X107000000Y-36250000D03*
X107000000Y-38250000D03*
%TD*%
D11*
%TO.C,C14*%
X93600000Y-64737500D03*
X93600000Y-62662500D03*
%TD*%
D43*
%TO.C,M4*%
X36700000Y-28700000D03*
D44*
X36700000Y-28700000D03*
%TD*%
D12*
%TO.C,RV7*%
X80350000Y-92225000D03*
D13*
X77810000Y-92225000D03*
%TD*%
D12*
%TO.C,U6*%
X79880000Y-35700000D03*
D13*
X77340000Y-35700000D03*
X74800000Y-35700000D03*
X72260000Y-35700000D03*
X69720000Y-35700000D03*
X67180000Y-35700000D03*
X64640000Y-35700000D03*
X62100000Y-35700000D03*
X59560000Y-35700000D03*
X57020000Y-35700000D03*
X54480000Y-35700000D03*
X51940000Y-35700000D03*
X49400000Y-35700000D03*
X46860000Y-35700000D03*
X44320000Y-35700000D03*
X41780000Y-35700000D03*
X39240000Y-35700000D03*
X36700000Y-35700000D03*
X34160000Y-35700000D03*
X34240000Y-58700000D03*
X36780000Y-58700000D03*
X39320000Y-58700000D03*
X41860000Y-58700000D03*
X44400000Y-58700000D03*
X46940000Y-58700000D03*
X49480000Y-58700000D03*
X52020000Y-58700000D03*
X54560000Y-58700000D03*
X57100000Y-58700000D03*
X59640000Y-58700000D03*
X62180000Y-58700000D03*
X64720000Y-58700000D03*
X67260000Y-58700000D03*
X69800000Y-58700000D03*
X72340000Y-58700000D03*
X74880000Y-58700000D03*
X77420000Y-58700000D03*
D12*
X79960000Y-58700000D03*
%TD*%
D19*
%TO.C,CHO-TRE1*%
X115800000Y-77500000D03*
%TD*%
D25*
%TO.C,R46*%
X65862500Y-40100000D03*
X67862500Y-40100000D03*
%TD*%
D21*
%TO.C,R20*%
X101750000Y-51500000D03*
X99750000Y-51500000D03*
%TD*%
D22*
%TO.C,C19*%
X106362500Y-78400000D03*
X108437500Y-78400000D03*
%TD*%
D18*
%TO.C,C30*%
X69500000Y-115075000D03*
X69500000Y-117150000D03*
%TD*%
D25*
%TO.C,R37*%
X102600000Y-88000000D03*
X104600000Y-88000000D03*
%TD*%
D14*
%TO.C,R10*%
X98000000Y-42750000D03*
X98000000Y-44750000D03*
%TD*%
D23*
%TO.C,U2*%
X60195000Y-72190000D03*
D24*
X60195000Y-74730000D03*
X60195000Y-77270000D03*
X60195000Y-79810000D03*
X67815000Y-79810000D03*
X67815000Y-77270000D03*
X67815000Y-74730000D03*
X67815000Y-72190000D03*
%TD*%
D22*
%TO.C,C31*%
X78915151Y-101550000D03*
X80990151Y-101550000D03*
%TD*%
D20*
%TO.C,R23*%
X86100000Y-64800000D03*
X86100000Y-62800000D03*
%TD*%
D12*
%TO.C,RV8*%
X77750000Y-29000000D03*
D13*
X80290000Y-29000000D03*
X82830000Y-29000000D03*
%TD*%
D21*
%TO.C,R2*%
X100250000Y-93000000D03*
X98250000Y-93000000D03*
%TD*%
D14*
%TO.C,R8*%
X96700000Y-75600000D03*
X96700000Y-77600000D03*
%TD*%
D21*
%TO.C,R6*%
X105500000Y-65000000D03*
X103500000Y-65000000D03*
%TD*%
D22*
%TO.C,C10*%
X101962500Y-44000000D03*
X104037500Y-44000000D03*
%TD*%
D12*
%TO.C,RV1*%
X94875000Y-29350000D03*
D13*
X94875000Y-31890000D03*
%TD*%
D22*
%TO.C,C34*%
X63815151Y-110650000D03*
X65890151Y-110650000D03*
%TD*%
D16*
%TO.C,D5*%
X72600000Y-30400000D03*
D17*
X72600000Y-27860000D03*
%TD*%
D12*
%TO.C,SW1*%
X43500000Y-28750000D03*
D13*
X43500000Y-31290000D03*
%TD*%
D12*
%TO.C,RV6*%
X99750000Y-107250000D03*
D13*
X102290000Y-107250000D03*
%TD*%
D19*
%TO.C,VGND1*%
X115750000Y-100500000D03*
%TD*%
D52*
%TO.C,SW9*%
X35000000Y-74100000D03*
X35000000Y-82300000D03*
D53*
X35000000Y-76200000D03*
D54*
X35000000Y-78200000D03*
X35000000Y-80200000D03*
%TD*%
D14*
%TO.C,R36*%
X109500000Y-82800000D03*
X109500000Y-84800000D03*
%TD*%
D23*
%TO.C,C5*%
X53000000Y-68400000D03*
D24*
X56500000Y-68400000D03*
%TD*%
D19*
%TO.C,LINE_{IN}1*%
X49900000Y-63500000D03*
%TD*%
D23*
%TO.C,V3207D2*%
X91405000Y-88410000D03*
D24*
X91405000Y-85870000D03*
X91405000Y-83330000D03*
X91405000Y-80790000D03*
X83785000Y-80790000D03*
X83785000Y-83330000D03*
X83785000Y-85870000D03*
X83785000Y-88410000D03*
%TD*%
D21*
%TO.C,R31*%
X106600000Y-68200000D03*
X104600000Y-68200000D03*
%TD*%
D28*
%TO.C,Q5*%
X66162500Y-47600000D03*
D29*
X67432500Y-46330000D03*
X66162500Y-45060000D03*
%TD*%
D12*
%TO.C,SW7*%
X67500000Y-28750000D03*
D13*
X67500000Y-31290000D03*
%TD*%
D12*
%TO.C,SW4*%
X55500000Y-28750000D03*
D13*
X55500000Y-31290000D03*
%TD*%
D21*
%TO.C,R3*%
X104100000Y-78500000D03*
X102100000Y-78500000D03*
%TD*%
D23*
%TO.C,C25*%
X65852651Y-117550000D03*
D24*
X62352651Y-117550000D03*
%TD*%
D25*
%TO.C,R9*%
X77900000Y-32700000D03*
X79900000Y-32700000D03*
%TD*%
D22*
%TO.C,C28*%
X67915151Y-100950000D03*
X69990151Y-100950000D03*
%TD*%
D25*
%TO.C,R11*%
X71750000Y-87250000D03*
X73750000Y-87250000D03*
%TD*%
D34*
%TO.C,C32*%
X80990151Y-105950000D03*
X78915151Y-105950000D03*
%TD*%
%TO.C,C11*%
X102537500Y-46500000D03*
X100462500Y-46500000D03*
%TD*%
D12*
%TO.C,RV4*%
X90750000Y-30300000D03*
D13*
X90750000Y-32840000D03*
X90750000Y-35380000D03*
%TD*%
D21*
%TO.C,R7*%
X104100000Y-81000000D03*
X102100000Y-81000000D03*
%TD*%
D25*
%TO.C,R26*%
X88400000Y-65100000D03*
X90400000Y-65100000D03*
%TD*%
D14*
%TO.C,R34*%
X106200000Y-82800000D03*
X106200000Y-84800000D03*
%TD*%
D18*
%TO.C,C23*%
X85250000Y-96712500D03*
X85250000Y-98787500D03*
%TD*%
D19*
%TO.C,V4.5*%
X115750000Y-87750000D03*
%TD*%
D55*
%TO.C,SW10*%
X106850000Y-26850000D03*
X98650000Y-26850000D03*
D56*
X104750000Y-26850000D03*
D57*
X102750000Y-26850000D03*
X100750000Y-26850000D03*
%TD*%
D20*
%TO.C,R22*%
X82700000Y-63700000D03*
X82700000Y-61700000D03*
%TD*%
D25*
%TO.C,R24*%
X91600000Y-60700000D03*
X93600000Y-60700000D03*
%TD*%
D44*
%TO.C,M4*%
X114500000Y-118600000D03*
D43*
X114500000Y-118600000D03*
%TD*%
M02*
