%TF.GenerationSoftware,KiCad,Pcbnew,8.0.6*%
%TF.CreationDate,2024-11-21T01:01:48-08:00*%
%TF.ProjectId,ECE 411 Project,45434520-3431-4312-9050-726f6a656374,r1.6*%
%TF.SameCoordinates,Original*%
%TF.FileFunction,Paste,Top*%
%TF.FilePolarity,Positive*%
%FSLAX46Y46*%
G04 Gerber Fmt 4.6, Leading zero omitted, Abs format (unit mm)*
G04 Created by KiCad (PCBNEW 8.0.6) date 2024-11-21 01:01:48*
%MOMM*%
%LPD*%
G01*
G04 APERTURE LIST*
G04 Aperture macros list*
%AMRoundRect*
0 Rectangle with rounded corners*
0 $1 Rounding radius*
0 $2 $3 $4 $5 $6 $7 $8 $9 X,Y pos of 4 corners*
0 Add a 4 corners polygon primitive as box body*
4,1,4,$2,$3,$4,$5,$6,$7,$8,$9,$2,$3,0*
0 Add four circle primitives for the rounded corners*
1,1,$1+$1,$2,$3*
1,1,$1+$1,$4,$5*
1,1,$1+$1,$6,$7*
1,1,$1+$1,$8,$9*
0 Add four rect primitives between the rounded corners*
20,1,$1+$1,$2,$3,$4,$5,0*
20,1,$1+$1,$4,$5,$6,$7,0*
20,1,$1+$1,$6,$7,$8,$9,0*
20,1,$1+$1,$8,$9,$2,$3,0*%
%AMFreePoly0*
4,1,9,3.862500,-0.866500,0.737500,-0.866500,0.737500,-0.450000,-0.737500,-0.450000,-0.737500,0.450000,0.737500,0.450000,0.737500,0.866500,3.862500,0.866500,3.862500,-0.866500,3.862500,-0.866500,$1*%
G04 Aperture macros list end*
%ADD10C,0.010000*%
%ADD11RoundRect,0.250000X0.475000X-0.337500X0.475000X0.337500X-0.475000X0.337500X-0.475000X-0.337500X0*%
%ADD12RoundRect,0.250000X-0.450000X0.350000X-0.450000X-0.350000X0.450000X-0.350000X0.450000X0.350000X0*%
%ADD13RoundRect,0.250000X0.412500X0.650000X-0.412500X0.650000X-0.412500X-0.650000X0.412500X-0.650000X0*%
%ADD14RoundRect,0.250000X-0.475000X0.337500X-0.475000X-0.337500X0.475000X-0.337500X0.475000X0.337500X0*%
%ADD15RoundRect,0.250000X0.450000X-0.350000X0.450000X0.350000X-0.450000X0.350000X-0.450000X-0.350000X0*%
%ADD16RoundRect,0.250000X0.350000X0.450000X-0.350000X0.450000X-0.350000X-0.450000X0.350000X-0.450000X0*%
%ADD17RoundRect,0.250000X-0.337500X-0.475000X0.337500X-0.475000X0.337500X0.475000X-0.337500X0.475000X0*%
%ADD18RoundRect,0.250000X-0.350000X-0.450000X0.350000X-0.450000X0.350000X0.450000X-0.350000X0.450000X0*%
%ADD19RoundRect,0.250000X0.325000X0.450000X-0.325000X0.450000X-0.325000X-0.450000X0.325000X-0.450000X0*%
%ADD20RoundRect,0.225000X-0.225000X0.425000X-0.225000X-0.425000X0.225000X-0.425000X0.225000X0.425000X0*%
%ADD21FreePoly0,270.000000*%
%ADD22RoundRect,0.250000X0.337500X0.475000X-0.337500X0.475000X-0.337500X-0.475000X0.337500X-0.475000X0*%
%ADD23RoundRect,0.150000X-0.150000X0.825000X-0.150000X-0.825000X0.150000X-0.825000X0.150000X0.825000X0*%
%ADD24RoundRect,0.250000X-0.650000X0.412500X-0.650000X-0.412500X0.650000X-0.412500X0.650000X0.412500X0*%
%ADD25R,2.200000X2.800000*%
%ADD26R,2.800000X2.800000*%
%ADD27RoundRect,0.250000X-0.412500X-0.650000X0.412500X-0.650000X0.412500X0.650000X-0.412500X0.650000X0*%
%ADD28RoundRect,0.250000X0.650000X-0.412500X0.650000X0.412500X-0.650000X0.412500X-0.650000X-0.412500X0*%
G04 APERTURE END LIST*
D10*
%TO.C,U9*%
X70127651Y-103500000D02*
X68577651Y-103500000D01*
X68577651Y-103250000D01*
X70127651Y-103250000D01*
X70127651Y-103500000D01*
G36*
X70127651Y-103500000D02*
G01*
X68577651Y-103500000D01*
X68577651Y-103250000D01*
X70127651Y-103250000D01*
X70127651Y-103500000D01*
G37*
X70127651Y-104150000D02*
X68577651Y-104150000D01*
X68577651Y-103900000D01*
X70127651Y-103900000D01*
X70127651Y-104150000D01*
G36*
X70127651Y-104150000D02*
G01*
X68577651Y-104150000D01*
X68577651Y-103900000D01*
X70127651Y-103900000D01*
X70127651Y-104150000D01*
G37*
X70127651Y-104800000D02*
X68577651Y-104800000D01*
X68577651Y-104550000D01*
X70127651Y-104550000D01*
X70127651Y-104800000D01*
G36*
X70127651Y-104800000D02*
G01*
X68577651Y-104800000D01*
X68577651Y-104550000D01*
X70127651Y-104550000D01*
X70127651Y-104800000D01*
G37*
X70127651Y-105450000D02*
X68577651Y-105450000D01*
X68577651Y-105200000D01*
X70127651Y-105200000D01*
X70127651Y-105450000D01*
G36*
X70127651Y-105450000D02*
G01*
X68577651Y-105450000D01*
X68577651Y-105200000D01*
X70127651Y-105200000D01*
X70127651Y-105450000D01*
G37*
X70127651Y-106100000D02*
X68577651Y-106100000D01*
X68577651Y-105850000D01*
X70127651Y-105850000D01*
X70127651Y-106100000D01*
G36*
X70127651Y-106100000D02*
G01*
X68577651Y-106100000D01*
X68577651Y-105850000D01*
X70127651Y-105850000D01*
X70127651Y-106100000D01*
G37*
X70127651Y-106750000D02*
X68577651Y-106750000D01*
X68577651Y-106500000D01*
X70127651Y-106500000D01*
X70127651Y-106750000D01*
G36*
X70127651Y-106750000D02*
G01*
X68577651Y-106750000D01*
X68577651Y-106500000D01*
X70127651Y-106500000D01*
X70127651Y-106750000D01*
G37*
X70127651Y-107400000D02*
X68577651Y-107400000D01*
X68577651Y-107150000D01*
X70127651Y-107150000D01*
X70127651Y-107400000D01*
G36*
X70127651Y-107400000D02*
G01*
X68577651Y-107400000D01*
X68577651Y-107150000D01*
X70127651Y-107150000D01*
X70127651Y-107400000D01*
G37*
X70127651Y-108050000D02*
X68577651Y-108050000D01*
X68577651Y-107800000D01*
X70127651Y-107800000D01*
X70127651Y-108050000D01*
G36*
X70127651Y-108050000D02*
G01*
X68577651Y-108050000D01*
X68577651Y-107800000D01*
X70127651Y-107800000D01*
X70127651Y-108050000D01*
G37*
X70127651Y-108700000D02*
X68577651Y-108700000D01*
X68577651Y-108450000D01*
X70127651Y-108450000D01*
X70127651Y-108700000D01*
G36*
X70127651Y-108700000D02*
G01*
X68577651Y-108700000D01*
X68577651Y-108450000D01*
X70127651Y-108450000D01*
X70127651Y-108700000D01*
G37*
X70127651Y-109350000D02*
X68577651Y-109350000D01*
X68577651Y-109100000D01*
X70127651Y-109100000D01*
X70127651Y-109350000D01*
G36*
X70127651Y-109350000D02*
G01*
X68577651Y-109350000D01*
X68577651Y-109100000D01*
X70127651Y-109100000D01*
X70127651Y-109350000D01*
G37*
X70127651Y-110000000D02*
X68577651Y-110000000D01*
X68577651Y-109750000D01*
X70127651Y-109750000D01*
X70127651Y-110000000D01*
G36*
X70127651Y-110000000D02*
G01*
X68577651Y-110000000D01*
X68577651Y-109750000D01*
X70127651Y-109750000D01*
X70127651Y-110000000D01*
G37*
X70127651Y-110650000D02*
X68577651Y-110650000D01*
X68577651Y-110400000D01*
X70127651Y-110400000D01*
X70127651Y-110650000D01*
G36*
X70127651Y-110650000D02*
G01*
X68577651Y-110650000D01*
X68577651Y-110400000D01*
X70127651Y-110400000D01*
X70127651Y-110650000D01*
G37*
X70127651Y-111300000D02*
X68577651Y-111300000D01*
X68577651Y-111050000D01*
X70127651Y-111050000D01*
X70127651Y-111300000D01*
G36*
X70127651Y-111300000D02*
G01*
X68577651Y-111300000D01*
X68577651Y-111050000D01*
X70127651Y-111050000D01*
X70127651Y-111300000D01*
G37*
X70127651Y-111950000D02*
X68577651Y-111950000D01*
X68577651Y-111700000D01*
X70127651Y-111700000D01*
X70127651Y-111950000D01*
G36*
X70127651Y-111950000D02*
G01*
X68577651Y-111950000D01*
X68577651Y-111700000D01*
X70127651Y-111700000D01*
X70127651Y-111950000D01*
G37*
X73352651Y-110830000D02*
X70952651Y-110830000D01*
X70952651Y-104370000D01*
X73352651Y-104370000D01*
X73352651Y-110830000D01*
G36*
X73352651Y-110830000D02*
G01*
X70952651Y-110830000D01*
X70952651Y-104370000D01*
X73352651Y-104370000D01*
X73352651Y-110830000D01*
G37*
X75727651Y-103500000D02*
X74177651Y-103500000D01*
X74177651Y-103250000D01*
X75727651Y-103250000D01*
X75727651Y-103500000D01*
G36*
X75727651Y-103500000D02*
G01*
X74177651Y-103500000D01*
X74177651Y-103250000D01*
X75727651Y-103250000D01*
X75727651Y-103500000D01*
G37*
X75727651Y-104150000D02*
X74177651Y-104150000D01*
X74177651Y-103900000D01*
X75727651Y-103900000D01*
X75727651Y-104150000D01*
G36*
X75727651Y-104150000D02*
G01*
X74177651Y-104150000D01*
X74177651Y-103900000D01*
X75727651Y-103900000D01*
X75727651Y-104150000D01*
G37*
X75727651Y-104800000D02*
X74177651Y-104800000D01*
X74177651Y-104550000D01*
X75727651Y-104550000D01*
X75727651Y-104800000D01*
G36*
X75727651Y-104800000D02*
G01*
X74177651Y-104800000D01*
X74177651Y-104550000D01*
X75727651Y-104550000D01*
X75727651Y-104800000D01*
G37*
X75727651Y-105450000D02*
X74177651Y-105450000D01*
X74177651Y-105200000D01*
X75727651Y-105200000D01*
X75727651Y-105450000D01*
G36*
X75727651Y-105450000D02*
G01*
X74177651Y-105450000D01*
X74177651Y-105200000D01*
X75727651Y-105200000D01*
X75727651Y-105450000D01*
G37*
X75727651Y-106100000D02*
X74177651Y-106100000D01*
X74177651Y-105850000D01*
X75727651Y-105850000D01*
X75727651Y-106100000D01*
G36*
X75727651Y-106100000D02*
G01*
X74177651Y-106100000D01*
X74177651Y-105850000D01*
X75727651Y-105850000D01*
X75727651Y-106100000D01*
G37*
X75727651Y-106750000D02*
X74177651Y-106750000D01*
X74177651Y-106500000D01*
X75727651Y-106500000D01*
X75727651Y-106750000D01*
G36*
X75727651Y-106750000D02*
G01*
X74177651Y-106750000D01*
X74177651Y-106500000D01*
X75727651Y-106500000D01*
X75727651Y-106750000D01*
G37*
X75727651Y-107400000D02*
X74177651Y-107400000D01*
X74177651Y-107150000D01*
X75727651Y-107150000D01*
X75727651Y-107400000D01*
G36*
X75727651Y-107400000D02*
G01*
X74177651Y-107400000D01*
X74177651Y-107150000D01*
X75727651Y-107150000D01*
X75727651Y-107400000D01*
G37*
X75727651Y-108050000D02*
X74177651Y-108050000D01*
X74177651Y-107800000D01*
X75727651Y-107800000D01*
X75727651Y-108050000D01*
G36*
X75727651Y-108050000D02*
G01*
X74177651Y-108050000D01*
X74177651Y-107800000D01*
X75727651Y-107800000D01*
X75727651Y-108050000D01*
G37*
X75727651Y-108700000D02*
X74177651Y-108700000D01*
X74177651Y-108450000D01*
X75727651Y-108450000D01*
X75727651Y-108700000D01*
G36*
X75727651Y-108700000D02*
G01*
X74177651Y-108700000D01*
X74177651Y-108450000D01*
X75727651Y-108450000D01*
X75727651Y-108700000D01*
G37*
X75727651Y-109350000D02*
X74177651Y-109350000D01*
X74177651Y-109100000D01*
X75727651Y-109100000D01*
X75727651Y-109350000D01*
G36*
X75727651Y-109350000D02*
G01*
X74177651Y-109350000D01*
X74177651Y-109100000D01*
X75727651Y-109100000D01*
X75727651Y-109350000D01*
G37*
X75727651Y-110000000D02*
X74177651Y-110000000D01*
X74177651Y-109750000D01*
X75727651Y-109750000D01*
X75727651Y-110000000D01*
G36*
X75727651Y-110000000D02*
G01*
X74177651Y-110000000D01*
X74177651Y-109750000D01*
X75727651Y-109750000D01*
X75727651Y-110000000D01*
G37*
X75727651Y-110650000D02*
X74177651Y-110650000D01*
X74177651Y-110400000D01*
X75727651Y-110400000D01*
X75727651Y-110650000D01*
G36*
X75727651Y-110650000D02*
G01*
X74177651Y-110650000D01*
X74177651Y-110400000D01*
X75727651Y-110400000D01*
X75727651Y-110650000D01*
G37*
X75727651Y-111300000D02*
X74177651Y-111300000D01*
X74177651Y-111050000D01*
X75727651Y-111050000D01*
X75727651Y-111300000D01*
G36*
X75727651Y-111300000D02*
G01*
X74177651Y-111300000D01*
X74177651Y-111050000D01*
X75727651Y-111050000D01*
X75727651Y-111300000D01*
G37*
X75727651Y-111950000D02*
X74177651Y-111950000D01*
X74177651Y-111700000D01*
X75727651Y-111700000D01*
X75727651Y-111950000D01*
G36*
X75727651Y-111950000D02*
G01*
X74177651Y-111950000D01*
X74177651Y-111700000D01*
X75727651Y-111700000D01*
X75727651Y-111950000D01*
G37*
%TD*%
D11*
%TO.C,C17*%
X110100000Y-69637500D03*
X110100000Y-67562500D03*
%TD*%
D12*
%TO.C,R47*%
X80162500Y-45600000D03*
X80162500Y-47600000D03*
%TD*%
D13*
%TO.C,C40*%
X90312500Y-38700000D03*
X87187500Y-38700000D03*
%TD*%
D14*
%TO.C,C26*%
X69652651Y-94112500D03*
X69652651Y-96187500D03*
%TD*%
D15*
%TO.C,R25*%
X95800000Y-61600000D03*
X95800000Y-59600000D03*
%TD*%
D12*
%TO.C,R45*%
X71562500Y-40500000D03*
X71562500Y-42500000D03*
%TD*%
D16*
%TO.C,R21*%
X91000000Y-46400000D03*
X89000000Y-46400000D03*
%TD*%
D14*
%TO.C,C20*%
X99700000Y-82862500D03*
X99700000Y-84937500D03*
%TD*%
D17*
%TO.C,C38*%
X60462500Y-40100000D03*
X62537500Y-40100000D03*
%TD*%
D16*
%TO.C,R43*%
X76952651Y-100950000D03*
X74952651Y-100950000D03*
%TD*%
D11*
%TO.C,C16*%
X98000000Y-72537500D03*
X98000000Y-70462500D03*
%TD*%
D12*
%TO.C,R28*%
X101000000Y-67000000D03*
X101000000Y-69000000D03*
%TD*%
D18*
%TO.C,R35*%
X102000000Y-84500000D03*
X104000000Y-84500000D03*
%TD*%
D16*
%TO.C,R5*%
X74400000Y-78400000D03*
X72400000Y-78400000D03*
%TD*%
D19*
%TO.C,D1*%
X49025000Y-73000000D03*
X46975000Y-73000000D03*
%TD*%
D12*
%TO.C,R1*%
X105750000Y-106250000D03*
X105750000Y-108250000D03*
%TD*%
D16*
%TO.C,R19*%
X98000000Y-47000000D03*
X96000000Y-47000000D03*
%TD*%
D20*
%TO.C,U1*%
X65500000Y-85050000D03*
D21*
X64000000Y-85137500D03*
D20*
X62500000Y-85050000D03*
%TD*%
D22*
%TO.C,C12*%
X86287500Y-59500000D03*
X84212500Y-59500000D03*
%TD*%
D14*
%TO.C,C27*%
X72000000Y-115075000D03*
X72000000Y-117150000D03*
%TD*%
D23*
%TO.C,U4*%
X105655000Y-98025000D03*
X104385000Y-98025000D03*
X103115000Y-98025000D03*
X101845000Y-98025000D03*
X101845000Y-102975000D03*
X103115000Y-102975000D03*
X104385000Y-102975000D03*
X105655000Y-102975000D03*
%TD*%
D11*
%TO.C,C18*%
X103100000Y-73037500D03*
X103100000Y-70962500D03*
%TD*%
D14*
%TO.C,C7*%
X56200000Y-73962500D03*
X56200000Y-76037500D03*
%TD*%
D18*
%TO.C,R27*%
X96500000Y-66500000D03*
X98500000Y-66500000D03*
%TD*%
%TO.C,R48*%
X75662500Y-41200000D03*
X77662500Y-41200000D03*
%TD*%
D22*
%TO.C,C21*%
X108837500Y-87100000D03*
X106762500Y-87100000D03*
%TD*%
D11*
%TO.C,C15*%
X99100000Y-61637500D03*
X99100000Y-59562500D03*
%TD*%
D16*
%TO.C,R18*%
X102500000Y-49000000D03*
X100500000Y-49000000D03*
%TD*%
D17*
%TO.C,C39*%
X79525000Y-39700000D03*
X81600000Y-39700000D03*
%TD*%
%TO.C,C36*%
X52962500Y-119550000D03*
X55037500Y-119550000D03*
%TD*%
D24*
%TO.C,C2*%
X110000000Y-93437500D03*
X110000000Y-96562500D03*
%TD*%
D17*
%TO.C,C33*%
X78915151Y-103750000D03*
X80990151Y-103750000D03*
%TD*%
D12*
%TO.C,R30*%
X107800000Y-64100000D03*
X107800000Y-66100000D03*
%TD*%
D14*
%TO.C,C13*%
X88300000Y-60700000D03*
X88300000Y-62775000D03*
%TD*%
D12*
%TO.C,R40*%
X78952651Y-107950000D03*
X78952651Y-109950000D03*
%TD*%
D25*
%TO.C,J4*%
X34600000Y-70000000D03*
D26*
X44000000Y-70000000D03*
D25*
X36600000Y-62600000D03*
%TD*%
D27*
%TO.C,C4*%
X62437500Y-91000000D03*
X65562500Y-91000000D03*
%TD*%
D12*
%TO.C,R32*%
X110500000Y-77300000D03*
X110500000Y-79300000D03*
%TD*%
%TO.C,R16*%
X104750000Y-36250000D03*
X104750000Y-38250000D03*
%TD*%
D15*
%TO.C,R39*%
X86000000Y-103000000D03*
X86000000Y-101000000D03*
%TD*%
D18*
%TO.C,R4*%
X72400000Y-76400000D03*
X74400000Y-76400000D03*
%TD*%
D14*
%TO.C,C1*%
X107000000Y-31962500D03*
X107000000Y-34037500D03*
%TD*%
D11*
%TO.C,C41*%
X106400000Y-62037500D03*
X106400000Y-59962500D03*
%TD*%
D17*
%TO.C,C35*%
X63815151Y-104650000D03*
X65890151Y-104650000D03*
%TD*%
D14*
%TO.C,C29*%
X72152651Y-94112500D03*
X72152651Y-96187500D03*
%TD*%
D22*
%TO.C,C43*%
X48037500Y-84000000D03*
X45962500Y-84000000D03*
%TD*%
D17*
%TO.C,C37*%
X52962500Y-96250000D03*
X55037500Y-96250000D03*
%TD*%
D28*
%TO.C,C6*%
X71000000Y-84562500D03*
X71000000Y-81437500D03*
%TD*%
D16*
%TO.C,R12*%
X83000000Y-26000000D03*
X81000000Y-26000000D03*
%TD*%
D12*
%TO.C,R17*%
X107000000Y-36250000D03*
X107000000Y-38250000D03*
%TD*%
D11*
%TO.C,C14*%
X93600000Y-64737500D03*
X93600000Y-62662500D03*
%TD*%
D18*
%TO.C,R46*%
X65862500Y-40100000D03*
X67862500Y-40100000D03*
%TD*%
D16*
%TO.C,R20*%
X101750000Y-51500000D03*
X99750000Y-51500000D03*
%TD*%
D17*
%TO.C,C19*%
X106362500Y-78400000D03*
X108437500Y-78400000D03*
%TD*%
D14*
%TO.C,C30*%
X69500000Y-115075000D03*
X69500000Y-117150000D03*
%TD*%
D18*
%TO.C,R37*%
X102600000Y-88000000D03*
X104600000Y-88000000D03*
%TD*%
D12*
%TO.C,R10*%
X98000000Y-42750000D03*
X98000000Y-44750000D03*
%TD*%
D17*
%TO.C,C31*%
X78915151Y-101550000D03*
X80990151Y-101550000D03*
%TD*%
D15*
%TO.C,R23*%
X86100000Y-64800000D03*
X86100000Y-62800000D03*
%TD*%
D16*
%TO.C,R2*%
X100250000Y-93000000D03*
X98250000Y-93000000D03*
%TD*%
D12*
%TO.C,R8*%
X96700000Y-75600000D03*
X96700000Y-77600000D03*
%TD*%
D16*
%TO.C,R6*%
X105500000Y-65000000D03*
X103500000Y-65000000D03*
%TD*%
D17*
%TO.C,C10*%
X101962500Y-44000000D03*
X104037500Y-44000000D03*
%TD*%
%TO.C,C34*%
X63815151Y-110650000D03*
X65890151Y-110650000D03*
%TD*%
D12*
%TO.C,R36*%
X109500000Y-82800000D03*
X109500000Y-84800000D03*
%TD*%
D16*
%TO.C,R31*%
X106600000Y-68200000D03*
X104600000Y-68200000D03*
%TD*%
%TO.C,R3*%
X104100000Y-78500000D03*
X102100000Y-78500000D03*
%TD*%
D18*
%TO.C,R9*%
X77900000Y-32700000D03*
X79900000Y-32700000D03*
%TD*%
D17*
%TO.C,C28*%
X67915151Y-100950000D03*
X69990151Y-100950000D03*
%TD*%
D18*
%TO.C,R11*%
X71750000Y-87250000D03*
X73750000Y-87250000D03*
%TD*%
D22*
%TO.C,C32*%
X80990151Y-105950000D03*
X78915151Y-105950000D03*
%TD*%
%TO.C,C11*%
X102537500Y-46500000D03*
X100462500Y-46500000D03*
%TD*%
D16*
%TO.C,R7*%
X104100000Y-81000000D03*
X102100000Y-81000000D03*
%TD*%
D18*
%TO.C,R26*%
X88400000Y-65100000D03*
X90400000Y-65100000D03*
%TD*%
D12*
%TO.C,R34*%
X106200000Y-82800000D03*
X106200000Y-84800000D03*
%TD*%
D14*
%TO.C,C23*%
X85250000Y-96712500D03*
X85250000Y-98787500D03*
%TD*%
D15*
%TO.C,R22*%
X82700000Y-63700000D03*
X82700000Y-61700000D03*
%TD*%
D18*
%TO.C,R24*%
X91600000Y-60700000D03*
X93600000Y-60700000D03*
%TD*%
M02*
