%TF.GenerationSoftware,KiCad,Pcbnew,8.0.6*%
%TF.CreationDate,2024-10-24T21:34:22-07:00*%
%TF.ProjectId,PedalSynth,50656461-6c53-4796-9e74-682e6b696361,r1.0*%
%TF.SameCoordinates,Original*%
%TF.FileFunction,Soldermask,Top*%
%TF.FilePolarity,Negative*%
%FSLAX46Y46*%
G04 Gerber Fmt 4.6, Leading zero omitted, Abs format (unit mm)*
G04 Created by KiCad (PCBNEW 8.0.6) date 2024-10-24 21:34:22*
%MOMM*%
%LPD*%
G01*
G04 APERTURE LIST*
G04 Aperture macros list*
%AMRoundRect*
0 Rectangle with rounded corners*
0 $1 Rounding radius*
0 $2 $3 $4 $5 $6 $7 $8 $9 X,Y pos of 4 corners*
0 Add a 4 corners polygon primitive as box body*
4,1,4,$2,$3,$4,$5,$6,$7,$8,$9,$2,$3,0*
0 Add four circle primitives for the rounded corners*
1,1,$1+$1,$2,$3*
1,1,$1+$1,$4,$5*
1,1,$1+$1,$6,$7*
1,1,$1+$1,$8,$9*
0 Add four rect primitives between the rounded corners*
20,1,$1+$1,$2,$3,$4,$5,0*
20,1,$1+$1,$4,$5,$6,$7,0*
20,1,$1+$1,$6,$7,$8,$9,0*
20,1,$1+$1,$8,$9,$2,$3,0*%
G04 Aperture macros list end*
%ADD10C,0.010000*%
%ADD11C,1.400000*%
%ADD12R,1.600000X1.600000*%
%ADD13C,1.600000*%
%ADD14C,0.800000*%
%ADD15R,2.000000X4.000000*%
%ADD16O,2.000000X3.300000*%
%ADD17O,3.500000X2.000000*%
%ADD18RoundRect,0.160000X-0.197500X-0.160000X0.197500X-0.160000X0.197500X0.160000X-0.197500X0.160000X0*%
%ADD19RoundRect,0.155000X0.155000X-0.212500X0.155000X0.212500X-0.155000X0.212500X-0.155000X-0.212500X0*%
%ADD20RoundRect,0.102000X-1.175000X-2.550000X1.175000X-2.550000X1.175000X2.550000X-1.175000X2.550000X0*%
%ADD21RoundRect,0.155000X-0.212500X-0.155000X0.212500X-0.155000X0.212500X0.155000X-0.212500X0.155000X0*%
%ADD22C,1.440000*%
%ADD23RoundRect,0.250000X-0.337500X-0.475000X0.337500X-0.475000X0.337500X0.475000X-0.337500X0.475000X0*%
%ADD24RoundRect,0.160000X0.197500X0.160000X-0.197500X0.160000X-0.197500X-0.160000X0.197500X-0.160000X0*%
%ADD25RoundRect,0.155000X0.212500X0.155000X-0.212500X0.155000X-0.212500X-0.155000X0.212500X-0.155000X0*%
%ADD26C,2.154000*%
%ADD27RoundRect,0.250000X0.337500X0.475000X-0.337500X0.475000X-0.337500X-0.475000X0.337500X-0.475000X0*%
%ADD28RoundRect,0.155000X-0.155000X0.212500X-0.155000X-0.212500X0.155000X-0.212500X0.155000X0.212500X0*%
%ADD29RoundRect,0.160000X0.160000X-0.197500X0.160000X0.197500X-0.160000X0.197500X-0.160000X-0.197500X0*%
%ADD30C,1.700000*%
%ADD31R,2.200000X2.800000*%
%ADD32R,2.800000X2.800000*%
G04 APERTURE END LIST*
D10*
%TO.C,U1*%
X151120000Y-75570000D02*
X149380000Y-75570000D01*
X149380000Y-75130000D01*
X151120000Y-75130000D01*
X151120000Y-75570000D01*
G36*
X151120000Y-75570000D02*
G01*
X149380000Y-75570000D01*
X149380000Y-75130000D01*
X151120000Y-75130000D01*
X151120000Y-75570000D01*
G37*
X151120000Y-76220000D02*
X149380000Y-76220000D01*
X149380000Y-75780000D01*
X151120000Y-75780000D01*
X151120000Y-76220000D01*
G36*
X151120000Y-76220000D02*
G01*
X149380000Y-76220000D01*
X149380000Y-75780000D01*
X151120000Y-75780000D01*
X151120000Y-76220000D01*
G37*
X151120000Y-76870000D02*
X149380000Y-76870000D01*
X149380000Y-76430000D01*
X151120000Y-76430000D01*
X151120000Y-76870000D01*
G36*
X151120000Y-76870000D02*
G01*
X149380000Y-76870000D01*
X149380000Y-76430000D01*
X151120000Y-76430000D01*
X151120000Y-76870000D01*
G37*
X151120000Y-77520000D02*
X149380000Y-77520000D01*
X149380000Y-77080000D01*
X151120000Y-77080000D01*
X151120000Y-77520000D01*
G36*
X151120000Y-77520000D02*
G01*
X149380000Y-77520000D01*
X149380000Y-77080000D01*
X151120000Y-77080000D01*
X151120000Y-77520000D01*
G37*
X151120000Y-78170000D02*
X149380000Y-78170000D01*
X149380000Y-77730000D01*
X151120000Y-77730000D01*
X151120000Y-78170000D01*
G36*
X151120000Y-78170000D02*
G01*
X149380000Y-78170000D01*
X149380000Y-77730000D01*
X151120000Y-77730000D01*
X151120000Y-78170000D01*
G37*
X151120000Y-78820000D02*
X149380000Y-78820000D01*
X149380000Y-78380000D01*
X151120000Y-78380000D01*
X151120000Y-78820000D01*
G36*
X151120000Y-78820000D02*
G01*
X149380000Y-78820000D01*
X149380000Y-78380000D01*
X151120000Y-78380000D01*
X151120000Y-78820000D01*
G37*
X151120000Y-79470000D02*
X149380000Y-79470000D01*
X149380000Y-79030000D01*
X151120000Y-79030000D01*
X151120000Y-79470000D01*
G36*
X151120000Y-79470000D02*
G01*
X149380000Y-79470000D01*
X149380000Y-79030000D01*
X151120000Y-79030000D01*
X151120000Y-79470000D01*
G37*
X151120000Y-80120000D02*
X149380000Y-80120000D01*
X149380000Y-79680000D01*
X151120000Y-79680000D01*
X151120000Y-80120000D01*
G36*
X151120000Y-80120000D02*
G01*
X149380000Y-80120000D01*
X149380000Y-79680000D01*
X151120000Y-79680000D01*
X151120000Y-80120000D01*
G37*
X151120000Y-80770000D02*
X149380000Y-80770000D01*
X149380000Y-80330000D01*
X151120000Y-80330000D01*
X151120000Y-80770000D01*
G36*
X151120000Y-80770000D02*
G01*
X149380000Y-80770000D01*
X149380000Y-80330000D01*
X151120000Y-80330000D01*
X151120000Y-80770000D01*
G37*
X151120000Y-81420000D02*
X149380000Y-81420000D01*
X149380000Y-80980000D01*
X151120000Y-80980000D01*
X151120000Y-81420000D01*
G36*
X151120000Y-81420000D02*
G01*
X149380000Y-81420000D01*
X149380000Y-80980000D01*
X151120000Y-80980000D01*
X151120000Y-81420000D01*
G37*
X151120000Y-82070000D02*
X149380000Y-82070000D01*
X149380000Y-81630000D01*
X151120000Y-81630000D01*
X151120000Y-82070000D01*
G36*
X151120000Y-82070000D02*
G01*
X149380000Y-82070000D01*
X149380000Y-81630000D01*
X151120000Y-81630000D01*
X151120000Y-82070000D01*
G37*
X151120000Y-82720000D02*
X149380000Y-82720000D01*
X149380000Y-82280000D01*
X151120000Y-82280000D01*
X151120000Y-82720000D01*
G36*
X151120000Y-82720000D02*
G01*
X149380000Y-82720000D01*
X149380000Y-82280000D01*
X151120000Y-82280000D01*
X151120000Y-82720000D01*
G37*
X151120000Y-83370000D02*
X149380000Y-83370000D01*
X149380000Y-82930000D01*
X151120000Y-82930000D01*
X151120000Y-83370000D01*
G36*
X151120000Y-83370000D02*
G01*
X149380000Y-83370000D01*
X149380000Y-82930000D01*
X151120000Y-82930000D01*
X151120000Y-83370000D01*
G37*
X151120000Y-84020000D02*
X149380000Y-84020000D01*
X149380000Y-83580000D01*
X151120000Y-83580000D01*
X151120000Y-84020000D01*
G36*
X151120000Y-84020000D02*
G01*
X149380000Y-84020000D01*
X149380000Y-83580000D01*
X151120000Y-83580000D01*
X151120000Y-84020000D01*
G37*
X154250000Y-82805000D02*
X151850000Y-82805000D01*
X151850000Y-76345000D01*
X154250000Y-76345000D01*
X154250000Y-82805000D01*
G36*
X154250000Y-82805000D02*
G01*
X151850000Y-82805000D01*
X151850000Y-76345000D01*
X154250000Y-76345000D01*
X154250000Y-82805000D01*
G37*
X156720000Y-75570000D02*
X154980000Y-75570000D01*
X154980000Y-75130000D01*
X156720000Y-75130000D01*
X156720000Y-75570000D01*
G36*
X156720000Y-75570000D02*
G01*
X154980000Y-75570000D01*
X154980000Y-75130000D01*
X156720000Y-75130000D01*
X156720000Y-75570000D01*
G37*
X156720000Y-76220000D02*
X154980000Y-76220000D01*
X154980000Y-75780000D01*
X156720000Y-75780000D01*
X156720000Y-76220000D01*
G36*
X156720000Y-76220000D02*
G01*
X154980000Y-76220000D01*
X154980000Y-75780000D01*
X156720000Y-75780000D01*
X156720000Y-76220000D01*
G37*
X156720000Y-76870000D02*
X154980000Y-76870000D01*
X154980000Y-76430000D01*
X156720000Y-76430000D01*
X156720000Y-76870000D01*
G36*
X156720000Y-76870000D02*
G01*
X154980000Y-76870000D01*
X154980000Y-76430000D01*
X156720000Y-76430000D01*
X156720000Y-76870000D01*
G37*
X156720000Y-77520000D02*
X154980000Y-77520000D01*
X154980000Y-77080000D01*
X156720000Y-77080000D01*
X156720000Y-77520000D01*
G36*
X156720000Y-77520000D02*
G01*
X154980000Y-77520000D01*
X154980000Y-77080000D01*
X156720000Y-77080000D01*
X156720000Y-77520000D01*
G37*
X156720000Y-78170000D02*
X154980000Y-78170000D01*
X154980000Y-77730000D01*
X156720000Y-77730000D01*
X156720000Y-78170000D01*
G36*
X156720000Y-78170000D02*
G01*
X154980000Y-78170000D01*
X154980000Y-77730000D01*
X156720000Y-77730000D01*
X156720000Y-78170000D01*
G37*
X156720000Y-78820000D02*
X154980000Y-78820000D01*
X154980000Y-78380000D01*
X156720000Y-78380000D01*
X156720000Y-78820000D01*
G36*
X156720000Y-78820000D02*
G01*
X154980000Y-78820000D01*
X154980000Y-78380000D01*
X156720000Y-78380000D01*
X156720000Y-78820000D01*
G37*
X156720000Y-79470000D02*
X154980000Y-79470000D01*
X154980000Y-79030000D01*
X156720000Y-79030000D01*
X156720000Y-79470000D01*
G36*
X156720000Y-79470000D02*
G01*
X154980000Y-79470000D01*
X154980000Y-79030000D01*
X156720000Y-79030000D01*
X156720000Y-79470000D01*
G37*
X156720000Y-80120000D02*
X154980000Y-80120000D01*
X154980000Y-79680000D01*
X156720000Y-79680000D01*
X156720000Y-80120000D01*
G36*
X156720000Y-80120000D02*
G01*
X154980000Y-80120000D01*
X154980000Y-79680000D01*
X156720000Y-79680000D01*
X156720000Y-80120000D01*
G37*
X156720000Y-80770000D02*
X154980000Y-80770000D01*
X154980000Y-80330000D01*
X156720000Y-80330000D01*
X156720000Y-80770000D01*
G36*
X156720000Y-80770000D02*
G01*
X154980000Y-80770000D01*
X154980000Y-80330000D01*
X156720000Y-80330000D01*
X156720000Y-80770000D01*
G37*
X156720000Y-81420000D02*
X154980000Y-81420000D01*
X154980000Y-80980000D01*
X156720000Y-80980000D01*
X156720000Y-81420000D01*
G36*
X156720000Y-81420000D02*
G01*
X154980000Y-81420000D01*
X154980000Y-80980000D01*
X156720000Y-80980000D01*
X156720000Y-81420000D01*
G37*
X156720000Y-82070000D02*
X154980000Y-82070000D01*
X154980000Y-81630000D01*
X156720000Y-81630000D01*
X156720000Y-82070000D01*
G36*
X156720000Y-82070000D02*
G01*
X154980000Y-82070000D01*
X154980000Y-81630000D01*
X156720000Y-81630000D01*
X156720000Y-82070000D01*
G37*
X156720000Y-82720000D02*
X154980000Y-82720000D01*
X154980000Y-82280000D01*
X156720000Y-82280000D01*
X156720000Y-82720000D01*
G36*
X156720000Y-82720000D02*
G01*
X154980000Y-82720000D01*
X154980000Y-82280000D01*
X156720000Y-82280000D01*
X156720000Y-82720000D01*
G37*
X156720000Y-83370000D02*
X154980000Y-83370000D01*
X154980000Y-82930000D01*
X156720000Y-82930000D01*
X156720000Y-83370000D01*
G36*
X156720000Y-83370000D02*
G01*
X154980000Y-83370000D01*
X154980000Y-82930000D01*
X156720000Y-82930000D01*
X156720000Y-83370000D01*
G37*
X156720000Y-84020000D02*
X154980000Y-84020000D01*
X154980000Y-83580000D01*
X156720000Y-83580000D01*
X156720000Y-84020000D01*
G36*
X156720000Y-84020000D02*
G01*
X154980000Y-84020000D01*
X154980000Y-83580000D01*
X156720000Y-83580000D01*
X156720000Y-84020000D01*
G37*
%TD*%
D11*
%TO.C,TPSP2*%
X169275000Y-86825000D03*
X171275000Y-86825000D03*
%TD*%
D12*
%TO.C,C1*%
X161350000Y-65900000D03*
D13*
X164850000Y-65900000D03*
%TD*%
D11*
%TO.C,RING1*%
X144100000Y-97050000D03*
X146100000Y-97050000D03*
%TD*%
D14*
%TO.C,U1*%
X152050000Y-75575000D03*
X152050000Y-76725000D03*
X152050000Y-77875000D03*
X152050000Y-79025000D03*
X152050000Y-80175000D03*
X152050000Y-81325000D03*
X152050000Y-82475000D03*
X152050000Y-83625000D03*
X153050000Y-75575000D03*
X153050000Y-76725000D03*
X153050000Y-77875000D03*
X153050000Y-79025000D03*
X153050000Y-80175000D03*
X153050000Y-81325000D03*
X153050000Y-82475000D03*
X153050000Y-83625000D03*
X154050000Y-75575000D03*
X154050000Y-76725000D03*
X154050000Y-77875000D03*
X154050000Y-79025000D03*
X154050000Y-80175000D03*
X154050000Y-81325000D03*
X154050000Y-82475000D03*
X154050000Y-83625000D03*
%TD*%
D13*
%TO.C,J3*%
X127300000Y-67500000D03*
D15*
X136300000Y-67500000D03*
D16*
X130300000Y-67500000D03*
D17*
X129300000Y-63000000D03*
X129300000Y-72000000D03*
%TD*%
D18*
%TO.C,R6*%
X144502500Y-84900000D03*
X145697500Y-84900000D03*
%TD*%
D19*
%TO.C,C11*%
X158400000Y-74967500D03*
X158400000Y-73832500D03*
%TD*%
D20*
%TO.C,L1*%
X160775000Y-74100000D03*
X165425000Y-74100000D03*
%TD*%
D21*
%TO.C,C7*%
X155782500Y-85300000D03*
X156917500Y-85300000D03*
%TD*%
D22*
%TO.C,RV1*%
X138615000Y-81340000D03*
X141155000Y-78800000D03*
X138615000Y-76260000D03*
%TD*%
D23*
%TO.C,C4*%
X156562500Y-87050000D03*
X158637500Y-87050000D03*
%TD*%
D24*
%TO.C,R5*%
X145697500Y-83700000D03*
X144502500Y-83700000D03*
%TD*%
D25*
%TO.C,C6*%
X156985000Y-73800000D03*
X155850000Y-73800000D03*
%TD*%
D26*
%TO.C,J2*%
X171200000Y-82200000D03*
X179400000Y-82200000D03*
X171200000Y-77200000D03*
X179400000Y-77200000D03*
%TD*%
D27*
%TO.C,C14*%
X165237500Y-80700000D03*
X163162500Y-80700000D03*
%TD*%
D20*
%TO.C,L2*%
X160775000Y-85000000D03*
X165425000Y-85000000D03*
%TD*%
D18*
%TO.C,R1*%
X146655000Y-74550000D03*
X147850000Y-74550000D03*
%TD*%
D25*
%TO.C,C10*%
X148317500Y-82550000D03*
X147182500Y-82550000D03*
%TD*%
D12*
%TO.C,C2*%
X161350000Y-94300000D03*
D13*
X164850000Y-94300000D03*
%TD*%
D28*
%TO.C,C12*%
X158400000Y-84182500D03*
X158400000Y-85317500D03*
%TD*%
D11*
%TO.C,GND1*%
X125800000Y-79900000D03*
X127800000Y-79900000D03*
%TD*%
D27*
%TO.C,C13*%
X165237500Y-78400000D03*
X163162500Y-78400000D03*
%TD*%
D11*
%TO.C,SLEEVE1*%
X150600000Y-97050000D03*
X152600000Y-97050000D03*
%TD*%
D29*
%TO.C,R3*%
X132600000Y-77397500D03*
X132600000Y-76202500D03*
%TD*%
D30*
%TO.C,J1*%
X130200000Y-91300000D03*
X137200000Y-91300000D03*
D31*
X131100000Y-87600000D03*
X129100000Y-95000000D03*
D32*
X138500000Y-95000000D03*
%TD*%
D11*
%TO.C,TPSP1*%
X169300000Y-72000000D03*
X171300000Y-72000000D03*
%TD*%
D27*
%TO.C,C3*%
X158637500Y-72050000D03*
X156562500Y-72050000D03*
%TD*%
D18*
%TO.C,R2*%
X147155000Y-85550000D03*
X148350000Y-85550000D03*
%TD*%
D23*
%TO.C,C9*%
X145062500Y-79850000D03*
X147137500Y-79850000D03*
%TD*%
D27*
%TO.C,C5*%
X147137500Y-77500000D03*
X145062500Y-77500000D03*
%TD*%
D25*
%TO.C,C8*%
X148317500Y-83600000D03*
X147182500Y-83600000D03*
%TD*%
M02*
