%TF.GenerationSoftware,KiCad,Pcbnew,8.0.6*%
%TF.CreationDate,2024-10-24T21:34:22-07:00*%
%TF.ProjectId,PedalSynth,50656461-6c53-4796-9e74-682e6b696361,r1.0*%
%TF.SameCoordinates,Original*%
%TF.FileFunction,Paste,Top*%
%TF.FilePolarity,Positive*%
%FSLAX46Y46*%
G04 Gerber Fmt 4.6, Leading zero omitted, Abs format (unit mm)*
G04 Created by KiCad (PCBNEW 8.0.6) date 2024-10-24 21:34:22*
%MOMM*%
%LPD*%
G01*
G04 APERTURE LIST*
G04 Aperture macros list*
%AMRoundRect*
0 Rectangle with rounded corners*
0 $1 Rounding radius*
0 $2 $3 $4 $5 $6 $7 $8 $9 X,Y pos of 4 corners*
0 Add a 4 corners polygon primitive as box body*
4,1,4,$2,$3,$4,$5,$6,$7,$8,$9,$2,$3,0*
0 Add four circle primitives for the rounded corners*
1,1,$1+$1,$2,$3*
1,1,$1+$1,$4,$5*
1,1,$1+$1,$6,$7*
1,1,$1+$1,$8,$9*
0 Add four rect primitives between the rounded corners*
20,1,$1+$1,$2,$3,$4,$5,0*
20,1,$1+$1,$4,$5,$6,$7,0*
20,1,$1+$1,$6,$7,$8,$9,0*
20,1,$1+$1,$8,$9,$2,$3,0*%
G04 Aperture macros list end*
%ADD10C,0.010000*%
%ADD11RoundRect,0.160000X-0.197500X-0.160000X0.197500X-0.160000X0.197500X0.160000X-0.197500X0.160000X0*%
%ADD12RoundRect,0.155000X0.155000X-0.212500X0.155000X0.212500X-0.155000X0.212500X-0.155000X-0.212500X0*%
%ADD13R,2.350000X5.100000*%
%ADD14RoundRect,0.155000X-0.212500X-0.155000X0.212500X-0.155000X0.212500X0.155000X-0.212500X0.155000X0*%
%ADD15RoundRect,0.250000X-0.337500X-0.475000X0.337500X-0.475000X0.337500X0.475000X-0.337500X0.475000X0*%
%ADD16RoundRect,0.160000X0.197500X0.160000X-0.197500X0.160000X-0.197500X-0.160000X0.197500X-0.160000X0*%
%ADD17RoundRect,0.155000X0.212500X0.155000X-0.212500X0.155000X-0.212500X-0.155000X0.212500X-0.155000X0*%
%ADD18RoundRect,0.250000X0.337500X0.475000X-0.337500X0.475000X-0.337500X-0.475000X0.337500X-0.475000X0*%
%ADD19RoundRect,0.155000X-0.155000X0.212500X-0.155000X-0.212500X0.155000X-0.212500X0.155000X0.212500X0*%
%ADD20RoundRect,0.160000X0.160000X-0.197500X0.160000X0.197500X-0.160000X0.197500X-0.160000X-0.197500X0*%
%ADD21R,2.200000X2.800000*%
%ADD22R,2.800000X2.800000*%
G04 APERTURE END LIST*
D10*
%TO.C,U1*%
X151025000Y-75475000D02*
X149475000Y-75475000D01*
X149475000Y-75225000D01*
X151025000Y-75225000D01*
X151025000Y-75475000D01*
G36*
X151025000Y-75475000D02*
G01*
X149475000Y-75475000D01*
X149475000Y-75225000D01*
X151025000Y-75225000D01*
X151025000Y-75475000D01*
G37*
X151025000Y-76125000D02*
X149475000Y-76125000D01*
X149475000Y-75875000D01*
X151025000Y-75875000D01*
X151025000Y-76125000D01*
G36*
X151025000Y-76125000D02*
G01*
X149475000Y-76125000D01*
X149475000Y-75875000D01*
X151025000Y-75875000D01*
X151025000Y-76125000D01*
G37*
X151025000Y-76775000D02*
X149475000Y-76775000D01*
X149475000Y-76525000D01*
X151025000Y-76525000D01*
X151025000Y-76775000D01*
G36*
X151025000Y-76775000D02*
G01*
X149475000Y-76775000D01*
X149475000Y-76525000D01*
X151025000Y-76525000D01*
X151025000Y-76775000D01*
G37*
X151025000Y-77425000D02*
X149475000Y-77425000D01*
X149475000Y-77175000D01*
X151025000Y-77175000D01*
X151025000Y-77425000D01*
G36*
X151025000Y-77425000D02*
G01*
X149475000Y-77425000D01*
X149475000Y-77175000D01*
X151025000Y-77175000D01*
X151025000Y-77425000D01*
G37*
X151025000Y-78075000D02*
X149475000Y-78075000D01*
X149475000Y-77825000D01*
X151025000Y-77825000D01*
X151025000Y-78075000D01*
G36*
X151025000Y-78075000D02*
G01*
X149475000Y-78075000D01*
X149475000Y-77825000D01*
X151025000Y-77825000D01*
X151025000Y-78075000D01*
G37*
X151025000Y-78725000D02*
X149475000Y-78725000D01*
X149475000Y-78475000D01*
X151025000Y-78475000D01*
X151025000Y-78725000D01*
G36*
X151025000Y-78725000D02*
G01*
X149475000Y-78725000D01*
X149475000Y-78475000D01*
X151025000Y-78475000D01*
X151025000Y-78725000D01*
G37*
X151025000Y-79375000D02*
X149475000Y-79375000D01*
X149475000Y-79125000D01*
X151025000Y-79125000D01*
X151025000Y-79375000D01*
G36*
X151025000Y-79375000D02*
G01*
X149475000Y-79375000D01*
X149475000Y-79125000D01*
X151025000Y-79125000D01*
X151025000Y-79375000D01*
G37*
X151025000Y-80025000D02*
X149475000Y-80025000D01*
X149475000Y-79775000D01*
X151025000Y-79775000D01*
X151025000Y-80025000D01*
G36*
X151025000Y-80025000D02*
G01*
X149475000Y-80025000D01*
X149475000Y-79775000D01*
X151025000Y-79775000D01*
X151025000Y-80025000D01*
G37*
X151025000Y-80675000D02*
X149475000Y-80675000D01*
X149475000Y-80425000D01*
X151025000Y-80425000D01*
X151025000Y-80675000D01*
G36*
X151025000Y-80675000D02*
G01*
X149475000Y-80675000D01*
X149475000Y-80425000D01*
X151025000Y-80425000D01*
X151025000Y-80675000D01*
G37*
X151025000Y-81325000D02*
X149475000Y-81325000D01*
X149475000Y-81075000D01*
X151025000Y-81075000D01*
X151025000Y-81325000D01*
G36*
X151025000Y-81325000D02*
G01*
X149475000Y-81325000D01*
X149475000Y-81075000D01*
X151025000Y-81075000D01*
X151025000Y-81325000D01*
G37*
X151025000Y-81975000D02*
X149475000Y-81975000D01*
X149475000Y-81725000D01*
X151025000Y-81725000D01*
X151025000Y-81975000D01*
G36*
X151025000Y-81975000D02*
G01*
X149475000Y-81975000D01*
X149475000Y-81725000D01*
X151025000Y-81725000D01*
X151025000Y-81975000D01*
G37*
X151025000Y-82625000D02*
X149475000Y-82625000D01*
X149475000Y-82375000D01*
X151025000Y-82375000D01*
X151025000Y-82625000D01*
G36*
X151025000Y-82625000D02*
G01*
X149475000Y-82625000D01*
X149475000Y-82375000D01*
X151025000Y-82375000D01*
X151025000Y-82625000D01*
G37*
X151025000Y-83275000D02*
X149475000Y-83275000D01*
X149475000Y-83025000D01*
X151025000Y-83025000D01*
X151025000Y-83275000D01*
G36*
X151025000Y-83275000D02*
G01*
X149475000Y-83275000D01*
X149475000Y-83025000D01*
X151025000Y-83025000D01*
X151025000Y-83275000D01*
G37*
X151025000Y-83925000D02*
X149475000Y-83925000D01*
X149475000Y-83675000D01*
X151025000Y-83675000D01*
X151025000Y-83925000D01*
G36*
X151025000Y-83925000D02*
G01*
X149475000Y-83925000D01*
X149475000Y-83675000D01*
X151025000Y-83675000D01*
X151025000Y-83925000D01*
G37*
X154250000Y-82805000D02*
X151850000Y-82805000D01*
X151850000Y-76345000D01*
X154250000Y-76345000D01*
X154250000Y-82805000D01*
G36*
X154250000Y-82805000D02*
G01*
X151850000Y-82805000D01*
X151850000Y-76345000D01*
X154250000Y-76345000D01*
X154250000Y-82805000D01*
G37*
X156625000Y-75475000D02*
X155075000Y-75475000D01*
X155075000Y-75225000D01*
X156625000Y-75225000D01*
X156625000Y-75475000D01*
G36*
X156625000Y-75475000D02*
G01*
X155075000Y-75475000D01*
X155075000Y-75225000D01*
X156625000Y-75225000D01*
X156625000Y-75475000D01*
G37*
X156625000Y-76125000D02*
X155075000Y-76125000D01*
X155075000Y-75875000D01*
X156625000Y-75875000D01*
X156625000Y-76125000D01*
G36*
X156625000Y-76125000D02*
G01*
X155075000Y-76125000D01*
X155075000Y-75875000D01*
X156625000Y-75875000D01*
X156625000Y-76125000D01*
G37*
X156625000Y-76775000D02*
X155075000Y-76775000D01*
X155075000Y-76525000D01*
X156625000Y-76525000D01*
X156625000Y-76775000D01*
G36*
X156625000Y-76775000D02*
G01*
X155075000Y-76775000D01*
X155075000Y-76525000D01*
X156625000Y-76525000D01*
X156625000Y-76775000D01*
G37*
X156625000Y-77425000D02*
X155075000Y-77425000D01*
X155075000Y-77175000D01*
X156625000Y-77175000D01*
X156625000Y-77425000D01*
G36*
X156625000Y-77425000D02*
G01*
X155075000Y-77425000D01*
X155075000Y-77175000D01*
X156625000Y-77175000D01*
X156625000Y-77425000D01*
G37*
X156625000Y-78075000D02*
X155075000Y-78075000D01*
X155075000Y-77825000D01*
X156625000Y-77825000D01*
X156625000Y-78075000D01*
G36*
X156625000Y-78075000D02*
G01*
X155075000Y-78075000D01*
X155075000Y-77825000D01*
X156625000Y-77825000D01*
X156625000Y-78075000D01*
G37*
X156625000Y-78725000D02*
X155075000Y-78725000D01*
X155075000Y-78475000D01*
X156625000Y-78475000D01*
X156625000Y-78725000D01*
G36*
X156625000Y-78725000D02*
G01*
X155075000Y-78725000D01*
X155075000Y-78475000D01*
X156625000Y-78475000D01*
X156625000Y-78725000D01*
G37*
X156625000Y-79375000D02*
X155075000Y-79375000D01*
X155075000Y-79125000D01*
X156625000Y-79125000D01*
X156625000Y-79375000D01*
G36*
X156625000Y-79375000D02*
G01*
X155075000Y-79375000D01*
X155075000Y-79125000D01*
X156625000Y-79125000D01*
X156625000Y-79375000D01*
G37*
X156625000Y-80025000D02*
X155075000Y-80025000D01*
X155075000Y-79775000D01*
X156625000Y-79775000D01*
X156625000Y-80025000D01*
G36*
X156625000Y-80025000D02*
G01*
X155075000Y-80025000D01*
X155075000Y-79775000D01*
X156625000Y-79775000D01*
X156625000Y-80025000D01*
G37*
X156625000Y-80675000D02*
X155075000Y-80675000D01*
X155075000Y-80425000D01*
X156625000Y-80425000D01*
X156625000Y-80675000D01*
G36*
X156625000Y-80675000D02*
G01*
X155075000Y-80675000D01*
X155075000Y-80425000D01*
X156625000Y-80425000D01*
X156625000Y-80675000D01*
G37*
X156625000Y-81325000D02*
X155075000Y-81325000D01*
X155075000Y-81075000D01*
X156625000Y-81075000D01*
X156625000Y-81325000D01*
G36*
X156625000Y-81325000D02*
G01*
X155075000Y-81325000D01*
X155075000Y-81075000D01*
X156625000Y-81075000D01*
X156625000Y-81325000D01*
G37*
X156625000Y-81975000D02*
X155075000Y-81975000D01*
X155075000Y-81725000D01*
X156625000Y-81725000D01*
X156625000Y-81975000D01*
G36*
X156625000Y-81975000D02*
G01*
X155075000Y-81975000D01*
X155075000Y-81725000D01*
X156625000Y-81725000D01*
X156625000Y-81975000D01*
G37*
X156625000Y-82625000D02*
X155075000Y-82625000D01*
X155075000Y-82375000D01*
X156625000Y-82375000D01*
X156625000Y-82625000D01*
G36*
X156625000Y-82625000D02*
G01*
X155075000Y-82625000D01*
X155075000Y-82375000D01*
X156625000Y-82375000D01*
X156625000Y-82625000D01*
G37*
X156625000Y-83275000D02*
X155075000Y-83275000D01*
X155075000Y-83025000D01*
X156625000Y-83025000D01*
X156625000Y-83275000D01*
G36*
X156625000Y-83275000D02*
G01*
X155075000Y-83275000D01*
X155075000Y-83025000D01*
X156625000Y-83025000D01*
X156625000Y-83275000D01*
G37*
X156625000Y-83925000D02*
X155075000Y-83925000D01*
X155075000Y-83675000D01*
X156625000Y-83675000D01*
X156625000Y-83925000D01*
G36*
X156625000Y-83925000D02*
G01*
X155075000Y-83925000D01*
X155075000Y-83675000D01*
X156625000Y-83675000D01*
X156625000Y-83925000D01*
G37*
%TD*%
D11*
%TO.C,R6*%
X144502500Y-84900000D03*
X145697500Y-84900000D03*
%TD*%
D12*
%TO.C,C11*%
X158400000Y-74967500D03*
X158400000Y-73832500D03*
%TD*%
D13*
%TO.C,L1*%
X160775000Y-74100000D03*
X165425000Y-74100000D03*
%TD*%
D14*
%TO.C,C7*%
X155782500Y-85300000D03*
X156917500Y-85300000D03*
%TD*%
D15*
%TO.C,C4*%
X156562500Y-87050000D03*
X158637500Y-87050000D03*
%TD*%
D16*
%TO.C,R5*%
X145697500Y-83700000D03*
X144502500Y-83700000D03*
%TD*%
D17*
%TO.C,C6*%
X156985000Y-73800000D03*
X155850000Y-73800000D03*
%TD*%
D18*
%TO.C,C14*%
X165237500Y-80700000D03*
X163162500Y-80700000D03*
%TD*%
D13*
%TO.C,L2*%
X160775000Y-85000000D03*
X165425000Y-85000000D03*
%TD*%
D11*
%TO.C,R1*%
X146655000Y-74550000D03*
X147850000Y-74550000D03*
%TD*%
D17*
%TO.C,C10*%
X148317500Y-82550000D03*
X147182500Y-82550000D03*
%TD*%
D19*
%TO.C,C12*%
X158400000Y-84182500D03*
X158400000Y-85317500D03*
%TD*%
D18*
%TO.C,C13*%
X165237500Y-78400000D03*
X163162500Y-78400000D03*
%TD*%
D20*
%TO.C,R3*%
X132600000Y-77397500D03*
X132600000Y-76202500D03*
%TD*%
D21*
%TO.C,J1*%
X131100000Y-87600000D03*
X129100000Y-95000000D03*
D22*
X138500000Y-95000000D03*
%TD*%
D18*
%TO.C,C3*%
X158637500Y-72050000D03*
X156562500Y-72050000D03*
%TD*%
D11*
%TO.C,R2*%
X147155000Y-85550000D03*
X148350000Y-85550000D03*
%TD*%
D15*
%TO.C,C9*%
X145062500Y-79850000D03*
X147137500Y-79850000D03*
%TD*%
D18*
%TO.C,C5*%
X147137500Y-77500000D03*
X145062500Y-77500000D03*
%TD*%
D17*
%TO.C,C8*%
X148317500Y-83600000D03*
X147182500Y-83600000D03*
%TD*%
M02*
