%TF.GenerationSoftware,KiCad,Pcbnew,8.0.6*%
%TF.CreationDate,2024-10-24T21:34:22-07:00*%
%TF.ProjectId,PedalSynth,50656461-6c53-4796-9e74-682e6b696361,r1.0*%
%TF.SameCoordinates,Original*%
%TF.FileFunction,Copper,L2,Bot*%
%TF.FilePolarity,Positive*%
%FSLAX46Y46*%
G04 Gerber Fmt 4.6, Leading zero omitted, Abs format (unit mm)*
G04 Created by KiCad (PCBNEW 8.0.6) date 2024-10-24 21:34:22*
%MOMM*%
%LPD*%
G01*
G04 APERTURE LIST*
%TA.AperFunction,ComponentPad*%
%ADD10C,1.400000*%
%TD*%
%TA.AperFunction,ComponentPad*%
%ADD11R,1.600000X1.600000*%
%TD*%
%TA.AperFunction,ComponentPad*%
%ADD12C,1.600000*%
%TD*%
%TA.AperFunction,ComponentPad*%
%ADD13C,0.800000*%
%TD*%
%TA.AperFunction,ComponentPad*%
%ADD14R,2.000000X4.000000*%
%TD*%
%TA.AperFunction,ComponentPad*%
%ADD15O,2.000000X3.300000*%
%TD*%
%TA.AperFunction,ComponentPad*%
%ADD16O,3.500000X2.000000*%
%TD*%
%TA.AperFunction,ComponentPad*%
%ADD17C,1.440000*%
%TD*%
%TA.AperFunction,ComponentPad*%
%ADD18C,1.950000*%
%TD*%
%TA.AperFunction,ViaPad*%
%ADD19C,0.700000*%
%TD*%
%TA.AperFunction,Conductor*%
%ADD20C,1.000000*%
%TD*%
%TA.AperFunction,Conductor*%
%ADD21C,1.600000*%
%TD*%
%TA.AperFunction,Conductor*%
%ADD22C,0.400000*%
%TD*%
G04 APERTURE END LIST*
D10*
%TO.P,TPSP2,1,1*%
%TO.N,/SPK-*%
X169275000Y-86825000D03*
X171275000Y-86825000D03*
%TD*%
D11*
%TO.P,C1,1*%
%TO.N,VCC*%
X161350000Y-65900000D03*
D12*
%TO.P,C1,2*%
%TO.N,GND*%
X164850000Y-65900000D03*
%TD*%
D10*
%TO.P,RING1,1,1*%
%TO.N,Net-(J1-PadR)*%
X144100000Y-97050000D03*
X146100000Y-97050000D03*
%TD*%
D13*
%TO.P,U1,29,PAD*%
%TO.N,GND*%
X152050000Y-75575000D03*
X152050000Y-76725000D03*
X152050000Y-77875000D03*
X152050000Y-79025000D03*
X152050000Y-80175000D03*
X152050000Y-81325000D03*
X152050000Y-82475000D03*
X152050000Y-83625000D03*
X153050000Y-75575000D03*
X153050000Y-76725000D03*
X153050000Y-77875000D03*
X153050000Y-79025000D03*
X153050000Y-80175000D03*
X153050000Y-81325000D03*
X153050000Y-82475000D03*
X153050000Y-83625000D03*
X154050000Y-75575000D03*
X154050000Y-76725000D03*
X154050000Y-77875000D03*
X154050000Y-79025000D03*
X154050000Y-80175000D03*
X154050000Y-81325000D03*
X154050000Y-82475000D03*
X154050000Y-83625000D03*
%TD*%
D14*
%TO.P,J3,1*%
%TO.N,VCC*%
X136300000Y-67500000D03*
D15*
%TO.P,J3,2*%
%TO.N,GND*%
X130300000Y-67500000D03*
D16*
%TO.P,J3,MP*%
%TO.N,N/C*%
X129300000Y-63000000D03*
X129300000Y-72000000D03*
%TD*%
D17*
%TO.P,RV1,1,1*%
%TO.N,/GVDD*%
X138615000Y-81340000D03*
%TO.P,RV1,2,2*%
%TO.N,Net-(U1-PLIMIT)*%
X141155000Y-78800000D03*
%TO.P,RV1,3,3*%
%TO.N,Net-(R3-Pad2)*%
X138615000Y-76260000D03*
%TD*%
D18*
%TO.P,J2,1_1,1_1*%
%TO.N,/SPK-*%
X171200000Y-82200000D03*
%TO.P,J2,1_2,1_2*%
X179400000Y-82200000D03*
%TO.P,J2,2_1,2_1*%
%TO.N,/SPK+*%
X171200000Y-77200000D03*
%TO.P,J2,2_2,2_2*%
X179400000Y-77200000D03*
%TD*%
D11*
%TO.P,C2,1*%
%TO.N,VCC*%
X161350000Y-94300000D03*
D12*
%TO.P,C2,2*%
%TO.N,GND*%
X164850000Y-94300000D03*
%TD*%
D10*
%TO.P,GND1,1,1*%
%TO.N,GND*%
X125800000Y-79900000D03*
X127800000Y-79900000D03*
%TD*%
%TO.P,SLEEVE1,1,1*%
%TO.N,Net-(J1-PadT)*%
X150600000Y-97050000D03*
X152600000Y-97050000D03*
%TD*%
%TO.P,TPSP1,1,1*%
%TO.N,/SPK+*%
X169300000Y-72000000D03*
X171300000Y-72000000D03*
%TD*%
D19*
%TO.N,GND*%
X182100000Y-70300000D03*
X169600000Y-97800000D03*
X184600000Y-80300000D03*
X172100000Y-92800000D03*
X153350000Y-70800000D03*
X182100000Y-80300000D03*
X153850000Y-90800000D03*
X136100000Y-63800000D03*
X158600000Y-98800000D03*
X151850000Y-91800000D03*
X133100000Y-63800000D03*
X147850000Y-87800000D03*
X152350000Y-70800000D03*
X155350000Y-68800000D03*
X154350000Y-72800000D03*
X160350000Y-89800000D03*
X148350000Y-69800000D03*
X154350000Y-70800000D03*
X153350000Y-68800000D03*
X152850000Y-85300000D03*
X160350000Y-88800000D03*
X152850000Y-86300000D03*
X150350000Y-67850000D03*
X156850000Y-92800000D03*
X148850000Y-92800000D03*
X184600000Y-85300000D03*
X174600000Y-67800000D03*
X153850000Y-91800000D03*
X177100000Y-72800000D03*
X153850000Y-89800000D03*
X142100000Y-62800000D03*
X152850000Y-88800000D03*
X151350000Y-71800000D03*
X147850000Y-89800000D03*
X147850000Y-91800000D03*
X151350000Y-70800000D03*
X182100000Y-75300000D03*
X158850000Y-70300000D03*
X142100000Y-98800000D03*
X162100000Y-62800000D03*
X150850000Y-89800000D03*
X164600000Y-70300000D03*
X166600000Y-94300000D03*
X151350000Y-67850000D03*
X158350000Y-88800000D03*
X144175000Y-68900000D03*
X147850000Y-90800000D03*
X174600000Y-70300000D03*
X164850000Y-92550000D03*
X179600000Y-70300000D03*
X134100000Y-89800000D03*
X154850000Y-91800000D03*
X149850000Y-86300000D03*
X129600000Y-97800000D03*
X156100000Y-98800000D03*
X167100000Y-62800000D03*
X149350000Y-70800000D03*
X155850000Y-90800000D03*
X129600000Y-82800000D03*
X161850000Y-80050000D03*
X151350000Y-72800000D03*
X132900000Y-65700000D03*
X150350000Y-68800000D03*
X174600000Y-72800000D03*
X131200000Y-77400000D03*
X163500000Y-67200000D03*
X156100000Y-96800000D03*
X144325000Y-75875000D03*
X148850000Y-88800000D03*
X179600000Y-87800000D03*
X145850000Y-88800000D03*
X154350000Y-69800000D03*
X134600000Y-97800000D03*
X169600000Y-92800000D03*
X131900000Y-65600000D03*
X184600000Y-70300000D03*
X152350000Y-72800000D03*
X150350000Y-72800000D03*
X164850000Y-96050000D03*
X154600000Y-62800000D03*
X164900000Y-67700000D03*
X184600000Y-67800000D03*
X184600000Y-77800000D03*
X125600000Y-63800000D03*
X139600000Y-62800000D03*
X148350000Y-71800000D03*
X139600000Y-98800000D03*
X127100000Y-65300000D03*
X133300000Y-67500000D03*
X172100000Y-67800000D03*
X151850000Y-88800000D03*
X179600000Y-72800000D03*
X161850000Y-78050000D03*
X153350000Y-73800000D03*
X133300000Y-66600000D03*
X149850000Y-88800000D03*
X166200000Y-67100000D03*
X141850000Y-69300000D03*
X151850000Y-92800000D03*
X132600000Y-78800000D03*
X169600000Y-67800000D03*
X153350000Y-69800000D03*
X158901041Y-81498959D03*
X153850000Y-88800000D03*
X150850000Y-88800000D03*
X132100000Y-82800000D03*
X177100000Y-85300000D03*
X172100000Y-90300000D03*
X149600000Y-62800000D03*
X150850000Y-87800000D03*
X152850000Y-92800000D03*
X146325000Y-75875000D03*
X154756497Y-85300000D03*
X151350000Y-73800000D03*
X182100000Y-85300000D03*
X144600000Y-62800000D03*
X143100000Y-86050000D03*
X155850000Y-91800000D03*
X153350000Y-72800000D03*
X153850000Y-86300000D03*
X154350000Y-73800000D03*
X127100000Y-97800000D03*
X177100000Y-75300000D03*
X148850000Y-89800000D03*
X150850000Y-90800000D03*
X133300000Y-68400000D03*
X129600000Y-80300000D03*
X125600000Y-71300000D03*
X147750000Y-84650000D03*
X148850000Y-91800000D03*
X149350000Y-71800000D03*
X154350000Y-71800000D03*
X149350000Y-73800000D03*
X179600000Y-67800000D03*
X159850000Y-70300000D03*
X152850000Y-91800000D03*
X152350000Y-68800000D03*
X132300000Y-68400000D03*
X151850000Y-89800000D03*
X177100000Y-87800000D03*
X148100000Y-98800000D03*
X148350000Y-70800000D03*
X151350000Y-68800000D03*
X164800000Y-64100000D03*
X166100000Y-93050000D03*
X158900000Y-77550000D03*
X161850000Y-79050000D03*
X150350000Y-71800000D03*
X147100000Y-86800000D03*
X149350000Y-69800000D03*
X167100000Y-90300000D03*
X147850000Y-88800000D03*
X160850000Y-81050000D03*
X166100000Y-95550000D03*
X169600000Y-90300000D03*
X177100000Y-67800000D03*
X152350000Y-73800000D03*
X149850000Y-89800000D03*
X174600000Y-90300000D03*
X151350000Y-69800000D03*
X148800000Y-77900000D03*
X149850000Y-92800000D03*
X145800000Y-82380000D03*
X174600000Y-87800000D03*
X177100000Y-70300000D03*
X159850000Y-69300000D03*
X152850000Y-90800000D03*
X150350000Y-69800000D03*
X149850000Y-87800000D03*
X152350000Y-71800000D03*
X154850000Y-89800000D03*
X160850000Y-70300000D03*
X161850000Y-81050000D03*
X126850000Y-95050000D03*
X177100000Y-90300000D03*
X163600000Y-93050000D03*
X162100000Y-98800000D03*
X151850000Y-86300000D03*
X149850000Y-85300000D03*
X184600000Y-87800000D03*
X148350000Y-72800000D03*
X167100000Y-97800000D03*
X148600000Y-76050000D03*
X151850000Y-87800000D03*
X160850000Y-80050000D03*
X153350000Y-71800000D03*
X146850000Y-89800000D03*
X132100000Y-97800000D03*
X150850000Y-91800000D03*
X166100000Y-64400000D03*
X125600000Y-65800000D03*
X131350000Y-95050000D03*
X152100000Y-62800000D03*
X148600000Y-79850000D03*
X150850000Y-85300000D03*
X159350000Y-89800000D03*
X149850000Y-91800000D03*
X179600000Y-92050000D03*
X182100000Y-67800000D03*
X153850000Y-85300000D03*
X127100000Y-77800000D03*
X174600000Y-75300000D03*
X137100000Y-98800000D03*
X132100000Y-80300000D03*
X182100000Y-82800000D03*
X157100000Y-62800000D03*
X152850000Y-87800000D03*
X149350000Y-68800000D03*
X146850000Y-88800000D03*
X150350000Y-73800000D03*
X146850000Y-90800000D03*
X127100000Y-86800000D03*
X127100000Y-70300000D03*
X145325000Y-75875000D03*
X184600000Y-75300000D03*
X147350000Y-70800000D03*
X154350000Y-67850000D03*
X151850000Y-90800000D03*
X142350000Y-96050000D03*
X145850000Y-85800000D03*
X154850000Y-92800000D03*
X154756497Y-86300000D03*
X159350000Y-88800000D03*
X160850000Y-78050000D03*
X139600000Y-70300000D03*
X154350000Y-68800000D03*
X143000000Y-79200000D03*
X163600000Y-64500000D03*
X164600000Y-98800000D03*
X148850000Y-87800000D03*
X174600000Y-92800000D03*
X148850000Y-90800000D03*
X132300000Y-67500000D03*
X157350000Y-84300000D03*
X131900000Y-69400000D03*
X131100000Y-84800000D03*
X129100000Y-92550000D03*
X132300000Y-66600000D03*
X150850000Y-92800000D03*
X177100000Y-92800000D03*
X184600000Y-82800000D03*
X149850000Y-90800000D03*
X156850000Y-91800000D03*
X152850000Y-89800000D03*
X158600000Y-96800000D03*
X145850000Y-87800000D03*
X152350000Y-69800000D03*
X144325000Y-74875000D03*
X154850000Y-90800000D03*
X132900000Y-69350000D03*
X174600000Y-85300000D03*
X166700000Y-65500000D03*
X155850000Y-92800000D03*
X179600000Y-85300000D03*
X182100000Y-77800000D03*
X145850000Y-89800000D03*
X147350000Y-71800000D03*
X163600000Y-95550000D03*
X127100000Y-90300000D03*
X149350000Y-72800000D03*
X129600000Y-77800000D03*
X125600000Y-69300000D03*
X169600000Y-95300000D03*
X150850000Y-86300000D03*
X157350000Y-74800000D03*
X151850000Y-85300000D03*
X160850000Y-79050000D03*
X182100000Y-87800000D03*
X155350000Y-67850000D03*
X150350000Y-70800000D03*
X147100000Y-62800000D03*
X145850000Y-86800000D03*
X146850000Y-87800000D03*
X153850000Y-92800000D03*
X144850000Y-88800000D03*
%TO.N,VCC*%
X145650000Y-74550000D03*
%TO.N,/BSPL*%
X159700000Y-78900000D03*
X157600000Y-76200000D03*
%TO.N,/BSNR*%
X159700000Y-80200000D03*
X157650000Y-83050000D03*
%TD*%
D20*
%TO.N,VCC*%
X145050000Y-70615075D02*
X145050000Y-73950000D01*
X149765075Y-65900000D02*
X145050000Y-70615075D01*
D21*
X135600000Y-81800000D02*
X148100000Y-94300000D01*
X136300000Y-67500000D02*
X137000000Y-66800000D01*
D20*
X161350000Y-65900000D02*
X149765075Y-65900000D01*
D21*
X148100000Y-94300000D02*
X161350000Y-94300000D01*
X135600000Y-68200000D02*
X135600000Y-81800000D01*
X137000000Y-66800000D02*
X148865075Y-66800000D01*
X136300000Y-67500000D02*
X135600000Y-68200000D01*
D20*
X145050000Y-73950000D02*
X145650000Y-74550000D01*
D22*
%TO.N,/BSPL*%
X159700000Y-78900000D02*
X159189339Y-78900000D01*
X157600000Y-77310661D02*
X157600000Y-76200000D01*
X159189339Y-78900000D02*
X157600000Y-77310661D01*
%TO.N,/BSNR*%
X157650000Y-81689339D02*
X159139339Y-80200000D01*
X159139339Y-80200000D02*
X159700000Y-80200000D01*
X157650000Y-83050000D02*
X157650000Y-81689339D01*
%TD*%
%TA.AperFunction,Conductor*%
%TO.N,GND*%
G36*
X184602021Y-60800066D02*
G01*
X184606710Y-60800218D01*
X184651282Y-60801673D01*
X184679325Y-60805831D01*
X184776403Y-60831843D01*
X184806301Y-60844227D01*
X184891558Y-60893450D01*
X184917237Y-60913155D01*
X184986844Y-60982762D01*
X185006550Y-61008443D01*
X185055770Y-61093694D01*
X185068158Y-61123601D01*
X185094167Y-61220670D01*
X185098326Y-61248717D01*
X185099934Y-61297975D01*
X185100000Y-61302021D01*
X185100000Y-99297978D01*
X185099934Y-99302024D01*
X185098326Y-99351282D01*
X185094167Y-99379329D01*
X185068158Y-99476398D01*
X185055770Y-99506305D01*
X185006550Y-99591556D01*
X184986844Y-99617237D01*
X184917237Y-99686844D01*
X184891556Y-99706550D01*
X184806305Y-99755770D01*
X184776398Y-99768158D01*
X184679329Y-99794167D01*
X184651282Y-99798326D01*
X184606973Y-99799772D01*
X184602020Y-99799934D01*
X184597978Y-99800000D01*
X124602022Y-99800000D01*
X124597979Y-99799934D01*
X124592688Y-99799761D01*
X124548717Y-99798326D01*
X124520670Y-99794167D01*
X124423601Y-99768158D01*
X124393694Y-99755770D01*
X124308443Y-99706550D01*
X124282762Y-99686844D01*
X124213155Y-99617237D01*
X124193449Y-99591556D01*
X124144227Y-99506301D01*
X124131843Y-99476403D01*
X124105831Y-99379325D01*
X124101673Y-99351282D01*
X124100066Y-99302021D01*
X124100000Y-99297978D01*
X124100000Y-97049999D01*
X142894357Y-97049999D01*
X142894357Y-97050000D01*
X142914884Y-97271535D01*
X142914885Y-97271537D01*
X142975769Y-97485523D01*
X142975775Y-97485538D01*
X143074938Y-97684683D01*
X143074943Y-97684691D01*
X143209020Y-97862238D01*
X143373437Y-98012123D01*
X143373439Y-98012125D01*
X143562595Y-98129245D01*
X143562596Y-98129245D01*
X143562599Y-98129247D01*
X143770060Y-98209618D01*
X143988757Y-98250500D01*
X143988759Y-98250500D01*
X144211241Y-98250500D01*
X144211243Y-98250500D01*
X144429940Y-98209618D01*
X144637401Y-98129247D01*
X144826562Y-98012124D01*
X144990981Y-97862236D01*
X145001046Y-97848906D01*
X145057153Y-97807271D01*
X145126865Y-97802578D01*
X145188047Y-97836319D01*
X145198948Y-97848900D01*
X145209019Y-97862236D01*
X145209022Y-97862239D01*
X145209025Y-97862242D01*
X145373437Y-98012123D01*
X145373439Y-98012125D01*
X145562595Y-98129245D01*
X145562596Y-98129245D01*
X145562599Y-98129247D01*
X145770060Y-98209618D01*
X145988757Y-98250500D01*
X145988759Y-98250500D01*
X146211241Y-98250500D01*
X146211243Y-98250500D01*
X146429940Y-98209618D01*
X146637401Y-98129247D01*
X146826562Y-98012124D01*
X146966282Y-97884751D01*
X146990979Y-97862238D01*
X146990982Y-97862235D01*
X147125058Y-97684689D01*
X147224229Y-97485528D01*
X147285115Y-97271536D01*
X147305643Y-97050000D01*
X147305643Y-97049999D01*
X149394357Y-97049999D01*
X149394357Y-97050000D01*
X149414884Y-97271535D01*
X149414885Y-97271537D01*
X149475769Y-97485523D01*
X149475775Y-97485538D01*
X149574938Y-97684683D01*
X149574943Y-97684691D01*
X149709020Y-97862238D01*
X149873437Y-98012123D01*
X149873439Y-98012125D01*
X150062595Y-98129245D01*
X150062596Y-98129245D01*
X150062599Y-98129247D01*
X150270060Y-98209618D01*
X150488757Y-98250500D01*
X150488759Y-98250500D01*
X150711241Y-98250500D01*
X150711243Y-98250500D01*
X150929940Y-98209618D01*
X151137401Y-98129247D01*
X151326562Y-98012124D01*
X151490981Y-97862236D01*
X151501046Y-97848906D01*
X151557153Y-97807271D01*
X151626865Y-97802578D01*
X151688047Y-97836319D01*
X151698948Y-97848900D01*
X151709019Y-97862236D01*
X151709022Y-97862239D01*
X151709025Y-97862242D01*
X151873437Y-98012123D01*
X151873439Y-98012125D01*
X152062595Y-98129245D01*
X152062596Y-98129245D01*
X152062599Y-98129247D01*
X152270060Y-98209618D01*
X152488757Y-98250500D01*
X152488759Y-98250500D01*
X152711241Y-98250500D01*
X152711243Y-98250500D01*
X152929940Y-98209618D01*
X153137401Y-98129247D01*
X153326562Y-98012124D01*
X153466282Y-97884751D01*
X153490979Y-97862238D01*
X153490982Y-97862235D01*
X153625058Y-97684689D01*
X153724229Y-97485528D01*
X153785115Y-97271536D01*
X153805643Y-97050000D01*
X153785115Y-96828464D01*
X153724229Y-96614472D01*
X153724224Y-96614461D01*
X153625061Y-96415316D01*
X153625056Y-96415308D01*
X153490979Y-96237761D01*
X153326562Y-96087876D01*
X153326560Y-96087874D01*
X153137404Y-95970754D01*
X153137398Y-95970752D01*
X152929940Y-95890382D01*
X152711243Y-95849500D01*
X152488757Y-95849500D01*
X152270060Y-95890382D01*
X152138864Y-95941207D01*
X152062601Y-95970752D01*
X152062595Y-95970754D01*
X151873439Y-96087874D01*
X151873437Y-96087876D01*
X151709019Y-96237762D01*
X151698953Y-96251093D01*
X151642844Y-96292728D01*
X151573132Y-96297419D01*
X151511950Y-96263676D01*
X151501047Y-96251093D01*
X151490980Y-96237762D01*
X151326562Y-96087876D01*
X151326560Y-96087874D01*
X151137404Y-95970754D01*
X151137398Y-95970752D01*
X150929940Y-95890382D01*
X150711243Y-95849500D01*
X150488757Y-95849500D01*
X150270060Y-95890382D01*
X150138864Y-95941207D01*
X150062601Y-95970752D01*
X150062595Y-95970754D01*
X149873439Y-96087874D01*
X149873437Y-96087876D01*
X149709020Y-96237761D01*
X149574943Y-96415308D01*
X149574938Y-96415316D01*
X149475775Y-96614461D01*
X149475769Y-96614476D01*
X149414885Y-96828462D01*
X149414884Y-96828464D01*
X149394357Y-97049999D01*
X147305643Y-97049999D01*
X147285115Y-96828464D01*
X147224229Y-96614472D01*
X147224224Y-96614461D01*
X147125061Y-96415316D01*
X147125056Y-96415308D01*
X146990979Y-96237761D01*
X146826562Y-96087876D01*
X146826560Y-96087874D01*
X146637404Y-95970754D01*
X146637398Y-95970752D01*
X146429940Y-95890382D01*
X146211243Y-95849500D01*
X145988757Y-95849500D01*
X145770060Y-95890382D01*
X145638864Y-95941207D01*
X145562601Y-95970752D01*
X145562595Y-95970754D01*
X145373439Y-96087874D01*
X145373437Y-96087876D01*
X145209019Y-96237762D01*
X145198953Y-96251093D01*
X145142844Y-96292728D01*
X145073132Y-96297419D01*
X145011950Y-96263676D01*
X145001047Y-96251093D01*
X144990980Y-96237762D01*
X144826562Y-96087876D01*
X144826560Y-96087874D01*
X144637404Y-95970754D01*
X144637398Y-95970752D01*
X144429940Y-95890382D01*
X144211243Y-95849500D01*
X143988757Y-95849500D01*
X143770060Y-95890382D01*
X143638864Y-95941207D01*
X143562601Y-95970752D01*
X143562595Y-95970754D01*
X143373439Y-96087874D01*
X143373437Y-96087876D01*
X143209020Y-96237761D01*
X143074943Y-96415308D01*
X143074938Y-96415316D01*
X142975775Y-96614461D01*
X142975769Y-96614476D01*
X142914885Y-96828462D01*
X142914884Y-96828464D01*
X142894357Y-97049999D01*
X124100000Y-97049999D01*
X124100000Y-91213389D01*
X129099500Y-91213389D01*
X129099500Y-91386611D01*
X129126598Y-91557701D01*
X129180127Y-91722445D01*
X129258768Y-91876788D01*
X129360586Y-92016928D01*
X129483072Y-92139414D01*
X129623212Y-92241232D01*
X129777555Y-92319873D01*
X129942299Y-92373402D01*
X130113389Y-92400500D01*
X130113390Y-92400500D01*
X130286610Y-92400500D01*
X130286611Y-92400500D01*
X130457701Y-92373402D01*
X130622445Y-92319873D01*
X130776788Y-92241232D01*
X130916928Y-92139414D01*
X131039414Y-92016928D01*
X131141232Y-91876788D01*
X131219873Y-91722445D01*
X131273402Y-91557701D01*
X131300500Y-91386611D01*
X131300500Y-91213389D01*
X136099500Y-91213389D01*
X136099500Y-91386611D01*
X136126598Y-91557701D01*
X136180127Y-91722445D01*
X136258768Y-91876788D01*
X136360586Y-92016928D01*
X136483072Y-92139414D01*
X136623212Y-92241232D01*
X136777555Y-92319873D01*
X136942299Y-92373402D01*
X137113389Y-92400500D01*
X137113390Y-92400500D01*
X137286610Y-92400500D01*
X137286611Y-92400500D01*
X137457701Y-92373402D01*
X137622445Y-92319873D01*
X137776788Y-92241232D01*
X137916928Y-92139414D01*
X138039414Y-92016928D01*
X138141232Y-91876788D01*
X138219873Y-91722445D01*
X138273402Y-91557701D01*
X138300500Y-91386611D01*
X138300500Y-91213389D01*
X138273402Y-91042299D01*
X138219873Y-90877555D01*
X138141232Y-90723212D01*
X138039414Y-90583072D01*
X137916928Y-90460586D01*
X137776788Y-90358768D01*
X137622445Y-90280127D01*
X137457701Y-90226598D01*
X137457699Y-90226597D01*
X137457698Y-90226597D01*
X137326271Y-90205781D01*
X137286611Y-90199500D01*
X137113389Y-90199500D01*
X137073728Y-90205781D01*
X136942302Y-90226597D01*
X136777552Y-90280128D01*
X136623211Y-90358768D01*
X136543256Y-90416859D01*
X136483072Y-90460586D01*
X136483070Y-90460588D01*
X136483069Y-90460588D01*
X136360588Y-90583069D01*
X136360588Y-90583070D01*
X136360586Y-90583072D01*
X136316859Y-90643256D01*
X136258768Y-90723211D01*
X136180128Y-90877552D01*
X136126597Y-91042302D01*
X136099500Y-91213389D01*
X131300500Y-91213389D01*
X131273402Y-91042299D01*
X131219873Y-90877555D01*
X131141232Y-90723212D01*
X131039414Y-90583072D01*
X130916928Y-90460586D01*
X130776788Y-90358768D01*
X130622445Y-90280127D01*
X130457701Y-90226598D01*
X130457699Y-90226597D01*
X130457698Y-90226597D01*
X130326271Y-90205781D01*
X130286611Y-90199500D01*
X130113389Y-90199500D01*
X130073728Y-90205781D01*
X129942302Y-90226597D01*
X129777552Y-90280128D01*
X129623211Y-90358768D01*
X129543256Y-90416859D01*
X129483072Y-90460586D01*
X129483070Y-90460588D01*
X129483069Y-90460588D01*
X129360588Y-90583069D01*
X129360588Y-90583070D01*
X129360586Y-90583072D01*
X129316859Y-90643256D01*
X129258768Y-90723211D01*
X129180128Y-90877552D01*
X129126597Y-91042302D01*
X129099500Y-91213389D01*
X124100000Y-91213389D01*
X124100000Y-80906879D01*
X125146672Y-80906879D01*
X125146672Y-80906880D01*
X125262821Y-80978797D01*
X125262822Y-80978798D01*
X125470195Y-81059134D01*
X125688807Y-81100000D01*
X125911193Y-81100000D01*
X126129809Y-81059133D01*
X126337168Y-80978801D01*
X126337181Y-80978795D01*
X126453326Y-80906879D01*
X127146672Y-80906879D01*
X127146672Y-80906880D01*
X127262821Y-80978797D01*
X127262822Y-80978798D01*
X127470195Y-81059134D01*
X127688807Y-81100000D01*
X127911193Y-81100000D01*
X128129809Y-81059133D01*
X128337168Y-80978801D01*
X128337181Y-80978795D01*
X128453326Y-80906879D01*
X127800001Y-80253553D01*
X127800000Y-80253553D01*
X127146672Y-80906879D01*
X126453326Y-80906879D01*
X125800001Y-80253553D01*
X125800000Y-80253553D01*
X125146672Y-80906879D01*
X124100000Y-80906879D01*
X124100000Y-79899999D01*
X124594859Y-79899999D01*
X124594859Y-79900000D01*
X124615378Y-80121439D01*
X124676240Y-80335350D01*
X124775369Y-80534428D01*
X124791137Y-80555308D01*
X124791138Y-80555308D01*
X125446447Y-79900000D01*
X125400369Y-79853922D01*
X125450000Y-79853922D01*
X125450000Y-79946078D01*
X125473852Y-80035095D01*
X125519930Y-80114905D01*
X125585095Y-80180070D01*
X125664905Y-80226148D01*
X125753922Y-80250000D01*
X125846078Y-80250000D01*
X125935095Y-80226148D01*
X126014905Y-80180070D01*
X126080070Y-80114905D01*
X126126148Y-80035095D01*
X126150000Y-79946078D01*
X126150000Y-79900000D01*
X126153553Y-79900000D01*
X126800000Y-80546447D01*
X127446447Y-79900000D01*
X127400369Y-79853922D01*
X127450000Y-79853922D01*
X127450000Y-79946078D01*
X127473852Y-80035095D01*
X127519930Y-80114905D01*
X127585095Y-80180070D01*
X127664905Y-80226148D01*
X127753922Y-80250000D01*
X127846078Y-80250000D01*
X127935095Y-80226148D01*
X128014905Y-80180070D01*
X128080070Y-80114905D01*
X128126148Y-80035095D01*
X128150000Y-79946078D01*
X128150000Y-79899999D01*
X128153553Y-79899999D01*
X128153553Y-79900000D01*
X128808861Y-80555308D01*
X128824631Y-80534425D01*
X128824633Y-80534422D01*
X128923759Y-80335350D01*
X128984621Y-80121439D01*
X129005141Y-79900000D01*
X129005141Y-79899999D01*
X128984621Y-79678560D01*
X128923759Y-79464649D01*
X128824635Y-79265580D01*
X128824630Y-79265572D01*
X128808860Y-79244690D01*
X128153553Y-79899999D01*
X128150000Y-79899999D01*
X128150000Y-79853922D01*
X128126148Y-79764905D01*
X128080070Y-79685095D01*
X128014905Y-79619930D01*
X127935095Y-79573852D01*
X127846078Y-79550000D01*
X127753922Y-79550000D01*
X127664905Y-79573852D01*
X127585095Y-79619930D01*
X127519930Y-79685095D01*
X127473852Y-79764905D01*
X127450000Y-79853922D01*
X127400369Y-79853922D01*
X126800000Y-79253553D01*
X126153553Y-79900000D01*
X126150000Y-79900000D01*
X126150000Y-79853922D01*
X126126148Y-79764905D01*
X126080070Y-79685095D01*
X126014905Y-79619930D01*
X125935095Y-79573852D01*
X125846078Y-79550000D01*
X125753922Y-79550000D01*
X125664905Y-79573852D01*
X125585095Y-79619930D01*
X125519930Y-79685095D01*
X125473852Y-79764905D01*
X125450000Y-79853922D01*
X125400369Y-79853922D01*
X124791138Y-79244691D01*
X124791137Y-79244691D01*
X124775368Y-79265574D01*
X124676240Y-79464649D01*
X124615378Y-79678560D01*
X124594859Y-79899999D01*
X124100000Y-79899999D01*
X124100000Y-78893119D01*
X125146671Y-78893119D01*
X125800000Y-79546447D01*
X125800001Y-79546447D01*
X126453327Y-78893119D01*
X127146671Y-78893119D01*
X127800000Y-79546447D01*
X127800001Y-79546447D01*
X128453327Y-78893119D01*
X128337178Y-78821202D01*
X128337177Y-78821201D01*
X128129804Y-78740865D01*
X127911193Y-78700000D01*
X127688807Y-78700000D01*
X127470195Y-78740865D01*
X127262824Y-78821200D01*
X127262823Y-78821201D01*
X127146671Y-78893119D01*
X126453327Y-78893119D01*
X126337178Y-78821202D01*
X126337177Y-78821201D01*
X126129804Y-78740865D01*
X125911193Y-78700000D01*
X125688807Y-78700000D01*
X125470195Y-78740865D01*
X125262824Y-78821200D01*
X125262823Y-78821201D01*
X125146671Y-78893119D01*
X124100000Y-78893119D01*
X124100000Y-71881902D01*
X127049500Y-71881902D01*
X127049500Y-72118097D01*
X127086446Y-72351368D01*
X127159433Y-72575996D01*
X127249407Y-72752578D01*
X127266657Y-72786433D01*
X127405483Y-72977510D01*
X127572490Y-73144517D01*
X127763567Y-73283343D01*
X127862991Y-73334002D01*
X127974003Y-73390566D01*
X127974005Y-73390566D01*
X127974008Y-73390568D01*
X128094412Y-73429689D01*
X128198631Y-73463553D01*
X128431903Y-73500500D01*
X128431908Y-73500500D01*
X130168097Y-73500500D01*
X130401368Y-73463553D01*
X130625992Y-73390568D01*
X130836433Y-73283343D01*
X131027510Y-73144517D01*
X131194517Y-72977510D01*
X131333343Y-72786433D01*
X131440568Y-72575992D01*
X131513553Y-72351368D01*
X131534116Y-72221537D01*
X131550500Y-72118097D01*
X131550500Y-71881902D01*
X131513553Y-71648631D01*
X131440566Y-71424003D01*
X131348201Y-71242728D01*
X131333343Y-71213567D01*
X131194517Y-71022490D01*
X131027510Y-70855483D01*
X130836433Y-70716657D01*
X130625996Y-70609433D01*
X130401368Y-70536446D01*
X130168097Y-70499500D01*
X130168092Y-70499500D01*
X128431908Y-70499500D01*
X128431903Y-70499500D01*
X128198631Y-70536446D01*
X127974003Y-70609433D01*
X127763566Y-70716657D01*
X127654550Y-70795862D01*
X127572490Y-70855483D01*
X127572488Y-70855485D01*
X127572487Y-70855485D01*
X127405485Y-71022487D01*
X127405485Y-71022488D01*
X127405483Y-71022490D01*
X127345862Y-71104550D01*
X127266657Y-71213566D01*
X127159433Y-71424003D01*
X127086446Y-71648631D01*
X127049500Y-71881902D01*
X124100000Y-71881902D01*
X124100000Y-67396530D01*
X126249500Y-67396530D01*
X126249500Y-67603469D01*
X126289868Y-67806412D01*
X126289870Y-67806420D01*
X126333720Y-67912284D01*
X126369059Y-67997598D01*
X126426541Y-68083626D01*
X126484024Y-68169657D01*
X126630342Y-68315975D01*
X126630345Y-68315977D01*
X126802402Y-68430941D01*
X126993580Y-68510130D01*
X127194519Y-68550099D01*
X127196530Y-68550499D01*
X127196534Y-68550500D01*
X127196535Y-68550500D01*
X127403466Y-68550500D01*
X127403467Y-68550499D01*
X127606420Y-68510130D01*
X127797598Y-68430941D01*
X127969655Y-68315977D01*
X128115977Y-68169655D01*
X128230941Y-67997598D01*
X128310130Y-67806420D01*
X128350500Y-67603465D01*
X128350500Y-67396535D01*
X128310130Y-67193580D01*
X128230941Y-67002402D01*
X128115977Y-66830345D01*
X128115975Y-66830342D01*
X128017580Y-66731947D01*
X128800000Y-66731947D01*
X128800000Y-67250000D01*
X129800000Y-67250000D01*
X129800000Y-67750000D01*
X128800000Y-67750000D01*
X128800000Y-68268052D01*
X128836934Y-68501247D01*
X128909897Y-68725802D01*
X129017085Y-68936171D01*
X129155866Y-69127186D01*
X129322813Y-69294133D01*
X129513828Y-69432914D01*
X129724195Y-69540102D01*
X129948744Y-69613063D01*
X129948750Y-69613065D01*
X130050000Y-69629101D01*
X130050000Y-68583012D01*
X130107007Y-68615925D01*
X130234174Y-68650000D01*
X130365826Y-68650000D01*
X130492993Y-68615925D01*
X130550000Y-68583012D01*
X130550000Y-69629100D01*
X130651249Y-69613065D01*
X130651255Y-69613063D01*
X130875804Y-69540102D01*
X131086171Y-69432914D01*
X131277186Y-69294133D01*
X131444133Y-69127186D01*
X131582914Y-68936171D01*
X131690102Y-68725802D01*
X131763065Y-68501247D01*
X131800000Y-68268052D01*
X131800000Y-68097648D01*
X134299500Y-68097648D01*
X134299500Y-81902351D01*
X134331522Y-82104531D01*
X134331523Y-82104536D01*
X134342400Y-82138013D01*
X134342401Y-82138013D01*
X134394781Y-82299223D01*
X134427235Y-82362916D01*
X134427237Y-82362919D01*
X134487713Y-82481611D01*
X134608034Y-82647219D01*
X134608035Y-82647220D01*
X134608036Y-82647221D01*
X147104908Y-95144092D01*
X147104922Y-95144107D01*
X147108033Y-95147218D01*
X147108034Y-95147219D01*
X147252781Y-95291966D01*
X147252784Y-95291968D01*
X147252788Y-95291972D01*
X147372607Y-95379024D01*
X147418390Y-95412287D01*
X147537620Y-95473038D01*
X147600781Y-95505221D01*
X147600784Y-95505222D01*
X147719505Y-95543796D01*
X147795466Y-95568477D01*
X147997649Y-95600501D01*
X147997650Y-95600501D01*
X148207463Y-95600501D01*
X148207487Y-95600500D01*
X161462342Y-95600500D01*
X161462354Y-95600499D01*
X162197871Y-95600499D01*
X162197872Y-95600499D01*
X162257483Y-95594091D01*
X162392331Y-95543796D01*
X162507546Y-95457546D01*
X162593796Y-95342331D01*
X162644091Y-95207483D01*
X162650500Y-95147873D01*
X162650500Y-94388691D01*
X162650500Y-94299997D01*
X163545034Y-94299997D01*
X163545034Y-94300002D01*
X163564858Y-94526599D01*
X163564860Y-94526610D01*
X163623730Y-94746317D01*
X163623735Y-94746331D01*
X163719863Y-94952478D01*
X163770974Y-95025472D01*
X164450000Y-94346446D01*
X164450000Y-94352661D01*
X164477259Y-94454394D01*
X164529920Y-94545606D01*
X164604394Y-94620080D01*
X164695606Y-94672741D01*
X164797339Y-94700000D01*
X164803553Y-94700000D01*
X164124526Y-95379025D01*
X164197513Y-95430132D01*
X164197521Y-95430136D01*
X164403668Y-95526264D01*
X164403682Y-95526269D01*
X164623389Y-95585139D01*
X164623400Y-95585141D01*
X164849998Y-95604966D01*
X164850002Y-95604966D01*
X165076599Y-95585141D01*
X165076610Y-95585139D01*
X165296317Y-95526269D01*
X165296331Y-95526264D01*
X165502478Y-95430136D01*
X165575471Y-95379024D01*
X164896447Y-94700000D01*
X164902661Y-94700000D01*
X165004394Y-94672741D01*
X165095606Y-94620080D01*
X165170080Y-94545606D01*
X165222741Y-94454394D01*
X165250000Y-94352661D01*
X165250000Y-94346447D01*
X165929024Y-95025471D01*
X165980136Y-94952478D01*
X166076264Y-94746331D01*
X166076269Y-94746317D01*
X166135139Y-94526610D01*
X166135141Y-94526599D01*
X166154966Y-94300002D01*
X166154966Y-94299997D01*
X166135141Y-94073400D01*
X166135139Y-94073389D01*
X166076269Y-93853682D01*
X166076264Y-93853668D01*
X165980136Y-93647521D01*
X165980132Y-93647513D01*
X165929025Y-93574526D01*
X165250000Y-94253551D01*
X165250000Y-94247339D01*
X165222741Y-94145606D01*
X165170080Y-94054394D01*
X165095606Y-93979920D01*
X165004394Y-93927259D01*
X164902661Y-93900000D01*
X164896448Y-93900000D01*
X165575472Y-93220974D01*
X165502478Y-93169863D01*
X165296331Y-93073735D01*
X165296317Y-93073730D01*
X165076610Y-93014860D01*
X165076599Y-93014858D01*
X164850002Y-92995034D01*
X164849998Y-92995034D01*
X164623400Y-93014858D01*
X164623389Y-93014860D01*
X164403682Y-93073730D01*
X164403673Y-93073734D01*
X164197516Y-93169866D01*
X164197512Y-93169868D01*
X164124526Y-93220973D01*
X164124526Y-93220974D01*
X164803553Y-93900000D01*
X164797339Y-93900000D01*
X164695606Y-93927259D01*
X164604394Y-93979920D01*
X164529920Y-94054394D01*
X164477259Y-94145606D01*
X164450000Y-94247339D01*
X164450000Y-94253552D01*
X163770974Y-93574526D01*
X163770973Y-93574526D01*
X163719868Y-93647512D01*
X163719866Y-93647516D01*
X163623734Y-93853673D01*
X163623730Y-93853682D01*
X163564860Y-94073389D01*
X163564858Y-94073400D01*
X163545034Y-94299997D01*
X162650500Y-94299997D01*
X162650500Y-94197648D01*
X162650500Y-94190053D01*
X162650499Y-94190035D01*
X162650499Y-93452129D01*
X162650498Y-93452123D01*
X162644091Y-93392516D01*
X162593797Y-93257671D01*
X162593793Y-93257664D01*
X162507547Y-93142455D01*
X162507544Y-93142452D01*
X162392335Y-93056206D01*
X162392328Y-93056202D01*
X162257482Y-93005908D01*
X162257483Y-93005908D01*
X162197883Y-92999501D01*
X162197881Y-92999500D01*
X162197873Y-92999500D01*
X162197865Y-92999500D01*
X148690046Y-92999500D01*
X148623007Y-92979815D01*
X148602365Y-92963181D01*
X142464184Y-86824999D01*
X168069357Y-86824999D01*
X168069357Y-86825000D01*
X168089884Y-87046535D01*
X168089885Y-87046537D01*
X168150769Y-87260523D01*
X168150775Y-87260538D01*
X168249938Y-87459683D01*
X168249943Y-87459691D01*
X168384020Y-87637238D01*
X168548437Y-87787123D01*
X168548439Y-87787125D01*
X168737595Y-87904245D01*
X168737596Y-87904245D01*
X168737599Y-87904247D01*
X168945060Y-87984618D01*
X169163757Y-88025500D01*
X169163759Y-88025500D01*
X169386241Y-88025500D01*
X169386243Y-88025500D01*
X169604940Y-87984618D01*
X169812401Y-87904247D01*
X170001562Y-87787124D01*
X170165981Y-87637236D01*
X170176046Y-87623906D01*
X170232153Y-87582271D01*
X170301865Y-87577578D01*
X170363047Y-87611319D01*
X170373948Y-87623900D01*
X170384019Y-87637236D01*
X170384022Y-87637239D01*
X170384025Y-87637242D01*
X170548437Y-87787123D01*
X170548439Y-87787125D01*
X170737595Y-87904245D01*
X170737596Y-87904245D01*
X170737599Y-87904247D01*
X170945060Y-87984618D01*
X171163757Y-88025500D01*
X171163759Y-88025500D01*
X171386241Y-88025500D01*
X171386243Y-88025500D01*
X171604940Y-87984618D01*
X171812401Y-87904247D01*
X172001562Y-87787124D01*
X172141282Y-87659751D01*
X172165979Y-87637238D01*
X172165982Y-87637235D01*
X172300058Y-87459689D01*
X172399229Y-87260528D01*
X172460115Y-87046536D01*
X172480643Y-86825000D01*
X172460115Y-86603464D01*
X172399229Y-86389472D01*
X172399224Y-86389461D01*
X172300061Y-86190316D01*
X172300056Y-86190308D01*
X172165979Y-86012761D01*
X172001562Y-85862876D01*
X172001560Y-85862874D01*
X171812404Y-85745754D01*
X171812398Y-85745752D01*
X171604940Y-85665382D01*
X171386243Y-85624500D01*
X171163757Y-85624500D01*
X170945060Y-85665382D01*
X170813864Y-85716207D01*
X170737601Y-85745752D01*
X170737595Y-85745754D01*
X170548439Y-85862874D01*
X170548437Y-85862876D01*
X170384019Y-86012762D01*
X170373953Y-86026093D01*
X170317844Y-86067728D01*
X170248132Y-86072419D01*
X170186950Y-86038676D01*
X170176047Y-86026093D01*
X170165980Y-86012762D01*
X170001562Y-85862876D01*
X170001560Y-85862874D01*
X169812404Y-85745754D01*
X169812398Y-85745752D01*
X169604940Y-85665382D01*
X169386243Y-85624500D01*
X169163757Y-85624500D01*
X168945060Y-85665382D01*
X168813864Y-85716207D01*
X168737601Y-85745752D01*
X168737595Y-85745754D01*
X168548439Y-85862874D01*
X168548437Y-85862876D01*
X168384020Y-86012761D01*
X168249943Y-86190308D01*
X168249938Y-86190316D01*
X168150775Y-86389461D01*
X168150769Y-86389476D01*
X168089885Y-86603462D01*
X168089884Y-86603464D01*
X168069357Y-86824999D01*
X142464184Y-86824999D01*
X140054774Y-84415589D01*
X151612961Y-84415589D01*
X151770355Y-84485665D01*
X151955406Y-84525000D01*
X152144594Y-84525000D01*
X152329646Y-84485665D01*
X152329651Y-84485663D01*
X152495156Y-84411974D01*
X152492939Y-84410549D01*
X152601641Y-84410549D01*
X152770355Y-84485665D01*
X152955406Y-84525000D01*
X153144594Y-84525000D01*
X153329646Y-84485665D01*
X153329651Y-84485663D01*
X153495156Y-84411974D01*
X153492939Y-84410549D01*
X153601641Y-84410549D01*
X153770355Y-84485665D01*
X153955406Y-84525000D01*
X154144594Y-84525000D01*
X154329646Y-84485665D01*
X154329651Y-84485663D01*
X154487036Y-84415590D01*
X154487037Y-84415589D01*
X154050001Y-83978553D01*
X153637680Y-84390871D01*
X153601641Y-84410549D01*
X153492939Y-84410549D01*
X153462318Y-84390870D01*
X153050001Y-83978553D01*
X152637680Y-84390871D01*
X152601641Y-84410549D01*
X152492939Y-84410549D01*
X152462318Y-84390870D01*
X152050001Y-83978553D01*
X152050000Y-83978553D01*
X151612961Y-84415589D01*
X140054774Y-84415589D01*
X139264185Y-83625000D01*
X151145043Y-83625000D01*
X151164819Y-83813154D01*
X151223278Y-83993072D01*
X151223281Y-83993079D01*
X151261745Y-84059700D01*
X151696447Y-83625000D01*
X151666610Y-83595163D01*
X151900000Y-83595163D01*
X151900000Y-83654837D01*
X151922836Y-83709968D01*
X151965032Y-83752164D01*
X152020163Y-83775000D01*
X152079837Y-83775000D01*
X152134968Y-83752164D01*
X152177164Y-83709968D01*
X152200000Y-83654837D01*
X152200000Y-83625000D01*
X152403553Y-83625000D01*
X152550000Y-83771447D01*
X152696447Y-83625000D01*
X152666610Y-83595163D01*
X152900000Y-83595163D01*
X152900000Y-83654837D01*
X152922836Y-83709968D01*
X152965032Y-83752164D01*
X153020163Y-83775000D01*
X153079837Y-83775000D01*
X153134968Y-83752164D01*
X153177164Y-83709968D01*
X153200000Y-83654837D01*
X153200000Y-83625000D01*
X153403553Y-83625000D01*
X153550000Y-83771447D01*
X153696447Y-83625000D01*
X153666610Y-83595163D01*
X153900000Y-83595163D01*
X153900000Y-83654837D01*
X153922836Y-83709968D01*
X153965032Y-83752164D01*
X154020163Y-83775000D01*
X154079837Y-83775000D01*
X154134968Y-83752164D01*
X154177164Y-83709968D01*
X154200000Y-83654837D01*
X154200000Y-83624999D01*
X154403553Y-83624999D01*
X154403553Y-83625001D01*
X154838253Y-84059701D01*
X154876720Y-83993076D01*
X154935180Y-83813154D01*
X154954956Y-83625000D01*
X154935180Y-83436845D01*
X154876721Y-83256927D01*
X154876718Y-83256920D01*
X154838253Y-83190297D01*
X154403553Y-83624999D01*
X154200000Y-83624999D01*
X154200000Y-83595163D01*
X154177164Y-83540032D01*
X154134968Y-83497836D01*
X154079837Y-83475000D01*
X154020163Y-83475000D01*
X153965032Y-83497836D01*
X153922836Y-83540032D01*
X153900000Y-83595163D01*
X153666610Y-83595163D01*
X153550000Y-83478553D01*
X153403553Y-83625000D01*
X153200000Y-83625000D01*
X153200000Y-83595163D01*
X153177164Y-83540032D01*
X153134968Y-83497836D01*
X153079837Y-83475000D01*
X153020163Y-83475000D01*
X152965032Y-83497836D01*
X152922836Y-83540032D01*
X152900000Y-83595163D01*
X152666610Y-83595163D01*
X152550000Y-83478553D01*
X152403553Y-83625000D01*
X152200000Y-83625000D01*
X152200000Y-83595163D01*
X152177164Y-83540032D01*
X152134968Y-83497836D01*
X152079837Y-83475000D01*
X152020163Y-83475000D01*
X151965032Y-83497836D01*
X151922836Y-83540032D01*
X151900000Y-83595163D01*
X151666610Y-83595163D01*
X151261745Y-83190298D01*
X151223279Y-83256923D01*
X151164819Y-83436845D01*
X151145043Y-83625000D01*
X139264185Y-83625000D01*
X138689185Y-83050000D01*
X151828553Y-83050000D01*
X152050000Y-83271447D01*
X152271447Y-83050000D01*
X152828553Y-83050000D01*
X153050000Y-83271447D01*
X153271447Y-83050000D01*
X153828553Y-83050000D01*
X154050000Y-83271447D01*
X154271447Y-83050000D01*
X154050000Y-82828553D01*
X153828553Y-83050000D01*
X153271447Y-83050000D01*
X153050000Y-82828553D01*
X152828553Y-83050000D01*
X152271447Y-83050000D01*
X152050000Y-82828553D01*
X151828553Y-83050000D01*
X138689185Y-83050000D01*
X138405876Y-82766691D01*
X138372391Y-82705368D01*
X138377375Y-82635676D01*
X138419247Y-82579743D01*
X138484711Y-82555326D01*
X138504356Y-82555481D01*
X138602154Y-82564038D01*
X138614999Y-82565162D01*
X138615000Y-82565162D01*
X138615002Y-82565162D01*
X138668186Y-82560508D01*
X138827747Y-82546549D01*
X139034030Y-82491276D01*
X139068934Y-82475000D01*
X151145043Y-82475000D01*
X151164819Y-82663154D01*
X151223278Y-82843072D01*
X151223281Y-82843079D01*
X151261745Y-82909700D01*
X151696447Y-82475000D01*
X151666610Y-82445163D01*
X151900000Y-82445163D01*
X151900000Y-82504837D01*
X151922836Y-82559968D01*
X151965032Y-82602164D01*
X152020163Y-82625000D01*
X152079837Y-82625000D01*
X152134968Y-82602164D01*
X152177164Y-82559968D01*
X152200000Y-82504837D01*
X152200000Y-82475000D01*
X152403553Y-82475000D01*
X152550000Y-82621447D01*
X152696447Y-82475000D01*
X152666610Y-82445163D01*
X152900000Y-82445163D01*
X152900000Y-82504837D01*
X152922836Y-82559968D01*
X152965032Y-82602164D01*
X153020163Y-82625000D01*
X153079837Y-82625000D01*
X153134968Y-82602164D01*
X153177164Y-82559968D01*
X153200000Y-82504837D01*
X153200000Y-82475000D01*
X153403553Y-82475000D01*
X153550000Y-82621447D01*
X153696447Y-82475000D01*
X153666610Y-82445163D01*
X153900000Y-82445163D01*
X153900000Y-82504837D01*
X153922836Y-82559968D01*
X153965032Y-82602164D01*
X154020163Y-82625000D01*
X154079837Y-82625000D01*
X154134968Y-82602164D01*
X154177164Y-82559968D01*
X154200000Y-82504837D01*
X154200000Y-82474999D01*
X154403553Y-82474999D01*
X154403553Y-82475001D01*
X154838253Y-82909701D01*
X154876720Y-82843076D01*
X154935180Y-82663154D01*
X154954956Y-82475000D01*
X154935180Y-82286845D01*
X154876721Y-82106927D01*
X154876718Y-82106920D01*
X154838253Y-82040297D01*
X154403553Y-82474999D01*
X154200000Y-82474999D01*
X154200000Y-82445163D01*
X154177164Y-82390032D01*
X154134968Y-82347836D01*
X154079837Y-82325000D01*
X154020163Y-82325000D01*
X153965032Y-82347836D01*
X153922836Y-82390032D01*
X153900000Y-82445163D01*
X153666610Y-82445163D01*
X153550000Y-82328553D01*
X153403553Y-82475000D01*
X153200000Y-82475000D01*
X153200000Y-82445163D01*
X153177164Y-82390032D01*
X153134968Y-82347836D01*
X153079837Y-82325000D01*
X153020163Y-82325000D01*
X152965032Y-82347836D01*
X152922836Y-82390032D01*
X152900000Y-82445163D01*
X152666610Y-82445163D01*
X152550000Y-82328553D01*
X152403553Y-82475000D01*
X152200000Y-82475000D01*
X152200000Y-82445163D01*
X152177164Y-82390032D01*
X152134968Y-82347836D01*
X152079837Y-82325000D01*
X152020163Y-82325000D01*
X151965032Y-82347836D01*
X151922836Y-82390032D01*
X151900000Y-82445163D01*
X151666610Y-82445163D01*
X151261745Y-82040298D01*
X151223279Y-82106923D01*
X151164819Y-82286845D01*
X151145043Y-82475000D01*
X139068934Y-82475000D01*
X139227581Y-82401021D01*
X139402519Y-82278529D01*
X139553529Y-82127519D01*
X139676021Y-81952581D01*
X139700540Y-81900000D01*
X151828553Y-81900000D01*
X152050000Y-82121447D01*
X152271447Y-81900000D01*
X152828553Y-81900000D01*
X153050000Y-82121447D01*
X153271447Y-81900000D01*
X153828553Y-81900000D01*
X154050000Y-82121447D01*
X154271447Y-81900000D01*
X154050000Y-81678553D01*
X153828553Y-81900000D01*
X153271447Y-81900000D01*
X153050000Y-81678553D01*
X152828553Y-81900000D01*
X152271447Y-81900000D01*
X152050000Y-81678553D01*
X151828553Y-81900000D01*
X139700540Y-81900000D01*
X139766276Y-81759030D01*
X139821549Y-81552747D01*
X139838628Y-81357531D01*
X139840162Y-81340001D01*
X139840162Y-81339998D01*
X139838850Y-81325000D01*
X151145043Y-81325000D01*
X151164819Y-81513154D01*
X151223278Y-81693072D01*
X151223281Y-81693079D01*
X151261745Y-81759700D01*
X151696447Y-81325000D01*
X151666610Y-81295163D01*
X151900000Y-81295163D01*
X151900000Y-81354837D01*
X151922836Y-81409968D01*
X151965032Y-81452164D01*
X152020163Y-81475000D01*
X152079837Y-81475000D01*
X152134968Y-81452164D01*
X152177164Y-81409968D01*
X152200000Y-81354837D01*
X152200000Y-81325000D01*
X152403553Y-81325000D01*
X152550000Y-81471447D01*
X152696447Y-81325000D01*
X152666610Y-81295163D01*
X152900000Y-81295163D01*
X152900000Y-81354837D01*
X152922836Y-81409968D01*
X152965032Y-81452164D01*
X153020163Y-81475000D01*
X153079837Y-81475000D01*
X153134968Y-81452164D01*
X153177164Y-81409968D01*
X153200000Y-81354837D01*
X153200000Y-81325000D01*
X153403553Y-81325000D01*
X153550000Y-81471447D01*
X153696447Y-81325000D01*
X153666610Y-81295163D01*
X153900000Y-81295163D01*
X153900000Y-81354837D01*
X153922836Y-81409968D01*
X153965032Y-81452164D01*
X154020163Y-81475000D01*
X154079837Y-81475000D01*
X154134968Y-81452164D01*
X154177164Y-81409968D01*
X154200000Y-81354837D01*
X154200000Y-81324999D01*
X154403553Y-81324999D01*
X154403553Y-81325001D01*
X154838253Y-81759701D01*
X154876720Y-81693076D01*
X154935180Y-81513154D01*
X154954956Y-81325000D01*
X154935180Y-81136845D01*
X154876721Y-80956927D01*
X154876718Y-80956920D01*
X154838253Y-80890297D01*
X154403553Y-81324999D01*
X154200000Y-81324999D01*
X154200000Y-81295163D01*
X154177164Y-81240032D01*
X154134968Y-81197836D01*
X154079837Y-81175000D01*
X154020163Y-81175000D01*
X153965032Y-81197836D01*
X153922836Y-81240032D01*
X153900000Y-81295163D01*
X153666610Y-81295163D01*
X153550000Y-81178553D01*
X153403553Y-81325000D01*
X153200000Y-81325000D01*
X153200000Y-81295163D01*
X153177164Y-81240032D01*
X153134968Y-81197836D01*
X153079837Y-81175000D01*
X153020163Y-81175000D01*
X152965032Y-81197836D01*
X152922836Y-81240032D01*
X152900000Y-81295163D01*
X152666610Y-81295163D01*
X152550000Y-81178553D01*
X152403553Y-81325000D01*
X152200000Y-81325000D01*
X152200000Y-81295163D01*
X152177164Y-81240032D01*
X152134968Y-81197836D01*
X152079837Y-81175000D01*
X152020163Y-81175000D01*
X151965032Y-81197836D01*
X151922836Y-81240032D01*
X151900000Y-81295163D01*
X151666610Y-81295163D01*
X151261745Y-80890298D01*
X151223279Y-80956923D01*
X151164819Y-81136845D01*
X151145043Y-81325000D01*
X139838850Y-81325000D01*
X139821549Y-81127258D01*
X139821549Y-81127253D01*
X139771539Y-80940612D01*
X139766278Y-80920977D01*
X139766277Y-80920976D01*
X139766276Y-80920970D01*
X139686551Y-80750000D01*
X151828553Y-80750000D01*
X152050000Y-80971447D01*
X152271447Y-80750000D01*
X152828553Y-80750000D01*
X153050000Y-80971447D01*
X153271447Y-80750000D01*
X153828553Y-80750000D01*
X154050000Y-80971447D01*
X154271447Y-80750000D01*
X154050000Y-80528553D01*
X153828553Y-80750000D01*
X153271447Y-80750000D01*
X153050000Y-80528553D01*
X152828553Y-80750000D01*
X152271447Y-80750000D01*
X152050000Y-80528553D01*
X151828553Y-80750000D01*
X139686551Y-80750000D01*
X139676021Y-80727419D01*
X139578124Y-80587607D01*
X139553527Y-80552478D01*
X139402521Y-80401472D01*
X139227578Y-80278977D01*
X139227579Y-80278977D01*
X139058211Y-80200000D01*
X139034030Y-80188724D01*
X139034026Y-80188723D01*
X139034022Y-80188721D01*
X138982814Y-80175000D01*
X151145043Y-80175000D01*
X151164819Y-80363154D01*
X151223278Y-80543072D01*
X151223281Y-80543079D01*
X151261745Y-80609700D01*
X151696447Y-80175000D01*
X151666610Y-80145163D01*
X151900000Y-80145163D01*
X151900000Y-80204837D01*
X151922836Y-80259968D01*
X151965032Y-80302164D01*
X152020163Y-80325000D01*
X152079837Y-80325000D01*
X152134968Y-80302164D01*
X152177164Y-80259968D01*
X152200000Y-80204837D01*
X152200000Y-80175000D01*
X152403553Y-80175000D01*
X152550000Y-80321447D01*
X152696447Y-80175000D01*
X152666610Y-80145163D01*
X152900000Y-80145163D01*
X152900000Y-80204837D01*
X152922836Y-80259968D01*
X152965032Y-80302164D01*
X153020163Y-80325000D01*
X153079837Y-80325000D01*
X153134968Y-80302164D01*
X153177164Y-80259968D01*
X153200000Y-80204837D01*
X153200000Y-80175000D01*
X153403553Y-80175000D01*
X153550000Y-80321447D01*
X153696447Y-80175000D01*
X153666610Y-80145163D01*
X153900000Y-80145163D01*
X153900000Y-80204837D01*
X153922836Y-80259968D01*
X153965032Y-80302164D01*
X154020163Y-80325000D01*
X154079837Y-80325000D01*
X154134968Y-80302164D01*
X154177164Y-80259968D01*
X154200000Y-80204837D01*
X154200000Y-80174999D01*
X154403553Y-80174999D01*
X154403553Y-80175001D01*
X154838253Y-80609701D01*
X154876720Y-80543076D01*
X154935180Y-80363154D01*
X154954956Y-80175000D01*
X154935180Y-79986845D01*
X154876721Y-79806927D01*
X154876718Y-79806920D01*
X154838253Y-79740297D01*
X154403553Y-80174999D01*
X154200000Y-80174999D01*
X154200000Y-80145163D01*
X154177164Y-80090032D01*
X154134968Y-80047836D01*
X154079837Y-80025000D01*
X154020163Y-80025000D01*
X153965032Y-80047836D01*
X153922836Y-80090032D01*
X153900000Y-80145163D01*
X153666610Y-80145163D01*
X153550000Y-80028553D01*
X153403553Y-80175000D01*
X153200000Y-80175000D01*
X153200000Y-80145163D01*
X153177164Y-80090032D01*
X153134968Y-80047836D01*
X153079837Y-80025000D01*
X153020163Y-80025000D01*
X152965032Y-80047836D01*
X152922836Y-80090032D01*
X152900000Y-80145163D01*
X152666610Y-80145163D01*
X152550000Y-80028553D01*
X152403553Y-80175000D01*
X152200000Y-80175000D01*
X152200000Y-80145163D01*
X152177164Y-80090032D01*
X152134968Y-80047836D01*
X152079837Y-80025000D01*
X152020163Y-80025000D01*
X151965032Y-80047836D01*
X151922836Y-80090032D01*
X151900000Y-80145163D01*
X151666610Y-80145163D01*
X151261745Y-79740298D01*
X151223279Y-79806923D01*
X151164819Y-79986845D01*
X151145043Y-80175000D01*
X138982814Y-80175000D01*
X138827752Y-80133452D01*
X138827748Y-80133451D01*
X138827747Y-80133451D01*
X138827746Y-80133450D01*
X138827741Y-80133450D01*
X138615002Y-80114838D01*
X138614998Y-80114838D01*
X138402258Y-80133450D01*
X138402247Y-80133452D01*
X138195977Y-80188721D01*
X138195968Y-80188725D01*
X138002421Y-80278977D01*
X137827478Y-80401472D01*
X137676472Y-80552478D01*
X137553977Y-80727421D01*
X137463725Y-80920968D01*
X137463721Y-80920977D01*
X137408452Y-81127247D01*
X137408450Y-81127258D01*
X137389838Y-81339998D01*
X137389838Y-81340002D01*
X137399517Y-81450635D01*
X137385750Y-81519135D01*
X137337135Y-81569318D01*
X137269106Y-81585251D01*
X137203263Y-81561876D01*
X137188308Y-81549123D01*
X136936819Y-81297634D01*
X136903334Y-81236311D01*
X136900500Y-81209953D01*
X136900500Y-78799998D01*
X139929838Y-78799998D01*
X139929838Y-78800001D01*
X139948450Y-79012741D01*
X139948452Y-79012752D01*
X140003721Y-79219022D01*
X140003723Y-79219026D01*
X140003724Y-79219030D01*
X140025427Y-79265572D01*
X140093977Y-79412578D01*
X140216472Y-79587521D01*
X140367478Y-79738527D01*
X140367481Y-79738529D01*
X140542419Y-79861021D01*
X140542421Y-79861022D01*
X140542420Y-79861022D01*
X140606936Y-79891106D01*
X140735970Y-79951276D01*
X140942253Y-80006549D01*
X141094215Y-80019844D01*
X141154998Y-80025162D01*
X141155000Y-80025162D01*
X141155002Y-80025162D01*
X141208186Y-80020508D01*
X141367747Y-80006549D01*
X141574030Y-79951276D01*
X141767581Y-79861021D01*
X141942519Y-79738529D01*
X142081048Y-79600000D01*
X151828553Y-79600000D01*
X152050000Y-79821447D01*
X152271447Y-79600000D01*
X152828553Y-79600000D01*
X153050000Y-79821447D01*
X153271447Y-79600000D01*
X153828553Y-79600000D01*
X154050000Y-79821447D01*
X154271447Y-79600000D01*
X154050000Y-79378553D01*
X153828553Y-79600000D01*
X153271447Y-79600000D01*
X153050000Y-79378553D01*
X152828553Y-79600000D01*
X152271447Y-79600000D01*
X152050000Y-79378553D01*
X151828553Y-79600000D01*
X142081048Y-79600000D01*
X142093529Y-79587519D01*
X142216021Y-79412581D01*
X142306276Y-79219030D01*
X142358266Y-79025000D01*
X151145043Y-79025000D01*
X151164819Y-79213154D01*
X151223278Y-79393072D01*
X151223281Y-79393079D01*
X151261745Y-79459700D01*
X151696447Y-79025000D01*
X151666610Y-78995163D01*
X151900000Y-78995163D01*
X151900000Y-79054837D01*
X151922836Y-79109968D01*
X151965032Y-79152164D01*
X152020163Y-79175000D01*
X152079837Y-79175000D01*
X152134968Y-79152164D01*
X152177164Y-79109968D01*
X152200000Y-79054837D01*
X152200000Y-79025000D01*
X152403553Y-79025000D01*
X152550000Y-79171447D01*
X152696447Y-79025000D01*
X152666610Y-78995163D01*
X152900000Y-78995163D01*
X152900000Y-79054837D01*
X152922836Y-79109968D01*
X152965032Y-79152164D01*
X153020163Y-79175000D01*
X153079837Y-79175000D01*
X153134968Y-79152164D01*
X153177164Y-79109968D01*
X153200000Y-79054837D01*
X153200000Y-79025000D01*
X153403553Y-79025000D01*
X153550000Y-79171447D01*
X153696447Y-79025000D01*
X153666610Y-78995163D01*
X153900000Y-78995163D01*
X153900000Y-79054837D01*
X153922836Y-79109968D01*
X153965032Y-79152164D01*
X154020163Y-79175000D01*
X154079837Y-79175000D01*
X154134968Y-79152164D01*
X154177164Y-79109968D01*
X154200000Y-79054837D01*
X154200000Y-79024999D01*
X154403553Y-79024999D01*
X154403553Y-79025001D01*
X154838253Y-79459701D01*
X154876720Y-79393076D01*
X154935180Y-79213154D01*
X154954956Y-79025000D01*
X154935180Y-78836845D01*
X154876721Y-78656927D01*
X154876718Y-78656920D01*
X154838253Y-78590297D01*
X154403553Y-79024999D01*
X154200000Y-79024999D01*
X154200000Y-78995163D01*
X154177164Y-78940032D01*
X154134968Y-78897836D01*
X154079837Y-78875000D01*
X154020163Y-78875000D01*
X153965032Y-78897836D01*
X153922836Y-78940032D01*
X153900000Y-78995163D01*
X153666610Y-78995163D01*
X153550000Y-78878553D01*
X153403553Y-79025000D01*
X153200000Y-79025000D01*
X153200000Y-78995163D01*
X153177164Y-78940032D01*
X153134968Y-78897836D01*
X153079837Y-78875000D01*
X153020163Y-78875000D01*
X152965032Y-78897836D01*
X152922836Y-78940032D01*
X152900000Y-78995163D01*
X152666610Y-78995163D01*
X152550000Y-78878553D01*
X152403553Y-79025000D01*
X152200000Y-79025000D01*
X152200000Y-78995163D01*
X152177164Y-78940032D01*
X152134968Y-78897836D01*
X152079837Y-78875000D01*
X152020163Y-78875000D01*
X151965032Y-78897836D01*
X151922836Y-78940032D01*
X151900000Y-78995163D01*
X151666610Y-78995163D01*
X151261745Y-78590298D01*
X151223279Y-78656923D01*
X151164819Y-78836845D01*
X151145043Y-79025000D01*
X142358266Y-79025000D01*
X142361549Y-79012747D01*
X142380162Y-78800000D01*
X142361549Y-78587253D01*
X142324772Y-78450000D01*
X151828553Y-78450000D01*
X152050000Y-78671447D01*
X152271447Y-78450000D01*
X152828553Y-78450000D01*
X153050000Y-78671447D01*
X153271447Y-78450000D01*
X153828553Y-78450000D01*
X154050000Y-78671447D01*
X154271447Y-78450000D01*
X154050000Y-78228553D01*
X153828553Y-78450000D01*
X153271447Y-78450000D01*
X153050000Y-78228553D01*
X152828553Y-78450000D01*
X152271447Y-78450000D01*
X152050000Y-78228553D01*
X151828553Y-78450000D01*
X142324772Y-78450000D01*
X142306276Y-78380970D01*
X142216021Y-78187419D01*
X142093529Y-78012481D01*
X142093527Y-78012478D01*
X141956049Y-77875000D01*
X151145043Y-77875000D01*
X151164819Y-78063154D01*
X151223278Y-78243072D01*
X151223281Y-78243079D01*
X151261745Y-78309700D01*
X151696447Y-77875000D01*
X151666610Y-77845163D01*
X151900000Y-77845163D01*
X151900000Y-77904837D01*
X151922836Y-77959968D01*
X151965032Y-78002164D01*
X152020163Y-78025000D01*
X152079837Y-78025000D01*
X152134968Y-78002164D01*
X152177164Y-77959968D01*
X152200000Y-77904837D01*
X152200000Y-77875000D01*
X152403553Y-77875000D01*
X152550000Y-78021447D01*
X152696447Y-77875000D01*
X152666610Y-77845163D01*
X152900000Y-77845163D01*
X152900000Y-77904837D01*
X152922836Y-77959968D01*
X152965032Y-78002164D01*
X153020163Y-78025000D01*
X153079837Y-78025000D01*
X153134968Y-78002164D01*
X153177164Y-77959968D01*
X153200000Y-77904837D01*
X153200000Y-77875000D01*
X153403553Y-77875000D01*
X153550000Y-78021447D01*
X153696447Y-77875000D01*
X153666610Y-77845163D01*
X153900000Y-77845163D01*
X153900000Y-77904837D01*
X153922836Y-77959968D01*
X153965032Y-78002164D01*
X154020163Y-78025000D01*
X154079837Y-78025000D01*
X154134968Y-78002164D01*
X154177164Y-77959968D01*
X154200000Y-77904837D01*
X154200000Y-77874999D01*
X154403553Y-77874999D01*
X154403553Y-77875001D01*
X154838253Y-78309701D01*
X154876720Y-78243076D01*
X154935180Y-78063154D01*
X154954956Y-77875000D01*
X154935180Y-77686845D01*
X154876721Y-77506927D01*
X154876718Y-77506920D01*
X154838253Y-77440297D01*
X154403553Y-77874999D01*
X154200000Y-77874999D01*
X154200000Y-77845163D01*
X154177164Y-77790032D01*
X154134968Y-77747836D01*
X154079837Y-77725000D01*
X154020163Y-77725000D01*
X153965032Y-77747836D01*
X153922836Y-77790032D01*
X153900000Y-77845163D01*
X153666610Y-77845163D01*
X153550000Y-77728553D01*
X153403553Y-77875000D01*
X153200000Y-77875000D01*
X153200000Y-77845163D01*
X153177164Y-77790032D01*
X153134968Y-77747836D01*
X153079837Y-77725000D01*
X153020163Y-77725000D01*
X152965032Y-77747836D01*
X152922836Y-77790032D01*
X152900000Y-77845163D01*
X152666610Y-77845163D01*
X152550000Y-77728553D01*
X152403553Y-77875000D01*
X152200000Y-77875000D01*
X152200000Y-77845163D01*
X152177164Y-77790032D01*
X152134968Y-77747836D01*
X152079837Y-77725000D01*
X152020163Y-77725000D01*
X151965032Y-77747836D01*
X151922836Y-77790032D01*
X151900000Y-77845163D01*
X151666610Y-77845163D01*
X151261745Y-77440298D01*
X151223279Y-77506923D01*
X151164819Y-77686845D01*
X151145043Y-77875000D01*
X141956049Y-77875000D01*
X141942521Y-77861472D01*
X141767578Y-77738977D01*
X141767579Y-77738977D01*
X141638547Y-77678809D01*
X141574030Y-77648724D01*
X141574026Y-77648723D01*
X141574022Y-77648721D01*
X141367752Y-77593452D01*
X141367748Y-77593451D01*
X141367747Y-77593451D01*
X141367746Y-77593450D01*
X141367741Y-77593450D01*
X141155002Y-77574838D01*
X141154998Y-77574838D01*
X140942258Y-77593450D01*
X140942247Y-77593452D01*
X140735977Y-77648721D01*
X140735968Y-77648725D01*
X140542421Y-77738977D01*
X140367478Y-77861472D01*
X140216472Y-78012478D01*
X140093977Y-78187421D01*
X140003725Y-78380968D01*
X140003721Y-78380977D01*
X139948452Y-78587247D01*
X139948450Y-78587258D01*
X139929838Y-78799998D01*
X136900500Y-78799998D01*
X136900500Y-76259998D01*
X137389838Y-76259998D01*
X137389838Y-76260001D01*
X137408450Y-76472741D01*
X137408452Y-76472752D01*
X137463721Y-76679022D01*
X137463723Y-76679026D01*
X137463724Y-76679030D01*
X137485161Y-76725001D01*
X137553977Y-76872578D01*
X137676472Y-77047521D01*
X137827478Y-77198527D01*
X137827481Y-77198529D01*
X138002419Y-77321021D01*
X138002421Y-77321022D01*
X138002420Y-77321022D01*
X138066936Y-77351106D01*
X138195970Y-77411276D01*
X138402253Y-77466549D01*
X138554215Y-77479844D01*
X138614998Y-77485162D01*
X138615000Y-77485162D01*
X138615002Y-77485162D01*
X138668186Y-77480508D01*
X138827747Y-77466549D01*
X139034030Y-77411276D01*
X139227581Y-77321021D01*
X139257602Y-77300000D01*
X151828553Y-77300000D01*
X152050000Y-77521447D01*
X152271447Y-77300000D01*
X152828553Y-77300000D01*
X153050000Y-77521447D01*
X153271447Y-77300000D01*
X153828553Y-77300000D01*
X154050000Y-77521447D01*
X154271447Y-77300000D01*
X154050000Y-77078553D01*
X153828553Y-77300000D01*
X153271447Y-77300000D01*
X153050000Y-77078553D01*
X152828553Y-77300000D01*
X152271447Y-77300000D01*
X152050000Y-77078553D01*
X151828553Y-77300000D01*
X139257602Y-77300000D01*
X139402519Y-77198529D01*
X139553529Y-77047519D01*
X139676021Y-76872581D01*
X139744840Y-76725000D01*
X151145043Y-76725000D01*
X151164819Y-76913154D01*
X151223278Y-77093072D01*
X151223281Y-77093079D01*
X151261745Y-77159700D01*
X151696447Y-76725000D01*
X151666610Y-76695163D01*
X151900000Y-76695163D01*
X151900000Y-76754837D01*
X151922836Y-76809968D01*
X151965032Y-76852164D01*
X152020163Y-76875000D01*
X152079837Y-76875000D01*
X152134968Y-76852164D01*
X152177164Y-76809968D01*
X152200000Y-76754837D01*
X152200000Y-76725000D01*
X152403553Y-76725000D01*
X152550000Y-76871447D01*
X152696447Y-76725000D01*
X152666610Y-76695163D01*
X152900000Y-76695163D01*
X152900000Y-76754837D01*
X152922836Y-76809968D01*
X152965032Y-76852164D01*
X153020163Y-76875000D01*
X153079837Y-76875000D01*
X153134968Y-76852164D01*
X153177164Y-76809968D01*
X153200000Y-76754837D01*
X153200000Y-76725000D01*
X153403553Y-76725000D01*
X153550000Y-76871447D01*
X153696447Y-76725000D01*
X153666610Y-76695163D01*
X153900000Y-76695163D01*
X153900000Y-76754837D01*
X153922836Y-76809968D01*
X153965032Y-76852164D01*
X154020163Y-76875000D01*
X154079837Y-76875000D01*
X154134968Y-76852164D01*
X154177164Y-76809968D01*
X154200000Y-76754837D01*
X154200000Y-76724999D01*
X154403553Y-76724999D01*
X154403553Y-76725001D01*
X154838253Y-77159701D01*
X154876720Y-77093076D01*
X154935180Y-76913154D01*
X154954956Y-76725000D01*
X154935180Y-76536845D01*
X154876721Y-76356927D01*
X154876718Y-76356920D01*
X154838253Y-76290297D01*
X154403553Y-76724999D01*
X154200000Y-76724999D01*
X154200000Y-76695163D01*
X154177164Y-76640032D01*
X154134968Y-76597836D01*
X154079837Y-76575000D01*
X154020163Y-76575000D01*
X153965032Y-76597836D01*
X153922836Y-76640032D01*
X153900000Y-76695163D01*
X153666610Y-76695163D01*
X153550000Y-76578553D01*
X153403553Y-76725000D01*
X153200000Y-76725000D01*
X153200000Y-76695163D01*
X153177164Y-76640032D01*
X153134968Y-76597836D01*
X153079837Y-76575000D01*
X153020163Y-76575000D01*
X152965032Y-76597836D01*
X152922836Y-76640032D01*
X152900000Y-76695163D01*
X152666610Y-76695163D01*
X152550000Y-76578553D01*
X152403553Y-76725000D01*
X152200000Y-76725000D01*
X152200000Y-76695163D01*
X152177164Y-76640032D01*
X152134968Y-76597836D01*
X152079837Y-76575000D01*
X152020163Y-76575000D01*
X151965032Y-76597836D01*
X151922836Y-76640032D01*
X151900000Y-76695163D01*
X151666610Y-76695163D01*
X151261745Y-76290298D01*
X151223279Y-76356923D01*
X151164819Y-76536845D01*
X151145043Y-76725000D01*
X139744840Y-76725000D01*
X139766276Y-76679030D01*
X139821549Y-76472747D01*
X139840162Y-76260000D01*
X139830538Y-76150000D01*
X151828553Y-76150000D01*
X152050000Y-76371447D01*
X152271447Y-76150000D01*
X152828553Y-76150000D01*
X153050000Y-76371447D01*
X153271447Y-76150000D01*
X153828553Y-76150000D01*
X154050000Y-76371447D01*
X154221447Y-76200000D01*
X156744815Y-76200000D01*
X156763503Y-76377805D01*
X156763504Y-76377807D01*
X156818747Y-76547829D01*
X156818750Y-76547835D01*
X156882887Y-76658923D01*
X156899500Y-76720923D01*
X156899500Y-77241667D01*
X156899500Y-77379655D01*
X156899500Y-77379657D01*
X156899499Y-77379657D01*
X156926418Y-77514983D01*
X156926421Y-77514993D01*
X156979222Y-77642468D01*
X157055887Y-77757206D01*
X158742877Y-79444196D01*
X158776362Y-79505519D01*
X158771378Y-79575211D01*
X158729506Y-79631144D01*
X158724089Y-79634977D01*
X158715657Y-79640612D01*
X158715656Y-79640611D01*
X158692796Y-79655886D01*
X158692790Y-79655891D01*
X157105888Y-81242792D01*
X157105887Y-81242793D01*
X157029222Y-81357531D01*
X156976421Y-81485006D01*
X156976418Y-81485018D01*
X156954143Y-81597004D01*
X156954143Y-81597008D01*
X156949500Y-81620346D01*
X156949500Y-82529075D01*
X156932887Y-82591075D01*
X156868750Y-82702163D01*
X156813504Y-82872192D01*
X156813503Y-82872194D01*
X156794815Y-83050000D01*
X156813503Y-83227805D01*
X156813504Y-83227807D01*
X156868747Y-83397829D01*
X156868750Y-83397835D01*
X156958141Y-83552665D01*
X156996407Y-83595163D01*
X157077764Y-83685521D01*
X157077767Y-83685523D01*
X157077770Y-83685526D01*
X157222407Y-83790612D01*
X157385733Y-83863329D01*
X157560609Y-83900500D01*
X157560610Y-83900500D01*
X157739389Y-83900500D01*
X157739391Y-83900500D01*
X157914267Y-83863329D01*
X158077593Y-83790612D01*
X158222230Y-83685526D01*
X158231258Y-83675500D01*
X158276727Y-83625001D01*
X158341859Y-83552665D01*
X158431250Y-83397835D01*
X158486497Y-83227803D01*
X158505185Y-83050000D01*
X158486497Y-82872197D01*
X158431250Y-82702165D01*
X158408727Y-82663154D01*
X158367113Y-82591075D01*
X158350500Y-82529075D01*
X158350500Y-82199994D01*
X169719443Y-82199994D01*
X169719443Y-82200005D01*
X169739634Y-82443683D01*
X169739636Y-82443695D01*
X169799663Y-82680734D01*
X169897888Y-82904666D01*
X170031632Y-83109378D01*
X170197242Y-83289277D01*
X170197252Y-83289286D01*
X170390208Y-83439470D01*
X170390212Y-83439473D01*
X170605267Y-83555855D01*
X170605270Y-83555856D01*
X170836541Y-83635251D01*
X170836543Y-83635251D01*
X170836545Y-83635252D01*
X171077737Y-83675500D01*
X171077738Y-83675500D01*
X171322262Y-83675500D01*
X171322263Y-83675500D01*
X171563455Y-83635252D01*
X171794733Y-83555855D01*
X172009788Y-83439473D01*
X172202754Y-83289281D01*
X172368368Y-83109377D01*
X172502111Y-82904667D01*
X172600336Y-82680736D01*
X172660364Y-82443692D01*
X172663900Y-82401021D01*
X172680557Y-82200005D01*
X172680557Y-82199994D01*
X177919443Y-82199994D01*
X177919443Y-82200005D01*
X177939634Y-82443683D01*
X177939636Y-82443695D01*
X177999663Y-82680734D01*
X178097888Y-82904666D01*
X178231632Y-83109378D01*
X178397242Y-83289277D01*
X178397252Y-83289286D01*
X178590208Y-83439470D01*
X178590212Y-83439473D01*
X178805267Y-83555855D01*
X178805270Y-83555856D01*
X179036541Y-83635251D01*
X179036543Y-83635251D01*
X179036545Y-83635252D01*
X179277737Y-83675500D01*
X179277738Y-83675500D01*
X179522262Y-83675500D01*
X179522263Y-83675500D01*
X179763455Y-83635252D01*
X179994733Y-83555855D01*
X180209788Y-83439473D01*
X180402754Y-83289281D01*
X180568368Y-83109377D01*
X180702111Y-82904667D01*
X180800336Y-82680736D01*
X180860364Y-82443692D01*
X180863900Y-82401021D01*
X180880557Y-82200005D01*
X180880557Y-82199994D01*
X180860365Y-81956316D01*
X180860363Y-81956304D01*
X180800336Y-81719265D01*
X180782478Y-81678553D01*
X180702111Y-81495333D01*
X180686506Y-81471447D01*
X180568367Y-81290621D01*
X180402757Y-81110722D01*
X180402747Y-81110713D01*
X180209791Y-80960529D01*
X180209787Y-80960526D01*
X179994734Y-80844145D01*
X179994729Y-80844143D01*
X179763458Y-80764748D01*
X179582561Y-80734562D01*
X179522263Y-80724500D01*
X179277737Y-80724500D01*
X179229498Y-80732549D01*
X179036541Y-80764748D01*
X178805270Y-80844143D01*
X178805265Y-80844145D01*
X178590212Y-80960526D01*
X178590208Y-80960529D01*
X178397252Y-81110713D01*
X178397242Y-81110722D01*
X178231632Y-81290621D01*
X178097888Y-81495333D01*
X177999663Y-81719265D01*
X177939636Y-81956304D01*
X177939634Y-81956316D01*
X177919443Y-82199994D01*
X172680557Y-82199994D01*
X172660365Y-81956316D01*
X172660363Y-81956304D01*
X172600336Y-81719265D01*
X172582478Y-81678553D01*
X172502111Y-81495333D01*
X172486506Y-81471447D01*
X172368367Y-81290621D01*
X172202757Y-81110722D01*
X172202747Y-81110713D01*
X172009791Y-80960529D01*
X172009787Y-80960526D01*
X171794734Y-80844145D01*
X171794729Y-80844143D01*
X171563458Y-80764748D01*
X171382561Y-80734562D01*
X171322263Y-80724500D01*
X171077737Y-80724500D01*
X171029498Y-80732549D01*
X170836541Y-80764748D01*
X170605270Y-80844143D01*
X170605265Y-80844145D01*
X170390212Y-80960526D01*
X170390208Y-80960529D01*
X170197252Y-81110713D01*
X170197242Y-81110722D01*
X170031632Y-81290621D01*
X169897888Y-81495333D01*
X169799663Y-81719265D01*
X169739636Y-81956304D01*
X169739634Y-81956316D01*
X169719443Y-82199994D01*
X158350500Y-82199994D01*
X158350500Y-82030856D01*
X158370185Y-81963817D01*
X158386815Y-81943179D01*
X159293086Y-81036907D01*
X159354407Y-81003424D01*
X159424098Y-81008408D01*
X159431198Y-81011310D01*
X159435733Y-81013329D01*
X159610609Y-81050500D01*
X159610610Y-81050500D01*
X159789389Y-81050500D01*
X159789391Y-81050500D01*
X159964267Y-81013329D01*
X160127593Y-80940612D01*
X160272230Y-80835526D01*
X160391859Y-80702665D01*
X160481250Y-80547835D01*
X160536497Y-80377803D01*
X160555185Y-80200000D01*
X160536497Y-80022197D01*
X160481250Y-79852165D01*
X160391859Y-79697335D01*
X160333905Y-79632971D01*
X160303676Y-79569981D01*
X160312301Y-79500646D01*
X160333906Y-79467028D01*
X160340504Y-79459700D01*
X160391859Y-79402665D01*
X160481250Y-79247835D01*
X160536497Y-79077803D01*
X160555185Y-78900000D01*
X160536497Y-78722197D01*
X160493640Y-78590297D01*
X160481252Y-78552170D01*
X160481249Y-78552164D01*
X160416187Y-78439473D01*
X160391859Y-78397335D01*
X160312952Y-78309700D01*
X160272235Y-78264478D01*
X160272232Y-78264476D01*
X160272231Y-78264475D01*
X160272230Y-78264474D01*
X160127593Y-78159388D01*
X159964267Y-78086671D01*
X159964265Y-78086670D01*
X159836594Y-78059533D01*
X159789391Y-78049500D01*
X159610609Y-78049500D01*
X159507921Y-78071326D01*
X159444627Y-78084780D01*
X159374960Y-78079463D01*
X159331166Y-78051170D01*
X158479990Y-77199994D01*
X169719443Y-77199994D01*
X169719443Y-77200005D01*
X169739634Y-77443683D01*
X169739636Y-77443695D01*
X169799663Y-77680734D01*
X169897888Y-77904666D01*
X170031632Y-78109378D01*
X170197242Y-78289277D01*
X170197252Y-78289286D01*
X170390208Y-78439470D01*
X170390212Y-78439473D01*
X170598446Y-78552164D01*
X170605267Y-78555855D01*
X170605270Y-78555856D01*
X170836541Y-78635251D01*
X170836543Y-78635251D01*
X170836545Y-78635252D01*
X171077737Y-78675500D01*
X171077738Y-78675500D01*
X171322262Y-78675500D01*
X171322263Y-78675500D01*
X171563455Y-78635252D01*
X171794733Y-78555855D01*
X172009788Y-78439473D01*
X172202754Y-78289281D01*
X172368368Y-78109377D01*
X172502111Y-77904667D01*
X172600336Y-77680736D01*
X172660364Y-77443692D01*
X172660645Y-77440298D01*
X172680557Y-77200005D01*
X172680557Y-77199994D01*
X177919443Y-77199994D01*
X177919443Y-77200005D01*
X177939634Y-77443683D01*
X177939636Y-77443695D01*
X177999663Y-77680734D01*
X178097888Y-77904666D01*
X178231632Y-78109378D01*
X178397242Y-78289277D01*
X178397252Y-78289286D01*
X178590208Y-78439470D01*
X178590212Y-78439473D01*
X178798446Y-78552164D01*
X178805267Y-78555855D01*
X178805270Y-78555856D01*
X179036541Y-78635251D01*
X179036543Y-78635251D01*
X179036545Y-78635252D01*
X179277737Y-78675500D01*
X179277738Y-78675500D01*
X179522262Y-78675500D01*
X179522263Y-78675500D01*
X179763455Y-78635252D01*
X179994733Y-78555855D01*
X180209788Y-78439473D01*
X180402754Y-78289281D01*
X180568368Y-78109377D01*
X180702111Y-77904667D01*
X180800336Y-77680736D01*
X180860364Y-77443692D01*
X180860645Y-77440298D01*
X180880557Y-77200005D01*
X180880557Y-77199994D01*
X180860365Y-76956316D01*
X180860363Y-76956304D01*
X180839161Y-76872581D01*
X180800336Y-76719264D01*
X180702111Y-76495333D01*
X180621173Y-76371447D01*
X180568367Y-76290621D01*
X180402757Y-76110722D01*
X180402747Y-76110713D01*
X180209791Y-75960529D01*
X180209787Y-75960526D01*
X179994734Y-75844145D01*
X179994729Y-75844143D01*
X179763458Y-75764748D01*
X179582561Y-75734562D01*
X179522263Y-75724500D01*
X179277737Y-75724500D01*
X179229498Y-75732549D01*
X179036541Y-75764748D01*
X178805270Y-75844143D01*
X178805265Y-75844145D01*
X178590212Y-75960526D01*
X178590208Y-75960529D01*
X178397252Y-76110713D01*
X178397242Y-76110722D01*
X178231632Y-76290621D01*
X178097888Y-76495333D01*
X177999663Y-76719265D01*
X177939636Y-76956304D01*
X177939634Y-76956316D01*
X177919443Y-77199994D01*
X172680557Y-77199994D01*
X172660365Y-76956316D01*
X172660363Y-76956304D01*
X172639161Y-76872581D01*
X172600336Y-76719264D01*
X172502111Y-76495333D01*
X172421173Y-76371447D01*
X172368367Y-76290621D01*
X172202757Y-76110722D01*
X172202747Y-76110713D01*
X172009791Y-75960529D01*
X172009787Y-75960526D01*
X171794734Y-75844145D01*
X171794729Y-75844143D01*
X171563458Y-75764748D01*
X171382561Y-75734562D01*
X171322263Y-75724500D01*
X171077737Y-75724500D01*
X171029498Y-75732549D01*
X170836541Y-75764748D01*
X170605270Y-75844143D01*
X170605265Y-75844145D01*
X170390212Y-75960526D01*
X170390208Y-75960529D01*
X170197252Y-76110713D01*
X170197242Y-76110722D01*
X170031632Y-76290621D01*
X169897888Y-76495333D01*
X169799663Y-76719265D01*
X169739636Y-76956304D01*
X169739634Y-76956316D01*
X169719443Y-77199994D01*
X158479990Y-77199994D01*
X158336819Y-77056823D01*
X158303334Y-76995500D01*
X158300500Y-76969142D01*
X158300500Y-76720923D01*
X158317113Y-76658923D01*
X158328020Y-76640032D01*
X158381250Y-76547835D01*
X158436497Y-76377803D01*
X158455185Y-76200000D01*
X158436497Y-76022197D01*
X158381250Y-75852165D01*
X158291859Y-75697335D01*
X158245003Y-75645296D01*
X158172235Y-75564478D01*
X158172232Y-75564476D01*
X158172231Y-75564475D01*
X158172230Y-75564474D01*
X158027593Y-75459388D01*
X157864267Y-75386671D01*
X157864265Y-75386670D01*
X157736594Y-75359533D01*
X157689391Y-75349500D01*
X157510609Y-75349500D01*
X157479954Y-75356015D01*
X157335733Y-75386670D01*
X157335728Y-75386672D01*
X157172408Y-75459387D01*
X157027768Y-75564475D01*
X156908140Y-75697336D01*
X156818750Y-75852164D01*
X156818747Y-75852170D01*
X156763504Y-76022192D01*
X156763503Y-76022194D01*
X156744815Y-76200000D01*
X154221447Y-76200000D01*
X154271447Y-76150000D01*
X154050000Y-75928553D01*
X153828553Y-76150000D01*
X153271447Y-76150000D01*
X153050000Y-75928553D01*
X152828553Y-76150000D01*
X152271447Y-76150000D01*
X152050000Y-75928553D01*
X151828553Y-76150000D01*
X139830538Y-76150000D01*
X139821549Y-76047253D01*
X139766276Y-75840970D01*
X139676021Y-75647419D01*
X139625313Y-75575000D01*
X151145043Y-75575000D01*
X151164819Y-75763154D01*
X151223278Y-75943072D01*
X151223281Y-75943079D01*
X151261745Y-76009700D01*
X151696447Y-75575000D01*
X151666610Y-75545163D01*
X151900000Y-75545163D01*
X151900000Y-75604837D01*
X151922836Y-75659968D01*
X151965032Y-75702164D01*
X152020163Y-75725000D01*
X152079837Y-75725000D01*
X152134968Y-75702164D01*
X152177164Y-75659968D01*
X152200000Y-75604837D01*
X152200000Y-75575000D01*
X152403553Y-75575000D01*
X152550000Y-75721447D01*
X152696447Y-75575000D01*
X152666610Y-75545163D01*
X152900000Y-75545163D01*
X152900000Y-75604837D01*
X152922836Y-75659968D01*
X152965032Y-75702164D01*
X153020163Y-75725000D01*
X153079837Y-75725000D01*
X153134968Y-75702164D01*
X153177164Y-75659968D01*
X153200000Y-75604837D01*
X153200000Y-75575000D01*
X153403553Y-75575000D01*
X153550000Y-75721447D01*
X153696447Y-75575000D01*
X153666610Y-75545163D01*
X153900000Y-75545163D01*
X153900000Y-75604837D01*
X153922836Y-75659968D01*
X153965032Y-75702164D01*
X154020163Y-75725000D01*
X154079837Y-75725000D01*
X154134968Y-75702164D01*
X154177164Y-75659968D01*
X154200000Y-75604837D01*
X154200000Y-75574999D01*
X154403553Y-75574999D01*
X154403553Y-75575001D01*
X154838253Y-76009701D01*
X154876720Y-75943076D01*
X154935180Y-75763154D01*
X154954956Y-75575000D01*
X154935180Y-75386845D01*
X154876721Y-75206927D01*
X154876718Y-75206920D01*
X154838253Y-75140297D01*
X154403553Y-75574999D01*
X154200000Y-75574999D01*
X154200000Y-75545163D01*
X154177164Y-75490032D01*
X154134968Y-75447836D01*
X154079837Y-75425000D01*
X154020163Y-75425000D01*
X153965032Y-75447836D01*
X153922836Y-75490032D01*
X153900000Y-75545163D01*
X153666610Y-75545163D01*
X153550000Y-75428553D01*
X153403553Y-75575000D01*
X153200000Y-75575000D01*
X153200000Y-75545163D01*
X153177164Y-75490032D01*
X153134968Y-75447836D01*
X153079837Y-75425000D01*
X153020163Y-75425000D01*
X152965032Y-75447836D01*
X152922836Y-75490032D01*
X152900000Y-75545163D01*
X152666610Y-75545163D01*
X152550000Y-75428553D01*
X152403553Y-75575000D01*
X152200000Y-75575000D01*
X152200000Y-75545163D01*
X152177164Y-75490032D01*
X152134968Y-75447836D01*
X152079837Y-75425000D01*
X152020163Y-75425000D01*
X151965032Y-75447836D01*
X151922836Y-75490032D01*
X151900000Y-75545163D01*
X151666610Y-75545163D01*
X151261745Y-75140298D01*
X151223279Y-75206923D01*
X151164819Y-75386845D01*
X151145043Y-75575000D01*
X139625313Y-75575000D01*
X139553529Y-75472481D01*
X139553527Y-75472478D01*
X139402521Y-75321472D01*
X139227578Y-75198977D01*
X139227579Y-75198977D01*
X139098547Y-75138809D01*
X139034030Y-75108724D01*
X139034026Y-75108723D01*
X139034022Y-75108721D01*
X138827752Y-75053452D01*
X138827748Y-75053451D01*
X138827747Y-75053451D01*
X138827746Y-75053450D01*
X138827741Y-75053450D01*
X138615002Y-75034838D01*
X138614998Y-75034838D01*
X138402258Y-75053450D01*
X138402247Y-75053452D01*
X138195977Y-75108721D01*
X138195968Y-75108725D01*
X138002421Y-75198977D01*
X137827478Y-75321472D01*
X137676472Y-75472478D01*
X137553977Y-75647421D01*
X137463725Y-75840968D01*
X137463721Y-75840977D01*
X137408452Y-76047247D01*
X137408450Y-76047258D01*
X137389838Y-76259998D01*
X136900500Y-76259998D01*
X136900500Y-70124499D01*
X136920185Y-70057460D01*
X136972989Y-70011705D01*
X137024500Y-70000499D01*
X137347871Y-70000499D01*
X137347872Y-70000499D01*
X137407483Y-69994091D01*
X137542331Y-69943796D01*
X137657546Y-69857546D01*
X137743796Y-69742331D01*
X137794091Y-69607483D01*
X137800500Y-69547873D01*
X137800500Y-68224500D01*
X137820185Y-68157461D01*
X137872989Y-68111706D01*
X137924500Y-68100500D01*
X145850293Y-68100500D01*
X145917332Y-68120185D01*
X145963087Y-68172989D01*
X145973031Y-68242147D01*
X145944006Y-68305703D01*
X145937975Y-68312179D01*
X144412221Y-69837933D01*
X144412218Y-69837936D01*
X144342538Y-69907615D01*
X144272859Y-69977294D01*
X144163371Y-70141154D01*
X144163364Y-70141167D01*
X144087950Y-70323235D01*
X144087947Y-70323245D01*
X144049500Y-70516531D01*
X144049500Y-74048544D01*
X144087947Y-74241833D01*
X144087949Y-74241837D01*
X144110038Y-74295164D01*
X144163366Y-74423911D01*
X144163371Y-74423920D01*
X144272860Y-74587781D01*
X144272863Y-74587785D01*
X144416537Y-74731459D01*
X144416559Y-74731479D01*
X145012215Y-75327136D01*
X145012219Y-75327139D01*
X145176079Y-75436627D01*
X145176083Y-75436629D01*
X145176086Y-75436631D01*
X145358164Y-75512051D01*
X145524629Y-75545163D01*
X145551455Y-75550499D01*
X145551458Y-75550500D01*
X145551460Y-75550500D01*
X145748542Y-75550500D01*
X145748543Y-75550499D01*
X145941836Y-75512051D01*
X146123914Y-75436631D01*
X146287781Y-75327139D01*
X146427139Y-75187781D01*
X146536631Y-75023914D01*
X146612051Y-74841836D01*
X146623474Y-74784409D01*
X151612961Y-74784409D01*
X152050000Y-75221447D01*
X152050001Y-75221447D01*
X152462318Y-74809128D01*
X152498357Y-74789448D01*
X152495156Y-74788023D01*
X152604841Y-74788023D01*
X152637680Y-74809128D01*
X153050000Y-75221447D01*
X153050001Y-75221447D01*
X153462318Y-74809128D01*
X153498357Y-74789448D01*
X153495156Y-74788023D01*
X153604841Y-74788023D01*
X153637680Y-74809128D01*
X154050000Y-75221447D01*
X154050001Y-75221447D01*
X154487037Y-74784409D01*
X154329644Y-74714334D01*
X154144594Y-74675000D01*
X153955406Y-74675000D01*
X153770355Y-74714334D01*
X153770351Y-74714335D01*
X153604841Y-74788023D01*
X153495156Y-74788023D01*
X153329644Y-74714334D01*
X153144594Y-74675000D01*
X152955406Y-74675000D01*
X152770355Y-74714334D01*
X152770351Y-74714335D01*
X152604841Y-74788023D01*
X152495156Y-74788023D01*
X152329644Y-74714334D01*
X152144594Y-74675000D01*
X151955406Y-74675000D01*
X151770355Y-74714334D01*
X151612961Y-74784409D01*
X146623474Y-74784409D01*
X146650500Y-74648540D01*
X146650500Y-74451460D01*
X146650500Y-74451457D01*
X146650499Y-74451455D01*
X146619411Y-74295165D01*
X146612051Y-74258164D01*
X146536631Y-74076086D01*
X146536629Y-74076083D01*
X146536627Y-74076079D01*
X146427139Y-73912219D01*
X146427136Y-73912215D01*
X146086819Y-73571898D01*
X146053334Y-73510575D01*
X146050500Y-73484217D01*
X146050500Y-71999999D01*
X168094357Y-71999999D01*
X168094357Y-72000000D01*
X168114884Y-72221535D01*
X168114885Y-72221537D01*
X168175769Y-72435523D01*
X168175775Y-72435538D01*
X168274938Y-72634683D01*
X168274943Y-72634691D01*
X168409020Y-72812238D01*
X168573437Y-72962123D01*
X168573439Y-72962125D01*
X168762595Y-73079245D01*
X168762596Y-73079245D01*
X168762599Y-73079247D01*
X168970060Y-73159618D01*
X169188757Y-73200500D01*
X169188759Y-73200500D01*
X169411241Y-73200500D01*
X169411243Y-73200500D01*
X169629940Y-73159618D01*
X169837401Y-73079247D01*
X170026562Y-72962124D01*
X170190981Y-72812236D01*
X170201046Y-72798906D01*
X170257153Y-72757271D01*
X170326865Y-72752578D01*
X170388047Y-72786319D01*
X170398948Y-72798900D01*
X170409019Y-72812236D01*
X170409022Y-72812239D01*
X170409025Y-72812242D01*
X170573437Y-72962123D01*
X170573439Y-72962125D01*
X170762595Y-73079245D01*
X170762596Y-73079245D01*
X170762599Y-73079247D01*
X170970060Y-73159618D01*
X171188757Y-73200500D01*
X171188759Y-73200500D01*
X171411241Y-73200500D01*
X171411243Y-73200500D01*
X171629940Y-73159618D01*
X171837401Y-73079247D01*
X172026562Y-72962124D01*
X172166282Y-72834751D01*
X172190979Y-72812238D01*
X172190982Y-72812235D01*
X172325058Y-72634689D01*
X172424229Y-72435528D01*
X172485115Y-72221536D01*
X172505643Y-72000000D01*
X172485115Y-71778464D01*
X172424229Y-71564472D01*
X172354286Y-71424008D01*
X172325061Y-71365316D01*
X172325056Y-71365308D01*
X172190979Y-71187761D01*
X172026562Y-71037876D01*
X172026560Y-71037874D01*
X171837404Y-70920754D01*
X171837398Y-70920752D01*
X171629940Y-70840382D01*
X171411243Y-70799500D01*
X171188757Y-70799500D01*
X170970060Y-70840382D01*
X170931075Y-70855485D01*
X170762601Y-70920752D01*
X170762595Y-70920754D01*
X170573439Y-71037874D01*
X170573437Y-71037876D01*
X170409019Y-71187762D01*
X170398953Y-71201093D01*
X170342844Y-71242728D01*
X170273132Y-71247419D01*
X170211950Y-71213676D01*
X170201047Y-71201093D01*
X170190980Y-71187762D01*
X170026562Y-71037876D01*
X170026560Y-71037874D01*
X169837404Y-70920754D01*
X169837398Y-70920752D01*
X169629940Y-70840382D01*
X169411243Y-70799500D01*
X169188757Y-70799500D01*
X168970060Y-70840382D01*
X168931075Y-70855485D01*
X168762601Y-70920752D01*
X168762595Y-70920754D01*
X168573439Y-71037874D01*
X168573437Y-71037876D01*
X168409020Y-71187761D01*
X168274943Y-71365308D01*
X168274938Y-71365316D01*
X168175775Y-71564461D01*
X168175769Y-71564476D01*
X168114885Y-71778462D01*
X168114884Y-71778464D01*
X168094357Y-71999999D01*
X146050500Y-71999999D01*
X146050500Y-71080856D01*
X146070185Y-71013817D01*
X146086814Y-70993180D01*
X148953278Y-68126715D01*
X149014599Y-68093232D01*
X149021548Y-68091927D01*
X149169609Y-68068477D01*
X149364294Y-68005220D01*
X149546685Y-67912287D01*
X149692411Y-67806412D01*
X149712288Y-67791971D01*
X149712290Y-67791968D01*
X149712294Y-67791966D01*
X149857041Y-67647219D01*
X149857043Y-67647215D01*
X149857046Y-67647213D01*
X149909807Y-67574590D01*
X149977362Y-67481610D01*
X150070295Y-67299219D01*
X150133552Y-67104534D01*
X150149300Y-67005102D01*
X150179229Y-66941968D01*
X150238540Y-66905036D01*
X150271773Y-66900500D01*
X160012820Y-66900500D01*
X160079859Y-66920185D01*
X160112085Y-66950187D01*
X160192454Y-67057546D01*
X160238643Y-67092123D01*
X160307664Y-67143793D01*
X160307671Y-67143797D01*
X160442517Y-67194091D01*
X160442516Y-67194091D01*
X160449444Y-67194835D01*
X160502127Y-67200500D01*
X162197872Y-67200499D01*
X162257483Y-67194091D01*
X162392331Y-67143796D01*
X162507546Y-67057546D01*
X162593796Y-66942331D01*
X162644091Y-66807483D01*
X162650500Y-66747873D01*
X162650499Y-65899997D01*
X163545034Y-65899997D01*
X163545034Y-65900002D01*
X163564858Y-66126599D01*
X163564860Y-66126610D01*
X163623730Y-66346317D01*
X163623735Y-66346331D01*
X163719863Y-66552478D01*
X163770974Y-66625472D01*
X164450000Y-65946446D01*
X164450000Y-65952661D01*
X164477259Y-66054394D01*
X164529920Y-66145606D01*
X164604394Y-66220080D01*
X164695606Y-66272741D01*
X164797339Y-66300000D01*
X164803553Y-66300000D01*
X164124526Y-66979025D01*
X164197513Y-67030132D01*
X164197521Y-67030136D01*
X164403668Y-67126264D01*
X164403682Y-67126269D01*
X164623389Y-67185139D01*
X164623400Y-67185141D01*
X164849998Y-67204966D01*
X164850002Y-67204966D01*
X165076599Y-67185141D01*
X165076610Y-67185139D01*
X165296317Y-67126269D01*
X165296331Y-67126264D01*
X165502478Y-67030136D01*
X165575471Y-66979024D01*
X164896447Y-66300000D01*
X164902661Y-66300000D01*
X165004394Y-66272741D01*
X165095606Y-66220080D01*
X165170080Y-66145606D01*
X165222741Y-66054394D01*
X165250000Y-65952661D01*
X165250000Y-65946447D01*
X165929024Y-66625471D01*
X165980136Y-66552478D01*
X166076264Y-66346331D01*
X166076269Y-66346317D01*
X166135139Y-66126610D01*
X166135141Y-66126599D01*
X166154966Y-65900002D01*
X166154966Y-65899997D01*
X166135141Y-65673400D01*
X166135139Y-65673389D01*
X166076269Y-65453682D01*
X166076264Y-65453668D01*
X165980136Y-65247521D01*
X165980132Y-65247513D01*
X165929025Y-65174526D01*
X165250000Y-65853551D01*
X165250000Y-65847339D01*
X165222741Y-65745606D01*
X165170080Y-65654394D01*
X165095606Y-65579920D01*
X165004394Y-65527259D01*
X164902661Y-65500000D01*
X164896448Y-65500000D01*
X165575472Y-64820974D01*
X165502478Y-64769863D01*
X165296331Y-64673735D01*
X165296317Y-64673730D01*
X165076610Y-64614860D01*
X165076599Y-64614858D01*
X164850002Y-64595034D01*
X164849998Y-64595034D01*
X164623400Y-64614858D01*
X164623389Y-64614860D01*
X164403682Y-64673730D01*
X164403673Y-64673734D01*
X164197516Y-64769866D01*
X164197512Y-64769868D01*
X164124526Y-64820973D01*
X164124526Y-64820974D01*
X164803553Y-65500000D01*
X164797339Y-65500000D01*
X164695606Y-65527259D01*
X164604394Y-65579920D01*
X164529920Y-65654394D01*
X164477259Y-65745606D01*
X164450000Y-65847339D01*
X164450000Y-65853552D01*
X163770974Y-65174526D01*
X163770973Y-65174526D01*
X163719868Y-65247512D01*
X163719866Y-65247516D01*
X163623734Y-65453673D01*
X163623730Y-65453682D01*
X163564860Y-65673389D01*
X163564858Y-65673400D01*
X163545034Y-65899997D01*
X162650499Y-65899997D01*
X162650499Y-65052128D01*
X162644091Y-64992517D01*
X162623738Y-64937949D01*
X162593797Y-64857671D01*
X162593793Y-64857664D01*
X162507547Y-64742455D01*
X162507544Y-64742452D01*
X162392335Y-64656206D01*
X162392328Y-64656202D01*
X162257482Y-64605908D01*
X162257483Y-64605908D01*
X162197883Y-64599501D01*
X162197881Y-64599500D01*
X162197873Y-64599500D01*
X162197864Y-64599500D01*
X160502129Y-64599500D01*
X160502123Y-64599501D01*
X160442516Y-64605908D01*
X160307671Y-64656202D01*
X160307664Y-64656206D01*
X160192456Y-64742452D01*
X160192455Y-64742453D01*
X160192454Y-64742454D01*
X160171932Y-64769868D01*
X160112087Y-64849811D01*
X160056153Y-64891682D01*
X160012820Y-64899500D01*
X149666530Y-64899500D01*
X149569887Y-64918724D01*
X149473242Y-64937947D01*
X149473236Y-64937949D01*
X149419909Y-64960037D01*
X149419909Y-64960038D01*
X149374390Y-64978892D01*
X149291164Y-65013366D01*
X149291154Y-65013371D01*
X149127294Y-65122859D01*
X149075628Y-65174526D01*
X148987936Y-65262218D01*
X148987933Y-65262221D01*
X148879258Y-65370897D01*
X148786974Y-65463181D01*
X148725651Y-65496666D01*
X148699293Y-65499500D01*
X137916977Y-65499500D01*
X137849938Y-65479815D01*
X137804183Y-65427011D01*
X137796733Y-65399865D01*
X137795876Y-65400068D01*
X137794092Y-65392520D01*
X137743797Y-65257671D01*
X137743793Y-65257664D01*
X137657547Y-65142455D01*
X137657544Y-65142452D01*
X137542335Y-65056206D01*
X137542328Y-65056202D01*
X137407482Y-65005908D01*
X137407483Y-65005908D01*
X137347883Y-64999501D01*
X137347881Y-64999500D01*
X137347873Y-64999500D01*
X137347864Y-64999500D01*
X135252129Y-64999500D01*
X135252123Y-64999501D01*
X135192516Y-65005908D01*
X135057671Y-65056202D01*
X135057664Y-65056206D01*
X134942455Y-65142452D01*
X134942452Y-65142455D01*
X134856206Y-65257664D01*
X134856202Y-65257671D01*
X134805908Y-65392517D01*
X134799501Y-65452116D01*
X134799500Y-65452135D01*
X134799500Y-67109952D01*
X134779815Y-67176991D01*
X134763185Y-67197628D01*
X134661596Y-67299219D01*
X134608027Y-67352788D01*
X134487715Y-67518385D01*
X134444932Y-67602352D01*
X134394781Y-67700776D01*
X134331522Y-67895465D01*
X134299500Y-68097648D01*
X131800000Y-68097648D01*
X131800000Y-67750000D01*
X130800000Y-67750000D01*
X130800000Y-67250000D01*
X131800000Y-67250000D01*
X131800000Y-66731947D01*
X131763065Y-66498752D01*
X131690102Y-66274197D01*
X131582914Y-66063828D01*
X131444133Y-65872813D01*
X131277186Y-65705866D01*
X131086171Y-65567085D01*
X130875802Y-65459897D01*
X130651247Y-65386934D01*
X130550000Y-65370897D01*
X130550000Y-66416988D01*
X130492993Y-66384075D01*
X130365826Y-66350000D01*
X130234174Y-66350000D01*
X130107007Y-66384075D01*
X130050000Y-66416988D01*
X130050000Y-65370897D01*
X129948752Y-65386934D01*
X129724197Y-65459897D01*
X129513828Y-65567085D01*
X129322813Y-65705866D01*
X129155866Y-65872813D01*
X129017085Y-66063828D01*
X128909897Y-66274197D01*
X128836934Y-66498752D01*
X128800000Y-66731947D01*
X128017580Y-66731947D01*
X127969657Y-66684024D01*
X127882025Y-66625471D01*
X127797598Y-66569059D01*
X127734669Y-66542993D01*
X127606420Y-66489870D01*
X127606412Y-66489868D01*
X127403469Y-66449500D01*
X127403465Y-66449500D01*
X127196535Y-66449500D01*
X127196530Y-66449500D01*
X126993587Y-66489868D01*
X126993579Y-66489870D01*
X126802403Y-66569058D01*
X126630342Y-66684024D01*
X126484024Y-66830342D01*
X126369058Y-67002403D01*
X126289870Y-67193579D01*
X126289868Y-67193587D01*
X126249500Y-67396530D01*
X124100000Y-67396530D01*
X124100000Y-62881902D01*
X127049500Y-62881902D01*
X127049500Y-63118097D01*
X127086446Y-63351368D01*
X127159433Y-63575996D01*
X127266657Y-63786433D01*
X127405483Y-63977510D01*
X127572490Y-64144517D01*
X127763567Y-64283343D01*
X127862991Y-64334002D01*
X127974003Y-64390566D01*
X127974005Y-64390566D01*
X127974008Y-64390568D01*
X128094412Y-64429689D01*
X128198631Y-64463553D01*
X128431903Y-64500500D01*
X128431908Y-64500500D01*
X130168097Y-64500500D01*
X130401368Y-64463553D01*
X130625992Y-64390568D01*
X130836433Y-64283343D01*
X131027510Y-64144517D01*
X131194517Y-63977510D01*
X131333343Y-63786433D01*
X131440568Y-63575992D01*
X131513553Y-63351368D01*
X131550500Y-63118097D01*
X131550500Y-62881902D01*
X131513553Y-62648631D01*
X131440566Y-62424003D01*
X131333342Y-62213566D01*
X131194517Y-62022490D01*
X131027510Y-61855483D01*
X130836433Y-61716657D01*
X130625996Y-61609433D01*
X130401368Y-61536446D01*
X130168097Y-61499500D01*
X130168092Y-61499500D01*
X128431908Y-61499500D01*
X128431903Y-61499500D01*
X128198631Y-61536446D01*
X127974003Y-61609433D01*
X127763566Y-61716657D01*
X127654550Y-61795862D01*
X127572490Y-61855483D01*
X127572488Y-61855485D01*
X127572487Y-61855485D01*
X127405485Y-62022487D01*
X127405485Y-62022488D01*
X127405483Y-62022490D01*
X127345862Y-62104550D01*
X127266657Y-62213566D01*
X127159433Y-62424003D01*
X127086446Y-62648631D01*
X127049500Y-62881902D01*
X124100000Y-62881902D01*
X124100000Y-61302021D01*
X124100066Y-61297978D01*
X124101673Y-61248720D01*
X124101674Y-61248717D01*
X124101673Y-61248715D01*
X124105831Y-61220675D01*
X124131843Y-61123594D01*
X124144226Y-61093701D01*
X124193452Y-61008437D01*
X124213151Y-60982766D01*
X124282766Y-60913151D01*
X124308437Y-60893452D01*
X124393701Y-60844226D01*
X124423594Y-60831843D01*
X124520675Y-60805831D01*
X124548715Y-60801673D01*
X124593582Y-60800209D01*
X124597979Y-60800066D01*
X124602022Y-60800000D01*
X184597978Y-60800000D01*
X184602021Y-60800066D01*
G37*
%TD.AperFunction*%
%TD*%
M02*
