%TF.GenerationSoftware,KiCad,Pcbnew,8.0.6*%
%TF.CreationDate,2024-10-24T21:34:22-07:00*%
%TF.ProjectId,PedalSynth,50656461-6c53-4796-9e74-682e6b696361,r1.0*%
%TF.SameCoordinates,Original*%
%TF.FileFunction,Copper,L1,Top*%
%TF.FilePolarity,Positive*%
%FSLAX46Y46*%
G04 Gerber Fmt 4.6, Leading zero omitted, Abs format (unit mm)*
G04 Created by KiCad (PCBNEW 8.0.6) date 2024-10-24 21:34:22*
%MOMM*%
%LPD*%
G01*
G04 APERTURE LIST*
G04 Aperture macros list*
%AMRoundRect*
0 Rectangle with rounded corners*
0 $1 Rounding radius*
0 $2 $3 $4 $5 $6 $7 $8 $9 X,Y pos of 4 corners*
0 Add a 4 corners polygon primitive as box body*
4,1,4,$2,$3,$4,$5,$6,$7,$8,$9,$2,$3,0*
0 Add four circle primitives for the rounded corners*
1,1,$1+$1,$2,$3*
1,1,$1+$1,$4,$5*
1,1,$1+$1,$6,$7*
1,1,$1+$1,$8,$9*
0 Add four rect primitives between the rounded corners*
20,1,$1+$1,$2,$3,$4,$5,0*
20,1,$1+$1,$4,$5,$6,$7,0*
20,1,$1+$1,$6,$7,$8,$9,0*
20,1,$1+$1,$8,$9,$2,$3,0*%
G04 Aperture macros list end*
%TA.AperFunction,NonConductor*%
%ADD10C,0.200000*%
%TD*%
%TA.AperFunction,ComponentPad*%
%ADD11C,1.400000*%
%TD*%
%TA.AperFunction,ComponentPad*%
%ADD12R,1.600000X1.600000*%
%TD*%
%TA.AperFunction,ComponentPad*%
%ADD13C,1.600000*%
%TD*%
%TA.AperFunction,SMDPad,CuDef*%
%ADD14R,1.600000X0.300000*%
%TD*%
%TA.AperFunction,ComponentPad*%
%ADD15C,0.800000*%
%TD*%
%TA.AperFunction,SMDPad,CuDef*%
%ADD16R,3.400000X9.700000*%
%TD*%
%TA.AperFunction,ComponentPad*%
%ADD17R,2.000000X4.000000*%
%TD*%
%TA.AperFunction,ComponentPad*%
%ADD18O,2.000000X3.300000*%
%TD*%
%TA.AperFunction,ComponentPad*%
%ADD19O,3.500000X2.000000*%
%TD*%
%TA.AperFunction,SMDPad,CuDef*%
%ADD20RoundRect,0.160000X-0.197500X-0.160000X0.197500X-0.160000X0.197500X0.160000X-0.197500X0.160000X0*%
%TD*%
%TA.AperFunction,SMDPad,CuDef*%
%ADD21RoundRect,0.155000X0.155000X-0.212500X0.155000X0.212500X-0.155000X0.212500X-0.155000X-0.212500X0*%
%TD*%
%TA.AperFunction,SMDPad,CuDef*%
%ADD22R,2.350000X5.100000*%
%TD*%
%TA.AperFunction,SMDPad,CuDef*%
%ADD23RoundRect,0.155000X-0.212500X-0.155000X0.212500X-0.155000X0.212500X0.155000X-0.212500X0.155000X0*%
%TD*%
%TA.AperFunction,ComponentPad*%
%ADD24C,1.440000*%
%TD*%
%TA.AperFunction,SMDPad,CuDef*%
%ADD25RoundRect,0.250000X-0.337500X-0.475000X0.337500X-0.475000X0.337500X0.475000X-0.337500X0.475000X0*%
%TD*%
%TA.AperFunction,SMDPad,CuDef*%
%ADD26RoundRect,0.160000X0.197500X0.160000X-0.197500X0.160000X-0.197500X-0.160000X0.197500X-0.160000X0*%
%TD*%
%TA.AperFunction,SMDPad,CuDef*%
%ADD27RoundRect,0.155000X0.212500X0.155000X-0.212500X0.155000X-0.212500X-0.155000X0.212500X-0.155000X0*%
%TD*%
%TA.AperFunction,ComponentPad*%
%ADD28C,1.950000*%
%TD*%
%TA.AperFunction,SMDPad,CuDef*%
%ADD29RoundRect,0.250000X0.337500X0.475000X-0.337500X0.475000X-0.337500X-0.475000X0.337500X-0.475000X0*%
%TD*%
%TA.AperFunction,SMDPad,CuDef*%
%ADD30RoundRect,0.155000X-0.155000X0.212500X-0.155000X-0.212500X0.155000X-0.212500X0.155000X0.212500X0*%
%TD*%
%TA.AperFunction,SMDPad,CuDef*%
%ADD31RoundRect,0.160000X0.160000X-0.197500X0.160000X0.197500X-0.160000X0.197500X-0.160000X-0.197500X0*%
%TD*%
%TA.AperFunction,SMDPad,CuDef*%
%ADD32R,2.200000X2.800000*%
%TD*%
%TA.AperFunction,SMDPad,CuDef*%
%ADD33R,2.800000X2.800000*%
%TD*%
%TA.AperFunction,ViaPad*%
%ADD34C,0.700000*%
%TD*%
%TA.AperFunction,Conductor*%
%ADD35C,0.300000*%
%TD*%
%TA.AperFunction,Conductor*%
%ADD36C,0.200000*%
%TD*%
%TA.AperFunction,Conductor*%
%ADD37C,0.600000*%
%TD*%
%TA.AperFunction,Conductor*%
%ADD38C,0.400000*%
%TD*%
%TA.AperFunction,Conductor*%
%ADD39C,2.500000*%
%TD*%
%TA.AperFunction,Conductor*%
%ADD40C,2.000000*%
%TD*%
%TA.AperFunction,Conductor*%
%ADD41C,1.000000*%
%TD*%
%TA.AperFunction,Conductor*%
%ADD42C,0.800000*%
%TD*%
G04 APERTURE END LIST*
D10*
X120850000Y-58050000D02*
X200100000Y-58050000D01*
X200100000Y-102800000D01*
X120850000Y-102800000D01*
X120850000Y-58050000D01*
D11*
%TO.P,TPSP2,1,1*%
%TO.N,/SPK-*%
X169275000Y-86825000D03*
X171275000Y-86825000D03*
%TD*%
D12*
%TO.P,C1,1*%
%TO.N,VCC*%
X161350000Y-65900000D03*
D13*
%TO.P,C1,2*%
%TO.N,GND*%
X164850000Y-65900000D03*
%TD*%
D11*
%TO.P,RING1,1,1*%
%TO.N,Net-(J1-PadR)*%
X144100000Y-97050000D03*
X146100000Y-97050000D03*
%TD*%
D14*
%TO.P,U1,1,SD*%
%TO.N,{slash}SHUTDOWN*%
X150250000Y-75350000D03*
%TO.P,U1,2,FAULT*%
X150250000Y-76000000D03*
%TO.P,U1,3,LINP*%
%TO.N,unconnected-(U1-LINP-Pad3)*%
X150250000Y-76650000D03*
%TO.P,U1,4,LINN*%
%TO.N,unconnected-(U1-LINN-Pad4)*%
X150250000Y-77300000D03*
%TO.P,U1,5,NC*%
%TO.N,GND*%
X150250000Y-77950000D03*
%TO.P,U1,6,NC*%
X150250000Y-78600000D03*
%TO.P,U1,7,AVCC*%
%TO.N,VCC*%
X150250000Y-79250000D03*
%TO.P,U1,8,GND-2*%
%TO.N,GND*%
X150250000Y-79900000D03*
%TO.P,U1,9,GVDD*%
%TO.N,/GVDD*%
X150250000Y-80550000D03*
%TO.P,U1,10,PLIMIT*%
%TO.N,Net-(U1-PLIMIT)*%
X150250000Y-81200000D03*
%TO.P,U1,11,RINN*%
%TO.N,/RINN*%
X150250000Y-81850000D03*
%TO.P,U1,12,RINP*%
%TO.N,/RINP*%
X150250000Y-82500000D03*
%TO.P,U1,13,NC*%
%TO.N,GND*%
X150250000Y-83150000D03*
%TO.P,U1,14,PBTL*%
%TO.N,Net-(U1-PBTL)*%
X150250000Y-83800000D03*
%TO.P,U1,15,PVCCR*%
%TO.N,VCC*%
X155850000Y-83800000D03*
%TO.P,U1,16,PVCCR*%
X155850000Y-83150000D03*
%TO.P,U1,17,BSPR*%
%TO.N,/BSNR*%
X155850000Y-82500000D03*
%TO.P,U1,18,OUTPR*%
%TO.N,/OUTPR*%
X155850000Y-81850000D03*
%TO.P,U1,19,GND-1*%
%TO.N,GND*%
X155850000Y-81200000D03*
%TO.P,U1,20,OUTNR*%
%TO.N,/OUTPR*%
X155850000Y-80550000D03*
%TO.P,U1,21,BSNR*%
%TO.N,/BSNR*%
X155850000Y-79900000D03*
%TO.P,U1,22,BSNL*%
%TO.N,/BSPL*%
X155850000Y-79250000D03*
%TO.P,U1,23,OUTNL*%
%TO.N,/OUTPL*%
X155850000Y-78600000D03*
%TO.P,U1,24,GND*%
%TO.N,GND*%
X155850000Y-77950000D03*
%TO.P,U1,25,OUTPL*%
%TO.N,/OUTPL*%
X155850000Y-77300000D03*
%TO.P,U1,26,BSPL*%
%TO.N,/BSPL*%
X155850000Y-76650000D03*
%TO.P,U1,27,PVCCL*%
%TO.N,VCC*%
X155850000Y-76000000D03*
%TO.P,U1,28,PVCCL*%
X155850000Y-75350000D03*
D15*
%TO.P,U1,29,PAD*%
%TO.N,GND*%
X152050000Y-75575000D03*
X152050000Y-76725000D03*
X152050000Y-77875000D03*
X152050000Y-79025000D03*
X152050000Y-80175000D03*
X152050000Y-81325000D03*
X152050000Y-82475000D03*
X152050000Y-83625000D03*
X153050000Y-75575000D03*
X153050000Y-76725000D03*
X153050000Y-77875000D03*
X153050000Y-79025000D03*
D16*
X153050000Y-79575000D03*
D15*
X153050000Y-80175000D03*
X153050000Y-81325000D03*
X153050000Y-82475000D03*
X153050000Y-83625000D03*
X154050000Y-75575000D03*
X154050000Y-76725000D03*
X154050000Y-77875000D03*
X154050000Y-79025000D03*
X154050000Y-80175000D03*
X154050000Y-81325000D03*
X154050000Y-82475000D03*
X154050000Y-83625000D03*
%TD*%
D17*
%TO.P,J3,1*%
%TO.N,VCC*%
X136300000Y-67500000D03*
D18*
%TO.P,J3,2*%
%TO.N,GND*%
X130300000Y-67500000D03*
D19*
%TO.P,J3,MP*%
%TO.N,N/C*%
X129300000Y-63000000D03*
X129300000Y-72000000D03*
%TD*%
D20*
%TO.P,R6,1*%
%TO.N,Net-(J1-PadT)*%
X144502500Y-84900000D03*
%TO.P,R6,2*%
%TO.N,AMPIN*%
X145697500Y-84900000D03*
%TD*%
D21*
%TO.P,C11,1*%
%TO.N,/BSPL*%
X158400000Y-74967500D03*
%TO.P,C11,2*%
%TO.N,/OUTPL*%
X158400000Y-73832500D03*
%TD*%
D22*
%TO.P,L1,1,1*%
%TO.N,/OUTPL*%
X160775000Y-74100000D03*
%TO.P,L1,2,2*%
%TO.N,/SPK+*%
X165425000Y-74100000D03*
%TD*%
D23*
%TO.P,C7,1*%
%TO.N,VCC*%
X155782500Y-85300000D03*
%TO.P,C7,2*%
%TO.N,GND*%
X156917500Y-85300000D03*
%TD*%
D24*
%TO.P,RV1,1,1*%
%TO.N,/GVDD*%
X138615000Y-81340000D03*
%TO.P,RV1,2,2*%
%TO.N,Net-(U1-PLIMIT)*%
X141155000Y-78800000D03*
%TO.P,RV1,3,3*%
%TO.N,Net-(R3-Pad2)*%
X138615000Y-76260000D03*
%TD*%
D25*
%TO.P,C4,1*%
%TO.N,VCC*%
X156562500Y-87050000D03*
%TO.P,C4,2*%
%TO.N,GND*%
X158637500Y-87050000D03*
%TD*%
D26*
%TO.P,R5,1*%
%TO.N,AMPIN*%
X145697500Y-83700000D03*
%TO.P,R5,2*%
%TO.N,Net-(J1-PadR)*%
X144502500Y-83700000D03*
%TD*%
D27*
%TO.P,C6,1*%
%TO.N,GND*%
X156985000Y-73800000D03*
%TO.P,C6,2*%
%TO.N,VCC*%
X155850000Y-73800000D03*
%TD*%
D28*
%TO.P,J2,1_1,1_1*%
%TO.N,/SPK-*%
X171200000Y-82200000D03*
%TO.P,J2,1_2,1_2*%
X179400000Y-82200000D03*
%TO.P,J2,2_1,2_1*%
%TO.N,/SPK+*%
X171200000Y-77200000D03*
%TO.P,J2,2_2,2_2*%
X179400000Y-77200000D03*
%TD*%
D29*
%TO.P,C14,1*%
%TO.N,/SPK-*%
X165237500Y-80700000D03*
%TO.P,C14,2*%
%TO.N,GND*%
X163162500Y-80700000D03*
%TD*%
D22*
%TO.P,L2,1,1*%
%TO.N,/OUTPR*%
X160775000Y-85000000D03*
%TO.P,L2,2,2*%
%TO.N,/SPK-*%
X165425000Y-85000000D03*
%TD*%
D20*
%TO.P,R1,1*%
%TO.N,VCC*%
X146655000Y-74550000D03*
%TO.P,R1,2*%
%TO.N,{slash}SHUTDOWN*%
X147850000Y-74550000D03*
%TD*%
D27*
%TO.P,C10,1*%
%TO.N,/RINN*%
X148317500Y-82550000D03*
%TO.P,C10,2*%
%TO.N,GND*%
X147182500Y-82550000D03*
%TD*%
D12*
%TO.P,C2,1*%
%TO.N,VCC*%
X161350000Y-94300000D03*
D13*
%TO.P,C2,2*%
%TO.N,GND*%
X164850000Y-94300000D03*
%TD*%
D30*
%TO.P,C12,1*%
%TO.N,/BSNR*%
X158400000Y-84182500D03*
%TO.P,C12,2*%
%TO.N,/OUTPR*%
X158400000Y-85317500D03*
%TD*%
D11*
%TO.P,GND1,1,1*%
%TO.N,GND*%
X125800000Y-79900000D03*
X127800000Y-79900000D03*
%TD*%
D29*
%TO.P,C13,1*%
%TO.N,/SPK+*%
X165237500Y-78400000D03*
%TO.P,C13,2*%
%TO.N,GND*%
X163162500Y-78400000D03*
%TD*%
D11*
%TO.P,SLEEVE1,1,1*%
%TO.N,Net-(J1-PadT)*%
X150600000Y-97050000D03*
X152600000Y-97050000D03*
%TD*%
D31*
%TO.P,R3,1*%
%TO.N,GND*%
X132600000Y-77397500D03*
%TO.P,R3,2*%
%TO.N,Net-(R3-Pad2)*%
X132600000Y-76202500D03*
%TD*%
D32*
%TO.P,J1,R*%
%TO.N,Net-(J1-PadR)*%
X131100000Y-87600000D03*
%TO.P,J1,S*%
%TO.N,GND*%
X129100000Y-95000000D03*
D33*
%TO.P,J1,T*%
%TO.N,Net-(J1-PadT)*%
X138500000Y-95000000D03*
%TD*%
D11*
%TO.P,TPSP1,1,1*%
%TO.N,/SPK+*%
X169300000Y-72000000D03*
X171300000Y-72000000D03*
%TD*%
D29*
%TO.P,C3,1*%
%TO.N,GND*%
X158637500Y-72050000D03*
%TO.P,C3,2*%
%TO.N,VCC*%
X156562500Y-72050000D03*
%TD*%
D20*
%TO.P,R2,1*%
%TO.N,VCC*%
X147155000Y-85550000D03*
%TO.P,R2,2*%
%TO.N,Net-(U1-PBTL)*%
X148350000Y-85550000D03*
%TD*%
D25*
%TO.P,C9,1*%
%TO.N,GND*%
X145062500Y-79850000D03*
%TO.P,C9,2*%
%TO.N,/GVDD*%
X147137500Y-79850000D03*
%TD*%
D29*
%TO.P,C5,1*%
%TO.N,VCC*%
X147137500Y-77500000D03*
%TO.P,C5,2*%
%TO.N,GND*%
X145062500Y-77500000D03*
%TD*%
D27*
%TO.P,C8,1*%
%TO.N,/RINP*%
X148317500Y-83600000D03*
%TO.P,C8,2*%
%TO.N,AMPIN*%
X147182500Y-83600000D03*
%TD*%
D34*
%TO.N,GND*%
X182100000Y-70300000D03*
X169600000Y-97800000D03*
X184600000Y-80300000D03*
X172100000Y-92800000D03*
X153350000Y-70800000D03*
X182100000Y-80300000D03*
X153850000Y-90800000D03*
X136100000Y-63800000D03*
X158600000Y-98800000D03*
X151850000Y-91800000D03*
X133100000Y-63800000D03*
X147850000Y-87800000D03*
X152350000Y-70800000D03*
X155350000Y-68800000D03*
X154350000Y-72800000D03*
X160350000Y-89800000D03*
X148350000Y-69800000D03*
X154350000Y-70800000D03*
X153350000Y-68800000D03*
X152850000Y-85300000D03*
X160350000Y-88800000D03*
X152850000Y-86300000D03*
X150350000Y-67850000D03*
X156850000Y-92800000D03*
X148850000Y-92800000D03*
X184600000Y-85300000D03*
X174600000Y-67800000D03*
X153850000Y-91800000D03*
X177100000Y-72800000D03*
X153850000Y-89800000D03*
X142100000Y-62800000D03*
X152850000Y-88800000D03*
X151350000Y-71800000D03*
X147850000Y-89800000D03*
X147850000Y-91800000D03*
X151350000Y-70800000D03*
X182100000Y-75300000D03*
X158850000Y-70300000D03*
X142100000Y-98800000D03*
X162100000Y-62800000D03*
X150850000Y-89800000D03*
X164600000Y-70300000D03*
X166600000Y-94300000D03*
X151350000Y-67850000D03*
X158350000Y-88800000D03*
X144175000Y-68900000D03*
X147850000Y-90800000D03*
X174600000Y-70300000D03*
X164850000Y-92550000D03*
X179600000Y-70300000D03*
X134100000Y-89800000D03*
X154850000Y-91800000D03*
X149850000Y-86300000D03*
X129600000Y-97800000D03*
X156100000Y-98800000D03*
X167100000Y-62800000D03*
X149350000Y-70800000D03*
X155850000Y-90800000D03*
X129600000Y-82800000D03*
X161850000Y-80050000D03*
X151350000Y-72800000D03*
X132900000Y-65700000D03*
X150350000Y-68800000D03*
X174600000Y-72800000D03*
X131200000Y-77400000D03*
X163500000Y-67200000D03*
X156100000Y-96800000D03*
X144325000Y-75875000D03*
X148850000Y-88800000D03*
X179600000Y-87800000D03*
X145850000Y-88800000D03*
X154350000Y-69800000D03*
X134600000Y-97800000D03*
X169600000Y-92800000D03*
X131900000Y-65600000D03*
X184600000Y-70300000D03*
X152350000Y-72800000D03*
X150350000Y-72800000D03*
X164850000Y-96050000D03*
X154600000Y-62800000D03*
X164900000Y-67700000D03*
X184600000Y-67800000D03*
X184600000Y-77800000D03*
X125600000Y-63800000D03*
X139600000Y-62800000D03*
X148350000Y-71800000D03*
X139600000Y-98800000D03*
X127100000Y-65300000D03*
X133300000Y-67500000D03*
X172100000Y-67800000D03*
X151850000Y-88800000D03*
X179600000Y-72800000D03*
X161850000Y-78050000D03*
X153350000Y-73800000D03*
X133300000Y-66600000D03*
X149850000Y-88800000D03*
X166200000Y-67100000D03*
X141850000Y-69300000D03*
X151850000Y-92800000D03*
X132600000Y-78800000D03*
X169600000Y-67800000D03*
X153350000Y-69800000D03*
X158901041Y-81498959D03*
X153850000Y-88800000D03*
X150850000Y-88800000D03*
X132100000Y-82800000D03*
X177100000Y-85300000D03*
X172100000Y-90300000D03*
X149600000Y-62800000D03*
X150850000Y-87800000D03*
X152850000Y-92800000D03*
X146325000Y-75875000D03*
X154756497Y-85300000D03*
X151350000Y-73800000D03*
X182100000Y-85300000D03*
X144600000Y-62800000D03*
X143100000Y-86050000D03*
X155850000Y-91800000D03*
X153350000Y-72800000D03*
X153850000Y-86300000D03*
X154350000Y-73800000D03*
X127100000Y-97800000D03*
X177100000Y-75300000D03*
X148850000Y-89800000D03*
X150850000Y-90800000D03*
X133300000Y-68400000D03*
X129600000Y-80300000D03*
X125600000Y-71300000D03*
X147750000Y-84650000D03*
X148850000Y-91800000D03*
X149350000Y-71800000D03*
X154350000Y-71800000D03*
X149350000Y-73800000D03*
X179600000Y-67800000D03*
X159850000Y-70300000D03*
X152850000Y-91800000D03*
X152350000Y-68800000D03*
X132300000Y-68400000D03*
X151850000Y-89800000D03*
X177100000Y-87800000D03*
X148100000Y-98800000D03*
X148350000Y-70800000D03*
X151350000Y-68800000D03*
X164800000Y-64100000D03*
X166100000Y-93050000D03*
X158900000Y-77550000D03*
X161850000Y-79050000D03*
X150350000Y-71800000D03*
X147100000Y-86800000D03*
X149350000Y-69800000D03*
X167100000Y-90300000D03*
X147850000Y-88800000D03*
X160850000Y-81050000D03*
X166100000Y-95550000D03*
X169600000Y-90300000D03*
X177100000Y-67800000D03*
X152350000Y-73800000D03*
X149850000Y-89800000D03*
X174600000Y-90300000D03*
X151350000Y-69800000D03*
X148800000Y-77900000D03*
X149850000Y-92800000D03*
X145800000Y-82380000D03*
X174600000Y-87800000D03*
X177100000Y-70300000D03*
X159850000Y-69300000D03*
X152850000Y-90800000D03*
X150350000Y-69800000D03*
X149850000Y-87800000D03*
X152350000Y-71800000D03*
X154850000Y-89800000D03*
X160850000Y-70300000D03*
X161850000Y-81050000D03*
X126850000Y-95050000D03*
X177100000Y-90300000D03*
X163600000Y-93050000D03*
X162100000Y-98800000D03*
X151850000Y-86300000D03*
X149850000Y-85300000D03*
X184600000Y-87800000D03*
X148350000Y-72800000D03*
X167100000Y-97800000D03*
X148600000Y-76050000D03*
X151850000Y-87800000D03*
X160850000Y-80050000D03*
X153350000Y-71800000D03*
X146850000Y-89800000D03*
X132100000Y-97800000D03*
X150850000Y-91800000D03*
X166100000Y-64400000D03*
X125600000Y-65800000D03*
X131350000Y-95050000D03*
X152100000Y-62800000D03*
X148600000Y-79850000D03*
X150850000Y-85300000D03*
X159350000Y-89800000D03*
X149850000Y-91800000D03*
X179600000Y-92050000D03*
X182100000Y-67800000D03*
X153850000Y-85300000D03*
X127100000Y-77800000D03*
X174600000Y-75300000D03*
X137100000Y-98800000D03*
X132100000Y-80300000D03*
X182100000Y-82800000D03*
X157100000Y-62800000D03*
X152850000Y-87800000D03*
X149350000Y-68800000D03*
X146850000Y-88800000D03*
X150350000Y-73800000D03*
X146850000Y-90800000D03*
X127100000Y-86800000D03*
X127100000Y-70300000D03*
X145325000Y-75875000D03*
X184600000Y-75300000D03*
X147350000Y-70800000D03*
X154350000Y-67850000D03*
X151850000Y-90800000D03*
X142350000Y-96050000D03*
X145850000Y-85800000D03*
X154850000Y-92800000D03*
X154756497Y-86300000D03*
X159350000Y-88800000D03*
X160850000Y-78050000D03*
X139600000Y-70300000D03*
X154350000Y-68800000D03*
X143000000Y-79200000D03*
X163600000Y-64500000D03*
X164600000Y-98800000D03*
X148850000Y-87800000D03*
X174600000Y-92800000D03*
X148850000Y-90800000D03*
X132300000Y-67500000D03*
X157350000Y-84300000D03*
X131900000Y-69400000D03*
X131100000Y-84800000D03*
X129100000Y-92550000D03*
X132300000Y-66600000D03*
X150850000Y-92800000D03*
X177100000Y-92800000D03*
X184600000Y-82800000D03*
X149850000Y-90800000D03*
X156850000Y-91800000D03*
X152850000Y-89800000D03*
X158600000Y-96800000D03*
X145850000Y-87800000D03*
X152350000Y-69800000D03*
X144325000Y-74875000D03*
X154850000Y-90800000D03*
X132900000Y-69350000D03*
X174600000Y-85300000D03*
X166700000Y-65500000D03*
X155850000Y-92800000D03*
X179600000Y-85300000D03*
X182100000Y-77800000D03*
X145850000Y-89800000D03*
X147350000Y-71800000D03*
X163600000Y-95550000D03*
X127100000Y-90300000D03*
X149350000Y-72800000D03*
X129600000Y-77800000D03*
X125600000Y-69300000D03*
X169600000Y-95300000D03*
X150850000Y-86300000D03*
X157350000Y-74800000D03*
X151850000Y-85300000D03*
X160850000Y-79050000D03*
X182100000Y-87800000D03*
X155350000Y-67850000D03*
X150350000Y-70800000D03*
X147100000Y-62800000D03*
X145850000Y-86800000D03*
X146850000Y-87800000D03*
X153850000Y-92800000D03*
X144850000Y-88800000D03*
%TO.N,VCC*%
X145650000Y-74550000D03*
%TO.N,/BSPL*%
X159700000Y-78900000D03*
X157600000Y-76200000D03*
%TO.N,/BSNR*%
X159700000Y-80200000D03*
X157650000Y-83050000D03*
%TD*%
D35*
%TO.N,GND*%
X158500000Y-77950000D02*
X155850000Y-77950000D01*
D36*
X145062500Y-79650000D02*
X145062500Y-79850000D01*
X145062500Y-79750000D02*
X145062500Y-79850000D01*
X149350000Y-83150000D02*
X150250000Y-83150000D01*
X148850000Y-77950000D02*
X148800000Y-77900000D01*
X148650000Y-84650000D02*
X149150000Y-84150000D01*
X144817500Y-79505000D02*
X145062500Y-79750000D01*
X149150000Y-84150000D02*
X149150000Y-83350000D01*
D35*
X150200000Y-79850000D02*
X150250000Y-79900000D01*
D36*
X149150000Y-83350000D02*
X149350000Y-83150000D01*
D35*
X150250000Y-77950000D02*
X150250000Y-78600000D01*
D37*
X156985000Y-73800000D02*
X156985000Y-74435000D01*
D36*
X145117500Y-79795000D02*
X145062500Y-79850000D01*
X145117500Y-79605000D02*
X145117500Y-79795000D01*
X144917500Y-79505000D02*
X145062500Y-79650000D01*
X149500000Y-78600000D02*
X148800000Y-77900000D01*
D35*
X158901041Y-81498959D02*
X158602082Y-81200000D01*
D36*
X145217500Y-79605000D02*
X145217500Y-79695000D01*
X150250000Y-77950000D02*
X148850000Y-77950000D01*
D37*
X145312500Y-77800000D02*
X145462500Y-77650000D01*
D35*
X158602082Y-81200000D02*
X155850000Y-81200000D01*
D36*
X150250000Y-78600000D02*
X149500000Y-78600000D01*
D37*
X156985000Y-74435000D02*
X157350000Y-74800000D01*
D35*
X148550000Y-79850000D02*
X150200000Y-79850000D01*
D36*
X147750000Y-84650000D02*
X148650000Y-84650000D01*
D35*
X158900000Y-77550000D02*
X158500000Y-77950000D01*
D37*
X156917500Y-84732500D02*
X157350000Y-84300000D01*
X156917500Y-85300000D02*
X156917500Y-84732500D01*
D36*
X145217500Y-79695000D02*
X145062500Y-79850000D01*
%TO.N,/RINP*%
X148317500Y-83600000D02*
X149417500Y-82500000D01*
X149417500Y-82500000D02*
X150250000Y-82500000D01*
D38*
%TO.N,AMPIN*%
X145697500Y-83700000D02*
X147082500Y-83700000D01*
X145697500Y-84900000D02*
X145697500Y-83700000D01*
X147082500Y-83700000D02*
X147182500Y-83600000D01*
D36*
%TO.N,/RINN*%
X148317500Y-82550000D02*
X149017500Y-81850000D01*
X149017500Y-81850000D02*
X150250000Y-81850000D01*
D35*
%TO.N,Net-(J1-PadR)*%
X136850000Y-97050000D02*
X144100000Y-97050000D01*
D38*
X139900000Y-83700000D02*
X137700000Y-85900000D01*
X132800000Y-85900000D02*
X131100000Y-87600000D01*
X144502500Y-83700000D02*
X139900000Y-83700000D01*
D35*
X131450000Y-91650000D02*
X136850000Y-97050000D01*
X144100000Y-97050000D02*
X146100000Y-97050000D01*
X131100000Y-87600000D02*
X131450000Y-87950000D01*
X131450000Y-87950000D02*
X131450000Y-91650000D01*
D38*
X137700000Y-85900000D02*
X132800000Y-85900000D01*
%TO.N,Net-(J1-PadT)*%
X144502500Y-84900000D02*
X144502500Y-87297500D01*
X138500000Y-93300000D02*
X138500000Y-95000000D01*
X144502500Y-87297500D02*
X138500000Y-93300000D01*
D35*
X150600000Y-97050000D02*
X148550000Y-95000000D01*
X150600000Y-97050000D02*
X152600000Y-97050000D01*
X148550000Y-95000000D02*
X138500000Y-95000000D01*
%TO.N,{slash}SHUTDOWN*%
X149450000Y-74550000D02*
X150250000Y-75350000D01*
X150250000Y-75350000D02*
X150250000Y-76000000D01*
X147850000Y-74550000D02*
X149450000Y-74550000D01*
%TO.N,/GVDD*%
X147837500Y-80550000D02*
X150250000Y-80550000D01*
X140600000Y-76800000D02*
X142143209Y-76800000D01*
X138615000Y-78785000D02*
X140600000Y-76800000D01*
X146062500Y-78775000D02*
X147137500Y-79850000D01*
X147137500Y-79850000D02*
X147837500Y-80550000D01*
X138615000Y-81340000D02*
X138615000Y-78785000D01*
X142143209Y-76800000D02*
X144118209Y-78775000D01*
X144118209Y-78775000D02*
X146062500Y-78775000D01*
%TO.N,Net-(U1-PBTL)*%
X148500000Y-85550000D02*
X150250000Y-83800000D01*
X148350000Y-85550000D02*
X148500000Y-85550000D01*
%TO.N,Net-(U1-PLIMIT)*%
X141155000Y-78800000D02*
X143555000Y-81200000D01*
X143555000Y-81200000D02*
X150250000Y-81200000D01*
D39*
%TO.N,/SPK+*%
X171200000Y-77200000D02*
X179400000Y-77200000D01*
D40*
X169300000Y-72000000D02*
X167200000Y-72000000D01*
D39*
X165100000Y-74100000D02*
X168100000Y-74100000D01*
D41*
X165237500Y-78400000D02*
X165237500Y-74237500D01*
D39*
X168100000Y-74100000D02*
X171200000Y-77200000D01*
D40*
X167200000Y-72000000D02*
X165100000Y-74100000D01*
X171300000Y-72000000D02*
X169300000Y-72000000D01*
D41*
X165237500Y-74237500D02*
X165100000Y-74100000D01*
D40*
%TO.N,/SPK-*%
X171275000Y-86850000D02*
X169275000Y-86850000D01*
D41*
X165237500Y-84962500D02*
X165200000Y-85000000D01*
X165237500Y-80700000D02*
X165237500Y-84962500D01*
D39*
X165200000Y-85000000D02*
X168400000Y-85000000D01*
X168400000Y-85000000D02*
X171200000Y-82200000D01*
D40*
X167100000Y-86900000D02*
X165200000Y-85000000D01*
X169300000Y-86900000D02*
X167100000Y-86900000D01*
D39*
X171200000Y-82200000D02*
X179400000Y-82200000D01*
D35*
%TO.N,VCC*%
X146089950Y-74550000D02*
X145650000Y-74550000D01*
D41*
X156562500Y-87050000D02*
X155806497Y-86293997D01*
X161000000Y-65900000D02*
X161350000Y-65900000D01*
D35*
X158910050Y-91850000D02*
X158910050Y-91860050D01*
D42*
X155782500Y-85300000D02*
X155782500Y-83350000D01*
D35*
X149150000Y-79250000D02*
X150250000Y-79250000D01*
D41*
X156562500Y-87050000D02*
X156562500Y-89512500D01*
D35*
X148705000Y-87100000D02*
X154160050Y-87100000D01*
D41*
X155850000Y-72784925D02*
X156562500Y-72072425D01*
D35*
X147400000Y-77500000D02*
X149150000Y-79250000D01*
D41*
X155850000Y-73800000D02*
X155850000Y-72784925D01*
D35*
X147300000Y-75760050D02*
X146089950Y-74550000D01*
D41*
X156562500Y-89512500D02*
X161350000Y-94300000D01*
D35*
X147155000Y-85550000D02*
X148705000Y-87100000D01*
D41*
X156562500Y-70337500D02*
X161000000Y-65900000D01*
X155806497Y-86293997D02*
X155806497Y-85323997D01*
X156562500Y-72050000D02*
X156562500Y-70337500D01*
D35*
X147300000Y-77337500D02*
X147300000Y-75760050D01*
X154160050Y-87100000D02*
X158910050Y-91850000D01*
X158910050Y-91860050D02*
X161350000Y-94300000D01*
D36*
X155850000Y-76000000D02*
X155850000Y-75350000D01*
D35*
X147137500Y-77500000D02*
X147300000Y-77337500D01*
D42*
X155850000Y-73800000D02*
X155850000Y-75800000D01*
D41*
X156562500Y-72072425D02*
X156562500Y-72050000D01*
D35*
X147137500Y-77500000D02*
X147400000Y-77500000D01*
D42*
X146655000Y-74550000D02*
X145650000Y-74550000D01*
D35*
%TO.N,/OUTPL*%
X160900000Y-76710050D02*
X160900000Y-74100000D01*
D37*
X157900000Y-77300000D02*
X160900000Y-74300000D01*
X155850000Y-77300000D02*
X157900000Y-77300000D01*
X160900000Y-74300000D02*
X160900000Y-74100000D01*
D35*
X159010050Y-78600000D02*
X160900000Y-76710050D01*
D37*
X160632500Y-73832500D02*
X160900000Y-74100000D01*
X158400000Y-73832500D02*
X160632500Y-73832500D01*
D35*
X155850000Y-78600000D02*
X159010050Y-78600000D01*
%TO.N,/BSPL*%
X155850000Y-76650000D02*
X157150000Y-76650000D01*
X157600000Y-75767500D02*
X158400000Y-74967500D01*
X157150000Y-76650000D02*
X157600000Y-76200000D01*
X157600000Y-76200000D02*
X157600000Y-75767500D01*
X159700000Y-78900000D02*
X159610050Y-78900000D01*
X159610050Y-78900000D02*
X159260050Y-79250000D01*
X159260050Y-79250000D02*
X155850000Y-79250000D01*
%TO.N,/BSNR*%
X157100000Y-82500000D02*
X157650000Y-83050000D01*
X159700000Y-80200000D02*
X159400000Y-79900000D01*
X157650000Y-83050000D02*
X157650000Y-83432500D01*
X155850000Y-82500000D02*
X157100000Y-82500000D01*
X159400000Y-79900000D02*
X155850000Y-79900000D01*
X157650000Y-83432500D02*
X158400000Y-84182500D01*
D37*
%TO.N,/OUTPR*%
X161000000Y-84800000D02*
X161000000Y-85000000D01*
X158400000Y-85317500D02*
X160682500Y-85317500D01*
D35*
X161000000Y-82489950D02*
X161000000Y-85000000D01*
X155850000Y-80550000D02*
X159060050Y-80550000D01*
X159060050Y-80550000D02*
X161000000Y-82489950D01*
D37*
X158050000Y-81850000D02*
X161000000Y-84800000D01*
D41*
X160500000Y-84050000D02*
X161000000Y-84550000D01*
D37*
X155850000Y-81850000D02*
X158050000Y-81850000D01*
X160682500Y-85317500D02*
X161000000Y-85000000D01*
D41*
X161000000Y-84550000D02*
X161000000Y-85000000D01*
D35*
%TO.N,Net-(R3-Pad2)*%
X132600000Y-76202500D02*
X138557500Y-76202500D01*
X138557500Y-76202500D02*
X138615000Y-76260000D01*
%TD*%
%TA.AperFunction,Conductor*%
%TO.N,GND*%
G36*
X143792966Y-95670185D02*
G01*
X143838721Y-95722989D01*
X143848665Y-95792147D01*
X143819640Y-95855703D01*
X143770721Y-95890127D01*
X143770065Y-95890381D01*
X143770060Y-95890382D01*
X143598693Y-95956769D01*
X143562601Y-95970752D01*
X143562595Y-95970754D01*
X143373439Y-96087874D01*
X143373437Y-96087876D01*
X143209025Y-96237757D01*
X143209021Y-96237761D01*
X143124091Y-96350227D01*
X143067982Y-96391863D01*
X143025137Y-96399500D01*
X140524500Y-96399500D01*
X140457461Y-96379815D01*
X140411706Y-96327011D01*
X140400500Y-96275500D01*
X140400500Y-95774500D01*
X140420185Y-95707461D01*
X140472989Y-95661706D01*
X140524500Y-95650500D01*
X143725927Y-95650500D01*
X143792966Y-95670185D01*
G37*
%TD.AperFunction*%
%TA.AperFunction,Conductor*%
G36*
X143617486Y-84420185D02*
G01*
X143663241Y-84472989D01*
X143673185Y-84542147D01*
X143668834Y-84561383D01*
X143652488Y-84613838D01*
X143650547Y-84620070D01*
X143644500Y-84686621D01*
X143644500Y-85113388D01*
X143650546Y-85179926D01*
X143650548Y-85179933D01*
X143698265Y-85333066D01*
X143698267Y-85333070D01*
X143784117Y-85475084D01*
X143802000Y-85539233D01*
X143802000Y-86955980D01*
X143782315Y-87023019D01*
X143765681Y-87043661D01*
X137955888Y-92853453D01*
X137955887Y-92853454D01*
X137879224Y-92968189D01*
X137856540Y-93022954D01*
X137812698Y-93077357D01*
X137746403Y-93099421D01*
X137741979Y-93099500D01*
X137052129Y-93099500D01*
X137052123Y-93099501D01*
X136992516Y-93105908D01*
X136857671Y-93156202D01*
X136857664Y-93156206D01*
X136742455Y-93242452D01*
X136742452Y-93242455D01*
X136656206Y-93357664D01*
X136656202Y-93357671D01*
X136605908Y-93492517D01*
X136599501Y-93552116D01*
X136599501Y-93552123D01*
X136599500Y-93552135D01*
X136599500Y-95580192D01*
X136579815Y-95647231D01*
X136527011Y-95692986D01*
X136457853Y-95702930D01*
X136394297Y-95673905D01*
X136387819Y-95667873D01*
X132136819Y-91416873D01*
X132103334Y-91355550D01*
X132100500Y-91329192D01*
X132100500Y-91213389D01*
X136099500Y-91213389D01*
X136099500Y-91386611D01*
X136126598Y-91557701D01*
X136180127Y-91722445D01*
X136258768Y-91876788D01*
X136360586Y-92016928D01*
X136483072Y-92139414D01*
X136623212Y-92241232D01*
X136777555Y-92319873D01*
X136942299Y-92373402D01*
X137113389Y-92400500D01*
X137113390Y-92400500D01*
X137286610Y-92400500D01*
X137286611Y-92400500D01*
X137457701Y-92373402D01*
X137622445Y-92319873D01*
X137776788Y-92241232D01*
X137916928Y-92139414D01*
X138039414Y-92016928D01*
X138141232Y-91876788D01*
X138219873Y-91722445D01*
X138273402Y-91557701D01*
X138300500Y-91386611D01*
X138300500Y-91213389D01*
X138273402Y-91042299D01*
X138219873Y-90877555D01*
X138141232Y-90723212D01*
X138039414Y-90583072D01*
X137916928Y-90460586D01*
X137776788Y-90358768D01*
X137643251Y-90290728D01*
X137622447Y-90280128D01*
X137622446Y-90280127D01*
X137622445Y-90280127D01*
X137457701Y-90226598D01*
X137457699Y-90226597D01*
X137457698Y-90226597D01*
X137326271Y-90205781D01*
X137286611Y-90199500D01*
X137113389Y-90199500D01*
X137073728Y-90205781D01*
X136942302Y-90226597D01*
X136777552Y-90280128D01*
X136623211Y-90358768D01*
X136600500Y-90375269D01*
X136483072Y-90460586D01*
X136483070Y-90460588D01*
X136483069Y-90460588D01*
X136360588Y-90583069D01*
X136360588Y-90583070D01*
X136360586Y-90583072D01*
X136316859Y-90643256D01*
X136258768Y-90723211D01*
X136180128Y-90877552D01*
X136126597Y-91042302D01*
X136099500Y-91213389D01*
X132100500Y-91213389D01*
X132100500Y-89624499D01*
X132120185Y-89557460D01*
X132172989Y-89511705D01*
X132224500Y-89500499D01*
X132247871Y-89500499D01*
X132247872Y-89500499D01*
X132307483Y-89494091D01*
X132442331Y-89443796D01*
X132557546Y-89357546D01*
X132643796Y-89242331D01*
X132694091Y-89107483D01*
X132700500Y-89047873D01*
X132700499Y-87041518D01*
X132720184Y-86974480D01*
X132736818Y-86953838D01*
X133053838Y-86636819D01*
X133115161Y-86603334D01*
X133141519Y-86600500D01*
X137768996Y-86600500D01*
X137860040Y-86582389D01*
X137904328Y-86573580D01*
X137968069Y-86547177D01*
X138031807Y-86520777D01*
X138031808Y-86520776D01*
X138031811Y-86520775D01*
X138146543Y-86444114D01*
X140153838Y-84436819D01*
X140215161Y-84403334D01*
X140241519Y-84400500D01*
X143550447Y-84400500D01*
X143617486Y-84420185D01*
G37*
%TD.AperFunction*%
%TA.AperFunction,Conductor*%
G36*
X147813122Y-84343936D02*
G01*
X147834224Y-84356416D01*
X147842596Y-84361368D01*
X147842600Y-84361370D01*
X147842601Y-84361370D01*
X147842603Y-84361371D01*
X148001637Y-84407575D01*
X148001640Y-84407575D01*
X148001642Y-84407576D01*
X148038797Y-84410500D01*
X148420192Y-84410499D01*
X148487230Y-84430183D01*
X148532985Y-84482987D01*
X148542929Y-84552146D01*
X148513904Y-84615701D01*
X148507872Y-84622180D01*
X148436871Y-84693181D01*
X148375548Y-84726666D01*
X148349190Y-84729500D01*
X148099111Y-84729500D01*
X148032573Y-84735546D01*
X148032566Y-84735548D01*
X147879433Y-84783265D01*
X147879429Y-84783267D01*
X147816649Y-84821219D01*
X147749094Y-84839055D01*
X147688351Y-84821219D01*
X147625570Y-84783267D01*
X147625566Y-84783265D01*
X147472433Y-84735548D01*
X147472435Y-84735548D01*
X147445812Y-84733128D01*
X147405881Y-84729500D01*
X147405878Y-84729500D01*
X146904111Y-84729500D01*
X146837573Y-84735546D01*
X146837572Y-84735546D01*
X146714084Y-84774026D01*
X146644224Y-84775176D01*
X146584832Y-84738375D01*
X146554764Y-84675306D01*
X146553704Y-84666860D01*
X146549453Y-84620074D01*
X146549452Y-84620070D01*
X146549452Y-84620067D01*
X146531166Y-84561388D01*
X146530017Y-84491529D01*
X146566818Y-84432137D01*
X146629887Y-84402069D01*
X146649553Y-84400500D01*
X146824638Y-84400500D01*
X146859230Y-84405423D01*
X146866635Y-84407574D01*
X146866642Y-84407576D01*
X146903797Y-84410500D01*
X147461202Y-84410499D01*
X147498358Y-84407576D01*
X147657400Y-84361370D01*
X147686877Y-84343936D01*
X147754599Y-84326752D01*
X147813122Y-84343936D01*
G37*
%TD.AperFunction*%
%TA.AperFunction,Conductor*%
G36*
X157309574Y-84019124D02*
G01*
X157337830Y-84040276D01*
X157553181Y-84255627D01*
X157586666Y-84316950D01*
X157589500Y-84343308D01*
X157589500Y-84438382D01*
X157569815Y-84505421D01*
X157517011Y-84551176D01*
X157447853Y-84561120D01*
X157402377Y-84545113D01*
X157392195Y-84539091D01*
X157233283Y-84492922D01*
X157233277Y-84492921D01*
X157196157Y-84490000D01*
X157118683Y-84490000D01*
X157051644Y-84470315D01*
X157005889Y-84417511D01*
X156995945Y-84348353D01*
X157019417Y-84291689D01*
X157093793Y-84192335D01*
X157093792Y-84192335D01*
X157093796Y-84192331D01*
X157133968Y-84084623D01*
X157175837Y-84028691D01*
X157241301Y-84004273D01*
X157309574Y-84019124D01*
G37*
%TD.AperFunction*%
%TA.AperFunction,Conductor*%
G36*
X142286180Y-77863997D02*
G01*
X142296438Y-77873175D01*
X143703534Y-79280272D01*
X143703537Y-79280275D01*
X143703540Y-79280277D01*
X143770462Y-79324992D01*
X143810082Y-79351465D01*
X143875478Y-79378553D01*
X143898452Y-79388069D01*
X143952856Y-79431909D01*
X143974921Y-79498203D01*
X143975000Y-79502630D01*
X143975000Y-79600000D01*
X144812500Y-79600000D01*
X144812500Y-79549500D01*
X144832185Y-79482461D01*
X144884989Y-79436706D01*
X144936500Y-79425500D01*
X145188500Y-79425500D01*
X145255539Y-79445185D01*
X145301294Y-79497989D01*
X145312500Y-79549500D01*
X145312500Y-79976000D01*
X145292815Y-80043039D01*
X145240011Y-80088794D01*
X145188500Y-80100000D01*
X143975001Y-80100000D01*
X143975001Y-80374981D01*
X143976566Y-80390303D01*
X143963793Y-80458995D01*
X143915910Y-80509877D01*
X143848120Y-80526795D01*
X143781944Y-80504376D01*
X143765526Y-80490580D01*
X142396122Y-79121176D01*
X142362637Y-79059853D01*
X142361811Y-79018205D01*
X142361077Y-79018141D01*
X142361550Y-79012741D01*
X142373080Y-78880949D01*
X142380162Y-78800001D01*
X142380162Y-78799998D01*
X142371413Y-78700000D01*
X142361549Y-78587253D01*
X142306276Y-78380970D01*
X142216021Y-78187419D01*
X142164119Y-78113294D01*
X142107182Y-78031979D01*
X142084855Y-77965772D01*
X142101866Y-77898005D01*
X142152814Y-77850193D01*
X142221524Y-77837515D01*
X142286180Y-77863997D01*
G37*
%TD.AperFunction*%
%TA.AperFunction,Conductor*%
G36*
X150343039Y-77970184D02*
G01*
X150388794Y-78022988D01*
X150400000Y-78074499D01*
X150400000Y-78475500D01*
X150380315Y-78542539D01*
X150327511Y-78588294D01*
X150276000Y-78599500D01*
X150224000Y-78599500D01*
X150156961Y-78579815D01*
X150111206Y-78527011D01*
X150100000Y-78475500D01*
X150100000Y-78074499D01*
X150119685Y-78007460D01*
X150172489Y-77961705D01*
X150223997Y-77950499D01*
X150276001Y-77950499D01*
X150343039Y-77970184D01*
G37*
%TD.AperFunction*%
%TA.AperFunction,Conductor*%
G36*
X148892539Y-75220185D02*
G01*
X148938294Y-75272989D01*
X148949500Y-75324499D01*
X148949500Y-75547869D01*
X148949501Y-75547876D01*
X148955909Y-75607484D01*
X148964929Y-75631670D01*
X148969911Y-75701361D01*
X148964929Y-75718330D01*
X148955910Y-75742512D01*
X148955909Y-75742515D01*
X148955909Y-75742517D01*
X148949500Y-75802127D01*
X148949500Y-75802134D01*
X148949500Y-75802135D01*
X148949500Y-76197870D01*
X148949501Y-76197876D01*
X148955909Y-76257484D01*
X148964929Y-76281670D01*
X148969911Y-76351361D01*
X148964929Y-76368330D01*
X148955910Y-76392512D01*
X148955909Y-76392515D01*
X148955909Y-76392517D01*
X148949500Y-76452127D01*
X148949500Y-76452134D01*
X148949500Y-76452135D01*
X148949500Y-76847870D01*
X148949501Y-76847876D01*
X148955909Y-76907484D01*
X148964929Y-76931670D01*
X148969911Y-77001361D01*
X148964929Y-77018330D01*
X148955910Y-77042512D01*
X148955909Y-77042515D01*
X148955909Y-77042517D01*
X148949500Y-77102127D01*
X148949500Y-77102134D01*
X148949500Y-77102135D01*
X148949500Y-77497870D01*
X148949501Y-77497876D01*
X148955908Y-77557481D01*
X148965196Y-77582383D01*
X148970179Y-77652074D01*
X148965196Y-77669044D01*
X148956402Y-77692623D01*
X148956401Y-77692624D01*
X148950000Y-77752155D01*
X148950000Y-77830692D01*
X148930315Y-77897731D01*
X148877511Y-77943486D01*
X148808353Y-77953430D01*
X148744797Y-77924405D01*
X148738319Y-77918373D01*
X148261818Y-77441872D01*
X148228333Y-77380549D01*
X148225499Y-77354191D01*
X148225499Y-76974998D01*
X148225498Y-76974981D01*
X148214999Y-76872203D01*
X148214998Y-76872200D01*
X148176984Y-76757482D01*
X148159814Y-76705666D01*
X148067712Y-76556344D01*
X147986819Y-76475451D01*
X147953334Y-76414128D01*
X147950500Y-76387770D01*
X147950500Y-75695978D01*
X147925502Y-75570311D01*
X147925501Y-75570310D01*
X147925501Y-75570306D01*
X147913755Y-75541950D01*
X147906287Y-75472483D01*
X147937562Y-75410004D01*
X147997650Y-75374351D01*
X148028317Y-75370499D01*
X148100888Y-75370499D01*
X148167426Y-75364453D01*
X148167427Y-75364452D01*
X148167433Y-75364452D01*
X148320569Y-75316733D01*
X148435459Y-75247280D01*
X148457829Y-75233757D01*
X148457831Y-75233755D01*
X148457835Y-75233753D01*
X148457838Y-75233749D01*
X148463734Y-75229131D01*
X148465266Y-75231086D01*
X148516092Y-75203334D01*
X148542450Y-75200500D01*
X148825500Y-75200500D01*
X148892539Y-75220185D01*
G37*
%TD.AperFunction*%
%TA.AperFunction,Conductor*%
G36*
X159345823Y-77088766D02*
G01*
X159361922Y-77096118D01*
X159365458Y-77098049D01*
X159363827Y-77101035D01*
X159406597Y-77133023D01*
X159431043Y-77198476D01*
X159416222Y-77266756D01*
X159395044Y-77295058D01*
X158776923Y-77913181D01*
X158715600Y-77946666D01*
X158689242Y-77949500D01*
X158681941Y-77949500D01*
X158614902Y-77929815D01*
X158569147Y-77877011D01*
X158559203Y-77807853D01*
X158588228Y-77744297D01*
X158594260Y-77737819D01*
X159102401Y-77229676D01*
X159214811Y-77117265D01*
X159276132Y-77083782D01*
X159345823Y-77088766D01*
G37*
%TD.AperFunction*%
%TA.AperFunction,Conductor*%
G36*
X157178039Y-73569685D02*
G01*
X157223794Y-73622489D01*
X157235000Y-73674000D01*
X157235000Y-74610000D01*
X157263642Y-74610000D01*
X157263657Y-74609999D01*
X157300777Y-74607078D01*
X157300783Y-74607077D01*
X157430905Y-74569273D01*
X157500774Y-74569472D01*
X157559444Y-74607414D01*
X157588288Y-74671052D01*
X157589500Y-74688349D01*
X157589500Y-74806691D01*
X157569815Y-74873730D01*
X157553181Y-74894372D01*
X157337830Y-75109722D01*
X157276507Y-75143207D01*
X157206815Y-75138223D01*
X157150882Y-75096351D01*
X157133967Y-75065373D01*
X157093798Y-74957673D01*
X157093793Y-74957664D01*
X157007547Y-74842455D01*
X157007544Y-74842452D01*
X156892335Y-74756206D01*
X156892328Y-74756202D01*
X156831167Y-74733391D01*
X156775233Y-74691520D01*
X156750816Y-74626056D01*
X156750500Y-74617209D01*
X156750500Y-74265098D01*
X156759939Y-74217646D01*
X156786712Y-74153007D01*
X156812051Y-74091835D01*
X156845337Y-73924497D01*
X156850500Y-73898543D01*
X156850500Y-73674000D01*
X156870185Y-73606961D01*
X156922989Y-73561206D01*
X156974500Y-73550000D01*
X157111000Y-73550000D01*
X157178039Y-73569685D01*
G37*
%TD.AperFunction*%
%TA.AperFunction,Conductor*%
G36*
X184602021Y-60800066D02*
G01*
X184606710Y-60800218D01*
X184651282Y-60801673D01*
X184679325Y-60805831D01*
X184776403Y-60831843D01*
X184806301Y-60844227D01*
X184891558Y-60893450D01*
X184917237Y-60913155D01*
X184986844Y-60982762D01*
X185006550Y-61008443D01*
X185055770Y-61093694D01*
X185068158Y-61123601D01*
X185094167Y-61220670D01*
X185098326Y-61248717D01*
X185099934Y-61297975D01*
X185100000Y-61302021D01*
X185100000Y-99297978D01*
X185099934Y-99302024D01*
X185098326Y-99351282D01*
X185094167Y-99379329D01*
X185068158Y-99476398D01*
X185055770Y-99506305D01*
X185006550Y-99591556D01*
X184986844Y-99617237D01*
X184917237Y-99686844D01*
X184891556Y-99706550D01*
X184806305Y-99755770D01*
X184776398Y-99768158D01*
X184679329Y-99794167D01*
X184651282Y-99798326D01*
X184606973Y-99799772D01*
X184602020Y-99799934D01*
X184597978Y-99800000D01*
X124602022Y-99800000D01*
X124597979Y-99799934D01*
X124592688Y-99799761D01*
X124548717Y-99798326D01*
X124520670Y-99794167D01*
X124423601Y-99768158D01*
X124393694Y-99755770D01*
X124308443Y-99706550D01*
X124282762Y-99686844D01*
X124213155Y-99617237D01*
X124193449Y-99591556D01*
X124144227Y-99506301D01*
X124131843Y-99476403D01*
X124105831Y-99379325D01*
X124101673Y-99351282D01*
X124100066Y-99302021D01*
X124100000Y-99297978D01*
X124100000Y-96447844D01*
X127500000Y-96447844D01*
X127506401Y-96507372D01*
X127506403Y-96507379D01*
X127556645Y-96642086D01*
X127556649Y-96642093D01*
X127642809Y-96757187D01*
X127642812Y-96757190D01*
X127757906Y-96843350D01*
X127757913Y-96843354D01*
X127892620Y-96893596D01*
X127892627Y-96893598D01*
X127952155Y-96899999D01*
X127952172Y-96900000D01*
X128850000Y-96900000D01*
X129350000Y-96900000D01*
X130247828Y-96900000D01*
X130247844Y-96899999D01*
X130307372Y-96893598D01*
X130307379Y-96893596D01*
X130442086Y-96843354D01*
X130442093Y-96843350D01*
X130557187Y-96757190D01*
X130557190Y-96757187D01*
X130643350Y-96642093D01*
X130643354Y-96642086D01*
X130693596Y-96507379D01*
X130693598Y-96507372D01*
X130699999Y-96447844D01*
X130700000Y-96447827D01*
X130700000Y-95250000D01*
X129350000Y-95250000D01*
X129350000Y-96900000D01*
X128850000Y-96900000D01*
X128850000Y-95250000D01*
X127500000Y-95250000D01*
X127500000Y-96447844D01*
X124100000Y-96447844D01*
X124100000Y-93552155D01*
X127500000Y-93552155D01*
X127500000Y-94750000D01*
X128850000Y-94750000D01*
X129350000Y-94750000D01*
X130700000Y-94750000D01*
X130700000Y-93552172D01*
X130699999Y-93552155D01*
X130693598Y-93492627D01*
X130693596Y-93492620D01*
X130643354Y-93357913D01*
X130643350Y-93357906D01*
X130557190Y-93242812D01*
X130557187Y-93242809D01*
X130442093Y-93156649D01*
X130442086Y-93156645D01*
X130307379Y-93106403D01*
X130307372Y-93106401D01*
X130247844Y-93100000D01*
X129350000Y-93100000D01*
X129350000Y-94750000D01*
X128850000Y-94750000D01*
X128850000Y-93100000D01*
X127952155Y-93100000D01*
X127892627Y-93106401D01*
X127892620Y-93106403D01*
X127757913Y-93156645D01*
X127757906Y-93156649D01*
X127642812Y-93242809D01*
X127642809Y-93242812D01*
X127556649Y-93357906D01*
X127556645Y-93357913D01*
X127506403Y-93492620D01*
X127506401Y-93492627D01*
X127500000Y-93552155D01*
X124100000Y-93552155D01*
X124100000Y-91213389D01*
X129099500Y-91213389D01*
X129099500Y-91386611D01*
X129126598Y-91557701D01*
X129180127Y-91722445D01*
X129258768Y-91876788D01*
X129360586Y-92016928D01*
X129483072Y-92139414D01*
X129623212Y-92241232D01*
X129777555Y-92319873D01*
X129942299Y-92373402D01*
X130113389Y-92400500D01*
X130113390Y-92400500D01*
X130286610Y-92400500D01*
X130286611Y-92400500D01*
X130457701Y-92373402D01*
X130622445Y-92319873D01*
X130776788Y-92241232D01*
X130890640Y-92158513D01*
X130956444Y-92135034D01*
X131024498Y-92150859D01*
X131051205Y-92171151D01*
X136435324Y-97555271D01*
X136435331Y-97555277D01*
X136541871Y-97626464D01*
X136541870Y-97626464D01*
X136576544Y-97640826D01*
X136660256Y-97675501D01*
X136660260Y-97675501D01*
X136660261Y-97675502D01*
X136785928Y-97700500D01*
X136785931Y-97700500D01*
X143025137Y-97700500D01*
X143092176Y-97720185D01*
X143124091Y-97749773D01*
X143209018Y-97862235D01*
X143209021Y-97862238D01*
X143209025Y-97862242D01*
X143373437Y-98012123D01*
X143373439Y-98012125D01*
X143562595Y-98129245D01*
X143562596Y-98129245D01*
X143562599Y-98129247D01*
X143770060Y-98209618D01*
X143988757Y-98250500D01*
X143988759Y-98250500D01*
X144211241Y-98250500D01*
X144211243Y-98250500D01*
X144429940Y-98209618D01*
X144637401Y-98129247D01*
X144826562Y-98012124D01*
X144990981Y-97862236D01*
X145001046Y-97848906D01*
X145057153Y-97807271D01*
X145126865Y-97802578D01*
X145188047Y-97836319D01*
X145198948Y-97848900D01*
X145209019Y-97862236D01*
X145209022Y-97862239D01*
X145209025Y-97862242D01*
X145373437Y-98012123D01*
X145373439Y-98012125D01*
X145562595Y-98129245D01*
X145562596Y-98129245D01*
X145562599Y-98129247D01*
X145770060Y-98209618D01*
X145988757Y-98250500D01*
X145988759Y-98250500D01*
X146211241Y-98250500D01*
X146211243Y-98250500D01*
X146429940Y-98209618D01*
X146637401Y-98129247D01*
X146826562Y-98012124D01*
X146966282Y-97884751D01*
X146990979Y-97862238D01*
X146990982Y-97862235D01*
X147125058Y-97684689D01*
X147224229Y-97485528D01*
X147285115Y-97271536D01*
X147305643Y-97050000D01*
X147285115Y-96828464D01*
X147224229Y-96614472D01*
X147170903Y-96507379D01*
X147125061Y-96415316D01*
X147125056Y-96415308D01*
X146990979Y-96237761D01*
X146826562Y-96087876D01*
X146826560Y-96087874D01*
X146637404Y-95970754D01*
X146637398Y-95970752D01*
X146429940Y-95890382D01*
X146429934Y-95890381D01*
X146429279Y-95890127D01*
X146373878Y-95847554D01*
X146350287Y-95781787D01*
X146365998Y-95713707D01*
X146416022Y-95664928D01*
X146474073Y-95650500D01*
X148229192Y-95650500D01*
X148296231Y-95670185D01*
X148316873Y-95686819D01*
X149377424Y-96747370D01*
X149410909Y-96808693D01*
X149413214Y-96846492D01*
X149394357Y-97049998D01*
X149394357Y-97050000D01*
X149414884Y-97271535D01*
X149414885Y-97271537D01*
X149475769Y-97485523D01*
X149475775Y-97485538D01*
X149574938Y-97684683D01*
X149574943Y-97684691D01*
X149709020Y-97862238D01*
X149873437Y-98012123D01*
X149873439Y-98012125D01*
X150062595Y-98129245D01*
X150062596Y-98129245D01*
X150062599Y-98129247D01*
X150270060Y-98209618D01*
X150488757Y-98250500D01*
X150488759Y-98250500D01*
X150711241Y-98250500D01*
X150711243Y-98250500D01*
X150929940Y-98209618D01*
X151137401Y-98129247D01*
X151326562Y-98012124D01*
X151490981Y-97862236D01*
X151501046Y-97848906D01*
X151557153Y-97807271D01*
X151626865Y-97802578D01*
X151688047Y-97836319D01*
X151698948Y-97848900D01*
X151709019Y-97862236D01*
X151709022Y-97862239D01*
X151709025Y-97862242D01*
X151873437Y-98012123D01*
X151873439Y-98012125D01*
X152062595Y-98129245D01*
X152062596Y-98129245D01*
X152062599Y-98129247D01*
X152270060Y-98209618D01*
X152488757Y-98250500D01*
X152488759Y-98250500D01*
X152711241Y-98250500D01*
X152711243Y-98250500D01*
X152929940Y-98209618D01*
X153137401Y-98129247D01*
X153326562Y-98012124D01*
X153466282Y-97884751D01*
X153490979Y-97862238D01*
X153490982Y-97862235D01*
X153625058Y-97684689D01*
X153724229Y-97485528D01*
X153785115Y-97271536D01*
X153805643Y-97050000D01*
X153785115Y-96828464D01*
X153724229Y-96614472D01*
X153670903Y-96507379D01*
X153625061Y-96415316D01*
X153625056Y-96415308D01*
X153490979Y-96237761D01*
X153326562Y-96087876D01*
X153326560Y-96087874D01*
X153137404Y-95970754D01*
X153137398Y-95970752D01*
X152929940Y-95890382D01*
X152711243Y-95849500D01*
X152488757Y-95849500D01*
X152270060Y-95890382D01*
X152138864Y-95941207D01*
X152062601Y-95970752D01*
X152062595Y-95970754D01*
X151873439Y-96087874D01*
X151873437Y-96087876D01*
X151709019Y-96237762D01*
X151698953Y-96251093D01*
X151642844Y-96292728D01*
X151573132Y-96297419D01*
X151511950Y-96263676D01*
X151501047Y-96251093D01*
X151490980Y-96237762D01*
X151326562Y-96087876D01*
X151326560Y-96087874D01*
X151137404Y-95970754D01*
X151137398Y-95970752D01*
X150929940Y-95890382D01*
X150711243Y-95849500D01*
X150488757Y-95849500D01*
X150455574Y-95855703D01*
X150410358Y-95864155D01*
X150340843Y-95857123D01*
X150299893Y-95829947D01*
X148964674Y-94494727D01*
X148964673Y-94494726D01*
X148964669Y-94494723D01*
X148858127Y-94423535D01*
X148739744Y-94374499D01*
X148739738Y-94374497D01*
X148614071Y-94349500D01*
X148614069Y-94349500D01*
X140524499Y-94349500D01*
X140457460Y-94329815D01*
X140411705Y-94277011D01*
X140400499Y-94225500D01*
X140400499Y-93552129D01*
X140400498Y-93552123D01*
X140400497Y-93552116D01*
X140394091Y-93492517D01*
X140379027Y-93452129D01*
X140343797Y-93357671D01*
X140343793Y-93357664D01*
X140257547Y-93242455D01*
X140257544Y-93242452D01*
X140142335Y-93156206D01*
X140142328Y-93156202D01*
X140007483Y-93105908D01*
X139973765Y-93102283D01*
X139909214Y-93075544D01*
X139869368Y-93018150D01*
X139866876Y-92948325D01*
X139899340Y-92891315D01*
X145046614Y-87744043D01*
X145123275Y-87629311D01*
X145136298Y-87597872D01*
X145176078Y-87501832D01*
X145176080Y-87501828D01*
X145203000Y-87366494D01*
X145203000Y-87228506D01*
X145203000Y-85827796D01*
X145222685Y-85760757D01*
X145275489Y-85715002D01*
X145344647Y-85705058D01*
X145363886Y-85709410D01*
X145380067Y-85714452D01*
X145446619Y-85720500D01*
X145948380Y-85720499D01*
X145948388Y-85720499D01*
X146014926Y-85714453D01*
X146014927Y-85714452D01*
X146014933Y-85714452D01*
X146138414Y-85675974D01*
X146208274Y-85674822D01*
X146267666Y-85711623D01*
X146297734Y-85774692D01*
X146298795Y-85783137D01*
X146303046Y-85829927D01*
X146303048Y-85829933D01*
X146350765Y-85983066D01*
X146350767Y-85983070D01*
X146433742Y-86120329D01*
X146433746Y-86120334D01*
X146547165Y-86233753D01*
X146547170Y-86233757D01*
X146684429Y-86316732D01*
X146684433Y-86316734D01*
X146738600Y-86333612D01*
X146837567Y-86364452D01*
X146904119Y-86370500D01*
X147004191Y-86370499D01*
X147071229Y-86390183D01*
X147091872Y-86406818D01*
X148290325Y-87605272D01*
X148290328Y-87605275D01*
X148368465Y-87657484D01*
X148368464Y-87657484D01*
X148389794Y-87671735D01*
X148396873Y-87676465D01*
X148515256Y-87725501D01*
X148515260Y-87725501D01*
X148515261Y-87725502D01*
X148640928Y-87750500D01*
X148640931Y-87750500D01*
X153839242Y-87750500D01*
X153906281Y-87770185D01*
X153926923Y-87786819D01*
X155525681Y-89385577D01*
X155559166Y-89446900D01*
X155562000Y-89473258D01*
X155562000Y-89611041D01*
X155562000Y-89611043D01*
X155561999Y-89611043D01*
X155600447Y-89804329D01*
X155600450Y-89804339D01*
X155675864Y-89986407D01*
X155675871Y-89986420D01*
X155785359Y-90150280D01*
X155785360Y-90150281D01*
X155785361Y-90150282D01*
X155924718Y-90289639D01*
X155924719Y-90289639D01*
X155931786Y-90296706D01*
X155931785Y-90296706D01*
X155931789Y-90296709D01*
X160013181Y-94378102D01*
X160046666Y-94439425D01*
X160049500Y-94465783D01*
X160049500Y-95147870D01*
X160049501Y-95147876D01*
X160055908Y-95207483D01*
X160106202Y-95342328D01*
X160106206Y-95342335D01*
X160192452Y-95457544D01*
X160192455Y-95457547D01*
X160307664Y-95543793D01*
X160307671Y-95543797D01*
X160442517Y-95594091D01*
X160442516Y-95594091D01*
X160449444Y-95594835D01*
X160502127Y-95600500D01*
X162197872Y-95600499D01*
X162257483Y-95594091D01*
X162392331Y-95543796D01*
X162507546Y-95457546D01*
X162593796Y-95342331D01*
X162644091Y-95207483D01*
X162650500Y-95147873D01*
X162650499Y-94299997D01*
X163545034Y-94299997D01*
X163545034Y-94300002D01*
X163564858Y-94526599D01*
X163564860Y-94526610D01*
X163623730Y-94746317D01*
X163623735Y-94746331D01*
X163719863Y-94952478D01*
X163770974Y-95025472D01*
X164450000Y-94346446D01*
X164450000Y-94352661D01*
X164477259Y-94454394D01*
X164529920Y-94545606D01*
X164604394Y-94620080D01*
X164695606Y-94672741D01*
X164797339Y-94700000D01*
X164803553Y-94700000D01*
X164124526Y-95379025D01*
X164197513Y-95430132D01*
X164197521Y-95430136D01*
X164403668Y-95526264D01*
X164403682Y-95526269D01*
X164623389Y-95585139D01*
X164623400Y-95585141D01*
X164849998Y-95604966D01*
X164850002Y-95604966D01*
X165076599Y-95585141D01*
X165076610Y-95585139D01*
X165296317Y-95526269D01*
X165296331Y-95526264D01*
X165502478Y-95430136D01*
X165575471Y-95379024D01*
X164896447Y-94700000D01*
X164902661Y-94700000D01*
X165004394Y-94672741D01*
X165095606Y-94620080D01*
X165170080Y-94545606D01*
X165222741Y-94454394D01*
X165250000Y-94352661D01*
X165250000Y-94346447D01*
X165929024Y-95025471D01*
X165980136Y-94952478D01*
X166076264Y-94746331D01*
X166076269Y-94746317D01*
X166135139Y-94526610D01*
X166135141Y-94526599D01*
X166154966Y-94300002D01*
X166154966Y-94299997D01*
X166135141Y-94073400D01*
X166135139Y-94073389D01*
X166076269Y-93853682D01*
X166076264Y-93853668D01*
X165980136Y-93647521D01*
X165980132Y-93647513D01*
X165929025Y-93574526D01*
X165250000Y-94253551D01*
X165250000Y-94247339D01*
X165222741Y-94145606D01*
X165170080Y-94054394D01*
X165095606Y-93979920D01*
X165004394Y-93927259D01*
X164902661Y-93900000D01*
X164896448Y-93900000D01*
X165575472Y-93220974D01*
X165502478Y-93169863D01*
X165296331Y-93073735D01*
X165296317Y-93073730D01*
X165076610Y-93014860D01*
X165076599Y-93014858D01*
X164850002Y-92995034D01*
X164849998Y-92995034D01*
X164623400Y-93014858D01*
X164623389Y-93014860D01*
X164403682Y-93073730D01*
X164403673Y-93073734D01*
X164197516Y-93169866D01*
X164197512Y-93169868D01*
X164124526Y-93220973D01*
X164124526Y-93220974D01*
X164803553Y-93900000D01*
X164797339Y-93900000D01*
X164695606Y-93927259D01*
X164604394Y-93979920D01*
X164529920Y-94054394D01*
X164477259Y-94145606D01*
X164450000Y-94247339D01*
X164450000Y-94253552D01*
X163770974Y-93574526D01*
X163770973Y-93574526D01*
X163719868Y-93647512D01*
X163719866Y-93647516D01*
X163623734Y-93853673D01*
X163623730Y-93853682D01*
X163564860Y-94073389D01*
X163564858Y-94073400D01*
X163545034Y-94299997D01*
X162650499Y-94299997D01*
X162650499Y-93452128D01*
X162644091Y-93392517D01*
X162631094Y-93357671D01*
X162593797Y-93257671D01*
X162593793Y-93257664D01*
X162507547Y-93142455D01*
X162507544Y-93142452D01*
X162392335Y-93056206D01*
X162392328Y-93056202D01*
X162257482Y-93005908D01*
X162257483Y-93005908D01*
X162197883Y-92999501D01*
X162197881Y-92999500D01*
X162197873Y-92999500D01*
X162197865Y-92999500D01*
X161515783Y-92999500D01*
X161448744Y-92979815D01*
X161428102Y-92963181D01*
X157599319Y-89134398D01*
X157565834Y-89073075D01*
X157563000Y-89046717D01*
X157563000Y-88148023D01*
X157582685Y-88080984D01*
X157635489Y-88035229D01*
X157704647Y-88025285D01*
X157768203Y-88054310D01*
X157774681Y-88060342D01*
X157831654Y-88117315D01*
X157980875Y-88209356D01*
X157980880Y-88209358D01*
X158147302Y-88264505D01*
X158147309Y-88264506D01*
X158250019Y-88274999D01*
X158387499Y-88274999D01*
X158387500Y-88274998D01*
X158387500Y-86924000D01*
X158407185Y-86856961D01*
X158459989Y-86811206D01*
X158511500Y-86800000D01*
X158763500Y-86800000D01*
X158830539Y-86819685D01*
X158876294Y-86872489D01*
X158887500Y-86924000D01*
X158887500Y-88274999D01*
X159024972Y-88274999D01*
X159024986Y-88274998D01*
X159127697Y-88264505D01*
X159294119Y-88209358D01*
X159294124Y-88209356D01*
X159443344Y-88117316D01*
X159473839Y-88086820D01*
X159535162Y-88053334D01*
X159561513Y-88050499D01*
X161997872Y-88050499D01*
X162057483Y-88044091D01*
X162192331Y-87993796D01*
X162307546Y-87907546D01*
X162393796Y-87792331D01*
X162444091Y-87657483D01*
X162450500Y-87597873D01*
X162450499Y-82402128D01*
X162444091Y-82342517D01*
X162435575Y-82319685D01*
X162393797Y-82207671D01*
X162393793Y-82207664D01*
X162307547Y-82092455D01*
X162307544Y-82092452D01*
X162192335Y-82006206D01*
X162192328Y-82006202D01*
X162057482Y-81955908D01*
X162057483Y-81955908D01*
X161997883Y-81949501D01*
X161997881Y-81949500D01*
X161997873Y-81949500D01*
X161997865Y-81949500D01*
X161430858Y-81949500D01*
X161363819Y-81929815D01*
X161343177Y-81913181D01*
X160654982Y-81224986D01*
X162075001Y-81224986D01*
X162085494Y-81327697D01*
X162140641Y-81494119D01*
X162140643Y-81494124D01*
X162232684Y-81643345D01*
X162356654Y-81767315D01*
X162505875Y-81859356D01*
X162505880Y-81859358D01*
X162672302Y-81914505D01*
X162672309Y-81914506D01*
X162775019Y-81924999D01*
X162912499Y-81924999D01*
X162912500Y-81924998D01*
X162912500Y-80950000D01*
X162075001Y-80950000D01*
X162075001Y-81224986D01*
X160654982Y-81224986D01*
X160352258Y-80922262D01*
X160318773Y-80860939D01*
X160323757Y-80791247D01*
X160347790Y-80751608D01*
X160349238Y-80750000D01*
X160391859Y-80702665D01*
X160481250Y-80547835D01*
X160536497Y-80377803D01*
X160555185Y-80200000D01*
X160552559Y-80175013D01*
X162075000Y-80175013D01*
X162075000Y-80450000D01*
X162912500Y-80450000D01*
X162912500Y-78650000D01*
X162075001Y-78650000D01*
X162075001Y-78924986D01*
X162085494Y-79027697D01*
X162140641Y-79194119D01*
X162140643Y-79194124D01*
X162232684Y-79343345D01*
X162351658Y-79462319D01*
X162385143Y-79523642D01*
X162380159Y-79593334D01*
X162351658Y-79637681D01*
X162232684Y-79756654D01*
X162140643Y-79905875D01*
X162140641Y-79905880D01*
X162085494Y-80072302D01*
X162085493Y-80072309D01*
X162075000Y-80175013D01*
X160552559Y-80175013D01*
X160536497Y-80022197D01*
X160494873Y-79894091D01*
X160481252Y-79852170D01*
X160481249Y-79852164D01*
X160461295Y-79817602D01*
X160391859Y-79697335D01*
X160333905Y-79632971D01*
X160303676Y-79569981D01*
X160312301Y-79500646D01*
X160333906Y-79467028D01*
X160338146Y-79462319D01*
X160391859Y-79402665D01*
X160481250Y-79247835D01*
X160536497Y-79077803D01*
X160555185Y-78900000D01*
X160536497Y-78722197D01*
X160492989Y-78588294D01*
X160481252Y-78552170D01*
X160481249Y-78552164D01*
X160462050Y-78518911D01*
X160391859Y-78397335D01*
X160347788Y-78348389D01*
X160317559Y-78285399D01*
X160326183Y-78216064D01*
X160352254Y-78177740D01*
X160654981Y-77875013D01*
X162075000Y-77875013D01*
X162075000Y-78150000D01*
X162912500Y-78150000D01*
X162912500Y-77175000D01*
X162775027Y-77175000D01*
X162775012Y-77175001D01*
X162672302Y-77185494D01*
X162505880Y-77240641D01*
X162505875Y-77240643D01*
X162356654Y-77332684D01*
X162232684Y-77456654D01*
X162140643Y-77605875D01*
X162140641Y-77605880D01*
X162085494Y-77772302D01*
X162085493Y-77772309D01*
X162075000Y-77875013D01*
X160654981Y-77875013D01*
X161343177Y-77186818D01*
X161404500Y-77153333D01*
X161430858Y-77150499D01*
X161997871Y-77150499D01*
X161997872Y-77150499D01*
X162057483Y-77144091D01*
X162192331Y-77093796D01*
X162307546Y-77007546D01*
X162393796Y-76892331D01*
X162444091Y-76757483D01*
X162450500Y-76697873D01*
X162450499Y-73985258D01*
X163349500Y-73985258D01*
X163349500Y-74214741D01*
X163369653Y-74367809D01*
X163379452Y-74442238D01*
X163413491Y-74569273D01*
X163438842Y-74663887D01*
X163526650Y-74875876D01*
X163526657Y-74875891D01*
X163641385Y-75074607D01*
X163641389Y-75074612D01*
X163723876Y-75182112D01*
X163749070Y-75247280D01*
X163749500Y-75257597D01*
X163749500Y-76697870D01*
X163749501Y-76697876D01*
X163755908Y-76757483D01*
X163806202Y-76892328D01*
X163806206Y-76892335D01*
X163892452Y-77007544D01*
X163892453Y-77007545D01*
X163892454Y-77007546D01*
X163899343Y-77012703D01*
X163941215Y-77068636D01*
X163946199Y-77138328D01*
X163912714Y-77199651D01*
X163851391Y-77233136D01*
X163786030Y-77229676D01*
X163652700Y-77185495D01*
X163652690Y-77185493D01*
X163549986Y-77175000D01*
X163412500Y-77175000D01*
X163412500Y-81924999D01*
X163549972Y-81924999D01*
X163549986Y-81924998D01*
X163652695Y-81914506D01*
X163786028Y-81870323D01*
X163855857Y-81867921D01*
X163915899Y-81903652D01*
X163947092Y-81966173D01*
X163939532Y-82035632D01*
X163899348Y-82087293D01*
X163892452Y-82092455D01*
X163806206Y-82207664D01*
X163806202Y-82207671D01*
X163755908Y-82342517D01*
X163750800Y-82390032D01*
X163749501Y-82402123D01*
X163749500Y-82402135D01*
X163749500Y-83978113D01*
X163732887Y-84040113D01*
X163626657Y-84224108D01*
X163626650Y-84224123D01*
X163538842Y-84436112D01*
X163523620Y-84492922D01*
X163489552Y-84620070D01*
X163479453Y-84657759D01*
X163479451Y-84657770D01*
X163449500Y-84885258D01*
X163449500Y-85114741D01*
X163471156Y-85279222D01*
X163479452Y-85342238D01*
X163491298Y-85386447D01*
X163538842Y-85563887D01*
X163626650Y-85775876D01*
X163626657Y-85775891D01*
X163732887Y-85959886D01*
X163749500Y-86021886D01*
X163749500Y-87597870D01*
X163749501Y-87597876D01*
X163755908Y-87657483D01*
X163806202Y-87792328D01*
X163806206Y-87792335D01*
X163892452Y-87907544D01*
X163892455Y-87907547D01*
X164007664Y-87993793D01*
X164007671Y-87993797D01*
X164142517Y-88044091D01*
X164142516Y-88044091D01*
X164149444Y-88044835D01*
X164202127Y-88050500D01*
X166090432Y-88050499D01*
X166157471Y-88070184D01*
X166163316Y-88074180D01*
X166244748Y-88133343D01*
X166313567Y-88183343D01*
X166412991Y-88234002D01*
X166524003Y-88290566D01*
X166524005Y-88290566D01*
X166524008Y-88290568D01*
X166644412Y-88329689D01*
X166748631Y-88363553D01*
X166981903Y-88400500D01*
X166981908Y-88400500D01*
X169418097Y-88400500D01*
X169531184Y-88382588D01*
X169651368Y-88363553D01*
X169651373Y-88363551D01*
X169651375Y-88363551D01*
X169672861Y-88356570D01*
X169711181Y-88350500D01*
X171393097Y-88350500D01*
X171626368Y-88313553D01*
X171697114Y-88290566D01*
X171850992Y-88240568D01*
X172061433Y-88133343D01*
X172252510Y-87994517D01*
X172419517Y-87827510D01*
X172558343Y-87636433D01*
X172665568Y-87425992D01*
X172738553Y-87201368D01*
X172775500Y-86968097D01*
X172775500Y-86731902D01*
X172738553Y-86498631D01*
X172694955Y-86364451D01*
X172665568Y-86274008D01*
X172665566Y-86274005D01*
X172665566Y-86274003D01*
X172587267Y-86120334D01*
X172558343Y-86063567D01*
X172419517Y-85872490D01*
X172252510Y-85705483D01*
X172061433Y-85566657D01*
X172055997Y-85563887D01*
X171850996Y-85459433D01*
X171626368Y-85386446D01*
X171393097Y-85349500D01*
X171393092Y-85349500D01*
X170825443Y-85349500D01*
X170758404Y-85329815D01*
X170712649Y-85277011D01*
X170702705Y-85207853D01*
X170731730Y-85144297D01*
X170737762Y-85137819D01*
X171888762Y-83986819D01*
X171950085Y-83953334D01*
X171976443Y-83950500D01*
X179514727Y-83950500D01*
X179514734Y-83950500D01*
X179742238Y-83920548D01*
X179963887Y-83861158D01*
X180175888Y-83773344D01*
X180374612Y-83658611D01*
X180556661Y-83518919D01*
X180556665Y-83518914D01*
X180556670Y-83518911D01*
X180718911Y-83356670D01*
X180718914Y-83356665D01*
X180718919Y-83356661D01*
X180858611Y-83174612D01*
X180973344Y-82975888D01*
X181061158Y-82763887D01*
X181120548Y-82542238D01*
X181150500Y-82314734D01*
X181150500Y-82085266D01*
X181120548Y-81857762D01*
X181061158Y-81636113D01*
X180985016Y-81452291D01*
X180973349Y-81424123D01*
X180973346Y-81424117D01*
X180973344Y-81424112D01*
X180858611Y-81225388D01*
X180858608Y-81225385D01*
X180858607Y-81225382D01*
X180718918Y-81043338D01*
X180718911Y-81043330D01*
X180556670Y-80881089D01*
X180556661Y-80881081D01*
X180374617Y-80741392D01*
X180350418Y-80727421D01*
X180175888Y-80626656D01*
X180175876Y-80626650D01*
X179963887Y-80538842D01*
X179742238Y-80479452D01*
X179704215Y-80474446D01*
X179514741Y-80449500D01*
X179514734Y-80449500D01*
X171085266Y-80449500D01*
X171085258Y-80449500D01*
X170990397Y-80461989D01*
X170978539Y-80463551D01*
X170857766Y-80479450D01*
X170857761Y-80479451D01*
X170636112Y-80538842D01*
X170424118Y-80626653D01*
X170424108Y-80626657D01*
X170225394Y-80741385D01*
X170225377Y-80741396D01*
X170157274Y-80793655D01*
X170157273Y-80793656D01*
X170043340Y-80881078D01*
X170043333Y-80881084D01*
X167711238Y-83213181D01*
X167649915Y-83246666D01*
X167623557Y-83249500D01*
X167224499Y-83249500D01*
X167157460Y-83229815D01*
X167111705Y-83177011D01*
X167100499Y-83125500D01*
X167100499Y-82402129D01*
X167100498Y-82402123D01*
X167100497Y-82402116D01*
X167094091Y-82342517D01*
X167085575Y-82319685D01*
X167043797Y-82207671D01*
X167043793Y-82207664D01*
X166957547Y-82092455D01*
X166957544Y-82092452D01*
X166842335Y-82006206D01*
X166842328Y-82006202D01*
X166707482Y-81955908D01*
X166707483Y-81955908D01*
X166647883Y-81949501D01*
X166647881Y-81949500D01*
X166647873Y-81949500D01*
X166647865Y-81949500D01*
X166362000Y-81949500D01*
X166294961Y-81929815D01*
X166249206Y-81877011D01*
X166238000Y-81825500D01*
X166238000Y-81564866D01*
X166256462Y-81499768D01*
X166259814Y-81494334D01*
X166314999Y-81327797D01*
X166325500Y-81225009D01*
X166325499Y-80174992D01*
X166323729Y-80157669D01*
X166314999Y-80072203D01*
X166314998Y-80072200D01*
X166312735Y-80065370D01*
X166259814Y-79905666D01*
X166167712Y-79756344D01*
X166049049Y-79637681D01*
X166015564Y-79576358D01*
X166020548Y-79506666D01*
X166049049Y-79462319D01*
X166098790Y-79412578D01*
X166167712Y-79343656D01*
X166259814Y-79194334D01*
X166314999Y-79027797D01*
X166325500Y-78925009D01*
X166325499Y-77874992D01*
X166325313Y-77873175D01*
X166314999Y-77772203D01*
X166314998Y-77772200D01*
X166307642Y-77750000D01*
X166259814Y-77605666D01*
X166256458Y-77600225D01*
X166238000Y-77535134D01*
X166238000Y-77274499D01*
X166257685Y-77207460D01*
X166310489Y-77161705D01*
X166362000Y-77150499D01*
X166647871Y-77150499D01*
X166647872Y-77150499D01*
X166707483Y-77144091D01*
X166842331Y-77093796D01*
X166957546Y-77007546D01*
X167043796Y-76892331D01*
X167094091Y-76757483D01*
X167100500Y-76697873D01*
X167100500Y-75974500D01*
X167120185Y-75907461D01*
X167172989Y-75861706D01*
X167224500Y-75850500D01*
X167323557Y-75850500D01*
X167390596Y-75870185D01*
X167411238Y-75886819D01*
X170043333Y-78518915D01*
X170043337Y-78518918D01*
X170043339Y-78518920D01*
X170129790Y-78585255D01*
X170129791Y-78585257D01*
X170225386Y-78658610D01*
X170225388Y-78658611D01*
X170335523Y-78722197D01*
X170424112Y-78773344D01*
X170424115Y-78773345D01*
X170424120Y-78773348D01*
X170488467Y-78800001D01*
X170636113Y-78861158D01*
X170857761Y-78920548D01*
X170884223Y-78924031D01*
X170884227Y-78924033D01*
X170884228Y-78924032D01*
X171085266Y-78950500D01*
X171085273Y-78950500D01*
X179514727Y-78950500D01*
X179514734Y-78950500D01*
X179742238Y-78920548D01*
X179963887Y-78861158D01*
X180175888Y-78773344D01*
X180374612Y-78658611D01*
X180556661Y-78518919D01*
X180556665Y-78518914D01*
X180556670Y-78518911D01*
X180718911Y-78356670D01*
X180718914Y-78356665D01*
X180718919Y-78356661D01*
X180858611Y-78174612D01*
X180973344Y-77975888D01*
X181061158Y-77763887D01*
X181120548Y-77542238D01*
X181150500Y-77314734D01*
X181150500Y-77085266D01*
X181120548Y-76857762D01*
X181061158Y-76636113D01*
X181011190Y-76515480D01*
X180973349Y-76424123D01*
X180973346Y-76424117D01*
X180973344Y-76424112D01*
X180858611Y-76225388D01*
X180858608Y-76225385D01*
X180858607Y-76225382D01*
X180718918Y-76043338D01*
X180718911Y-76043330D01*
X180556670Y-75881089D01*
X180556661Y-75881081D01*
X180374617Y-75741392D01*
X180334672Y-75718330D01*
X180175888Y-75626656D01*
X180175876Y-75626650D01*
X179963887Y-75538842D01*
X179742238Y-75479452D01*
X179704215Y-75474446D01*
X179514741Y-75449500D01*
X179514734Y-75449500D01*
X171976443Y-75449500D01*
X171909404Y-75429815D01*
X171888762Y-75413181D01*
X170187762Y-73712181D01*
X170154277Y-73650858D01*
X170159261Y-73581166D01*
X170201133Y-73525233D01*
X170266597Y-73500816D01*
X170275443Y-73500500D01*
X171418097Y-73500500D01*
X171651368Y-73463553D01*
X171875992Y-73390568D01*
X172086433Y-73283343D01*
X172277510Y-73144517D01*
X172444517Y-72977510D01*
X172583343Y-72786433D01*
X172690568Y-72575992D01*
X172763553Y-72351368D01*
X172774807Y-72280315D01*
X172800500Y-72118097D01*
X172800500Y-71881902D01*
X172763553Y-71648631D01*
X172696582Y-71442517D01*
X172690568Y-71424008D01*
X172690566Y-71424005D01*
X172690566Y-71424003D01*
X172604794Y-71255667D01*
X172583343Y-71213567D01*
X172444517Y-71022490D01*
X172277510Y-70855483D01*
X172086433Y-70716657D01*
X171875996Y-70609433D01*
X171651368Y-70536446D01*
X171418097Y-70499500D01*
X171418092Y-70499500D01*
X169418092Y-70499500D01*
X167081908Y-70499500D01*
X167081903Y-70499500D01*
X166848630Y-70536447D01*
X166696993Y-70585716D01*
X166696992Y-70585717D01*
X166624007Y-70609432D01*
X166624001Y-70609434D01*
X166413565Y-70716657D01*
X166250002Y-70835494D01*
X166222490Y-70855483D01*
X166064789Y-71013182D01*
X166003468Y-71046666D01*
X165977110Y-71049500D01*
X164202129Y-71049500D01*
X164202123Y-71049501D01*
X164142516Y-71055908D01*
X164007671Y-71106202D01*
X164007664Y-71106206D01*
X163892455Y-71192452D01*
X163892452Y-71192455D01*
X163806206Y-71307664D01*
X163806202Y-71307671D01*
X163755908Y-71442517D01*
X163749501Y-71502116D01*
X163749501Y-71502123D01*
X163749500Y-71502135D01*
X163749500Y-72942402D01*
X163729815Y-73009441D01*
X163723876Y-73017888D01*
X163641388Y-73125388D01*
X163526657Y-73324108D01*
X163526650Y-73324123D01*
X163438842Y-73536112D01*
X163404554Y-73664076D01*
X163381000Y-73751987D01*
X163379453Y-73757759D01*
X163379451Y-73757770D01*
X163349500Y-73985258D01*
X162450499Y-73985258D01*
X162450499Y-71502128D01*
X162444091Y-71442517D01*
X162436514Y-71422203D01*
X162393797Y-71307671D01*
X162393793Y-71307664D01*
X162307547Y-71192455D01*
X162307544Y-71192452D01*
X162192335Y-71106206D01*
X162192328Y-71106202D01*
X162057482Y-71055908D01*
X162057483Y-71055908D01*
X161997883Y-71049501D01*
X161997881Y-71049500D01*
X161997873Y-71049500D01*
X161997865Y-71049500D01*
X159561523Y-71049500D01*
X159494484Y-71029815D01*
X159473842Y-71013181D01*
X159443345Y-70982684D01*
X159294124Y-70890643D01*
X159294119Y-70890641D01*
X159127697Y-70835494D01*
X159127690Y-70835493D01*
X159024986Y-70825000D01*
X158887500Y-70825000D01*
X158887500Y-72176000D01*
X158867815Y-72243039D01*
X158815011Y-72288794D01*
X158763500Y-72300000D01*
X158511500Y-72300000D01*
X158444461Y-72280315D01*
X158398706Y-72227511D01*
X158387500Y-72176000D01*
X158387500Y-70825000D01*
X158250027Y-70825000D01*
X158250012Y-70825001D01*
X158147302Y-70835494D01*
X157980880Y-70890641D01*
X157980875Y-70890643D01*
X157831654Y-70982684D01*
X157774681Y-71039658D01*
X157713358Y-71073143D01*
X157643666Y-71068159D01*
X157587733Y-71026287D01*
X157563316Y-70960823D01*
X157563000Y-70951977D01*
X157563000Y-70803282D01*
X157582685Y-70736243D01*
X157599319Y-70715601D01*
X161078102Y-67236818D01*
X161139425Y-67203333D01*
X161165783Y-67200499D01*
X162197871Y-67200499D01*
X162197872Y-67200499D01*
X162257483Y-67194091D01*
X162392331Y-67143796D01*
X162507546Y-67057546D01*
X162593796Y-66942331D01*
X162644091Y-66807483D01*
X162650500Y-66747873D01*
X162650499Y-65899997D01*
X163545034Y-65899997D01*
X163545034Y-65900002D01*
X163564858Y-66126599D01*
X163564860Y-66126610D01*
X163623730Y-66346317D01*
X163623735Y-66346331D01*
X163719863Y-66552478D01*
X163770974Y-66625472D01*
X164450000Y-65946446D01*
X164450000Y-65952661D01*
X164477259Y-66054394D01*
X164529920Y-66145606D01*
X164604394Y-66220080D01*
X164695606Y-66272741D01*
X164797339Y-66300000D01*
X164803553Y-66300000D01*
X164124526Y-66979025D01*
X164197513Y-67030132D01*
X164197521Y-67030136D01*
X164403668Y-67126264D01*
X164403682Y-67126269D01*
X164623389Y-67185139D01*
X164623400Y-67185141D01*
X164849998Y-67204966D01*
X164850002Y-67204966D01*
X165076599Y-67185141D01*
X165076610Y-67185139D01*
X165296317Y-67126269D01*
X165296331Y-67126264D01*
X165502478Y-67030136D01*
X165575471Y-66979024D01*
X164896447Y-66300000D01*
X164902661Y-66300000D01*
X165004394Y-66272741D01*
X165095606Y-66220080D01*
X165170080Y-66145606D01*
X165222741Y-66054394D01*
X165250000Y-65952661D01*
X165250000Y-65946447D01*
X165929024Y-66625471D01*
X165980136Y-66552478D01*
X166076264Y-66346331D01*
X166076269Y-66346317D01*
X166135139Y-66126610D01*
X166135141Y-66126599D01*
X166154966Y-65900002D01*
X166154966Y-65899997D01*
X166135141Y-65673400D01*
X166135139Y-65673389D01*
X166076269Y-65453682D01*
X166076264Y-65453668D01*
X165980136Y-65247521D01*
X165980132Y-65247513D01*
X165929025Y-65174526D01*
X165250000Y-65853551D01*
X165250000Y-65847339D01*
X165222741Y-65745606D01*
X165170080Y-65654394D01*
X165095606Y-65579920D01*
X165004394Y-65527259D01*
X164902661Y-65500000D01*
X164896448Y-65500000D01*
X165575472Y-64820974D01*
X165502478Y-64769863D01*
X165296331Y-64673735D01*
X165296317Y-64673730D01*
X165076610Y-64614860D01*
X165076599Y-64614858D01*
X164850002Y-64595034D01*
X164849998Y-64595034D01*
X164623400Y-64614858D01*
X164623389Y-64614860D01*
X164403682Y-64673730D01*
X164403673Y-64673734D01*
X164197516Y-64769866D01*
X164197512Y-64769868D01*
X164124526Y-64820973D01*
X164124526Y-64820974D01*
X164803553Y-65500000D01*
X164797339Y-65500000D01*
X164695606Y-65527259D01*
X164604394Y-65579920D01*
X164529920Y-65654394D01*
X164477259Y-65745606D01*
X164450000Y-65847339D01*
X164450000Y-65853552D01*
X163770974Y-65174526D01*
X163770973Y-65174526D01*
X163719868Y-65247512D01*
X163719866Y-65247516D01*
X163623734Y-65453673D01*
X163623730Y-65453682D01*
X163564860Y-65673389D01*
X163564858Y-65673400D01*
X163545034Y-65899997D01*
X162650499Y-65899997D01*
X162650499Y-65052128D01*
X162644091Y-64992517D01*
X162593796Y-64857669D01*
X162593795Y-64857668D01*
X162593793Y-64857664D01*
X162507547Y-64742455D01*
X162507544Y-64742452D01*
X162392335Y-64656206D01*
X162392328Y-64656202D01*
X162257482Y-64605908D01*
X162257483Y-64605908D01*
X162197883Y-64599501D01*
X162197881Y-64599500D01*
X162197873Y-64599500D01*
X162197864Y-64599500D01*
X160502129Y-64599500D01*
X160502123Y-64599501D01*
X160442516Y-64605908D01*
X160307671Y-64656202D01*
X160307664Y-64656206D01*
X160192455Y-64742452D01*
X160192452Y-64742455D01*
X160106206Y-64857664D01*
X160106202Y-64857671D01*
X160055908Y-64992517D01*
X160049501Y-65052116D01*
X160049501Y-65052123D01*
X160049500Y-65052135D01*
X160049500Y-65384216D01*
X160029815Y-65451255D01*
X160013180Y-65471897D01*
X155924720Y-69560359D01*
X155924718Y-69560361D01*
X155877597Y-69607482D01*
X155785359Y-69699719D01*
X155675871Y-69863579D01*
X155675864Y-69863592D01*
X155600450Y-70045660D01*
X155600447Y-70045670D01*
X155562000Y-70238956D01*
X155562000Y-71185134D01*
X155543541Y-71250225D01*
X155541188Y-71254039D01*
X155540185Y-71255667D01*
X155522954Y-71307669D01*
X155485001Y-71422203D01*
X155485001Y-71422204D01*
X155485000Y-71422204D01*
X155474500Y-71524983D01*
X155474500Y-71694142D01*
X155454815Y-71761181D01*
X155438181Y-71781823D01*
X155212221Y-72007783D01*
X155212218Y-72007786D01*
X155142538Y-72077465D01*
X155072859Y-72147144D01*
X154963371Y-72311004D01*
X154963364Y-72311017D01*
X154887950Y-72493085D01*
X154887947Y-72493095D01*
X154849500Y-72686381D01*
X154849500Y-72686384D01*
X154849500Y-73898541D01*
X154849500Y-73898543D01*
X154849499Y-73898543D01*
X154884960Y-74076808D01*
X154878733Y-74146400D01*
X154835870Y-74201577D01*
X154769981Y-74224822D01*
X154763343Y-74225000D01*
X153300000Y-74225000D01*
X153300000Y-74971447D01*
X153462319Y-74809128D01*
X153523642Y-74775643D01*
X153593333Y-74780627D01*
X153637681Y-74809128D01*
X154515430Y-75686877D01*
X154548915Y-75748200D01*
X154551039Y-75787807D01*
X154549500Y-75802120D01*
X154549500Y-76197870D01*
X154549501Y-76197876D01*
X154555909Y-76257484D01*
X154564929Y-76281670D01*
X154569911Y-76351361D01*
X154564929Y-76368330D01*
X154555909Y-76392515D01*
X154555908Y-76392516D01*
X154551590Y-76432684D01*
X154549501Y-76452123D01*
X154549500Y-76452135D01*
X154549500Y-76527689D01*
X154529815Y-76594728D01*
X154513182Y-76615370D01*
X154403553Y-76725000D01*
X154521689Y-76843135D01*
X154554685Y-76902304D01*
X154555908Y-76907484D01*
X154564929Y-76931670D01*
X154569911Y-77001361D01*
X154564929Y-77018330D01*
X154555910Y-77042512D01*
X154555909Y-77042515D01*
X154555909Y-77042517D01*
X154549500Y-77102127D01*
X154549500Y-77102134D01*
X154549500Y-77102135D01*
X154549500Y-77497870D01*
X154549501Y-77497876D01*
X154555908Y-77557483D01*
X154572927Y-77603112D01*
X154577911Y-77672803D01*
X154544427Y-77734125D01*
X154403553Y-77875000D01*
X154586487Y-78057934D01*
X154619972Y-78119257D01*
X154614988Y-78188948D01*
X154607637Y-78205043D01*
X154606204Y-78207665D01*
X154555910Y-78342513D01*
X154555909Y-78342517D01*
X154549500Y-78402127D01*
X154549500Y-78402134D01*
X154549500Y-78402135D01*
X154549500Y-78797870D01*
X154549501Y-78797886D01*
X154551039Y-78812190D01*
X154538630Y-78880949D01*
X154515431Y-78913119D01*
X154403552Y-79024999D01*
X154513181Y-79134627D01*
X154546666Y-79195950D01*
X154549500Y-79222308D01*
X154549500Y-79447869D01*
X154549501Y-79447876D01*
X154555909Y-79507484D01*
X154564929Y-79531670D01*
X154569911Y-79601361D01*
X154564929Y-79618330D01*
X154555909Y-79642515D01*
X154555908Y-79642516D01*
X154549501Y-79702116D01*
X154549500Y-79702135D01*
X154549500Y-79977689D01*
X154529815Y-80044728D01*
X154513182Y-80065370D01*
X154403553Y-80175000D01*
X154513181Y-80284627D01*
X154546666Y-80345950D01*
X154549500Y-80372309D01*
X154549500Y-80747869D01*
X154549501Y-80747876D01*
X154555908Y-80807483D01*
X154606202Y-80942328D01*
X154606206Y-80942335D01*
X154618880Y-80959265D01*
X154643298Y-81024729D01*
X154628447Y-81093002D01*
X154607295Y-81121257D01*
X154403553Y-81324999D01*
X154530843Y-81452289D01*
X154564328Y-81513613D01*
X154559346Y-81583298D01*
X154555910Y-81592510D01*
X154555910Y-81592513D01*
X154555909Y-81592517D01*
X154549500Y-81652127D01*
X154549500Y-81652134D01*
X154549500Y-81652135D01*
X154549500Y-82047870D01*
X154549501Y-82047876D01*
X154555909Y-82107484D01*
X154564929Y-82131670D01*
X154569911Y-82201361D01*
X154564929Y-82218330D01*
X154555909Y-82242515D01*
X154550932Y-82288802D01*
X154524193Y-82353353D01*
X154515325Y-82363225D01*
X154403553Y-82474999D01*
X154513181Y-82584627D01*
X154546666Y-82645950D01*
X154549500Y-82672305D01*
X154549500Y-82697867D01*
X154549501Y-82697877D01*
X154555909Y-82757484D01*
X154564929Y-82781670D01*
X154569911Y-82851361D01*
X154564929Y-82868330D01*
X154555910Y-82892512D01*
X154555909Y-82892515D01*
X154555909Y-82892517D01*
X154549500Y-82952127D01*
X154549500Y-82952134D01*
X154549500Y-82952135D01*
X154549500Y-83347870D01*
X154549501Y-83347879D01*
X154555892Y-83407335D01*
X154543484Y-83476095D01*
X154520283Y-83508268D01*
X154050000Y-83978553D01*
X153637681Y-84390871D01*
X153576358Y-84424356D01*
X153506666Y-84419372D01*
X153462319Y-84390871D01*
X153300000Y-84228552D01*
X153300000Y-84925000D01*
X154714667Y-84925000D01*
X154781706Y-84944685D01*
X154827461Y-84997489D01*
X154837405Y-85066647D01*
X154836284Y-85073191D01*
X154805997Y-85225451D01*
X154805997Y-86392541D01*
X154833879Y-86532712D01*
X154827652Y-86602303D01*
X154784789Y-86657481D01*
X154718899Y-86680725D01*
X154650902Y-86664657D01*
X154624581Y-86644584D01*
X154574723Y-86594726D01*
X154574719Y-86594723D01*
X154468177Y-86523535D01*
X154349794Y-86474499D01*
X154349788Y-86474497D01*
X154224121Y-86449500D01*
X154224119Y-86449500D01*
X149041450Y-86449500D01*
X148974411Y-86429815D01*
X148928656Y-86377011D01*
X148918712Y-86307853D01*
X148947737Y-86244297D01*
X148953769Y-86237819D01*
X149009012Y-86182576D01*
X149071253Y-86120335D01*
X149154233Y-85983069D01*
X149201952Y-85829933D01*
X149204080Y-85806511D01*
X149229747Y-85741534D01*
X149239881Y-85730063D01*
X150483127Y-84486818D01*
X150544450Y-84453333D01*
X150570808Y-84450499D01*
X150739768Y-84450499D01*
X150806807Y-84470184D01*
X150852562Y-84522988D01*
X150855950Y-84531166D01*
X150906645Y-84667086D01*
X150906649Y-84667093D01*
X150992809Y-84782187D01*
X150992812Y-84782190D01*
X151107906Y-84868350D01*
X151107913Y-84868354D01*
X151242620Y-84918596D01*
X151242627Y-84918598D01*
X151302155Y-84924999D01*
X151302172Y-84925000D01*
X152800000Y-84925000D01*
X152800000Y-84228553D01*
X152799998Y-84228552D01*
X152637680Y-84390871D01*
X152576357Y-84424356D01*
X152506665Y-84419372D01*
X152462318Y-84390871D01*
X151666610Y-83595163D01*
X151900000Y-83595163D01*
X151900000Y-83654837D01*
X151922836Y-83709968D01*
X151965032Y-83752164D01*
X152020163Y-83775000D01*
X152079837Y-83775000D01*
X152134968Y-83752164D01*
X152177164Y-83709968D01*
X152200000Y-83654837D01*
X152200000Y-83625000D01*
X152403553Y-83625000D01*
X152550000Y-83771447D01*
X152696447Y-83625000D01*
X152666610Y-83595163D01*
X152900000Y-83595163D01*
X152900000Y-83654837D01*
X152922836Y-83709968D01*
X152965032Y-83752164D01*
X153020163Y-83775000D01*
X153079837Y-83775000D01*
X153134968Y-83752164D01*
X153177164Y-83709968D01*
X153200000Y-83654837D01*
X153200000Y-83625000D01*
X153403553Y-83625000D01*
X153550000Y-83771447D01*
X153696447Y-83625000D01*
X153666610Y-83595163D01*
X153900000Y-83595163D01*
X153900000Y-83654837D01*
X153922836Y-83709968D01*
X153965032Y-83752164D01*
X154020163Y-83775000D01*
X154079837Y-83775000D01*
X154134968Y-83752164D01*
X154177164Y-83709968D01*
X154200000Y-83654837D01*
X154200000Y-83595163D01*
X154177164Y-83540032D01*
X154134968Y-83497836D01*
X154079837Y-83475000D01*
X154020163Y-83475000D01*
X153965032Y-83497836D01*
X153922836Y-83540032D01*
X153900000Y-83595163D01*
X153666610Y-83595163D01*
X153550000Y-83478553D01*
X153403553Y-83625000D01*
X153200000Y-83625000D01*
X153200000Y-83595163D01*
X153177164Y-83540032D01*
X153134968Y-83497836D01*
X153079837Y-83475000D01*
X153020163Y-83475000D01*
X152965032Y-83497836D01*
X152922836Y-83540032D01*
X152900000Y-83595163D01*
X152666610Y-83595163D01*
X152550000Y-83478553D01*
X152403553Y-83625000D01*
X152200000Y-83625000D01*
X152200000Y-83595163D01*
X152177164Y-83540032D01*
X152134968Y-83497836D01*
X152079837Y-83475000D01*
X152020163Y-83475000D01*
X151965032Y-83497836D01*
X151922836Y-83540032D01*
X151900000Y-83595163D01*
X151666610Y-83595163D01*
X151521603Y-83450156D01*
X151498976Y-83414946D01*
X151498047Y-83415454D01*
X151493793Y-83407664D01*
X151407547Y-83292456D01*
X151407548Y-83292456D01*
X151407546Y-83292454D01*
X151349854Y-83249265D01*
X151307984Y-83193333D01*
X151303000Y-83123641D01*
X151336485Y-83062318D01*
X151349850Y-83050736D01*
X151350833Y-83050000D01*
X151828553Y-83050000D01*
X152050000Y-83271447D01*
X152271447Y-83050000D01*
X153828553Y-83050000D01*
X154050000Y-83271447D01*
X154271447Y-83050000D01*
X154050000Y-82828553D01*
X153828553Y-83050000D01*
X152271447Y-83050000D01*
X152050000Y-82828553D01*
X151828553Y-83050000D01*
X151350833Y-83050000D01*
X151407546Y-83007546D01*
X151493796Y-82892331D01*
X151544091Y-82757483D01*
X151550500Y-82697873D01*
X151550499Y-82672309D01*
X151570181Y-82605273D01*
X151586818Y-82584627D01*
X151696446Y-82474999D01*
X151666610Y-82445163D01*
X151900000Y-82445163D01*
X151900000Y-82504837D01*
X151922836Y-82559968D01*
X151965032Y-82602164D01*
X152020163Y-82625000D01*
X152079837Y-82625000D01*
X152134968Y-82602164D01*
X152177164Y-82559968D01*
X152200000Y-82504837D01*
X152200000Y-82475000D01*
X152403553Y-82475000D01*
X152550000Y-82621447D01*
X152696447Y-82475000D01*
X152666610Y-82445163D01*
X152900000Y-82445163D01*
X152900000Y-82504837D01*
X152922836Y-82559968D01*
X152965032Y-82602164D01*
X153020163Y-82625000D01*
X153079837Y-82625000D01*
X153134968Y-82602164D01*
X153177164Y-82559968D01*
X153200000Y-82504837D01*
X153200000Y-82475000D01*
X153403553Y-82475000D01*
X153550000Y-82621447D01*
X153696447Y-82475000D01*
X153666610Y-82445163D01*
X153900000Y-82445163D01*
X153900000Y-82504837D01*
X153922836Y-82559968D01*
X153965032Y-82602164D01*
X154020163Y-82625000D01*
X154079837Y-82625000D01*
X154134968Y-82602164D01*
X154177164Y-82559968D01*
X154200000Y-82504837D01*
X154200000Y-82445163D01*
X154177164Y-82390032D01*
X154134968Y-82347836D01*
X154079837Y-82325000D01*
X154020163Y-82325000D01*
X153965032Y-82347836D01*
X153922836Y-82390032D01*
X153900000Y-82445163D01*
X153666610Y-82445163D01*
X153550000Y-82328553D01*
X153403553Y-82475000D01*
X153200000Y-82475000D01*
X153200000Y-82445163D01*
X153177164Y-82390032D01*
X153134968Y-82347836D01*
X153079837Y-82325000D01*
X153020163Y-82325000D01*
X152965032Y-82347836D01*
X152922836Y-82390032D01*
X152900000Y-82445163D01*
X152666610Y-82445163D01*
X152550000Y-82328553D01*
X152403553Y-82475000D01*
X152200000Y-82475000D01*
X152200000Y-82445163D01*
X152177164Y-82390032D01*
X152134968Y-82347836D01*
X152079837Y-82325000D01*
X152020163Y-82325000D01*
X151965032Y-82347836D01*
X151922836Y-82390032D01*
X151900000Y-82445163D01*
X151666610Y-82445163D01*
X151584675Y-82363228D01*
X151551190Y-82301905D01*
X151549066Y-82288799D01*
X151544091Y-82242518D01*
X151544090Y-82242515D01*
X151535070Y-82218333D01*
X151530085Y-82148644D01*
X151535066Y-82131677D01*
X151544091Y-82107483D01*
X151550500Y-82047873D01*
X151550500Y-81900000D01*
X151828553Y-81900000D01*
X152050000Y-82121447D01*
X152271447Y-81900000D01*
X153828553Y-81900000D01*
X154050000Y-82121447D01*
X154271447Y-81900000D01*
X154050000Y-81678553D01*
X153828553Y-81900000D01*
X152271447Y-81900000D01*
X152050000Y-81678553D01*
X151828553Y-81900000D01*
X151550500Y-81900000D01*
X151550499Y-81652128D01*
X151544091Y-81592517D01*
X151544090Y-81592513D01*
X151540656Y-81583306D01*
X151535670Y-81513615D01*
X151569154Y-81452291D01*
X151696446Y-81324999D01*
X151666610Y-81295163D01*
X151900000Y-81295163D01*
X151900000Y-81354837D01*
X151922836Y-81409968D01*
X151965032Y-81452164D01*
X152020163Y-81475000D01*
X152079837Y-81475000D01*
X152134968Y-81452164D01*
X152177164Y-81409968D01*
X152200000Y-81354837D01*
X152200000Y-81325000D01*
X152403553Y-81325000D01*
X152550000Y-81471447D01*
X152696447Y-81325000D01*
X152666610Y-81295163D01*
X152900000Y-81295163D01*
X152900000Y-81354837D01*
X152922836Y-81409968D01*
X152965032Y-81452164D01*
X153020163Y-81475000D01*
X153079837Y-81475000D01*
X153134968Y-81452164D01*
X153177164Y-81409968D01*
X153200000Y-81354837D01*
X153200000Y-81325000D01*
X153403553Y-81325000D01*
X153550000Y-81471447D01*
X153696447Y-81325000D01*
X153666610Y-81295163D01*
X153900000Y-81295163D01*
X153900000Y-81354837D01*
X153922836Y-81409968D01*
X153965032Y-81452164D01*
X154020163Y-81475000D01*
X154079837Y-81475000D01*
X154134968Y-81452164D01*
X154177164Y-81409968D01*
X154200000Y-81354837D01*
X154200000Y-81295163D01*
X154177164Y-81240032D01*
X154134968Y-81197836D01*
X154079837Y-81175000D01*
X154020163Y-81175000D01*
X153965032Y-81197836D01*
X153922836Y-81240032D01*
X153900000Y-81295163D01*
X153666610Y-81295163D01*
X153550000Y-81178553D01*
X153403553Y-81325000D01*
X153200000Y-81325000D01*
X153200000Y-81295163D01*
X153177164Y-81240032D01*
X153134968Y-81197836D01*
X153079837Y-81175000D01*
X153020163Y-81175000D01*
X152965032Y-81197836D01*
X152922836Y-81240032D01*
X152900000Y-81295163D01*
X152666610Y-81295163D01*
X152550000Y-81178553D01*
X152403553Y-81325000D01*
X152200000Y-81325000D01*
X152200000Y-81295163D01*
X152177164Y-81240032D01*
X152134968Y-81197836D01*
X152079837Y-81175000D01*
X152020163Y-81175000D01*
X151965032Y-81197836D01*
X151922836Y-81240032D01*
X151900000Y-81295163D01*
X151666610Y-81295163D01*
X151586818Y-81215371D01*
X151553333Y-81154048D01*
X151550499Y-81127690D01*
X151550499Y-81002129D01*
X151550498Y-81002123D01*
X151547990Y-80978795D01*
X151544091Y-80942517D01*
X151535070Y-80918333D01*
X151530085Y-80848644D01*
X151535066Y-80831677D01*
X151544091Y-80807483D01*
X151550271Y-80750000D01*
X151828553Y-80750000D01*
X152050000Y-80971447D01*
X152271447Y-80750000D01*
X153828553Y-80750000D01*
X154050000Y-80971447D01*
X154271447Y-80750000D01*
X154050000Y-80528553D01*
X153828553Y-80750000D01*
X152271447Y-80750000D01*
X152050000Y-80528553D01*
X151828553Y-80750000D01*
X151550271Y-80750000D01*
X151550500Y-80747873D01*
X151550499Y-80372309D01*
X151570183Y-80305271D01*
X151586818Y-80284628D01*
X151696446Y-80174999D01*
X151666610Y-80145163D01*
X151900000Y-80145163D01*
X151900000Y-80204837D01*
X151922836Y-80259968D01*
X151965032Y-80302164D01*
X152020163Y-80325000D01*
X152079837Y-80325000D01*
X152134968Y-80302164D01*
X152177164Y-80259968D01*
X152200000Y-80204837D01*
X152200000Y-80175000D01*
X152403553Y-80175000D01*
X152550000Y-80321447D01*
X152696447Y-80175000D01*
X152666610Y-80145163D01*
X152900000Y-80145163D01*
X152900000Y-80204837D01*
X152922836Y-80259968D01*
X152965032Y-80302164D01*
X153020163Y-80325000D01*
X153079837Y-80325000D01*
X153134968Y-80302164D01*
X153177164Y-80259968D01*
X153200000Y-80204837D01*
X153200000Y-80175000D01*
X153403553Y-80175000D01*
X153550000Y-80321447D01*
X153696447Y-80175000D01*
X153666610Y-80145163D01*
X153900000Y-80145163D01*
X153900000Y-80204837D01*
X153922836Y-80259968D01*
X153965032Y-80302164D01*
X154020163Y-80325000D01*
X154079837Y-80325000D01*
X154134968Y-80302164D01*
X154177164Y-80259968D01*
X154200000Y-80204837D01*
X154200000Y-80145163D01*
X154177164Y-80090032D01*
X154134968Y-80047836D01*
X154079837Y-80025000D01*
X154020163Y-80025000D01*
X153965032Y-80047836D01*
X153922836Y-80090032D01*
X153900000Y-80145163D01*
X153666610Y-80145163D01*
X153550000Y-80028553D01*
X153403553Y-80175000D01*
X153200000Y-80175000D01*
X153200000Y-80145163D01*
X153177164Y-80090032D01*
X153134968Y-80047836D01*
X153079837Y-80025000D01*
X153020163Y-80025000D01*
X152965032Y-80047836D01*
X152922836Y-80090032D01*
X152900000Y-80145163D01*
X152666610Y-80145163D01*
X152550000Y-80028553D01*
X152403553Y-80175000D01*
X152200000Y-80175000D01*
X152200000Y-80145163D01*
X152177164Y-80090032D01*
X152134968Y-80047836D01*
X152079837Y-80025000D01*
X152020163Y-80025000D01*
X151965032Y-80047836D01*
X151922836Y-80090032D01*
X151900000Y-80145163D01*
X151666610Y-80145163D01*
X151428487Y-79907040D01*
X151395002Y-79845717D01*
X151399986Y-79776025D01*
X151416899Y-79745050D01*
X151493796Y-79642331D01*
X151509584Y-79600000D01*
X151828553Y-79600000D01*
X152050000Y-79821447D01*
X152271447Y-79600000D01*
X153828553Y-79600000D01*
X154050000Y-79821447D01*
X154271447Y-79600000D01*
X154050000Y-79378553D01*
X153828553Y-79600000D01*
X152271447Y-79600000D01*
X152050000Y-79378553D01*
X151828553Y-79600000D01*
X151509584Y-79600000D01*
X151544091Y-79507483D01*
X151550500Y-79447873D01*
X151550499Y-79222309D01*
X151570183Y-79155271D01*
X151586818Y-79134628D01*
X151696446Y-79024999D01*
X151666610Y-78995163D01*
X151900000Y-78995163D01*
X151900000Y-79054837D01*
X151922836Y-79109968D01*
X151965032Y-79152164D01*
X152020163Y-79175000D01*
X152079837Y-79175000D01*
X152134968Y-79152164D01*
X152177164Y-79109968D01*
X152200000Y-79054837D01*
X152200000Y-79025000D01*
X152403553Y-79025000D01*
X152550000Y-79171447D01*
X152696447Y-79025000D01*
X152666610Y-78995163D01*
X152900000Y-78995163D01*
X152900000Y-79054837D01*
X152922836Y-79109968D01*
X152965032Y-79152164D01*
X153020163Y-79175000D01*
X153079837Y-79175000D01*
X153134968Y-79152164D01*
X153177164Y-79109968D01*
X153200000Y-79054837D01*
X153200000Y-79025000D01*
X153403553Y-79025000D01*
X153550000Y-79171447D01*
X153696447Y-79025000D01*
X153666610Y-78995163D01*
X153900000Y-78995163D01*
X153900000Y-79054837D01*
X153922836Y-79109968D01*
X153965032Y-79152164D01*
X154020163Y-79175000D01*
X154079837Y-79175000D01*
X154134968Y-79152164D01*
X154177164Y-79109968D01*
X154200000Y-79054837D01*
X154200000Y-78995163D01*
X154177164Y-78940032D01*
X154134968Y-78897836D01*
X154079837Y-78875000D01*
X154020163Y-78875000D01*
X153965032Y-78897836D01*
X153922836Y-78940032D01*
X153900000Y-78995163D01*
X153666610Y-78995163D01*
X153550000Y-78878553D01*
X153403553Y-79025000D01*
X153200000Y-79025000D01*
X153200000Y-78995163D01*
X153177164Y-78940032D01*
X153134968Y-78897836D01*
X153079837Y-78875000D01*
X153020163Y-78875000D01*
X152965032Y-78897836D01*
X152922836Y-78940032D01*
X152900000Y-78995163D01*
X152666610Y-78995163D01*
X152550000Y-78878553D01*
X152403553Y-79025000D01*
X152200000Y-79025000D01*
X152200000Y-78995163D01*
X152177164Y-78940032D01*
X152134968Y-78897836D01*
X152079837Y-78875000D01*
X152020163Y-78875000D01*
X151965032Y-78897836D01*
X151922836Y-78940032D01*
X151900000Y-78995163D01*
X151666610Y-78995163D01*
X151419342Y-78747895D01*
X151400424Y-78737122D01*
X151303533Y-78664589D01*
X151261662Y-78608656D01*
X151256678Y-78538964D01*
X151263283Y-78517870D01*
X151291395Y-78450000D01*
X151828553Y-78450000D01*
X152050000Y-78671447D01*
X152271447Y-78450000D01*
X153828553Y-78450000D01*
X154050000Y-78671447D01*
X154271447Y-78450000D01*
X154050000Y-78228553D01*
X153828553Y-78450000D01*
X152271447Y-78450000D01*
X152050000Y-78228553D01*
X151828553Y-78450000D01*
X151291395Y-78450000D01*
X151291925Y-78448720D01*
X151260617Y-78391383D01*
X151265601Y-78321691D01*
X151294102Y-78277344D01*
X151696446Y-77874999D01*
X151666610Y-77845163D01*
X151900000Y-77845163D01*
X151900000Y-77904837D01*
X151922836Y-77959968D01*
X151965032Y-78002164D01*
X152020163Y-78025000D01*
X152079837Y-78025000D01*
X152134968Y-78002164D01*
X152177164Y-77959968D01*
X152200000Y-77904837D01*
X152200000Y-77875000D01*
X152403553Y-77875000D01*
X152550000Y-78021447D01*
X152696447Y-77875000D01*
X152666610Y-77845163D01*
X152900000Y-77845163D01*
X152900000Y-77904837D01*
X152922836Y-77959968D01*
X152965032Y-78002164D01*
X153020163Y-78025000D01*
X153079837Y-78025000D01*
X153134968Y-78002164D01*
X153177164Y-77959968D01*
X153200000Y-77904837D01*
X153200000Y-77875000D01*
X153403553Y-77875000D01*
X153550000Y-78021447D01*
X153696447Y-77875000D01*
X153666610Y-77845163D01*
X153900000Y-77845163D01*
X153900000Y-77904837D01*
X153922836Y-77959968D01*
X153965032Y-78002164D01*
X154020163Y-78025000D01*
X154079837Y-78025000D01*
X154134968Y-78002164D01*
X154177164Y-77959968D01*
X154200000Y-77904837D01*
X154200000Y-77845163D01*
X154177164Y-77790032D01*
X154134968Y-77747836D01*
X154079837Y-77725000D01*
X154020163Y-77725000D01*
X153965032Y-77747836D01*
X153922836Y-77790032D01*
X153900000Y-77845163D01*
X153666610Y-77845163D01*
X153550000Y-77728553D01*
X153403553Y-77875000D01*
X153200000Y-77875000D01*
X153200000Y-77845163D01*
X153177164Y-77790032D01*
X153134968Y-77747836D01*
X153079837Y-77725000D01*
X153020163Y-77725000D01*
X152965032Y-77747836D01*
X152922836Y-77790032D01*
X152900000Y-77845163D01*
X152666610Y-77845163D01*
X152550000Y-77728553D01*
X152403553Y-77875000D01*
X152200000Y-77875000D01*
X152200000Y-77845163D01*
X152177164Y-77790032D01*
X152134968Y-77747836D01*
X152079837Y-77725000D01*
X152020163Y-77725000D01*
X151965032Y-77747836D01*
X151922836Y-77790032D01*
X151900000Y-77845163D01*
X151666610Y-77845163D01*
X151555573Y-77734126D01*
X151522088Y-77672803D01*
X151527071Y-77603113D01*
X151544091Y-77557483D01*
X151550500Y-77497873D01*
X151550499Y-77300000D01*
X151828553Y-77300000D01*
X152050000Y-77521447D01*
X152271447Y-77300000D01*
X153828553Y-77300000D01*
X154050000Y-77521447D01*
X154271447Y-77300000D01*
X154050000Y-77078553D01*
X153828553Y-77300000D01*
X152271447Y-77300000D01*
X152050000Y-77078553D01*
X151828553Y-77300000D01*
X151550499Y-77300000D01*
X151550499Y-77102128D01*
X151544091Y-77042517D01*
X151535070Y-77018333D01*
X151530085Y-76948644D01*
X151535066Y-76931677D01*
X151544091Y-76907483D01*
X151544092Y-76907471D01*
X151545313Y-76902306D01*
X151578310Y-76843135D01*
X151696446Y-76724999D01*
X151666610Y-76695163D01*
X151900000Y-76695163D01*
X151900000Y-76754837D01*
X151922836Y-76809968D01*
X151965032Y-76852164D01*
X152020163Y-76875000D01*
X152079837Y-76875000D01*
X152134968Y-76852164D01*
X152177164Y-76809968D01*
X152200000Y-76754837D01*
X152200000Y-76725000D01*
X152403553Y-76725000D01*
X152550000Y-76871447D01*
X152696447Y-76725000D01*
X152666610Y-76695163D01*
X152900000Y-76695163D01*
X152900000Y-76754837D01*
X152922836Y-76809968D01*
X152965032Y-76852164D01*
X153020163Y-76875000D01*
X153079837Y-76875000D01*
X153134968Y-76852164D01*
X153177164Y-76809968D01*
X153200000Y-76754837D01*
X153200000Y-76725000D01*
X153403553Y-76725000D01*
X153550000Y-76871447D01*
X153696447Y-76725000D01*
X153666610Y-76695163D01*
X153900000Y-76695163D01*
X153900000Y-76754837D01*
X153922836Y-76809968D01*
X153965032Y-76852164D01*
X154020163Y-76875000D01*
X154079837Y-76875000D01*
X154134968Y-76852164D01*
X154177164Y-76809968D01*
X154200000Y-76754837D01*
X154200000Y-76695163D01*
X154177164Y-76640032D01*
X154134968Y-76597836D01*
X154079837Y-76575000D01*
X154020163Y-76575000D01*
X153965032Y-76597836D01*
X153922836Y-76640032D01*
X153900000Y-76695163D01*
X153666610Y-76695163D01*
X153550000Y-76578553D01*
X153403553Y-76725000D01*
X153200000Y-76725000D01*
X153200000Y-76695163D01*
X153177164Y-76640032D01*
X153134968Y-76597836D01*
X153079837Y-76575000D01*
X153020163Y-76575000D01*
X152965032Y-76597836D01*
X152922836Y-76640032D01*
X152900000Y-76695163D01*
X152666610Y-76695163D01*
X152550000Y-76578553D01*
X152403553Y-76725000D01*
X152200000Y-76725000D01*
X152200000Y-76695163D01*
X152177164Y-76640032D01*
X152134968Y-76597836D01*
X152079837Y-76575000D01*
X152020163Y-76575000D01*
X151965032Y-76597836D01*
X151922836Y-76640032D01*
X151900000Y-76695163D01*
X151666610Y-76695163D01*
X151586818Y-76615371D01*
X151553333Y-76554048D01*
X151550499Y-76527690D01*
X151550499Y-76452129D01*
X151550498Y-76452123D01*
X151550497Y-76452116D01*
X151544091Y-76392517D01*
X151535070Y-76368333D01*
X151530085Y-76298644D01*
X151535066Y-76281677D01*
X151544091Y-76257483D01*
X151550500Y-76197873D01*
X151550500Y-76150000D01*
X151828553Y-76150000D01*
X152050000Y-76371447D01*
X152271447Y-76150000D01*
X153828553Y-76150000D01*
X154050000Y-76371447D01*
X154271447Y-76150000D01*
X154050000Y-75928553D01*
X153828553Y-76150000D01*
X152271447Y-76150000D01*
X152050000Y-75928553D01*
X151828553Y-76150000D01*
X151550500Y-76150000D01*
X151550499Y-75802128D01*
X151548960Y-75787810D01*
X151561367Y-75719051D01*
X151584569Y-75686876D01*
X151726283Y-75545163D01*
X151900000Y-75545163D01*
X151900000Y-75604837D01*
X151922836Y-75659968D01*
X151965032Y-75702164D01*
X152020163Y-75725000D01*
X152079837Y-75725000D01*
X152134968Y-75702164D01*
X152177164Y-75659968D01*
X152200000Y-75604837D01*
X152200000Y-75575000D01*
X152403553Y-75575000D01*
X152550000Y-75721447D01*
X152696447Y-75575000D01*
X152666610Y-75545163D01*
X152900000Y-75545163D01*
X152900000Y-75604837D01*
X152922836Y-75659968D01*
X152965032Y-75702164D01*
X153020163Y-75725000D01*
X153079837Y-75725000D01*
X153134968Y-75702164D01*
X153177164Y-75659968D01*
X153200000Y-75604837D01*
X153200000Y-75575000D01*
X153403553Y-75575000D01*
X153550000Y-75721447D01*
X153696447Y-75575000D01*
X153666610Y-75545163D01*
X153900000Y-75545163D01*
X153900000Y-75604837D01*
X153922836Y-75659968D01*
X153965032Y-75702164D01*
X154020163Y-75725000D01*
X154079837Y-75725000D01*
X154134968Y-75702164D01*
X154177164Y-75659968D01*
X154200000Y-75604837D01*
X154200000Y-75545163D01*
X154177164Y-75490032D01*
X154134968Y-75447836D01*
X154079837Y-75425000D01*
X154020163Y-75425000D01*
X153965032Y-75447836D01*
X153922836Y-75490032D01*
X153900000Y-75545163D01*
X153666610Y-75545163D01*
X153550000Y-75428553D01*
X153403553Y-75575000D01*
X153200000Y-75575000D01*
X153200000Y-75545163D01*
X153177164Y-75490032D01*
X153134968Y-75447836D01*
X153079837Y-75425000D01*
X153020163Y-75425000D01*
X152965032Y-75447836D01*
X152922836Y-75490032D01*
X152900000Y-75545163D01*
X152666610Y-75545163D01*
X152550000Y-75428553D01*
X152403553Y-75575000D01*
X152200000Y-75575000D01*
X152200000Y-75545163D01*
X152177164Y-75490032D01*
X152134968Y-75447836D01*
X152079837Y-75425000D01*
X152020163Y-75425000D01*
X151965032Y-75447836D01*
X151922836Y-75490032D01*
X151900000Y-75545163D01*
X151726283Y-75545163D01*
X152050000Y-75221447D01*
X152462318Y-74809128D01*
X152523641Y-74775643D01*
X152593332Y-74780627D01*
X152637680Y-74809128D01*
X152799999Y-74971447D01*
X152800000Y-74971446D01*
X152800000Y-74225000D01*
X151302155Y-74225000D01*
X151242627Y-74231401D01*
X151242620Y-74231403D01*
X151107913Y-74281645D01*
X151107906Y-74281649D01*
X150992812Y-74367809D01*
X150992809Y-74367812D01*
X150906649Y-74482906D01*
X150906645Y-74482913D01*
X150855951Y-74618833D01*
X150814080Y-74674767D01*
X150748616Y-74699184D01*
X150739769Y-74699500D01*
X150570808Y-74699500D01*
X150503769Y-74679815D01*
X150483127Y-74663181D01*
X149864674Y-74044727D01*
X149864673Y-74044726D01*
X149864669Y-74044723D01*
X149758127Y-73973535D01*
X149639744Y-73924499D01*
X149639738Y-73924497D01*
X149514071Y-73899500D01*
X149514069Y-73899500D01*
X148542450Y-73899500D01*
X148475411Y-73879815D01*
X148463956Y-73870584D01*
X148463734Y-73870869D01*
X148457829Y-73866242D01*
X148320570Y-73783267D01*
X148320566Y-73783265D01*
X148167433Y-73735548D01*
X148167435Y-73735548D01*
X148140812Y-73733128D01*
X148100881Y-73729500D01*
X148100878Y-73729500D01*
X147599111Y-73729500D01*
X147532573Y-73735546D01*
X147532566Y-73735548D01*
X147379433Y-73783265D01*
X147379429Y-73783267D01*
X147316649Y-73821219D01*
X147249094Y-73839055D01*
X147188349Y-73821218D01*
X147157267Y-73802428D01*
X147152527Y-73799414D01*
X147081550Y-73751988D01*
X147081547Y-73751987D01*
X146917667Y-73684106D01*
X146917658Y-73684103D01*
X146743694Y-73649500D01*
X146743691Y-73649500D01*
X145561309Y-73649500D01*
X145561306Y-73649500D01*
X145387341Y-73684103D01*
X145387332Y-73684106D01*
X145223459Y-73751983D01*
X145223446Y-73751990D01*
X145075965Y-73850535D01*
X145075961Y-73850538D01*
X144950538Y-73975961D01*
X144950535Y-73975965D01*
X144851990Y-74123446D01*
X144851983Y-74123459D01*
X144784106Y-74287332D01*
X144784103Y-74287341D01*
X144749500Y-74461304D01*
X144749500Y-74638695D01*
X144784103Y-74812658D01*
X144784106Y-74812667D01*
X144851983Y-74976540D01*
X144851990Y-74976553D01*
X144950535Y-75124034D01*
X144950538Y-75124038D01*
X145075961Y-75249461D01*
X145075965Y-75249464D01*
X145223446Y-75348009D01*
X145223459Y-75348016D01*
X145287039Y-75374351D01*
X145387334Y-75415894D01*
X145387336Y-75415894D01*
X145387341Y-75415896D01*
X145561304Y-75450499D01*
X145561307Y-75450500D01*
X145561309Y-75450500D01*
X146019142Y-75450500D01*
X146086181Y-75470185D01*
X146106823Y-75486819D01*
X146613181Y-75993176D01*
X146646666Y-76054499D01*
X146649500Y-76080857D01*
X146649500Y-76194699D01*
X146629815Y-76261738D01*
X146577011Y-76307493D01*
X146564507Y-76312403D01*
X146531962Y-76323188D01*
X146480668Y-76340185D01*
X146480663Y-76340187D01*
X146331342Y-76432289D01*
X146207288Y-76556343D01*
X146207283Y-76556349D01*
X146205241Y-76559661D01*
X146203247Y-76561453D01*
X146202807Y-76562011D01*
X146202711Y-76561935D01*
X146153291Y-76606383D01*
X146084328Y-76617602D01*
X146020247Y-76589755D01*
X145994168Y-76559656D01*
X145992319Y-76556659D01*
X145992316Y-76556655D01*
X145868345Y-76432684D01*
X145719124Y-76340643D01*
X145719119Y-76340641D01*
X145552697Y-76285494D01*
X145552690Y-76285493D01*
X145449986Y-76275000D01*
X145312500Y-76275000D01*
X145312500Y-78000500D01*
X145292815Y-78067539D01*
X145240011Y-78113294D01*
X145188500Y-78124500D01*
X144936500Y-78124500D01*
X144869461Y-78104815D01*
X144823706Y-78052011D01*
X144812500Y-78000500D01*
X144812500Y-77750000D01*
X144064517Y-77750000D01*
X143997478Y-77730315D01*
X143976836Y-77713681D01*
X143238169Y-76975013D01*
X143975000Y-76975013D01*
X143975000Y-77250000D01*
X144812500Y-77250000D01*
X144812500Y-76275000D01*
X144675027Y-76275000D01*
X144675012Y-76275001D01*
X144572302Y-76285494D01*
X144405880Y-76340641D01*
X144405875Y-76340643D01*
X144256654Y-76432684D01*
X144132684Y-76556654D01*
X144040643Y-76705875D01*
X144040641Y-76705880D01*
X143985494Y-76872302D01*
X143985493Y-76872309D01*
X143975000Y-76975013D01*
X143238169Y-76975013D01*
X142557883Y-76294727D01*
X142557882Y-76294726D01*
X142557878Y-76294723D01*
X142451336Y-76223535D01*
X142389375Y-76197870D01*
X142332953Y-76174499D01*
X142332954Y-76174499D01*
X142328972Y-76173707D01*
X142316916Y-76171309D01*
X142207280Y-76149500D01*
X142207278Y-76149500D01*
X140535931Y-76149500D01*
X140535929Y-76149500D01*
X140426293Y-76171309D01*
X140414236Y-76173707D01*
X140410255Y-76174499D01*
X140291874Y-76223534D01*
X140185328Y-76294725D01*
X140044641Y-76435412D01*
X139983318Y-76468896D01*
X139913626Y-76463912D01*
X139857693Y-76422040D01*
X139833276Y-76356576D01*
X139833432Y-76336922D01*
X139837932Y-76285494D01*
X139840162Y-76260000D01*
X139821549Y-76047253D01*
X139766276Y-75840970D01*
X139676021Y-75647419D01*
X139559666Y-75481246D01*
X139553527Y-75472478D01*
X139402521Y-75321472D01*
X139227578Y-75198977D01*
X139227579Y-75198977D01*
X139097290Y-75138223D01*
X139034030Y-75108724D01*
X139034026Y-75108723D01*
X139034022Y-75108721D01*
X138827752Y-75053452D01*
X138827748Y-75053451D01*
X138827747Y-75053451D01*
X138827746Y-75053450D01*
X138827741Y-75053450D01*
X138615002Y-75034838D01*
X138614998Y-75034838D01*
X138402258Y-75053450D01*
X138402247Y-75053452D01*
X138195977Y-75108721D01*
X138195968Y-75108725D01*
X138002421Y-75198977D01*
X137827478Y-75321472D01*
X137676472Y-75472478D01*
X137657816Y-75499123D01*
X137603240Y-75542748D01*
X137556241Y-75552000D01*
X133292450Y-75552000D01*
X133225411Y-75532315D01*
X133204769Y-75515681D01*
X133170334Y-75481246D01*
X133170329Y-75481242D01*
X133033070Y-75398267D01*
X133033066Y-75398265D01*
X132879933Y-75350548D01*
X132879935Y-75350548D01*
X132851994Y-75348009D01*
X132813381Y-75344500D01*
X132813378Y-75344500D01*
X132386611Y-75344500D01*
X132320073Y-75350546D01*
X132320066Y-75350548D01*
X132166933Y-75398265D01*
X132166929Y-75398267D01*
X132029670Y-75481242D01*
X132029665Y-75481246D01*
X131916246Y-75594665D01*
X131916242Y-75594670D01*
X131833267Y-75731929D01*
X131833265Y-75731933D01*
X131785548Y-75885065D01*
X131779500Y-75951621D01*
X131779500Y-76453388D01*
X131785546Y-76519926D01*
X131785548Y-76519933D01*
X131833265Y-76673066D01*
X131833267Y-76673070D01*
X131871511Y-76736334D01*
X131889347Y-76803889D01*
X131871512Y-76864632D01*
X131833724Y-76927141D01*
X131786043Y-77080156D01*
X131780000Y-77146662D01*
X131780000Y-77147500D01*
X133420000Y-77147500D01*
X133420000Y-77146662D01*
X133413956Y-77080158D01*
X133393307Y-77013891D01*
X133392155Y-76944030D01*
X133428956Y-76884638D01*
X133492025Y-76854570D01*
X133511692Y-76853000D01*
X137475718Y-76853000D01*
X137542757Y-76872685D01*
X137577292Y-76905876D01*
X137578418Y-76907484D01*
X137676472Y-77047521D01*
X137827478Y-77198527D01*
X137827481Y-77198529D01*
X138002419Y-77321021D01*
X138002421Y-77321022D01*
X138002420Y-77321022D01*
X138066936Y-77351106D01*
X138195970Y-77411276D01*
X138402253Y-77466549D01*
X138538076Y-77478432D01*
X138614998Y-77485162D01*
X138615000Y-77485162D01*
X138615001Y-77485162D01*
X138652556Y-77481876D01*
X138691923Y-77478432D01*
X138760423Y-77492199D01*
X138810606Y-77540814D01*
X138826540Y-77608842D01*
X138803165Y-77674686D01*
X138790412Y-77689641D01*
X138109724Y-78370329D01*
X138060731Y-78443655D01*
X138060730Y-78443655D01*
X138038536Y-78476870D01*
X138038534Y-78476874D01*
X137989499Y-78595255D01*
X137989497Y-78595261D01*
X137964500Y-78720928D01*
X137964500Y-80240978D01*
X137944815Y-80308017D01*
X137911625Y-80342552D01*
X137827481Y-80401471D01*
X137676469Y-80552482D01*
X137553977Y-80727421D01*
X137463725Y-80920968D01*
X137463721Y-80920977D01*
X137408452Y-81127247D01*
X137408450Y-81127258D01*
X137389838Y-81339998D01*
X137389838Y-81340001D01*
X137408450Y-81552741D01*
X137408452Y-81552752D01*
X137463721Y-81759022D01*
X137463723Y-81759026D01*
X137463724Y-81759030D01*
X137485249Y-81805190D01*
X137553977Y-81952578D01*
X137676472Y-82127521D01*
X137827478Y-82278527D01*
X137827481Y-82278529D01*
X138002419Y-82401021D01*
X138002421Y-82401022D01*
X138002420Y-82401022D01*
X138051697Y-82424000D01*
X138195970Y-82491276D01*
X138402253Y-82546549D01*
X138554215Y-82559844D01*
X138614998Y-82565162D01*
X138615000Y-82565162D01*
X138615002Y-82565162D01*
X138668186Y-82560508D01*
X138827747Y-82546549D01*
X139034030Y-82491276D01*
X139227581Y-82401021D01*
X139402519Y-82278529D01*
X139553529Y-82127519D01*
X139676021Y-81952581D01*
X139766276Y-81759030D01*
X139821549Y-81552747D01*
X139840162Y-81340000D01*
X139839094Y-81327797D01*
X139830102Y-81225016D01*
X139821549Y-81127253D01*
X139772050Y-80942518D01*
X139766278Y-80920977D01*
X139766277Y-80920976D01*
X139766276Y-80920970D01*
X139676021Y-80727419D01*
X139605462Y-80626650D01*
X139553530Y-80552482D01*
X139478845Y-80477797D01*
X139402519Y-80401471D01*
X139356322Y-80369123D01*
X139318375Y-80342552D01*
X139274751Y-80287974D01*
X139265500Y-80240978D01*
X139265500Y-79105807D01*
X139285185Y-79038768D01*
X139301815Y-79018130D01*
X139728235Y-78591709D01*
X139789558Y-78558225D01*
X139859250Y-78563209D01*
X139915183Y-78605081D01*
X139939600Y-78670545D01*
X139939444Y-78690198D01*
X139929838Y-78799997D01*
X139929838Y-78800001D01*
X139948450Y-79012741D01*
X139948452Y-79012752D01*
X140003721Y-79219022D01*
X140003723Y-79219026D01*
X140003724Y-79219030D01*
X140025427Y-79265572D01*
X140093977Y-79412578D01*
X140216472Y-79587521D01*
X140367478Y-79738527D01*
X140394640Y-79757546D01*
X140542419Y-79861021D01*
X140542421Y-79861022D01*
X140542420Y-79861022D01*
X140573471Y-79875501D01*
X140735970Y-79951276D01*
X140735976Y-79951277D01*
X140735977Y-79951278D01*
X140785627Y-79964581D01*
X140942253Y-80006549D01*
X141094215Y-80019844D01*
X141154998Y-80025162D01*
X141155000Y-80025162D01*
X141155002Y-80025162D01*
X141358134Y-80007390D01*
X141367747Y-80006549D01*
X141367747Y-80006548D01*
X141373141Y-80006077D01*
X141373255Y-80007390D01*
X141436396Y-80014429D01*
X141476176Y-80041122D01*
X143140325Y-81705272D01*
X143140331Y-81705277D01*
X143246874Y-81776466D01*
X143316221Y-81805189D01*
X143365256Y-81825501D01*
X143365259Y-81825501D01*
X143365260Y-81825502D01*
X143490928Y-81850500D01*
X143490931Y-81850500D01*
X146313650Y-81850500D01*
X146380689Y-81870185D01*
X146426444Y-81922989D01*
X146436388Y-81992147D01*
X146420382Y-82037621D01*
X146364092Y-82132802D01*
X146364090Y-82132805D01*
X146317921Y-82291718D01*
X146317270Y-82300000D01*
X147308500Y-82300000D01*
X147375539Y-82319685D01*
X147421294Y-82372489D01*
X147432500Y-82424000D01*
X147432500Y-82665500D01*
X147412815Y-82732539D01*
X147360011Y-82778294D01*
X147308500Y-82789500D01*
X146903809Y-82789500D01*
X146903784Y-82789501D01*
X146866643Y-82792423D01*
X146857507Y-82795078D01*
X146822917Y-82800000D01*
X146317268Y-82800000D01*
X146317400Y-82801665D01*
X146303039Y-82870043D01*
X146253990Y-82919802D01*
X146185826Y-82935143D01*
X146156893Y-82929784D01*
X146014933Y-82885548D01*
X146014935Y-82885548D01*
X145988312Y-82883128D01*
X145948381Y-82879500D01*
X145948378Y-82879500D01*
X145446611Y-82879500D01*
X145380073Y-82885546D01*
X145380066Y-82885548D01*
X145226933Y-82933265D01*
X145226929Y-82933267D01*
X145164149Y-82971219D01*
X145096594Y-82989055D01*
X145035851Y-82971219D01*
X144973070Y-82933267D01*
X144973066Y-82933265D01*
X144819933Y-82885548D01*
X144819935Y-82885548D01*
X144793312Y-82883128D01*
X144753381Y-82879500D01*
X144753378Y-82879500D01*
X144251611Y-82879500D01*
X144185073Y-82885546D01*
X144185066Y-82885548D01*
X144031933Y-82933265D01*
X144031929Y-82933267D01*
X143951949Y-82981617D01*
X143887800Y-82999500D01*
X139831004Y-82999500D01*
X139695677Y-83026418D01*
X139695667Y-83026421D01*
X139568192Y-83079222D01*
X139453454Y-83155887D01*
X139453453Y-83155888D01*
X137446162Y-85163181D01*
X137384839Y-85196666D01*
X137358481Y-85199500D01*
X132731004Y-85199500D01*
X132595677Y-85226418D01*
X132595667Y-85226421D01*
X132468192Y-85279222D01*
X132353454Y-85355887D01*
X132046160Y-85663181D01*
X131984837Y-85696666D01*
X131958479Y-85699500D01*
X129952129Y-85699500D01*
X129952123Y-85699501D01*
X129892516Y-85705908D01*
X129757671Y-85756202D01*
X129757664Y-85756206D01*
X129642455Y-85842452D01*
X129642452Y-85842455D01*
X129556206Y-85957664D01*
X129556202Y-85957671D01*
X129505908Y-86092517D01*
X129499501Y-86152116D01*
X129499500Y-86152135D01*
X129499500Y-89047870D01*
X129499501Y-89047876D01*
X129505908Y-89107483D01*
X129556202Y-89242328D01*
X129556206Y-89242335D01*
X129642452Y-89357544D01*
X129642455Y-89357547D01*
X129757664Y-89443793D01*
X129757671Y-89443797D01*
X129892517Y-89494091D01*
X129892516Y-89494091D01*
X129899444Y-89494835D01*
X129952127Y-89500500D01*
X130675500Y-89500499D01*
X130742539Y-89520183D01*
X130788294Y-89572987D01*
X130799500Y-89624499D01*
X130799500Y-90167990D01*
X130779815Y-90235029D01*
X130727011Y-90280784D01*
X130657853Y-90290728D01*
X130627338Y-90281065D01*
X130626954Y-90281994D01*
X130622452Y-90280129D01*
X130543694Y-90254539D01*
X130457701Y-90226598D01*
X130457699Y-90226597D01*
X130457698Y-90226597D01*
X130326271Y-90205781D01*
X130286611Y-90199500D01*
X130113389Y-90199500D01*
X130073728Y-90205781D01*
X129942302Y-90226597D01*
X129777552Y-90280128D01*
X129623211Y-90358768D01*
X129600500Y-90375269D01*
X129483072Y-90460586D01*
X129483070Y-90460588D01*
X129483069Y-90460588D01*
X129360588Y-90583069D01*
X129360588Y-90583070D01*
X129360586Y-90583072D01*
X129316859Y-90643256D01*
X129258768Y-90723211D01*
X129180128Y-90877552D01*
X129126597Y-91042302D01*
X129099500Y-91213389D01*
X124100000Y-91213389D01*
X124100000Y-80906879D01*
X125146672Y-80906879D01*
X125146672Y-80906880D01*
X125262821Y-80978797D01*
X125262822Y-80978798D01*
X125470195Y-81059134D01*
X125688807Y-81100000D01*
X125911193Y-81100000D01*
X126129809Y-81059133D01*
X126337168Y-80978801D01*
X126337181Y-80978795D01*
X126453326Y-80906879D01*
X127146672Y-80906879D01*
X127146672Y-80906880D01*
X127262821Y-80978797D01*
X127262822Y-80978798D01*
X127470195Y-81059134D01*
X127688807Y-81100000D01*
X127911193Y-81100000D01*
X128129809Y-81059133D01*
X128337168Y-80978801D01*
X128337181Y-80978795D01*
X128453326Y-80906879D01*
X127800001Y-80253553D01*
X127800000Y-80253553D01*
X127146672Y-80906879D01*
X126453326Y-80906879D01*
X125800001Y-80253553D01*
X125800000Y-80253553D01*
X125146672Y-80906879D01*
X124100000Y-80906879D01*
X124100000Y-79899999D01*
X124594859Y-79899999D01*
X124594859Y-79900000D01*
X124615378Y-80121439D01*
X124676240Y-80335350D01*
X124775369Y-80534428D01*
X124791137Y-80555308D01*
X124791138Y-80555308D01*
X125446447Y-79900000D01*
X125400369Y-79853922D01*
X125450000Y-79853922D01*
X125450000Y-79946078D01*
X125473852Y-80035095D01*
X125519930Y-80114905D01*
X125585095Y-80180070D01*
X125664905Y-80226148D01*
X125753922Y-80250000D01*
X125846078Y-80250000D01*
X125935095Y-80226148D01*
X126014905Y-80180070D01*
X126080070Y-80114905D01*
X126126148Y-80035095D01*
X126150000Y-79946078D01*
X126150000Y-79900000D01*
X126153553Y-79900000D01*
X126800000Y-80546447D01*
X127446447Y-79900000D01*
X127400369Y-79853922D01*
X127450000Y-79853922D01*
X127450000Y-79946078D01*
X127473852Y-80035095D01*
X127519930Y-80114905D01*
X127585095Y-80180070D01*
X127664905Y-80226148D01*
X127753922Y-80250000D01*
X127846078Y-80250000D01*
X127935095Y-80226148D01*
X128014905Y-80180070D01*
X128080070Y-80114905D01*
X128126148Y-80035095D01*
X128150000Y-79946078D01*
X128150000Y-79899999D01*
X128153553Y-79899999D01*
X128153553Y-79900000D01*
X128808861Y-80555308D01*
X128824631Y-80534425D01*
X128824633Y-80534422D01*
X128923759Y-80335350D01*
X128984621Y-80121439D01*
X129005141Y-79900000D01*
X129005141Y-79899999D01*
X128984621Y-79678560D01*
X128923759Y-79464649D01*
X128824635Y-79265580D01*
X128824630Y-79265572D01*
X128808860Y-79244690D01*
X128153553Y-79899999D01*
X128150000Y-79899999D01*
X128150000Y-79853922D01*
X128126148Y-79764905D01*
X128080070Y-79685095D01*
X128014905Y-79619930D01*
X127935095Y-79573852D01*
X127846078Y-79550000D01*
X127753922Y-79550000D01*
X127664905Y-79573852D01*
X127585095Y-79619930D01*
X127519930Y-79685095D01*
X127473852Y-79764905D01*
X127450000Y-79853922D01*
X127400369Y-79853922D01*
X126800000Y-79253553D01*
X126153553Y-79900000D01*
X126150000Y-79900000D01*
X126150000Y-79853922D01*
X126126148Y-79764905D01*
X126080070Y-79685095D01*
X126014905Y-79619930D01*
X125935095Y-79573852D01*
X125846078Y-79550000D01*
X125753922Y-79550000D01*
X125664905Y-79573852D01*
X125585095Y-79619930D01*
X125519930Y-79685095D01*
X125473852Y-79764905D01*
X125450000Y-79853922D01*
X125400369Y-79853922D01*
X124791138Y-79244691D01*
X124791137Y-79244691D01*
X124775368Y-79265574D01*
X124676240Y-79464649D01*
X124615378Y-79678560D01*
X124594859Y-79899999D01*
X124100000Y-79899999D01*
X124100000Y-78893119D01*
X125146671Y-78893119D01*
X125800000Y-79546447D01*
X125800001Y-79546447D01*
X126453327Y-78893119D01*
X127146671Y-78893119D01*
X127800000Y-79546447D01*
X127800001Y-79546447D01*
X128453327Y-78893119D01*
X128337178Y-78821202D01*
X128337177Y-78821201D01*
X128129804Y-78740865D01*
X127911193Y-78700000D01*
X127688807Y-78700000D01*
X127470195Y-78740865D01*
X127262824Y-78821200D01*
X127262823Y-78821201D01*
X127146671Y-78893119D01*
X126453327Y-78893119D01*
X126337178Y-78821202D01*
X126337177Y-78821201D01*
X126129804Y-78740865D01*
X125911193Y-78700000D01*
X125688807Y-78700000D01*
X125470195Y-78740865D01*
X125262824Y-78821200D01*
X125262823Y-78821201D01*
X125146671Y-78893119D01*
X124100000Y-78893119D01*
X124100000Y-77648337D01*
X131780000Y-77648337D01*
X131786043Y-77714843D01*
X131833724Y-77867859D01*
X131833726Y-77867863D01*
X131916639Y-78005019D01*
X131916642Y-78005023D01*
X132029976Y-78118357D01*
X132029980Y-78118360D01*
X132167136Y-78201273D01*
X132167138Y-78201274D01*
X132320155Y-78248956D01*
X132320161Y-78248958D01*
X132349999Y-78251668D01*
X132350000Y-78251668D01*
X132850000Y-78251668D01*
X132879838Y-78248958D01*
X132879844Y-78248956D01*
X133032861Y-78201274D01*
X133032863Y-78201273D01*
X133170019Y-78118360D01*
X133170023Y-78118357D01*
X133283357Y-78005023D01*
X133283360Y-78005019D01*
X133366273Y-77867863D01*
X133366275Y-77867859D01*
X133413956Y-77714843D01*
X133420000Y-77648337D01*
X133420000Y-77647500D01*
X132850000Y-77647500D01*
X132850000Y-78251668D01*
X132350000Y-78251668D01*
X132350000Y-77647500D01*
X131780000Y-77647500D01*
X131780000Y-77648337D01*
X124100000Y-77648337D01*
X124100000Y-71881902D01*
X127049500Y-71881902D01*
X127049500Y-72118097D01*
X127086446Y-72351368D01*
X127159433Y-72575996D01*
X127266657Y-72786433D01*
X127405483Y-72977510D01*
X127572490Y-73144517D01*
X127763567Y-73283343D01*
X127843573Y-73324108D01*
X127974003Y-73390566D01*
X127974005Y-73390566D01*
X127974008Y-73390568D01*
X128094412Y-73429689D01*
X128198631Y-73463553D01*
X128431903Y-73500500D01*
X128431908Y-73500500D01*
X130168097Y-73500500D01*
X130401368Y-73463553D01*
X130625992Y-73390568D01*
X130836433Y-73283343D01*
X131027510Y-73144517D01*
X131194517Y-72977510D01*
X131333343Y-72786433D01*
X131440568Y-72575992D01*
X131513553Y-72351368D01*
X131524807Y-72280315D01*
X131550500Y-72118097D01*
X131550500Y-71881902D01*
X131513553Y-71648631D01*
X131446582Y-71442517D01*
X131440568Y-71424008D01*
X131440566Y-71424005D01*
X131440566Y-71424003D01*
X131354794Y-71255667D01*
X131333343Y-71213567D01*
X131194517Y-71022490D01*
X131027510Y-70855483D01*
X130836433Y-70716657D01*
X130625996Y-70609433D01*
X130401368Y-70536446D01*
X130168097Y-70499500D01*
X130168092Y-70499500D01*
X128431908Y-70499500D01*
X128431903Y-70499500D01*
X128198631Y-70536446D01*
X127974003Y-70609433D01*
X127763566Y-70716657D01*
X127654550Y-70795862D01*
X127572490Y-70855483D01*
X127572488Y-70855485D01*
X127572487Y-70855485D01*
X127405485Y-71022487D01*
X127405485Y-71022488D01*
X127405483Y-71022490D01*
X127345862Y-71104550D01*
X127266657Y-71213566D01*
X127159433Y-71424003D01*
X127086446Y-71648631D01*
X127049500Y-71881902D01*
X124100000Y-71881902D01*
X124100000Y-67396530D01*
X126249500Y-67396530D01*
X126249500Y-67603469D01*
X126289868Y-67806412D01*
X126289870Y-67806420D01*
X126369058Y-67997596D01*
X126484024Y-68169657D01*
X126630342Y-68315975D01*
X126630345Y-68315977D01*
X126802402Y-68430941D01*
X126993580Y-68510130D01*
X127194519Y-68550099D01*
X127196530Y-68550499D01*
X127196534Y-68550500D01*
X127196535Y-68550500D01*
X127403466Y-68550500D01*
X127403467Y-68550499D01*
X127606420Y-68510130D01*
X127797598Y-68430941D01*
X127969655Y-68315977D01*
X128115977Y-68169655D01*
X128230941Y-67997598D01*
X128310130Y-67806420D01*
X128350500Y-67603465D01*
X128350500Y-67396535D01*
X128310130Y-67193580D01*
X128230941Y-67002402D01*
X128115977Y-66830345D01*
X128115975Y-66830342D01*
X128017580Y-66731947D01*
X128800000Y-66731947D01*
X128800000Y-67250000D01*
X129800000Y-67250000D01*
X129800000Y-67750000D01*
X128800000Y-67750000D01*
X128800000Y-68268052D01*
X128836934Y-68501247D01*
X128909897Y-68725802D01*
X129017085Y-68936171D01*
X129155866Y-69127186D01*
X129322813Y-69294133D01*
X129513828Y-69432914D01*
X129724195Y-69540102D01*
X129948744Y-69613063D01*
X129948750Y-69613065D01*
X130050000Y-69629101D01*
X130050000Y-68583012D01*
X130107007Y-68615925D01*
X130234174Y-68650000D01*
X130365826Y-68650000D01*
X130492993Y-68615925D01*
X130550000Y-68583012D01*
X130550000Y-69629100D01*
X130651249Y-69613065D01*
X130651255Y-69613063D01*
X130875804Y-69540102D01*
X131086171Y-69432914D01*
X131277186Y-69294133D01*
X131444133Y-69127186D01*
X131582914Y-68936171D01*
X131690102Y-68725802D01*
X131763065Y-68501247D01*
X131800000Y-68268052D01*
X131800000Y-67750000D01*
X130800000Y-67750000D01*
X130800000Y-67250000D01*
X131800000Y-67250000D01*
X131800000Y-66731947D01*
X131763065Y-66498752D01*
X131690102Y-66274197D01*
X131582914Y-66063828D01*
X131444133Y-65872813D01*
X131277186Y-65705866D01*
X131086171Y-65567085D01*
X130875802Y-65459897D01*
X130851913Y-65452135D01*
X134799500Y-65452135D01*
X134799500Y-69547870D01*
X134799501Y-69547876D01*
X134805908Y-69607483D01*
X134856202Y-69742328D01*
X134856206Y-69742335D01*
X134942452Y-69857544D01*
X134942455Y-69857547D01*
X135057664Y-69943793D01*
X135057671Y-69943797D01*
X135192517Y-69994091D01*
X135192516Y-69994091D01*
X135199444Y-69994835D01*
X135252127Y-70000500D01*
X137347872Y-70000499D01*
X137407483Y-69994091D01*
X137542331Y-69943796D01*
X137657546Y-69857546D01*
X137743796Y-69742331D01*
X137794091Y-69607483D01*
X137800500Y-69547873D01*
X137800499Y-65452128D01*
X137794091Y-65392517D01*
X137786027Y-65370897D01*
X137743797Y-65257671D01*
X137743793Y-65257664D01*
X137657547Y-65142455D01*
X137657544Y-65142452D01*
X137542335Y-65056206D01*
X137542328Y-65056202D01*
X137407482Y-65005908D01*
X137407483Y-65005908D01*
X137347883Y-64999501D01*
X137347881Y-64999500D01*
X137347873Y-64999500D01*
X137347864Y-64999500D01*
X135252129Y-64999500D01*
X135252123Y-64999501D01*
X135192516Y-65005908D01*
X135057671Y-65056202D01*
X135057664Y-65056206D01*
X134942455Y-65142452D01*
X134942452Y-65142455D01*
X134856206Y-65257664D01*
X134856202Y-65257671D01*
X134805908Y-65392517D01*
X134801279Y-65435578D01*
X134799501Y-65452123D01*
X134799500Y-65452135D01*
X130851913Y-65452135D01*
X130651247Y-65386934D01*
X130550000Y-65370897D01*
X130550000Y-66416988D01*
X130492993Y-66384075D01*
X130365826Y-66350000D01*
X130234174Y-66350000D01*
X130107007Y-66384075D01*
X130050000Y-66416988D01*
X130050000Y-65370897D01*
X129948752Y-65386934D01*
X129724197Y-65459897D01*
X129513828Y-65567085D01*
X129322813Y-65705866D01*
X129155866Y-65872813D01*
X129017085Y-66063828D01*
X128909897Y-66274197D01*
X128836934Y-66498752D01*
X128800000Y-66731947D01*
X128017580Y-66731947D01*
X127969657Y-66684024D01*
X127882025Y-66625471D01*
X127797598Y-66569059D01*
X127734669Y-66542993D01*
X127606420Y-66489870D01*
X127606412Y-66489868D01*
X127403469Y-66449500D01*
X127403465Y-66449500D01*
X127196535Y-66449500D01*
X127196530Y-66449500D01*
X126993587Y-66489868D01*
X126993579Y-66489870D01*
X126802403Y-66569058D01*
X126630342Y-66684024D01*
X126484024Y-66830342D01*
X126369058Y-67002403D01*
X126289870Y-67193579D01*
X126289868Y-67193587D01*
X126249500Y-67396530D01*
X124100000Y-67396530D01*
X124100000Y-62881902D01*
X127049500Y-62881902D01*
X127049500Y-63118097D01*
X127086446Y-63351368D01*
X127159433Y-63575996D01*
X127266657Y-63786433D01*
X127405483Y-63977510D01*
X127572490Y-64144517D01*
X127763567Y-64283343D01*
X127862991Y-64334002D01*
X127974003Y-64390566D01*
X127974005Y-64390566D01*
X127974008Y-64390568D01*
X128094412Y-64429689D01*
X128198631Y-64463553D01*
X128431903Y-64500500D01*
X128431908Y-64500500D01*
X130168097Y-64500500D01*
X130401368Y-64463553D01*
X130625992Y-64390568D01*
X130836433Y-64283343D01*
X131027510Y-64144517D01*
X131194517Y-63977510D01*
X131333343Y-63786433D01*
X131440568Y-63575992D01*
X131513553Y-63351368D01*
X131550500Y-63118097D01*
X131550500Y-62881902D01*
X131513553Y-62648631D01*
X131440566Y-62424003D01*
X131333342Y-62213566D01*
X131194517Y-62022490D01*
X131027510Y-61855483D01*
X130836433Y-61716657D01*
X130625996Y-61609433D01*
X130401368Y-61536446D01*
X130168097Y-61499500D01*
X130168092Y-61499500D01*
X128431908Y-61499500D01*
X128431903Y-61499500D01*
X128198631Y-61536446D01*
X127974003Y-61609433D01*
X127763566Y-61716657D01*
X127654550Y-61795862D01*
X127572490Y-61855483D01*
X127572488Y-61855485D01*
X127572487Y-61855485D01*
X127405485Y-62022487D01*
X127405485Y-62022488D01*
X127405483Y-62022490D01*
X127345862Y-62104550D01*
X127266657Y-62213566D01*
X127159433Y-62424003D01*
X127086446Y-62648631D01*
X127049500Y-62881902D01*
X124100000Y-62881902D01*
X124100000Y-61302021D01*
X124100066Y-61297978D01*
X124101673Y-61248720D01*
X124101674Y-61248717D01*
X124101673Y-61248715D01*
X124105831Y-61220675D01*
X124131843Y-61123594D01*
X124144226Y-61093701D01*
X124193452Y-61008437D01*
X124213151Y-60982766D01*
X124282766Y-60913151D01*
X124308437Y-60893452D01*
X124393701Y-60844226D01*
X124423594Y-60831843D01*
X124520675Y-60805831D01*
X124548715Y-60801673D01*
X124593582Y-60800209D01*
X124597979Y-60800066D01*
X124602022Y-60800000D01*
X184597978Y-60800000D01*
X184602021Y-60800066D01*
G37*
%TD.AperFunction*%
%TD*%
M02*
